<?xml version="1.0" encoding="UTF-8" standalone="no"?>
<svg
   xmlns:dc="http://purl.org/dc/elements/1.1/"
   xmlns:cc="http://creativecommons.org/ns#"
   xmlns:rdf="http://www.w3.org/1999/02/22-rdf-syntax-ns#"
   xmlns:svg="http://www.w3.org/2000/svg"
   xmlns="http://www.w3.org/2000/svg"
   viewBox="0 0 1152 768"
   height="768"
   width="1152"
   xml:space="preserve"
   id="svg2"
   version="1.1"><metadata
     id="metadata8"><rdf:RDF><cc:Work
         rdf:about=""><dc:format>image/svg+xml</dc:format><dc:type
           rdf:resource="http://purl.org/dc/dcmitype/StillImage" /></cc:Work></rdf:RDF></metadata><defs
     id="defs6"><clipPath
       id="clipPath24"
       clipPathUnits="userSpaceOnUse"><path
         id="path22"
         d="m 102,14.301 h 2 v 514.898 h -2 z" /></clipPath><clipPath
       id="clipPath34"
       clipPathUnits="userSpaceOnUse"><path
         id="path32"
         d="M 0,0 H 864 V 576 H 0 Z" /></clipPath><clipPath
       id="clipPath64"
       clipPathUnits="userSpaceOnUse"><path
         id="path62"
         d="m 192,14.301 h 2 v 514.898 h -2 z" /></clipPath><clipPath
       id="clipPath74"
       clipPathUnits="userSpaceOnUse"><path
         id="path72"
         d="M 0,0 H 864 V 576 H 0 Z" /></clipPath><clipPath
       id="clipPath102"
       clipPathUnits="userSpaceOnUse"><path
         id="path100"
         d="m 281,14.301 h 3 v 514.898 h -3 z" /></clipPath><clipPath
       id="clipPath112"
       clipPathUnits="userSpaceOnUse"><path
         id="path110"
         d="M 0,0 H 864 V 576 H 0 Z" /></clipPath><clipPath
       id="clipPath140"
       clipPathUnits="userSpaceOnUse"><path
         id="path138"
         d="m 371,14.301 h 2 v 514.898 h -2 z" /></clipPath><clipPath
       id="clipPath150"
       clipPathUnits="userSpaceOnUse"><path
         id="path148"
         d="M 0,0 H 864 V 576 H 0 Z" /></clipPath><clipPath
       id="clipPath178"
       clipPathUnits="userSpaceOnUse"><path
         id="path176"
         d="m 461,14.301 h 2 v 514.898 h -2 z" /></clipPath><clipPath
       id="clipPath188"
       clipPathUnits="userSpaceOnUse"><path
         id="path186"
         d="M 0,0 H 864 V 576 H 0 Z" /></clipPath><clipPath
       id="clipPath214"
       clipPathUnits="userSpaceOnUse"><path
         id="path212"
         d="m 550,14.301 h 2 v 514.898 h -2 z" /></clipPath><clipPath
       id="clipPath224"
       clipPathUnits="userSpaceOnUse"><path
         id="path222"
         d="M 0,0 H 864 V 576 H 0 Z" /></clipPath><clipPath
       id="clipPath250"
       clipPathUnits="userSpaceOnUse"><path
         id="path248"
         d="m 640,14.301 h 2 v 514.898 h -2 z" /></clipPath><clipPath
       id="clipPath260"
       clipPathUnits="userSpaceOnUse"><path
         id="path258"
         d="M 0,0 H 864 V 576 H 0 Z" /></clipPath><clipPath
       id="clipPath286"
       clipPathUnits="userSpaceOnUse"><path
         id="path284"
         d="m 729,14.301 h 2 v 514.898 h -2 z" /></clipPath><clipPath
       id="clipPath296"
       clipPathUnits="userSpaceOnUse"><path
         id="path294"
         d="M 0,0 H 864 V 576 H 0 Z" /></clipPath><clipPath
       id="clipPath322"
       clipPathUnits="userSpaceOnUse"><path
         id="path320"
         d="m 819,14.301 h 2 v 514.898 h -2 z" /></clipPath><clipPath
       id="clipPath332"
       clipPathUnits="userSpaceOnUse"><path
         id="path330"
         d="M 0,0 H 864 V 576 H 0 Z" /></clipPath><clipPath
       id="clipPath388"
       clipPathUnits="userSpaceOnUse"><path
         id="path386"
         d="m 73.551,443 h 776.148 v 2 H 73.551 Z" /></clipPath><clipPath
       id="clipPath398"
       clipPathUnits="userSpaceOnUse"><path
         id="path396"
         d="M 0,0 H 864 V 576 H 0 Z" /></clipPath><clipPath
       id="clipPath430"
       clipPathUnits="userSpaceOnUse"><path
         id="path428"
         d="m 73.551,357 h 776.148 v 2 H 73.551 Z" /></clipPath><clipPath
       id="clipPath440"
       clipPathUnits="userSpaceOnUse"><path
         id="path438"
         d="M 0,0 H 864 V 576 H 0 Z" /></clipPath><clipPath
       id="clipPath472"
       clipPathUnits="userSpaceOnUse"><path
         id="path470"
         d="m 73.551,271 h 776.148 v 2 H 73.551 Z" /></clipPath><clipPath
       id="clipPath482"
       clipPathUnits="userSpaceOnUse"><path
         id="path480"
         d="M 0,0 H 864 V 576 H 0 Z" /></clipPath><clipPath
       id="clipPath512"
       clipPathUnits="userSpaceOnUse"><path
         id="path510"
         d="m 73.551,184 h 776.148 v 3 H 73.551 Z" /></clipPath><clipPath
       id="clipPath522"
       clipPathUnits="userSpaceOnUse"><path
         id="path520"
         d="M 0,0 H 864 V 576 H 0 Z" /></clipPath><clipPath
       id="clipPath552"
       clipPathUnits="userSpaceOnUse"><path
         id="path550"
         d="m 73.551,98 h 776.148 v 2 H 73.551 Z" /></clipPath><clipPath
       id="clipPath562"
       clipPathUnits="userSpaceOnUse"><path
         id="path560"
         d="M 0,0 H 864 V 576 H 0 Z" /></clipPath></defs><g
     transform="scale(1.3333333)"
     id="g10"><g
       id="g12"><path
         id="path14"
         style="fill:#ffffff;fill-opacity:1;fill-rule:nonzero;stroke:none"
         d="M 0,0 H 864 V 576 H 0 Z" /><path
         id="path16"
         style="fill:#ffffff;fill-opacity:1;fill-rule:nonzero;stroke:none"
         d="M 73.551,14.301 H 849.699 V 529.199 H 73.551 Z" /></g><g
       id="g18"><g
         clip-path="url(#clipPath24)"
         id="g20"><g
           id="g26"><g
             id="g28"><g
               clip-path="url(#clipPath34)"
               id="g30"><g
                 id="g36"><g
                   transform="scale(1,-1)"
                   id="g38"><path
                     id="path40"
                     style="fill:none;stroke:#b0b0b0;stroke-width:0.80000001;stroke-linecap:square;stroke-linejoin:round;stroke-miterlimit:10;stroke-dasharray:none;stroke-opacity:1"
                     d="M 103.293,-529.199 V -14.301" /></g></g></g></g></g></g></g><g
       id="g42"><g
         transform="scale(1,-1)"
         id="g44"><path
           id="path46"
           style="fill:none;stroke:#000000;stroke-width:0.80000001;stroke-linecap:butt;stroke-linejoin:round;stroke-miterlimit:10;stroke-dasharray:none;stroke-opacity:1"
           d="m 103.293,-529.199 v -3.5" /></g><path
         id="path48"
         style="fill:#000000;fill-opacity:1;fill-rule:nonzero;stroke:none"
         d="m 97.59,542.965 h 1.613 v -5.563 l -1.75,0.352 v -0.902 l 1.738,-0.348 h 0.989 v 6.461 h 1.613 v 0.828 H 97.59 v -0.828" /><path
         id="path50"
         style="fill:#000000;fill-opacity:1;fill-rule:nonzero;stroke:none"
         d="m 105.891,537.152 c -0.508,0 -0.891,0.25 -1.149,0.75 -0.262,0.5 -0.383,1.25 -0.383,2.25 0,1 0.121,1.75 0.383,2.25 0.258,0.5 0.641,0.75 1.149,0.75 0.511,0 0.89,-0.25 1.148,-0.75 0.25,-0.5 0.383,-1.25 0.383,-2.25 0,-1 -0.133,-1.75 -0.383,-2.25 -0.258,-0.5 -0.637,-0.75 -1.148,-0.75 m 0,-0.781 c 0.808,0 1.429,0.332 1.871,0.973 0.429,0.648 0.648,1.59 0.648,2.808 0,1.231 -0.219,2.172 -0.648,2.813 -0.442,0.637 -1.063,0.957 -1.871,0.957 -0.821,0 -1.45,-0.32 -1.879,-0.957 -0.43,-0.641 -0.641,-1.582 -0.641,-2.813 0,-1.218 0.211,-2.16 0.641,-2.808 0.429,-0.641 1.058,-0.973 1.879,-0.973" /><path
         id="path52"
         style="fill:#000000;fill-opacity:1;fill-rule:nonzero;stroke:none"
         d="m 110.145,542.555 h 1.031 v 1.238 h -1.031 z" /><path
         id="path54"
         style="fill:#000000;fill-opacity:1;fill-rule:nonzero;stroke:none"
         d="m 115.434,537.152 c -0.508,0 -0.891,0.25 -1.149,0.75 -0.262,0.5 -0.383,1.25 -0.383,2.25 0,1 0.121,1.75 0.383,2.25 0.258,0.5 0.641,0.75 1.149,0.75 0.511,0 0.89,-0.25 1.148,-0.75 0.25,-0.5 0.383,-1.25 0.383,-2.25 0,-1 -0.133,-1.75 -0.383,-2.25 -0.258,-0.5 -0.637,-0.75 -1.148,-0.75 m 0,-0.781 c 0.808,0 1.429,0.332 1.871,0.973 0.429,0.648 0.648,1.59 0.648,2.808 0,1.231 -0.219,2.172 -0.648,2.813 -0.442,0.637 -1.063,0.957 -1.871,0.957 -0.821,0 -1.45,-0.32 -1.879,-0.957 -0.43,-0.641 -0.641,-1.582 -0.641,-2.813 0,-1.218 0.211,-2.16 0.641,-2.808 0.429,-0.641 1.058,-0.973 1.879,-0.973" /><path
         id="path56"
         style="fill:#000000;fill-opacity:1;fill-rule:nonzero;stroke:none"
         d="m 89.035,540.242 h 6.258 v 0.832 h -6.258 z" /></g><g
       id="g58"><g
         clip-path="url(#clipPath64)"
         id="g60"><g
           id="g66"><g
             id="g68"><g
               clip-path="url(#clipPath74)"
               id="g70"><g
                 id="g76"><g
                   transform="scale(1,-1)"
                   id="g78"><path
                     id="path80"
                     style="fill:none;stroke:#b0b0b0;stroke-width:0.80000001;stroke-linecap:square;stroke-linejoin:round;stroke-miterlimit:10;stroke-dasharray:none;stroke-opacity:1"
                     d="M 192.875,-529.199 V -14.301" /></g></g></g></g></g></g></g><g
       id="g82"><g
         transform="scale(1,-1)"
         id="g84"><path
           id="path86"
           style="fill:none;stroke:#000000;stroke-width:0.80000001;stroke-linecap:butt;stroke-linejoin:round;stroke-miterlimit:10;stroke-dasharray:none;stroke-opacity:1"
           d="m 192.875,-529.199 v -3.5" /></g><path
         id="path88"
         style="fill:#000000;fill-opacity:1;fill-rule:nonzero;stroke:none"
         d="m 189.934,536.504 h 4.691 v 0.418 l -2.652,6.871 h -1.032 l 2.493,-6.461 h -3.5 v -0.828" /><path
         id="path90"
         style="fill:#000000;fill-opacity:1;fill-rule:nonzero;stroke:none"
         d="m 196.547,542.555 h 1.031 v 1.238 h -1.031 z" /><path
         id="path92"
         style="fill:#000000;fill-opacity:1;fill-rule:nonzero;stroke:none"
         d="m 199.734,536.504 h 3.871 v 0.828 h -2.968 v 1.789 c 0.14,-0.047 0.289,-0.09 0.429,-0.109 0.141,-0.02 0.289,-0.039 0.43,-0.039 0.809,0 1.449,0.23 1.93,0.672 0.48,0.449 0.719,1.046 0.719,1.808 0,0.789 -0.25,1.399 -0.739,1.828 -0.488,0.434 -1.179,0.641 -2.058,0.641 -0.313,0 -0.621,-0.027 -0.942,-0.07 -0.32,-0.047 -0.64,-0.118 -0.98,-0.231 v -0.988 c 0.289,0.16 0.59,0.281 0.91,0.359 0.309,0.082 0.641,0.11 0.992,0.11 0.559,0 1.008,-0.137 1.34,-0.438 0.316,-0.301 0.488,-0.699 0.488,-1.211 0,-0.5 -0.172,-0.898 -0.488,-1.199 -0.332,-0.301 -0.781,-0.449 -1.34,-0.449 -0.262,0 -0.531,0.027 -0.793,0.09 -0.258,0.058 -0.527,0.148 -0.801,0.269 v -3.66" /><path
         id="path94"
         style="fill:#000000;fill-opacity:1;fill-rule:nonzero;stroke:none"
         d="m 181.797,540.242 h 6.258 v 0.832 h -6.258 z" /></g><g
       id="g96"><g
         clip-path="url(#clipPath102)"
         id="g98"><g
           id="g104"><g
             id="g106"><g
               clip-path="url(#clipPath112)"
               id="g108"><g
                 id="g114"><g
                   transform="scale(1,-1)"
                   id="g116"><path
                     id="path118"
                     style="fill:none;stroke:#b0b0b0;stroke-width:0.80000001;stroke-linecap:square;stroke-linejoin:round;stroke-miterlimit:10;stroke-dasharray:none;stroke-opacity:1"
                     d="M 282.461,-529.199 V -14.301" /></g></g></g></g></g></g></g><g
       id="g120"><g
         transform="scale(1,-1)"
         id="g122"><path
           id="path124"
           style="fill:none;stroke:#000000;stroke-width:0.80000001;stroke-linecap:butt;stroke-linejoin:round;stroke-miterlimit:10;stroke-dasharray:none;stroke-opacity:1"
           d="m 282.461,-529.199 v -3.5" /></g><path
         id="path126"
         style="fill:#000000;fill-opacity:1;fill-rule:nonzero;stroke:none"
         d="m 279.777,536.504 h 3.871 v 0.828 h -2.968 v 1.789 c 0.14,-0.047 0.289,-0.09 0.429,-0.109 0.141,-0.02 0.289,-0.039 0.43,-0.039 0.809,0 1.449,0.23 1.93,0.672 0.48,0.449 0.719,1.046 0.719,1.808 0,0.789 -0.25,1.399 -0.739,1.828 -0.488,0.434 -1.179,0.641 -2.058,0.641 -0.313,0 -0.621,-0.027 -0.942,-0.07 -0.32,-0.047 -0.64,-0.118 -0.98,-0.231 v -0.988 c 0.289,0.16 0.59,0.281 0.91,0.359 0.309,0.082 0.641,0.11 0.992,0.11 0.559,0 1.008,-0.137 1.34,-0.438 0.316,-0.301 0.488,-0.699 0.488,-1.211 0,-0.5 -0.172,-0.898 -0.488,-1.199 -0.332,-0.301 -0.781,-0.449 -1.34,-0.449 -0.262,0 -0.531,0.027 -0.793,0.09 -0.258,0.058 -0.527,0.148 -0.801,0.269 v -3.66" /><path
         id="path128"
         style="fill:#000000;fill-opacity:1;fill-rule:nonzero;stroke:none"
         d="m 286.129,542.555 h 1.031 v 1.238 h -1.031 z" /><path
         id="path130"
         style="fill:#000000;fill-opacity:1;fill-rule:nonzero;stroke:none"
         d="m 291.418,537.152 c -0.508,0 -0.891,0.25 -1.148,0.75 -0.262,0.5 -0.383,1.25 -0.383,2.25 0,1 0.121,1.75 0.383,2.25 0.257,0.5 0.64,0.75 1.148,0.75 0.512,0 0.891,-0.25 1.148,-0.75 0.25,-0.5 0.383,-1.25 0.383,-2.25 0,-1 -0.133,-1.75 -0.383,-2.25 -0.257,-0.5 -0.636,-0.75 -1.148,-0.75 m 0,-0.781 c 0.809,0 1.43,0.332 1.871,0.973 0.43,0.648 0.649,1.59 0.649,2.808 0,1.231 -0.219,2.172 -0.649,2.813 -0.441,0.637 -1.062,0.957 -1.871,0.957 -0.82,0 -1.449,-0.32 -1.879,-0.957 -0.43,-0.641 -0.641,-1.582 -0.641,-2.813 0,-1.218 0.211,-2.16 0.641,-2.808 0.43,-0.641 1.059,-0.973 1.879,-0.973" /><path
         id="path132"
         style="fill:#000000;fill-opacity:1;fill-rule:nonzero;stroke:none"
         d="m 271.379,540.242 h 6.262 v 0.832 h -6.262 z" /></g><g
       id="g134"><g
         clip-path="url(#clipPath140)"
         id="g136"><g
           id="g142"><g
             id="g144"><g
               clip-path="url(#clipPath150)"
               id="g146"><g
                 id="g152"><g
                   transform="scale(1,-1)"
                   id="g154"><path
                     id="path156"
                     style="fill:none;stroke:#b0b0b0;stroke-width:0.80000001;stroke-linecap:square;stroke-linejoin:round;stroke-miterlimit:10;stroke-dasharray:none;stroke-opacity:1"
                     d="M 372.043,-529.199 V -14.301" /></g></g></g></g></g></g></g><g
       id="g158"><g
         transform="scale(1,-1)"
         id="g160"><path
           id="path162"
           style="fill:none;stroke:#000000;stroke-width:0.80000001;stroke-linecap:butt;stroke-linejoin:round;stroke-miterlimit:10;stroke-dasharray:none;stroke-opacity:1"
           d="m 372.043,-529.199 v -3.5" /></g><path
         id="path164"
         style="fill:#000000;fill-opacity:1;fill-rule:nonzero;stroke:none"
         d="m 370.203,542.965 h 3.438 v 0.828 h -4.629 v -0.828 c 0.371,-0.383 0.879,-0.903 1.531,-1.563 0.637,-0.648 1.047,-1.07 1.219,-1.257 0.32,-0.352 0.539,-0.653 0.66,-0.903 0.121,-0.238 0.187,-0.488 0.187,-0.73 0,-0.379 -0.136,-0.7 -0.406,-0.938 -0.273,-0.242 -0.621,-0.371 -1.062,-0.371 -0.309,0 -0.641,0.059 -0.981,0.16 -0.34,0.11 -0.707,0.27 -1.098,0.489 v -1 c 0.399,-0.161 0.77,-0.278 1.11,-0.36 0.34,-0.078 0.66,-0.121 0.949,-0.121 0.75,0 1.352,0.191 1.801,0.57 0.449,0.383 0.68,0.883 0.68,1.512 0,0.301 -0.059,0.59 -0.172,0.852 -0.11,0.269 -0.309,0.59 -0.61,0.949 -0.078,0.098 -0.34,0.367 -0.777,0.82 -0.441,0.449 -1.051,1.078 -1.84,1.891" /><path
         id="path166"
         style="fill:#000000;fill-opacity:1;fill-rule:nonzero;stroke:none"
         d="m 375.711,542.555 h 1.031 v 1.238 h -1.031 z" /><path
         id="path168"
         style="fill:#000000;fill-opacity:1;fill-rule:nonzero;stroke:none"
         d="m 378.898,536.504 h 3.872 v 0.828 h -2.969 v 1.789 c 0.14,-0.047 0.289,-0.09 0.429,-0.109 0.141,-0.02 0.29,-0.039 0.43,-0.039 0.809,0 1.449,0.23 1.93,0.672 0.48,0.449 0.719,1.046 0.719,1.808 0,0.789 -0.25,1.399 -0.739,1.828 -0.488,0.434 -1.179,0.641 -2.058,0.641 -0.313,0 -0.621,-0.027 -0.942,-0.07 -0.32,-0.047 -0.64,-0.118 -0.98,-0.231 v -0.988 c 0.289,0.16 0.59,0.281 0.91,0.359 0.309,0.082 0.641,0.11 0.992,0.11 0.559,0 1.008,-0.137 1.34,-0.438 0.316,-0.301 0.488,-0.699 0.488,-1.211 0,-0.5 -0.172,-0.898 -0.488,-1.199 -0.332,-0.301 -0.781,-0.449 -1.34,-0.449 -0.262,0 -0.531,0.027 -0.793,0.09 -0.258,0.058 -0.527,0.148 -0.801,0.269 v -3.66" /><path
         id="path170"
         style="fill:#000000;fill-opacity:1;fill-rule:nonzero;stroke:none"
         d="m 360.961,540.242 h 6.262 v 0.832 h -6.262 z" /></g><g
       id="g172"><g
         clip-path="url(#clipPath178)"
         id="g174"><g
           id="g180"><g
             id="g182"><g
               clip-path="url(#clipPath188)"
               id="g184"><g
                 id="g190"><g
                   transform="scale(1,-1)"
                   id="g192"><path
                     id="path194"
                     style="fill:none;stroke:#b0b0b0;stroke-width:0.80000001;stroke-linecap:square;stroke-linejoin:round;stroke-miterlimit:10;stroke-dasharray:none;stroke-opacity:1"
                     d="M 461.625,-529.199 V -14.301" /></g></g></g></g></g></g></g><g
       id="g196"><g
         transform="scale(1,-1)"
         id="g198"><path
           id="path200"
           style="fill:none;stroke:#000000;stroke-width:0.80000001;stroke-linecap:butt;stroke-linejoin:round;stroke-miterlimit:10;stroke-dasharray:none;stroke-opacity:1"
           d="m 461.625,-529.199 v -3.5" /></g><path
         id="path202"
         style="fill:#000000;fill-opacity:1;fill-rule:nonzero;stroke:none"
         d="m 456.852,537.152 c -0.508,0 -0.891,0.25 -1.149,0.75 -0.262,0.5 -0.383,1.25 -0.383,2.25 0,1 0.121,1.75 0.383,2.25 0.258,0.5 0.641,0.75 1.149,0.75 0.511,0 0.89,-0.25 1.148,-0.75 0.25,-0.5 0.383,-1.25 0.383,-2.25 0,-1 -0.133,-1.75 -0.383,-2.25 -0.258,-0.5 -0.637,-0.75 -1.148,-0.75 m 0,-0.781 c 0.808,0 1.429,0.332 1.871,0.973 0.429,0.648 0.648,1.59 0.648,2.808 0,1.231 -0.219,2.172 -0.648,2.813 -0.442,0.637 -1.063,0.957 -1.871,0.957 -0.821,0 -1.45,-0.32 -1.879,-0.957 -0.43,-0.641 -0.641,-1.582 -0.641,-2.813 0,-1.218 0.211,-2.16 0.641,-2.808 0.429,-0.641 1.058,-0.973 1.879,-0.973" /><path
         id="path204"
         style="fill:#000000;fill-opacity:1;fill-rule:nonzero;stroke:none"
         d="m 461.102,542.555 h 1.031 v 1.238 h -1.031 z" /><path
         id="path206"
         style="fill:#000000;fill-opacity:1;fill-rule:nonzero;stroke:none"
         d="m 466.391,537.152 c -0.508,0 -0.891,0.25 -1.149,0.75 -0.262,0.5 -0.383,1.25 -0.383,2.25 0,1 0.121,1.75 0.383,2.25 0.258,0.5 0.641,0.75 1.149,0.75 0.511,0 0.89,-0.25 1.148,-0.75 0.25,-0.5 0.383,-1.25 0.383,-2.25 0,-1 -0.133,-1.75 -0.383,-2.25 -0.258,-0.5 -0.637,-0.75 -1.148,-0.75 m 0,-0.781 c 0.808,0 1.429,0.332 1.871,0.973 0.429,0.648 0.648,1.59 0.648,2.808 0,1.231 -0.219,2.172 -0.648,2.813 -0.442,0.637 -1.063,0.957 -1.871,0.957 -0.821,0 -1.45,-0.32 -1.879,-0.957 -0.43,-0.641 -0.641,-1.582 -0.641,-2.813 0,-1.218 0.211,-2.16 0.641,-2.808 0.429,-0.641 1.058,-0.973 1.879,-0.973" /></g><g
       id="g208"><g
         clip-path="url(#clipPath214)"
         id="g210"><g
           id="g216"><g
             id="g218"><g
               clip-path="url(#clipPath224)"
               id="g220"><g
                 id="g226"><g
                   transform="scale(1,-1)"
                   id="g228"><path
                     id="path230"
                     style="fill:none;stroke:#b0b0b0;stroke-width:0.80000001;stroke-linecap:square;stroke-linejoin:round;stroke-miterlimit:10;stroke-dasharray:none;stroke-opacity:1"
                     d="M 551.207,-529.199 V -14.301" /></g></g></g></g></g></g></g><g
       id="g232"><g
         transform="scale(1,-1)"
         id="g234"><path
           id="path236"
           style="fill:none;stroke:#000000;stroke-width:0.80000001;stroke-linecap:butt;stroke-linejoin:round;stroke-miterlimit:10;stroke-dasharray:none;stroke-opacity:1"
           d="m 551.207,-529.199 v -3.5" /></g><path
         id="path238"
         style="fill:#000000;fill-opacity:1;fill-rule:nonzero;stroke:none"
         d="m 545.176,542.965 h 3.437 v 0.828 h -4.629 v -0.828 c 0.371,-0.383 0.879,-0.903 1.532,-1.563 0.636,-0.648 1.046,-1.07 1.218,-1.257 0.321,-0.352 0.539,-0.653 0.661,-0.903 0.121,-0.238 0.187,-0.488 0.187,-0.73 0,-0.379 -0.137,-0.7 -0.406,-0.938 -0.274,-0.242 -0.621,-0.371 -1.063,-0.371 -0.308,0 -0.64,0.059 -0.98,0.16 -0.34,0.11 -0.707,0.27 -1.098,0.489 v -1 c 0.399,-0.161 0.77,-0.278 1.11,-0.36 0.339,-0.078 0.66,-0.121 0.949,-0.121 0.75,0 1.351,0.191 1.801,0.57 0.449,0.383 0.679,0.883 0.679,1.512 0,0.301 -0.058,0.59 -0.172,0.852 -0.109,0.269 -0.308,0.59 -0.609,0.949 -0.078,0.098 -0.34,0.367 -0.777,0.82 -0.442,0.449 -1.051,1.078 -1.84,1.891" /><path
         id="path240"
         style="fill:#000000;fill-opacity:1;fill-rule:nonzero;stroke:none"
         d="m 550.684,542.555 h 1.031 v 1.238 h -1.031 z" /><path
         id="path242"
         style="fill:#000000;fill-opacity:1;fill-rule:nonzero;stroke:none"
         d="m 553.871,536.504 h 3.871 v 0.828 h -2.969 v 1.789 c 0.141,-0.047 0.289,-0.09 0.43,-0.109 0.141,-0.02 0.289,-0.039 0.43,-0.039 0.808,0 1.449,0.23 1.929,0.672 0.481,0.449 0.719,1.046 0.719,1.808 0,0.789 -0.25,1.399 -0.738,1.828 -0.488,0.434 -1.18,0.641 -2.059,0.641 -0.312,0 -0.621,-0.027 -0.941,-0.07 -0.32,-0.047 -0.641,-0.118 -0.981,-0.231 v -0.988 c 0.29,0.16 0.59,0.281 0.911,0.359 0.308,0.082 0.64,0.11 0.992,0.11 0.558,0 1.008,-0.137 1.34,-0.438 0.316,-0.301 0.488,-0.699 0.488,-1.211 0,-0.5 -0.172,-0.898 -0.488,-1.199 -0.332,-0.301 -0.782,-0.449 -1.34,-0.449 -0.262,0 -0.531,0.027 -0.793,0.09 -0.258,0.058 -0.527,0.148 -0.801,0.269 v -3.66" /></g><g
       id="g244"><g
         clip-path="url(#clipPath250)"
         id="g246"><g
           id="g252"><g
             id="g254"><g
               clip-path="url(#clipPath260)"
               id="g256"><g
                 id="g262"><g
                   transform="scale(1,-1)"
                   id="g264"><path
                     id="path266"
                     style="fill:none;stroke:#b0b0b0;stroke-width:0.80000001;stroke-linecap:square;stroke-linejoin:round;stroke-miterlimit:10;stroke-dasharray:none;stroke-opacity:1"
                     d="M 640.789,-529.199 V -14.301" /></g></g></g></g></g></g></g><g
       id="g268"><g
         transform="scale(1,-1)"
         id="g270"><path
           id="path272"
           style="fill:none;stroke:#000000;stroke-width:0.80000001;stroke-linecap:butt;stroke-linejoin:round;stroke-miterlimit:10;stroke-dasharray:none;stroke-opacity:1"
           d="m 640.789,-529.199 v -3.5" /></g><path
         id="path274"
         style="fill:#000000;fill-opacity:1;fill-rule:nonzero;stroke:none"
         d="m 633.914,536.504 h 3.871 v 0.828 h -2.969 v 1.789 c 0.141,-0.047 0.289,-0.09 0.43,-0.109 0.141,-0.02 0.289,-0.039 0.43,-0.039 0.808,0 1.449,0.23 1.929,0.672 0.481,0.449 0.719,1.046 0.719,1.808 0,0.789 -0.25,1.399 -0.738,1.828 -0.488,0.434 -1.18,0.641 -2.059,0.641 -0.312,0 -0.621,-0.027 -0.941,-0.07 -0.32,-0.047 -0.641,-0.118 -0.981,-0.231 v -0.988 c 0.29,0.16 0.59,0.281 0.911,0.359 0.308,0.082 0.64,0.11 0.992,0.11 0.558,0 1.008,-0.137 1.34,-0.438 0.316,-0.301 0.488,-0.699 0.488,-1.211 0,-0.5 -0.172,-0.898 -0.488,-1.199 -0.332,-0.301 -0.782,-0.449 -1.34,-0.449 -0.262,0 -0.531,0.027 -0.793,0.09 -0.258,0.058 -0.527,0.148 -0.801,0.269 v -3.66" /><path
         id="path276"
         style="fill:#000000;fill-opacity:1;fill-rule:nonzero;stroke:none"
         d="m 640.27,542.555 h 1.031 v 1.238 h -1.031 z" /><path
         id="path278"
         style="fill:#000000;fill-opacity:1;fill-rule:nonzero;stroke:none"
         d="m 645.559,537.152 c -0.508,0 -0.891,0.25 -1.149,0.75 -0.262,0.5 -0.383,1.25 -0.383,2.25 0,1 0.121,1.75 0.383,2.25 0.258,0.5 0.641,0.75 1.149,0.75 0.511,0 0.89,-0.25 1.148,-0.75 0.25,-0.5 0.383,-1.25 0.383,-2.25 0,-1 -0.133,-1.75 -0.383,-2.25 -0.258,-0.5 -0.637,-0.75 -1.148,-0.75 m 0,-0.781 c 0.808,0 1.429,0.332 1.871,0.973 0.429,0.648 0.648,1.59 0.648,2.808 0,1.231 -0.219,2.172 -0.648,2.813 -0.442,0.637 -1.063,0.957 -1.871,0.957 -0.821,0 -1.45,-0.32 -1.879,-0.957 -0.43,-0.641 -0.641,-1.582 -0.641,-2.813 0,-1.218 0.211,-2.16 0.641,-2.808 0.429,-0.641 1.058,-0.973 1.879,-0.973" /></g><g
       id="g280"><g
         clip-path="url(#clipPath286)"
         id="g282"><g
           id="g288"><g
             id="g290"><g
               clip-path="url(#clipPath296)"
               id="g292"><g
                 id="g298"><g
                   transform="scale(1,-1)"
                   id="g300"><path
                     id="path302"
                     style="fill:none;stroke:#b0b0b0;stroke-width:0.80000001;stroke-linecap:square;stroke-linejoin:round;stroke-miterlimit:10;stroke-dasharray:none;stroke-opacity:1"
                     d="M 730.375,-529.199 V -14.301" /></g></g></g></g></g></g></g><g
       id="g304"><g
         transform="scale(1,-1)"
         id="g306"><path
           id="path308"
           style="fill:none;stroke:#000000;stroke-width:0.80000001;stroke-linecap:butt;stroke-linejoin:round;stroke-miterlimit:10;stroke-dasharray:none;stroke-opacity:1"
           d="m 730.375,-529.199 v -3.5" /></g><path
         id="path310"
         style="fill:#000000;fill-opacity:1;fill-rule:nonzero;stroke:none"
         d="m 723.242,536.504 h 4.692 v 0.418 l -2.653,6.871 h -1.031 l 2.492,-6.461 h -3.5 v -0.828" /><path
         id="path312"
         style="fill:#000000;fill-opacity:1;fill-rule:nonzero;stroke:none"
         d="m 729.852,542.555 h 1.031 v 1.238 h -1.031 z" /><path
         id="path314"
         style="fill:#000000;fill-opacity:1;fill-rule:nonzero;stroke:none"
         d="m 733.039,536.504 h 3.871 v 0.828 h -2.969 v 1.789 c 0.141,-0.047 0.289,-0.09 0.43,-0.109 0.141,-0.02 0.289,-0.039 0.43,-0.039 0.808,0 1.449,0.23 1.929,0.672 0.481,0.449 0.719,1.046 0.719,1.808 0,0.789 -0.25,1.399 -0.738,1.828 -0.488,0.434 -1.18,0.641 -2.059,0.641 -0.312,0 -0.621,-0.027 -0.941,-0.07 -0.32,-0.047 -0.641,-0.118 -0.981,-0.231 v -0.988 c 0.29,0.16 0.59,0.281 0.911,0.359 0.308,0.082 0.64,0.11 0.992,0.11 0.558,0 1.008,-0.137 1.34,-0.438 0.316,-0.301 0.488,-0.699 0.488,-1.211 0,-0.5 -0.172,-0.898 -0.488,-1.199 -0.332,-0.301 -0.782,-0.449 -1.34,-0.449 -0.262,0 -0.531,0.027 -0.793,0.09 -0.258,0.058 -0.528,0.148 -0.801,0.269 v -3.66" /></g><g
       id="g316"><g
         clip-path="url(#clipPath322)"
         id="g318"><g
           id="g324"><g
             id="g326"><g
               clip-path="url(#clipPath332)"
               id="g328"><g
                 id="g334"><g
                   transform="scale(1,-1)"
                   id="g336"><path
                     id="path338"
                     style="fill:none;stroke:#b0b0b0;stroke-width:0.80000001;stroke-linecap:square;stroke-linejoin:round;stroke-miterlimit:10;stroke-dasharray:none;stroke-opacity:1"
                     d="M 819.957,-529.199 V -14.301" /></g></g></g></g></g></g></g><g
       id="g340"><g
         transform="scale(1,-1)"
         id="g342"><path
           id="path344"
           style="fill:none;stroke:#000000;stroke-width:0.80000001;stroke-linecap:butt;stroke-linejoin:round;stroke-miterlimit:10;stroke-dasharray:none;stroke-opacity:1"
           d="m 819.957,-529.199 v -3.5" /></g><path
         id="path346"
         style="fill:#000000;fill-opacity:1;fill-rule:nonzero;stroke:none"
         d="m 810.062,542.965 h 1.614 v -5.563 l -1.75,0.352 v -0.902 l 1.738,-0.348 h 0.988 v 6.461 h 1.614 v 0.828 h -4.204 v -0.828" /><path
         id="path348"
         style="fill:#000000;fill-opacity:1;fill-rule:nonzero;stroke:none"
         d="m 818.363,537.152 c -0.508,0 -0.89,0.25 -1.148,0.75 -0.262,0.5 -0.383,1.25 -0.383,2.25 0,1 0.121,1.75 0.383,2.25 0.258,0.5 0.64,0.75 1.148,0.75 0.512,0 0.891,-0.25 1.149,-0.75 0.25,-0.5 0.383,-1.25 0.383,-2.25 0,-1 -0.133,-1.75 -0.383,-2.25 -0.258,-0.5 -0.637,-0.75 -1.149,-0.75 m 0,-0.781 c 0.809,0 1.43,0.332 1.871,0.973 0.43,0.648 0.649,1.59 0.649,2.808 0,1.231 -0.219,2.172 -0.649,2.813 -0.441,0.637 -1.062,0.957 -1.871,0.957 -0.82,0 -1.449,-0.32 -1.879,-0.957 -0.429,-0.641 -0.64,-1.582 -0.64,-2.813 0,-1.218 0.211,-2.16 0.64,-2.808 0.43,-0.641 1.059,-0.973 1.879,-0.973" /><path
         id="path350"
         style="fill:#000000;fill-opacity:1;fill-rule:nonzero;stroke:none"
         d="m 822.613,542.555 h 1.031 v 1.238 h -1.031 z" /><path
         id="path352"
         style="fill:#000000;fill-opacity:1;fill-rule:nonzero;stroke:none"
         d="m 827.902,537.152 c -0.507,0 -0.89,0.25 -1.148,0.75 -0.262,0.5 -0.383,1.25 -0.383,2.25 0,1 0.121,1.75 0.383,2.25 0.258,0.5 0.641,0.75 1.148,0.75 0.512,0 0.891,-0.25 1.149,-0.75 0.25,-0.5 0.383,-1.25 0.383,-2.25 0,-1 -0.133,-1.75 -0.383,-2.25 -0.258,-0.5 -0.637,-0.75 -1.149,-0.75 m 0,-0.781 c 0.809,0 1.43,0.332 1.871,0.973 0.43,0.648 0.649,1.59 0.649,2.808 0,1.231 -0.219,2.172 -0.649,2.813 -0.441,0.637 -1.062,0.957 -1.871,0.957 -0.82,0 -1.449,-0.32 -1.879,-0.957 -0.429,-0.641 -0.64,-1.582 -0.64,-2.813 0,-1.218 0.211,-2.16 0.64,-2.808 0.43,-0.641 1.059,-0.973 1.879,-0.973" /><path
         id="path354"
         style="fill:#000000;fill-opacity:1;fill-rule:nonzero;stroke:none"
         d="m 405.434,551.914 -2.145,5.809 h 4.289 l -2.144,-5.809 m -0.899,-1.551 h 1.793 l 4.449,11.664 h -1.648 l -1.055,-2.992 h -5.265 l -1.055,2.992 h -1.664 l 4.445,-11.664" /><path
         id="path356"
         style="fill:#000000;fill-opacity:1;fill-rule:nonzero;stroke:none"
         d="m 413.801,560.715 v 4.625 h -1.438 v -12.067 h 1.438 v 1.329 c 0.289,-0.512 0.672,-0.895 1.137,-1.149 0.464,-0.258 1.023,-0.387 1.664,-0.387 1.058,0 1.921,0.434 2.593,1.266 0.657,0.848 0.993,1.953 0.993,3.328 0,1.375 -0.336,2.496 -0.993,3.328 -0.672,0.832 -1.535,1.246 -2.593,1.246 -0.641,0 -1.2,-0.129 -1.664,-0.367 -0.465,-0.238 -0.848,-0.625 -1.137,-1.152 m 4.898,-3.055 c 0,-1.058 -0.226,-1.871 -0.656,-2.48 -0.449,-0.61 -1.039,-0.914 -1.793,-0.914 -0.77,0 -1.359,0.304 -1.793,0.914 -0.445,0.609 -0.656,1.422 -0.656,2.48 0,1.055 0.211,1.887 0.656,2.496 0.434,0.606 1.023,0.895 1.793,0.895 0.754,0 1.344,-0.289 1.793,-0.895 0.43,-0.609 0.656,-1.441 0.656,-2.496" /><path
         id="path358"
         style="fill:#000000;fill-opacity:1;fill-rule:nonzero;stroke:none"
         d="m 423.961,560.715 v 4.625 h -1.438 v -12.067 h 1.438 v 1.329 c 0.289,-0.512 0.672,-0.895 1.137,-1.149 0.464,-0.258 1.023,-0.387 1.664,-0.387 1.058,0 1.922,0.434 2.593,1.266 0.657,0.848 0.993,1.953 0.993,3.328 0,1.375 -0.336,2.496 -0.993,3.328 -0.671,0.832 -1.535,1.246 -2.593,1.246 -0.641,0 -1.2,-0.129 -1.664,-0.367 -0.465,-0.238 -0.848,-0.625 -1.137,-1.152 m 4.898,-3.055 c 0,-1.058 -0.226,-1.871 -0.656,-2.48 -0.449,-0.61 -1.039,-0.914 -1.793,-0.914 -0.769,0 -1.359,0.304 -1.793,0.914 -0.445,0.609 -0.656,1.422 -0.656,2.48 0,1.055 0.211,1.887 0.656,2.496 0.434,0.606 1.024,0.895 1.793,0.895 0.754,0 1.344,-0.289 1.793,-0.895 0.43,-0.609 0.656,-1.441 0.656,-2.496" /><path
         id="path360"
         style="fill:#000000;fill-opacity:1;fill-rule:nonzero;stroke:none"
         d="m 432.73,549.867 h 1.441 v 12.16 h -1.441 z" /><path
         id="path362"
         style="fill:#000000;fill-opacity:1;fill-rule:nonzero;stroke:none"
         d="m 437.176,553.273 h 1.441 v 8.754 h -1.441 v -8.754 m 0,-3.406 h 1.441 v 1.824 h -1.441 v -1.824" /><path
         id="path364"
         style="fill:#000000;fill-opacity:1;fill-rule:nonzero;stroke:none"
         d="m 449.113,557.293 v 0.703 h -6.609 c 0.066,0.992 0.351,1.758 0.898,2.27 0.528,0.515 1.262,0.769 2.223,0.769 0.543,0 1.09,-0.062 1.602,-0.191 0.511,-0.129 1.039,-0.336 1.55,-0.625 v 1.359 c -0.511,0.227 -1.039,0.402 -1.586,0.496 -0.543,0.098 -1.101,0.16 -1.644,0.16 -1.41,0 -2.516,-0.398 -3.328,-1.199 -0.817,-0.801 -1.219,-1.902 -1.219,-3.297 0,-1.422 0.387,-2.558 1.152,-3.406 0.77,-0.832 1.825,-1.266 3.137,-1.266 1.184,0 2.113,0.387 2.801,1.137 0.672,0.77 1.023,1.793 1.023,3.09 m -1.441,-0.418 c -0.016,-0.785 -0.238,-1.406 -0.656,-1.887 -0.43,-0.465 -1.008,-0.703 -1.711,-0.703 -0.801,0 -1.442,0.238 -1.918,0.688 -0.481,0.445 -0.77,1.086 -0.832,1.902 h 5.117" /><path
         id="path366"
         style="fill:#000000;fill-opacity:1;fill-rule:nonzero;stroke:none"
         d="m 457.227,554.602 v -4.735 h 1.437 v 12.16 h -1.437 v -1.312 c -0.305,0.527 -0.692,0.914 -1.153,1.152 -0.465,0.238 -1.008,0.367 -1.648,0.367 -1.059,0 -1.922,-0.414 -2.594,-1.246 -0.672,-0.832 -0.992,-1.953 -0.992,-3.328 0,-1.375 0.32,-2.48 0.992,-3.328 0.672,-0.832 1.535,-1.266 2.594,-1.266 0.64,0 1.183,0.129 1.648,0.387 0.461,0.254 0.848,0.637 1.153,1.149 m -4.899,3.058 c 0,1.055 0.207,1.887 0.641,2.496 0.433,0.606 1.039,0.895 1.808,0.895 0.75,0 1.344,-0.289 1.793,-0.895 0.43,-0.609 0.657,-1.441 0.657,-2.496 0,-1.058 -0.227,-1.871 -0.657,-2.48 -0.449,-0.61 -1.043,-0.914 -1.793,-0.914 -0.769,0 -1.375,0.304 -1.808,0.914 -0.434,0.609 -0.641,1.422 -0.641,2.48" /><path
         id="path368"
         style="fill:#000000;fill-opacity:1;fill-rule:nonzero;stroke:none"
         d="m 466.773,550.363 h 6.707 v 1.328 h -5.121 v 3.442 h 4.625 v 1.328 h -4.625 v 5.566 h -1.586 v -11.664" /><path
         id="path370"
         style="fill:#000000;fill-opacity:1;fill-rule:nonzero;stroke:none"
         d="m 475.914,553.273 h 1.441 v 8.754 h -1.441 v -8.754 m 0,-3.406 h 1.441 v 1.824 h -1.441 v -1.824" /><path
         id="path372"
         style="fill:#000000;fill-opacity:1;fill-rule:nonzero;stroke:none"
         d="m 487.848,557.293 v 0.703 h -6.61 c 0.067,0.992 0.352,1.758 0.899,2.27 0.527,0.515 1.261,0.769 2.222,0.769 0.543,0 1.09,-0.062 1.602,-0.191 0.512,-0.129 1.039,-0.336 1.551,-0.625 v 1.359 c -0.512,0.227 -1.039,0.402 -1.586,0.496 -0.543,0.098 -1.102,0.16 -1.645,0.16 -1.41,0 -2.515,-0.398 -3.328,-1.199 -0.816,-0.801 -1.219,-1.902 -1.219,-3.297 0,-1.422 0.387,-2.558 1.153,-3.406 0.769,-0.832 1.824,-1.266 3.136,-1.266 1.184,0 2.114,0.387 2.801,1.137 0.672,0.77 1.024,1.793 1.024,3.09 m -1.442,-0.418 c -0.015,-0.785 -0.238,-1.406 -0.656,-1.887 -0.43,-0.465 -1.008,-0.703 -1.711,-0.703 -0.801,0 -1.441,0.238 -1.918,0.688 -0.48,0.445 -0.769,1.086 -0.832,1.902 h 5.117" /><path
         id="path374"
         style="fill:#000000;fill-opacity:1;fill-rule:nonzero;stroke:none"
         d="m 490.199,549.867 h 1.441 v 12.16 h -1.441 z" /><path
         id="path376"
         style="fill:#000000;fill-opacity:1;fill-rule:nonzero;stroke:none"
         d="m 500.41,554.602 v -4.735 h 1.438 v 12.16 h -1.438 v -1.312 c -0.305,0.527 -0.691,0.914 -1.152,1.152 -0.465,0.238 -1.008,0.367 -1.649,0.367 -1.058,0 -1.921,-0.414 -2.593,-1.246 -0.672,-0.832 -0.993,-1.953 -0.993,-3.328 0,-1.375 0.321,-2.48 0.993,-3.328 0.672,-0.832 1.535,-1.266 2.593,-1.266 0.641,0 1.184,0.129 1.649,0.387 0.461,0.254 0.847,0.637 1.152,1.149 m -4.898,3.058 c 0,1.055 0.207,1.887 0.64,2.496 0.434,0.606 1.039,0.895 1.809,0.895 0.75,0 1.344,-0.289 1.793,-0.895 0.43,-0.609 0.656,-1.441 0.656,-2.496 0,-1.058 -0.226,-1.871 -0.656,-2.48 -0.449,-0.61 -1.043,-0.914 -1.793,-0.914 -0.77,0 -1.375,0.304 -1.809,0.914 -0.433,0.609 -0.64,1.422 -0.64,2.48" /><path
         id="path378"
         style="fill:#000000;fill-opacity:1;fill-rule:nonzero;stroke:none"
         d="m 505.176,560.043 h 1.648 v 1.344 l -1.281,2.48 h -1.008 l 0.641,-2.48 v -1.344" /><path
         id="path380"
         style="fill:#000000;fill-opacity:1;fill-rule:nonzero;stroke:none"
         d="m 513.449,550.363 h 9.856 v 1.328 h -4.145 v 10.336 h -1.582 v -10.336 h -4.129 v -1.328" /></g><g
       id="g382"><g
         clip-path="url(#clipPath388)"
         id="g384"><g
           id="g390"><g
             id="g392"><g
               clip-path="url(#clipPath398)"
               id="g394"><g
                 id="g400"><g
                   transform="scale(1,-1)"
                   id="g402"><path
                     id="path404"
                     style="fill:none;stroke:#b0b0b0;stroke-width:0.80000001;stroke-linecap:square;stroke-linejoin:round;stroke-miterlimit:10;stroke-dasharray:none;stroke-opacity:1"
                     d="M 73.551,-444.188 H 849.699" /></g></g></g></g></g></g></g><g
       id="g406"><g
         transform="scale(1,-1)"
         id="g408"><path
           id="path410"
           style="fill:none;stroke:#000000;stroke-width:0.80000001;stroke-linecap:butt;stroke-linejoin:round;stroke-miterlimit:10;stroke-dasharray:none;stroke-opacity:1"
           d="m 73.551,-444.188 h -3.5" /></g><path
         id="path412"
         style="fill:#000000;fill-opacity:1;fill-rule:nonzero;stroke:none"
         d="m 41.109,441.344 c -0.507,0 -0.89,0.25 -1.148,0.75 -0.262,0.5 -0.383,1.25 -0.383,2.25 0,1 0.121,1.75 0.383,2.25 0.258,0.5 0.641,0.75 1.148,0.75 0.512,0 0.891,-0.25 1.149,-0.75 0.25,-0.5 0.383,-1.25 0.383,-2.25 0,-1 -0.133,-1.75 -0.383,-2.25 -0.258,-0.5 -0.637,-0.75 -1.149,-0.75 m 0,-0.782 c 0.809,0 1.43,0.333 1.871,0.973 0.43,0.649 0.649,1.59 0.649,2.809 0,1.23 -0.219,2.172 -0.649,2.812 -0.441,0.637 -1.062,0.957 -1.871,0.957 -0.82,0 -1.449,-0.32 -1.879,-0.957 -0.429,-0.64 -0.64,-1.582 -0.64,-2.812 0,-1.219 0.211,-2.16 0.64,-2.809 0.43,-0.64 1.059,-0.973 1.879,-0.973" /><path
         id="path414"
         style="fill:#000000;fill-opacity:1;fill-rule:nonzero;stroke:none"
         d="m 45.359,446.746 h 1.031 v 1.238 h -1.031 z" /><path
         id="path416"
         style="fill:#000000;fill-opacity:1;fill-rule:nonzero;stroke:none"
         d="m 50.648,441.344 c -0.507,0 -0.89,0.25 -1.148,0.75 -0.262,0.5 -0.383,1.25 -0.383,2.25 0,1 0.121,1.75 0.383,2.25 0.258,0.5 0.641,0.75 1.148,0.75 0.512,0 0.891,-0.25 1.149,-0.75 0.25,-0.5 0.383,-1.25 0.383,-2.25 0,-1 -0.133,-1.75 -0.383,-2.25 -0.258,-0.5 -0.637,-0.75 -1.149,-0.75 m 0,-0.782 c 0.809,0 1.43,0.333 1.872,0.973 0.429,0.649 0.648,1.59 0.648,2.809 0,1.23 -0.219,2.172 -0.648,2.812 -0.442,0.637 -1.063,0.957 -1.872,0.957 -0.82,0 -1.449,-0.32 -1.878,-0.957 -0.43,-0.64 -0.641,-1.582 -0.641,-2.812 0,-1.219 0.211,-2.16 0.641,-2.809 0.429,-0.64 1.058,-0.973 1.878,-0.973" /><path
         id="path418"
         style="fill:#000000;fill-opacity:1;fill-rule:nonzero;stroke:none"
         d="m 57.008,441.344 c -0.508,0 -0.891,0.25 -1.149,0.75 -0.261,0.5 -0.382,1.25 -0.382,2.25 0,1 0.121,1.75 0.382,2.25 0.258,0.5 0.641,0.75 1.149,0.75 0.512,0 0.89,-0.25 1.148,-0.75 0.25,-0.5 0.383,-1.25 0.383,-2.25 0,-1 -0.133,-1.75 -0.383,-2.25 -0.258,-0.5 -0.636,-0.75 -1.148,-0.75 m 0,-0.782 c 0.808,0 1.43,0.333 1.871,0.973 0.43,0.649 0.648,1.59 0.648,2.809 0,1.23 -0.218,2.172 -0.648,2.812 -0.441,0.637 -1.063,0.957 -1.871,0.957 -0.82,0 -1.449,-0.32 -1.879,-0.957 -0.43,-0.64 -0.641,-1.582 -0.641,-2.812 0,-1.219 0.211,-2.16 0.641,-2.809 0.43,-0.64 1.059,-0.973 1.879,-0.973" /><path
         id="path420"
         style="fill:#000000;fill-opacity:1;fill-rule:nonzero;stroke:none"
         d="m 62.109,447.156 h 3.438 v 0.828 h -4.629 v -0.828 c 0.371,-0.383 0.879,-0.902 1.531,-1.562 0.637,-0.649 1.047,-1.071 1.219,-1.258 0.32,-0.352 0.539,-0.652 0.66,-0.902 0.121,-0.239 0.188,-0.489 0.188,-0.731 0,-0.379 -0.137,-0.699 -0.407,-0.937 -0.273,-0.243 -0.621,-0.371 -1.062,-0.371 -0.309,0 -0.641,0.058 -0.981,0.16 -0.339,0.109 -0.707,0.269 -1.097,0.488 v -1 c 0.398,-0.16 0.769,-0.277 1.109,-0.359 0.34,-0.079 0.66,-0.122 0.949,-0.122 0.75,0 1.352,0.192 1.801,0.571 0.449,0.383 0.68,0.883 0.68,1.512 0,0.3 -0.059,0.589 -0.172,0.851 -0.109,0.27 -0.309,0.59 -0.609,0.949 -0.079,0.098 -0.34,0.367 -0.778,0.821 -0.441,0.449 -1.051,1.078 -1.84,1.89" /><path
         id="path422"
         style="fill:#000000;fill-opacity:1;fill-rule:nonzero;stroke:none"
         d="m 30.609,444.438 h 6.262 v 0.828 h -6.262 z" /></g><g
       id="g424"><g
         clip-path="url(#clipPath430)"
         id="g426"><g
           id="g432"><g
             id="g434"><g
               clip-path="url(#clipPath440)"
               id="g436"><g
                 id="g442"><g
                   transform="scale(1,-1)"
                   id="g444"><path
                     id="path446"
                     style="fill:none;stroke:#b0b0b0;stroke-width:0.80000001;stroke-linecap:square;stroke-linejoin:round;stroke-miterlimit:10;stroke-dasharray:none;stroke-opacity:1"
                     d="M 73.551,-357.969 H 849.699" /></g></g></g></g></g></g></g><g
       id="g448"><g
         transform="scale(1,-1)"
         id="g450"><path
           id="path452"
           style="fill:none;stroke:#000000;stroke-width:0.80000001;stroke-linecap:butt;stroke-linejoin:round;stroke-miterlimit:10;stroke-dasharray:none;stroke-opacity:1"
           d="m 73.551,-357.969 h -3.5" /></g><path
         id="path454"
         style="fill:#000000;fill-opacity:1;fill-rule:nonzero;stroke:none"
         d="m 41.109,355.125 c -0.507,0 -0.89,0.25 -1.148,0.75 -0.262,0.5 -0.383,1.25 -0.383,2.25 0,1 0.121,1.75 0.383,2.25 0.258,0.5 0.641,0.75 1.148,0.75 0.512,0 0.891,-0.25 1.149,-0.75 0.25,-0.5 0.383,-1.25 0.383,-2.25 0,-1 -0.133,-1.75 -0.383,-2.25 -0.258,-0.5 -0.637,-0.75 -1.149,-0.75 m 0,-0.781 c 0.809,0 1.43,0.332 1.871,0.972 0.43,0.649 0.649,1.59 0.649,2.809 0,1.23 -0.219,2.172 -0.649,2.813 -0.441,0.636 -1.062,0.957 -1.871,0.957 -0.82,0 -1.449,-0.321 -1.879,-0.957 -0.429,-0.641 -0.64,-1.583 -0.64,-2.813 0,-1.219 0.211,-2.16 0.64,-2.809 0.43,-0.64 1.059,-0.972 1.879,-0.972" /><path
         id="path456"
         style="fill:#000000;fill-opacity:1;fill-rule:nonzero;stroke:none"
         d="m 45.359,360.527 h 1.031 v 1.238 h -1.031 z" /><path
         id="path458"
         style="fill:#000000;fill-opacity:1;fill-rule:nonzero;stroke:none"
         d="m 50.648,355.125 c -0.507,0 -0.89,0.25 -1.148,0.75 -0.262,0.5 -0.383,1.25 -0.383,2.25 0,1 0.121,1.75 0.383,2.25 0.258,0.5 0.641,0.75 1.148,0.75 0.512,0 0.891,-0.25 1.149,-0.75 0.25,-0.5 0.383,-1.25 0.383,-2.25 0,-1 -0.133,-1.75 -0.383,-2.25 -0.258,-0.5 -0.637,-0.75 -1.149,-0.75 m 0,-0.781 c 0.809,0 1.43,0.332 1.872,0.972 0.429,0.649 0.648,1.59 0.648,2.809 0,1.23 -0.219,2.172 -0.648,2.813 -0.442,0.636 -1.063,0.957 -1.872,0.957 -0.82,0 -1.449,-0.321 -1.878,-0.957 -0.43,-0.641 -0.641,-1.583 -0.641,-2.813 0,-1.219 0.211,-2.16 0.641,-2.809 0.429,-0.64 1.058,-0.972 1.878,-0.972" /><path
         id="path460"
         style="fill:#000000;fill-opacity:1;fill-rule:nonzero;stroke:none"
         d="m 57.008,355.125 c -0.508,0 -0.891,0.25 -1.149,0.75 -0.261,0.5 -0.382,1.25 -0.382,2.25 0,1 0.121,1.75 0.382,2.25 0.258,0.5 0.641,0.75 1.149,0.75 0.512,0 0.89,-0.25 1.148,-0.75 0.25,-0.5 0.383,-1.25 0.383,-2.25 0,-1 -0.133,-1.75 -0.383,-2.25 -0.258,-0.5 -0.636,-0.75 -1.148,-0.75 m 0,-0.781 c 0.808,0 1.43,0.332 1.871,0.972 0.43,0.649 0.648,1.59 0.648,2.809 0,1.23 -0.218,2.172 -0.648,2.813 -0.441,0.636 -1.063,0.957 -1.871,0.957 -0.82,0 -1.449,-0.321 -1.879,-0.957 -0.43,-0.641 -0.641,-1.583 -0.641,-2.813 0,-1.219 0.211,-2.16 0.641,-2.809 0.43,-0.64 1.059,-0.972 1.879,-0.972" /><path
         id="path462"
         style="fill:#000000;fill-opacity:1;fill-rule:nonzero;stroke:none"
         d="m 61.426,360.938 h 1.613 v -5.563 l -1.75,0.352 v -0.903 l 1.738,-0.347 h 0.989 v 6.461 h 1.613 v 0.828 h -4.203 v -0.828" /><path
         id="path464"
         style="fill:#000000;fill-opacity:1;fill-rule:nonzero;stroke:none"
         d="m 30.609,358.215 h 6.262 v 0.832 h -6.262 z" /></g><g
       id="g466"><g
         clip-path="url(#clipPath472)"
         id="g468"><g
           id="g474"><g
             id="g476"><g
               clip-path="url(#clipPath482)"
               id="g478"><g
                 id="g484"><g
                   transform="scale(1,-1)"
                   id="g486"><path
                     id="path488"
                     style="fill:none;stroke:#b0b0b0;stroke-width:0.80000001;stroke-linecap:square;stroke-linejoin:round;stroke-miterlimit:10;stroke-dasharray:none;stroke-opacity:1"
                     d="M 73.551,-271.75 H 849.699" /></g></g></g></g></g></g></g><g
       id="g490"><g
         transform="scale(1,-1)"
         id="g492"><path
           id="path494"
           style="fill:none;stroke:#000000;stroke-width:0.80000001;stroke-linecap:butt;stroke-linejoin:round;stroke-miterlimit:10;stroke-dasharray:none;stroke-opacity:1"
           d="m 73.551,-271.75 h -3.5" /></g><path
         id="path496"
         style="fill:#000000;fill-opacity:1;fill-rule:nonzero;stroke:none"
         d="m 41.105,268.906 c -0.507,0 -0.89,0.25 -1.148,0.75 -0.262,0.5 -0.383,1.25 -0.383,2.25 0,1 0.121,1.75 0.383,2.25 0.258,0.5 0.641,0.75 1.148,0.75 0.512,0 0.891,-0.25 1.149,-0.75 0.25,-0.5 0.383,-1.25 0.383,-2.25 0,-1 -0.133,-1.75 -0.383,-2.25 -0.258,-0.5 -0.637,-0.75 -1.149,-0.75 m 0,-0.781 c 0.809,0 1.43,0.332 1.872,0.973 0.429,0.648 0.648,1.59 0.648,2.808 0,1.231 -0.219,2.172 -0.648,2.813 -0.442,0.636 -1.063,0.957 -1.872,0.957 -0.82,0 -1.449,-0.321 -1.878,-0.957 -0.43,-0.641 -0.641,-1.582 -0.641,-2.813 0,-1.218 0.211,-2.16 0.641,-2.808 0.429,-0.641 1.058,-0.973 1.878,-0.973" /><path
         id="path498"
         style="fill:#000000;fill-opacity:1;fill-rule:nonzero;stroke:none"
         d="m 45.355,274.309 h 1.031 v 1.238 h -1.031 z" /><path
         id="path500"
         style="fill:#000000;fill-opacity:1;fill-rule:nonzero;stroke:none"
         d="m 50.645,268.906 c -0.508,0 -0.891,0.25 -1.149,0.75 -0.262,0.5 -0.383,1.25 -0.383,2.25 0,1 0.121,1.75 0.383,2.25 0.258,0.5 0.641,0.75 1.149,0.75 0.511,0 0.89,-0.25 1.148,-0.75 0.25,-0.5 0.383,-1.25 0.383,-2.25 0,-1 -0.133,-1.75 -0.383,-2.25 -0.258,-0.5 -0.637,-0.75 -1.148,-0.75 m 0,-0.781 c 0.808,0 1.429,0.332 1.871,0.973 0.429,0.648 0.648,1.59 0.648,2.808 0,1.231 -0.219,2.172 -0.648,2.813 -0.442,0.636 -1.063,0.957 -1.871,0.957 -0.821,0 -1.45,-0.321 -1.879,-0.957 -0.43,-0.641 -0.641,-1.582 -0.641,-2.813 0,-1.218 0.211,-2.16 0.641,-2.808 0.429,-0.641 1.058,-0.973 1.879,-0.973" /><path
         id="path502"
         style="fill:#000000;fill-opacity:1;fill-rule:nonzero;stroke:none"
         d="m 57.004,268.906 c -0.508,0 -0.891,0.25 -1.149,0.75 -0.261,0.5 -0.382,1.25 -0.382,2.25 0,1 0.121,1.75 0.382,2.25 0.258,0.5 0.641,0.75 1.149,0.75 0.512,0 0.891,-0.25 1.148,-0.75 0.25,-0.5 0.383,-1.25 0.383,-2.25 0,-1 -0.133,-1.75 -0.383,-2.25 -0.257,-0.5 -0.636,-0.75 -1.148,-0.75 m 0,-0.781 c 0.808,0 1.43,0.332 1.871,0.973 0.43,0.648 0.648,1.59 0.648,2.808 0,1.231 -0.218,2.172 -0.648,2.813 -0.441,0.636 -1.063,0.957 -1.871,0.957 -0.82,0 -1.449,-0.321 -1.879,-0.957 -0.43,-0.641 -0.641,-1.582 -0.641,-2.813 0,-1.218 0.211,-2.16 0.641,-2.808 0.43,-0.641 1.059,-0.973 1.879,-0.973" /><path
         id="path504"
         style="fill:#000000;fill-opacity:1;fill-rule:nonzero;stroke:none"
         d="m 63.363,268.906 c -0.508,0 -0.89,0.25 -1.148,0.75 -0.262,0.5 -0.383,1.25 -0.383,2.25 0,1 0.121,1.75 0.383,2.25 0.258,0.5 0.64,0.75 1.148,0.75 0.512,0 0.891,-0.25 1.149,-0.75 0.25,-0.5 0.383,-1.25 0.383,-2.25 0,-1 -0.133,-1.75 -0.383,-2.25 -0.258,-0.5 -0.637,-0.75 -1.149,-0.75 m 0,-0.781 c 0.809,0 1.43,0.332 1.871,0.973 0.43,0.648 0.649,1.59 0.649,2.808 0,1.231 -0.219,2.172 -0.649,2.813 -0.441,0.636 -1.062,0.957 -1.871,0.957 -0.82,0 -1.449,-0.321 -1.879,-0.957 -0.429,-0.641 -0.64,-1.582 -0.64,-2.813 0,-1.218 0.211,-2.16 0.64,-2.808 0.43,-0.641 1.059,-0.973 1.879,-0.973" /></g><g
       id="g506"><g
         clip-path="url(#clipPath512)"
         id="g508"><g
           id="g514"><g
             id="g516"><g
               clip-path="url(#clipPath522)"
               id="g518"><g
                 id="g524"><g
                   transform="scale(1,-1)"
                   id="g526"><path
                     id="path528"
                     style="fill:none;stroke:#b0b0b0;stroke-width:0.80000001;stroke-linecap:square;stroke-linejoin:round;stroke-miterlimit:10;stroke-dasharray:none;stroke-opacity:1"
                     d="M 73.551,-185.531 H 849.699" /></g></g></g></g></g></g></g><g
       id="g530"><g
         transform="scale(1,-1)"
         id="g532"><path
           id="path534"
           style="fill:none;stroke:#000000;stroke-width:0.80000001;stroke-linecap:butt;stroke-linejoin:round;stroke-miterlimit:10;stroke-dasharray:none;stroke-opacity:1"
           d="m 73.551,-185.531 h -3.5" /></g><path
         id="path536"
         style="fill:#000000;fill-opacity:1;fill-rule:nonzero;stroke:none"
         d="m 41.105,182.688 c -0.507,0 -0.89,0.25 -1.148,0.75 -0.262,0.5 -0.383,1.25 -0.383,2.25 0,1 0.121,1.75 0.383,2.25 0.258,0.5 0.641,0.75 1.148,0.75 0.512,0 0.891,-0.25 1.149,-0.75 0.25,-0.5 0.383,-1.25 0.383,-2.25 0,-1 -0.133,-1.75 -0.383,-2.25 -0.258,-0.5 -0.637,-0.75 -1.149,-0.75 m 0,-0.782 c 0.809,0 1.43,0.332 1.872,0.973 0.429,0.648 0.648,1.59 0.648,2.809 0,1.23 -0.219,2.171 -0.648,2.812 -0.442,0.637 -1.063,0.957 -1.872,0.957 -0.82,0 -1.449,-0.32 -1.878,-0.957 -0.43,-0.641 -0.641,-1.582 -0.641,-2.812 0,-1.219 0.211,-2.161 0.641,-2.809 0.429,-0.641 1.058,-0.973 1.878,-0.973" /><path
         id="path538"
         style="fill:#000000;fill-opacity:1;fill-rule:nonzero;stroke:none"
         d="m 45.355,188.09 h 1.031 v 1.238 h -1.031 z" /><path
         id="path540"
         style="fill:#000000;fill-opacity:1;fill-rule:nonzero;stroke:none"
         d="m 50.645,182.688 c -0.508,0 -0.891,0.25 -1.149,0.75 -0.262,0.5 -0.383,1.25 -0.383,2.25 0,1 0.121,1.75 0.383,2.25 0.258,0.5 0.641,0.75 1.149,0.75 0.511,0 0.89,-0.25 1.148,-0.75 0.25,-0.5 0.383,-1.25 0.383,-2.25 0,-1 -0.133,-1.75 -0.383,-2.25 -0.258,-0.5 -0.637,-0.75 -1.148,-0.75 m 0,-0.782 c 0.808,0 1.429,0.332 1.871,0.973 0.429,0.648 0.648,1.59 0.648,2.809 0,1.23 -0.219,2.171 -0.648,2.812 -0.442,0.637 -1.063,0.957 -1.871,0.957 -0.821,0 -1.45,-0.32 -1.879,-0.957 -0.43,-0.641 -0.641,-1.582 -0.641,-2.812 0,-1.219 0.211,-2.161 0.641,-2.809 0.429,-0.641 1.058,-0.973 1.879,-0.973" /><path
         id="path542"
         style="fill:#000000;fill-opacity:1;fill-rule:nonzero;stroke:none"
         d="m 57.004,182.688 c -0.508,0 -0.891,0.25 -1.149,0.75 -0.261,0.5 -0.382,1.25 -0.382,2.25 0,1 0.121,1.75 0.382,2.25 0.258,0.5 0.641,0.75 1.149,0.75 0.512,0 0.891,-0.25 1.148,-0.75 0.25,-0.5 0.383,-1.25 0.383,-2.25 0,-1 -0.133,-1.75 -0.383,-2.25 -0.257,-0.5 -0.636,-0.75 -1.148,-0.75 m 0,-0.782 c 0.808,0 1.43,0.332 1.871,0.973 0.43,0.648 0.648,1.59 0.648,2.809 0,1.23 -0.218,2.171 -0.648,2.812 -0.441,0.637 -1.063,0.957 -1.871,0.957 -0.82,0 -1.449,-0.32 -1.879,-0.957 -0.43,-0.641 -0.641,-1.582 -0.641,-2.812 0,-1.219 0.211,-2.161 0.641,-2.809 0.43,-0.641 1.059,-0.973 1.879,-0.973" /><path
         id="path544"
         style="fill:#000000;fill-opacity:1;fill-rule:nonzero;stroke:none"
         d="m 61.422,188.5 h 1.613 v -5.562 l -1.75,0.351 v -0.902 l 1.738,-0.348 h 0.989 v 6.461 h 1.613 v 0.828 H 61.422 V 188.5" /></g><g
       id="g546"><g
         clip-path="url(#clipPath552)"
         id="g548"><g
           id="g554"><g
             id="g556"><g
               clip-path="url(#clipPath562)"
               id="g558"><g
                 id="g564"><g
                   transform="scale(1,-1)"
                   id="g566"><path
                     id="path568"
                     style="fill:none;stroke:#b0b0b0;stroke-width:0.80000001;stroke-linecap:square;stroke-linejoin:round;stroke-miterlimit:10;stroke-dasharray:none;stroke-opacity:1"
                     d="M 73.551,-99.312 H 849.699" /></g></g></g></g></g></g></g><g
       id="g570"><g
         transform="scale(1,-1)"
         id="g572"><path
           id="path574"
           style="fill:none;stroke:#000000;stroke-width:0.80000001;stroke-linecap:butt;stroke-linejoin:round;stroke-miterlimit:10;stroke-dasharray:none;stroke-opacity:1"
           d="m 73.551,-99.312 h -3.5" /></g><path
         id="path576"
         style="fill:#000000;fill-opacity:1;fill-rule:nonzero;stroke:none"
         d="m 41.105,96.469 c -0.507,0 -0.89,0.25 -1.148,0.75 -0.262,0.5 -0.383,1.25 -0.383,2.25 0,1 0.121,1.75 0.383,2.25 0.258,0.5 0.641,0.75 1.148,0.75 0.512,0 0.891,-0.25 1.149,-0.75 0.25,-0.5 0.383,-1.25 0.383,-2.25 0,-1 -0.133,-1.75 -0.383,-2.25 -0.258,-0.5 -0.637,-0.75 -1.149,-0.75 m 0,-0.781 c 0.809,0 1.43,0.332 1.872,0.972 0.429,0.649 0.648,1.59 0.648,2.809 0,1.23 -0.219,2.172 -0.648,2.812 -0.442,0.637 -1.063,0.957 -1.872,0.957 -0.82,0 -1.449,-0.32 -1.878,-0.957 -0.43,-0.64 -0.641,-1.582 -0.641,-2.812 0,-1.219 0.211,-2.16 0.641,-2.809 0.429,-0.64 1.058,-0.972 1.878,-0.972" /><path
         id="path578"
         style="fill:#000000;fill-opacity:1;fill-rule:nonzero;stroke:none"
         d="m 45.355,101.871 h 1.031 v 1.238 h -1.031 z" /><path
         id="path580"
         style="fill:#000000;fill-opacity:1;fill-rule:nonzero;stroke:none"
         d="m 50.645,96.469 c -0.508,0 -0.891,0.25 -1.149,0.75 -0.262,0.5 -0.383,1.25 -0.383,2.25 0,1 0.121,1.75 0.383,2.25 0.258,0.5 0.641,0.75 1.149,0.75 0.511,0 0.89,-0.25 1.148,-0.75 0.25,-0.5 0.383,-1.25 0.383,-2.25 0,-1 -0.133,-1.75 -0.383,-2.25 -0.258,-0.5 -0.637,-0.75 -1.148,-0.75 m 0,-0.781 c 0.808,0 1.429,0.332 1.871,0.972 0.429,0.649 0.648,1.59 0.648,2.809 0,1.23 -0.219,2.172 -0.648,2.812 -0.442,0.637 -1.063,0.957 -1.871,0.957 -0.821,0 -1.45,-0.32 -1.879,-0.957 -0.43,-0.64 -0.641,-1.582 -0.641,-2.812 0,-1.219 0.211,-2.16 0.641,-2.809 0.429,-0.64 1.058,-0.972 1.879,-0.972" /><path
         id="path582"
         style="fill:#000000;fill-opacity:1;fill-rule:nonzero;stroke:none"
         d="m 57.004,96.469 c -0.508,0 -0.891,0.25 -1.149,0.75 -0.261,0.5 -0.382,1.25 -0.382,2.25 0,1 0.121,1.75 0.382,2.25 0.258,0.5 0.641,0.75 1.149,0.75 0.512,0 0.891,-0.25 1.148,-0.75 0.25,-0.5 0.383,-1.25 0.383,-2.25 0,-1 -0.133,-1.75 -0.383,-2.25 -0.257,-0.5 -0.636,-0.75 -1.148,-0.75 m 0,-0.781 c 0.808,0 1.43,0.332 1.871,0.972 0.43,0.649 0.648,1.59 0.648,2.809 0,1.23 -0.218,2.172 -0.648,2.812 -0.441,0.637 -1.063,0.957 -1.871,0.957 -0.82,0 -1.449,-0.32 -1.879,-0.957 -0.43,-0.64 -0.641,-1.582 -0.641,-2.812 0,-1.219 0.211,-2.16 0.641,-2.809 0.43,-0.64 1.059,-0.972 1.879,-0.972" /><path
         id="path584"
         style="fill:#000000;fill-opacity:1;fill-rule:nonzero;stroke:none"
         d="m 62.105,102.281 h 3.438 v 0.828 h -4.629 v -0.828 c 0.371,-0.383 0.879,-0.902 1.531,-1.562 0.637,-0.649 1.047,-1.071 1.219,-1.258 0.32,-0.352 0.539,-0.652 0.66,-0.902 0.121,-0.239 0.188,-0.489 0.188,-0.731 0,-0.379 -0.137,-0.699 -0.407,-0.937 -0.273,-0.243 -0.621,-0.371 -1.062,-0.371 -0.309,0 -0.641,0.058 -0.981,0.16 -0.339,0.109 -0.707,0.269 -1.097,0.488 v -1 c 0.398,-0.16 0.769,-0.277 1.109,-0.359 0.34,-0.079 0.66,-0.121 0.949,-0.121 0.75,0 1.352,0.191 1.801,0.57 0.449,0.383 0.68,0.883 0.68,1.512 0,0.3 -0.059,0.589 -0.172,0.851 -0.109,0.27 -0.309,0.59 -0.609,0.949 -0.078,0.098 -0.34,0.368 -0.778,0.821 -0.441,0.449 -1.05,1.078 -1.84,1.89" /><path
         id="path586"
         style="fill:#000000;fill-opacity:1;fill-rule:nonzero;stroke:none"
         d="m 10.559,378.438 v -9.856 h 1.328 v 4.145 h 10.336 v 1.582 H 11.887 v 4.129 h -1.328" /><path
         id="path588"
         style="fill:#000000;fill-opacity:1;fill-rule:nonzero;stroke:none"
         d="m 17.488,359.637 h 0.703 v 6.609 c 0.993,-0.066 1.758,-0.351 2.27,-0.898 0.516,-0.528 0.769,-1.262 0.769,-2.223 0,-0.543 -0.062,-1.09 -0.191,-1.602 -0.129,-0.511 -0.336,-1.039 -0.625,-1.55 h 1.359 c 0.227,0.511 0.403,1.039 0.497,1.586 0.097,0.543 0.16,1.101 0.16,1.644 0,1.41 -0.399,2.516 -1.2,3.328 -0.8,0.817 -1.902,1.219 -3.296,1.219 -1.422,0 -2.559,-0.387 -3.407,-1.152 -0.832,-0.77 -1.265,-1.825 -1.265,-3.137 0,-1.184 0.386,-2.113 1.136,-2.801 0.77,-0.672 1.793,-1.023 3.09,-1.023 m -0.418,1.441 c -0.785,0.016 -1.406,0.238 -1.886,0.656 -0.465,0.43 -0.704,1.008 -0.704,1.711 0,0.801 0.239,1.442 0.688,1.918 0.445,0.481 1.086,0.77 1.902,0.832 v -5.117" /><path
         id="path590"
         style="fill:#000000;fill-opacity:1;fill-rule:nonzero;stroke:none"
         d="m 15.152,350.469 c -0.64,-0.352 -1.105,-0.785 -1.425,-1.281 -0.305,-0.497 -0.465,-1.086 -0.465,-1.774 0,-0.898 0.32,-1.602 0.961,-2.098 0.64,-0.496 1.55,-0.75 2.718,-0.75 h 5.282 v 1.438 h -5.231 c -0.832,0 -1.457,0.16 -1.875,0.449 -0.398,0.305 -0.605,0.75 -0.605,1.359 0,0.754 0.254,1.344 0.75,1.778 0.496,0.43 1.168,0.64 2.015,0.64 h 4.946 v 1.438 h -5.231 c -0.832,0 -1.457,0.16 -1.875,0.449 -0.398,0.305 -0.605,0.77 -0.605,1.375 0,0.738 0.254,1.328 0.75,1.762 0.496,0.43 1.168,0.641 2.015,0.641 h 4.946 v 1.437 h -8.754 v -1.437 h 1.363 c -0.531,-0.321 -0.93,-0.723 -1.184,-1.184 -0.257,-0.449 -0.386,-0.992 -0.386,-1.633 0,-0.64 0.16,-1.168 0.48,-1.617 0.32,-0.449 0.801,-0.77 1.41,-0.992" /><path
         id="path592"
         style="fill:#000000;fill-opacity:1;fill-rule:nonzero;stroke:none"
         d="m 20.91,340.312 h 4.625 v 1.438 H 13.469 v -1.438 h 1.328 c -0.512,-0.289 -0.895,-0.671 -1.149,-1.136 -0.257,-0.465 -0.386,-1.024 -0.386,-1.664 0,-1.059 0.433,-1.922 1.265,-2.594 0.848,-0.656 1.953,-0.992 3.328,-0.992 1.375,0 2.497,0.336 3.329,0.992 0.832,0.672 1.246,1.535 1.246,2.594 0,0.64 -0.129,1.199 -0.368,1.664 -0.238,0.465 -0.624,0.847 -1.152,1.136 m -3.055,-4.898 c -1.058,0 -1.871,0.227 -2.48,0.656 -0.609,0.45 -0.914,1.039 -0.914,1.793 0,0.77 0.305,1.36 0.914,1.793 0.609,0.446 1.422,0.656 2.48,0.656 1.055,0 1.887,-0.21 2.497,-0.656 0.605,-0.433 0.894,-1.023 0.894,-1.793 0,-0.754 -0.289,-1.343 -0.894,-1.793 -0.61,-0.429 -1.442,-0.656 -2.497,-0.656" /><path
         id="path594"
         style="fill:#000000;fill-opacity:1;fill-rule:nonzero;stroke:none"
         d="m 17.488,324.055 h 0.703 v 6.609 c 0.993,-0.066 1.758,-0.352 2.27,-0.898 0.516,-0.528 0.769,-1.262 0.769,-2.223 0,-0.543 -0.062,-1.09 -0.191,-1.602 -0.129,-0.511 -0.336,-1.039 -0.625,-1.55 h 1.359 c 0.227,0.511 0.403,1.039 0.497,1.586 0.097,0.543 0.16,1.101 0.16,1.644 0,1.41 -0.399,2.516 -1.2,3.328 -0.8,0.817 -1.902,1.219 -3.296,1.219 -1.422,0 -2.559,-0.387 -3.407,-1.152 -0.832,-0.77 -1.265,-1.825 -1.265,-3.137 0,-1.184 0.386,-2.113 1.136,-2.801 0.77,-0.672 1.793,-1.023 3.09,-1.023 m -0.418,1.441 c -0.785,0.016 -1.406,0.238 -1.886,0.656 -0.465,0.43 -0.704,1.008 -0.704,1.711 0,0.801 0.239,1.442 0.688,1.918 0.445,0.481 1.086,0.77 1.902,0.832 v -5.117" /><path
         id="path596"
         style="fill:#000000;fill-opacity:1;fill-rule:nonzero;stroke:none"
         d="m 14.816,316.633 c -0.097,0.16 -0.16,0.336 -0.211,0.527 -0.031,0.192 -0.062,0.399 -0.062,0.621 0,0.817 0.273,1.442 0.801,1.875 0.527,0.446 1.277,0.656 2.269,0.656 h 4.61 v 1.438 h -8.754 v -1.438 h 1.363 c -0.531,-0.289 -0.93,-0.691 -1.184,-1.167 -0.257,-0.481 -0.386,-1.075 -0.386,-1.778 0,-0.097 0.015,-0.207 0.015,-0.336 0.016,-0.113 0.035,-0.238 0.067,-0.398 h 1.472" /><path
         id="path598"
         style="fill:#000000;fill-opacity:1;fill-rule:nonzero;stroke:none"
         d="m 17.824,311.141 c 0,1.168 0.141,1.968 0.399,2.418 0.273,0.445 0.718,0.671 1.359,0.671 0.512,0 0.93,-0.16 1.215,-0.496 0.305,-0.336 0.449,-0.8 0.449,-1.379 0,-0.796 -0.269,-1.437 -0.848,-1.917 -0.558,-0.481 -1.312,-0.719 -2.253,-0.719 h -0.321 v 1.422 m -0.594,-2.864 h 4.993 v 1.442 h -1.328 c 0.543,0.336 0.929,0.75 1.167,1.23 0.239,0.481 0.368,1.086 0.368,1.793 0,0.895 -0.239,1.613 -0.735,2.145 -0.496,0.527 -1.168,0.781 -2.015,0.781 -0.977,0 -1.715,-0.32 -2.227,-0.992 -0.496,-0.656 -0.75,-1.633 -0.75,-2.942 v -2.015 h -0.144 c -0.657,0 -1.168,0.222 -1.536,0.652 -0.351,0.434 -0.543,1.043 -0.543,1.824 0,0.512 0.063,0.993 0.192,1.473 0.125,0.48 0.305,0.93 0.527,1.359 h -1.328 c -0.191,-0.511 -0.351,-1.023 -0.449,-1.519 -0.094,-0.496 -0.16,-0.977 -0.16,-1.453 0,-1.266 0.336,-2.211 0.992,-2.832 0.656,-0.625 1.648,-0.946 2.976,-0.946" /><path
         id="path600"
         style="fill:#000000;fill-opacity:1;fill-rule:nonzero;stroke:none"
         d="m 10.992,303.891 h 2.477 v -2.957 h 1.121 v 2.957 h 4.754 c 0.718,0 1.183,-0.094 1.375,-0.286 0.207,-0.191 0.304,-0.593 0.304,-1.199 v -1.472 h 1.2 v 1.472 c 0,1.117 -0.207,1.887 -0.625,2.301 -0.414,0.418 -1.168,0.625 -2.254,0.625 H 14.59 v 1.055 h -1.121 v -1.055 h -2.477 v -1.441" /><path
         id="path602"
         style="fill:#000000;fill-opacity:1;fill-rule:nonzero;stroke:none"
         d="m 18.766,299.191 h -5.297 v -1.441 h 5.25 c 0.832,0 1.441,-0.16 1.855,-0.48 0.418,-0.321 0.625,-0.797 0.625,-1.454 0,-0.769 -0.242,-1.394 -0.738,-1.839 -0.496,-0.45 -1.168,-0.672 -2.031,-0.672 h -4.961 v -1.442 h 8.754 v 1.442 h -1.344 c 0.543,0.351 0.93,0.765 1.183,1.215 0.239,0.464 0.368,0.992 0.368,1.597 0,1.008 -0.305,1.778 -0.926,2.289 -0.609,0.528 -1.52,0.785 -2.738,0.785 m -5.504,-3.617 v 0" /><path
         id="path604"
         style="fill:#000000;fill-opacity:1;fill-rule:nonzero;stroke:none"
         d="m 14.816,283.832 c -0.097,0.16 -0.16,0.336 -0.211,0.527 -0.031,0.192 -0.062,0.399 -0.062,0.621 0,0.817 0.273,1.442 0.801,1.875 0.527,0.446 1.277,0.657 2.269,0.657 h 4.61 v 1.437 h -8.754 v -1.437 h 1.363 c -0.531,-0.289 -0.93,-0.692 -1.184,-1.168 -0.257,-0.481 -0.386,-1.074 -0.386,-1.778 0,-0.097 0.015,-0.207 0.015,-0.336 0.016,-0.113 0.035,-0.238 0.067,-0.398 h 1.472" /><path
         id="path606"
         style="fill:#000000;fill-opacity:1;fill-rule:nonzero;stroke:none"
         d="m 17.488,274.84 h 0.703 v 6.609 c 0.993,-0.066 1.758,-0.351 2.27,-0.898 0.516,-0.528 0.769,-1.262 0.769,-2.223 0,-0.543 -0.062,-1.09 -0.191,-1.601 -0.129,-0.512 -0.336,-1.039 -0.625,-1.551 h 1.359 c 0.227,0.512 0.403,1.039 0.497,1.586 0.097,0.543 0.16,1.101 0.16,1.644 0,1.41 -0.399,2.516 -1.2,3.328 -0.8,0.817 -1.902,1.219 -3.296,1.219 -1.422,0 -2.559,-0.387 -3.407,-1.152 -0.832,-0.77 -1.265,-1.824 -1.265,-3.137 0,-1.184 0.386,-2.113 1.136,-2.801 0.77,-0.672 1.793,-1.023 3.09,-1.023 m -0.418,1.441 c -0.785,0.016 -1.406,0.239 -1.886,0.657 -0.465,0.429 -0.704,1.007 -0.704,1.71 0,0.801 0.239,1.442 0.688,1.918 0.445,0.481 1.086,0.77 1.902,0.832 v -5.117" /><path
         id="path608"
         style="fill:#000000;fill-opacity:1;fill-rule:nonzero;stroke:none"
         d="m 11.855,265.75 h 9.071 v -1.902 c 0,-1.602 -0.352,-2.786 -1.086,-3.539 -0.738,-0.735 -1.891,-1.118 -3.457,-1.118 -1.567,0 -2.703,0.383 -3.442,1.118 -0.718,0.753 -1.086,1.937 -1.086,3.539 v 1.902 m -1.296,1.586 v -3.25 c 0,-2.254 0.48,-3.918 1.406,-4.977 0.945,-1.054 2.418,-1.582 4.418,-1.582 2.015,0 3.488,0.543 4.433,1.598 0.942,1.059 1.407,2.723 1.407,4.961 v 3.25 H 10.559" /><path
         id="path610"
         style="fill:#000000;fill-opacity:1;fill-rule:nonzero;stroke:none"
         d="m 13.469,255.078 v -1.441 h 8.754 v 1.441 h -8.754 m -3.407,0 v -1.441 h 1.825 v 1.441 h -1.825" /><path
         id="path612"
         style="fill:#000000;fill-opacity:1;fill-rule:nonzero;stroke:none"
         d="m 10.062,246.195 h 1.2 v 1.379 c 0,0.512 0.113,0.879 0.32,1.071 0.207,0.207 0.578,0.304 1.121,0.304 h 0.766 v -2.367 h 1.121 v 2.367 h 7.633 v 1.442 H 14.59 v 1.375 h -1.121 v -1.375 h -0.606 c -0.961,0 -1.679,-0.227 -2.129,-0.672 -0.449,-0.449 -0.672,-1.172 -0.672,-2.16 v -1.364" /><path
         id="path614"
         style="fill:#000000;fill-opacity:1;fill-rule:nonzero;stroke:none"
         d="m 10.062,240.566 h 1.2 v 1.379 c 0,0.512 0.113,0.879 0.32,1.071 0.207,0.207 0.578,0.304 1.121,0.304 h 0.766 v -2.367 h 1.121 v 2.367 h 7.633 v 1.442 H 14.59 v 1.375 h -1.121 v -1.375 h -0.606 c -0.961,0 -1.679,-0.227 -2.129,-0.672 -0.449,-0.449 -0.672,-1.172 -0.672,-2.16 v -1.364" /><path
         id="path616"
         style="fill:#000000;fill-opacity:1;fill-rule:nonzero;stroke:none"
         d="m 17.488,231.879 h 0.703 v 6.609 c 0.993,-0.066 1.758,-0.351 2.27,-0.898 0.516,-0.528 0.769,-1.262 0.769,-2.223 0,-0.543 -0.062,-1.09 -0.191,-1.601 -0.129,-0.512 -0.336,-1.039 -0.625,-1.551 h 1.359 c 0.227,0.512 0.403,1.039 0.497,1.586 0.097,0.543 0.16,1.101 0.16,1.644 0,1.41 -0.399,2.516 -1.2,3.328 -0.8,0.817 -1.902,1.219 -3.296,1.219 -1.422,0 -2.559,-0.387 -3.407,-1.152 -0.832,-0.77 -1.265,-1.824 -1.265,-3.137 0,-1.183 0.386,-2.113 1.136,-2.801 0.77,-0.672 1.793,-1.023 3.09,-1.023 m -0.418,1.441 c -0.785,0.016 -1.406,0.239 -1.886,0.657 -0.465,0.429 -0.704,1.007 -0.704,1.711 0,0.8 0.239,1.441 0.688,1.917 0.445,0.481 1.086,0.77 1.902,0.833 v -5.118" /><path
         id="path618"
         style="fill:#000000;fill-opacity:1;fill-rule:nonzero;stroke:none"
         d="m 14.816,224.457 c -0.097,0.16 -0.16,0.336 -0.211,0.527 -0.031,0.192 -0.062,0.399 -0.062,0.621 0,0.817 0.273,1.442 0.801,1.875 0.527,0.446 1.277,0.657 2.269,0.657 h 4.61 v 1.437 h -8.754 v -1.437 h 1.363 c -0.531,-0.289 -0.93,-0.692 -1.184,-1.168 -0.257,-0.481 -0.386,-1.074 -0.386,-1.778 0,-0.097 0.015,-0.207 0.015,-0.336 0.016,-0.113 0.035,-0.238 0.067,-0.398 h 1.472" /><path
         id="path620"
         style="fill:#000000;fill-opacity:1;fill-rule:nonzero;stroke:none"
         d="m 17.488,215.461 h 0.703 v 6.609 c 0.993,-0.066 1.758,-0.351 2.27,-0.898 0.516,-0.527 0.769,-1.262 0.769,-2.223 0,-0.543 -0.062,-1.09 -0.191,-1.601 -0.129,-0.512 -0.336,-1.039 -0.625,-1.551 h 1.359 c 0.227,0.512 0.403,1.039 0.497,1.586 0.097,0.543 0.16,1.101 0.16,1.644 0,1.411 -0.399,2.516 -1.2,3.328 -0.8,0.817 -1.902,1.219 -3.296,1.219 -1.422,0 -2.559,-0.386 -3.407,-1.152 -0.832,-0.77 -1.265,-1.824 -1.265,-3.137 0,-1.183 0.386,-2.113 1.136,-2.801 0.77,-0.672 1.793,-1.023 3.09,-1.023 m -0.418,1.441 c -0.785,0.016 -1.406,0.239 -1.886,0.657 -0.465,0.429 -0.704,1.007 -0.704,1.711 0,0.8 0.239,1.441 0.688,1.918 0.445,0.48 1.086,0.769 1.902,0.832 v -5.118" /><path
         id="path622"
         style="fill:#000000;fill-opacity:1;fill-rule:nonzero;stroke:none"
         d="m 16.941,205.828 h 5.282 v 1.442 h -5.231 c -0.832,0 -1.441,0.175 -1.859,0.496 -0.414,0.32 -0.621,0.8 -0.621,1.441 0,0.781 0.254,1.391 0.75,1.84 0.496,0.445 1.168,0.672 2.015,0.672 h 4.946 v 1.437 h -8.754 v -1.437 h 1.363 c -0.512,-0.336 -0.914,-0.739 -1.168,-1.219 -0.258,-0.461 -0.402,-1.008 -0.402,-1.613 0,-0.992 0.32,-1.762 0.945,-2.274 0.625,-0.511 1.535,-0.785 2.734,-0.785" /><path
         id="path624"
         style="fill:#000000;fill-opacity:1;fill-rule:nonzero;stroke:none"
         d="m 13.809,196.66 h 1.343 c -0.226,0.418 -0.386,0.817 -0.496,1.235 -0.113,0.414 -0.176,0.812 -0.176,1.23 0,0.93 0.301,1.664 0.895,2.176 0.59,0.511 1.422,0.769 2.48,0.769 1.071,0 1.903,-0.258 2.497,-0.769 0.589,-0.512 0.878,-1.246 0.878,-2.176 0,-0.418 -0.046,-0.816 -0.16,-1.23 -0.113,-0.418 -0.289,-0.817 -0.511,-1.235 h 1.328 c 0.191,0.418 0.336,0.832 0.414,1.25 0.082,0.43 0.129,0.895 0.129,1.375 0,1.313 -0.399,2.367 -1.231,3.137 -0.816,0.781 -1.937,1.168 -3.344,1.168 -1.425,0 -2.543,-0.387 -3.359,-1.168 -0.816,-0.785 -1.234,-1.856 -1.234,-3.234 0,-0.446 0.05,-0.879 0.144,-1.293 0.098,-0.418 0.223,-0.833 0.403,-1.235" /><path
         id="path626"
         style="fill:#000000;fill-opacity:1;fill-rule:nonzero;stroke:none"
         d="m 17.488,186.68 h 0.703 v 6.609 c 0.993,-0.066 1.758,-0.351 2.27,-0.898 0.516,-0.528 0.769,-1.262 0.769,-2.223 0,-0.543 -0.062,-1.09 -0.191,-1.602 -0.129,-0.511 -0.336,-1.039 -0.625,-1.55 h 1.359 c 0.227,0.511 0.403,1.039 0.497,1.586 0.097,0.543 0.16,1.101 0.16,1.644 0,1.41 -0.399,2.516 -1.2,3.328 -0.8,0.817 -1.902,1.219 -3.296,1.219 -1.422,0 -2.559,-0.387 -3.407,-1.152 -0.832,-0.77 -1.265,-1.825 -1.265,-3.137 0,-1.184 0.386,-2.113 1.136,-2.801 0.77,-0.672 1.793,-1.023 3.09,-1.023 m -0.418,1.441 c -0.785,0.016 -1.406,0.238 -1.886,0.656 -0.465,0.43 -0.704,1.008 -0.704,1.711 0,0.801 0.239,1.442 0.688,1.918 0.445,0.481 1.086,0.77 1.902,0.832 v -5.117" /><path
         id="path628"
         style="fill:#000000;fill-opacity:1;fill-rule:nonzero;stroke:none"
         d="m 20.238,183.961 v -1.649 h 1.344 l 2.48,1.282 v 1.008 l -2.48,-0.641 h -1.344" /><path
         id="path630"
         style="fill:#000000;fill-opacity:1;fill-rule:nonzero;stroke:none"
         d="M 10.559,174.086 V 172.5 h 4.929 l -4.929,-5.23 v -2.032 l 5.441,5.789 6.223,-6.207 v 2.078 l -5.618,5.602 h 5.618 v 1.586 H 10.559" /><g
         transform="scale(1,-1)"
         id="g632"><path
           id="path634"
           style="fill:none;stroke:#1e75b3;stroke-width:1.5;stroke-linecap:square;stroke-linejoin:round;stroke-miterlimit:10;stroke-dasharray:none;stroke-opacity:1"
           d="m 108.828,-301.184 0.707,48.641 0.707,-2.984 0.703,-13.055 0.707,-4.699 0.707,-2.035 0.703,1.828 1.411,8.246 0.707,-1.727 0.707,-3.23 0.703,-4.797 0.707,-6.699 0.707,-5.231 0.703,0.016 0.707,1.703 0.703,4.574 0.707,7.391 0.707,5.933 0.703,2.008 0.707,1.278 0.707,-2.114 1.411,-11.355 0.707,-3.836 0.703,-4.477 0.707,-3.019 1.41,4.64 0.707,3.098 0.703,4.309 0.707,5.379 0.707,-0.387 0.703,-1.41 0.707,-3.282 0.703,-4.187 0.707,-7.195 0.708,-3.524 0.703,-2.371 0.707,0.742 0.707,1.895 1.41,10.234 0.707,4.067 0.703,0.171 1.41,-1.105 0.707,-3.734 2.117,-16.067 0.707,-8.578 0.704,-4.035 0.707,-1.352 0.703,2.356 0.707,4.234 0.707,7.098 0.703,4.902 0.707,2.641 0.707,0.961 0.703,1.922 0.707,0.199 0.707,-0.402 h 0.703 l 0.707,1.351 0.703,0.086 0.707,1.625 1.411,5.832 0.707,1.672 0.707,1.191 0.703,-0.429 0.707,-0.739 0.703,0.641 0.707,-1.656 0.707,-5.305 2.117,-12.637 0.703,-0.3 0.707,5.023 0.703,2.906 0.708,0.5 0.707,0.024 0.703,-1.282 0.707,-2.863 0.707,-1.305 0.703,1.536 0.707,3.504 2.82,9.789 0.707,-0.602 0.707,0.367 0.703,-0.734 0.707,-1.172 0.707,-1.816 0.704,-0.907 0.707,-1.117 0.703,-0.008 0.707,0.137 0.707,-0.512 0.703,-3.613 0.707,-4.867 1.41,-5.301 0.707,-3.609 0.707,0.726 0.703,2.196 0.707,-0.915 0.703,-2.031 1.414,-3.418 1.411,-3.879 0.707,-1.39 0.703,1.761 1.41,5.168 0.707,5.481 0.707,6.562 2.117,9.188 0.703,-1.129 0.707,-2.449 1.411,-3.117 0.707,-1.079 0.703,1.332 0.707,2.09 0.707,1.141 0.703,-1.168 0.707,-2.07 0.707,-3.266 1.41,-5.144 1.41,-4.333 0.707,0.208 0.703,0.812 0.707,1.918 0.707,4.062 0.704,4.735 0.707,0.414 0.707,-1.063 0.703,1.551 1.41,4.25 1.414,8.098 0.703,1.082 0.707,-2.524 1.41,-9.293 1.41,-6.464 0.707,-0.657 0.708,1.352 0.703,4.66 0.707,3.289 0.707,0.403 0.703,-2.747 0.707,-4.437 0.707,-6.231 0.703,-5.128 0.707,-1.969 1.41,0.32 0.707,1.949 0.703,4.778 2.118,16.554 0.707,2.043 2.117,-15.363 0.703,-1.687 0.707,-2.7 1.41,1.446 0.707,-0.399 0.707,-3.242 0.703,0.93 0.707,-0.293 0.703,-0.844 0.707,-1.25 0.708,0.238 0.703,-2.343 0.707,2.027 1.41,4.832 0.707,-0.145 0.703,2.989 0.707,-0.375 0.707,-1.168 0.703,-0.621 0.707,3.629 0.707,0.761 1.41,-6.051 1.411,-7.054 0.707,-1.282 1.41,6.372 0.707,3.894 0.703,0.145 0.707,-1.785 0.707,-3.274 0.703,-2.289 0.707,0.305 0.703,2.406 1.414,7.496 0.703,2.41 0.707,-0.121 2.825,-21.344 0.703,-0.984 0.707,1.062 0.703,1.618 0.707,4.832 0.707,5.804 0.703,0.364 1.414,4.543 0.703,-2.215 0.707,-4.574 0.703,-3.637 0.708,-1.656 0.707,-0.653 0.703,3.34 2.117,12.727 0.707,3.152 0.707,-0.117 0.703,-0.367 0.707,0.058 0.703,-0.14 0.707,-0.383 0.707,-1.805 1.41,-5.426 0.707,-6.429 0.704,-9.02 0.707,-4.574 0.703,-1.18 0.707,0.75 0.707,6.692 0.703,10.812 0.707,4.598 0.707,-0.883 0.703,-2.266 0.707,-5.367 0.703,-7.641 0.707,-3.359 0.707,1.672 0.703,2.266 0.707,3.554 1.411,8.387 0.707,0.148 0.707,-0.933 0.703,-4.992 1.41,-17.789 0.707,0.39 0.707,-0.261 0.703,1.222 0.707,5.238 0.707,3.219 0.703,-3.672 0.707,-1.761 0.704,1.351 0.707,3.738 1.41,11.231 0.707,3.992 0.707,0.629 0.703,-2.648 2.117,-10.407 0.707,-1.3 1.41,-9.719 0.707,-1.832 0.703,-1.297 0.707,-0.895 1.411,7.352 1.41,1.562 0.707,1.989 0.707,0.359 0.703,1.504 0.707,3.941 0.707,3.18 0.703,-1.805 0.707,0.45 0.707,-1.961 1.41,-12.391 0.703,-3.379 0.707,-6.949 0.708,-5.395 0.703,0.934 0.707,2.414 0.707,3.871 1.41,17.555 0.703,2.859 0.707,0.879 0.707,1.293 0.703,-1.512 0.707,-1.191 0.707,2.019 0.703,2.688 0.707,-2.039 0.707,-4.535 0.704,-5.606 0.707,-6.687 0.703,-5.539 0.707,-1.239 0.707,2.911 0.703,3.82 0.707,0.828 0.707,-0.191 0.703,-0.868 0.707,-2.464 0.703,-3.071 0.707,-0.781 0.707,-0.207 0.703,0.336 0.707,-0.477 0.708,-0.968 0.703,-0.547 0.707,-1.946 0.707,-3.898 0.703,-2.285 0.707,-0.996 0.703,2.609 1.414,11.375 0.703,2.942 0.707,1.128 0.707,-3.289 0.703,-6.543 0.707,-4.281 0.703,-0.66 1.415,2.652 1.41,4.852 0.707,1.59 0.703,0.562 1.414,4.328 0.703,1.254 0.707,0.239 0.703,-0.098 1.414,0.914 0.703,-0.191 0.707,-1.344 0.707,-2.371 0.704,-3.856 0.707,-3.211 0.703,-0.945 1.414,3.648 0.703,0.098 0.707,-3.566 0.707,-4.344 0.703,-3.18 0.707,1.789 0.707,3.969 1.41,13.961 0.703,3.875 2.118,-8.937 0.707,-3.02 0.707,-2.492 0.703,-2.047 2.117,-8.266 0.707,-1.211 0.703,0.481 0.707,1.242 1.41,5.074 0.707,0.035 1.411,-2.078 1.41,-4.629 0.707,-0.254 1.41,4.704 0.707,1.507 0.707,0.938 0.703,-0.629 0.707,-2.324 1.41,-5.356 0.707,-1.507 0.703,-0.25 0.707,-0.415 0.707,-0.593 0.704,-2.364 0.707,-3.261 0.703,-2.301 1.414,-9.434 0.703,-1.5 0.707,-0.382 0.707,-2.844 0.703,-0.461 0.707,0.238 0.707,-0.156 0.703,0.855 0.707,-1.609 0.704,-1.191 0.707,-0.629 0.707,2.316 0.703,-0.859 0.707,2.992 0.707,2.203 0.703,0.723 0.707,-3.289 0.703,-1.868 0.707,-3.992 2.117,-14.918 0.707,-3.597 0.703,-0.649 0.707,2.914 0.707,4.633 0.704,3.043 0.707,0.586 0.703,0.269 0.707,-1.75 0.707,-3.703 0.703,-1.754 0.707,0.379 1.41,-4.168 0.707,0.434 0.703,1 0.707,-0.996 1.41,-0.793 0.707,-1.402 0.708,1.148 0.703,3.027 0.707,1.985 0.707,0.875 0.703,1.515 0.707,-3.898 0.703,-2.899 0.707,0.219 1.41,9.047 0.707,8.156 0.707,4.414 0.703,2.032 0.707,-1.504 0.704,-1.95 0.707,-1.578 0.707,3.567 0.703,2.832 0.707,1.043 0.707,2.918 0.703,0.261 0.707,-3.425 0.707,-0.172 0.703,7.617 1.41,21.367 1.414,17.129 0.703,4.02 0.707,4.941 0.708,5.98 1.41,17.512 0.703,4.571 0.707,-0.293 0.707,1.285 0.703,4.613 1.414,16 0.703,4.613 0.707,1.285 0.707,-0.293 0.703,4.571 1.41,17.512 0.708,5.98 0.707,4.941 0.703,4.02 0.707,7.933 1.41,19.637 0.707,10.926 0.703,7.617 0.707,-0.172 0.707,-3.425 0.703,0.261 0.707,2.918 0.707,1.043 0.703,2.832 0.707,3.567 0.707,-1.578 0.704,-1.95 0.707,-1.504 0.703,2.032 0.707,4.414 0.707,8.156 1.41,9.047 0.707,0.219 0.703,-2.899 0.707,-3.898 0.703,1.515 0.707,0.875 0.707,1.985 0.703,3.027 0.708,1.148 0.707,-1.402 1.41,-0.793 0.707,-0.996 0.703,1 0.707,0.434 1.41,-4.168 0.707,0.379 0.703,-1.754 0.707,-3.703 0.707,-1.75 0.703,0.269 0.707,0.586 0.704,3.043 0.707,4.633 0.707,2.914 0.703,-0.649 0.707,-3.597 2.117,-14.918 0.707,-3.992 0.703,-1.868 0.707,-3.289 0.703,0.723 0.707,2.203 0.707,2.992 0.703,-0.859 0.707,2.316 0.707,-0.629 0.704,-1.191 0.707,-1.609 0.703,0.855 0.707,-0.156 0.707,0.238 0.703,-0.461 0.707,-2.844 0.707,-0.382 0.703,-1.5 1.414,-9.434 0.703,-2.301 0.707,-3.261 0.704,-2.364 0.707,-0.593 0.707,-0.415 0.703,-0.25 0.707,-1.507 2.117,-7.68 0.703,-0.629 0.707,0.938 0.707,1.507 1.41,4.704 0.707,-0.254 1.41,-4.629 1.411,-2.078 0.707,0.035 1.41,5.074 0.707,1.242 0.703,0.481 0.707,-1.211 0.707,-2.547 1.41,-5.719 0.703,-2.047 0.707,-2.492 2.825,-11.957 0.703,3.875 1.41,13.961 0.707,3.969 0.707,1.789 0.703,-3.18 0.707,-4.344 0.707,-3.566 0.703,0.098 1.414,3.648 0.703,-0.945 0.707,-3.211 0.704,-3.856 0.707,-2.371 0.707,-1.344 0.703,-0.191 1.414,0.914 0.703,-0.098 0.707,0.239 0.703,1.254 1.414,4.328 0.703,0.562 0.707,1.59 1.41,4.852 1.415,2.652 0.703,-0.66 0.707,-4.281 0.703,-6.543 0.707,-3.289 0.707,1.128 0.703,2.942 1.414,11.375 0.703,2.609 0.707,-0.996 0.703,-2.285 0.707,-3.898 0.707,-1.946 0.703,-0.547 0.708,-0.968 0.707,-0.477 0.703,0.336 0.707,-0.207 0.707,-0.781 0.703,-3.071 0.707,-2.464 0.703,-0.868 0.707,-0.191 0.707,0.828 0.703,3.82 0.707,2.911 0.707,-1.239 0.703,-5.539 0.707,-6.687 0.704,-5.606 0.707,-4.535 0.707,-2.039 0.703,2.688 0.707,2.019 0.707,-1.191 0.703,-1.512 0.707,1.293 0.707,0.879 0.703,2.859 1.41,17.555 0.707,3.871 0.707,2.414 0.703,0.934 0.708,-5.395 0.707,-6.949 0.703,-3.379 1.41,-12.391 0.707,-1.961 0.707,0.45 0.703,-1.805 0.707,3.18 0.707,3.941 0.703,1.504 0.707,0.359 0.707,1.989 1.41,1.562 1.411,7.352 0.707,-0.895 0.703,-1.297 0.707,-1.832 1.41,-9.719 0.707,-1.3 0.703,-2.774 1.414,-7.633 0.703,-2.648 0.707,0.629 0.707,3.992 1.41,11.231 0.707,3.738 0.704,1.351 0.707,-1.761 0.703,-3.672 0.707,3.219 0.707,5.238 0.703,1.222 0.707,-0.261 0.707,0.39 1.41,-17.789 0.703,-4.992 0.707,-0.933 0.707,0.148 0.704,3.852 0.707,4.535 0.707,3.554 0.703,2.266 0.707,1.672 0.707,-3.359 0.703,-7.641 0.707,-5.367 0.703,-2.266 0.707,-0.883 0.707,4.598 0.703,10.812 0.707,6.692 0.707,0.75 0.703,-1.18 0.707,-4.574 0.704,-9.02 0.707,-6.429 1.41,-5.426 0.707,-1.805 0.707,-0.383 0.703,-0.14 0.707,0.058 0.703,-0.367 0.707,-0.117 0.707,3.152 0.703,3.836 1.414,8.891 0.703,3.34 0.707,-0.653 0.708,-1.656 0.703,-3.637 0.707,-4.574 0.703,-2.215 1.414,4.543 0.703,0.364 0.707,5.804 0.707,4.832 0.703,1.618 0.707,1.062 0.703,-0.984 0.707,-4.684 2.118,-16.66 0.707,-0.121 0.703,2.41 1.414,7.496 0.703,2.406 0.707,0.305 0.703,-2.289 0.707,-3.274 0.707,-1.785 0.703,0.145 1.414,7.281 0.703,2.985 0.707,-1.282 2.821,-13.105 0.707,0.761 0.707,3.629 0.703,-0.621 0.707,-1.168 0.707,-0.375 0.703,2.989 0.707,-0.145 2.117,6.859 0.703,-2.343 0.708,0.238 0.707,-1.25 0.703,-0.844 0.707,-0.293 0.703,0.93 0.707,-3.242 0.707,-0.399 1.41,1.446 0.707,-2.7 0.703,-1.687 0.707,-4.746 1.41,-10.617 0.707,2.043 1.411,10.949 1.41,10.383 0.707,1.949 1.41,0.32 0.707,-1.969 0.703,-5.128 0.707,-6.231 0.707,-4.437 0.703,-2.747 0.707,0.403 0.707,3.289 0.703,4.66 0.708,1.352 0.707,-0.657 1.41,-6.464 1.41,-9.293 0.707,-2.524 0.703,1.082 1.414,8.098 1.41,4.25 0.703,1.551 0.707,-1.063 0.707,0.414 1.411,8.797 0.707,1.918 0.703,0.812 0.707,0.208 1.41,-4.333 1.41,-5.144 0.707,-3.266 0.707,-2.07 0.703,-1.168 0.707,1.141 0.707,2.09 0.703,1.332 0.707,-1.079 1.411,-3.117 0.707,-2.449 0.703,-1.129 1.414,6.004 0.703,3.184 0.707,6.562 0.707,5.481 1.41,5.168 0.703,1.761 0.707,-1.39 2.118,-5.715 0.707,-1.582 0.703,-2.031 0.707,-0.915 0.703,2.196 0.707,0.726 0.707,-3.609 1.41,-5.301 0.707,-4.867 0.703,-3.613 0.707,-0.512 0.707,0.137 0.703,-0.008 0.707,-1.117 0.704,-0.907 0.707,-1.816 0.707,-1.172 0.703,-0.734 0.707,0.367 0.707,-0.602 0.703,2.172 1.41,5.203 0.707,2.414 0.707,3.504 0.703,1.536 0.707,-1.305 0.707,-2.863 0.703,-1.282 0.707,0.024 0.708,0.5 0.703,2.906 0.707,5.023 0.703,-0.3 0.707,-4.594 1.41,-8.043 0.707,-5.305 0.707,-1.656 0.703,0.641 0.707,-0.739 0.703,-0.429 0.707,1.191 0.707,1.672 1.411,5.832 0.707,1.625 0.703,0.086 0.707,1.351 h 0.703 l 0.707,-0.402 0.707,0.199 0.703,1.922 0.707,0.961 0.707,2.641 0.703,4.902 0.707,7.098 0.707,4.234 0.703,2.356 0.707,-1.352 0.704,-4.035 0.707,-8.578 0.707,-6.067 2.117,-13.734 1.41,-1.105 0.703,0.171 0.707,4.067 1.41,10.234 0.707,1.895 0.707,0.742 0.703,-2.371 0.708,-3.524 0.707,-7.195 0.703,-4.187 0.707,-3.282 0.703,-1.41 0.707,-0.387 0.707,5.379 0.703,4.309 0.707,3.098 1.41,4.64 0.707,-3.019 2.117,-13.528 0.704,-6.14 0.707,-2.114 0.707,1.278 0.703,2.008 0.707,5.933 0.707,7.391 0.703,4.574 0.707,1.703 0.703,0.016 0.707,-5.231 0.707,-6.699 0.703,-4.797 0.707,-3.23 0.707,-1.727 1.411,8.246 0.703,1.828 0.707,-2.035 0.707,-4.699 0.703,-13.055 0.707,-2.984 0.707,48.641" /></g><g
         transform="scale(1,-1)"
         id="g636"><path
           id="path638"
           style="fill:none;stroke:#ff7d0c;stroke-width:1.5;stroke-linecap:square;stroke-linejoin:round;stroke-miterlimit:10;stroke-dasharray:none;stroke-opacity:1"
           d="m 108.828,-419.52 0.707,1.883 0.707,49.778 0.703,30.433 0.707,-20.984 0.707,-16.863 0.703,2.718 0.708,-3.636 0.703,23.043 1.414,93.656 0.703,30.34 0.707,24.109 0.707,7.184 1.41,-35.375 0.703,-24.282 0.707,-12.664 1.41,-20.91 0.707,-12.051 0.707,-15.035 0.704,2.508 0.707,-2.727 0.707,-1 0.703,8.145 0.707,44.668 0.703,23.387 0.707,28.304 1.41,79.211 0.707,-4.871 0.707,-21.011 0.703,-28.422 0.707,-36.801 0.703,-29.094 0.707,-3.148 0.708,25.949 0.703,31.793 0.707,11.973 0.707,-6.118 0.703,-22.258 1.414,-87.296 0.703,17.156 2.824,139.234 0.703,-37.41 1.414,-106.371 0.704,-38.391 0.707,-29.593 0.703,3.222 0.707,8.918 0.707,15.746 0.703,8.875 0.707,2.235 0.707,-18.692 0.703,-22.492 0.707,-7.105 0.707,-0.828 0.703,-3.676 0.707,32.355 0.703,50.61 2.118,88.597 0.707,-0.316 0.707,-16.199 0.703,-6.891 0.707,-14.828 0.703,-34.652 0.707,-4.067 2.117,47.238 0.707,24.325 0.703,6.507 0.707,2.969 0.703,-8.519 0.708,-16.098 0.707,-7.41 0.703,-11.219 0.707,-55.902 0.707,-45.762 0.703,-27.75 0.707,-16.41 0.707,-11.543 1.41,83.887 0.703,25.211 0.707,11.796 0.707,22.047 0.703,-7.07 0.707,-4.543 0.707,6.094 0.704,8.808 0.707,-6.914 0.703,-2.062 0.707,-0.094 0.707,1.52 0.703,6.339 0.707,13.973 1.41,21.871 0.707,5.528 0.707,-12.665 0.703,-17.109 0.707,-9.672 0.703,-7.5 0.707,-11.574 0.707,2.605 0.704,6.586 1.414,23.793 1.41,30.371 0.703,5.7 0.707,-27.559 0.707,-33.914 2.117,-124.539 0.703,15.465 0.707,22.222 0.707,26.227 0.704,44.086 0.707,33.891 0.703,-0.543 0.707,0.175 0.707,6.297 0.703,-13.465 0.707,-11.3 0.707,5.711 0.703,2.429 0.707,22.348 0.703,5.855 0.707,-2.164 0.707,-29.089 0.703,-40.782 0.707,-95.601 0.707,-64.157 0.704,-45.195 0.707,3.715 0.707,16.352 1.41,95.671 0.703,36.875 0.707,-9.148 0.707,-5.781 2.117,-31.782 0.703,10.567 0.707,8.609 1.41,49.094 1.411,48.582 0.707,19.426 0.707,7.875 0.703,-3.297 0.707,-8.414 0.707,0.953 0.703,9.336 1.41,21.887 0.707,6.027 0.707,-7 0.703,-12.797 1.414,-37.496 1.411,-20.148 1.41,-42.516 0.707,-15.531 0.703,-3.102 0.707,-1.73 0.707,14.64 0.703,25.196 0.707,33.625 1.41,42.593 0.707,7.555 0.703,4.848 0.707,-2.602 1.411,-18.105 1.414,-44.465 0.703,-27.172 0.707,-13.508 0.703,-7.48 0.707,30.039 1.41,70.527 1.414,31.961 0.703,-3.887 0.707,-7.492 0.707,-12.793 0.704,-4.969 0.707,-7.019 2.117,-45.41 0.703,-9.692 0.707,-7.125 0.707,0.825 0.703,2.07 0.707,2.601 0.703,16.2 0.707,13.097 0.707,3.981 0.703,3.308 0.707,16.797 0.707,-9.222 0.704,-5.075 0.707,1.063 0.707,-1.871 0.703,-1.418 0.707,-3.09 0.703,-9.426 0.707,-14.715 0.707,-7.379 0.703,-18.785 0.707,-14.101 0.707,-10.297 0.703,7.508 0.707,8.957 0.703,-7.227 0.708,-2.269 0.707,-3.192 0.703,-25.476 0.707,-30.774 0.707,3.305 0.703,14.89 0.707,18.665 1.41,66.753 0.707,19.239 0.703,0.539 0.707,-7.563 0.707,-3.898 0.703,-12.731 0.707,-17.847 0.707,-4.766 0.704,6.024 0.707,-8.981 0.703,5.75 0.707,26.281 0.707,20.18 0.703,8.516 0.707,23.25 0.707,18.836 0.703,-1.731 0.707,-8.496 0.703,-3.34 2.117,23.719 0.707,14.687 0.707,18.25 0.704,2.493 0.707,-10.911 0.707,3.672 0.703,8 0.707,-6.656 0.703,-12.437 0.707,6.957 0.707,-6.172 0.703,-11.895 0.707,5.52 0.707,-1.907 0.703,-16.671 0.707,-11.887 0.704,-8.121 0.707,-11.438 0.707,-0.777 0.703,8.918 0.707,1.445 0.707,-10.894 0.703,-15.758 0.707,-10.109 1.41,-32.54 0.707,-21.851 0.703,-31.414 1.414,-77.813 0.703,-20.441 0.707,20.973 2.118,104.941 0.703,20.465 0.707,-1.227 0.707,-6.73 0.703,-4.449 0.707,12.535 0.707,15.718 0.703,12.504 0.707,18.637 0.707,14.399 0.703,-3.559 0.707,-9.844 0.703,-18.371 1.415,-52.98 1.41,-25.25 0.707,4.25 0.703,9.054 0.707,5.965 0.703,0.086 0.707,1.457 0.707,-6.586 0.703,3.949 0.707,7.797 0.707,19.657 1.41,49.621 1.411,37.629 0.707,16.957 1.41,24.843 0.707,3.86 0.703,-2.961 0.707,-31.887 2.117,-124.043 0.703,-28.043 0.707,-6.418 0.707,10.145 0.703,4.027 0.707,-12.73 0.708,-21.344 0.703,-3.235 1.414,-11.093 0.703,0.207 0.707,3.3 0.703,2.176 0.707,3.813 0.707,25.199 1.41,82.414 0.707,11.988 0.703,-4.66 0.707,-22.945 1.411,-63.703 0.707,-28.16 0.703,-20.332 0.707,-10.887 1.41,-14.098 0.707,17.195 2.117,82.895 0.703,9.656 1.414,-27.711 0.703,-18.765 0.707,-13.434 0.707,2.199 0.704,22.598 0.707,2.269 0.703,10.188 0.707,14.164 0.707,4.141 0.703,-4.125 0.707,10.945 0.707,3.063 0.703,-4.067 0.707,7.824 1.41,33.516 0.707,21.555 0.703,25.25 0.708,5.089 0.707,-10.914 0.703,-19.906 0.707,-25.195 0.707,-37.434 0.703,-14.195 0.707,-0.672 0.703,5.738 0.707,12.086 0.707,31.016 0.703,19.867 0.707,11.828 0.707,-1.773 0.703,-3.598 0.707,-10.18 0.707,-6.711 0.704,0.825 1.41,30.797 0.707,10.714 0.707,3.325 0.703,-0.379 1.414,-15.77 0.703,1.543 1.41,13.645 1.414,15.597 0.703,-29.547 2.825,-196.41 0.703,14.219 0.707,39.762 2.117,137.535 0.707,-5.973 0.703,-31.125 0.707,-38.156 0.707,-45.519 0.703,-38.122 0.707,-17.707 0.704,18.079 0.707,31.699 0.707,25.64 0.703,21.391 0.707,35.641 0.707,16.816 0.703,2.656 0.707,26.508 0.703,34.996 2.117,60.918 0.707,-11.918 0.707,-35.39 2.117,-120.696 0.704,-15.027 0.707,-1.969 0.703,5.289 0.707,7.055 1.41,9.535 1.414,16.633 0.703,-9.363 0.707,-31.465 0.703,-36.696 0.707,-22.789 0.707,-8.945 0.703,13.473 0.707,33.472 0.708,43.575 0.703,22.461 0.707,6.75 1.41,-26.5 0.707,-36.098 0.703,-26.613 0.707,-16.364 0.707,-0.965 0.703,4.274 0.707,26.789 0.707,17.297 0.703,13.351 0.707,10.633 0.704,18.106 0.707,5.547 0.707,2.046 1.41,6.711 0.707,-11.527 0.703,4.391 1.414,63.343 0.703,26.043 1.41,68.34 0.707,-4.437 0.707,-13.164 0.703,-26.844 1.415,-125.215 0.703,-27.629 0.707,-12.754 0.703,26.567 1.414,104.129 0.703,-3.618 1.414,-42.468 0.703,-3.618 1.414,104.129 0.703,26.567 0.707,-12.754 0.703,-27.629 1.415,-125.215 0.703,-26.844 0.707,-13.164 0.707,-4.437 0.703,31.375 0.707,36.965 0.703,26.043 1.414,63.343 0.703,4.391 0.707,-11.527 1.41,6.711 0.707,2.046 0.707,5.547 0.704,18.106 0.707,10.633 0.703,13.351 0.707,17.297 0.707,26.789 0.703,4.274 0.707,-0.965 0.707,-16.364 0.703,-26.613 0.707,-36.098 1.41,-26.5 0.707,6.75 0.703,22.461 0.708,43.575 0.707,33.472 0.703,13.473 0.707,-8.945 0.707,-22.789 1.41,-68.161 0.703,-9.363 0.707,7.61 0.707,9.023 0.703,4.406 0.707,5.129 0.707,7.055 0.703,5.289 0.707,-1.969 0.704,-15.027 1.414,-78.442 0.703,-42.254 0.707,-35.39 0.707,-11.918 0.703,23.094 1.414,37.824 0.703,34.996 0.707,26.508 0.703,2.656 0.707,16.816 0.707,35.641 0.703,21.391 0.707,25.64 0.707,31.699 0.704,18.079 0.707,-17.707 0.703,-38.122 0.707,-45.519 0.707,-38.156 0.703,-31.125 0.707,-5.973 1.41,91.07 1.414,86.227 0.703,14.219 2.825,-196.41 0.703,-29.547 2.117,22.554 0.707,6.688 0.703,1.543 1.414,-15.77 0.703,-0.379 0.707,3.325 0.707,10.714 1.41,30.797 0.704,0.825 0.707,-6.711 0.707,-10.18 0.703,-3.598 0.707,-1.773 0.707,11.828 0.703,19.867 0.707,31.016 0.707,12.086 0.703,5.738 0.707,-0.672 0.703,-14.195 0.707,-37.434 0.707,-25.195 0.703,-19.906 0.707,-10.914 0.708,5.089 1.41,46.805 1.41,33.516 0.707,7.824 0.703,-4.067 0.707,3.063 0.707,10.945 0.703,-4.125 0.707,4.141 0.707,14.164 0.703,10.188 0.707,2.269 0.704,22.598 0.707,2.199 0.707,-13.434 0.703,-18.765 1.414,-27.711 0.703,9.656 0.707,23.363 1.41,59.532 0.707,17.195 1.41,-14.098 0.707,-10.887 0.703,-20.332 1.415,-58.918 0.703,-32.945 0.707,-22.945 0.703,-4.66 0.707,11.988 1.41,82.414 0.707,25.199 0.707,3.813 0.703,2.176 0.707,3.3 0.703,0.207 0.707,-5.097 0.707,-5.996 0.703,-3.235 0.708,-21.344 0.707,-12.73 0.703,4.027 0.707,10.145 0.707,-6.418 0.703,-28.043 0.707,-35.109 1.41,-88.934 0.707,-31.887 0.703,-2.961 0.707,3.86 1.41,24.843 1.411,35.274 0.707,19.312 1.41,49.621 0.707,19.657 0.707,7.797 0.703,3.949 0.707,-6.586 0.707,1.457 0.703,0.086 0.707,5.965 0.703,9.054 0.707,4.25 0.707,-11.664 0.703,-13.586 0.708,-24.242 0.707,-28.738 0.703,-18.371 0.707,-9.844 0.703,-3.559 0.707,14.399 0.707,18.637 0.703,12.504 0.707,15.718 0.707,12.535 0.703,-4.449 0.707,-6.73 0.707,-1.227 0.703,20.465 0.707,30.496 1.411,74.445 0.707,20.973 0.703,-20.441 0.707,-36.024 0.707,-41.789 0.703,-31.414 0.707,-21.851 1.41,-32.54 0.707,-10.109 0.703,-15.758 0.707,-10.894 0.707,1.445 0.703,8.918 0.707,-0.777 0.707,-11.438 0.704,-8.121 0.707,-11.887 0.703,-16.671 0.707,-1.907 0.707,5.52 0.703,-11.895 0.707,-6.172 0.707,6.957 0.703,-12.437 0.707,-6.656 0.703,8 0.707,3.672 0.707,-10.911 0.704,2.493 0.707,18.25 0.707,14.687 0.703,9.484 0.707,6.512 0.707,7.723 0.703,-3.34 0.707,-8.496 0.703,-1.731 0.707,18.836 0.707,23.25 0.703,8.516 0.707,20.18 0.707,26.281 0.703,5.75 0.707,-8.981 0.704,6.024 0.707,-4.766 0.707,-17.847 0.703,-12.731 0.707,-3.898 0.707,-7.563 0.703,0.539 0.707,19.239 1.41,66.753 0.707,18.665 0.703,14.89 0.707,3.305 0.707,-30.774 0.703,-25.476 0.707,-3.192 0.708,-2.269 0.703,-7.227 0.707,8.957 0.703,7.508 0.707,-10.297 0.707,-14.101 0.703,-18.785 0.707,-7.379 0.707,-14.715 0.703,-9.426 0.707,-3.09 0.703,-1.418 0.707,-1.871 0.707,1.063 0.704,-5.075 0.707,-9.222 0.707,16.797 0.703,3.308 0.707,3.981 0.707,13.097 0.703,16.2 0.707,2.601 0.703,2.07 0.707,0.825 0.707,-7.125 0.703,-9.692 0.707,-13.691 1.41,-31.719 0.707,-7.019 0.704,-4.969 0.707,-12.793 0.707,-7.492 0.703,-3.887 0.707,14.758 0.707,17.203 2.117,100.566 0.703,-7.48 0.707,-13.508 1.41,-51.027 0.707,-20.61 1.411,-18.105 0.707,-2.602 0.703,4.848 0.707,7.555 1.41,42.593 0.707,33.625 0.703,25.196 0.707,14.64 0.707,-1.73 0.703,-3.102 0.707,-15.531 1.41,-42.516 1.411,-20.148 1.414,-37.496 0.703,-12.797 0.707,-7 0.707,6.027 2.113,31.223 0.707,0.953 0.707,-8.414 0.703,-3.297 0.707,7.875 0.707,19.426 2.821,97.676 0.707,8.609 0.703,10.567 1.414,-20.723 0.703,-11.059 0.707,-5.781 0.707,-9.148 0.703,36.875 0.707,43.98 0.703,51.691 0.707,16.352 0.707,3.715 0.704,-45.195 0.707,-64.157 0.707,-95.601 0.703,-40.782 0.707,-29.089 0.707,-2.164 0.703,5.855 0.707,22.348 0.703,2.429 0.707,5.711 0.707,-11.3 0.703,-13.465 0.707,6.297 0.707,0.175 0.703,-0.543 0.707,33.891 0.704,44.086 1.414,48.449 0.703,15.465 0.707,-34.019 1.41,-90.52 0.707,-33.914 0.707,-27.559 0.703,5.7 2.117,42.32 0.707,11.844 0.704,6.586 0.707,2.605 0.707,-11.574 0.703,-7.5 0.707,-9.672 0.703,-17.109 0.707,-12.665 0.707,5.528 0.703,10.133 0.707,11.738 0.707,13.973 0.703,6.339 0.707,1.52 0.707,-0.094 0.703,-2.062 0.707,-6.914 0.704,8.808 0.707,6.094 0.707,-4.543 0.703,-7.07 0.707,22.047 0.707,11.796 0.703,25.211 1.41,83.887 0.707,-11.543 0.707,-16.41 0.703,-27.75 0.707,-45.762 0.707,-55.902 0.703,-11.219 0.707,-7.41 0.708,-16.098 0.703,-8.519 0.707,2.969 0.703,6.507 0.707,24.325 0.707,17.812 1.41,29.426 0.707,-4.067 0.703,-34.652 0.707,-14.828 0.703,-6.891 0.707,-16.199 0.707,-0.316 0.704,36.218 0.707,24.25 0.707,28.129 0.703,50.61 0.707,32.355 0.703,-3.676 0.707,-0.828 0.707,-7.105 0.703,-22.492 0.707,-18.692 0.707,2.235 0.703,8.875 0.707,15.746 0.707,8.918 0.703,3.222 0.707,-29.593 0.704,-38.391 1.414,-106.371 0.703,-37.41 0.707,32.496 1.41,72.707 0.707,34.031 0.703,17.156 1.414,-87.296 0.703,-22.258 0.707,-6.118 0.707,11.973 0.703,31.793 0.708,25.949 0.707,-3.148 0.703,-29.094 0.707,-36.801 0.703,-28.422 0.707,-21.011 0.707,-4.871 1.41,79.211 0.707,28.304 0.703,23.387 0.707,44.668 0.703,8.145 0.707,-1 0.707,-2.727 0.704,2.508 0.707,-15.035 1.41,-22.528 0.707,-10.433 0.707,-12.664 0.703,-24.282 1.41,-35.375 0.707,7.184 0.707,24.109 0.703,30.34 1.414,93.656 0.703,23.043 0.708,-3.636 0.703,2.718 0.707,-16.863 0.707,-20.984 0.703,30.433 0.707,49.778 0.707,1.883" /></g><g
         transform="scale(1,-1)"
         id="g640"><path
           id="path642"
           style="fill:none;stroke:#000000;stroke-width:0.80000001;stroke-linecap:square;stroke-linejoin:miter;stroke-miterlimit:10;stroke-dasharray:none;stroke-opacity:1"
           d="M 73.551,-529.199 V -14.301" /></g><g
         transform="scale(1,-1)"
         id="g644"><path
           id="path646"
           style="fill:none;stroke:#000000;stroke-width:0.80000001;stroke-linecap:square;stroke-linejoin:miter;stroke-miterlimit:10;stroke-dasharray:none;stroke-opacity:1"
           d="M 849.699,-529.199 V -14.301" /></g><g
         transform="scale(1,-1)"
         id="g648"><path
           id="path650"
           style="fill:none;stroke:#000000;stroke-width:0.80000001;stroke-linecap:square;stroke-linejoin:miter;stroke-miterlimit:10;stroke-dasharray:none;stroke-opacity:1"
           d="M 73.551,-529.199 H 849.699" /></g><g
         transform="scale(1,-1)"
         id="g652"><path
           id="path654"
           style="fill:none;stroke:#000000;stroke-width:0.80000001;stroke-linecap:square;stroke-linejoin:miter;stroke-miterlimit:10;stroke-dasharray:none;stroke-opacity:1"
           d="M 73.551,-14.301 H 849.699" /></g><path
         id="path656"
         style="fill:#ffffff;fill-opacity:0.8;fill-rule:nonzero;stroke:none"
         d="m 790.371,51.645 h 52.328 c 1.336,0 2,-0.668 2,-2 V 21.301 c 0,-1.336 -0.664,-2 -2,-2 h -52.328 c -1.332,0 -2,0.664 -2,2 v 28.344 c 0,1.332 0.668,2 2,2 z" /><g
         transform="scale(1,-1)"
         id="g658"><path
           id="path660"
           style="fill:none;stroke:#cacaca;stroke-width:1;stroke-linecap:butt;stroke-linejoin:miter;stroke-miterlimit:10;stroke-dasharray:none;stroke-opacity:0.8"
           d="m 790.371,-51.645 h 52.328 c 1.336,0 2,0.668 2,2 v 28.344 c 0,1.336 -0.664,2 -2,2 h -52.328 c -1.332,0 -2,-0.664 -2,-2 v -28.344 c 0,-1.332 0.668,-2 2,-2 z" /></g><g
         transform="scale(1,-1)"
         id="g662"><path
           id="path664"
           style="fill:none;stroke:#1e75b3;stroke-width:1.5;stroke-linecap:square;stroke-linejoin:round;stroke-miterlimit:10;stroke-dasharray:none;stroke-opacity:1"
           d="m 792.371,-27.395 h 20" /></g><path
         id="path666"
         style="fill:#000000;fill-opacity:1;fill-rule:nonzero;stroke:none"
         d="m 820.352,23.605 h 6.16 v 0.829 h -2.59 v 6.461 h -0.992 v -6.461 h -2.578 v -0.829" /><path
         id="path668"
         style="fill:#000000;fill-opacity:1;fill-rule:nonzero;stroke:none"
         d="m 832.922,24.164 v 1.039 c -0.34,-0.297 -0.692,-0.527 -1.07,-0.687 -0.383,-0.153 -0.77,-0.231 -1.192,-0.231 -0.84,0 -1.48,0.258 -1.918,0.77 -0.441,0.511 -0.66,1.238 -0.66,2.199 0,0.961 0.219,1.699 0.66,2.211 0.438,0.508 1.078,0.758 1.918,0.758 0.422,0 0.809,-0.067 1.192,-0.227 0.378,-0.152 0.73,-0.383 1.07,-0.691 v 1.031 c -0.352,0.238 -0.723,0.41 -1.102,0.519 -0.379,0.11 -0.789,0.168 -1.218,0.168 -1.102,0 -1.973,-0.328 -2.61,-1 -0.64,-0.668 -0.953,-1.589 -0.953,-2.769 0,-1.168 0.313,-2.09 0.953,-2.77 0.637,-0.668 1.508,-1.011 2.61,-1.011 0.437,0 0.847,0.062 1.23,0.172 0.379,0.121 0.75,0.289 1.09,0.519" /><path
         id="path670"
         style="fill:#000000;fill-opacity:1;fill-rule:nonzero;stroke:none"
         d="m 834.699,30.066 h 1.613 v -5.562 l -1.75,0.351 v -0.902 l 1.739,-0.348 h 0.988 v 6.461 h 1.613 v 0.829 h -4.203 v -0.829" /><g
         transform="scale(1,-1)"
         id="g672"><path
           id="path674"
           style="fill:none;stroke:#ff7d0c;stroke-width:1.5;stroke-linecap:square;stroke-linejoin:round;stroke-miterlimit:10;stroke-dasharray:none;stroke-opacity:1"
           d="m 792.371,-42.066 h 20" /></g><path
         id="path676"
         style="fill:#000000;fill-opacity:1;fill-rule:nonzero;stroke:none"
         d="m 825.723,38.516 v 0.961 c -0.383,-0.18 -0.731,-0.309 -1.063,-0.399 -0.34,-0.082 -0.66,-0.133 -0.961,-0.133 -0.539,0 -0.957,0.11 -1.25,0.313 -0.289,0.207 -0.429,0.508 -0.429,0.887 0,0.32 0.089,0.57 0.292,0.73 0.188,0.172 0.559,0.301 1.098,0.402 l 0.602,0.118 c 0.73,0.14 1.269,0.39 1.621,0.742 0.347,0.359 0.527,0.828 0.527,1.418 0,0.711 -0.238,1.242 -0.711,1.601 -0.476,0.36 -1.168,0.539 -2.078,0.539 -0.351,0 -0.719,-0.039 -1.109,-0.109 -0.391,-0.07 -0.789,-0.18 -1.2,-0.34 v -1.019 c 0.399,0.23 0.79,0.398 1.168,0.511 0.379,0.117 0.762,0.168 1.141,0.168 0.559,0 0.988,-0.109 1.301,-0.328 0.301,-0.223 0.461,-0.531 0.461,-0.953 0,-0.359 -0.113,-0.637 -0.332,-0.84 -0.219,-0.199 -0.578,-0.347 -1.078,-0.449 l -0.602,-0.121 c -0.738,-0.137 -1.269,-0.367 -1.601,-0.688 -0.329,-0.312 -0.489,-0.742 -0.489,-1.3 0,-0.641 0.219,-1.149 0.68,-1.52 0.449,-0.371 1.082,-0.562 1.879,-0.562 0.34,0 0.68,0.031 1.043,0.093 0.347,0.059 0.707,0.157 1.09,0.278" /><path
         id="path678"
         style="fill:#000000;fill-opacity:1;fill-rule:nonzero;stroke:none"
         d="m 826.703,38.277 h 6.16 v 0.828 h -2.59 v 6.461 h -0.992 v -6.461 h -2.578 v -0.828" /><path
         id="path680"
         style="fill:#000000;fill-opacity:1;fill-rule:nonzero;stroke:none"
         d="m 836.773,38.945 c -0.722,0 -1.293,0.27 -1.711,0.801 -0.421,0.539 -0.628,1.262 -0.628,2.18 0,0.922 0.207,1.652 0.628,2.179 0.418,0.54 0.989,0.801 1.711,0.801 0.707,0 1.278,-0.261 1.7,-0.801 0.418,-0.527 0.629,-1.257 0.629,-2.179 0,-0.918 -0.211,-1.641 -0.629,-2.18 -0.422,-0.531 -0.993,-0.801 -1.7,-0.801 m 0,-0.8 c 1.02,0 1.829,0.351 2.45,1.031 0.609,0.679 0.918,1.601 0.918,2.75 0,1.16 -0.309,2.07 -0.918,2.75 -0.621,0.679 -1.43,1.019 -2.45,1.019 -1.031,0 -1.851,-0.34 -2.461,-1.019 -0.621,-0.68 -0.921,-1.59 -0.921,-2.75 0,-1.149 0.3,-2.071 0.921,-2.75 0.61,-0.68 1.43,-1.031 2.461,-1.031" /><text
         id="text684"
         style="font-variant:normal;font-weight:normal;font-size:22px;font-family:'DejaVu Sans';-inkscape-font-specification:DejaVuSans;writing-mode:lr-tb;fill:#000000;fill-opacity:1;fill-rule:nonzero;stroke:none"
         transform="translate(227.54718,55.018867)"><tspan
           id="tspan682"
           y="0"
           x="0 13.992 27.983999 41.976002">110K</tspan></text>
</g></g></svg>