<?xml version="1.0" encoding="UTF-8" standalone="no"?>
<svg
   xmlns:dc="http://purl.org/dc/elements/1.1/"
   xmlns:cc="http://creativecommons.org/ns#"
   xmlns:rdf="http://www.w3.org/1999/02/22-rdf-syntax-ns#"
   xmlns:svg="http://www.w3.org/2000/svg"
   xmlns="http://www.w3.org/2000/svg"
   viewBox="0 0 1536 1152"
   height="1152"
   width="1536"
   xml:space="preserve"
   id="svg2"
   version="1.1"><metadata
     id="metadata8"><rdf:RDF><cc:Work
         rdf:about=""><dc:format>image/svg+xml</dc:format><dc:type
           rdf:resource="http://purl.org/dc/dcmitype/StillImage" /></cc:Work></rdf:RDF></metadata><defs
     id="defs6"><clipPath
       id="clipPath22"
       clipPathUnits="userSpaceOnUse"><path
         id="path20"
         d="m 144,108 h 892.8 V 760.32 H 144 Z" /></clipPath><clipPath
       id="clipPath40"
       clipPathUnits="userSpaceOnUse"><path
         id="path38"
         d="m 144,108 h 892.8 V 760.32 H 144 Z" /></clipPath><clipPath
       id="clipPath58"
       clipPathUnits="userSpaceOnUse"><path
         id="path56"
         d="m 144,108 h 892.8 V 760.32 H 144 Z" /></clipPath><clipPath
       id="clipPath76"
       clipPathUnits="userSpaceOnUse"><path
         id="path74"
         d="m 144,108 h 892.8 V 760.32 H 144 Z" /></clipPath><clipPath
       id="clipPath94"
       clipPathUnits="userSpaceOnUse"><path
         id="path92"
         d="m 144,108 h 892.8 V 760.32 H 144 Z" /></clipPath><clipPath
       id="clipPath112"
       clipPathUnits="userSpaceOnUse"><path
         id="path110"
         d="m 144,108 h 892.8 V 760.32 H 144 Z" /></clipPath><clipPath
       id="clipPath130"
       clipPathUnits="userSpaceOnUse"><path
         id="path128"
         d="m 144,108 h 892.8 V 760.32 H 144 Z" /></clipPath><clipPath
       id="clipPath152"
       clipPathUnits="userSpaceOnUse"><path
         id="path150"
         d="m 144,108 h 892.8 V 760.32 H 144 Z" /></clipPath><clipPath
       id="clipPath170"
       clipPathUnits="userSpaceOnUse"><path
         id="path168"
         d="m 144,108 h 892.8 V 760.32 H 144 Z" /></clipPath><clipPath
       id="clipPath188"
       clipPathUnits="userSpaceOnUse"><path
         id="path186"
         d="m 144,108 h 892.8 V 760.32 H 144 Z" /></clipPath><clipPath
       id="clipPath206"
       clipPathUnits="userSpaceOnUse"><path
         id="path204"
         d="m 144,108 h 892.8 V 760.32 H 144 Z" /></clipPath><clipPath
       id="clipPath224"
       clipPathUnits="userSpaceOnUse"><path
         id="path222"
         d="m 144,108 h 892.8 V 760.32 H 144 Z" /></clipPath><clipPath
       id="clipPath242"
       clipPathUnits="userSpaceOnUse"><path
         id="path240"
         d="m 144,108 h 892.8 V 760.32 H 144 Z" /></clipPath><clipPath
       id="clipPath260"
       clipPathUnits="userSpaceOnUse"><path
         id="path258"
         d="m 144,108 h 892.8 V 760.32 H 144 Z" /></clipPath><clipPath
       id="clipPath278"
       clipPathUnits="userSpaceOnUse"><path
         id="path276"
         d="m 144,108 h 892.8 V 760.32 H 144 Z" /></clipPath><clipPath
       id="clipPath296"
       clipPathUnits="userSpaceOnUse"><path
         id="path294"
         d="m 144,108 h 892.8 V 760.32 H 144 Z" /></clipPath><clipPath
       id="clipPath318"
       clipPathUnits="userSpaceOnUse"><path
         id="path316"
         d="m 144,108 h 892.8 V 760.32 H 144 Z" /></clipPath><clipPath
       id="clipPath328"
       clipPathUnits="userSpaceOnUse"><path
         id="path326"
         d="m 144,108 h 892.8 V 760.32 H 144 Z" /></clipPath><clipPath
       id="clipPath338"
       clipPathUnits="userSpaceOnUse"><path
         id="path336"
         d="m 144,108 h 892.8 V 760.32 H 144 Z" /></clipPath><clipPath
       id="clipPath348"
       clipPathUnits="userSpaceOnUse"><path
         id="path346"
         d="m 144,108 h 892.8 V 760.32 H 144 Z" /></clipPath><clipPath
       id="clipPath358"
       clipPathUnits="userSpaceOnUse"><path
         id="path356"
         d="m 144,108 h 892.8 V 760.32 H 144 Z" /></clipPath><clipPath
       id="clipPath368"
       clipPathUnits="userSpaceOnUse"><path
         id="path366"
         d="m 144,108 h 892.8 V 760.32 H 144 Z" /></clipPath><clipPath
       id="clipPath378"
       clipPathUnits="userSpaceOnUse"><path
         id="path376"
         d="m 144,108 h 892.8 V 760.32 H 144 Z" /></clipPath><clipPath
       id="clipPath388"
       clipPathUnits="userSpaceOnUse"><path
         id="path386"
         d="m 144,108 h 892.8 V 760.32 H 144 Z" /></clipPath></defs><g
     transform="matrix(1.3333333,0,0,-1.3333333,0,1152)"
     id="g10"><path
       id="path12"
       style="fill:#ffffff;fill-opacity:1;fill-rule:nonzero;stroke:none"
       d="M 0,0 H 1152 V 864 H 0 Z" /><path
       id="path14"
       style="fill:#ffffff;fill-opacity:1;fill-rule:nonzero;stroke:none"
       d="m 144,108 h 892.8 V 760.32 H 144 Z" /><g
       id="g16"><g
         clip-path="url(#clipPath22)"
         id="g18"><path
           id="path24"
           style="fill:none;stroke:#b0b0b0;stroke-width:0.80000001;stroke-linecap:square;stroke-linejoin:round;stroke-miterlimit:10;stroke-dasharray:none;stroke-opacity:1"
           d="M 170.34258,108 V 760.32" /></g></g><g
       id="g26"><path
         id="path28"
         style="fill:#000000;fill-opacity:1;fill-rule:nonzero;stroke:#000000;stroke-width:0.80000001;stroke-linecap:butt;stroke-linejoin:round;stroke-miterlimit:10;stroke-dasharray:none;stroke-opacity:1"
         d="m 170.34258,108 v -3.5" /><text
         id="text32"
         style="font-variant:normal;font-weight:normal;font-size:18px;font-family:'DejaVu Sans';-inkscape-font-specification:DejaVuSans;writing-mode:lr-tb;fill:#000000;fill-opacity:1;fill-rule:nonzero;stroke:none"
         transform="matrix(1,0,0,-1,164.61602,87.328125)"><tspan
           id="tspan30"
           y="0"
           x="0">0</tspan></text>
</g><g
       id="g34"><g
         clip-path="url(#clipPath40)"
         id="g36"><path
           id="path42"
           style="fill:none;stroke:#b0b0b0;stroke-width:0.80000001;stroke-linecap:square;stroke-linejoin:round;stroke-miterlimit:10;stroke-dasharray:none;stroke-opacity:1"
           d="M 312.73493,108 V 760.32" /></g></g><g
       id="g44"><path
         id="path46"
         style="fill:#000000;fill-opacity:1;fill-rule:nonzero;stroke:#000000;stroke-width:0.80000001;stroke-linecap:butt;stroke-linejoin:round;stroke-miterlimit:10;stroke-dasharray:none;stroke-opacity:1"
         d="m 312.73493,108 v -3.5" /><text
         id="text50"
         style="font-variant:normal;font-weight:normal;font-size:18px;font-family:'DejaVu Sans';-inkscape-font-specification:DejaVuSans;writing-mode:lr-tb;fill:#000000;fill-opacity:1;fill-rule:nonzero;stroke:none"
         transform="matrix(1,0,0,-1,301.2818,87.328125)"><tspan
           id="tspan48"
           y="0"
           x="0 11.448">50</tspan></text>
</g><g
       id="g52"><g
         clip-path="url(#clipPath58)"
         id="g54"><path
           id="path60"
           style="fill:none;stroke:#b0b0b0;stroke-width:0.80000001;stroke-linecap:square;stroke-linejoin:round;stroke-miterlimit:10;stroke-dasharray:none;stroke-opacity:1"
           d="M 455.12727,108 V 760.32" /></g></g><g
       id="g62"><path
         id="path64"
         style="fill:#000000;fill-opacity:1;fill-rule:nonzero;stroke:#000000;stroke-width:0.80000001;stroke-linecap:butt;stroke-linejoin:round;stroke-miterlimit:10;stroke-dasharray:none;stroke-opacity:1"
         d="m 455.12727,108 v -3.5" /><text
         id="text68"
         style="font-variant:normal;font-weight:normal;font-size:18px;font-family:'DejaVu Sans';-inkscape-font-specification:DejaVuSans;writing-mode:lr-tb;fill:#000000;fill-opacity:1;fill-rule:nonzero;stroke:none"
         transform="matrix(1,0,0,-1,437.94759,87.328125)"><tspan
           id="tspan66"
           y="0"
           x="0 11.448 22.896">100</tspan></text>
</g><g
       id="g70"><g
         clip-path="url(#clipPath76)"
         id="g72"><path
           id="path78"
           style="fill:none;stroke:#b0b0b0;stroke-width:0.80000001;stroke-linecap:square;stroke-linejoin:round;stroke-miterlimit:10;stroke-dasharray:none;stroke-opacity:1"
           d="M 597.51962,108 V 760.32" /></g></g><g
       id="g80"><path
         id="path82"
         style="fill:#000000;fill-opacity:1;fill-rule:nonzero;stroke:#000000;stroke-width:0.80000001;stroke-linecap:butt;stroke-linejoin:round;stroke-miterlimit:10;stroke-dasharray:none;stroke-opacity:1"
         d="m 597.51962,108 v -3.5" /><text
         id="text86"
         style="font-variant:normal;font-weight:normal;font-size:18px;font-family:'DejaVu Sans';-inkscape-font-specification:DejaVuSans;writing-mode:lr-tb;fill:#000000;fill-opacity:1;fill-rule:nonzero;stroke:none"
         transform="matrix(1,0,0,-1,580.33993,87.328125)"><tspan
           id="tspan84"
           y="0"
           x="0 11.448 22.896">150</tspan></text>
</g><g
       id="g88"><g
         clip-path="url(#clipPath94)"
         id="g90"><path
           id="path96"
           style="fill:none;stroke:#b0b0b0;stroke-width:0.80000001;stroke-linecap:square;stroke-linejoin:round;stroke-miterlimit:10;stroke-dasharray:none;stroke-opacity:1"
           d="M 739.91196,108 V 760.32" /></g></g><g
       id="g98"><path
         id="path100"
         style="fill:#000000;fill-opacity:1;fill-rule:nonzero;stroke:#000000;stroke-width:0.80000001;stroke-linecap:butt;stroke-linejoin:round;stroke-miterlimit:10;stroke-dasharray:none;stroke-opacity:1"
         d="m 739.91196,108 v -3.5" /><text
         id="text104"
         style="font-variant:normal;font-weight:normal;font-size:18px;font-family:'DejaVu Sans';-inkscape-font-specification:DejaVuSans;writing-mode:lr-tb;fill:#000000;fill-opacity:1;fill-rule:nonzero;stroke:none"
         transform="matrix(1,0,0,-1,722.73227,87.328125)"><tspan
           id="tspan102"
           y="0"
           x="0 11.448 22.896">200</tspan></text>
</g><g
       id="g106"><g
         clip-path="url(#clipPath112)"
         id="g108"><path
           id="path114"
           style="fill:none;stroke:#b0b0b0;stroke-width:0.80000001;stroke-linecap:square;stroke-linejoin:round;stroke-miterlimit:10;stroke-dasharray:none;stroke-opacity:1"
           d="M 882.30431,108 V 760.32" /></g></g><g
       id="g116"><path
         id="path118"
         style="fill:#000000;fill-opacity:1;fill-rule:nonzero;stroke:#000000;stroke-width:0.80000001;stroke-linecap:butt;stroke-linejoin:round;stroke-miterlimit:10;stroke-dasharray:none;stroke-opacity:1"
         d="m 882.30431,108 v -3.5" /><text
         id="text122"
         style="font-variant:normal;font-weight:normal;font-size:18px;font-family:'DejaVu Sans';-inkscape-font-specification:DejaVuSans;writing-mode:lr-tb;fill:#000000;fill-opacity:1;fill-rule:nonzero;stroke:none"
         transform="matrix(1,0,0,-1,865.12462,87.328125)"><tspan
           id="tspan120"
           y="0"
           x="0 11.448 22.896">250</tspan></text>
</g><g
       id="g124"><g
         clip-path="url(#clipPath130)"
         id="g126"><path
           id="path132"
           style="fill:none;stroke:#b0b0b0;stroke-width:0.80000001;stroke-linecap:square;stroke-linejoin:round;stroke-miterlimit:10;stroke-dasharray:none;stroke-opacity:1"
           d="M 1024.6967,108 V 760.32" /></g></g><g
       id="g134"><path
         id="path136"
         style="fill:#000000;fill-opacity:1;fill-rule:nonzero;stroke:#000000;stroke-width:0.80000001;stroke-linecap:butt;stroke-linejoin:round;stroke-miterlimit:10;stroke-dasharray:none;stroke-opacity:1"
         d="m 1024.6967,108 v -3.5" /><text
         id="text140"
         style="font-variant:normal;font-weight:normal;font-size:18px;font-family:'DejaVu Sans';-inkscape-font-specification:DejaVuSans;writing-mode:lr-tb;fill:#000000;fill-opacity:1;fill-rule:nonzero;stroke:none"
         transform="matrix(1,0,0,-1,1007.517,87.328125)"><tspan
           id="tspan138"
           y="0"
           x="0 11.448 22.896">300</tspan></text>
<text
         id="text144"
         style="font-variant:normal;font-weight:normal;font-size:18px;font-family:'DejaVu Sans';-inkscape-font-specification:DejaVuSans;writing-mode:lr-tb;fill:#000000;fill-opacity:1;fill-rule:nonzero;stroke:none"
         transform="matrix(1,0,0,-1,520.04844,65.90625)"><tspan
           id="tspan142"
           y="0"
           x="0 10.998 22.068001 39.599998 51.029999 62.099998 69.498001 80.531998 87.587997 99 106.398 117.468 123.192 128.916">Temperature, K</tspan></text>
</g><g
       id="g146"><g
         clip-path="url(#clipPath152)"
         id="g148"><path
           id="path154"
           style="fill:none;stroke:#b0b0b0;stroke-width:0.80000001;stroke-linecap:square;stroke-linejoin:round;stroke-miterlimit:10;stroke-dasharray:none;stroke-opacity:1"
           d="m 144,110.18891 h 892.8" /></g></g><g
       id="g156"><path
         id="path158"
         style="fill:#000000;fill-opacity:1;fill-rule:nonzero;stroke:#000000;stroke-width:0.80000001;stroke-linecap:butt;stroke-linejoin:round;stroke-miterlimit:10;stroke-dasharray:none;stroke-opacity:1"
         d="m 144,110.18891 h -3.5" /><text
         id="text162"
         style="font-variant:normal;font-weight:normal;font-size:18px;font-family:'DejaVu Sans';-inkscape-font-specification:DejaVuSans;writing-mode:lr-tb;fill:#000000;fill-opacity:1;fill-rule:nonzero;stroke:none"
         transform="matrix(1,0,0,-1,125.54688,103.35297)"><tspan
           id="tspan160"
           y="0"
           x="0">2</tspan></text>
</g><g
       id="g164"><g
         clip-path="url(#clipPath170)"
         id="g166"><path
           id="path172"
           style="fill:none;stroke:#b0b0b0;stroke-width:0.80000001;stroke-linecap:square;stroke-linejoin:round;stroke-miterlimit:10;stroke-dasharray:none;stroke-opacity:1"
           d="m 144,188.64985 h 892.8" /></g></g><g
       id="g174"><path
         id="path176"
         style="fill:#000000;fill-opacity:1;fill-rule:nonzero;stroke:#000000;stroke-width:0.80000001;stroke-linecap:butt;stroke-linejoin:round;stroke-miterlimit:10;stroke-dasharray:none;stroke-opacity:1"
         d="m 144,188.64985 h -3.5" /><text
         id="text180"
         style="font-variant:normal;font-weight:normal;font-size:18px;font-family:'DejaVu Sans';-inkscape-font-specification:DejaVuSans;writing-mode:lr-tb;fill:#000000;fill-opacity:1;fill-rule:nonzero;stroke:none"
         transform="matrix(1,0,0,-1,125.54688,181.81391)"><tspan
           id="tspan178"
           y="0"
           x="0">3</tspan></text>
</g><g
       id="g182"><g
         clip-path="url(#clipPath188)"
         id="g184"><path
           id="path190"
           style="fill:none;stroke:#b0b0b0;stroke-width:0.80000001;stroke-linecap:square;stroke-linejoin:round;stroke-miterlimit:10;stroke-dasharray:none;stroke-opacity:1"
           d="m 144,267.11079 h 892.8" /></g></g><g
       id="g192"><path
         id="path194"
         style="fill:#000000;fill-opacity:1;fill-rule:nonzero;stroke:#000000;stroke-width:0.80000001;stroke-linecap:butt;stroke-linejoin:round;stroke-miterlimit:10;stroke-dasharray:none;stroke-opacity:1"
         d="m 144,267.11079 h -3.5" /><text
         id="text198"
         style="font-variant:normal;font-weight:normal;font-size:18px;font-family:'DejaVu Sans';-inkscape-font-specification:DejaVuSans;writing-mode:lr-tb;fill:#000000;fill-opacity:1;fill-rule:nonzero;stroke:none"
         transform="matrix(1,0,0,-1,125.54688,260.27486)"><tspan
           id="tspan196"
           y="0"
           x="0">4</tspan></text>
</g><g
       id="g200"><g
         clip-path="url(#clipPath206)"
         id="g202"><path
           id="path208"
           style="fill:none;stroke:#b0b0b0;stroke-width:0.80000001;stroke-linecap:square;stroke-linejoin:round;stroke-miterlimit:10;stroke-dasharray:none;stroke-opacity:1"
           d="m 144,345.57174 h 892.8" /></g></g><g
       id="g210"><path
         id="path212"
         style="fill:#000000;fill-opacity:1;fill-rule:nonzero;stroke:#000000;stroke-width:0.80000001;stroke-linecap:butt;stroke-linejoin:round;stroke-miterlimit:10;stroke-dasharray:none;stroke-opacity:1"
         d="m 144,345.57174 h -3.5" /><text
         id="text216"
         style="font-variant:normal;font-weight:normal;font-size:18px;font-family:'DejaVu Sans';-inkscape-font-specification:DejaVuSans;writing-mode:lr-tb;fill:#000000;fill-opacity:1;fill-rule:nonzero;stroke:none"
         transform="matrix(1,0,0,-1,125.54688,338.7358)"><tspan
           id="tspan214"
           y="0"
           x="0">5</tspan></text>
</g><g
       id="g218"><g
         clip-path="url(#clipPath224)"
         id="g220"><path
           id="path226"
           style="fill:none;stroke:#b0b0b0;stroke-width:0.80000001;stroke-linecap:square;stroke-linejoin:round;stroke-miterlimit:10;stroke-dasharray:none;stroke-opacity:1"
           d="m 144,424.03268 h 892.8" /></g></g><g
       id="g228"><path
         id="path230"
         style="fill:#000000;fill-opacity:1;fill-rule:nonzero;stroke:#000000;stroke-width:0.80000001;stroke-linecap:butt;stroke-linejoin:round;stroke-miterlimit:10;stroke-dasharray:none;stroke-opacity:1"
         d="m 144,424.03268 h -3.5" /><text
         id="text234"
         style="font-variant:normal;font-weight:normal;font-size:18px;font-family:'DejaVu Sans';-inkscape-font-specification:DejaVuSans;writing-mode:lr-tb;fill:#000000;fill-opacity:1;fill-rule:nonzero;stroke:none"
         transform="matrix(1,0,0,-1,125.54688,417.19674)"><tspan
           id="tspan232"
           y="0"
           x="0">6</tspan></text>
</g><g
       id="g236"><g
         clip-path="url(#clipPath242)"
         id="g238"><path
           id="path244"
           style="fill:none;stroke:#b0b0b0;stroke-width:0.80000001;stroke-linecap:square;stroke-linejoin:round;stroke-miterlimit:10;stroke-dasharray:none;stroke-opacity:1"
           d="m 144,502.49363 h 892.8" /></g></g><g
       id="g246"><path
         id="path248"
         style="fill:#000000;fill-opacity:1;fill-rule:nonzero;stroke:#000000;stroke-width:0.80000001;stroke-linecap:butt;stroke-linejoin:round;stroke-miterlimit:10;stroke-dasharray:none;stroke-opacity:1"
         d="m 144,502.49363 h -3.5" /><text
         id="text252"
         style="font-variant:normal;font-weight:normal;font-size:18px;font-family:'DejaVu Sans';-inkscape-font-specification:DejaVuSans;writing-mode:lr-tb;fill:#000000;fill-opacity:1;fill-rule:nonzero;stroke:none"
         transform="matrix(1,0,0,-1,125.54688,495.65769)"><tspan
           id="tspan250"
           y="0"
           x="0">7</tspan></text>
</g><g
       id="g254"><g
         clip-path="url(#clipPath260)"
         id="g256"><path
           id="path262"
           style="fill:none;stroke:#b0b0b0;stroke-width:0.80000001;stroke-linecap:square;stroke-linejoin:round;stroke-miterlimit:10;stroke-dasharray:none;stroke-opacity:1"
           d="m 144,580.95457 h 892.8" /></g></g><g
       id="g264"><path
         id="path266"
         style="fill:#000000;fill-opacity:1;fill-rule:nonzero;stroke:#000000;stroke-width:0.80000001;stroke-linecap:butt;stroke-linejoin:round;stroke-miterlimit:10;stroke-dasharray:none;stroke-opacity:1"
         d="m 144,580.95457 h -3.5" /><text
         id="text270"
         style="font-variant:normal;font-weight:normal;font-size:18px;font-family:'DejaVu Sans';-inkscape-font-specification:DejaVuSans;writing-mode:lr-tb;fill:#000000;fill-opacity:1;fill-rule:nonzero;stroke:none"
         transform="matrix(1,0,0,-1,125.54688,574.11863)"><tspan
           id="tspan268"
           y="0"
           x="0">8</tspan></text>
</g><g
       id="g272"><g
         clip-path="url(#clipPath278)"
         id="g274"><path
           id="path280"
           style="fill:none;stroke:#b0b0b0;stroke-width:0.80000001;stroke-linecap:square;stroke-linejoin:round;stroke-miterlimit:10;stroke-dasharray:none;stroke-opacity:1"
           d="m 144,659.41551 h 892.8" /></g></g><g
       id="g282"><path
         id="path284"
         style="fill:#000000;fill-opacity:1;fill-rule:nonzero;stroke:#000000;stroke-width:0.80000001;stroke-linecap:butt;stroke-linejoin:round;stroke-miterlimit:10;stroke-dasharray:none;stroke-opacity:1"
         d="m 144,659.41551 h -3.5" /><text
         id="text288"
         style="font-variant:normal;font-weight:normal;font-size:18px;font-family:'DejaVu Sans';-inkscape-font-specification:DejaVuSans;writing-mode:lr-tb;fill:#000000;fill-opacity:1;fill-rule:nonzero;stroke:none"
         transform="matrix(1,0,0,-1,125.54688,652.57958)"><tspan
           id="tspan286"
           y="0"
           x="0">9</tspan></text>
</g><g
       id="g290"><g
         clip-path="url(#clipPath296)"
         id="g292"><path
           id="path298"
           style="fill:none;stroke:#b0b0b0;stroke-width:0.80000001;stroke-linecap:square;stroke-linejoin:round;stroke-miterlimit:10;stroke-dasharray:none;stroke-opacity:1"
           d="m 144,737.87646 h 892.8" /></g></g><g
       id="g300"><path
         id="path302"
         style="fill:#000000;fill-opacity:1;fill-rule:nonzero;stroke:#000000;stroke-width:0.80000001;stroke-linecap:butt;stroke-linejoin:round;stroke-miterlimit:10;stroke-dasharray:none;stroke-opacity:1"
         d="m 144,737.87646 h -3.5" /><text
         id="text306"
         style="font-variant:normal;font-weight:normal;font-size:18px;font-family:'DejaVu Sans';-inkscape-font-specification:DejaVuSans;writing-mode:lr-tb;fill:#000000;fill-opacity:1;fill-rule:nonzero;stroke:none"
         transform="matrix(1,0,0,-1,114.09375,731.04052)"><tspan
           id="tspan304"
           y="0"
           x="0 11.448">10</tspan></text>
<text
         id="text310"
         style="font-variant:normal;font-weight:normal;font-size:18px;font-family:'DejaVu Sans';-inkscape-font-specification:DejaVuSans;writing-mode:lr-tb;fill:#000000;fill-opacity:1;fill-rule:nonzero;stroke:none"
         transform="matrix(0,1,1,0,106.34375,361.8475)"><tspan
           id="tspan308"
           y="0"
           x="0 12.564 23.598 35.028 46.062 55.962002 60.966 68.022003 79.056 90.468002 100.368 111.438 117.162 122.886 134.31599">Capacitance, pF</tspan></text>
</g><g
       id="g312"><g
         clip-path="url(#clipPath318)"
         id="g314"><path
           id="path320"
           style="fill:none;stroke:#1f77b4;stroke-width:1.5;stroke-linecap:square;stroke-linejoin:round;stroke-miterlimit:10;stroke-dasharray:none;stroke-opacity:1"
           d="m 184.58182,527.857 1.21806,0.002 0.40602,0.16263 2.43613,0.007 0.81204,0.0546 5.6843,-0.22685 2.43613,-0.25069 2.0301,-0.0352 5.27828,-0.30203 2.43612,0.0622 3.6542,-0.16434 5.68429,-0.59382 4.06021,-0.62182 11.3686,-2.11056 2.84215,-0.7283 0.81204,-0.34137 0.40602,-0.50864 0.40602,-0.96508 0.81204,-0.0772 2.84215,-0.81133 0.81204,-0.0638 0.81205,-0.0307 0.40602,-0.0842 0.81204,-0.33308 0.81204,-0.0713 1.21807,-0.0234 0.81204,-0.19064 1.62408,-0.61847 9.33849,-3.47386 4.06021,-1.73969 9.33849,-4.50951 4.46623,-2.4676 4.87226,-2.85932 4.87225,-3.07308 9.74451,-6.65298 7.7144,-5.55445 6.49634,-4.93289 2.84215,-2.29886 4.46623,-3.64426 6.49634,-5.58685 10.96257,-10.01303 8.93247,-8.59212 6.49634,-6.27803 4.87225,-4.42834 2.03011,-1.81422 3.65419,-3.50429 8.12042,-8.75884 0.81205,-1.15638 1.21806,-2.48186 0.40602,-0.37776 1.21807,-0.76753 8.12042,-6.49581 3.65419,-2.92294 2.43613,-1.89599 4.87225,-3.81246 18.67698,-14.24344 68.61758,-51.20951 1.21806,-1.27588 0.81204,-0.41783 4.87226,-2.91825 8.12042,-4.83538 11.36859,-7.05571 12.99268,-8.33923 7.71441,-5.56219 8.52644,-6.76087 4.06021,-2.8707 4.87226,-3.51743 2.84215,-1.72095 7.7144,-4.59196 10.96257,-6.10445 19.89504,-10.49439 12.58666,-6.43488 3.24817,-1.58826 18.67697,-9.17531 1.62408,-0.80591 5.27828,-2.7395 0.81204,-0.51383 0.81205,-0.58464 1.21806,-0.42836 15.83483,-6.05897 14.61676,-5.17881 29.23352,-9.68273 25.57934,-7.76745 2.84215,-0.83831 12.58665,-3.58846 21.92515,-6.02679 34.10578,-9.20626 7.30838,-2.15244 2.03011,-0.6808 19.89503,-4.2175 28.42149,-5.21283 6.49634,-1.07674 17.05289,-2.72464 15.4288,-2.42948 1.21807,-0.23713 4.06021,-0.46323 6.49634,-0.74891 7.30838,-0.82671 7.30838,-0.87125 33.69976,-4.09693 26.7974,-3.63653 7.30838,-1.0526 v 0" /></g></g><g
       id="g322"><g
         clip-path="url(#clipPath328)"
         id="g324"><path
           id="path330"
           style="fill:none;stroke:#ff7f0e;stroke-width:1.5;stroke-linecap:square;stroke-linejoin:round;stroke-miterlimit:10;stroke-dasharray:none;stroke-opacity:1"
           d="m 184.58182,479.6927 2.0301,-0.0467 0.81205,10e-4 7.7144,-0.48691 9.33849,-1.07357 2.84214,-0.2495 5.27828,-0.4759 2.03011,-0.2059 0.40602,-0.20439 5.68429,-0.34849 2.84215,-0.46471 2.84215,-0.66426 3.65419,-1.03147 4.06021,-1.35263 6.90236,-2.67932 3.24817,-1.52607 4.06022,-2.04504 6.09031,-3.05274 4.06021,-2.19694 6.49634,-3.88029 12.18064,-7.27013 3.65419,-2.15211 0.40602,-0.28521 0.40602,-0.57067 0.40602,-0.84389 0.40603,-0.16319 4.87225,-3.68321 3.65419,-2.79317 45.06835,-36.09493 28.42149,-23.02151 19.89504,-16.88223 1.62408,-1.4566 12.99268,-11.02389 3.65419,-3.03029 0.81204,-0.71255 20.70708,-14.77455 9.74451,-6.66305 4.06021,-2.71025 6.09032,-3.92783 16.24085,-10.14037 18.27095,-10.57743 12.18064,-6.75184 3.24817,-1.91808 12.18063,-7.23318 2.03011,-1.23773 7.7144,-4.71778 7.7144,-5.25332 14.21075,-10.91477 6.09031,-4.33127 6.49634,-4.00705 4.87226,-2.89305 8.12042,-4.68657 7.30838,-4.01343 23.54923,-10.75467 8.52645,-3.51152 11.36859,-4.44922 16.64687,-6.10857 7.7144,-2.69836 13.3987,-4.47795 24.76729,-7.67327 48.31652,-13.79356 27.20343,-7.37752 7.7144,-1.77278 39.38405,-8.9974 5.6843,-1.30277 2.03011,-0.37486 15.4288,-2.85463 23.54923,-4.10882 6.90236,-1.09168 4.46623,-0.68572 3.24817,-0.5253 48.72255,-7.47805 47.50448,-6.96146 6.49633,-0.94884 32.88772,-4.98174 v 0" /></g></g><g
       id="g332"><g
         clip-path="url(#clipPath338)"
         id="g334"><path
           id="path340"
           style="fill:none;stroke:#2ca02c;stroke-width:1.5;stroke-linecap:square;stroke-linejoin:round;stroke-miterlimit:10;stroke-dasharray:none;stroke-opacity:1"
           d="m 184.58182,625.7962 5.68429,-0.033 2.03011,-0.12695 3.24817,-0.22933 3.24817,-0.2099 3.65419,-0.25062 3.65419,-0.32077 5.6843,-0.38697 0.40602,-0.42426 1.21806,-0.0136 4.46624,-0.28077 2.43612,-0.49087 4.87226,-1.09113 4.46623,-0.95442 0.40602,-0.2607 0.40602,-0.61937 0.40602,-0.92884 0.40602,0.029 11.3686,-4.0179 9.74451,-3.91531 6.90236,-3.29155 4.87225,-2.7961 5.27828,-3.43151 2.84215,-2.04816 5.27827,-4.0635 8.52645,-7.64574 3.24817,-3.23963 4.06021,-4.2043 10.96257,-12.5835 3.24817,-3.99142 2.84215,-3.90641 2.84215,-3.93402 3.24817,-4.58843 0.81204,-1.44487 0.81204,-3.21686 0.40602,-0.99023 0.40602,-0.50698 0.81204,-0.4508 1.62409,-1.66984 18.27095,-18.94619 3.24817,-3.28591 2.84215,-2.88491 6.49634,-6.59846 8.12042,-8.05135 4.06022,-4.02075 4.46623,-4.3165 7.7144,-7.32178 10.55655,-9.91831 8.52645,-7.68852 12.58665,-10.99393 4.06022,-3.51797 3.65419,-3.22924 4.06021,-3.58466 4.06021,-3.53213 6.09032,-5.53184 2.43613,-2.23659 3.24817,-3.03646 3.24817,-3.23411 0.81204,-1.00626 0.81204,-1.56963 0.81204,-0.88392 2.03011,-1.38135 9.33849,-7.14147 12.99267,-9.3497 14.21075,-9.81485 14.61676,-9.61832 18.27095,-12.62125 3.65419,-2.81514 7.30838,-6.26936 5.6843,-5.79144 2.43613,-2.85352 0.40602,-0.56998 0.81204,-1.6494 0.40602,-0.49361 2.43613,-1.83997 4.87225,-3.89644 10.96258,-6.95331 8.93246,-5.2101 13.3987,-7.29288 10.15053,-5.26729 19.083,-9.28066 2.84215,-1.33963 17.86493,-8.48938 4.06021,-2.28092 0.81204,-0.59406 1.21807,-1.54439 0.81204,-0.43386 1.21806,-0.40606 12.99268,-5.4483 20.30106,-7.74307 11.77462,-4.25885 21.92514,-7.64302 7.30838,-2.52078 2.03011,-1.09512 2.0301,-1.27928 0.40603,-0.46041 0.40602,-0.21033 0.40602,0.0308 0.40602,0.29099 0.40602,-0.0136 0.40602,-0.19578 1.21806,-1.02165 1.21807,-0.68192 1.21806,-0.3699 0.40602,-0.27781 0.81204,-0.22699 1.21807,-0.54807 4.06021,-1.24184 20.30106,-6.01252 6.49634,-1.80259 3.24817,-0.84667 1.21806,-0.34331 8.93247,-2.22161 2.84215,-0.95785 0.81204,-0.21722 4.46623,-1.09572 1.21807,-0.2264 1.21806,-0.26753 1.21806,-0.34008 3.65419,-0.48717 5.27828,-1.39061 1.62408,-0.63561 4.06022,-1.15251 2.84214,-0.63549 3.24817,-0.89284 5.27828,-1.19767 2.84215,-0.61615 3.65419,-0.85294 4.06021,-0.6517 3.24817,-0.41643 5.27828,-1.37986 10.96257,-3.31962 0.81204,-0.61396 1.21806,-0.89367 1.21807,-0.0966 1.21806,-0.206 2.03011,-0.73575 0.81204,-0.0596 0.81204,0.0216 3.24817,-0.41953 2.43613,-0.62905 2.0301,-0.49465 1.62409,-0.0461 0.81204,5.3e-4 5.6843,-1.24368 1.21806,-0.12184 2.03011,-0.40524 2.43612,-0.4436 3.65419,-0.68527 4.87226,-0.99182 17.05289,-3.44173 4.87225,-1.45485 2.03011,-0.84531 6.09032,-1.01103 2.84215,-0.48471 4.06021,-0.69002 6.90236,-1.21942 6.49634,-1.14174 38.16599,-6.615 4.06021,-0.86764 1.21806,-0.34177 0.40603,-0.23659 0.40602,-0.37622 0.40602,-0.18632 1.62408,-0.15988 29.23353,-4.57411 0.81204,-0.10924 v 0" /></g></g><g
       id="g342"><g
         clip-path="url(#clipPath348)"
         id="g344"><path
           id="path350"
           style="fill:none;stroke:#d62728;stroke-width:1.5;stroke-linecap:square;stroke-linejoin:round;stroke-miterlimit:10;stroke-dasharray:none;stroke-opacity:1"
           d="m 184.58182,730.65696 6.09032,-0.21665 7.7144,-0.69269 0.40602,-0.25338 1.62408,0.009 4.46624,-0.52436 5.27827,-0.41046 0.40602,-0.12732 0.40603,-0.47714 1.21806,0.023 2.43613,-0.14317 2.84214,-0.44144 4.87226,-1.18014 4.87225,-1.45612 4.87226,-1.84844 14.61676,-6.05315 5.27828,-2.56174 1.62408,-0.75375 1.21806,-1.51868 0.40603,-2.31687 0.40602,-1.19919 0.40602,0.0171 2.84215,-2.12479 4.46623,-3.64386 6.49634,-5.62643 7.30838,-6.79056 9.74451,-9.79762 6.49634,-6.74824 12.18063,-13.08467 10.55656,-11.81054 21.1131,-24.56795 3.24817,-3.86274 17.05289,-20.58224 13.3987,-17.27542 11.77461,-16.03296 4.06021,-5.82175 2.43613,-3.48757 4.06021,-5.86843 2.03011,-2.95933 7.30838,-10.76767 8.52644,-12.53361 2.84215,-4.12654 0.40602,-0.91754 0.81204,-2.46687 0.40603,-0.78527 0.40602,-0.45835 0.81204,-0.5892 23.95525,-24.15499 20.70708,-19.98103 3.65419,-3.40411 8.93247,-8.27189 9.33849,-8.51976 5.27827,-4.69149 17.86493,-16.61546 8.93247,-9.32254 4.87225,-5.60873 2.43613,-2.63308 3.65419,-4.93283 0.81205,-1.32135 0.81204,-3.30961 0.40602,-0.81054 0.81204,-0.62424 4.87225,-5.19678 3.6542,-3.72837 2.84214,-2.88968 2.03011,-1.68194 11.36859,-8.89073 15.02279,-10.58671 23.1432,-14.92207 4.46624,-2.66044 10.96257,-6.49852 26.39138,-15.17021 3.24817,-1.65257 6.09032,-3.68204 0.81204,-1.1522 0.40602,-1.03293 0.40602,-0.72083 0.40602,-0.46379 0.40602,-0.20596 0.81205,-0.18769 15.83482,-7.2751 7.30838,-3.22372 6.49634,-2.78115 10.96257,-4.55061 11.3686,-4.57311 18.67697,-7.37234 8.12043,-3.1945 14.61676,-5.56302 3.65419,-1.6955 0.40602,-0.22731 0.40602,-0.47528 0.81205,-1.21039 0.40602,-0.39106 0.81204,-0.24357 0.81204,-0.18155 15.83483,-5.1624 20.30106,-6.14838 15.02278,-4.89711 2.43613,-1.03117 0.81204,-0.49535 0.81204,-0.94426 0.40602,-0.21938 1.62409,-0.3373 5.27827,-1.42347 14.61677,-3.58408 25.57933,-6.37804 2.43613,-0.92685 1.21806,-0.56902 1.62409,-1.09419 2.43612,-0.46067 6.09032,-1.28924 4.87226,-0.9812 32.48169,-6.9306 3.65419,-1.16983 0.81205,-0.5586 0.81204,-0.43713 0.81204,-0.19872 1.21806,-0.1635 30.45159,-5.59999 2.84215,-0.67289 2.84215,-0.98196 2.03011,-0.9054 7.7144,-1.32625 28.01546,-5.19352 10.55655,-2.2233 3.24817,-0.82048 v 0" /></g></g><g
       id="g352"><g
         clip-path="url(#clipPath358)"
         id="g354"><path
           id="path360"
           style="fill:none;stroke:#9467bd;stroke-width:1.5;stroke-linecap:square;stroke-linejoin:round;stroke-miterlimit:10;stroke-dasharray:none;stroke-opacity:1"
           d="m 184.58182,527.77355 0.81204,-0.0746 3.65419,-0.075 2.03011,-0.0608 1.62408,-0.0626 0.40602,-0.17516 4.06021,-0.1944 2.43613,-0.20418 4.46623,-1.03306 7.30839,-0.81877 3.65419,-0.5417 1.21806,-0.70137 0.40602,0.40308 5.27828,-0.79581 0.40602,-0.0511 0.40602,-1.09597 0.40602,-0.26481 8.12042,-2.11812 5.6843,-1.5695 0.40602,0.0572 0.40602,-0.4418 0.40603,-1.27405 0.81204,-0.3908 2.84215,-1.03792 3.65419,-1.67688 6.90236,-3.406 1.21806,-0.55949 2.43613,-1.33516 2.84215,-1.49616 4.46623,-2.63372 4.87225,-3.16075 8.12043,-5.68612 11.36859,-8.35432 0.40602,-0.0827 0.40602,-1.02709 0.40602,-0.66707 18.27096,-14.58843 7.7144,-6.60992 8.93247,-7.78245 5.68429,-4.99629 23.54923,-20.97308 6.90236,-6.03634 8.93247,-7.75147 10.96257,-9.21285 0.81204,-1.13438 1.62409,-1.41345 4.46623,-3.62751 20.70708,-16.07694 27.20342,-20.48508 14.21074,-10.31271 10.96258,-7.73424 15.83482,-10.58035 4.46624,-2.96906 6.49633,-4.37855 20.70709,-13.93882 9.74451,-6.50075 4.06021,-2.94808 1.21806,-0.92504 4.06021,-2.87595 5.27828,-3.78289 9.74451,-6.53159 9.33848,-5.14454 3.24817,-1.67525 23.54923,-11.62522 7.30838,-3.67931 1.62409,-1.54832 1.21806,-0.57651 6.90236,-3.06756 16.64687,-7.0325 18.27096,-7.29446 0.81204,-0.80895 0.81204,-0.51475 2.03011,-0.64219 8.12042,-3.14247 13.3987,-4.79661 11.77461,-3.93153 5.27828,-1.64645 23.14321,-7.17843 23.1432,-6.68202 12.99268,-3.56821 13.80472,-3.61551 19.48902,-4.9071 17.86493,-4.24255 23.14321,-5.24791 8.12042,-1.66545 20.30106,-3.95515 12.99268,-2.3072 3.24817,-0.35623 5.27828,-0.56711 8.12042,-1.22218 12.18064,-1.66976 14.21074,-1.76247 26.7974,-3.16508 6.09032,-0.73015 58.46705,-7.87129 6.09032,-0.89172 0.40602,-0.0548 v 0" /></g></g><g
       id="g362"><g
         clip-path="url(#clipPath368)"
         id="g364"><path
           id="path370"
           style="fill:none;stroke:#8c564b;stroke-width:1.5;stroke-linecap:square;stroke-linejoin:round;stroke-miterlimit:10;stroke-dasharray:none;stroke-opacity:1"
           d="m 184.58182,479.76399 2.0301,-0.12913 0.81205,0.0435 4.87225,-0.27383 0.40602,-0.0663 0.40602,-0.20061 4.87226,-0.33387 0.40602,-0.10104 0.40602,-0.37843 1.62408,-0.2091 6.09032,-0.49442 6.90236,-0.82222 0.40602,-0.84299 2.03011,-0.87177 3.65419,-1.27018 5.27828,-0.93542 3.65419,-1.15465 6.09032,-2.3818 2.0301,-0.70169 4.06021,-1.48787 5.27828,-2.10441 0.40602,-0.36534 0.40602,0.61114 0.81204,-0.49301 1.62409,-0.74761 0.40602,-0.36585 0.81204,-0.27975 2.03011,-1.03828 3.24817,-1.59344 2.0301,-1.16868 1.62409,-1.08565 3.24817,-2.1179 2.43612,-1.00702 7.71441,-5.16588 1.21806,-0.93829 1.62408,-1.09092 3.6542,-2.73365 6.90236,-5.41069 5.68429,-4.48343 0.40602,-0.27814 1.21807,-1.36421 1.21806,-0.70676 1.62409,-0.82078 2.0301,-1.29539 4.87226,-3.41008 2.84214,-2.15363 2.43613,-1.92757 7.30838,-5.84187 3.65419,-3.16977 1.21807,-0.63106 4.06021,-3.55955 2.43613,-2.02256 25.17331,-21.43839 8.52645,-7.14352 9.33848,-8.10081 0.81205,-1.5493 0.40602,-0.66043 0.81204,1.24525 0.40602,-0.8695 0.40602,-0.34155 0.40602,-1.6073 0.40602,0.93496 0.40602,0.47602 0.81205,-1.75315 0.40602,-0.0896 0.40602,-0.3747 0.40602,0.79704 0.40602,-1.47404 0.81205,-0.65012 0.40602,-0.0416 0.40602,-0.63194 0.40602,-0.42263 0.40602,-0.0474 0.40602,-0.52861 0.40602,0.80623 0.40602,-1.43732 0.40602,0.95074 0.40602,-1.59329 2.03011,-1.69268 0.40602,0.93771 0.40602,-1.656 0.40603,0.74778 0.40602,-1.42052 1.21806,-0.99753 0.40602,0.66257 0.40602,-1.30096 1.21807,-0.96138 0.40602,-0.15167 0.40602,-0.52177 0.40602,0.89361 0.40602,-1.37957 0.40602,-0.34248 0.40602,0.0534 0.40602,0.3932 0.40602,0.0591 0.40603,-0.74288 0.40602,0.43384 0.40602,-1.22785 0.40602,0.28523 0.40602,-0.83861 0.40602,-0.10638 0.40602,0.49357 0.40602,-1.50067 0.40603,0.88952 0.40602,-1.28386 0.40602,0.66685 0.40602,-1.53367 3.24817,-2.32126 6.90236,-5.14745 7.30838,-5.47749 12.99268,-9.6693 0.81204,-0.41782 2.84215,-2.11271 2.03011,-1.43652 1.62408,-1.18667 12.99268,-8.96183 10.15053,-6.78573 33.69976,-21.16794 5.68429,-3.79539 4.87226,-3.12369 6.09032,-2.38939 4.87225,-2.23394 3.24817,-1.58904 7.7144,-4.31183 4.06022,-2.68183 10.15052,-6.62208 4.87226,-2.94344 4.87225,-2.50799 7.30838,-3.75099 32.07568,-15.0204 7.30838,-3.18331 13.3987,-5.57222 18.27095,-7.17821 21.92515,-8.08336 16.64687,-5.67172 24.76729,-7.95887 3.65419,-1.09074 2.03011,-0.64553 2.0301,-0.57834 11.77462,-3.49816 5.68429,-0.92458 10.55655,-2.41179 10.96258,-2.74325 10.55655,-2.74873 15.83482,-4.02942 4.46624,-1.10504 31.66965,-7.51327 13.80472,-3.0534 6.09032,-1.25164 24.36127,-4.81963 17.05289,-3.10404 10.55655,-1.80946 24.76729,-4.01777 6.49634,-1.01046 41.41416,-6.43222 2.84215,-0.33286 1.21807,-0.15089 9.33848,-1.51097 1.21807,-0.22251 21.51912,-3.06899 5.6843,-0.96999 11.77461,-1.70801 v 0" /></g></g><g
       id="g372"><g
         clip-path="url(#clipPath378)"
         id="g374"><path
           id="path380"
           style="fill:none;stroke:#e377c2;stroke-width:1.5;stroke-linecap:square;stroke-linejoin:round;stroke-miterlimit:10;stroke-dasharray:none;stroke-opacity:1"
           d="m 184.58182,625.77724 4.46623,-0.0422 2.03011,-0.0693 0.81204,-0.0947 2.03011,-0.0793 0.40602,-0.48402 0.81204,-0.11776 6.49634,-0.36576 6.90236,-0.42672 3.24817,-0.37908 2.0301,-0.17188 0.40602,-0.023 0.40603,-3.36871 0.40602,-1.31293 0.40602,-0.38613 11.36859,-3.50668 5.6843,-1.7547 6.90236,-3.07168 5.27827,-2.9279 6.49634,-4.18441 4.46624,-2.71747 2.84214,-1.70706 4.06022,-2.7457 5.68429,-4.19618 15.42881,-12.61779 3.24817,-2.87439 0.40602,-0.0847 0.40602,-0.66292 0.40602,-3.0298 0.40602,-0.90775 1.21807,-1.48833 3.24817,-2.90067 4.46623,-4.49817 4.87225,-5.08923 2.43613,-2.48071 12.99268,-13.33062 2.0301,-2.10328 4.46624,-4.59398 33.29374,-33.47854 0.81204,-0.63857 0.40602,-0.46257 0.40602,-0.67434 1.21806,-2.99737 1.21807,-1.47056 2.0301,-2.02555 5.27828,-5.02018 5.6843,-5.24777 6.49633,-6.15635 4.87226,-4.82187 10.55655,-9.84014 14.61676,-12.92571 13.80472,-11.76103 4.06022,-3.37605 6.90236,-5.72556 7.7144,-6.13598 4.87225,-3.7846 0.81205,-0.41777 0.40602,-0.42721 0.40602,-0.83658 0.81204,-2.15378 1.21806,-1.21272 8.93247,-6.49227 10.15053,-6.80534 8.93247,-6.12335 6.09031,-4.12283 15.02279,-10.8178 15.83483,-11.54956 4.87225,-3.84006 1.62408,-1.34989 11.77462,-10.41644 6.09032,-4.97665 8.12042,-5.39394 5.27828,-3.25925 5.68429,-3.41627 7.71441,-4.4227 1.62408,-0.93658 1.62408,-1.33113 3.6542,-1.76596 6.49633,-3.04537 20.30106,-9.902 5.6843,-2.68492 5.6843,-2.6559 19.89504,-8.87859 3.24817,-1.39033 0.81204,-1.00001 1.62408,-0.72973 7.30838,-2.59081 25.17332,-8.68294 14.21074,-5.00263 5.6843,-1.97316 4.06021,-1.41948 0.81204,-0.30674 0.81204,-0.004 0.40602,-0.15287 0.81205,-0.0116 1.21806,-0.27848 0.81204,-0.12096 1.62409,-0.65001 1.62408,-1.17649 1.62409,-0.67204 0.81204,-0.119 1.21806,0.33971 0.81204,-0.11393 0.81205,-0.48021 1.62408,-1.2742 1.21807,-0.30439 4.46623,-1.6208 0.81204,0.13216 0.81204,-0.0805 0.81205,-0.31013 0.81204,-0.51325 0.40602,-0.34679 0.40602,-0.17094 0.40602,-0.0157 0.81204,-0.2616 2.84215,-0.69106 1.62409,-0.735 1.62408,-0.31248 1.21807,-0.39241 0.81204,-0.29165 1.62408,-0.61287 2.84215,-0.7901 0.81204,-0.67929 0.40602,-0.38788 1.21807,-0.57767 2.0301,-0.61999 11.77462,-3.02987 29.23352,-7.22963 8.93247,-2.23424 8.12042,-1.97495 9.74451,-2.2791 4.87226,-0.76763 4.06021,-0.61679 2.03011,-0.49802 2.84214,-1.00755 1.62409,-0.56006 2.84215,-0.80945 2.0301,-0.54045 2.84215,-0.61654 2.43613,-0.42172 2.43613,-0.61268 5.68429,-1.64577 1.62409,-0.34692 1.21806,-0.2066 2.03011,-0.38448 1.21806,-0.21037 2.03011,-0.30069 3.65419,-0.81179 2.43612,-0.50569 1.21807,-0.23024 2.43612,-0.77017 3.24817,-0.80207 1.21807,-0.29155 5.27827,-0.78584 5.27828,-1.0963 2.0301,-0.40583 2.03011,-0.45217 9.33849,-1.74615 10.96257,-2.34592 2.84215,-0.54931 4.06021,-0.7912 3.24817,-0.7167 6.90236,-1.27975 6.90236,-1.33091 32.07568,-5.93346 1.62408,-0.68601 3.24817,-0.77526 5.27827,-1.04788 5.6843,-0.99762 13.3987,-2.10443 11.77462,-1.76827 2.0301,-0.3073 v 0" /></g></g><g
       id="g382"><g
         clip-path="url(#clipPath388)"
         id="g384"><path
           id="path390"
           style="fill:none;stroke:#7f7f7f;stroke-width:1.5;stroke-linecap:square;stroke-linejoin:round;stroke-miterlimit:10;stroke-dasharray:none;stroke-opacity:1"
           d="m 184.58182,730.65155 4.46623,-0.0702 0.40602,-0.17814 3.24817,-0.15038 0.40602,-0.32571 6.90236,-0.4648 0.40602,-1.01601 0.40603,-0.40647 0.40602,-0.2162 15.83482,-2.1789 3.65419,-0.95942 4.46624,-1.34295 1.21806,-0.25605 0.81204,0.16502 0.40602,-4.18205 0.81205,-1.62663 12.99267,-6.04878 4.46624,-2.82815 4.46623,-3.41378 5.6843,-4.58514 4.06021,-3.23415 7.7144,-6.69012 12.18064,-12.05914 8.93246,-9.54582 6.49634,-7.302 2.03011,-2.35365 0.40602,-2.58149 0.40602,-1.72895 0.81204,-1.37389 3.24817,-3.29268 1.62409,-1.64582 11.36859,-13.65375 11.77462,-15.24656 6.09031,-7.86573 15.83483,-20.01333 5.27828,-6.56766 39.79007,-50.17678 0.40602,-1.98844 0.40603,-0.74495 1.21806,-1.32868 3.24817,-3.19019 8.12042,-8.61804 6.09032,-7.05033 8.12042,-9.15458 4.87226,-5.19689 2.84215,-3.06846 4.87225,-5.23252 3.24817,-3.42545 3.65419,-3.70167 18.67698,-18.45774 8.12042,-7.51201 0.81204,-0.55585 0.40602,-0.64034 0.81205,-2.29406 0.81204,-1.02468 1.21806,-1.08976 4.87226,-3.94632 3.24817,-2.48794 2.43612,-2.04674 2.84215,-2.47227 3.65419,-3.40216 29.63955,-29.12669 6.09032,-6.57872 3.24817,-3.80245 4.06021,-4.67595 4.46623,-4.9486 1.21807,-1.8806 1.21806,-1.23577 2.0301,-1.7381 2.43613,-1.62869 3.65419,-2.54654 7.71441,-5.7084 7.7144,-5.46488 0.81204,-0.37479 0.81204,-0.83273 7.71441,-5.37773 9.33848,-6.31829 2.43613,-1.60896 0.81204,-0.91993 0.40602,-0.51154 0.40603,-0.11127 0.40602,-0.6623 2.0301,-1.26333 4.06021,-2.17383 6.09032,-3.04089 12.58666,-6.68971 20.70708,-10.7948 11.77461,-5.93863 2.84215,-1.39911 20.70708,-9.68457 4.06022,-1.83983 0.81204,-0.7116 0.81204,-0.75945 1.62408,-0.86839 4.87226,-2.08427 4.06021,-1.5121 43.85029,-15.81266 4.46623,-1.62933 18.67698,-6.62479 28.42148,-9.69308 29.63955,-9.71068 37.75997,-11.07432 17.45891,-4.71274 13.3987,-3.42914 28.42148,-6.83203 26.7974,-6.03436 1.62409,-0.86415 2.84214,-0.89665 4.06022,-1.1775 12.58665,-2.8948 15.02279,-2.93131 28.42148,-5.08853 v 0" /></g></g><g
       id="g392"><path
         id="path394"
         style="fill:none;stroke:#000000;stroke-width:0.80000001;stroke-linecap:square;stroke-linejoin:miter;stroke-miterlimit:10;stroke-dasharray:none;stroke-opacity:1"
         d="M 144,108 V 760.32" /><path
         id="path396"
         style="fill:none;stroke:#000000;stroke-width:0.80000001;stroke-linecap:square;stroke-linejoin:miter;stroke-miterlimit:10;stroke-dasharray:none;stroke-opacity:1"
         d="M 1036.8,108 V 760.32" /><path
         id="path398"
         style="fill:none;stroke:#000000;stroke-width:0.80000001;stroke-linecap:square;stroke-linejoin:miter;stroke-miterlimit:10;stroke-dasharray:none;stroke-opacity:1"
         d="m 144,108 h 892.8" /><path
         id="path400"
         style="fill:none;stroke:#000000;stroke-width:0.80000001;stroke-linecap:square;stroke-linejoin:miter;stroke-miterlimit:10;stroke-dasharray:none;stroke-opacity:1"
         d="m 144,760.32 h 892.8" /><path
         id="path402"
         style="fill:#ffffff;fill-opacity:0.8;fill-rule:nonzero;stroke:#cccccc;stroke-width:1;stroke-linecap:butt;stroke-linejoin:miter;stroke-miterlimit:10;stroke-dasharray:none;stroke-opacity:0.8"
         d="M 765.0375,534.545 H 1024.2 c 2.4,0 3.6,1.2 3.6,3.6 V 747.72 c 0,2.4 -1.2,3.6 -3.6,3.6 H 765.0375 c -2.4,0 -3.6,-1.2 -3.6,-3.6 V 538.145 c 0,-2.4 1.2,-3.6 3.6,-3.6 z" /><path
         id="path404"
         style="fill:none;stroke:#1f77b4;stroke-width:1.5;stroke-linecap:square;stroke-linejoin:round;stroke-miterlimit:10;stroke-dasharray:none;stroke-opacity:1"
         d="m 768.6375,736.74812 h 36" /><text
         id="text408"
         style="font-variant:normal;font-weight:normal;font-size:18px;font-family:'DejaVu Sans';-inkscape-font-specification:DejaVuSans;writing-mode:lr-tb;fill:#000000;fill-opacity:1;fill-rule:nonzero;stroke:none"
         transform="matrix(1,0,0,-1,819.0375,730.44812)"><tspan
           id="tspan406"
           y="0"
           x="0 13.86 24.93 35.585999 40.59 50.490002 61.560001 67.283997 82.367996 93.816002 99.540001 105.264 117.828 128.84399 139.86 144.864 150.588 164.448 175.464 190.188">Device #3, Cool Down</tspan></text>
<path
         id="path410"
         style="fill:none;stroke:#ff7f0e;stroke-width:1.5;stroke-linecap:square;stroke-linejoin:round;stroke-miterlimit:10;stroke-dasharray:none;stroke-opacity:1"
         d="m 768.6375,710.32625 h 36" /><text
         id="text414"
         style="font-variant:normal;font-weight:normal;font-size:18px;font-family:'DejaVu Sans';-inkscape-font-specification:DejaVuSans;writing-mode:lr-tb;fill:#000000;fill-opacity:1;fill-rule:nonzero;stroke:none"
         transform="matrix(1,0,0,-1,819.0375,704.02625)"><tspan
           id="tspan412"
           y="0"
           x="0 13.86 24.93 35.585999 40.59 50.490002 61.560001 67.283997 82.367996 93.816002 99.540001 105.264 117.828 128.84399 139.86 144.864 150.588 164.448 175.464 190.188">Device #4, Cool Down</tspan></text>
<path
         id="path416"
         style="fill:none;stroke:#2ca02c;stroke-width:1.5;stroke-linecap:square;stroke-linejoin:round;stroke-miterlimit:10;stroke-dasharray:none;stroke-opacity:1"
         d="m 768.6375,683.90438 h 36" /><text
         id="text420"
         style="font-variant:normal;font-weight:normal;font-size:18px;font-family:'DejaVu Sans';-inkscape-font-specification:DejaVuSans;writing-mode:lr-tb;fill:#000000;fill-opacity:1;fill-rule:nonzero;stroke:none"
         transform="matrix(1,0,0,-1,819.0375,677.60438)"><tspan
           id="tspan418"
           y="0"
           x="0 13.86 24.93 35.585999 40.59 50.490002 61.560001 67.283997 82.367996 93.816002 99.540001 105.264 117.828 128.84399 139.86 144.864 150.588 164.448 175.464 190.188">Device #5, Cool Down</tspan></text>
<path
         id="path422"
         style="fill:none;stroke:#d62728;stroke-width:1.5;stroke-linecap:square;stroke-linejoin:round;stroke-miterlimit:10;stroke-dasharray:none;stroke-opacity:1"
         d="m 768.6375,657.4825 h 36" /><text
         id="text426"
         style="font-variant:normal;font-weight:normal;font-size:18px;font-family:'DejaVu Sans';-inkscape-font-specification:DejaVuSans;writing-mode:lr-tb;fill:#000000;fill-opacity:1;fill-rule:nonzero;stroke:none"
         transform="matrix(1,0,0,-1,819.0375,651.1825)"><tspan
           id="tspan424"
           y="0"
           x="0 13.86 24.93 35.585999 40.59 50.490002 61.560001 67.283997 82.367996 93.816002 99.540001 105.264 117.828 128.84399 139.86 144.864 150.588 164.448 175.464 190.188">Device #6, Cool Down</tspan></text>
<path
         id="path428"
         style="fill:none;stroke:#9467bd;stroke-width:1.5;stroke-linecap:square;stroke-linejoin:round;stroke-miterlimit:10;stroke-dasharray:none;stroke-opacity:1"
         d="m 768.6375,631.06062 h 36" /><text
         id="text432"
         style="font-variant:normal;font-weight:normal;font-size:18px;font-family:'DejaVu Sans';-inkscape-font-specification:DejaVuSans;writing-mode:lr-tb;fill:#000000;fill-opacity:1;fill-rule:nonzero;stroke:none"
         transform="matrix(1,0,0,-1,819.0375,624.76062)"><tspan
           id="tspan430"
           y="0"
           x="0 13.86 24.93 35.585999 40.59 50.490002 61.560001 67.283997 82.367996 93.816002 99.540001 105.264 123.066 134.10001 141.498 159.03 164.754 177.92999">Device #3, Warm Up</tspan></text>
<path
         id="path434"
         style="fill:none;stroke:#8c564b;stroke-width:1.5;stroke-linecap:square;stroke-linejoin:round;stroke-miterlimit:10;stroke-dasharray:none;stroke-opacity:1"
         d="m 768.6375,604.63875 h 36" /><text
         id="text438"
         style="font-variant:normal;font-weight:normal;font-size:18px;font-family:'DejaVu Sans';-inkscape-font-specification:DejaVuSans;writing-mode:lr-tb;fill:#000000;fill-opacity:1;fill-rule:nonzero;stroke:none"
         transform="matrix(1,0,0,-1,819.0375,598.33875)"><tspan
           id="tspan436"
           y="0"
           x="0 13.86 24.93 35.585999 40.59 50.490002 61.560001 67.283997 82.367996 93.816002 99.540001 105.264 123.066 134.10001 141.498 159.03 164.754 177.92999">Device #4, Warm Up</tspan></text>
<path
         id="path440"
         style="fill:none;stroke:#e377c2;stroke-width:1.5;stroke-linecap:square;stroke-linejoin:round;stroke-miterlimit:10;stroke-dasharray:none;stroke-opacity:1"
         d="m 768.6375,578.21688 h 36" /><text
         id="text444"
         style="font-variant:normal;font-weight:normal;font-size:18px;font-family:'DejaVu Sans';-inkscape-font-specification:DejaVuSans;writing-mode:lr-tb;fill:#000000;fill-opacity:1;fill-rule:nonzero;stroke:none"
         transform="matrix(1,0,0,-1,819.0375,571.91687)"><tspan
           id="tspan442"
           y="0"
           x="0 13.86 24.93 35.585999 40.59 50.490002 61.560001 67.283997 82.367996 93.816002 99.540001 105.264 123.066 134.10001 141.498 159.03 164.754 177.92999">Device #5, Warm Up</tspan></text>
<path
         id="path446"
         style="fill:none;stroke:#7f7f7f;stroke-width:1.5;stroke-linecap:square;stroke-linejoin:round;stroke-miterlimit:10;stroke-dasharray:none;stroke-opacity:1"
         d="m 768.6375,551.795 h 36" /><text
         id="text450"
         style="font-variant:normal;font-weight:normal;font-size:18px;font-family:'DejaVu Sans';-inkscape-font-specification:DejaVuSans;writing-mode:lr-tb;fill:#000000;fill-opacity:1;fill-rule:nonzero;stroke:none"
         transform="matrix(1,0,0,-1,819.0375,545.495)"><tspan
           id="tspan448"
           y="0"
           x="0 13.86 24.93 35.585999 40.59 50.490002 61.560001 67.283997 82.367996 93.816002 99.540001 105.264 123.066 134.10001 141.498 159.03 164.754 177.92999">Device #6, Warm Up</tspan></text>
</g></g></svg>