<?xml version="1.0" encoding="UTF-8" standalone="no"?>
<svg
   xmlns:dc="http://purl.org/dc/elements/1.1/"
   xmlns:cc="http://creativecommons.org/ns#"
   xmlns:rdf="http://www.w3.org/1999/02/22-rdf-syntax-ns#"
   xmlns:svg="http://www.w3.org/2000/svg"
   xmlns="http://www.w3.org/2000/svg"
   viewBox="0 0 1536 1152"
   height="1152"
   width="1536"
   xml:space="preserve"
   id="svg2"
   version="1.1"><metadata
     id="metadata8"><rdf:RDF><cc:Work
         rdf:about=""><dc:format>image/svg+xml</dc:format><dc:type
           rdf:resource="http://purl.org/dc/dcmitype/StillImage" /></cc:Work></rdf:RDF></metadata><defs
     id="defs6"><clipPath
       id="clipPath22"
       clipPathUnits="userSpaceOnUse"><path
         id="path20"
         d="m 144,108 h 892.8 V 760.32 H 144 Z" /></clipPath><clipPath
       id="clipPath40"
       clipPathUnits="userSpaceOnUse"><path
         id="path38"
         d="m 144,108 h 892.8 V 760.32 H 144 Z" /></clipPath><clipPath
       id="clipPath58"
       clipPathUnits="userSpaceOnUse"><path
         id="path56"
         d="m 144,108 h 892.8 V 760.32 H 144 Z" /></clipPath><clipPath
       id="clipPath76"
       clipPathUnits="userSpaceOnUse"><path
         id="path74"
         d="m 144,108 h 892.8 V 760.32 H 144 Z" /></clipPath><clipPath
       id="clipPath94"
       clipPathUnits="userSpaceOnUse"><path
         id="path92"
         d="m 144,108 h 892.8 V 760.32 H 144 Z" /></clipPath><clipPath
       id="clipPath112"
       clipPathUnits="userSpaceOnUse"><path
         id="path110"
         d="m 144,108 h 892.8 V 760.32 H 144 Z" /></clipPath><clipPath
       id="clipPath130"
       clipPathUnits="userSpaceOnUse"><path
         id="path128"
         d="m 144,108 h 892.8 V 760.32 H 144 Z" /></clipPath><clipPath
       id="clipPath152"
       clipPathUnits="userSpaceOnUse"><path
         id="path150"
         d="m 144,108 h 892.8 V 760.32 H 144 Z" /></clipPath><clipPath
       id="clipPath170"
       clipPathUnits="userSpaceOnUse"><path
         id="path168"
         d="m 144,108 h 892.8 V 760.32 H 144 Z" /></clipPath><clipPath
       id="clipPath188"
       clipPathUnits="userSpaceOnUse"><path
         id="path186"
         d="m 144,108 h 892.8 V 760.32 H 144 Z" /></clipPath><clipPath
       id="clipPath206"
       clipPathUnits="userSpaceOnUse"><path
         id="path204"
         d="m 144,108 h 892.8 V 760.32 H 144 Z" /></clipPath><clipPath
       id="clipPath224"
       clipPathUnits="userSpaceOnUse"><path
         id="path222"
         d="m 144,108 h 892.8 V 760.32 H 144 Z" /></clipPath><clipPath
       id="clipPath242"
       clipPathUnits="userSpaceOnUse"><path
         id="path240"
         d="m 144,108 h 892.8 V 760.32 H 144 Z" /></clipPath><clipPath
       id="clipPath268"
       clipPathUnits="userSpaceOnUse"><path
         id="path266"
         d="M -1016,-351 H 1660 V 1068 H -1016 Z" /></clipPath><clipPath
       id="clipPath278"
       clipPathUnits="userSpaceOnUse"><path
         id="path276"
         d="m 144,108 h 892.8 V 760.32 H 144 Z" /></clipPath><clipPath
       id="clipPath288"
       clipPathUnits="userSpaceOnUse"><path
         id="path286"
         d="m 144,108 h 892.8 V 760.32 H 144 Z" /></clipPath><clipPath
       id="clipPath298"
       clipPathUnits="userSpaceOnUse"><path
         id="path296"
         d="m 144,108 h 892.8 V 760.32 H 144 Z" /></clipPath><clipPath
       id="clipPath308"
       clipPathUnits="userSpaceOnUse"><path
         id="path306"
         d="m 144,108 h 892.8 V 760.32 H 144 Z" /></clipPath><clipPath
       id="clipPath318"
       clipPathUnits="userSpaceOnUse"><path
         id="path316"
         d="m 144,108 h 892.8 V 760.32 H 144 Z" /></clipPath><clipPath
       id="clipPath328"
       clipPathUnits="userSpaceOnUse"><path
         id="path326"
         d="m 144,108 h 892.8 V 760.32 H 144 Z" /></clipPath><clipPath
       id="clipPath338"
       clipPathUnits="userSpaceOnUse"><path
         id="path336"
         d="m 144,108 h 892.8 V 760.32 H 144 Z" /></clipPath><clipPath
       id="clipPath348"
       clipPathUnits="userSpaceOnUse"><path
         id="path346"
         d="m 144,108 h 892.8 V 760.32 H 144 Z" /></clipPath></defs><g
     transform="matrix(1.3333333,0,0,-1.3333333,0,1152)"
     id="g10"><path
       id="path12"
       style="fill:#ffffff;fill-opacity:1;fill-rule:nonzero;stroke:none"
       d="M 0,0 H 1152 V 864 H 0 Z" /><path
       id="path14"
       style="fill:#ffffff;fill-opacity:1;fill-rule:nonzero;stroke:none"
       d="m 144,108 h 892.8 V 760.32 H 144 Z" /><g
       id="g16"><g
         clip-path="url(#clipPath22)"
         id="g18"><path
           id="path24"
           style="fill:none;stroke:#b0b0b0;stroke-width:0.80000001;stroke-linecap:square;stroke-linejoin:round;stroke-miterlimit:10;stroke-dasharray:none;stroke-opacity:1"
           d="M 170.34258,108 V 760.32" /></g></g><g
       id="g26"><path
         id="path28"
         style="fill:#000000;fill-opacity:1;fill-rule:nonzero;stroke:#000000;stroke-width:0.80000001;stroke-linecap:butt;stroke-linejoin:round;stroke-miterlimit:10;stroke-dasharray:none;stroke-opacity:1"
         d="m 170.34258,108 v -3.5" /><text
         id="text32"
         style="font-variant:normal;font-weight:normal;font-size:18px;font-family:'DejaVu Sans';-inkscape-font-specification:DejaVuSans;writing-mode:lr-tb;fill:#000000;fill-opacity:1;fill-rule:nonzero;stroke:none"
         transform="matrix(1,0,0,-1,164.61602,87.328125)"><tspan
           id="tspan30"
           y="0"
           x="0">0</tspan></text>
</g><g
       id="g34"><g
         clip-path="url(#clipPath40)"
         id="g36"><path
           id="path42"
           style="fill:none;stroke:#b0b0b0;stroke-width:0.80000001;stroke-linecap:square;stroke-linejoin:round;stroke-miterlimit:10;stroke-dasharray:none;stroke-opacity:1"
           d="M 312.73493,108 V 760.32" /></g></g><g
       id="g44"><path
         id="path46"
         style="fill:#000000;fill-opacity:1;fill-rule:nonzero;stroke:#000000;stroke-width:0.80000001;stroke-linecap:butt;stroke-linejoin:round;stroke-miterlimit:10;stroke-dasharray:none;stroke-opacity:1"
         d="m 312.73493,108 v -3.5" /><text
         id="text50"
         style="font-variant:normal;font-weight:normal;font-size:18px;font-family:'DejaVu Sans';-inkscape-font-specification:DejaVuSans;writing-mode:lr-tb;fill:#000000;fill-opacity:1;fill-rule:nonzero;stroke:none"
         transform="matrix(1,0,0,-1,301.2818,87.328125)"><tspan
           id="tspan48"
           y="0"
           x="0 11.448">50</tspan></text>
</g><g
       id="g52"><g
         clip-path="url(#clipPath58)"
         id="g54"><path
           id="path60"
           style="fill:none;stroke:#b0b0b0;stroke-width:0.80000001;stroke-linecap:square;stroke-linejoin:round;stroke-miterlimit:10;stroke-dasharray:none;stroke-opacity:1"
           d="M 455.12727,108 V 760.32" /></g></g><g
       id="g62"><path
         id="path64"
         style="fill:#000000;fill-opacity:1;fill-rule:nonzero;stroke:#000000;stroke-width:0.80000001;stroke-linecap:butt;stroke-linejoin:round;stroke-miterlimit:10;stroke-dasharray:none;stroke-opacity:1"
         d="m 455.12727,108 v -3.5" /><text
         id="text68"
         style="font-variant:normal;font-weight:normal;font-size:18px;font-family:'DejaVu Sans';-inkscape-font-specification:DejaVuSans;writing-mode:lr-tb;fill:#000000;fill-opacity:1;fill-rule:nonzero;stroke:none"
         transform="matrix(1,0,0,-1,437.94759,87.328125)"><tspan
           id="tspan66"
           y="0"
           x="0 11.448 22.896">100</tspan></text>
</g><g
       id="g70"><g
         clip-path="url(#clipPath76)"
         id="g72"><path
           id="path78"
           style="fill:none;stroke:#b0b0b0;stroke-width:0.80000001;stroke-linecap:square;stroke-linejoin:round;stroke-miterlimit:10;stroke-dasharray:none;stroke-opacity:1"
           d="M 597.51962,108 V 760.32" /></g></g><g
       id="g80"><path
         id="path82"
         style="fill:#000000;fill-opacity:1;fill-rule:nonzero;stroke:#000000;stroke-width:0.80000001;stroke-linecap:butt;stroke-linejoin:round;stroke-miterlimit:10;stroke-dasharray:none;stroke-opacity:1"
         d="m 597.51962,108 v -3.5" /><text
         id="text86"
         style="font-variant:normal;font-weight:normal;font-size:18px;font-family:'DejaVu Sans';-inkscape-font-specification:DejaVuSans;writing-mode:lr-tb;fill:#000000;fill-opacity:1;fill-rule:nonzero;stroke:none"
         transform="matrix(1,0,0,-1,580.33993,87.328125)"><tspan
           id="tspan84"
           y="0"
           x="0 11.448 22.896">150</tspan></text>
</g><g
       id="g88"><g
         clip-path="url(#clipPath94)"
         id="g90"><path
           id="path96"
           style="fill:none;stroke:#b0b0b0;stroke-width:0.80000001;stroke-linecap:square;stroke-linejoin:round;stroke-miterlimit:10;stroke-dasharray:none;stroke-opacity:1"
           d="M 739.91196,108 V 760.32" /></g></g><g
       id="g98"><path
         id="path100"
         style="fill:#000000;fill-opacity:1;fill-rule:nonzero;stroke:#000000;stroke-width:0.80000001;stroke-linecap:butt;stroke-linejoin:round;stroke-miterlimit:10;stroke-dasharray:none;stroke-opacity:1"
         d="m 739.91196,108 v -3.5" /><text
         id="text104"
         style="font-variant:normal;font-weight:normal;font-size:18px;font-family:'DejaVu Sans';-inkscape-font-specification:DejaVuSans;writing-mode:lr-tb;fill:#000000;fill-opacity:1;fill-rule:nonzero;stroke:none"
         transform="matrix(1,0,0,-1,722.73227,87.328125)"><tspan
           id="tspan102"
           y="0"
           x="0 11.448 22.896">200</tspan></text>
</g><g
       id="g106"><g
         clip-path="url(#clipPath112)"
         id="g108"><path
           id="path114"
           style="fill:none;stroke:#b0b0b0;stroke-width:0.80000001;stroke-linecap:square;stroke-linejoin:round;stroke-miterlimit:10;stroke-dasharray:none;stroke-opacity:1"
           d="M 882.30431,108 V 760.32" /></g></g><g
       id="g116"><path
         id="path118"
         style="fill:#000000;fill-opacity:1;fill-rule:nonzero;stroke:#000000;stroke-width:0.80000001;stroke-linecap:butt;stroke-linejoin:round;stroke-miterlimit:10;stroke-dasharray:none;stroke-opacity:1"
         d="m 882.30431,108 v -3.5" /><text
         id="text122"
         style="font-variant:normal;font-weight:normal;font-size:18px;font-family:'DejaVu Sans';-inkscape-font-specification:DejaVuSans;writing-mode:lr-tb;fill:#000000;fill-opacity:1;fill-rule:nonzero;stroke:none"
         transform="matrix(1,0,0,-1,865.12462,87.328125)"><tspan
           id="tspan120"
           y="0"
           x="0 11.448 22.896">250</tspan></text>
</g><g
       id="g124"><g
         clip-path="url(#clipPath130)"
         id="g126"><path
           id="path132"
           style="fill:none;stroke:#b0b0b0;stroke-width:0.80000001;stroke-linecap:square;stroke-linejoin:round;stroke-miterlimit:10;stroke-dasharray:none;stroke-opacity:1"
           d="M 1024.6967,108 V 760.32" /></g></g><g
       id="g134"><path
         id="path136"
         style="fill:#000000;fill-opacity:1;fill-rule:nonzero;stroke:#000000;stroke-width:0.80000001;stroke-linecap:butt;stroke-linejoin:round;stroke-miterlimit:10;stroke-dasharray:none;stroke-opacity:1"
         d="m 1024.6967,108 v -3.5" /><text
         id="text140"
         style="font-variant:normal;font-weight:normal;font-size:18px;font-family:'DejaVu Sans';-inkscape-font-specification:DejaVuSans;writing-mode:lr-tb;fill:#000000;fill-opacity:1;fill-rule:nonzero;stroke:none"
         transform="matrix(1,0,0,-1,1007.517,87.328125)"><tspan
           id="tspan138"
           y="0"
           x="0 11.448 22.896">300</tspan></text>
<text
         id="text144"
         style="font-variant:normal;font-weight:normal;font-size:18px;font-family:'DejaVu Sans';-inkscape-font-specification:DejaVuSans;writing-mode:lr-tb;fill:#000000;fill-opacity:1;fill-rule:nonzero;stroke:none"
         transform="matrix(1,0,0,-1,520.04844,65.90625)"><tspan
           id="tspan142"
           y="0"
           x="0 10.998 22.068001 39.599998 51.029999 62.099998 69.498001 80.531998 87.587997 99 106.398 117.468 123.192 128.916">Temperature, K</tspan></text>
</g><g
       id="g146"><g
         clip-path="url(#clipPath152)"
         id="g148"><path
           id="path154"
           style="fill:none;stroke:#b0b0b0;stroke-width:0.80000001;stroke-linecap:square;stroke-linejoin:round;stroke-miterlimit:10;stroke-dasharray:none;stroke-opacity:1"
           d="m 144,175.2797 h 892.8" /></g></g><g
       id="g156"><path
         id="path158"
         style="fill:#000000;fill-opacity:1;fill-rule:nonzero;stroke:#000000;stroke-width:0.80000001;stroke-linecap:butt;stroke-linejoin:round;stroke-miterlimit:10;stroke-dasharray:none;stroke-opacity:1"
         d="m 144,175.2797 h -3.5" /><text
         id="text162"
         style="font-variant:normal;font-weight:normal;font-size:18px;font-family:'DejaVu Sans';-inkscape-font-specification:DejaVuSans;writing-mode:lr-tb;fill:#000000;fill-opacity:1;fill-rule:nonzero;stroke:none"
         transform="matrix(1,0,0,-1,85.46875,168.44377)"><tspan
           id="tspan160"
           y="0"
           x="0 11.448 17.172001 28.620001 40.068001">0.006</tspan></text>
</g><g
       id="g164"><g
         clip-path="url(#clipPath170)"
         id="g166"><path
           id="path172"
           style="fill:none;stroke:#b0b0b0;stroke-width:0.80000001;stroke-linecap:square;stroke-linejoin:round;stroke-miterlimit:10;stroke-dasharray:none;stroke-opacity:1"
           d="m 144,286.62173 h 892.8" /></g></g><g
       id="g174"><path
         id="path176"
         style="fill:#000000;fill-opacity:1;fill-rule:nonzero;stroke:#000000;stroke-width:0.80000001;stroke-linecap:butt;stroke-linejoin:round;stroke-miterlimit:10;stroke-dasharray:none;stroke-opacity:1"
         d="m 144,286.62173 h -3.5" /><text
         id="text180"
         style="font-variant:normal;font-weight:normal;font-size:18px;font-family:'DejaVu Sans';-inkscape-font-specification:DejaVuSans;writing-mode:lr-tb;fill:#000000;fill-opacity:1;fill-rule:nonzero;stroke:none"
         transform="matrix(1,0,0,-1,85.46875,279.78579)"><tspan
           id="tspan178"
           y="0"
           x="0 11.448 17.172001 28.620001 40.068001">0.008</tspan></text>
</g><g
       id="g182"><g
         clip-path="url(#clipPath188)"
         id="g184"><path
           id="path190"
           style="fill:none;stroke:#b0b0b0;stroke-width:0.80000001;stroke-linecap:square;stroke-linejoin:round;stroke-miterlimit:10;stroke-dasharray:none;stroke-opacity:1"
           d="m 144,397.96376 h 892.8" /></g></g><g
       id="g192"><path
         id="path194"
         style="fill:#000000;fill-opacity:1;fill-rule:nonzero;stroke:#000000;stroke-width:0.80000001;stroke-linecap:butt;stroke-linejoin:round;stroke-miterlimit:10;stroke-dasharray:none;stroke-opacity:1"
         d="m 144,397.96376 h -3.5" /><text
         id="text198"
         style="font-variant:normal;font-weight:normal;font-size:18px;font-family:'DejaVu Sans';-inkscape-font-specification:DejaVuSans;writing-mode:lr-tb;fill:#000000;fill-opacity:1;fill-rule:nonzero;stroke:none"
         transform="matrix(1,0,0,-1,85.46875,391.12782)"><tspan
           id="tspan196"
           y="0"
           x="0 11.448 17.172001 28.620001 40.068001">0.010</tspan></text>
</g><g
       id="g200"><g
         clip-path="url(#clipPath206)"
         id="g202"><path
           id="path208"
           style="fill:none;stroke:#b0b0b0;stroke-width:0.80000001;stroke-linecap:square;stroke-linejoin:round;stroke-miterlimit:10;stroke-dasharray:none;stroke-opacity:1"
           d="m 144,509.30578 h 892.8" /></g></g><g
       id="g210"><path
         id="path212"
         style="fill:#000000;fill-opacity:1;fill-rule:nonzero;stroke:#000000;stroke-width:0.80000001;stroke-linecap:butt;stroke-linejoin:round;stroke-miterlimit:10;stroke-dasharray:none;stroke-opacity:1"
         d="m 144,509.30578 h -3.5" /><text
         id="text216"
         style="font-variant:normal;font-weight:normal;font-size:18px;font-family:'DejaVu Sans';-inkscape-font-specification:DejaVuSans;writing-mode:lr-tb;fill:#000000;fill-opacity:1;fill-rule:nonzero;stroke:none"
         transform="matrix(1,0,0,-1,85.46875,502.46984)"><tspan
           id="tspan214"
           y="0"
           x="0 11.448 17.172001 28.620001 40.068001">0.012</tspan></text>
</g><g
       id="g218"><g
         clip-path="url(#clipPath224)"
         id="g220"><path
           id="path226"
           style="fill:none;stroke:#b0b0b0;stroke-width:0.80000001;stroke-linecap:square;stroke-linejoin:round;stroke-miterlimit:10;stroke-dasharray:none;stroke-opacity:1"
           d="m 144,620.64781 h 892.8" /></g></g><g
       id="g228"><path
         id="path230"
         style="fill:#000000;fill-opacity:1;fill-rule:nonzero;stroke:#000000;stroke-width:0.80000001;stroke-linecap:butt;stroke-linejoin:round;stroke-miterlimit:10;stroke-dasharray:none;stroke-opacity:1"
         d="m 144,620.64781 h -3.5" /><text
         id="text234"
         style="font-variant:normal;font-weight:normal;font-size:18px;font-family:'DejaVu Sans';-inkscape-font-specification:DejaVuSans;writing-mode:lr-tb;fill:#000000;fill-opacity:1;fill-rule:nonzero;stroke:none"
         transform="matrix(1,0,0,-1,85.46875,613.81187)"><tspan
           id="tspan232"
           y="0"
           x="0 11.448 17.172001 28.620001 40.068001">0.014</tspan></text>
</g><g
       id="g236"><g
         clip-path="url(#clipPath242)"
         id="g238"><path
           id="path244"
           style="fill:none;stroke:#b0b0b0;stroke-width:0.80000001;stroke-linecap:square;stroke-linejoin:round;stroke-miterlimit:10;stroke-dasharray:none;stroke-opacity:1"
           d="m 144,731.98983 h 892.8" /></g></g><g
       id="g246"><path
         id="path248"
         style="fill:#000000;fill-opacity:1;fill-rule:nonzero;stroke:#000000;stroke-width:0.80000001;stroke-linecap:butt;stroke-linejoin:round;stroke-miterlimit:10;stroke-dasharray:none;stroke-opacity:1"
         d="m 144,731.98983 h -3.5" /><text
         id="text252"
         style="font-variant:normal;font-weight:normal;font-size:18px;font-family:'DejaVu Sans';-inkscape-font-specification:DejaVuSans;writing-mode:lr-tb;fill:#000000;fill-opacity:1;fill-rule:nonzero;stroke:none"
         transform="matrix(1,0,0,-1,85.46875,725.1539)"><tspan
           id="tspan250"
           y="0"
           x="0 11.448 17.172001 28.620001 40.068001">0.016</tspan></text>
<g
         transform="rotate(90,-140.34562,217.81437)"
         id="g254"><text
           id="text258"
           style="font-variant:normal;font-weight:normal;font-size:18px;font-family:'DejaVu Sans';-inkscape-font-specification:DejaVuSans;writing-mode:lr-tb;fill:#000000;fill-opacity:1;fill-rule:nonzero;stroke:none"
           transform="matrix(1,0,0,-1,0,0.328125)"><tspan
             id="tspan256"
             y="0"
             x="0 13.860352 18.861328 28.239258 37.617188 42.618164 54.043945 65.074219 72.131836 77.132812 88.145508 99.553711 105.27539 110.99707 118.05469 129.08496">Dissipation, tan</tspan></text>
<g
           transform="matrix(0.018,0,0,0.018,140.49316,0.328125)"
           id="g260"><g
             id="g262"><g
               clip-path="url(#clipPath268)"
               id="g264"><path
                 id="path270"
                 style="fill:#000000;fill-opacity:1;fill-rule:nonzero;stroke:none"
                 d="m 542,633 c -28,22 -81,34 -159,34 -83,0 -128,-19 -135,-57 -6,-30 32,-53 116,-68 64,-12 112,-37 144,-73 38,-44 48,-111 31,-201 C 521,182 486,113 432,63 377,12 310,-13 232,-13 154,-13 98,12 63,63 28,113 20,183 38,273 c 12,66 46,126 101,180 21,20 45,37 72,49 -46,26 -64,61 -55,107 17,88 97,133 241,133 72,0 125,-12 160,-34 L 542,633 M 274,478 c -24,-10 -48,-27 -70,-50 -36,-37 -60,-89 -72,-155 -13,-66 -9,-118 12,-155 20,-38 55,-56 104,-56 47,0 88,19 124,57 35,37 59,87 71,149 12,64 7,112 -16,144 -26,33 -58,52 -98,56 -21,2 -39,5 -55,10" /></g></g></g></g></g><g
       id="g272"><g
         clip-path="url(#clipPath278)"
         id="g274"><path
           id="path280"
           style="fill:none;stroke:#1f77b4;stroke-width:1.5;stroke-linecap:square;stroke-linejoin:round;stroke-miterlimit:10;stroke-dasharray:none;stroke-opacity:1"
           d="m 184.58182,308.29533 1.21806,0.77705 0.40602,3.61257 0.40602,0.31698 1.62409,0.28382 0.40602,0.30866 0.40602,4.13225 0.40602,0.83507 0.40602,0.46119 1.21807,0.84327 0.81204,1.44672 0.40602,0.50547 1.21806,0.75099 1.21807,0.639 0.40602,0.0338 1.21806,1.74107 2.43613,0.65257 0.40602,0.24003 0.81204,0.0344 3.65419,1.83501 0.40602,0.0187 0.40603,1.82089 0.40602,0.20144 0.40602,0.43118 1.21806,1.98738 1.21807,1.44443 1.21806,0.98891 2.03011,1.17493 5.27827,1.46624 16.24085,5.24363 2.03011,0.81351 1.21806,0.79748 0.40602,0.88466 0.40602,0.49963 1.21806,0.21592 0.40603,0.66612 0.40602,0.14773 0.40602,0.0266 0.40602,0.62281 0.81204,0.17486 0.40602,0.37771 0.40602,3.28273 0.81205,8.42288 0.40602,2.26133 0.40602,0.10511 0.40602,0.42039 0.40602,1.40249 1.21806,7.83843 0.40603,1.92946 0.40602,0.31797 0.40602,0.70819 0.81204,0.11457 0.81204,0.65739 1.62409,0.18682 1.21806,0.24604 1.21806,0.62942 4.46624,0.27612 4.87225,0.14668 4.87226,0.245 10.15053,-0.024 0.81204,-0.22928 2.0301,-0.13458 0.40603,-0.23298 1.62408,-1.335 1.62409,-1.10845 1.21806,-0.57963 1.21806,-0.22122 1.21807,-0.49093 0.81204,-0.28737 0.81204,-0.45433 1.21806,-1.04632 2.03011,-1.09556 0.81204,-0.0902 32.07568,-0.0444 0.81204,-0.50451 5.6843,-2.38312 1.62408,-0.95808 1.21806,-0.94295 6.90236,-6.89484 2.84215,-2.96567 1.62409,-1.64305 1.21806,-1.11991 2.84215,-2.3663 1.62408,-1.30943 4.46624,-4.01956 2.0301,-1.87018 1.62409,-1.53462 1.21806,-1.53991 1.62409,-1.98111 4.06021,-3.9817 1.62408,-1.05435 1.21807,-1.02195 0.81204,-1.38059 1.21806,-2.05669 0.81205,-0.77796 1.21806,-0.60484 1.21806,-1.01953 1.21807,-1.41234 2.0301,-2.63895 0.81205,-0.62076 2.0301,-0.42446 1.21806,-1.22023 0.81205,-0.73473 1.21806,-0.60661 1.21806,-0.4748 1.21807,-1.29015 0.81204,-0.95219 1.21806,-1.23592 1.21807,-0.67306 0.40602,-0.0206 0.40602,-0.21964 1.21806,-1.082 2.03011,-1.48318 1.62408,-0.57455 0.81205,-0.42075 2.0301,-1.32685 2.03011,-1.78239 2.84215,-3.03425 0.81204,-0.53511 0.81204,-0.42652 0.81204,-0.34262 2.43613,-0.50204 0.81204,-0.20152 1.21807,-0.67278 1.21806,-1.02588 2.03011,-1.85769 0.81204,-0.55947 1.62408,-0.53606 2.03011,-0.66827 2.0301,-0.38899 2.43613,-0.7754 2.84215,-1.94345 2.03011,-1.27442 2.0301,-1.61912 3.24817,-3.13001 3.65419,-3.83792 2.43613,-2.46944 3.65419,-4.46935 4.46623,-5.80105 1.21807,-1.17559 1.21806,-1.22708 2.84215,-2.19132 2.03011,-2.37441 3.65419,-4.2827 1.62408,-1.21255 0.81204,-0.47043 3.24817,-1.47489 3.24817,-1.52693 0.81204,-0.19971 1.62409,-0.34609 1.21806,-0.35394 6.49634,-0.33643 4.87226,-0.0927 1.21806,-0.40781 0.81204,-0.0307 0.40602,-0.11829 0.81205,-0.0774 1.21806,-0.48598 2.84215,-0.11902 1.62408,-0.15393 6.49634,-0.28704 0.81204,-0.27144 3.6542,-0.15275 13.80471,0.11011 3.6542,0.18637 0.81204,0.33548 1.62408,0.41136 0.81205,0.32423 1.62408,0.51263 2.43613,0.28313 0.81204,0.256 0.40602,0.26208 0.81204,0.32496 0.81205,0.33166 1.21806,0.33736 0.40602,0.0535 1.62408,0.9511 2.03011,1.46101 0.81204,0.99685 0.81205,0.68084 0.40602,0.19147 1.21806,0.0963 0.40602,0.14761 0.81204,0.12257 1.62409,1.29314 0.81204,0.44055 1.62409,0.11315 1.21806,0.6411 2.43613,1.28832 0.81204,0.21821 0.81204,0.61766 2.84215,3.44428 0.81204,0.52196 0.81205,0.15845 1.62408,0.24537 2.03011,1.11522 4.06021,1.20342 1.62408,1.07969 3.65419,2.21092 1.62409,0.52664 3.65419,0.28185 0.81204,0.46135 0.81204,0.62772 0.81205,0.88752 2.84214,3.70456 0.81205,0.57763 2.84214,0.75176 0.81205,0.58773 0.81204,1.05236 1.21806,2.07584 2.43613,4.25752 1.21806,1.25325 1.21807,1.12847 0.81204,0.68053 0.81204,1.12043 1.21807,2.08266 3.24816,6.31309 0.81205,1.17928 0.81204,0.75405 4.46623,3.74944 1.62409,0.70901 0.81204,0.51345 2.43613,0.71674 1.62408,0.29159 0.81205,0.39555 5.27827,4.60062 1.62408,2.03326 1.21807,1.44855 0.81204,0.94567 3.24817,4.22631 0.81204,1.08045 1.21807,1.4665 2.0301,2.4598 1.62409,1.56189 1.62408,2.65846 0.40602,0.70181 0.40602,0.18321 0.40603,0.46268 0.81204,0.29178 1.21806,2.11868 0.40602,0.80728 0.40602,0.43188 0.40603,0.0129 0.40602,0.14562 0.81204,0.88453 1.21806,0.36822 0.40602,0.41559 0.81205,0.58374 2.43612,2.57726 0.40602,0.69 1.62409,1.45785 0.81204,0.68754 0.40602,1.00769 1.21807,4.10268 1.62408,1.84368 0.81204,1.49756 0.40602,0.43378 1.62409,0.59212 2.03011,2.44622 0.40602,0.22422 0.40602,0.0764 0.40602,0.45169 0.81204,1.1755 0.40602,0.47342 1.21807,0.73558 0.40602,0.23591 0.81204,0.16601 0.81204,0.19394 0.40602,0.28736 0.81204,0.82142 0.81205,0.48962 0.81204,0.745 1.62409,1.93091 3.65419,1.92715 1.21806,1.16917 1.21806,0.79554 1.62409,0.39452 4.46623,2.65774 0.81204,0.50703 0.81205,0.91536 0.40602,0.49761 0.81204,0.55963 2.0301,0.90483 0.81205,0.6655 0.40602,0.20442 2.43613,0.36979 0.40602,0.11594 0.81204,0.63555 1.21806,0.43789 1.21807,0.59348 0.40602,0.10245 1.21806,0.61163 0.40602,0.18883 0.81204,0.13385 1.21807,0.6761 2.43613,0.98724 2.43612,1.35912 1.62409,0.26385 2.0301,0.0975 2.03011,0.28792 0.81204,0.5544 1.21806,0.73336 0.81205,0.20878 2.84215,0.0915 2.43612,0.85242 2.03011,1.25903 2.84215,0.1578 3.65419,0.24597 1.62408,0.14935 2.43613,0.0555 1.62408,0.35067 2.43613,0.20247 1.62409,0.20325 0.40602,0.12949 2.43612,0.1574 8.12043,0.45564 2.0301,0.96793 2.43613,0.15714 2.03011,0.38405 14.21074,0.10427 3.65419,0.0127 2.03011,0.0507 0.81204,0.0719 3.65419,0.12561 2.84215,0.0174 h 0.40602 l 2.03011,1.9017 0.81204,0.50299 1.21806,0.40345 2.03011,0.43613 0.81204,0.2942 2.43613,1.42885 1.62408,1.06036 1.62409,0.89606 1.62408,0.62617 1.21806,0.79744 0.81205,0.47468 4.46623,4.26925 0.81204,1.00171 0.81205,0.84359 1.21806,1.98324 0.40602,0.92913 1.21806,3.55111 0.40602,0.0644 0.40603,0.50807 0.40602,0.0598 0.40602,0.35416 0.40602,0.0865 0.40602,0.84187 1.62408,0.47105 0.40603,0.23562 0.40602,0.006 0.40602,1.15863 0.40602,1.83598 0.40602,1.01516 0.40602,0.37898 0.40602,0.58571 0.40603,0.29802 0.40602,0.6011 0.81204,1.90165 0.40602,0.28266 0.40602,0.83168 0.40602,0.38586 0.40602,0.005 0.40602,0.88422 0.40602,0.0996 0.81205,0.75739 0.81204,2.33915 0.81204,0.44143 0.40602,0.78087 1.21807,1.78176 0.81204,2.9713 0.81204,2.00762 0.40602,0.61656 0.40602,0.22375 0.81205,0.10339 0.40602,0.45681 2.0301,6.53644 0.81205,1.43809 0.40602,0.50609 0.40602,0.85215 0.81204,2.10922 0.81204,0.75782 0.40602,0.35828 0.40603,0.74548 1.62408,4.34642 1.62409,2.48422 1.62408,3.54093 1.21806,1.39479 0.40602,0.79757 0.81205,2.27364 0.40602,1.22124 1.21806,2.46949 1.62409,5.19649 1.21806,4.86985 2.84215,8.75726 2.43613,8.82845 2.0301,6.44681 1.62409,6.2325 2.0301,7.5805 0.81204,2.83872 2.03011,8.13879 1.21806,4.78937 2.03011,7.27798 4.06021,18.09204 1.62409,7.13326 3.24817,14.97332 2.0301,9.73172 7.7144,34.83569 3.6542,19.10818 3.24817,16.686 1.21806,5.30864 2.0301,8.55977 1.21807,5.64886 2.84215,15.05574 2.0301,8.62141 0.81205,4.42035 0.40602,0.9819 0.40602,2.67051 0.81204,1.73624 0.40602,0.61086 0.81204,1.91968 0.40603,0.11318 0.40602,0.35435 1.21806,3.04222 0.81204,1.20218 0.40602,1.23499 0.40602,0.36354 0.40603,0.82182 0.81204,2.53321 1.21806,1.27568 0.81204,2.43198 h 15.02279 l 0.40602,-0.143 1.62408,-1.66105 0.40602,-0.20918 0.40603,-0.58717 1.62408,-4.25903 0.81204,-1.68402 0.81205,-1.83082 0.81204,-0.73739 0.40602,-0.0669 0.40602,-0.30199 0.40602,-0.58071 0.40602,-0.84483 0.40602,-0.55302 0.81205,-2.02718 1.21806,-2.20397 0.81204,-2.65634 0.81205,-2.31085 0.81204,-1.93676 0.81204,-2.65529 0.81204,-2.63748 0.40602,-1.16577 1.21807,-4.30369 0.40602,-1.1525 1.62408,-2.86963 1.21807,-4.02071 1.62408,-6.06383 0.81204,-2.52058 0.81205,-2.5129 0.81204,-2.90214 0.81204,-3.32419 1.21806,-4.27497 0.81205,-2.74641 1.21806,-3.54279 1.21806,-4.03729 0.81205,-3.92178 1.21806,-7.1083 0.81204,-4.11391 5.27828,-21.02127 2.84215,-11.25611 2.0301,-8.75303 3.24817,-11.74471 5.27828,-21.30972 1.62408,-7.01899 1.62409,-6.94287 2.43612,-9.37142 2.84215,-11.82888 2.43613,-8.83274 1.62408,-6.04335 2.43613,-9.60661 1.62409,-5.41535 0.81204,-2.3432 0.40602,-1.75384 v 0" /></g></g><g
       id="g282"><g
         clip-path="url(#clipPath288)"
         id="g284"><path
           id="path290"
           style="fill:none;stroke:#ff7f0e;stroke-width:1.5;stroke-linecap:square;stroke-linejoin:round;stroke-miterlimit:10;stroke-dasharray:none;stroke-opacity:1"
           d="m 184.58182,245.01557 0.81204,0.44789 0.81204,0.0656 0.40602,0.2071 1.21807,0.12686 0.81204,0.0331 0.81204,0.26772 1.62409,0.12583 2.0301,0.4603 2.03011,0.6328 1.21806,1.04916 1.62409,0.91703 0.40602,0.0493 1.62408,0.72244 2.43613,0.068 0.81204,0.15731 8.52645,0.0496 1.21806,0.13652 1.62409,0.13651 3.65419,0.10842 5.27827,0.25773 4.46624,-0.0654 1.21806,-0.22333 1.62408,-0.20032 h 10.96258 l 2.43612,-1.28211 8.52645,-5.22454 2.84215,-1.5072 4.06021,-1.76339 3.24817,-1.20451 6.90236,-2.39385 5.27827,-1.42583 6.09032,-1.19429 0.40602,-0.3305 0.40602,-1.15832 1.21807,-0.45528 1.21806,-0.28451 1.21806,-0.68003 0.81205,-0.12692 1.62408,-0.73253 1.21807,-0.32568 2.43612,-0.80049 0.40602,-0.23697 0.81205,-0.11105 0.81204,-0.11694 1.21806,-0.44164 0.81204,-0.20472 2.43613,-0.7984 2.43613,-1.16641 0.81204,-0.08 1.62409,-0.58321 1.62408,-0.31818 0.81204,-0.14355 0.81205,-0.25884 1.21806,-0.16562 1.62408,-0.30091 2.84215,-0.78736 1.21807,-0.27448 2.43612,-0.77654 1.62409,-0.49663 1.21806,-0.41942 1.62409,-0.48035 0.81204,-0.26919 1.21806,-0.21676 2.03011,-0.58826 1.21806,-0.24583 5.27828,-1.37417 1.62408,-0.34348 2.43613,-0.65516 0.81204,-0.32939 1.62409,-0.56821 2.0301,-0.47076 4.06021,-0.95012 0.81205,-0.32858 3.24817,-0.92264 1.62408,-0.26684 2.43613,-0.42534 2.0301,-0.55687 4.06022,-1.15939 5.68429,-0.817 3.65419,-0.92248 1.62409,-0.31519 2.0301,-0.2702 2.43613,-0.52452 4.06021,-0.13336 12.58666,0.0119 0.81204,0.1304 1.21807,0.24729 0.81204,0.26727 2.0301,0.3539 3.6542,1.36769 2.43612,1.2704 0.81204,0.45118 2.84215,0.67404 0.40602,0.25419 1.21807,0.40809 0.81204,0.19241 0.81204,0.20483 0.40602,0.26725 4.06022,0.0116 h 11.36859 l 0.81204,-0.43565 0.40602,-0.0231 0.40602,-0.25948 1.21807,-1.13867 0.40602,-0.11427 0.81204,-0.51266 0.40602,-0.18697 1.62409,-0.0887 3.24817,-2.11527 0.81204,-0.48707 0.81204,-0.0561 0.40602,-0.19122 1.21807,-1.09059 0.40602,-0.35264 1.62408,-0.50789 0.81204,-0.30725 0.40603,-0.0944 1.21806,-0.58498 2.0301,-0.54315 0.40603,-0.21563 0.81204,-0.026 2.03011,-0.41603 1.62408,-0.3422 0.81204,-0.46636 1.62409,-0.59861 2.0301,-0.13186 1.62409,-0.4303 1.62408,-0.0913 0.81204,-0.16795 1.21807,-0.19883 1.62408,-0.0289 1.62409,-0.3881 2.0301,-0.0269 17.05289,0.1035 1.62409,0.1404 2.0301,0.39144 2.03011,0.38171 3.24817,0.20818 3.24817,0.74972 5.27827,0.23978 1.21807,0.13445 3.24817,0.17057 2.43612,0.13166 4.06022,0.14383 1.62408,0.52426 2.43613,0.71709 1.21806,0.0626 4.87226,0.20225 1.62408,0.33068 1.21807,0.34028 1.21806,0.24368 1.21806,0.23283 2.84215,0.29784 2.43613,0.75532 2.43612,1.05164 1.62409,0.83751 1.62408,0.6689 1.62409,0.81242 1.62408,0.41187 1.21807,0.36034 1.62408,0.67245 1.21807,0.6487 4.46623,2.03277 1.62408,0.85007 0.81205,0.31151 1.62408,0.71293 1.62409,0.74635 3.24817,1.63936 2.0301,1.28739 2.03011,1.03338 1.62408,0.81298 1.21807,0.63055 0.81204,0.37475 1.21806,0.88748 2.03011,1.54102 2.0301,0.98188 1.62409,1.11177 2.0301,0.72918 0.40603,0.0504 0.81204,0.48716 0.40602,0.2426 0.81204,0.71416 0.40602,0.19784 0.81205,0.67563 0.40602,0.042 1.21806,0.7229 0.81204,0.64351 0.40602,0.009 0.40602,0.19586 0.81205,0.13457 1.21806,1.36903 1.21806,0.12746 0.81205,0.69769 0.40602,0.44493 0.40602,0.18918 2.84215,2.18653 0.81204,0.96838 0.81204,0.52292 1.62409,1.12126 0.81204,0.84565 0.81204,0.0361 0.81204,0.69903 2.43613,1.24178 1.62409,1.22149 1.21806,0.75656 0.81204,0.73843 0.40602,0.21264 1.21807,0.13704 0.81204,0.61526 0.81204,0.63848 3.24817,1.88321 2.84215,2.47815 1.21806,0.7772 1.21807,0.86555 1.62408,1.00406 0.81204,0.73474 1.62409,1.06271 1.21806,1.00497 1.21807,0.72707 0.81204,0.72164 1.62408,1.18353 1.21807,1.45333 0.81204,0.46685 0.81204,0.35003 1.21807,0.88028 0.81204,0.64108 0.81204,0.63008 1.21806,1.03532 2.43613,1.70615 3.65419,3.74249 0.40602,0.55342 0.81204,0.75465 0.81205,0.71655 0.81204,0.50361 1.21806,0.52059 0.81205,0.61978 1.21806,0.59565 0.40602,0.12983 0.40602,0.32268 0.81204,0.37622 1.21807,0.76624 0.81204,0.69682 0.81204,0.66328 0.81204,0.79176 0.81205,0.619 1.21806,0.91399 2.43613,2.32748 0.40602,0.28719 0.81204,0.86317 0.81204,0.62468 0.40602,0.44928 2.03011,1.29155 1.21806,0.59906 0.81205,0.57142 1.21806,1.18941 1.21806,1.33755 0.81205,0.88978 0.81204,0.87501 3.65419,3.25795 3.24817,2.18038 4.46623,4.0055 2.43613,1.75343 1.21806,1.01533 6.49634,6.04919 0.81204,0.81177 2.84215,2.57524 1.62409,1.37926 4.46623,3.294 1.21806,1.17001 1.62409,1.91638 1.62408,1.79418 1.62409,1.61984 1.21806,1.11226 3.24817,2.40951 9.33849,7.89513 2.43613,2.53908 4.06021,3.8714 3.24817,3.61103 2.43612,2.25675 3.65419,3.03087 1.21807,1.24061 1.21806,1.23213 2.43613,2.24495 2.84215,2.65596 2.0301,1.78462 1.62409,1.55307 0.81204,0.7525 1.62409,1.25686 1.21806,0.94259 1.62408,1.44471 2.03011,2.06755 0.81204,0.96688 0.81205,0.91071 2.0301,2.93692 1.21806,1.5284 0.40603,0.64593 0.40602,0.43008 1.62408,0.32183 0.40602,0.29847 0.40602,0.0141 0.81205,0.30416 0.40602,0.10821 2.43612,1.46819 0.81205,0.91361 1.21806,0.90554 1.62409,1.32929 0.40602,0.20424 2.0301,1.92803 0.81204,1.06038 0.81205,0.8494 1.62408,1.00952 0.81205,0.72008 4.46623,3.81964 0.81204,0.72956 2.84215,2.57926 1.21806,1.71769 1.62409,1.97082 1.62408,1.62146 4.06021,3.92014 1.62409,1.75938 1.21806,1.37927 1.62409,2.22293 1.21806,1.56374 6.09032,7.08955 1.21806,1.85043 0.81204,1.01826 1.62409,1.72108 1.62408,3.25514 2.43613,5.68995 1.62408,2.28209 0.81205,0.43229 0.40602,0.27105 0.40602,0.0366 0.40602,0.38645 0.40602,0.15279 0.40602,0.003 1.62409,1.61473 2.0301,2.97986 0.40603,0.42126 1.21806,1.69823 1.21806,1.40441 0.40602,0.76287 0.81205,0.96117 1.21806,0.85555 1.62408,2.03569 0.81205,1.26121 1.21806,2.50323 1.21806,2.04501 0.81205,1.14164 0.81204,1.10279 1.21806,1.48736 1.21807,1.82563 2.0301,2.32672 1.21807,2.2892 1.21806,1.82989 0.40602,0.60916 1.21806,2.78615 1.21807,2.07876 1.21806,1.44108 0.81204,1.21875 1.21807,1.39791 1.62408,2.08693 2.03011,3.30037 2.0301,3.80161 3.65419,4.74519 0.40603,0.10399 0.81204,0.62689 0.40602,1.42916 0.81204,4.61363 1.21806,8.70201 0.40603,1.33982 0.40602,0.0798 0.40602,0.93606 0.81204,0.30322 0.40602,1.7008 0.40602,0.26005 0.40602,0.0668 0.40603,1.46401 0.40602,0.26367 0.40602,0.52601 0.40602,0.14387 0.81204,0.10399 0.81204,1.07199 0.40603,0.0375 0.81204,1.16363 0.40602,0.0583 0.81204,0.64381 0.81204,1.40516 0.81205,0.10273 0.40602,0.60144 0.40602,0.90697 0.40602,0.26904 0.40602,0.90328 0.81204,0.30835 0.40602,0.43298 0.40603,0.15726 0.40602,2.06022 0.40602,1.29883 0.40602,2.1e-4 0.40602,0.14621 0.40602,10e-4 0.40602,0.2465 0.40602,0.0775 0.40602,0.23299 1.62409,0.36136 0.40602,0.0989 0.40602,0.31314 0.40602,0.0664 0.81205,0.59733 0.40602,0.013 0.40602,0.40928 0.40602,0.0174 2.43613,1.0102 0.40602,0.39551 0.81204,0.28182 0.40602,0.0476 1.21806,0.86138 0.81205,0.0827 0.40602,0.32876 0.40602,0.0411 1.21806,0.62254 0.81205,0.0745 3.24817,0.18332 0.40602,0.11892 16.24084,-0.10043 4.46624,-0.19705 0.81204,-0.33563 1.62409,-0.99283 6.49633,-5.21007 2.84215,-3.23671 1.62409,-2.02783 2.0301,-2.29753 1.21807,-1.29426 4.87225,-5.75838 6.09032,-9.0364 1.62408,-2.43669 2.03011,-2.95895 3.65419,-5.72296 1.21806,-2.31912 1.62409,-2.82059 2.84215,-5.7527 2.43612,-4.40212 3.24817,-5.94262 9.33849,-19.4649 2.43613,-4.86736 4.06021,-9.56507 5.6843,-13.57715 1.62408,-3.63298 2.03011,-4.87121 1.21806,-2.34084 0.81204,-1.26216 0.81205,-1.27586 0.81204,-1.23468 0.81204,-1.84772 2.84215,-7.3485 3.24817,-9.18191 1.62408,-4.33098 6.09032,-16.64285 2.43613,-7.13697 1.21806,-3.99446 v 0" /></g></g><g
       id="g292"><g
         clip-path="url(#clipPath298)"
         id="g294"><path
           id="path300"
           style="fill:none;stroke:#2ca02c;stroke-width:1.5;stroke-linecap:square;stroke-linejoin:round;stroke-miterlimit:10;stroke-dasharray:none;stroke-opacity:1"
           d="m 184.58182,157.66923 0.40602,0.0101 0.81204,0.3814 0.81204,0.13102 0.40602,0.25347 0.81205,0.0789 0.81204,0.15484 0.40602,0.18483 1.21806,0.0991 0.40603,0.24428 2.43612,0.50459 0.81205,0.17234 0.40602,0.31916 1.21806,0.20796 0.40602,0.40597 0.40602,0.0528 0.81204,0.53569 1.21807,0.38958 1.21806,0.31603 0.40602,0.4952 0.40602,0.005 0.40603,0.13701 1.21806,0.71361 1.21806,0.36941 8.93247,0.4293 2.43613,0.12953 7.7144,0.27273 4.06021,0.18621 2.03011,0.0775 1.62408,0.18526 0.40602,0.21873 0.40602,0.44416 0.40602,0.025 0.81205,0.4683 1.21806,0.13262 1.21807,0.7716 0.40602,0.0287 1.21806,0.36751 h 15.02278 l 2.03011,-0.64889 1.21806,-0.20029 2.03011,-0.66847 4.87225,-1.41251 5.6843,-1.42447 4.06021,-1.28678 8.12043,-3.48193 4.06021,-1.67513 5.68429,-2.35431 4.06022,-1.65364 2.43612,-1.22099 5.6843,-2.28642 15.83483,-5.1546 0.40602,-0.10179 0.81204,-0.7665 0.40602,-0.19078 0.81204,-0.13869 0.81205,-0.39713 2.43612,-0.12326 2.03011,-0.26955 1.62408,-0.36082 6.90236,-0.32467 0.81205,-0.21974 3.65419,-0.58233 2.43612,-0.13346 2.03011,-0.50251 1.21806,-0.13458 2.84215,-0.0758 0.81204,-0.15004 3.6542,-0.35414 3.24816,-0.26047 4.06022,-0.56608 1.62408,-0.28119 12.58666,-0.19488 10.55655,0.0998 2.84215,0.27806 2.0301,0.41194 1.21807,0.4133 1.21806,0.2056 2.43613,0.25991 2.43613,0.1166 2.43612,0.55201 0.81205,0.22774 0.40602,0.085 1.21806,0.55089 2.43613,0.73714 1.62408,0.80481 1.62409,0.98942 1.21806,0.62945 2.03011,1.3808 2.43612,1.88021 1.62409,0.9851 1.62408,0.58623 16.24085,-0.0399 1.62409,-0.66475 1.21806,-0.5093 0.81204,-0.22051 2.03011,-0.13725 5.27827,-0.26827 0.81204,-0.34518 2.03011,-0.34562 0.40602,-0.15541 13.80472,0.0486 1.21807,0.23047 1.21806,0.13806 1.21806,0.0839 0.81205,0.15459 1.21806,0.4075 0.40602,0.006 0.40602,0.13745 0.81204,0.0303 0.81205,0.17139 4.46623,0.55961 1.62409,0.5195 4.46623,0.13936 0.81204,0.15402 1.21806,0.33672 4.46624,0.77057 1.21806,0.39826 2.43613,0.77812 4.06021,1.00023 3.24817,1.58643 1.21806,0.60565 2.84215,0.80739 1.62409,0.3332 4.06021,1.01226 1.62408,0.67318 6.09032,2.04295 1.21806,0.47249 4.06022,2.06445 1.62408,1.14979 2.43613,1.33237 0.81204,0.42219 4.87226,2.98927 0.81204,0.32874 0.81204,0.36878 1.62408,1.28168 0.81205,0.65419 0.81204,0.84224 0.40602,0.32199 1.62408,2.65545 0.40603,0.0738 0.81204,0.43756 1.62408,0.29323 0.40602,0.0703 0.40603,0.31911 0.40602,0.13727 2.0301,2.37887 0.81204,0.72529 0.40603,0.17754 0.40602,0.32057 0.40602,0.17106 0.40602,1.3e-4 0.40602,0.41375 1.21806,0.34836 1.21807,0.96328 1.21806,0.62914 1.21807,0.12517 0.40602,0.17254 0.40602,0.005 1.21806,0.59193 0.40602,0.51095 0.40602,0.25746 0.40603,0.42721 0.40602,0.1856 1.21806,0.88312 0.81204,0.33185 0.81204,0.0857 0.81205,0.35446 0.81204,0.59064 0.81204,0.84887 2.03011,1.36735 0.81204,0.33326 0.40602,0.25687 0.40602,0.0144 0.81204,0.53712 2.84215,2.26252 0.81205,0.3608 0.81204,0.19429 1.62408,1.00408 0.40602,0.21695 0.40603,0.008 3.65419,2.72945 1.62408,0.91169 1.62409,1.14619 0.81204,0.28402 0.81204,0.30043 0.81204,0.38428 1.21807,0.67198 4.06021,2.22609 0.81204,0.65082 1.62409,1.13865 0.81204,0.61676 2.0301,1.40228 0.81205,0.59057 2.43612,1.33408 0.81204,0.3454 1.21807,0.64123 0.81204,0.44834 3.65419,2.22636 0.81204,0.50329 2.84215,2.18573 1.62409,1.11126 1.62408,1.042 5.27828,3.82685 1.62408,0.97278 1.62409,1.23231 1.62408,1.40384 4.46623,3.39747 2.43613,1.90041 2.84215,2.5683 2.84215,2.87421 0.81204,0.72188 0.81204,1.024 0.81205,1.9904 0.40602,0.64414 0.40602,0.28075 0.40602,0.0284 0.81204,0.46068 0.81204,1.15713 1.21807,0.89452 0.40602,0.63512 0.81204,0.56856 0.81204,0.76284 0.40603,0.29509 0.40602,0.61394 0.40602,0.0812 0.40602,0.36219 0.81204,0.33994 0.40602,0.65132 0.81205,0.39176 0.40602,0.54583 0.40602,0.23389 0.40602,0.0419 0.40602,0.55998 0.81204,0.13884 1.62409,1.75435 0.81204,0.86869 0.81204,1.40966 0.81204,0.62908 0.40603,0.38956 1.21806,0.58627 0.40602,0.44423 0.81204,0.33387 1.62409,1.17685 0.81204,0.98352 0.81204,0.48518 0.81204,0.89046 0.81205,0.55447 0.40602,0.41916 0.40602,0.25773 0.40602,0.11106 0.81204,0.84746 0.81205,0.47676 0.81204,0.9779 1.21806,0.60181 0.81204,0.56475 0.40602,0.057 0.81205,0.85094 0.81204,0.7884 0.40602,0.28121 0.81204,1.05954 1.21807,0.95238 0.81204,0.76958 0.81204,0.43489 0.40602,0.34185 1.21807,0.61076 0.81204,0.67591 0.81204,0.6446 0.81204,0.43482 0.81205,0.74208 0.40602,0.41448 0.81204,0.32551 0.81204,0.47547 1.62409,0.6916 2.43612,2.00554 2.03011,1.88479 1.21806,1.57235 0.40602,0.0371 0.81205,0.49667 0.81204,0.79138 0.81204,2.27795 1.21806,2.92885 1.21807,2.35902 0.81204,1.05705 0.40602,0.39731 1.21807,0.25404 0.40602,0.19648 4.87225,0.5753 0.81204,0.0109 0.40602,0.88491 0.40603,1.38281 0.40602,0.38184 0.40602,0.0177 0.40602,0.26029 1.21806,3.36329 0.81204,1.70706 1.21807,1.51253 2.43613,4.89826 1.21806,2.76641 0.40602,0.70267 0.40602,0.45865 1.21807,0.4658 0.40602,0.32939 0.40602,0.0405 0.40602,0.49423 0.40602,0.02 0.40602,0.51424 0.40602,0.27654 1.21807,1.22734 0.40602,0.0775 0.81204,0.5655 0.81204,0.14788 0.40602,0.009 0.40603,1.27017 0.40602,2.91376 0.40602,1.0531 0.40602,0.65336 0.40602,0.41057 0.81204,0.27892 0.40602,0.14583 0.40602,0.56406 0.40602,0.18303 0.40603,0.31575 0.40602,0.15512 0.40602,0.45132 0.40602,0.0885 1.21806,0.89852 0.81205,0.0347 0.40602,0.38238 0.81204,0.34955 0.40602,0.33218 0.40602,0.0153 0.40602,0.23098 0.81205,0.1194 2.0301,0.97529 0.81204,1.29995 0.81205,0.0709 0.40602,0.54903 0.81204,0.68042 0.40602,0.51326 h 2.03011 l 0.81204,0.57118 0.81204,0.73441 0.40602,0.65057 0.40602,0.34722 0.40603,0.61337 0.81204,1.50962 1.21806,1.63122 1.62409,1.10649 0.40602,0.0194 1.62408,1.00028 0.40602,0.14936 0.81205,0.77896 0.40602,0.23384 1.62408,2.24082 1.21806,1.46826 2.43613,1.27553 0.81205,0.18658 0.81204,0.63697 1.62408,1.92174 1.21807,0.41384 0.40602,0.239 1.62408,4.02844 0.40602,0.70328 0.40602,0.0325 0.40603,0.43515 0.40602,0.20188 0.40602,0.43494 0.40602,0.12822 0.81204,0.5271 0.40602,0.0391 1.21807,2.0377 0.81204,3.00943 0.81204,0.75606 0.40602,0.002 0.40602,0.91212 0.40602,0.43869 0.40603,0.0732 2.0301,1.13273 1.21806,0.1708 0.40603,0.60233 0.40602,0.20569 0.40602,0.36923 2.03011,1.13703 0.40602,0.33939 0.40602,0.1302 0.40602,8.3e-4 1.21806,0.55498 0.40602,0.036 0.40602,0.25205 0.40603,0.70967 0.81204,3.17236 0.81204,0.89117 0.40602,0.0926 0.81204,2.40676 0.40602,0.74473 0.81205,4.6741 0.81204,0.11819 0.40602,0.30854 0.40602,1.45173 0.40602,0.21136 0.81205,4.09077 1.21806,0.098 0.40602,0.0923 0.40602,1.6124 0.40602,0.71241 0.40602,0.21158 0.81205,2.94682 0.40602,0.46232 0.40602,0.95952 0.40602,0.15219 0.40602,0.32953 0.40602,0.15431 1.21807,0.0398 0.40602,0.61826 0.40602,0.0205 0.40602,0.43554 1.62408,0.39229 0.40602,0.24775 0.81205,0.1523 0.40602,0.0858 0.40602,0.71759 0.40602,0.14041 0.40602,0.63273 0.40602,0.004 0.81205,0.71674 0.81204,1.29062 0.40602,0.36543 0.81204,0.13279 0.40602,0.78975 0.40602,0.14789 h 7.30839 l 0.40602,0.47077 0.81204,3.17219 0.81204,5.83561 0.40602,1.62728 0.81204,1.58129 0.81205,0.65752 0.40602,0.2315 1.21806,0.0578 1.21807,3.52043 1.21806,5.68556 1.62408,12.30616 1.21807,11.70595 1.21806,16.29009 0.40602,3.7067 0.40602,0.79051 0.81205,0.13806 0.40602,0.70586 0.40602,0.18343 0.40602,0.6605 0.40602,0.24843 0.40602,0.59549 0.40602,0.31344 0.81205,1.92813 0.81204,0.42122 h 0.40602 l 0.40602,1.33149 0.81204,1.13739 0.40602,0.4627 0.40603,0.27004 0.40602,0.99648 2.84214,0.016 0.81205,2.79615 0.40602,0.30948 0.40602,0.16102 0.40602,0.64775 0.40602,0.32658 0.40602,0.12374 0.40602,2.14812 0.81205,0.90059 0.40602,0.96311 1.62408,0.17107 h 6.49634 l 0.40602,2.57755 0.40602,0.59607 0.81205,1.61004 0.40602,0.2826 0.81204,2.31767 0.81204,12.77824 0.81204,0.40978 0.40603,0.94255 0.81204,8.96771 0.81204,2.98512 0.40602,3.05009 0.40602,1.29305 0.40602,0.40609 0.40603,1.00964 0.81204,0.6951 0.40602,1.9593 0.40602,0.14498 0.40602,0.73363 0.40602,1.682 0.40602,0.32996 0.40602,0.11761 0.40603,4.67773 0.40602,0.0827 0.40602,9.97274 0.40602,4.43519 0.40602,0.89432 0.40602,0.314 0.40602,1.72149 0.81205,0.77761 0.40602,0.15507 0.40602,2.09196 0.81204,1.07611 0.81204,3.7804 0.40602,4.17733 0.40603,0.87524 0.40602,0.42273 0.40602,0.2316 0.40602,5.90549 0.40602,0.80218 0.40602,1.62849 0.81204,2.03303 0.40602,1.24496 0.40603,0.10658 0.40602,1.02177 0.81204,6.74208 0.81204,8.26592 0.81204,0.52337 0.40603,0.44452 0.40602,0.0338 0.81204,0.72996 0.81204,1.05309 1.21806,0.0954 0.81205,0.38077 0.40602,0.20716 0.40602,0.0329 0.40602,0.52561 1.21806,3.05746 0.81205,1.46735 0.81204,0.69463 0.81204,1.10712 1.21807,1.04153 0.40602,0.35082 0.81204,0.14827 1.21806,2.33276 1.21807,1.66519 1.21806,1.48133 0.40602,0.038 1.21806,0.34234 2.43613,0.14471 0.40602,0.19108 0.81205,0.0264 0.40602,0.22566 0.40602,0.0459 0.81204,0.21812 1.62409,0.55773 0.40602,0.33815 0.81204,0.10205 0.81204,0.54244 0.40602,0.04 0.40602,0.26137 1.62409,3.81371 0.40602,1.66058 0.40602,2.13674 0.40602,1.23196 1.62409,0.52844 0.81204,0.92375 0.40602,0.17044 0.40602,0.68403 0.40602,0.0562 0.81205,0.38149 0.40602,1.33271 0.81204,0.24904 0.40602,0.45571 0.81204,0.0907 0.40602,0.49922 4.87226,0.0458 0.81204,0.40658 0.40602,0.14839 0.81204,0.0418 0.40603,0.38895 0.81204,0.08 0.40602,0.28225 0.81204,0.0814 4.06021,-0.0814 0.81205,-0.26474 7.7144,0.10988 1.62408,0.15486 0.81204,0.0951 1.21807,-0.0137 1.62408,-0.21256 4.06022,-0.13359 4.87225,-0.0818 2.0301,-0.26699 2.03011,-0.29126 0.40602,-0.009 0.40602,-0.27591 2.03011,-2.34661 2.84215,-2.21679 2.43613,-2.12396 1.21806,-0.75681 1.21806,-0.59874 1.21807,-0.55235 3.24817,-2.34934 2.0301,-1.20286 2.43613,-3.12298 1.62408,-2.39859 1.62409,-2.91566 2.0301,-4.51221 0.40602,-1.17513 0.40603,-2.23532 0.40602,-3.7142 0.40602,-0.85534 0.40602,-0.005 0.40602,-0.21587 0.40602,-0.0144 0.40602,-0.17003 0.81205,-1.38101 0.81204,-0.50446 0.40602,-0.0717 0.40602,-0.77414 0.40602,-10e-4 0.40602,-0.24696 0.40602,-0.67513 0.40603,-0.17695 0.40602,-0.0193 1.21806,-0.68336 0.40602,-0.84269 0.81204,-0.99902 0.40602,-0.20651 0.40603,-0.0295 0.40602,-0.36137 0.81204,-0.12974 0.81204,-0.16171 0.81204,-0.54014 0.40603,-0.0336 0.40602,-0.73358 0.40602,-0.15736 0.40602,-1.27914 0.81204,-1.51687 0.40602,-0.87619 0.40602,-0.33993 0.40603,-0.75718 0.40602,-0.46369 0.40602,-0.0624 0.40602,-0.55705 0.81204,-1.75141 0.40602,-0.86348 0.40602,-0.23088 0.40602,-1.05736 1.62409,-3.05475 0.40602,-0.18955 0.40602,-0.035 0.40602,-0.26391 0.81205,-1.29277 0.40602,-0.59623 0.40602,-0.88876 0.81204,-2.62195 0.40602,-0.93442 0.40602,-0.55355 1.62409,-0.81972 1.21806,-1.67481 1.21807,-1.34934 2.0301,-4.74326 0.40602,-1.14885 v 0" /></g></g><g
       id="g302"><g
         clip-path="url(#clipPath308)"
         id="g304"><path
           id="path310"
           style="fill:none;stroke:#d62728;stroke-width:1.5;stroke-linecap:square;stroke-linejoin:round;stroke-miterlimit:10;stroke-dasharray:none;stroke-opacity:1"
           d="m 184.58182,209.478 2.0301,0.15819 0.40602,0.3164 3.24817,0.11904 1.21807,0.19984 0.81204,0.14414 1.21806,0.0656 0.81205,0.64491 0.81204,0.33693 3.24817,0.96306 0.40602,0.45585 0.81204,0.15259 0.81204,0.29175 0.81205,0.24904 1.62408,0.44945 3.24817,0.49229 4.06021,0.70215 0.81205,0.46286 2.43612,0.0899 1.21807,0.0681 1.62408,0.15651 1.21806,0.0913 2.03011,0.2363 3.24817,0.15959 2.43613,0.27771 3.24817,0.38578 2.43612,0.16574 15.42881,-0.0947 5.6843,-0.56035 1.62408,-0.19316 1.21806,-0.65883 0.81205,-3.28927 0.81204,-0.14228 2.0301,-1.30199 0.81205,-0.13748 1.21806,-0.085 0.81204,-0.8094 0.81205,-0.2089 1.21806,-0.26464 0.81204,-0.87167 1.62409,-0.81079 1.21806,-0.16437 0.81204,-0.32634 1.62409,-0.88478 4.06021,-1.9354 1.21806,-0.12841 0.81204,-0.20235 0.81205,-0.21784 1.21806,-0.2644 1.21806,-0.80913 0.81205,-0.26751 0.81204,-0.25433 1.21806,-0.73929 1.21807,-0.76398 1.62408,-1.00559 0.81204,-0.70315 1.21807,-0.66653 1.62408,-0.60965 1.21807,-0.54978 2.43612,-0.99286 1.21807,-0.58064 1.62408,-0.58554 0.81204,-0.36696 1.21807,-0.40896 1.21806,-0.7926 1.62409,-0.82956 1.21806,-0.66945 6.49634,-2.36213 2.0301,-1.35201 2.84215,-1.98952 1.21807,-0.46156 1.62408,-0.88453 0.81204,-0.21449 1.21807,-0.1069 0.81204,-0.20348 1.62408,-0.70145 2.84215,-2.03418 5.6843,-3.69626 3.65419,-1.27217 1.21806,-0.29889 2.03011,-0.81264 1.62408,-0.33682 1.21807,-0.49334 0.81204,-0.27675 1.62408,-0.44383 0.81205,-0.46348 0.81204,-0.50793 1.62408,-0.63712 1.21807,-0.45452 1.62408,-0.6207 2.03011,-0.40992 0.81204,-0.299 1.21806,-0.46894 3.24817,-0.54019 3.24817,-0.44682 2.03011,-0.67324 1.62408,-0.56595 1.21807,-0.48701 2.84215,-0.76452 3.24817,-1.4043 2.43612,-0.63724 4.06021,-0.89006 1.21807,-0.3144 4.46623,-0.97662 2.84215,-0.4741 15.02278,0.0541 1.21807,0.14082 1.62408,0.16274 1.21807,0.11089 1.21806,0.0683 4.06021,1.11142 0.81204,0.37793 1.21807,0.62562 2.84215,0.83776 1.62408,0.79877 1.62408,1.07333 15.42881,-0.009 1.62409,-0.50781 0.81204,-0.37894 0.81204,-0.32807 0.81204,-0.25031 0.81204,-0.24542 1.21807,-0.29994 1.62408,-0.5734 0.81205,-0.2761 2.84214,-1.33601 1.21807,-0.58931 0.81204,-0.15078 0.40602,-0.24028 2.43613,-0.68712 2.43613,-0.73034 2.0301,-0.87525 0.81204,-0.2319 0.40603,-0.10483 0.81204,-0.33655 2.0301,-0.13449 0.40602,-0.1916 0.81205,-0.17872 0.81204,-0.35332 2.0301,-0.21651 1.21807,-0.23094 2.0301,-0.23001 0.81205,-0.21549 1.62408,-0.0745 11.3686,-0.0165 6.49633,0.091 0.81205,0.18656 0.81204,0.29359 2.0301,0.18249 0.81205,0.13775 1.62408,0.0874 1.21807,0.31632 1.62408,0.13066 2.43613,0.44013 2.84215,0.30033 0.81204,0.12483 1.62408,0.16139 1.62409,0.13466 3.24817,0.49431 6.49634,0.12268 1.21806,0.28658 1.21806,0.0911 2.43613,0.82424 1.62409,0.72031 2.84214,0.47114 1.62409,0.27984 2.43613,0.79182 2.0301,1.04937 0.81205,0.53423 0.40602,0.9971 0.40602,0.5472 0.40602,0.0498 0.40602,0.19942 0.40602,0.0596 0.40602,0.21027 2.43613,0.48253 0.81204,1.71421 0.40602,0.0266 0.40602,0.22003 0.81205,0.0796 0.40602,0.12185 0.40602,0.43211 0.81204,0.25616 0.40602,0.32717 0.81204,0.13399 0.40603,0.30248 0.81204,0.8511 0.40602,0.24225 0.81204,0.12406 1.21806,0.70333 2.43613,1.6815 0.81204,0.3375 0.81205,0.43141 1.62408,0.71287 0.81204,0.0831 0.81205,0.16739 0.40602,0.002 0.40602,0.12477 0.81204,0.60496 0.40602,0.16885 1.62409,0.11713 0.40602,0.14041 0.81204,0.47465 1.21806,0.20997 1.21807,0.68941 5.68429,1.01071 3.24817,1.91013 1.62409,0.90914 0.40602,0.15733 1.62409,0.24105 0.40602,0.11562 1.62408,0.84914 1.62409,0.73465 0.81204,0.44761 0.81204,0.58596 2.43613,0.45585 0.81204,0.53432 1.21806,1.0014 2.43613,1.26972 1.21806,0.63571 2.03011,0.69611 0.81204,0.77495 1.21807,1.12819 1.21806,0.82316 0.81204,0.227 0.81204,0.20934 2.03011,0.73342 1.21806,0.49012 2.03011,1.02885 1.21806,1.03715 0.81205,0.45222 2.43612,0.89572 1.62409,0.4452 8.93246,4.85952 1.62409,0.8423 0.81204,0.4265 1.21806,0.60953 0.81205,0.53403 1.62408,1.15332 1.21807,0.6592 1.62408,0.71727 1.21806,0.81367 1.21807,0.58305 1.21806,0.61467 1.21807,0.50861 1.21806,0.64996 2.43613,0.87401 3.65419,1.58929 1.21806,0.60487 3.65419,1.49525 2.03011,0.66465 3.24817,1.89426 3.24817,2.32615 0.81204,1.2136 1.21806,3.00556 0.40602,0.41837 0.81205,0.0462 0.81204,0.40709 0.81204,0.0711 0.40602,0.33885 0.40602,0.76862 0.81204,0.79874 0.40603,0.34155 0.40602,0.13365 0.40602,0.33227 1.62408,0.21007 0.40602,0.64846 0.40602,0.33797 0.40603,0.0309 0.81204,0.28232 0.40602,0.0811 0.40602,0.24469 0.40602,0.048 1.21807,1.20484 1.62408,4.27712 0.81204,2.8642 0.40602,1.04408 0.81205,1.22553 1.21806,0.28791 0.81204,0.11411 0.40602,0.22749 0.81205,0.068 2.84214,0.83457 0.81205,0.48324 0.81204,1.0095 0.81204,0.56393 1.21807,1.33745 0.40602,0.10706 0.40602,0.38605 1.21806,1.68681 0.40602,0.0529 0.81204,0.92445 1.21807,0.77724 0.40602,0.15846 0.40602,0.40479 0.40602,0.0444 1.21807,0.75489 0.81204,0.30364 0.40602,0.31421 1.21806,0.36826 0.40602,0.21543 1.21807,0.18374 0.40602,0.0105 1.62408,3.58323 0.40602,0.37544 0.40603,0.0211 1.62408,1.13894 6.09032,5.11103 0.81204,0.4019 0.40602,0.25023 1.62409,1.78117 h 6.90236 l 0.81204,0.5182 1.21806,0.40363 1.62409,1.29045 1.21806,0.92408 2.03011,1.24689 0.40602,0.11458 4.06021,2.8143 2.03011,2.02876 1.62408,1.18531 1.21806,0.79483 2.43613,1.85984 2.84215,1.96429 1.21806,0.86916 4.06022,3.1682 2.0301,0.92159 0.81204,0.40757 2.43613,1.73725 1.21806,0.9271 4.46624,3.95614 3.24817,3.29882 1.21806,1.54867 0.40602,0.98368 0.81205,3.09447 0.40602,0.39142 0.40602,0.0855 0.40602,0.3429 0.40602,0.53124 0.40602,0.8838 3.65419,3.95816 0.81204,0.56075 0.81205,0.0382 0.40602,0.24983 0.40602,0.0983 0.40602,0.28886 0.81204,1.14571 0.81204,1.20793 0.81205,0.76631 0.81204,1.12595 0.81204,0.57322 1.62409,1.44979 0.81204,1.04943 0.81204,0.5672 0.40602,0.0604 1.21807,0.59022 1.21806,0.49168 0.40602,0.49334 0.40602,0.30218 0.40602,0.54161 0.81205,1.59854 0.40602,1.09601 0.81204,0.92222 0.81204,0.69972 0.40602,0.12661 0.40602,0.41265 0.81205,0.0865 0.81204,0.37247 0.40602,0.15073 0.40602,0.30938 0.40602,0.54949 0.40602,0.30107 1.21807,1.71369 0.81204,0.67331 1.21806,0.5915 0.40602,0.60337 1.21807,0.61592 1.62408,1.46921 2.43613,2.81917 1.62408,0.90279 2.43613,0.40129 1.21806,0.40107 0.81205,0.1372 0.40602,0.19772 0.40602,0.0169 1.21806,0.44971 0.40603,0.17511 1.62408,0.17846 1.21806,0.30632 0.40602,0.24846 1.21807,0.41486 0.40602,0.18968 0.40602,0.009 0.81204,4.31832 0.40602,2.35159 1.21807,10.85093 0.81204,8.5558 0.40602,2.3581 0.40602,0.35954 0.40602,0.89487 0.40603,0.0101 0.40602,1.22456 0.40602,0.6636 0.40602,0.1516 0.40602,1.43389 0.81204,0.19744 2.43613,0.10165 2.0301,0.22727 0.40603,0.34012 0.40602,0.0102 0.81204,0.56938 0.81204,0.0867 0.40602,0.357 0.40602,0.0702 0.81205,0.43394 0.81204,0.20741 0.40602,0.82575 1.21806,1.68826 0.40602,0.73875 0.40603,0.179 0.40602,0.30151 h 8.52644 l 0.40602,0.47218 0.40602,0.72734 0.40603,0.32272 1.21806,0.32367 0.40602,0.50236 1.21806,0.51904 0.40603,0.63033 0.40602,0.18403 1.21806,2.41553 0.81204,1.32861 2.84215,3.72092 1.21806,1.22721 0.81205,0.26944 0.40602,0.0787 0.81204,0.4849 0.40602,0.0724 0.40602,0.3188 1.62409,1.89434 0.40602,0.45083 0.81204,0.4914 2.03011,1.91586 0.81204,1.04012 0.40602,0.54362 0.81204,0.68964 0.81205,1.10808 1.62408,1.49892 1.62408,1.56787 0.81205,0.74163 0.81204,0.97554 4.06021,6.8789 0.40602,0.85932 1.62409,4.40877 1.21806,0.30491 0.40602,0.38139 0.40602,0.55464 0.40602,0.76868 0.40603,0.36109 1.62408,0.23914 0.40602,0.26403 1.62409,1.71105 1.62408,0.26915 0.40602,0.30282 0.81204,0.16887 0.40603,0.42955 1.21806,2.8916 0.81204,1.51186 0.40602,0.58272 0.40602,0.84859 0.40603,0.2735 2.0301,0.23012 1.21807,0.23598 1.62408,0.62221 0.81204,1.29252 1.21807,2.57595 0.40602,0.93103 0.40602,0.57787 0.40602,0.33928 3.65419,0.22166 2.03011,0.84254 3.24817,3.23781 1.62408,2.37747 0.40602,0.35866 1.21807,0.6215 0.81204,0.58322 0.81204,0.72114 0.81204,1.09818 0.81205,0.59743 1.62408,0.90525 1.62409,0.71063 1.21806,0.50264 0.81204,0.41651 2.03011,0.54982 0.40602,0.13497 1.21806,0.83503 2.43613,0.0604 0.40602,0.19791 1.62409,0.13568 0.40602,0.0377 0.40602,0.29789 2.84214,0.20638 8.93247,-0.0755 2.84215,-0.59012 0.81204,-0.012 0.40602,-0.17878 4.06022,-0.27742 1.21806,-0.55239 0.81204,-0.49082 0.40602,-0.31136 1.21807,-0.38747 0.81204,-0.28065 0.81204,-0.29696 0.81204,-0.30589 0.81205,-0.39457 0.81204,-0.35437 0.81204,-0.49665 1.21806,-0.16422 0.81205,-0.3171 1.21806,-0.76351 1.62408,-1.06103 0.81205,-0.41675 0.81204,-0.71003 1.21806,-0.64543 2.84215,-2.33748 0.40602,-0.53076 0.81205,-2.10987 0.40602,-0.93566 1.62408,-1.52545 0.40602,-0.55077 1.21807,-0.0809 0.40602,-0.30569 0.40602,-0.67636 0.40602,-0.95508 0.40602,-0.52093 1.21806,-0.58394 0.40603,-0.36555 0.81204,-0.17703 0.81204,-0.60885 0.40602,-0.0472 0.40602,-0.42072 0.40602,-0.0167 0.40602,-0.15536 0.81205,-0.73331 0.81204,-0.85646 0.40602,-0.16455 0.40602,-0.004 0.40602,-0.55301 1.62409,-0.96578 0.40602,-0.35485 2.0301,-2.46587 0.81205,-1.01462 0.81204,-1.37953 1.21806,-2.06311 2.03011,-3.08008 1.21806,-2.65615 2.03011,-3.57987 1.62408,-2.59282 1.21807,-1.66784 1.62408,-1.83016 0.81204,-0.83197 2.43613,-1.11444 0.81204,-0.56928 1.21807,-1.45349 2.43612,-4.36345 1.21807,-2.018 2.84215,-5.99253 2.84215,-5.6622 2.84214,-4.83335 2.43613,-3.40073 0.40602,-0.83908 v 0" /></g></g><g
       id="g312"><g
         clip-path="url(#clipPath318)"
         id="g314"><path
           id="path320"
           style="fill:none;stroke:#9467bd;stroke-width:1.5;stroke-linecap:square;stroke-linejoin:round;stroke-miterlimit:10;stroke-dasharray:none;stroke-opacity:1"
           d="m 184.58182,303.28378 0.40602,1.78783 0.40602,0.77465 1.21806,0.3075 1.21807,0.11838 0.81204,0.0516 0.40602,1.22362 0.40602,0.51618 1.62409,0.16327 1.21806,0.39446 0.40602,0.44304 0.40602,2.236 0.81205,0.6161 1.62408,0.80496 1.21806,0.55288 2.84215,1.76077 4.06021,3.0314 5.27828,0.70592 4.87225,0.37607 1.62409,0.14934 0.81204,0.27266 0.81204,1.0052 0.81205,0.0864 0.81204,0.0497 0.40602,0.14387 1.21806,0.0423 0.81204,0.11384 0.81205,0.18567 0.40602,0.9404 0.40602,2.51678 0.40602,0.85187 h 15.02279 l 0.81204,-0.26495 2.43612,-0.58479 8.12043,-2.76875 2.43613,-0.44391 8.12042,-1.11158 2.03011,-0.85591 1.21806,-0.63028 1.21806,-0.60095 2.03011,-0.68666 1.62408,-0.0521 1.21807,-0.0797 1.21806,-0.18096 0.81204,-0.16431 1.62409,-0.67092 1.62408,-0.86156 0.81204,-0.51999 2.43613,-1.05456 0.40602,-0.40334 0.40602,-0.21747 1.62409,-0.28342 0.40602,-0.60644 0.40602,-0.80678 0.81204,-0.0446 0.40603,-0.45041 1.21806,-0.36937 1.21806,-0.10692 0.40602,-0.35854 0.81205,-0.22037 1.21806,-0.0839 0.40602,-0.24379 0.40602,-0.81813 0.40602,-0.46831 1.62409,-0.48989 5.68429,-1.98984 3.6542,-1.38046 1.21806,-0.70618 4.46623,-3.75499 4.06021,-2.75494 1.21807,-0.39571 1.62408,-0.45234 1.21807,-0.66837 0.81204,-0.48351 1.21806,-0.27955 3.65419,-0.14524 4.06021,-0.32708 0.81205,-0.18941 0.81204,-0.37643 1.21806,-0.36762 1.21807,-0.66441 2.0301,-1.49742 1.21807,-0.9185 1.21806,-0.71055 1.62408,-0.78866 0.81205,-0.48024 1.21806,-0.78114 1.21806,-0.78756 1.62409,-0.73928 2.43613,-1.03522 0.40602,-0.27557 1.21806,-1.16162 1.62409,-1.03618 0.40602,-0.1932 1.21806,-0.13122 2.03011,-1.78936 2.0301,-1.06541 0.81204,-0.87237 0.81205,-0.18586 0.40602,-5.4e-4 0.81204,-0.21383 1.21806,-0.24335 0.81205,-0.67558 0.40602,-0.0991 2.43613,-1.24526 0.40602,-0.0688 0.40602,-0.2533 0.40602,-0.041 0.40602,-0.39745 1.62408,-0.13195 2.03011,-0.41652 0.81204,-1.25344 1.21807,-0.36671 0.81204,-0.12324 1.62408,-0.42144 0.81205,-0.12882 0.40602,-0.14472 0.40602,-0.76497 0.40602,-0.28198 2.03011,-0.29446 0.40602,-0.24562 0.81204,-0.29713 0.40602,-0.73584 0.40602,-0.0533 0.81204,-0.42433 1.62409,-0.14752 2.03011,-0.27148 0.81204,-0.37053 0.81204,-0.21129 0.40602,-0.58921 2.03011,-0.97349 0.40602,-0.27811 0.81204,-0.24809 0.81204,-0.26913 2.03011,-0.49477 1.21806,-0.27739 5.6843,-0.15296 11.36859,-0.33997 4.06021,-0.42652 1.62409,-0.40797 1.62408,-0.273 2.43613,-0.76192 2.84215,-1.23915 2.43613,-1.48778 0.81204,-0.52057 2.84215,-1.10351 1.21806,-0.56407 1.21806,-0.97258 4.06022,-3.76549 2.43612,-1.88266 0.81205,-0.37459 0.81204,-0.61141 3.24817,-2.66116 0.40602,-0.26167 0.81204,-0.1911 0.81204,-0.17045 1.62409,-0.73935 0.81204,-0.52777 2.43613,-1.60402 2.0301,-1.14531 1.21807,-0.40906 0.40602,-0.1007 0.81204,-0.6229 1.62409,-1.88849 1.62408,-2.04908 1.21806,-1.16323 0.40603,-0.20213 1.21806,-0.0656 1.21806,-0.18597 2.03011,-0.51225 4.06021,-1.75607 0.81204,-0.0883 1.21807,-0.42917 1.21806,-0.66134 1.21806,-0.12948 0.81205,-0.0846 4.46623,-0.17507 0.81204,-0.20851 0.40602,-0.0184 0.40602,-0.17058 4.87226,-0.57207 0.40602,-0.22031 1.21806,-0.0554 7.7144,-0.10928 4.06022,-0.0818 2.84215,0.0818 1.21806,0.038 1.21806,0.0713 1.62409,0.16574 6.09031,0.39884 0.81205,0.0771 1.21806,0.11489 3.65419,0.92983 1.21807,0.851 0.81204,0.13407 1.21806,0.15908 0.81204,0.23438 1.21807,0.10986 0.81204,1.13096 0.40602,0.27697 0.40602,0.003 1.21807,0.26224 0.40602,0.4775 0.40602,0.27176 0.40602,0.41156 1.21806,0.31979 0.40602,0.005 0.40603,0.7556 0.40602,1.43072 0.40602,0.46504 0.81204,0.0951 0.40602,0.1721 0.40602,0.004 0.40602,0.13754 2.03011,2.49548 0.81204,0.3971 0.81205,0.35274 1.21806,0.47503 0.81204,0.20127 1.62408,0.46216 1.21807,0.45472 1.21806,0.32697 2.03011,0.4864 1.21806,0.0974 0.81204,0.45695 0.40603,0.35534 0.81204,1.10639 0.81204,0.81804 0.81204,0.59257 0.81204,0.57051 2.03011,1.05515 1.21806,0.65019 0.81205,0.71322 1.21806,1.8272 1.62409,0.63969 0.40602,0.01 0.81204,0.60522 1.21806,0.0209 0.81205,0.74721 0.40602,0.0562 0.81204,0.37098 2.0301,0.31 0.81205,0.0602 1.62408,0.35154 0.81204,0.57149 0.81205,0.0902 0.81204,0.56488 1.21806,0.30127 0.40602,0.21863 0.40602,0.0577 0.40603,0.33914 1.21806,1.94377 0.40602,0.0905 0.81204,0.47358 0.81205,0.77329 0.81204,0.39307 1.62408,0.85004 0.40602,0.0266 0.40603,0.19152 0.40602,0.0577 0.40602,0.22854 0.40602,0.0853 0.40602,0.70487 0.40602,0.0462 1.21806,0.54863 0.40603,1.02807 0.81204,3.31394 0.40602,0.85769 0.81204,0.21491 0.81204,0.57936 0.81205,0.78935 0.81204,0.8238 1.21806,1.44765 0.40602,0.005 0.40602,0.70378 2.43613,0.66371 0.40602,1.49499 0.40602,3.39696 0.40603,0.41234 0.40602,1.3439 0.40602,2.17724 0.40602,0.13445 1.21806,2.3929 0.40602,0.0715 1.21807,2.33606 0.40602,6e-4 0.40602,0.64696 1.21806,0.7266 0.40602,0.0539 0.40603,0.16971 1.21806,0.14392 0.40602,0.18949 2.43613,3.04723 0.40602,0.39937 0.81204,1.04452 0.40602,0.16623 0.81204,0.11744 0.40603,0.074 0.81204,1.23636 0.40602,0.20542 0.81204,1.364 0.40602,0.39541 0.81205,0.30799 0.40602,0.43338 h 2.0301 l 1.21807,1.8014 0.40602,0.29648 0.40602,0.11144 0.81204,0.76091 0.40602,0.60165 0.81205,1.36975 0.40602,0.74899 0.40602,0.41563 1.21806,0.23637 0.81204,0.12799 0.81205,0.25096 1.21806,1.66511 0.40602,0.28916 1.21806,1.46278 0.81205,1.61041 0.40602,0.69837 1.21806,1.42237 1.21807,1.96218 1.21806,2.3088 1.21806,0.34189 1.21806,0.1674 0.40603,0.31222 1.62408,1.8084 0.40602,0.14263 0.81205,0.66567 1.21806,2.52294 0.40602,0.49195 0.40602,0.30617 1.62409,2.99993 0.40602,0.46005 1.21806,0.58596 0.40602,0.0977 0.40602,0.54893 0.40602,0.92508 0.81205,3.06308 0.40602,0.94751 0.81204,0.8247 4.46623,1.30931 5.27828,1.74142 2.43613,1.70118 2.84214,2.36154 7.30838,6.71686 4.06022,3.76389 2.0301,1.56603 2.03011,1.24511 5.27827,3.73963 1.62409,1.1108 2.43613,1.86059 2.84214,2.08947 2.43613,1.97699 3.24817,2.39287 2.03011,1.17765 1.21806,0.56953 1.62409,0.56796 2.0301,0.59357 2.03011,0.91468 4.46623,2.17452 9.74451,4.48101 1.21806,0.35656 3.24817,0.68572 6.90236,0.65293 2.03011,0.21945 1.62408,0.18099 2.84215,0.26008 2.03011,0.16088 6.49634,0.10979 5.27827,0.15051 12.99268,0.48075 2.03011,0.62103 1.21806,0.37762 2.84215,0.57398 7.30838,0.29506 1.21806,0.22356 6.09032,1.48472 1.62409,0.69667 1.62408,0.64137 5.27828,2.10901 3.24817,1.95582 3.24817,2.12293 2.84214,2.55228 1.62409,1.91949 1.21806,1.65913 4.06021,5.99578 2.03011,2.96927 2.43613,3.04351 2.84215,3.55883 2.0301,2.55832 1.62409,2.10072 2.43612,3.55536 2.43613,3.76481 1.21806,1.96733 1.21807,2.65426 1.62408,4.32617 2.84215,7.98017 2.03011,4.844 2.84215,6.09211 2.43612,4.98616 1.21807,2.88531 1.21806,3.7747 2.43613,8.61665 12.58665,47.32793 2.43613,9.83711 1.62409,4.99396 0.40602,2.08547 0.81204,6.16072 3.24817,32.98593 1.21806,8.38666 0.40602,1.61748 0.40602,0.19887 0.40603,0.36161 0.40602,0.10198 0.40602,0.46879 0.40602,1.14978 0.81204,0.14674 0.40602,1.13162 0.40602,0.28443 0.81205,0.88535 0.40602,0.0176 0.40602,0.59099 1.21806,0.55652 0.40602,0.93738 1.21807,6.61674 3.24817,17.53627 1.62408,7.99353 4.87226,20.93662 1.21806,5.14265 1.62408,7.0609 4.46624,18.61896 1.21806,4.27765 7.7144,25.27672 1.21807,3.30802 1.62408,3.99868 0.81204,1.87036 0.40603,0.59638 h 15.02278 l 0.40602,-0.27203 0.81204,-0.28877 2.43613,-1.88034 1.21806,-1.93763 1.21807,-2.07238 4.06021,-8.81456 1.62408,-5.06044 2.84215,-9.51428 3.24817,-9.52791 0.81204,-3.08664 2.03011,-7.98296 2.03011,-7.47723 1.62408,-5.94246 2.03011,-7.02005 0.81204,-3.38505 1.21806,-5.26836 0.81205,-3.04385 2.43612,-8.36917 2.03011,-7.81719 1.21806,-4.46692 0.81204,-3.65959 1.21807,-6.10036 0.81204,-3.56177 0.81204,-3.09685 0.81205,-3.7241 6.09031,-24.23884 2.84215,-9.39157 0.81204,-2.19307 0.40603,-1.47288 1.62408,-7.22649 1.62408,-5.76658 2.43613,-11.79291 2.03011,-8.85075 0.40602,-2.31668 0.81204,-2.97595 0.81204,-2.30218 0.81205,-3.04711 0.81204,-4.11347 0.81204,-2.6164 0.40602,-0.99502 0.40602,-1.56904 1.62409,-7.70609 3.24817,-13.47775 0.40602,-2.11294 0.40602,-0.97418 0.40602,-0.0876 0.40602,-0.75398 0.40602,-1.87194 0.40602,-2.66242 1.62409,-6.62074 1.21806,-4.18911 0.81205,-1.50979 1.21806,-4.63601 0.40602,-2.52325 0.40602,-1.56137 0.40602,-1.01701 2.43613,-10.85955 0.40602,-1.02249 0.40602,-2.86677 1.21807,-5.28894 0.40602,-0.15356 0.81204,-3.18677 0.40602,-2.60332 0.40602,-1.06291 0.40602,-2.66626 0.40602,-0.96474 0.81205,-4.69216 v 0" /></g></g><g
       id="g322"><g
         clip-path="url(#clipPath328)"
         id="g324"><path
           id="path330"
           style="fill:none;stroke:#8c564b;stroke-width:1.5;stroke-linecap:square;stroke-linejoin:round;stroke-miterlimit:10;stroke-dasharray:none;stroke-opacity:1"
           d="m 184.58182,243.16385 1.62408,0.55443 0.40602,0.001 0.40602,0.38851 1.62409,0.28911 0.40602,0.0976 0.40602,0.24561 2.84215,0.0626 0.40602,0.53467 0.40602,1.51235 4.06021,1.01865 0.81205,0.0935 0.40602,1.19416 2.43613,0.1556 1.62408,0.34448 1.21806,0.11137 2.43613,0.13532 7.30838,0.1621 0.40602,1.22208 1.62409,0.74783 0.81204,0.2437 15.42881,-0.10484 2.0301,-0.8828 2.84215,-2.07494 2.84215,-2.11768 1.21806,-0.64114 3.65419,-1.33 0.81205,-0.15171 0.40602,-0.16448 0.40602,-0.0106 0.81204,-0.29043 0.40602,-0.37608 0.40602,-0.13414 0.40602,-0.25498 1.21807,-0.3522 0.40602,-0.14161 0.40602,-0.0226 1.62408,-0.6223 2.84215,-0.25775 1.21807,-0.20501 5.68429,-2.15692 1.62409,-0.58873 2.43612,-0.70844 6.90237,-2.48887 4.06021,-1.20192 4.06021,-1.73515 0.81204,-0.31994 1.21807,-0.53797 1.62408,-0.84301 2.84215,-0.95669 0.81204,-0.30977 1.62409,-0.43843 0.81204,-0.31786 0.81204,-0.0706 2.03011,-0.32769 0.40602,-9.4e-4 4.06021,-1.76609 2.43613,-0.79606 2.84214,-0.50119 4.87226,-0.90157 2.0301,-0.61195 7.30839,-2.21622 2.43612,-0.48862 1.62409,-0.24477 1.21806,-0.25982 4.46624,-0.91112 5.68429,-1.67866 2.43613,-0.90038 1.21806,-0.34676 1.21807,-0.39991 3.24817,-0.79347 0.81204,-0.19266 2.84215,-0.42419 5.68429,-1.20618 3.65419,-0.89467 2.43613,-1.38938 0.81204,-0.22691 0.81205,-0.13996 2.0301,-1.02361 2.03011,-0.70327 3.65419,-0.0942 7.30838,-0.23878 h 7.7144 l 0.81204,0.23878 0.40603,0.0159 0.40602,0.16378 2.84215,0.1506 0.40602,0.19164 0.81204,0.0684 0.40602,0.14018 2.84215,0.1543 0.40602,0.15647 4.87225,0.45608 0.81205,0.85101 0.40602,0.25231 0.40602,0.50402 1.21806,0.33584 6.09032,2.29221 2.84215,1.23866 h 15.02278 l 0.81205,-0.43836 0.81204,-0.57627 1.21806,-0.72893 1.62409,-1.57935 1.21806,-1.04457 0.40602,-0.27347 0.40602,-0.12648 0.81204,-0.55613 1.21807,-1.10286 0.81204,-0.63845 1.21806,-0.69821 0.40603,-0.16534 0.81204,-0.61235 0.81204,-0.36458 1.21806,-0.33588 0.81205,-0.31738 1.62408,-0.80884 0.81204,-0.12432 1.62409,-0.0496 1.62408,-0.20469 2.03011,-0.17391 2.03011,-0.1952 1.21806,-0.11518 1.62408,-0.44385 3.65419,-0.38239 1.62409,-0.10909 9.74451,-0.0109 8.52644,0.10471 1.62409,0.10572 1.62408,0.15486 3.24817,0.31383 3.24817,0.2002 1.21806,0.1205 1.21807,0.31882 2.43612,0.27091 0.81205,0.0294 1.21806,0.28403 1.21806,0.10988 1.21807,0.0931 4.46623,0.19076 3.65419,0.2837 0.40602,0.12479 0.40603,0.26858 0.81204,0.12008 5.27827,0.36493 7.30838,0.87457 10.15053,2.19006 0.81205,0.26684 0.81204,0.23015 0.81204,0.3061 1.21807,0.39757 0.81204,0.16084 1.21806,0.336 0.81204,0.17122 0.81204,0.28403 2.43613,0.82998 1.21807,0.60064 0.81204,0.10517 0.40602,0.26031 0.40602,0.48727 0.81204,2.46648 0.81205,0.10212 0.81204,0.6385 1.21806,0.80829 0.40602,0.0642 0.40602,0.27503 0.81205,0.0845 0.40602,0.39619 0.81204,1.6285 0.81204,1.11272 0.81204,0.75696 1.21807,0.26504 1.21806,0.35832 0.40602,0.23439 0.81205,0.27986 1.62408,1.31018 1.21806,0.17165 0.81205,0.5207 2.0301,2.40452 1.21807,0.85931 0.40602,0.0172 0.81204,0.14635 1.62408,0.23741 0.81205,0.0418 0.40602,0.20503 1.21806,0.10577 0.40602,0.16753 0.81204,0.0573 0.81205,0.20775 1.62408,0.0969 0.40602,0.0715 0.81205,0.57124 0.81204,0.42492 0.81204,0.54006 1.62409,0.55993 1.21806,0.64507 1.62408,0.53351 4.06022,2.91677 1.62408,1.15678 1.21806,0.94564 0.81205,0.38289 1.62408,1.10421 2.03011,1.20311 3.24817,1.30647 0.81204,0.69672 2.43613,1.81832 1.21806,0.41014 0.81204,0.33392 4.87226,3.04679 0.81204,0.61935 4.46623,2.45805 2.43613,1.73938 1.21806,0.71478 6.49634,2.93688 0.81204,0.69987 1.62409,1.55414 2.43613,1.57932 1.21806,1.01015 2.0301,2.09707 1.21807,0.91972 1.21806,0.73969 0.81205,0.60903 0.81204,0.72472 1.62408,1.66599 1.21807,0.68453 1.21806,1.17703 1.62408,1.34145 0.40603,0.17424 2.84214,2.26044 0.81205,0.84371 0.81204,0.58289 0.81204,0.40404 1.62409,1.56242 0.81204,0.55872 0.81204,0.29795 0.81204,0.7298 0.81205,0.70482 1.21806,0.99714 0.40602,0.58456 1.21806,1.27722 0.81205,0.73263 0.81204,0.65725 0.40602,0.27632 0.40602,0.45559 0.40602,0.17248 2.03011,1.70348 1.21806,0.90244 0.40602,0.44107 2.43613,3.81336 2.0301,1.91114 2.43613,2.21089 1.62409,1.67339 0.81204,0.63139 2.03011,2.0233 0.81204,0.49403 0.40602,0.24242 0.81204,0.23088 0.40602,0.31757 0.81204,1.03599 1.21807,2.07586 1.21806,0.84559 0.81204,0.69979 0.40603,0.19214 1.21806,1.01017 1.62408,2.48829 0.40603,0.0122 0.40602,0.1824 0.40602,0.007 1.62408,1.21013 0.81204,1.25543 0.81205,0.0732 0.81204,0.76435 0.81204,0.66744 0.81204,0.56692 0.40603,0.28076 0.81204,1.58524 0.81204,0.038 0.81204,0.54035 0.40602,0.0349 0.40603,1.19903 0.40602,1.86589 0.40602,0.6599 0.40602,0.26911 0.40602,0.022 0.81204,0.34905 0.40602,0.037 1.21807,0.53775 0.81204,0.80449 0.40602,0.009 0.40602,0.36789 1.21807,0.24056 0.81204,1.80017 0.40602,1.12802 0.40602,0.32212 0.40602,0.16529 0.40602,0.0252 1.21807,1.66036 0.81204,0.46598 0.40602,0.57382 0.81204,0.49441 0.81204,1.20253 0.40603,0.47328 0.81204,1.20806 0.40602,0.0174 1.21806,1.56381 1.62409,1.19693 0.40602,0.4794 0.40602,0.28799 0.40602,0.0288 0.81204,0.20028 0.81205,0.20497 0.81204,0.80497 0.81204,0.24534 0.40602,0.54992 0.40602,0.27885 0.40602,0.032 0.81205,0.31689 0.40602,0.0219 0.40602,0.33619 0.81204,0.11724 0.81204,0.94289 1.21807,0.59671 0.81204,1.25255 2.03011,1.78008 1.21806,1.05613 1.62408,2.30352 0.81205,0.90422 0.81204,0.66316 0.81204,0.0733 0.81204,0.40049 2.84215,1.73701 1.62409,1.49815 2.84214,2.38047 3.24817,2.45857 2.84215,2.00527 0.81205,0.71333 1.21806,0.3 3.24817,2.38749 1.21806,1.30893 2.03011,1.69776 2.84215,2.63208 1.21806,0.90431 3.65419,2.4722 2.03011,1.19791 2.43612,1.81955 4.06022,3.3866 0.81204,0.48637 1.62408,0.58056 4.87226,1.61477 0.81204,0.55166 1.21806,0.99391 1.62409,1.65697 4.06021,3.49877 1.62408,1.46913 3.6542,3.43846 2.43612,2.26311 1.62409,1.42963 1.21806,1.02916 2.43613,2.62862 5.6843,6.48774 4.46623,4.46773 4.46623,4.70027 2.03011,2.37437 2.84214,3.31602 6.90237,8.27277 2.0301,2.6766 2.43613,3.38294 1.62408,2.521 3.24817,4.32282 2.03011,2.33803 1.21806,1.36242 1.62409,2.02823 6.90236,9.65296 2.0301,3.48421 2.03011,3.14848 1.21806,1.86664 3.24817,5.98405 0.81204,1.40929 0.81205,1.52383 2.0301,2.99567 1.21807,1.57804 0.81204,1.37273 0.81204,1.2533 1.62409,3.03578 3.65419,6.11424 2.0301,3.12949 4.87226,8.54841 0.81204,1.04934 0.81204,1.15603 0.81204,1.06185 0.81205,1.22194 1.21806,1.52666 0.81204,1.12924 3.24817,4.02933 5.6843,6.47666 3.24817,2.19334 0.81204,0.83304 1.62409,1.4975 0.40602,0.46364 0.81204,0.50083 0.81204,0.54071 4.06021,2.57998 0.40603,0.0174 1.21806,0.37064 h 15.02278 l 1.21807,-1.14558 2.43612,-1.5661 0.40603,-0.0913 1.21806,-0.75067 0.40602,-0.49058 0.40602,-0.22285 2.03011,-1.97695 0.81204,-0.43645 0.40602,-0.24793 0.40602,-0.48161 0.81204,-0.68276 1.62409,-1.89866 1.62408,-1.74465 1.21807,-1.78475 1.21806,-0.14403 1.62409,-0.63747 0.40602,-0.17108 0.40602,-1.14045 0.40602,-0.32528 0.81204,-1.06811 0.81204,-1.30059 2.43613,-4.09153 0.81204,-1.01095 0.40602,-0.73173 0.81205,-1.0045 0.81204,-1.47129 1.21806,-1.75332 2.84215,-4.93658 1.62409,-2.3865 0.81204,-1.20772 0.81204,-1.29626 1.21806,-2.4829 0.40602,-0.73101 0.81205,-1.01791 0.40602,-0.66383 2.0301,-4.53096 0.81205,-1.03675 0.81204,-1.58123 0.81204,-1.77609 0.81204,-1.57158 1.21807,-2.94167 0.81204,-1.27366 1.62409,-4.32202 2.43612,-4.90998 0.81205,-1.10684 0.40602,-0.25938 1.62408,-4.08849 0.81204,-1.49029 0.81205,-1.78328 1.62408,-3.79784 0.40602,-1.07494 0.40602,-0.45205 0.40602,-0.24361 0.40602,-0.61034 0.81205,-2.97125 0.81204,-1.37897 1.62409,-3.91983 0.81204,-0.88252 0.81204,-3.13438 1.21806,-4.85074 1.21807,-3.75368 1.62408,-3.96381 0.40602,-1.75924 2.03011,-4.56545 0.40602,-1.85514 1.21806,-2.80635 0.40602,-0.54986 0.40603,-1.16179 0.81204,-1.47973 0.40602,-1.45893 0.81204,-1.7207 0.40602,-0.92732 0.40602,-1.5678 0.40602,-0.75779 0.40603,-1.84087 0.40602,-0.61291 0.40602,-1.30438 0.81204,-1.20506 2.84215,-8.16486 0.40602,-1.44645 0.81204,-0.83044 0.40602,-1.23573 0.81205,-1.48324 0.81204,-2.04763 0.40602,-1.35792 0.40602,-0.847 0.40602,-0.49551 0.40602,-1.29826 0.40602,-0.68838 0.40603,-1.97794 0.40602,-0.74184 0.40602,-1.45724 0.81204,-1.74835 0.81204,-3.09316 0.40602,-0.3361 0.40603,-2.19757 0.40602,-0.8698 0.40602,-1.76139 0.40602,-0.52072 0.40602,-0.70552 0.40602,-0.95893 1.21807,-4.29362 0.81204,-1.17686 0.40602,-0.88725 0.81204,-3.26033 0.81204,-1.34836 0.40603,-0.87453 0.40602,-0.32105 0.40602,-0.6285 0.40602,-0.25417 0.81204,-2.91275 0.40602,-0.66972 v 0" /></g></g><g
       id="g332"><g
         clip-path="url(#clipPath338)"
         id="g334"><path
           id="path340"
           style="fill:none;stroke:#e377c2;stroke-width:1.5;stroke-linecap:square;stroke-linejoin:round;stroke-miterlimit:10;stroke-dasharray:none;stroke-opacity:1"
           d="m 184.58182,156.74123 1.21806,0.0474 0.40602,0.21937 2.03011,0.0859 0.40602,0.67956 2.03011,0.0945 0.40602,0.33521 0.40602,0.61459 2.43613,0.0217 0.40602,3.0408 0.40602,0.30267 4.06021,0.75698 10.55655,1.24762 1.21806,0.12529 3.65419,0.28156 0.40603,1.20346 0.81204,0.0704 18.27095,-0.11098 6.09032,-0.39433 5.27828,-0.7077 4.06021,-0.82877 2.84215,-0.82174 5.27827,-1.92151 6.90236,-1.52831 5.6843,-1.87894 2.0301,-0.89212 2.03011,-0.97624 2.03011,-0.76689 0.81204,-0.32331 3.24817,-0.9331 3.24817,-1.29048 0.40602,-0.0232 2.0301,-0.97364 1.21807,-0.20536 0.40602,-0.0113 0.40602,-0.4941 0.40602,-1.27665 0.40602,-0.31021 2.43613,-0.88861 6.09032,-2.08454 3.24817,-1.13684 3.24817,-0.89929 3.24817,-0.78051 4.06021,-0.74406 6.09032,-0.24181 1.62408,-0.12257 2.03011,-0.22031 4.06021,-0.88334 3.24817,-0.4359 2.43613,-0.13355 2.0301,-0.0832 2.84215,-0.43914 2.84215,-0.34481 1.21806,-0.14212 1.21807,-0.17268 0.81204,-0.1155 6.49634,-0.20445 3.24817,-0.28435 0.81204,-0.14988 0.81204,-0.24093 1.62409,-0.0969 1.62408,-0.10424 3.24817,-0.0715 0.40602,-0.0583 1.21807,-0.41631 1.21806,-0.0528 15.42881,0.0883 1.62408,0.19714 2.0301,0.38929 0.40603,0.12973 1.21806,0.0689 2.84215,0.7418 1.21806,0.40626 1.62409,0.30817 0.81204,0.20925 0.81204,0.51251 1.21806,0.37013 1.21807,0.49867 1.62408,0.27983 2.43613,0.78193 1.62409,0.82188 0.81204,0.0554 3.65419,2.52671 1.21806,0.22928 0.81204,0.55162 0.81205,0.2697 0.81204,0.13937 0.81204,0.18019 1.21806,0.12925 0.81205,0.4 16.64687,-0.0851 1.21806,-0.28558 0.81204,-0.10518 0.81204,-0.31973 0.81205,-0.1246 2.0301,-0.9075 0.81205,-0.21973 1.21806,-0.11511 19.89504,-0.0848 1.62408,0.1446 2.03011,0.15214 3.24817,0.45559 2.84215,0.70234 1.21806,0.38621 1.62408,0.0883 2.03011,0.5392 1.62408,0.42714 0.81205,0.22191 1.21806,0.46121 1.21807,0.23681 1.62408,0.71667 1.62408,0.58999 0.81205,0.27485 2.84215,0.77414 2.0301,0.78629 0.40602,0.20487 2.03011,0.49143 4.87225,1.84603 1.21807,0.42581 1.62408,0.46228 2.03011,0.87694 2.43612,1.13781 1.62409,0.80718 1.62408,0.799 1.62409,0.65103 1.21806,0.12201 1.21806,0.0439 0.81205,0.25362 1.62408,0.54019 1.62409,0.50165 1.62408,0.68709 1.21807,0.83931 0.81204,0.57471 2.43612,0.96204 1.62409,0.75215 0.81204,0.26015 1.21807,0.62152 0.40602,0.12095 0.40602,0.245 0.40602,0.38551 0.40602,0.12161 0.81204,0.60342 0.40602,0.14509 1.21807,0.81181 0.81204,0.33892 1.21806,0.92361 0.81205,0.47909 0.40602,0.0529 0.40602,0.16848 0.40602,0.34086 0.40602,0.0689 0.40602,0.38015 0.40602,0.22643 0.81205,0.74934 0.40602,0.19233 0.81204,0.9861 2.0301,1.00656 2.43613,1.96467 1.21807,0.72598 0.81204,0.19111 0.81204,0.55826 2.03011,1.84738 1.21806,0.94372 1.62408,1.34981 2.03011,1.03864 1.21806,0.7715 0.40603,0.21477 0.81204,0.68951 0.81204,0.41604 0.81204,0.17783 1.21807,0.81834 0.81204,0.78404 0.81204,0.68798 0.81204,0.94682 0.81205,0.46448 0.81204,0.35874 0.40602,0.10547 1.62408,1.06763 0.40603,0.28253 0.81204,0.74567 0.81204,0.58107 0.40602,0.30024 1.62409,0.69992 0.40602,0.40214 1.21806,0.52457 0.40602,0.0561 0.81204,0.24767 0.81205,0.26624 0.40602,0.20526 0.81204,1.03168 1.21806,1.10579 0.81205,0.26749 0.81204,0.0734 1.21806,0.73343 0.81205,1.03852 3.24816,2.50915 0.81205,0.4258 2.84215,1.13449 5.27827,3.31748 1.62409,1.22513 0.81204,0.61157 1.62408,1.62364 0.40602,0.30502 0.81205,0.32626 1.21806,0.91504 0.40602,0.35357 0.81204,0.17879 1.21807,1.06596 1.62408,0.76469 0.81204,0.84733 0.81205,0.73716 0.81204,0.44329 0.40602,0.40355 2.03011,0.89291 0.40602,0.58155 1.21806,1.04528 0.81204,0.48956 0.81205,0.59713 0.81204,0.52097 0.81204,0.66099 1.21806,0.0848 0.40602,0.17623 1.62409,1.31528 0.81204,1.04415 1.21807,1.52815 2.0301,0.20336 1.21807,1.73343 0.40602,0.0174 1.21806,1.51069 0.40602,0.3179 0.40602,0.46642 0.81204,0.17096 0.40603,0.0557 0.81204,1.45561 0.40602,0.38646 0.40602,0.22217 1.21807,0.156 0.40602,0.0336 0.40602,0.45549 0.40602,0.18653 1.62408,1.50505 0.81204,0.11163 0.40603,0.63246 0.40602,0.32337 1.21806,1.37022 0.40602,0.10082 0.40602,0.23396 0.40603,0.03 0.40602,0.4349 0.40602,1.16126 0.81204,1.20013 2.03011,0.25754 0.40602,0.32449 1.21806,0.45727 0.40602,0.098 1.21807,1.46136 0.40602,0.84949 1.62408,2.26173 1.62409,0.35396 1.21806,1.34465 0.40602,0.13426 0.81204,0.45897 0.40602,0.13225 0.40603,0.43092 0.81204,2.23789 1.62408,1.17698 1.62409,0.99534 0.81204,0.49596 1.21806,1.05434 1.62409,1.19246 1.62408,1.26935 0.81205,0.32228 2.84214,2.06224 0.81205,0.70686 1.62408,1.17385 4.87226,3.6501 0.81204,0.54476 1.21806,0.85382 0.81204,0.51464 0.40602,0.38447 0.81205,0.36256 1.21806,1.06657 1.62408,1.27379 4.06022,3.40273 1.21806,1.28837 0.81204,0.57972 0.81205,0.57061 1.21806,1.0165 1.62408,1.07203 2.03011,2.25167 1.21806,1.30976 0.81205,0.39549 0.40602,0.54633 0.40602,0.32979 1.21806,0.33882 0.81204,0.60599 0.81205,0.82227 3.24817,4.11937 0.40602,0.41613 1.21806,0.71989 0.40602,0.27007 0.40602,0.0807 3.24817,1.69032 0.40602,0.32464 0.81205,1.22257 0.81204,0.72985 0.81204,0.74147 0.40602,0.27057 0.40602,0.0138 0.81205,0.83374 0.40602,0.0245 0.40602,0.23572 0.81204,0.98702 0.81204,5.7364 0.40602,0.18314 0.40602,0.8003 0.40603,0.0293 0.40602,0.54176 0.81204,0.48963 0.40602,0.17528 0.40602,0.85446 0.40602,1.44953 0.40603,0.10583 0.40602,0.93409 0.40602,0.55926 0.40602,0.23536 1.21806,1.84868 0.40602,0.15363 0.81205,0.8908 0.81204,0.28996 0.40602,0.18406 0.40602,0.0123 0.40602,0.13404 0.40602,0.58297 0.81204,0.15792 0.40603,0.35919 0.40602,0.19258 0.81204,0.11607 0.81204,0.1801 1.21807,0.41813 0.40602,0.0532 0.40602,0.63135 0.81204,0.22105 0.40602,0.80473 0.40602,2.08402 0.40602,0.12029 0.81205,0.57003 0.40602,0.003 0.40602,1.09392 0.40602,0.5098 0.40602,0.10179 0.40602,0.42571 0.81204,0.0773 0.40603,0.17954 0.40602,0.008 0.40602,0.83812 0.40602,0.17866 0.40602,0.39547 0.40602,0.005 0.81204,0.59912 0.40603,0.43776 0.40602,0.0588 0.81204,0.57205 0.40602,0.0193 0.40602,2.0726 0.40602,0.0676 0.40602,0.30814 0.40602,0.55607 0.40603,0.27722 0.40602,0.14212 0.81204,0.55934 0.40602,0.76234 0.40602,0.48302 0.40602,0.0166 1.21807,1.16367 0.81204,0.17626 0.81204,0.26419 0.40602,0.0485 0.81205,0.40591 0.40602,0.71015 0.81204,0.52664 0.81204,0.29534 0.40602,0.18153 0.40602,0.75352 0.40602,1.21912 0.81205,1.14016 1.62408,1.63154 2.84215,2.30155 2.03011,1.63518 2.84215,2.12583 2.43612,1.86004 3.24817,2.3351 3.24817,2.39816 2.03011,1.53638 4.46623,3.65744 4.06021,3.36279 6.49634,5.72272 2.03011,0.66983 0.40602,0.32202 6.49634,9.50104 0.81204,0.97123 2.03011,2.13168 1.62408,1.97982 0.81204,1.56931 1.21807,2.57416 0.81204,1.02796 1.21806,1.34451 4.06021,6.17909 1.62409,1.1657 0.40602,0.79831 0.81204,2.42072 0.40602,0.35595 1.21807,0.45515 0.40602,0.30197 0.81204,0.29503 0.40602,0.96396 0.40602,0.0505 0.40603,0.94916 0.40602,0.0476 0.40602,0.31271 0.81204,1.30948 0.40602,0.32947 0.40602,0.0596 0.81204,2.01121 1.62409,9.42451 1.21806,11.38223 1.21807,10.86344 1.21806,10.75263 1.62408,15.25907 2.84215,0.0121 0.40602,0.83551 0.40602,0.36003 0.40603,1.43369 0.40602,0.90202 0.40602,1.50426 0.40602,0.18307 0.40602,1.85603 0.40602,2.52704 0.81204,0.99069 0.40603,1.02196 0.40602,1.58437 0.81204,1.43619 1.21806,1.50444 0.40602,0.01 0.40603,3.27526 h 2.0301 l 0.40602,0.70115 h 4.06021 l 0.40603,-0.46439 9.7445,0.0274 0.40603,0.78326 0.81204,0.59746 0.40602,0.35241 0.40602,1.95894 0.81204,0.90116 0.40602,2.58462 0.81205,2.83338 0.40602,0.5438 0.40602,1.83593 0.40602,0.64345 0.40602,1.66786 0.40602,0.0684 0.40602,1.36551 0.81205,0.38061 0.40602,0.13985 0.40602,0.52046 0.40602,1.2798 0.40602,0.84479 0.40602,1.95427 0.81204,7.40083 0.40602,7.02163 0.40603,3.21311 0.40602,0.079 0.40602,2.35801 0.40602,0.54592 0.40602,0.0166 0.40602,0.80891 0.40602,0.18212 0.40602,0.40918 0.40603,0.58185 0.40602,0.0313 0.40602,0.63384 0.40602,0.16987 0.40602,0.35361 0.40602,0.89278 1.21807,0.33673 0.81204,1.12444 0.40602,0.46982 0.81204,2.18425 0.40602,1.0905 1.21807,0.51556 0.40602,0.73418 0.40602,1.4978 0.40602,0.92698 0.81204,0.7174 0.40602,0.10904 0.40602,1.8249 0.40603,3.41066 0.40602,0.92663 0.40602,3.00245 0.40602,0.53051 0.81204,4.0317 0.40602,0.0241 0.40602,0.94712 0.40602,6.63278 0.40603,4.41098 0.40602,0.005 0.40602,2.61849 0.81204,13.34755 0.40602,2.82707 0.40602,0.38141 0.40602,0.21333 0.40603,0.44838 0.40602,0.77885 0.40602,2.57955 0.40602,1.3729 0.81204,1.96603 0.40602,0.23417 0.81205,0.1803 0.81204,0.54494 0.40602,1.36968 0.40602,3.11024 0.81204,0.87448 0.81204,1.03839 0.40603,0.47536 0.40602,1.37663 0.40602,0.55774 0.40602,0.20714 0.40602,0.90564 0.40602,0.29972 0.40602,0.91442 0.81205,0.56152 0.40602,0.60371 0.40602,0.004 0.40602,0.223 0.81204,1.78692 0.81204,2.92763 0.81205,6.10828 0.40602,1.08247 0.40602,0.5904 0.40602,0.0678 0.40602,0.27062 1.62409,0.28871 0.40602,0.29496 2.0301,0.44125 3.65419,0.3425 0.40603,0.32593 0.81204,0.16515 0.40602,0.004 0.81204,0.15976 3.24817,0.24281 0.81204,0.72992 0.40602,0.21563 0.40603,0.87013 0.40602,0.12282 0.40602,1.17272 0.40602,0.13721 0.40602,0.44827 0.40602,1.53328 0.40602,0.41719 0.40602,0.0409 0.40602,0.24921 0.40603,0.0117 0.40602,0.51756 0.40602,0.0516 0.81204,0.48938 0.40602,0.87148 0.40602,0.28788 2.03011,0.30429 0.40602,0.003 0.40602,0.39154 0.40602,0.61266 2.03011,0.0241 6.90236,-0.0241 0.81204,-0.35174 0.81204,-0.16134 5.27828,-0.0996 1.21806,-0.0966 1.62409,-0.4342 1.21806,-0.0945 1.21807,-0.15239 0.81204,-0.13667 4.06021,-0.77528 0.40602,-0.25307 0.40602,-0.0503 0.40602,-0.20473 0.81204,-0.14857 0.40603,-0.52158 0.40602,-0.091 0.40602,-0.27637 0.40602,-0.63314 0.40602,-0.0164 0.40602,-0.54824 0.81204,-0.1911 0.81205,-0.25297 1.21806,-0.21412 1.62409,-0.7115 0.40602,-0.29686 0.81204,-0.31627 0.81204,-0.38448 0.40602,-0.37473 1.21807,-0.46187 2.43612,-0.63033 0.40603,-0.59481 0.40602,-0.13575 0.81204,-1.15723 0.81204,-5.41747 0.40602,-1.97305 0.40602,-1.15881 0.81205,-0.21687 2.0301,-0.24091 0.81204,-0.14582 0.40602,-0.0443 0.40603,-0.23343 0.81204,-0.89065 1.21806,-2.08938 1.21807,-2.74345 2.0301,-4.04624 2.03011,-4.64466 1.62408,-3.02247 1.21807,-1.72433 0.40602,-0.28157 1.21806,-0.15772 2.43613,-0.24243 0.40602,-0.4008 1.62408,-2.35814 0.81205,-0.5901 0.40602,-0.23681 0.81204,-0.94493 1.21806,-1.88438 3.24817,-5.74919 3.24817,-8.24716 1.21807,-1.62673 0.81204,-0.96612 1.62408,-2.07788 0.40602,-0.50245 0.40603,-0.31739 0.40602,-0.10246 0.40602,-0.41884 0.40602,-0.25833 0.81204,-0.0127 0.40602,-0.18658 0.40602,-0.37092 0.40603,-0.69263 0.40602,-1.13931 1.21806,-0.41358 0.40602,-0.23001 1.62409,-0.15815 0.81204,-0.6805 1.21806,-0.71546 v 0" /></g></g><g
       id="g342"><g
         clip-path="url(#clipPath348)"
         id="g344"><path
           id="path350"
           style="fill:none;stroke:#7f7f7f;stroke-width:1.5;stroke-linecap:square;stroke-linejoin:round;stroke-miterlimit:10;stroke-dasharray:none;stroke-opacity:1"
           d="m 184.58182,209.29551 0.40602,0.21362 3.24817,0.53622 0.81204,0.43119 0.40602,0.43959 3.24817,0.18775 0.40602,1.33097 5.27828,1.15752 0.81204,0.28983 0.40602,0.18865 0.40602,0.32948 0.40602,0.88737 0.81205,0.16107 7.7144,0.34908 18.67697,0.26897 9.33849,-0.0961 4.06021,-0.68167 5.27828,-1.41402 3.65419,-1.32603 4.46623,-2.08677 4.06021,-1.94563 2.43613,-0.73703 2.84215,-0.8018 4.46623,-2.06041 4.46624,-2.50806 2.0301,-1.0505 1.21807,-0.2729 2.0301,-1.01924 2.84215,-1.49904 0.81204,-0.40598 2.03011,-0.67669 1.21806,-0.68302 1.21807,-0.38623 1.62408,-0.80467 0.81204,-0.50617 2.03011,-1.38551 0.81204,-1.0906 0.81204,-0.14943 0.40602,-0.24996 0.40603,-0.39425 0.40602,-0.67732 1.21806,-0.23044 0.40602,-0.006 0.81204,-0.42092 0.40603,-0.65642 0.81204,-0.31026 0.40602,-0.51556 0.40602,-1.902 0.40602,-0.8699 0.81204,-0.6515 2.43613,-1.17182 4.06021,-1.55302 12.99268,-5.94475 2.03011,-0.92797 4.46623,-1.33055 2.84215,-0.73306 1.21806,-0.39055 1.62409,-0.43969 1.21806,-0.41112 1.62409,-0.38971 1.62408,-0.58081 1.62408,-0.44335 0.81205,-0.52541 0.81204,-0.21053 1.21806,-0.48463 1.62409,-0.48742 0.81204,-0.11205 0.40602,-0.14329 2.03011,-0.1077 1.62408,-0.5189 0.81204,-0.53741 0.40603,-0.0823 0.81204,-0.4972 1.62408,-0.50972 1.62409,-0.22615 1.21806,-0.0333 1.21806,-0.34928 0.81205,-0.22436 2.0301,-0.92966 1.62409,-0.12785 2.84215,-0.20903 0.81204,-0.23907 0.81204,-0.48621 1.21806,-0.56543 1.21807,-0.34152 1.62408,-0.15439 8.12043,-0.58416 0.81204,-0.0613 14.61676,0.0613 2.03011,0.22558 1.62408,0.0438 3.65419,0.17151 3.24817,0.43054 1.21807,0.43975 0.81204,0.49791 2.03011,0.58596 1.21806,0.48448 0.81204,0.13518 0.40602,0.001 1.21807,0.46126 0.81204,0.30802 0.81204,0.15259 15.42881,-0.0827 0.81204,-0.58615 0.81204,-0.72824 1.62409,-0.62312 2.43612,-0.1028 0.40602,-0.12725 0.81205,-0.0213 0.40602,-0.34224 0.40602,-0.16778 1.21806,-1.0373 0.40602,-0.39773 2.03011,-0.32176 2.03011,-0.32596 0.40602,-0.25442 2.0301,-1.95825 0.40602,-0.17152 2.03011,-0.2026 0.40602,-0.11908 1.21807,-0.82521 2.0301,-0.10078 0.40602,-0.13679 2.03011,-0.10395 2.0301,-0.13825 2.03011,-0.16886 0.81204,-0.077 2.43613,-0.16177 0.81204,-0.2502 1.62409,-0.0338 15.02278,0.0834 4.06021,0.42665 2.43613,0.37997 0.81204,0.12922 2.43613,0.78865 2.0301,0.58091 1.62409,0.55123 0.81204,0.17128 1.62409,0.4821 2.84215,0.15974 2.84214,0.088 1.21807,0.19679 1.62408,0.25565 2.03011,0.59811 2.84215,1.26508 0.81204,0.069 1.21806,0.53657 4.06021,1.20624 4.06022,1.08202 0.81204,0.63572 0.81204,0.34395 0.40602,0.13331 3.24817,0.15986 2.03011,0.15921 0.40602,0.009 0.40602,0.13779 0.81204,0.0558 1.21807,0.78739 0.40602,0.10616 2.0301,1.4464 0.81205,0.86954 1.21806,0.7204 1.62408,0.24199 0.81205,0.0727 0.81204,0.36653 0.40602,0.3146 0.40602,0.16387 0.81204,0.52418 0.81205,0.42089 0.81204,0.16768 1.62408,1.60157 1.21807,0.61899 0.81204,0.23416 1.62408,0.79527 1.62409,0.39252 2.0301,0.29401 1.62409,0.14328 1.21806,0.2655 1.62409,0.12636 0.81204,0.59299 0.81204,0.0677 2.43613,1.48118 1.62408,0.5387 3.65419,0.31466 2.03011,0.24116 0.81204,0.30779 0.81205,0.26512 0.81204,0.47329 1.21806,0.39053 0.81204,0.42176 0.81205,0.0664 2.43612,1.78176 0.81205,0.55033 0.81204,0.68519 0.40602,0.22711 1.62408,1.46654 0.40603,0.29531 0.81204,0.16254 2.43613,0.0914 0.40602,0.12189 1.21806,1.03421 1.21806,1.0578 1.62409,1.24574 1.21806,0.99407 0.81204,0.15079 0.40603,0.22496 0.40602,0.0543 0.40602,0.24716 0.81204,0.97645 1.62409,0.5565 0.81204,0.20446 3.65419,0.64265 2.84215,1.02766 2.43612,1.27325 1.62409,0.76238 1.21806,0.46245 2.84215,1.52245 1.62408,0.89867 4.06022,2.3725 3.24817,1.85126 0.81204,0.607 4.46623,2.45756 7.30838,4.46057 0.81205,0.27374 2.0301,0.74069 1.62409,0.51589 1.21806,0.7018 1.21806,0.97585 0.81205,0.79894 1.21806,0.83543 1.21806,0.6474 0.81205,0.36318 2.84214,0.63669 0.81205,0.55856 0.81204,0.42906 0.81204,0.51989 0.40602,0.0307 1.21807,0.59661 1.21806,0.80953 0.81204,0.83987 2.84215,3.77602 1.21806,0.76681 0.81205,0.15857 0.40602,0.3592 1.21806,0.28123 0.81204,0.3836 0.81205,0.59858 2.84214,1.62926 0.40602,0.43138 0.40603,0.1754 0.81204,0.68925 0.40602,0.12653 0.40602,0.34647 1.21807,0.59505 2.84214,1.48637 2.84215,2.73254 1.21806,0.94392 1.62409,1.06912 0.81204,0.58904 0.40602,0.11539 1.62409,1.38706 0.81204,0.87671 1.21806,1.0134 1.62409,1.9691 0.81204,0.54762 4.46623,1.94434 5.6843,3.47206 6.09032,4.28691 10.96257,9.03716 2.03011,1.6565 4.46623,3.05453 4.87226,3.25435 8.52644,6.53724 2.43613,1.61103 1.62408,1.06693 2.43613,1.30091 2.43613,1.40912 2.84214,1.67663 3.65419,2.44944 3.6542,3.15206 5.68429,6.77057 1.62409,1.5527 3.24817,2.48476 1.62408,0.86222 1.62409,1.10774 4.87225,2.76936 1.21806,0.82757 3.24817,2.89541 4.46624,4.94362 6.90236,7.12754 2.43612,1.96625 6.90236,5.69074 2.03011,1.98388 4.46623,4.85277 1.21807,1.14329 1.62408,1.55447 0.40602,0.0591 1.21807,1.30362 0.40602,0.0613 0.81204,0.90007 0.40602,0.0563 0.40602,0.36142 0.40602,0.0472 2.43613,2.07451 1.21807,0.22751 1.21806,0.31184 0.40602,0.27949 0.40602,0.59917 0.40602,2.78814 0.81204,6.87509 0.40602,1.19793 0.40603,0.40508 0.81204,1.70648 0.40602,0.40731 0.81204,2.45918 0.40602,0.2982 0.40602,1.48892 1.62409,2.47497 0.40602,0.28568 1.21806,1.41841 0.81205,0.72412 0.40602,0.009 1.62408,1.13997 0.40602,0.60458 0.40602,0.0585 0.40603,0.66309 0.81204,0.72249 0.40602,0.22251 h 1.62408 l 0.40603,0.27286 0.40602,0.13043 1.62408,1.60497 1.21807,0.0544 h 7.30838 l 0.81204,0.48731 0.81204,0.32921 0.81204,0.49161 0.40602,0.10243 0.40603,0.29583 0.81204,0.0448 0.40602,0.22121 0.40602,0.37471 0.40602,2.15961 0.40602,0.59473 0.40602,0.1585 0.81205,7.06977 0.40602,4.67261 0.40602,0.59971 0.40602,8.87717 0.40602,0.64671 0.40602,1.62875 0.40602,1.14118 0.40603,0.79512 0.81204,0.71068 0.40602,0.66333 0.81204,0.62973 0.40602,0.0373 0.40602,0.18408 2.43613,2.01623 0.40602,0.50419 1.21807,0.94838 0.81204,1.20957 3.65419,6.1455 h 11.36859 l 0.81204,1.08828 1.21807,1.89824 0.40602,0.30194 0.81204,0.17779 1.21806,0.56489 0.81205,0.26236 1.21806,0.37511 0.81204,0.74213 0.40602,0.44877 0.81205,1.52015 2.0301,4.81947 0.81205,1.33481 0.81204,1.02384 0.40602,0.0314 0.81204,0.18555 0.40602,0.0248 0.81204,0.28429 0.40603,0.0895 0.40602,0.23783 0.81204,0.12242 2.43613,0.31184 0.81204,0.0517 1.21806,1.5009 2.43613,2.63889 0.81204,0.36075 1.21807,0.51985 2.43612,1.91403 1.62409,0.88689 3.24817,2.19645 0.81204,1.41238 0.81204,1.63722 0.40602,0.32357 0.40603,0.0173 0.40602,0.13337 1.21806,0.10993 0.40602,0.29666 0.81204,0.13475 2.03011,0.48727 0.40602,0.26386 0.81204,0.13386 0.81204,0.12581 0.40603,0.4091 0.81204,1.24783 0.40602,0.3749 0.40602,0.56046 0.40602,0.11723 0.40602,0.26892 1.62409,0.13321 3.24817,0.1723 10.96257,-0.0661 2.43613,-0.23945 0.40602,-0.42032 0.81204,-2.62372 0.81204,-1.20497 0.40602,-0.50887 1.21807,-1.03636 0.81204,-0.74699 0.81204,-0.1307 0.40602,-0.56558 0.40603,-0.15158 0.40602,-0.4387 0.81204,-0.29223 1.62408,-0.0682 0.40602,-0.69028 0.40603,-1.29365 0.81204,-1.33483 5.68429,-6.39862 2.03011,-1.9104 1.21806,-1.33374 5.27828,-8.53475 1.62409,-2.04389 1.21806,-1.196 1.21806,-1.39118 0.81204,-0.82785 1.21807,-1.5284 2.43612,-2.32436 1.21807,-1.3557 0.81204,-1.10936 1.21807,-1.19841 1.62408,-1.73506 1.62408,-1.87317 0.81205,-1.18411 1.21806,-1.94276 2.84215,-3.86188 2.43613,-3.0439 1.21806,-2.23547 1.21806,-2.26822 6.09032,-9.52775 0.40602,-0.45813 0.81204,-0.23063 0.40603,-0.0871 0.40602,-0.51935 0.40602,-0.27166 0.81204,-0.92864 1.62408,-2.88366 1.21807,-0.72037 0.40602,-0.23439 1.21806,-1.75339 0.40602,-0.73863 0.81205,-1.984 0.40602,-0.47755 2.0301,-4.10795 0.40603,-0.47817 0.40602,-0.65039 0.40602,-0.0354 0.40602,-0.53253 0.40602,-0.85855 0.40602,-0.53979 0.81204,-2.01143 0.40603,-0.52987 0.40602,-0.24206 0.40602,-0.62162 0.40602,-0.90184 0.81204,-1.10932 0.40602,-1.16872 v 0" /></g></g><g
       id="g352"><path
         id="path354"
         style="fill:none;stroke:#000000;stroke-width:0.80000001;stroke-linecap:square;stroke-linejoin:miter;stroke-miterlimit:10;stroke-dasharray:none;stroke-opacity:1"
         d="M 144,108 V 760.32" /><path
         id="path356"
         style="fill:none;stroke:#000000;stroke-width:0.80000001;stroke-linecap:square;stroke-linejoin:miter;stroke-miterlimit:10;stroke-dasharray:none;stroke-opacity:1"
         d="M 1036.8,108 V 760.32" /><path
         id="path358"
         style="fill:none;stroke:#000000;stroke-width:0.80000001;stroke-linecap:square;stroke-linejoin:miter;stroke-miterlimit:10;stroke-dasharray:none;stroke-opacity:1"
         d="m 144,108 h 892.8" /><path
         id="path360"
         style="fill:none;stroke:#000000;stroke-width:0.80000001;stroke-linecap:square;stroke-linejoin:miter;stroke-miterlimit:10;stroke-dasharray:none;stroke-opacity:1"
         d="m 144,760.32 h 892.8" /><path
         id="path362"
         style="fill:#ffffff;fill-opacity:0.8;fill-rule:nonzero;stroke:#cccccc;stroke-width:1;stroke-linecap:butt;stroke-linejoin:miter;stroke-miterlimit:10;stroke-dasharray:none;stroke-opacity:0.8"
         d="m 156.6,534.545 h 259.1625 c 2.4,0 3.6,1.2 3.6,3.6 V 747.72 c 0,2.4 -1.2,3.6 -3.6,3.6 H 156.6 c -2.4,0 -3.6,-1.2 -3.6,-3.6 V 538.145 c 0,-2.4 1.2,-3.6 3.6,-3.6 z" /><path
         id="path364"
         style="fill:none;stroke:#1f77b4;stroke-width:1.5;stroke-linecap:square;stroke-linejoin:round;stroke-miterlimit:10;stroke-dasharray:none;stroke-opacity:1"
         d="m 160.2,736.74812 h 36" /><text
         id="text368"
         style="font-variant:normal;font-weight:normal;font-size:18px;font-family:'DejaVu Sans';-inkscape-font-specification:DejaVuSans;writing-mode:lr-tb;fill:#000000;fill-opacity:1;fill-rule:nonzero;stroke:none"
         transform="matrix(1,0,0,-1,210.6,730.44812)"><tspan
           id="tspan366"
           y="0"
           x="0 13.86 24.93 35.585999 40.59 50.490002 61.560001 67.283997 82.367996 93.816002 99.540001 105.264 117.828 128.84399 139.86 144.864 150.588 164.448 175.464 190.188">Device #3, Cool Down</tspan></text>
<path
         id="path370"
         style="fill:none;stroke:#ff7f0e;stroke-width:1.5;stroke-linecap:square;stroke-linejoin:round;stroke-miterlimit:10;stroke-dasharray:none;stroke-opacity:1"
         d="m 160.2,710.32625 h 36" /><text
         id="text374"
         style="font-variant:normal;font-weight:normal;font-size:18px;font-family:'DejaVu Sans';-inkscape-font-specification:DejaVuSans;writing-mode:lr-tb;fill:#000000;fill-opacity:1;fill-rule:nonzero;stroke:none"
         transform="matrix(1,0,0,-1,210.6,704.02625)"><tspan
           id="tspan372"
           y="0"
           x="0 13.86 24.93 35.585999 40.59 50.490002 61.560001 67.283997 82.367996 93.816002 99.540001 105.264 117.828 128.84399 139.86 144.864 150.588 164.448 175.464 190.188">Device #4, Cool Down</tspan></text>
<path
         id="path376"
         style="fill:none;stroke:#2ca02c;stroke-width:1.5;stroke-linecap:square;stroke-linejoin:round;stroke-miterlimit:10;stroke-dasharray:none;stroke-opacity:1"
         d="m 160.2,683.90438 h 36" /><text
         id="text380"
         style="font-variant:normal;font-weight:normal;font-size:18px;font-family:'DejaVu Sans';-inkscape-font-specification:DejaVuSans;writing-mode:lr-tb;fill:#000000;fill-opacity:1;fill-rule:nonzero;stroke:none"
         transform="matrix(1,0,0,-1,210.6,677.60438)"><tspan
           id="tspan378"
           y="0"
           x="0 13.86 24.93 35.585999 40.59 50.490002 61.560001 67.283997 82.367996 93.816002 99.540001 105.264 117.828 128.84399 139.86 144.864 150.588 164.448 175.464 190.188">Device #5, Cool Down</tspan></text>
<path
         id="path382"
         style="fill:none;stroke:#d62728;stroke-width:1.5;stroke-linecap:square;stroke-linejoin:round;stroke-miterlimit:10;stroke-dasharray:none;stroke-opacity:1"
         d="m 160.2,657.4825 h 36" /><text
         id="text386"
         style="font-variant:normal;font-weight:normal;font-size:18px;font-family:'DejaVu Sans';-inkscape-font-specification:DejaVuSans;writing-mode:lr-tb;fill:#000000;fill-opacity:1;fill-rule:nonzero;stroke:none"
         transform="matrix(1,0,0,-1,210.6,651.1825)"><tspan
           id="tspan384"
           y="0"
           x="0 13.86 24.93 35.585999 40.59 50.490002 61.560001 67.283997 82.367996 93.816002 99.540001 105.264 117.828 128.84399 139.86 144.864 150.588 164.448 175.464 190.188">Device #6, Cool Down</tspan></text>
<path
         id="path388"
         style="fill:none;stroke:#9467bd;stroke-width:1.5;stroke-linecap:square;stroke-linejoin:round;stroke-miterlimit:10;stroke-dasharray:none;stroke-opacity:1"
         d="m 160.2,631.06062 h 36" /><text
         id="text392"
         style="font-variant:normal;font-weight:normal;font-size:18px;font-family:'DejaVu Sans';-inkscape-font-specification:DejaVuSans;writing-mode:lr-tb;fill:#000000;fill-opacity:1;fill-rule:nonzero;stroke:none"
         transform="matrix(1,0,0,-1,210.6,624.76062)"><tspan
           id="tspan390"
           y="0"
           x="0 13.86 24.93 35.585999 40.59 50.490002 61.560001 67.283997 82.367996 93.816002 99.540001 105.264 123.066 134.10001 141.498 159.03 164.754 177.92999">Device #3, Warm Up</tspan></text>
<path
         id="path394"
         style="fill:none;stroke:#8c564b;stroke-width:1.5;stroke-linecap:square;stroke-linejoin:round;stroke-miterlimit:10;stroke-dasharray:none;stroke-opacity:1"
         d="m 160.2,604.63875 h 36" /><text
         id="text398"
         style="font-variant:normal;font-weight:normal;font-size:18px;font-family:'DejaVu Sans';-inkscape-font-specification:DejaVuSans;writing-mode:lr-tb;fill:#000000;fill-opacity:1;fill-rule:nonzero;stroke:none"
         transform="matrix(1,0,0,-1,210.6,598.33875)"><tspan
           id="tspan396"
           y="0"
           x="0 13.86 24.93 35.585999 40.59 50.490002 61.560001 67.283997 82.367996 93.816002 99.540001 105.264 123.066 134.10001 141.498 159.03 164.754 177.92999">Device #4, Warm Up</tspan></text>
<path
         id="path400"
         style="fill:none;stroke:#e377c2;stroke-width:1.5;stroke-linecap:square;stroke-linejoin:round;stroke-miterlimit:10;stroke-dasharray:none;stroke-opacity:1"
         d="m 160.2,578.21688 h 36" /><text
         id="text404"
         style="font-variant:normal;font-weight:normal;font-size:18px;font-family:'DejaVu Sans';-inkscape-font-specification:DejaVuSans;writing-mode:lr-tb;fill:#000000;fill-opacity:1;fill-rule:nonzero;stroke:none"
         transform="matrix(1,0,0,-1,210.6,571.91687)"><tspan
           id="tspan402"
           y="0"
           x="0 13.86 24.93 35.585999 40.59 50.490002 61.560001 67.283997 82.367996 93.816002 99.540001 105.264 123.066 134.10001 141.498 159.03 164.754 177.92999">Device #5, Warm Up</tspan></text>
<path
         id="path406"
         style="fill:none;stroke:#7f7f7f;stroke-width:1.5;stroke-linecap:square;stroke-linejoin:round;stroke-miterlimit:10;stroke-dasharray:none;stroke-opacity:1"
         d="m 160.2,551.795 h 36" /><text
         id="text410"
         style="font-variant:normal;font-weight:normal;font-size:18px;font-family:'DejaVu Sans';-inkscape-font-specification:DejaVuSans;writing-mode:lr-tb;fill:#000000;fill-opacity:1;fill-rule:nonzero;stroke:none"
         transform="matrix(1,0,0,-1,210.6,545.495)"><tspan
           id="tspan408"
           y="0"
           x="0 13.86 24.93 35.585999 40.59 50.490002 61.560001 67.283997 82.367996 93.816002 99.540001 105.264 123.066 134.10001 141.498 159.03 164.754 177.92999">Device #6, Warm Up</tspan></text>
</g></g></svg>