<?xml version="1.0" encoding="UTF-8" standalone="no"?>
<svg
   xmlns:dc="http://purl.org/dc/elements/1.1/"
   xmlns:cc="http://creativecommons.org/ns#"
   xmlns:rdf="http://www.w3.org/1999/02/22-rdf-syntax-ns#"
   xmlns:svg="http://www.w3.org/2000/svg"
   xmlns="http://www.w3.org/2000/svg"
   viewBox="0 0 1536 1152"
   height="1152"
   width="1536"
   xml:space="preserve"
   id="svg2"
   version="1.1"><metadata
     id="metadata8"><rdf:RDF><cc:Work
         rdf:about=""><dc:format>image/svg+xml</dc:format><dc:type
           rdf:resource="http://purl.org/dc/dcmitype/StillImage" /></cc:Work></rdf:RDF></metadata><defs
     id="defs6"><clipPath
       id="clipPath22"
       clipPathUnits="userSpaceOnUse"><path
         id="path20"
         d="m 144,108 h 892.8 V 760.32 H 144 Z" /></clipPath><clipPath
       id="clipPath40"
       clipPathUnits="userSpaceOnUse"><path
         id="path38"
         d="m 144,108 h 892.8 V 760.32 H 144 Z" /></clipPath><clipPath
       id="clipPath58"
       clipPathUnits="userSpaceOnUse"><path
         id="path56"
         d="m 144,108 h 892.8 V 760.32 H 144 Z" /></clipPath><clipPath
       id="clipPath76"
       clipPathUnits="userSpaceOnUse"><path
         id="path74"
         d="m 144,108 h 892.8 V 760.32 H 144 Z" /></clipPath><clipPath
       id="clipPath94"
       clipPathUnits="userSpaceOnUse"><path
         id="path92"
         d="m 144,108 h 892.8 V 760.32 H 144 Z" /></clipPath><clipPath
       id="clipPath112"
       clipPathUnits="userSpaceOnUse"><path
         id="path110"
         d="m 144,108 h 892.8 V 760.32 H 144 Z" /></clipPath><clipPath
       id="clipPath130"
       clipPathUnits="userSpaceOnUse"><path
         id="path128"
         d="m 144,108 h 892.8 V 760.32 H 144 Z" /></clipPath><clipPath
       id="clipPath152"
       clipPathUnits="userSpaceOnUse"><path
         id="path150"
         d="m 144,108 h 892.8 V 760.32 H 144 Z" /></clipPath><clipPath
       id="clipPath174"
       clipPathUnits="userSpaceOnUse"><path
         id="path172"
         d="M -1021,-463 H 1794 V 1233 H -1021 Z" /></clipPath><clipPath
       id="clipPath184"
       clipPathUnits="userSpaceOnUse"><path
         id="path182"
         d="m 144,108 h 892.8 V 760.32 H 144 Z" /></clipPath><clipPath
       id="clipPath206"
       clipPathUnits="userSpaceOnUse"><path
         id="path204"
         d="M -1021,-463 H 1794 V 1233 H -1021 Z" /></clipPath><clipPath
       id="clipPath216"
       clipPathUnits="userSpaceOnUse"><path
         id="path214"
         d="m 144,108 h 892.8 V 760.32 H 144 Z" /></clipPath><clipPath
       id="clipPath238"
       clipPathUnits="userSpaceOnUse"><path
         id="path236"
         d="M -1021,-463 H 1794 V 1233 H -1021 Z" /></clipPath><clipPath
       id="clipPath248"
       clipPathUnits="userSpaceOnUse"><path
         id="path246"
         d="m 144,108 h 892.8 V 760.32 H 144 Z" /></clipPath><clipPath
       id="clipPath270"
       clipPathUnits="userSpaceOnUse"><path
         id="path268"
         d="M -1021,-463 H 1794 V 1233 H -1021 Z" /></clipPath><clipPath
       id="clipPath280"
       clipPathUnits="userSpaceOnUse"><path
         id="path278"
         d="m 144,108 h 892.8 V 760.32 H 144 Z" /></clipPath><clipPath
       id="clipPath302"
       clipPathUnits="userSpaceOnUse"><path
         id="path300"
         d="M -1021,-463 H 1794 V 1233 H -1021 Z" /></clipPath><clipPath
       id="clipPath312"
       clipPathUnits="userSpaceOnUse"><path
         id="path310"
         d="m 144,108 h 892.8 V 760.32 H 144 Z" /></clipPath><clipPath
       id="clipPath334"
       clipPathUnits="userSpaceOnUse"><path
         id="path332"
         d="M -1021,-463 H 1794 V 1233 H -1021 Z" /></clipPath><clipPath
       id="clipPath344"
       clipPathUnits="userSpaceOnUse"><path
         id="path342"
         d="m 144,108 h 892.8 V 760.32 H 144 Z" /></clipPath><clipPath
       id="clipPath392"
       clipPathUnits="userSpaceOnUse"><path
         id="path390"
         d="m 144,108 h 892.8 V 760.32 H 144 Z" /></clipPath><clipPath
       id="clipPath402"
       clipPathUnits="userSpaceOnUse"><path
         id="path400"
         d="m 144,108 h 892.8 V 760.32 H 144 Z" /></clipPath><clipPath
       id="clipPath412"
       clipPathUnits="userSpaceOnUse"><path
         id="path410"
         d="m 144,108 h 892.8 V 760.32 H 144 Z" /></clipPath><clipPath
       id="clipPath422"
       clipPathUnits="userSpaceOnUse"><path
         id="path420"
         d="m 144,108 h 892.8 V 760.32 H 144 Z" /></clipPath><clipPath
       id="clipPath432"
       clipPathUnits="userSpaceOnUse"><path
         id="path430"
         d="m 144,108 h 892.8 V 760.32 H 144 Z" /></clipPath><clipPath
       id="clipPath442"
       clipPathUnits="userSpaceOnUse"><path
         id="path440"
         d="m 144,108 h 892.8 V 760.32 H 144 Z" /></clipPath><clipPath
       id="clipPath452"
       clipPathUnits="userSpaceOnUse"><path
         id="path450"
         d="m 144,108 h 892.8 V 760.32 H 144 Z" /></clipPath><clipPath
       id="clipPath462"
       clipPathUnits="userSpaceOnUse"><path
         id="path460"
         d="m 144,108 h 892.8 V 760.32 H 144 Z" /></clipPath></defs><g
     transform="matrix(1.3333333,0,0,-1.3333333,0,1152)"
     id="g10"><path
       id="path12"
       style="fill:#ffffff;fill-opacity:1;fill-rule:nonzero;stroke:none"
       d="M 0,0 H 1152 V 864 H 0 Z" /><path
       id="path14"
       style="fill:#ffffff;fill-opacity:1;fill-rule:nonzero;stroke:none"
       d="m 144,108 h 892.8 V 760.32 H 144 Z" /><g
       id="g16"><g
         clip-path="url(#clipPath22)"
         id="g18"><path
           id="path24"
           style="fill:none;stroke:#b0b0b0;stroke-width:0.80000001;stroke-linecap:square;stroke-linejoin:round;stroke-miterlimit:10;stroke-dasharray:none;stroke-opacity:1"
           d="M 170.34258,108 V 760.32" /></g></g><g
       id="g26"><path
         id="path28"
         style="fill:#000000;fill-opacity:1;fill-rule:nonzero;stroke:#000000;stroke-width:0.80000001;stroke-linecap:butt;stroke-linejoin:round;stroke-miterlimit:10;stroke-dasharray:none;stroke-opacity:1"
         d="m 170.34258,108 v -3.5" /><text
         id="text32"
         style="font-variant:normal;font-weight:normal;font-size:18px;font-family:'DejaVu Sans';-inkscape-font-specification:DejaVuSans;writing-mode:lr-tb;fill:#000000;fill-opacity:1;fill-rule:nonzero;stroke:none"
         transform="matrix(1,0,0,-1,164.61602,87.328125)"><tspan
           id="tspan30"
           y="0"
           x="0">0</tspan></text>
</g><g
       id="g34"><g
         clip-path="url(#clipPath40)"
         id="g36"><path
           id="path42"
           style="fill:none;stroke:#b0b0b0;stroke-width:0.80000001;stroke-linecap:square;stroke-linejoin:round;stroke-miterlimit:10;stroke-dasharray:none;stroke-opacity:1"
           d="M 312.73493,108 V 760.32" /></g></g><g
       id="g44"><path
         id="path46"
         style="fill:#000000;fill-opacity:1;fill-rule:nonzero;stroke:#000000;stroke-width:0.80000001;stroke-linecap:butt;stroke-linejoin:round;stroke-miterlimit:10;stroke-dasharray:none;stroke-opacity:1"
         d="m 312.73493,108 v -3.5" /><text
         id="text50"
         style="font-variant:normal;font-weight:normal;font-size:18px;font-family:'DejaVu Sans';-inkscape-font-specification:DejaVuSans;writing-mode:lr-tb;fill:#000000;fill-opacity:1;fill-rule:nonzero;stroke:none"
         transform="matrix(1,0,0,-1,301.2818,87.328125)"><tspan
           id="tspan48"
           y="0"
           x="0 11.448">50</tspan></text>
</g><g
       id="g52"><g
         clip-path="url(#clipPath58)"
         id="g54"><path
           id="path60"
           style="fill:none;stroke:#b0b0b0;stroke-width:0.80000001;stroke-linecap:square;stroke-linejoin:round;stroke-miterlimit:10;stroke-dasharray:none;stroke-opacity:1"
           d="M 455.12727,108 V 760.32" /></g></g><g
       id="g62"><path
         id="path64"
         style="fill:#000000;fill-opacity:1;fill-rule:nonzero;stroke:#000000;stroke-width:0.80000001;stroke-linecap:butt;stroke-linejoin:round;stroke-miterlimit:10;stroke-dasharray:none;stroke-opacity:1"
         d="m 455.12727,108 v -3.5" /><text
         id="text68"
         style="font-variant:normal;font-weight:normal;font-size:18px;font-family:'DejaVu Sans';-inkscape-font-specification:DejaVuSans;writing-mode:lr-tb;fill:#000000;fill-opacity:1;fill-rule:nonzero;stroke:none"
         transform="matrix(1,0,0,-1,437.94759,87.328125)"><tspan
           id="tspan66"
           y="0"
           x="0 11.448 22.896">100</tspan></text>
</g><g
       id="g70"><g
         clip-path="url(#clipPath76)"
         id="g72"><path
           id="path78"
           style="fill:none;stroke:#b0b0b0;stroke-width:0.80000001;stroke-linecap:square;stroke-linejoin:round;stroke-miterlimit:10;stroke-dasharray:none;stroke-opacity:1"
           d="M 597.51962,108 V 760.32" /></g></g><g
       id="g80"><path
         id="path82"
         style="fill:#000000;fill-opacity:1;fill-rule:nonzero;stroke:#000000;stroke-width:0.80000001;stroke-linecap:butt;stroke-linejoin:round;stroke-miterlimit:10;stroke-dasharray:none;stroke-opacity:1"
         d="m 597.51962,108 v -3.5" /><text
         id="text86"
         style="font-variant:normal;font-weight:normal;font-size:18px;font-family:'DejaVu Sans';-inkscape-font-specification:DejaVuSans;writing-mode:lr-tb;fill:#000000;fill-opacity:1;fill-rule:nonzero;stroke:none"
         transform="matrix(1,0,0,-1,580.33993,87.328125)"><tspan
           id="tspan84"
           y="0"
           x="0 11.448 22.896">150</tspan></text>
</g><g
       id="g88"><g
         clip-path="url(#clipPath94)"
         id="g90"><path
           id="path96"
           style="fill:none;stroke:#b0b0b0;stroke-width:0.80000001;stroke-linecap:square;stroke-linejoin:round;stroke-miterlimit:10;stroke-dasharray:none;stroke-opacity:1"
           d="M 739.91196,108 V 760.32" /></g></g><g
       id="g98"><path
         id="path100"
         style="fill:#000000;fill-opacity:1;fill-rule:nonzero;stroke:#000000;stroke-width:0.80000001;stroke-linecap:butt;stroke-linejoin:round;stroke-miterlimit:10;stroke-dasharray:none;stroke-opacity:1"
         d="m 739.91196,108 v -3.5" /><text
         id="text104"
         style="font-variant:normal;font-weight:normal;font-size:18px;font-family:'DejaVu Sans';-inkscape-font-specification:DejaVuSans;writing-mode:lr-tb;fill:#000000;fill-opacity:1;fill-rule:nonzero;stroke:none"
         transform="matrix(1,0,0,-1,722.73227,87.328125)"><tspan
           id="tspan102"
           y="0"
           x="0 11.448 22.896">200</tspan></text>
</g><g
       id="g106"><g
         clip-path="url(#clipPath112)"
         id="g108"><path
           id="path114"
           style="fill:none;stroke:#b0b0b0;stroke-width:0.80000001;stroke-linecap:square;stroke-linejoin:round;stroke-miterlimit:10;stroke-dasharray:none;stroke-opacity:1"
           d="M 882.30431,108 V 760.32" /></g></g><g
       id="g116"><path
         id="path118"
         style="fill:#000000;fill-opacity:1;fill-rule:nonzero;stroke:#000000;stroke-width:0.80000001;stroke-linecap:butt;stroke-linejoin:round;stroke-miterlimit:10;stroke-dasharray:none;stroke-opacity:1"
         d="m 882.30431,108 v -3.5" /><text
         id="text122"
         style="font-variant:normal;font-weight:normal;font-size:18px;font-family:'DejaVu Sans';-inkscape-font-specification:DejaVuSans;writing-mode:lr-tb;fill:#000000;fill-opacity:1;fill-rule:nonzero;stroke:none"
         transform="matrix(1,0,0,-1,865.12462,87.328125)"><tspan
           id="tspan120"
           y="0"
           x="0 11.448 22.896">250</tspan></text>
</g><g
       id="g124"><g
         clip-path="url(#clipPath130)"
         id="g126"><path
           id="path132"
           style="fill:none;stroke:#b0b0b0;stroke-width:0.80000001;stroke-linecap:square;stroke-linejoin:round;stroke-miterlimit:10;stroke-dasharray:none;stroke-opacity:1"
           d="M 1024.6967,108 V 760.32" /></g></g><g
       id="g134"><path
         id="path136"
         style="fill:#000000;fill-opacity:1;fill-rule:nonzero;stroke:#000000;stroke-width:0.80000001;stroke-linecap:butt;stroke-linejoin:round;stroke-miterlimit:10;stroke-dasharray:none;stroke-opacity:1"
         d="m 1024.6967,108 v -3.5" /><text
         id="text140"
         style="font-variant:normal;font-weight:normal;font-size:18px;font-family:'DejaVu Sans';-inkscape-font-specification:DejaVuSans;writing-mode:lr-tb;fill:#000000;fill-opacity:1;fill-rule:nonzero;stroke:none"
         transform="matrix(1,0,0,-1,1007.517,87.328125)"><tspan
           id="tspan138"
           y="0"
           x="0 11.448 22.896">300</tspan></text>
<text
         id="text144"
         style="font-variant:normal;font-weight:normal;font-size:18px;font-family:'DejaVu Sans';-inkscape-font-specification:DejaVuSans;writing-mode:lr-tb;fill:#000000;fill-opacity:1;fill-rule:nonzero;stroke:none"
         transform="matrix(1,0,0,-1,520.04844,65.90625)"><tspan
           id="tspan142"
           y="0"
           x="0 10.998 22.068001 39.599998 51.029999 62.099998 69.498001 80.531998 87.587997 99 106.398 117.468 123.192 128.916">Temperature, K</tspan></text>
</g><g
       id="g146"><g
         clip-path="url(#clipPath152)"
         id="g148"><path
           id="path154"
           style="fill:none;stroke:#b0b0b0;stroke-width:0.80000001;stroke-linecap:square;stroke-linejoin:round;stroke-miterlimit:10;stroke-dasharray:none;stroke-opacity:1"
           d="m 144,191.64947 h 892.8" /></g></g><g
       id="g156"><path
         id="path158"
         style="fill:#000000;fill-opacity:1;fill-rule:nonzero;stroke:#000000;stroke-width:0.80000001;stroke-linecap:butt;stroke-linejoin:round;stroke-miterlimit:10;stroke-dasharray:none;stroke-opacity:1"
         d="m 144,191.64947 h -3.5" /><g
         transform="translate(70.390625,184.81353)"
         id="g160"><text
           id="text164"
           style="font-variant:normal;font-weight:normal;font-size:18px;font-family:'DejaVu Sans';-inkscape-font-specification:DejaVuSans;writing-mode:lr-tb;fill:#000000;fill-opacity:1;fill-rule:nonzero;stroke:none"
           transform="matrix(1,0,0,-1,15.082031,0)"><tspan
             id="tspan162"
             y="0"
             x="0 11.448 17.172001 28.620001 40.068001">0.006</tspan></text>
<g
           transform="scale(0.018)"
           id="g166"><g
             id="g168"><g
               clip-path="url(#clipPath174)"
               id="g170"><path
                 id="path176"
                 style="fill:#000000;fill-opacity:1;fill-rule:nonzero;stroke:none"
                 d="M 106,355 H 732 V 272 H 106 v 83" /></g></g></g></g></g><g
       id="g178"><g
         clip-path="url(#clipPath184)"
         id="g180"><path
           id="path186"
           style="fill:none;stroke:#b0b0b0;stroke-width:0.80000001;stroke-linecap:square;stroke-linejoin:round;stroke-miterlimit:10;stroke-dasharray:none;stroke-opacity:1"
           d="m 144,282.9871 h 892.8" /></g></g><g
       id="g188"><path
         id="path190"
         style="fill:#000000;fill-opacity:1;fill-rule:nonzero;stroke:#000000;stroke-width:0.80000001;stroke-linecap:butt;stroke-linejoin:round;stroke-miterlimit:10;stroke-dasharray:none;stroke-opacity:1"
         d="m 144,282.9871 h -3.5" /><g
         transform="translate(70.390625,276.15116)"
         id="g192"><text
           id="text196"
           style="font-variant:normal;font-weight:normal;font-size:18px;font-family:'DejaVu Sans';-inkscape-font-specification:DejaVuSans;writing-mode:lr-tb;fill:#000000;fill-opacity:1;fill-rule:nonzero;stroke:none"
           transform="matrix(1,0,0,-1,15.082031,0)"><tspan
             id="tspan194"
             y="0"
             x="0 11.448 17.172001 28.620001 40.068001">0.005</tspan></text>
<g
           transform="scale(0.018)"
           id="g198"><g
             id="g200"><g
               clip-path="url(#clipPath206)"
               id="g202"><path
                 id="path208"
                 style="fill:#000000;fill-opacity:1;fill-rule:nonzero;stroke:none"
                 d="M 106,355 H 732 V 272 H 106 v 83" /></g></g></g></g></g><g
       id="g210"><g
         clip-path="url(#clipPath216)"
         id="g212"><path
           id="path218"
           style="fill:none;stroke:#b0b0b0;stroke-width:0.80000001;stroke-linecap:square;stroke-linejoin:round;stroke-miterlimit:10;stroke-dasharray:none;stroke-opacity:1"
           d="m 144,374.32473 h 892.8" /></g></g><g
       id="g220"><path
         id="path222"
         style="fill:#000000;fill-opacity:1;fill-rule:nonzero;stroke:#000000;stroke-width:0.80000001;stroke-linecap:butt;stroke-linejoin:round;stroke-miterlimit:10;stroke-dasharray:none;stroke-opacity:1"
         d="m 144,374.32473 h -3.5" /><g
         transform="translate(70.390625,367.48879)"
         id="g224"><text
           id="text228"
           style="font-variant:normal;font-weight:normal;font-size:18px;font-family:'DejaVu Sans';-inkscape-font-specification:DejaVuSans;writing-mode:lr-tb;fill:#000000;fill-opacity:1;fill-rule:nonzero;stroke:none"
           transform="matrix(1,0,0,-1,15.082031,0)"><tspan
             id="tspan226"
             y="0"
             x="0 11.448 17.172001 28.620001 40.068001">0.004</tspan></text>
<g
           transform="scale(0.018)"
           id="g230"><g
             id="g232"><g
               clip-path="url(#clipPath238)"
               id="g234"><path
                 id="path240"
                 style="fill:#000000;fill-opacity:1;fill-rule:nonzero;stroke:none"
                 d="M 106,355 H 732 V 272 H 106 v 83" /></g></g></g></g></g><g
       id="g242"><g
         clip-path="url(#clipPath248)"
         id="g244"><path
           id="path250"
           style="fill:none;stroke:#b0b0b0;stroke-width:0.80000001;stroke-linecap:square;stroke-linejoin:round;stroke-miterlimit:10;stroke-dasharray:none;stroke-opacity:1"
           d="m 144,465.66235 h 892.8" /></g></g><g
       id="g252"><path
         id="path254"
         style="fill:#000000;fill-opacity:1;fill-rule:nonzero;stroke:#000000;stroke-width:0.80000001;stroke-linecap:butt;stroke-linejoin:round;stroke-miterlimit:10;stroke-dasharray:none;stroke-opacity:1"
         d="m 144,465.66235 h -3.5" /><g
         transform="translate(70.390625,458.82642)"
         id="g256"><text
           id="text260"
           style="font-variant:normal;font-weight:normal;font-size:18px;font-family:'DejaVu Sans';-inkscape-font-specification:DejaVuSans;writing-mode:lr-tb;fill:#000000;fill-opacity:1;fill-rule:nonzero;stroke:none"
           transform="matrix(1,0,0,-1,15.082031,0)"><tspan
             id="tspan258"
             y="0"
             x="0 11.448 17.172001 28.620001 40.068001">0.003</tspan></text>
<g
           transform="scale(0.018)"
           id="g262"><g
             id="g264"><g
               clip-path="url(#clipPath270)"
               id="g266"><path
                 id="path272"
                 style="fill:#000000;fill-opacity:1;fill-rule:nonzero;stroke:none"
                 d="M 106,355 H 732 V 272 H 106 v 83" /></g></g></g></g></g><g
       id="g274"><g
         clip-path="url(#clipPath280)"
         id="g276"><path
           id="path282"
           style="fill:none;stroke:#b0b0b0;stroke-width:0.80000001;stroke-linecap:square;stroke-linejoin:round;stroke-miterlimit:10;stroke-dasharray:none;stroke-opacity:1"
           d="m 144,556.99998 h 892.8" /></g></g><g
       id="g284"><path
         id="path286"
         style="fill:#000000;fill-opacity:1;fill-rule:nonzero;stroke:#000000;stroke-width:0.80000001;stroke-linecap:butt;stroke-linejoin:round;stroke-miterlimit:10;stroke-dasharray:none;stroke-opacity:1"
         d="m 144,556.99998 h -3.5" /><g
         transform="translate(70.390625,550.16404)"
         id="g288"><text
           id="text292"
           style="font-variant:normal;font-weight:normal;font-size:18px;font-family:'DejaVu Sans';-inkscape-font-specification:DejaVuSans;writing-mode:lr-tb;fill:#000000;fill-opacity:1;fill-rule:nonzero;stroke:none"
           transform="matrix(1,0,0,-1,15.082031,0)"><tspan
             id="tspan290"
             y="0"
             x="0 11.448 17.172001 28.620001 40.068001">0.002</tspan></text>
<g
           transform="scale(0.018)"
           id="g294"><g
             id="g296"><g
               clip-path="url(#clipPath302)"
               id="g298"><path
                 id="path304"
                 style="fill:#000000;fill-opacity:1;fill-rule:nonzero;stroke:none"
                 d="M 106,355 H 732 V 272 H 106 v 83" /></g></g></g></g></g><g
       id="g306"><g
         clip-path="url(#clipPath312)"
         id="g308"><path
           id="path314"
           style="fill:none;stroke:#b0b0b0;stroke-width:0.80000001;stroke-linecap:square;stroke-linejoin:round;stroke-miterlimit:10;stroke-dasharray:none;stroke-opacity:1"
           d="m 144,648.33761 h 892.8" /></g></g><g
       id="g316"><path
         id="path318"
         style="fill:#000000;fill-opacity:1;fill-rule:nonzero;stroke:#000000;stroke-width:0.80000001;stroke-linecap:butt;stroke-linejoin:round;stroke-miterlimit:10;stroke-dasharray:none;stroke-opacity:1"
         d="m 144,648.33761 h -3.5" /><g
         transform="translate(70.390625,641.50167)"
         id="g320"><text
           id="text324"
           style="font-variant:normal;font-weight:normal;font-size:18px;font-family:'DejaVu Sans';-inkscape-font-specification:DejaVuSans;writing-mode:lr-tb;fill:#000000;fill-opacity:1;fill-rule:nonzero;stroke:none"
           transform="matrix(1,0,0,-1,15.082031,0)"><tspan
             id="tspan322"
             y="0"
             x="0 11.448 17.172001 28.620001 40.068001">0.001</tspan></text>
<g
           transform="scale(0.018)"
           id="g326"><g
             id="g328"><g
               clip-path="url(#clipPath334)"
               id="g330"><path
                 id="path336"
                 style="fill:#000000;fill-opacity:1;fill-rule:nonzero;stroke:none"
                 d="M 106,355 H 732 V 272 H 106 v 83" /></g></g></g></g></g><g
       id="g338"><g
         clip-path="url(#clipPath344)"
         id="g340"><path
           id="path346"
           style="fill:none;stroke:#b0b0b0;stroke-width:0.80000001;stroke-linecap:square;stroke-linejoin:round;stroke-miterlimit:10;stroke-dasharray:none;stroke-opacity:1"
           d="m 144,739.67524 h 892.8" /></g></g><g
       id="g348"><path
         id="path350"
         style="fill:#000000;fill-opacity:1;fill-rule:nonzero;stroke:#000000;stroke-width:0.80000001;stroke-linecap:butt;stroke-linejoin:round;stroke-miterlimit:10;stroke-dasharray:none;stroke-opacity:1"
         d="m 144,739.67524 h -3.5" /><text
         id="text354"
         style="font-variant:normal;font-weight:normal;font-size:18px;font-family:'DejaVu Sans';-inkscape-font-specification:DejaVuSans;writing-mode:lr-tb;fill:#000000;fill-opacity:1;fill-rule:nonzero;stroke:none"
         transform="matrix(1,0,0,-1,85.46875,732.8393)"><tspan
           id="tspan352"
           y="0"
           x="0 11.448 17.172001 28.620001 40.068001">0.000</tspan></text>
<g
         transform="rotate(90,-145.13469,203.52531)"
         id="g356"><text
           id="text360"
           style="font-variant:normal;font-weight:normal;font-size:18px;font-family:'DejaVu Sans';-inkscape-font-specification:DejaVuSans;writing-mode:lr-tb;fill:#000000;fill-opacity:1;fill-rule:nonzero;stroke:none"
           transform="matrix(1,0,0,-1,0,0.371875)"><tspan
             id="tspan358"
             y="0"
             x="0 11.425781 22.5 33.908203 43.286133 48.287109 55.344727 60.345703 70.998047 75.999023 83.056641 93.708984">Sensitivity </tspan></text>
<text
           id="text364"
           style="font-variant:normal;font-weight:normal;font-size:12.60000038px;font-family:'DejaVu Sans';-inkscape-font-specification:DejaVuSans;writing-mode:lr-tb;fill:#000000;fill-opacity:1;fill-rule:nonzero;stroke:none"
           transform="matrix(1,0,0,-1,99.430664,8.2546875)"><tspan
             id="tspan362"
             y="0"
             x="0">1</tspan></text>
<text
           id="text372"
           style="font-style:italic;font-variant:normal;font-size:12.60000038px;font-family:'DejaVu Sans';-inkscape-font-specification:DejaVuSans-Oblique;writing-mode:lr-tb;fill:#000000;fill-opacity:1;fill-rule:nonzero;stroke:none"
           transform="matrix(1,0,0,-1,99.430664,-6.721875)"><tspan
             id="tspan366"
             y="0"
             x="0">C</tspan><tspan
             id="tspan368"
             y="-15.151563"
             x="11.047852 19.045898">dC</tspan><tspan
             id="tspan370"
             y="0.21875"
             x="12.047852 20.045898">dT</tspan></text>
<text
           id="text376"
           style="font-variant:normal;font-weight:normal;font-size:18px;font-family:'DejaVu Sans';-inkscape-font-specification:DejaVuSans;writing-mode:lr-tb;fill:#000000;fill-opacity:1;fill-rule:nonzero;stroke:none"
           transform="matrix(1,0,0,-1,129.52441,0.371875)"><tspan
             id="tspan374"
             y="0"
             x="0 5.7216797 11.443359 22.895508 28.959961">, 1/K</tspan></text>
<g
           id="g378"><path
             id="path380"
             style="fill:#000000;fill-opacity:1;fill-rule:nonzero;stroke:none"
             d="m 99.430664,3.7546875 h 8.797856 v 1.125 h -8.797856 z" /></g><g
           id="g382"><path
             id="path384"
             style="fill:#000000;fill-opacity:1;fill-rule:nonzero;stroke:none"
             d="m 110.47852,3.7546875 h 16.79589 v 1.125 h -16.79589 z" /></g></g></g><g
       id="g386"><g
         clip-path="url(#clipPath392)"
         id="g388"><path
           id="path394"
           style="fill:none;stroke:#1f77b4;stroke-width:1.5;stroke-linecap:square;stroke-linejoin:round;stroke-miterlimit:10;stroke-dasharray:none;stroke-opacity:1"
           d="m 184.58182,730.66909 1.62408,-1.4851 2.43613,-2.64503 2.84215,-3.51777 4.87225,-6.53347 5.6843,-7.97717 3.24817,-4.91791 2.0301,-3.46324 2.43613,-4.56027 3.65419,-7.44615 3.65419,-7.84924 1.21807,-2.98877 5.27827,-14.73729 6.49634,-19.15638 8.12043,-26.1619 3.24816,-11.09735 15.83483,-57.70965 2.84215,-11.30102 8.12042,-32.93745 11.77462,-46.28799 9.33849,-35.82204 6.09031,-23.22353 3.65419,-14.07576 3.24817,-12.36564 5.27828,-18.84153 3.65419,-12.08902 2.84215,-8.9311 6.90236,-20.43835 4.87225,-13.88959 2.84215,-8.28885 3.65419,-9.73187 3.24817,-8.14539 3.65419,-8.38564 2.43613,-4.8381 1.21806,-2.15201 1.21807,-1.19666 1.62408,-1.28277 2.43613,-1.51967 1.62408,-0.72097 1.21807,-0.28889 1.62408,-0.0714 4.06021,0.14407 1.21807,0.19377 1.62408,0.5214 2.03011,0.95709 2.43612,1.42382 2.84215,1.89537 8.93247,6.34086 3.65419,3.17012 4.06021,3.84071 2.03011,2.1121 2.43613,2.92506 1.62408,1.78674 5.27828,5.47388 8.52644,8.4136 0.40602,0.21822 0.81204,0.0656 2.43613,-0.11566 2.03011,-0.27633 2.43613,-0.57398 4.06021,-1.27403 2.0301,-0.79077 2.43613,-1.1804 4.06021,-2.19283 7.7144,-4.58924 5.27828,-3.28957 6.49634,-4.13749 6.09032,-3.56568 0.81204,-0.40686 0.81204,-0.059 2.84215,1.02778 5.6843,2.54229 4.87225,2.32574 19.083,9.55069 0.81204,0.0362 0.81204,-0.15361 3.24817,-1.18072 2.84215,-1.16547 0.81204,-0.57549 0.81204,-0.7854 9.74451,-11.04851 8.12043,-9.06807 1.21806,-1.1596 0.81204,-0.82665 0.81204,-0.5915 3.6542,-1.92041 2.0301,-0.81299 1.21807,-0.33299 2.84214,-0.30302 4.46624,-0.32661 2.43612,0.1314 2.84215,0.31142 3.24817,0.63509 2.43613,0.70465 2.43613,0.8604 2.84214,1.23878 0.81205,0.62414 1.21806,1.32925 3.65419,4.95649 2.84215,4.14957 1.21806,2.43097 4.87226,11.02997 13.80472,31.65967 0.81204,1.2636 1.21806,1.4039 2.84215,2.43987 2.03011,1.44483 1.62408,0.90062 1.21807,0.407 6.09031,1.54854 2.03011,0.32097 3.24817,0.53827 4.46623,0.87742 0.81205,0.48747 0.81204,0.88216 6.90236,9.56662 6.49634,9.52174 3.65419,5.70348 12.18063,19.88118 10.96258,18.86414 4.06021,7.57136 15.4288,29.43269 0.81205,1.02453 1.21806,1.0124 10.96257,8.37199 3.24817,2.24496 3.24817,1.93581 10.15053,5.72087 13.3987,6.84466 16.24085,7.71452 4.06021,1.65037 3.24817,1.12196 5.27827,1.58381 3.65419,0.85526 4.46624,0.8194 3.24817,0.41729 2.84215,0.12052 2.84214,-0.01 5.27828,-0.32845 7.7144,-0.75396 2.03011,-0.15505 0.81204,0.32315 4.06021,2.74657 5.27828,3.74193 3.24817,2.61918 2.84215,2.52374 3.65419,3.55583 4.87225,4.95615 5.27828,5.64138 4.06021,4.87568 4.46623,5.75013 3.65419,5.05145 4.06021,5.95393 3.65419,5.74851 7.30839,11.9472 4.06021,6.60727 1.21806,1.21204 9.33849,8.50574 2.84215,2.2681 2.84215,2.03274 7.7144,4.86757 2.43613,1.58499 1.21806,0.99652 7.7144,8.06778 12.99268,12.7087 4.87225,4.05507 4.06022,3.09262 4.46623,3.14894 4.46623,2.9038 4.46624,2.57908 4.87225,2.49015 3.24817,1.36493 3.65419,1.26901 4.06021,1.16364 1.62409,0.23944 1.21806,-0.2122 3.65419,-1.09522 4.46623,-1.52229 2.43613,-1.03346 5.27828,-2.59497 6.49634,-3.43535 5.27827,-2.8801 v 0" /></g></g><g
       id="g396"><g
         clip-path="url(#clipPath402)"
         id="g398"><path
           id="path404"
           style="fill:none;stroke:#ff7f0e;stroke-width:1.5;stroke-linecap:square;stroke-linejoin:round;stroke-miterlimit:10;stroke-dasharray:none;stroke-opacity:1"
           d="m 184.58182,723.83182 5.68429,-4.76974 1.21807,-1.33507 1.21806,-1.69113 1.62409,-2.7708 2.0301,-4.0269 2.03011,-4.53215 2.43613,-6.15271 2.84214,-7.90588 2.84215,-8.66078 3.24817,-10.48121 2.43613,-8.72704 2.84215,-11.37165 5.68429,-23.65437 4.06022,-16.88377 3.65419,-14.351 7.30838,-30.56136 10.15053,-43.8669 7.30838,-32.48791 7.30838,-33.72381 4.46623,-18.53125 4.87226,-18.83172 2.84215,-10.24141 2.0301,-6.48607 5.27828,-16.15545 8.12042,-24.37565 2.84215,-7.44726 8.12042,-20.66599 12.58666,-30.29643 1.62409,-3.63715 1.21806,-2.15472 1.21806,-1.42995 7.71441,-8.52338 3.24817,-3.50611 4.06021,-4.70217 10.96257,-12.92968 6.49634,-8.63081 8.52644,-11.96654 5.6843,-7.61937 4.87225,-6.14342 2.84215,-3.22366 2.03011,-2.04062 1.21806,-1.05848 0.81204,-0.44309 2.43613,-0.52097 3.65419,-0.46617 3.24817,-0.15798 2.03011,0.0729 2.0301,0.2536 2.03011,0.44958 3.24817,1.09036 2.03011,0.93307 2.84214,1.62261 2.43613,1.62227 2.03011,1.58628 3.24817,3.13092 2.43612,2.66071 2.03011,2.49732 5.6843,7.59594 4.46623,6.38848 4.06021,6.12691 10.55655,16.31762 1.21807,1.16145 12.99267,11.36054 5.27828,4.40459 2.43613,1.75919 2.43612,1.57513 1.62409,0.60284 1.62408,0.44257 2.03011,0.3934 2.84215,0.24937 3.24817,-0.004 3.24817,-0.29822 2.43612,-0.60735 2.03011,-0.73761 3.24817,-1.4382 2.03011,-1.12387 0.81204,-0.69155 0.81204,-0.92523 1.21806,-1.7352 2.43613,-4.07305 2.84215,-5.15313 0.81204,-1.68453 1.21807,-3.17962 2.43612,-7.6491 12.18064,-39.16528 3.24817,-10.15194 1.21806,-2.6527 3.65419,-6.57009 3.24817,-5.4745 1.21807,-1.75467 2.0301,-2.5096 2.43613,-2.65112 2.43613,-2.17658 2.0301,-1.59155 2.43613,-1.47573 2.84215,-1.51646 1.21806,-0.45545 2.03011,-0.46674 1.62408,-0.12611 0.81204,0.0734 0.81205,0.31232 1.21806,0.88182 1.62408,1.34535 1.21807,1.41703 1.21806,1.88551 1.62409,2.94178 2.84215,5.58926 2.0301,4.33257 1.21806,3.36157 2.43613,7.98924 2.84215,9.81324 4.46623,16.83739 8.93247,33.67546 2.43613,6.44747 10.55655,27.11576 4.46623,10.74945 5.6843,13.34138 3.24817,7.33535 2.0301,4.2037 1.21807,2.00363 12.99268,17.7466 4.06021,5.98894 1.62408,1.98076 5.6843,6.40677 4.87225,5.54957 8.12043,8.20135 2.84214,2.57212 8.93247,7.46615 3.24817,2.44104 10.96257,7.79722 7.7144,5.1086 1.62409,0.88777 2.84215,1.25187 4.46623,1.75194 3.65419,1.20324 3.24817,0.80974 5.27828,1.02244 5.68429,0.89107 8.52645,1.08806 5.27827,0.53017 4.06022,0.38817 1.21806,0.27561 0.81204,0.38243 2.03011,1.35455 8.93246,6.19535 18.27096,12.75762 5.27827,3.35427 3.24817,1.84354 15.02279,8.39245 1.62408,1.50867 1.62409,1.89346 3.65419,4.25335 1.21806,1.09234 2.84215,1.8661 14.61676,9.48653 4.87226,3.59668 4.06021,3.26068 4.06021,3.5742 3.24817,3.11682 4.06021,4.19932 5.6843,6.16804 5.68429,6.63013 3.6542,4.33874 1.62408,1.37382 1.21806,0.74892 9.33849,5.02277 7.30838,3.62264 5.6843,2.66508 5.6843,2.33616 3.24817,1.12675 5.27827,1.56585 7.30838,1.82449 4.46624,0.94113 5.27827,0.78593 7.30838,0.59307 4.46624,0.0546 10.96257,-0.14494 7.7144,-0.47184 12.58666,-1.08133 4.87225,-0.60385 7.30838,-1.11751 5.6843,-1.17121 11.77461,-2.43801 2.84215,-0.44301 17.86494,57.92143 12.18063,39.9434 v 0" /></g></g><g
       id="g406"><g
         clip-path="url(#clipPath412)"
         id="g408"><path
           id="path414"
           style="fill:none;stroke:#2ca02c;stroke-width:1.5;stroke-linecap:square;stroke-linejoin:round;stroke-miterlimit:10;stroke-dasharray:none;stroke-opacity:1"
           d="m 184.58182,730.619 1.62408,-0.98624 1.21807,-0.87131 0.81204,-0.78826 2.43613,-3.02381 2.84214,-3.77975 2.84215,-4.1639 3.65419,-5.73094 2.03011,-3.52529 1.21806,-2.47771 5.6843,-12.9196 4.87225,-11.70148 4.06022,-10.26145 3.24816,-8.83672 8.12043,-23.01142 2.84215,-9.35081 2.84215,-10.02447 2.84214,-10.94249 3.24817,-13.30221 4.87226,-21.79111 10.15053,-48.62977 6.49634,-34.25947 2.84214,-15.34478 4.87226,-26.29728 5.27827,-31.41475 7.30839,-43.61435 4.06021,-23.04698 3.24817,-17.28095 2.0301,-9.9836 2.03011,-8.07208 2.43613,-8.91315 3.24817,-10.82837 2.0301,-6.22375 3.65419,-10.13183 1.62409,-4.07627 1.62408,-3.43402 4.06021,-7.88409 1.62409,-2.72417 1.21806,-1.58606 2.84215,-2.8498 3.24817,-2.85645 0.81204,-0.51712 0.81205,-0.32234 2.0301,-0.38744 2.43613,-0.28175 1.62408,-0.082 0.81205,0.0726 0.81204,0.27039 1.62408,1.00917 2.03011,1.53888 2.43613,2.18823 8.93246,9.26887 5.6843,6.28111 1.21806,1.20989 1.21807,0.36746 9.33848,2.56779 8.12043,2.76871 7.7144,2.54322 3.24817,0.80521 4.06021,0.7903 2.84215,0.35705 2.43613,0.12539 2.43612,-0.1137 1.21807,-0.15809 2.43613,-0.6554 2.43612,-0.92299 5.6843,-2.31467 4.46623,-2.04706 3.65419,-1.6741 0.40602,0.0131 1.21807,0.50051 5.68429,2.68259 3.6542,2.30569 5.68429,3.71582 7.7144,5.71776 3.24817,2.64285 2.43613,2.22673 3.24817,3.28376 3.24817,3.5667 3.65419,4.37015 2.84215,3.71267 2.43613,3.5678 6.49634,9.82542 4.06021,5.81467 2.84215,3.49046 1.62408,1.75792 0.40602,0.35755 0.40602,0.20898 0.81205,0.10179 1.62408,-0.0909 2.43613,-0.29714 1.62408,-0.33104 0.81204,-0.36642 1.21807,-0.96852 0.81204,-0.88055 1.21806,-1.75042 2.84215,-4.59864 2.03011,-3.60831 1.62408,-3.42648 10.96257,-24.40143 5.6843,-12.80426 2.43613,-4.50811 0.81204,-1.14874 0.81204,-0.87192 0.81205,-0.54481 2.43612,-1.22302 2.03011,-0.83964 1.62408,-0.46786 1.62409,-0.11378 3.65419,0.0293 2.84215,0.2249 1.62408,0.43768 1.62409,0.73979 2.43612,1.49455 2.03011,1.52716 1.62409,1.43422 2.84214,3.0679 2.84215,3.35136 1.21807,1.86368 1.21806,2.23744 1.62408,3.70524 3.24817,7.96771 2.03011,5.49385 4.06021,12.0451 4.46623,13.73764 9.33849,29.5451 2.03011,5.49863 1.21806,2.68424 0.81204,1.43714 3.65419,5.01257 2.43613,2.96183 1.21807,1.22808 3.65419,3.14381 2.84214,2.22734 1.62409,1.07129 2.0301,1.03592 4.87226,2.20871 2.84215,1.07562 4.46623,1.64825 2.43613,1.77664 6.49634,4.92159 2.43613,2.14876 4.87225,4.51373 4.46623,3.4092 2.43613,1.92987 6.90236,6.07719 7.30838,6.70017 5.27828,5.08558 3.65419,3.8179 8.12042,8.83509 4.46623,4.88688 2.03011,2.08566 1.62408,1.02056 3.24817,1.68859 2.84215,1.21243 2.03011,0.67059 2.0301,0.45614 4.87226,1.09932 5.27827,1.11458 2.03011,0.20108 1.62408,0.22508 3.24817,1.6081 7.30839,3.91318 3.65419,2.20605 6.09032,4.01072 14.61676,9.89075 1.62408,1.38876 2.03011,2.14143 2.43613,2.91948 2.43612,3.26711 8.93247,12.25018 3.24817,4.03154 5.6843,6.62703 6.90236,5.44696 3.24816,2.30006 3.24818,2.04371 10.15052,6.17984 3.24817,1.89473 6.09032,3.31339 0.81204,0.2533 1.62409,0.15523 0.40602,-0.018 1.62409,-0.71682 1.62408,-1.0474 2.03011,-1.51056 3.24816,-2.75642 4.87226,-4.4084 3.65419,-3.21251 2.43613,-1.8708 0.81204,-0.45354 2.03011,0.12872 1.62408,0.36574 2.03011,0.75843 6.90236,3.21427 8.12042,4.25781 2.43613,1.04464 2.43612,0.79082 12.58666,3.86381 1.62409,0.85845 1.21806,0.83538 2.84215,2.59876 5.68429,5.57542 8.52645,8.54926 2.84215,3.23073 2.84215,1.03895 2.0301,0.43008 2.03011,0.24102 12.18063,1.34161 4.06022,0.76473 3.65419,1.0147 12.18063,3.79564 2.84215,1.07557 8.93247,3.60457 6.09032,1.91573 2.0301,0.29553 4.46623,0.31498 3.24817,-0.0738 5.27828,-0.0895 2.43613,0.1484 4.46623,0.53335 3.65419,0.70494 11.77461,2.62453 2.03011,0.67577 0.81204,0.39381 10.15053,28.15258 5.27828,15.10715 14.61676,42.51137 v 0" /></g></g><g
       id="g416"><g
         clip-path="url(#clipPath422)"
         id="g418"><path
           id="path424"
           style="fill:none;stroke:#d62728;stroke-width:1.5;stroke-linecap:square;stroke-linejoin:round;stroke-miterlimit:10;stroke-dasharray:none;stroke-opacity:1"
           d="m 184.58182,729.01591 1.62408,-1.33486 1.62409,-1.72049 1.62408,-2.04823 2.43613,-3.46818 3.24817,-4.98585 1.62408,-2.92477 2.84215,-5.70372 4.87226,-10.4559 5.27827,-11.94572 5.27828,-12.36898 3.24817,-8.28616 4.06021,-10.81206 2.0301,-5.39831 2.03011,-5.38067 1.21806,-4.26512 2.84215,-11.5832 5.27828,-22.69472 2.84215,-12.90089 14.61676,-67.46155 5.6843,-24.71783 15.83482,-65.39831 4.46624,-18.49472 8.12042,-32.97911 1.21806,-3.84386 2.84215,-7.44052 4.46623,-10.94613 2.43613,-5.77 8.52645,-18.71322 3.65419,-6.98237 6.49634,-11.7068 10.15053,-18.01792 12.99267,-26.97021 9.74451,-22.33487 1.62409,-4.35455 14.61676,-41.93703 6.09032,-18.91498 4.06021,-12.48007 6.49634,-19.00625 2.84215,-7.93703 2.0301,-5.15647 0.40603,-0.71111 0.40602,-0.46987 0.40602,-0.26288 0.40602,-0.0795 0.81204,0.29274 2.84215,1.53138 2.03011,1.3501 2.43612,1.85556 2.84215,2.45515 1.62409,1.80782 4.46623,5.37789 1.62408,2.31564 3.24817,5.21125 1.21807,2.42967 4.06021,8.84324 4.87225,11.23633 2.03011,5.15309 4.46623,12.30016 4.06021,11.70387 6.90236,20.82607 9.33849,28.12079 0.81204,2.03864 0.81205,1.27081 0.40602,0.36621 0.81204,0.28741 3.24817,0.59721 4.06021,0.46705 2.43613,0.13195 2.84215,-0.10339 1.62408,-0.20018 3.65419,-1.04218 2.03011,-0.78003 2.03011,-1.15605 1.62408,-1.21749 1.21806,-1.13095 1.21807,-1.44373 3.65419,-5.09651 2.0301,-3.0649 1.21807,-2.28078 2.84214,-6.52774 15.42881,-37.34259 4.06021,-9.11627 2.84215,-5.8538 2.84215,-5.36873 0.81204,-1.21295 0.81204,-0.93119 0.81205,-0.50171 1.62408,-0.30223 2.43613,-0.23058 1.62408,0.0669 1.21807,0.36494 2.0301,0.86009 2.43613,1.21861 1.62409,1.16089 2.0301,1.68758 1.62408,1.66056 1.62409,2.07801 2.03011,2.93863 2.0301,3.44602 1.62409,3.3192 2.43612,5.57631 3.24817,8.03507 1.21807,3.61621 3.24817,10.63404 10.55655,36.1001 7.7144,27.77555 4.06021,13.66185 2.43613,7.71924 1.21806,3.15018 0.81205,1.6097 2.43612,3.73724 2.43613,3.45953 1.21806,1.505 2.84215,2.91394 4.46623,4.27443 2.03011,1.73684 1.62408,1.14322 5.27828,3.26843 2.03011,1.1303 1.21806,0.53254 5.27828,1.81041 2.43612,0.90556 2.84215,1.36896 2.43613,1.26578 1.21806,0.84319 1.21807,0.99288 2.0301,1.98673 3.24817,3.37269 5.27828,5.58065 11.36859,13.00408 4.87225,5.93222 5.27828,6.75263 3.65419,4.95036 8.93247,12.86092 10.55655,15.66762 3.65419,4.80229 2.0301,2.1159 2.03011,1.69183 1.62409,1.09317 3.24816,1.66395 2.03011,0.86515 4.06021,1.39229 4.87226,1.50936 4.46623,1.1259 3.65419,0.71787 7.30838,0.95092 3.24817,0.1382 2.03011,0.17539 1.62408,0.48531 2.84215,1.33919 2.03011,1.17093 6.90236,4.60084 3.65419,2.63901 4.46623,3.68571 15.02279,12.34701 4.46623,3.17082 3.24817,2.13915 5.6843,3.17834 8.93246,4.78365 2.03011,1.07385 0.81204,0.752 1.62408,1.69593 4.06022,3.69094 11.77461,9.34818 11.77461,7.88466 2.43613,1.28188 7.7144,3.75101 3.24817,1.81737 2.43613,1.63994 6.49634,4.62478 0.81204,0.96605 3.65419,5.02255 4.06022,5.56339 0.81204,0.60318 6.09032,3.0171 3.65419,1.59034 4.46623,1.68336 3.24817,0.94708 4.06021,0.89677 8.93247,1.87256 3.24817,1.22354 4.46623,2.09678 3.65419,1.91924 0.81204,0.64091 4.46624,4.16106 4.46623,4.20493 0.81204,0.3775 2.43613,0.71265 6.09032,1.44743 2.43612,0.43198 2.43613,0.17107 4.46623,-0.16769 4.87226,-0.0879 3.24817,0.1957 3.65419,0.47253 4.46623,1.44511 15.42881,5.33424 1.21806,0.23812 2.03011,-0.27213 2.43612,-0.60567 3.6542,-1.09374 4.87225,-1.80591 7.30838,-2.62127 2.43613,-0.58805 2.0301,-0.24915 17.05289,52.47879 12.99268,38.03179 v 0" /></g></g><g
       id="g426"><g
         clip-path="url(#clipPath432)"
         id="g428"><path
           id="path434"
           style="fill:none;stroke:#9467bd;stroke-width:1.5;stroke-linecap:square;stroke-linejoin:round;stroke-miterlimit:10;stroke-dasharray:none;stroke-opacity:1"
           d="m 184.58182,723.79557 4.87225,-5.84259 3.24817,-4.24902 1.21807,-1.87056 2.0301,-3.88825 5.6843,-11.38337 4.87225,-10.2263 2.03011,-4.71507 1.62408,-4.33968 1.62409,-4.87227 3.24817,-10.84715 2.84215,-10.16331 2.84214,-10.89546 10.55655,-41.81046 4.87226,-19.79867 6.49634,-28.1161 6.49634,-29.29894 5.27827,-24.13428 2.43613,-9.87113 3.65419,-14.94397 10.15053,-42.82815 2.43613,-8.70754 6.90236,-23.12813 11.36859,-35.93898 2.43613,-6.62025 3.24817,-8.19618 5.68429,-12.95364 5.27828,-11.21586 3.65419,-7.27502 8.12042,-15.7466 1.62409,-2.73127 3.24817,-5.07965 4.46623,-6.53176 3.65419,-5.04527 2.43613,-3.0508 2.43613,-2.64315 2.84215,-2.73815 2.0301,-1.68729 1.62409,-1.04968 3.24817,-1.7936 3.65419,-1.64806 2.0301,-0.72475 2.84215,-0.70312 2.43613,-0.42411 2.43613,-0.16423 2.0301,0.0633 2.43613,0.27656 2.84215,0.57871 6.90236,1.71759 5.68429,1.66233 4.06022,1.27927 11.77461,3.1801 9.74451,2.25974 4.06021,0.47904 2.84215,0.15296 8.12042,0.18205 8.52645,0.84037 5.27827,0.80964 12.99268,2.17049 4.87226,0.20241 6.09031,-0.17536 12.58666,-0.73992 6.09032,-0.8484 2.43613,-0.52524 2.84214,-0.82037 0.81205,-0.34773 0.81204,-0.56672 1.21806,-1.16407 4.46624,-4.92474 4.87225,-5.65116 12.18064,-14.33259 2.0301,-2.11456 2.43613,-2.10917 0.81204,-0.4621 0.81204,-0.1255 0.81205,0.27522 3.24817,1.93148 2.0301,1.55025 2.03011,1.85661 2.0301,2.1449 4.46624,5.09978 3.65419,4.38179 5.27827,6.96114 7.30838,10.0009 1.21807,2.07709 1.62408,3.33533 8.52645,18.65057 3.24817,7.52919 3.65419,9.31843 10.55655,27.17367 1.21806,2.4478 1.21807,1.71478 3.65419,4.56021 2.84215,3.07482 2.0301,1.90361 25.17332,22.20952 3.65419,3.77368 3.24817,3.65284 3.24816,3.57553 2.03011,1.89235 17.05289,14.59311 6.49634,6.05143 21.51912,20.16339 3.65419,3.09762 3.65419,2.72969 9.74451,6.65823 8.52645,5.51464 3.65419,2.20366 2.43613,1.29138 4.46623,2.11661 2.43613,1.21978 4.87225,2.54146 5.6843,2.75922 13.3987,6.12533 6.90236,3.54613 4.46623,2.15853 16.24085,7.73897 9.33849,4.21511 6.90236,2.69702 2.0301,0.97377 3.24817,1.87667 6.49634,4.21394 6.90236,4.38979 2.84215,1.88214 7.7144,5.42178 5.27828,3.74869 4.06021,3.14881 4.06021,3.50308 2.84215,2.86283 2.03011,2.40272 8.12042,10.64858 9.33849,12.14286 15.02278,17.6426 3.65419,4.2531 10.15053,11.32183 4.87226,5.08624 4.06021,3.90036 1.62408,1.37838 2.03011,1.46965 2.0301,1.12003 2.84215,1.14705 3.24817,1.07968 4.06021,1.01796 2.84215,0.43898 6.09032,0.65878 3.24817,0.18328 3.24817,-0.10484 2.0301,-0.25072 2.43613,-0.48825 4.46624,-1.19189 4.06021,-1.32131 4.87225,-1.80732 6.49634,-2.70766 4.87225,-2.23321 8.93247,-4.38067 6.09032,-3.19908 3.65419,8.52498 v 0" /></g></g><g
       id="g436"><g
         clip-path="url(#clipPath442)"
         id="g438"><path
           id="path444"
           style="fill:none;stroke:#8c564b;stroke-width:1.5;stroke-linecap:square;stroke-linejoin:round;stroke-miterlimit:10;stroke-dasharray:none;stroke-opacity:1"
           d="m 184.58182,722.45848 1.21806,-1.80166 2.03011,-3.42099 1.62408,-3.32728 2.43613,-5.8556 2.43613,-6.58534 3.65419,-10.48119 4.87225,-14.78579 5.27828,-16.74921 5.27827,-17.2895 4.06021,-13.94797 2.03011,-7.78554 6.49634,-25.99565 2.43613,-10.99845 4.87225,-22.86687 7.30838,-34.92425 8.52645,-41.27018 2.43612,-10.90063 2.84215,-11.55957 4.06021,-15.53895 17.05289,-62.96082 3.6542,-12.6967 4.87225,-15.96459 3.24817,-10.69051 3.24817,-8.92404 3.65419,-9.461 4.46623,-10.99601 4.46624,-10.21019 4.06021,-8.77773 1.62408,-2.6972 10.55655,-16.33709 6.09032,-9.71481 15.02279,-22.64263 2.43612,-3.25509 1.21807,-1.42746 1.62408,-1.65048 1.62409,-1.3874 2.0301,-1.37638 2.43613,-1.30796 3.65419,-1.62676 1.21806,-0.35267 1.62409,-0.24198 2.0301,-0.0845 12.99268,0.0408 3.65419,0.2722 3.65419,0.17431 3.6542,0.16087 5.68429,0.52669 6.90236,0.89402 2.43613,0.42833 2.84215,0.64398 4.87225,1.55245 3.65419,1.45522 8.12043,3.18015 7.30838,1.85189 4.46623,1.59088 6.09032,2.70566 2.84215,1.38005 3.24817,1.89417 7.30838,4.40997 2.0301,0.90579 2.43613,0.89778 1.21806,0.27959 1.62409,0.16552 5.6843,0.34721 4.87225,-0.0525 2.84215,-0.27462 1.21806,-0.14995 0.40602,0.14341 3.65419,2.41494 3.24817,1.832 3.24817,1.58104 6.09032,2.62494 2.43613,0.85166 0.81204,0.0111 0.81204,-0.27631 0.81205,-0.54882 2.0301,-2.11755 15.02279,-16.87164 1.21806,-1.00949 0.81204,-0.36348 0.81204,-0.18214 0.81205,0.0673 1.21806,0.56579 1.21806,0.78777 1.62409,1.29864 3.65419,3.27363 2.84215,3.00688 2.43613,2.86987 6.09031,7.64136 5.27828,2.59104 10.55655,5.53112 2.84215,1.65567 0.81204,0.71014 0.81204,0.99259 0.81204,1.27123 2.84215,5.57517 2.84215,5.98983 5.6843,13.15166 7.7144,17.848 1.21806,2.10224 1.21807,1.52466 6.09032,6.71189 2.0301,2.02507 2.84215,2.5436 2.43613,1.90868 2.84214,2.26552 23.14321,19.74621 5.6843,5.48454 4.87225,3.70568 4.06022,3.11867 5.27827,4.17838 6.09032,4.48404 13.80472,9.64791 8.12042,6.01307 4.87226,3.74524 3.65419,3.00871 4.46623,3.64594 2.03011,1.60693 1.62408,2.05108 11.77462,15.19111 5.68429,6.49468 3.24817,3.38685 3.65419,3.35168 4.46624,3.79373 3.65419,2.77697 2.43612,1.61 4.87226,2.75129 9.33849,5.06933 4.46623,2.10681 3.65419,1.55463 2.03011,0.68678 1.21806,-0.14989 3.24817,-0.6609 4.46623,-0.7918 7.30838,-1.01866 2.84215,-0.18882 2.84215,0.008 2.43613,0.29157 4.06021,0.78304 3.24817,0.81177 4.46623,1.38347 1.62409,0.76611 3.65419,2.02128 6.90236,4.21413 17.86493,11.60069 18.27095,13.23689 2.84215,2.30292 4.87226,4.34856 5.27827,4.53027 2.43613,1.67247 6.49634,4.35398 7.30838,4.75559 11.36859,7.13189 3.65419,1.97257 8.12043,4.02942 4.46623,1.98879 4.87226,1.87455 2.43612,0.75278 8.12043,2.06484 5.27827,1.19067 5.6843,0.98016 6.90236,0.9205 5.27828,0.47654 4.87225,0.22956 7.7144,0.0997 15.83483,-0.23171 4.87225,-0.22375 10.15053,-0.57877 2.43613,0.0379 1.21806,0.25235 18.67698,62.10132 11.36859,38.3799 v 0" /></g></g><g
       id="g446"><g
         clip-path="url(#clipPath452)"
         id="g448"><path
           id="path454"
           style="fill:none;stroke:#e377c2;stroke-width:1.5;stroke-linecap:square;stroke-linejoin:round;stroke-miterlimit:10;stroke-dasharray:none;stroke-opacity:1"
           d="m 184.58182,729.51228 0.81204,-0.93868 0.81204,-1.32209 5.27828,-9.86471 4.46623,-8.65181 5.27828,-10.94952 1.21806,-2.95295 3.24817,-8.93404 2.43613,-7.09017 2.0301,-6.82409 3.24817,-11.59918 4.46624,-17.24258 4.87225,-19.94338 2.84215,-11.44431 5.68429,-22.9951 2.84215,-12.5637 4.87226,-22.24694 6.90236,-32.24965 1.62408,-6.52061 6.09032,-23.50334 7.7144,-31.4347 9.74451,-40.10707 4.06021,-14.69759 4.87226,-16.70957 5.27827,-17.166 6.90236,-21.40993 2.03011,-5.63386 4.06021,-10.59945 2.84215,-6.54509 6.09032,-13.24371 6.09032,-11.76583 2.43612,-4.282 4.06021,-6.40188 2.84215,-4.19443 1.21807,-1.41809 1.62408,-1.29997 2.43613,-1.60049 2.84215,-1.56547 3.24817,-1.55528 2.43612,-0.99095 2.84215,-0.97253 10.55655,-3.36985 3.24817,-0.64833 7.71441,-1.17066 3.65419,-0.42126 4.46623,-0.25459 2.43613,0.0425 3.65419,0.32714 2.84215,0.42451 4.87225,0.97618 12.58666,2.86526 4.06021,1.20323 4.06021,1.49377 6.49634,2.88467 3.24817,1.70344 4.06021,2.46542 5.6843,3.73443 3.65419,2.73404 3.65419,3.2965 7.30838,6.95816 10.55655,9.41058 4.46624,3.62033 3.24816,2.37382 1.21807,0.72002 2.43612,1.15351 2.43613,0.83114 2.03011,0.43275 3.65419,0.50328 3.24817,0.25585 2.43613,-0.17548 2.84214,-0.53215 2.84215,-0.75811 3.24817,-1.0763 1.21807,-0.51625 0.81204,-0.50052 0.81204,-0.71959 1.62408,-1.83857 1.62409,-2.12008 2.03011,-2.9916 2.0301,-3.39854 1.21807,-2.73796 5.68429,-13.67173 12.58666,-30.23524 0.81204,-1.40109 0.81204,-0.99328 0.81205,-0.59217 2.84215,-1.58078 1.21806,-0.35755 1.62408,-0.25611 1.21807,0.13603 2.0301,0.48618 3.24817,1.20592 2.43613,1.09939 1.62408,0.97 2.84215,2.07114 4.06021,3.351 1.62409,1.48072 2.43613,2.54033 1.21806,1.76827 2.03011,3.27532 1.21806,2.38422 2.03011,4.65537 2.84214,7.03704 2.43613,6.46225 1.62409,5.25592 14.21074,47.5555 3.65419,12.02141 1.21806,3.16716 0.81204,1.62801 4.46624,7.27566 2.0301,2.92782 3.65419,4.49051 5.6843,6.88062 10.15053,10.83925 1.62408,1.56008 0.81205,0.50301 5.68429,3.03878 1.21807,1.11865 2.84215,3.36435 21.1131,26.19809 5.27827,5.97925 4.46624,4.74861 5.27827,5.28533 4.46623,4.21213 4.06022,3.47324 6.09031,4.91772 4.46624,3.40703 1.62408,0.97814 0.81205,0.2308 1.21806,5.9e-4 1.62408,-0.19013 6.49634,-0.91903 1.62409,-0.0495 3.65419,0.36175 7.7144,-0.3852 1.21806,0.18101 1.62409,0.46071 2.0301,0.75663 2.84215,1.41539 2.43613,1.55957 3.24817,2.36044 4.06021,3.20054 4.87226,4.64736 7.30838,7.47242 8.93246,9.57197 5.27828,5.7473 4.46623,4.53 1.62409,1.38243 2.43613,1.73463 9.7445,8.68187 2.03011,1.24246 2.43613,1.30136 2.43612,1.07183 3.24817,1.06588 8.12043,2.35286 3.65419,1.44121 7.30838,2.64962 1.62408,0.99887 4.46624,3.01107 0.81204,0.37381 1.21806,0.26924 1.21807,0.11113 1.62408,-0.22581 5.6843,-1.03773 4.06021,-0.56262 1.62408,-0.0169 2.03011,0.26031 7.7144,1.5476 3.24817,0.3153 2.43613,0.58603 2.03011,0.72402 6.49633,2.42057 2.03011,0.45329 1.21806,0.0373 2.84215,-0.003 8.52645,0.28619 2.0301,-0.52741 5.27828,-1.477 1.21806,0.1175 0.81205,0.15769 1.62408,0.71072 4.87225,2.44562 6.09032,2.8526 2.03011,0.54323 4.87225,0.94335 2.03011,0.52333 2.0301,0.82662 2.43613,0.94078 2.84215,0.69539 2.43613,0.38678 6.09032,0.96925 4.87225,1.08081 2.84215,0.35736 4.46623,0.53272 7.30838,1.1248 6.49634,1.24959 3.24817,0.45724 6.49634,1.10717 2.84215,0.71701 10.96257,2.97254 4.46623,1.71533 10.55655,3.98406 3.24818,1.59361 2.43612,1.44279 4.06021,2.70854 15.42881,46.22969 8.52644,25.63664 6.09032,17.50165 v 0" /></g></g><g
       id="g456"><g
         clip-path="url(#clipPath462)"
         id="g458"><path
           id="path464"
           style="fill:none;stroke:#7f7f7f;stroke-width:1.5;stroke-linecap:square;stroke-linejoin:round;stroke-miterlimit:10;stroke-dasharray:none;stroke-opacity:1"
           d="m 184.58182,726.22324 2.0301,-1.89759 2.43613,-2.71083 2.03011,-2.56771 1.62408,-2.33845 2.43613,-3.95771 2.43613,-4.38053 1.21806,-2.45702 4.06021,-9.97692 4.87226,-12.40341 2.43612,-6.64473 1.62409,-5.31107 3.24817,-11.53873 2.0301,-8.26469 3.65419,-15.98034 9.33849,-41.10981 7.30838,-31.59298 4.06021,-19.44456 15.83483,-77.22171 2.84215,-12.67307 7.7144,-31.66703 4.06021,-16.94273 3.65419,-13.03687 2.03011,-6.36434 5.6843,-17.77478 2.84215,-9.42794 11.77461,-39.15934 2.43613,-6.8961 3.65419,-9.69033 4.46623,-11.06053 4.46623,-10.14859 2.43613,-5.07077 8.12043,-15.68877 5.68429,-10.58251 4.06021,-6.85979 5.6843,-9.38226 2.84215,-3.94958 2.84215,-3.40075 1.62408,-1.64238 3.24817,-2.87365 2.43613,-1.74944 4.06021,-2.59334 4.87226,-2.94967 4.06021,-2.21475 5.27827,-2.35297 4.46624,-1.71906 2.43612,-0.7747 2.03011,-0.40815 1.62408,-0.19441 2.03011,-0.0748 5.27828,-0.36137 2.84214,0.17896 3.24817,0.40838 2.84215,0.65831 2.43613,0.80495 3.24817,1.38403 2.43613,1.21508 4.87225,2.78175 2.84215,1.71965 2.84215,1.94051 2.84214,2.19087 5.27828,4.34639 10.96257,9.60462 4.46624,4.09174 2.43612,1.99743 2.03011,1.4851 3.65419,3.02466 6.09032,5.05504 2.43612,1.59963 1.21807,0.56441 1.62408,0.25516 0.81204,0.034 2.03011,-0.33913 1.21806,-0.37869 3.24817,-1.27804 3.65419,-1.72749 3.24818,-1.75592 2.43612,-1.60182 2.43613,-1.84281 3.24817,-2.84753 2.84215,-2.72103 1.21806,-1.63676 2.03011,-3.38684 4.06021,-7.28046 1.62408,-3.44929 2.03011,-5.0073 6.09032,-15.69206 9.33848,-24.29032 1.21807,-2.64461 0.40602,-0.67446 0.40602,-0.44929 0.40602,-0.24917 0.81204,-0.004 1.21807,0.26611 2.43613,0.81325 0.81204,0.42662 1.62408,1.28117 1.21807,1.15536 2.0301,2.26522 3.65419,4.82577 2.84215,4.11315 4.46623,6.95333 4.06022,6.87578 4.87225,8.69621 2.43613,4.57333 1.62408,3.83188 4.06021,10.35509 2.03011,5.50918 1.62408,5.18415 2.84215,10.01529 2.43613,10.24055 7.7144,33.82671 4.06021,17.58001 1.21807,4.61087 0.81204,2.17423 1.21806,2.23266 3.65419,6.14423 6.09032,9.87132 4.06021,6.23133 6.90236,9.80375 7.30839,9.84743 14.21074,18.90213 1.21806,1.31243 1.21806,0.73798 2.84215,1.26678 4.06022,1.63138 12.58665,4.88424 2.84215,1.30678 2.84215,1.7445 1.21806,0.86495 2.43613,1.95684 1.21806,1.23737 1.21807,1.55063 5.68429,8.10719 11.3686,16.00551 4.46623,5.95404 3.24817,4.00168 4.46623,4.73371 4.06021,4.00204 6.90236,6.38245 6.49634,5.87893 4.87226,4.07097 2.0301,1.39345 2.43613,1.46379 2.43613,1.14601 1.21806,0.31624 1.21807,0.009 2.84214,-0.4288 16.24085,-2.47972 3.24817,-0.26619 4.46623,-0.079 5.27828,0.25065 6.09032,0.51106 18.27095,1.74143 8.12043,1.14852 3.65419,0.97887 5.27827,1.76682 8.93247,3.08606 12.58665,4.23328 4.46624,1.8133 3.24817,1.49341 4.06021,2.17001 4.46623,2.66151 14.21074,8.5871 4.06022,2.02981 7.7144,3.76866 5.27827,2.82122 6.90236,4.09266 6.49634,3.72684 5.27828,2.77121 3.65419,1.69147 5.27828,2.11688 13.80472,4.879 4.87225,1.4555 3.24817,0.73683 4.46623,0.72591 5.27828,0.62966 4.06021,0.27229 1.21806,0.11766 3.24817,0.62012 2.43613,0.76481 3.24817,1.1654 3.24817,1.41226 4.06021,1.91697 5.6843,3.58412 10.55655,6.69113 8.93247,5.67428 2.84214,1.97085 3.24817,2.4118 15.42881,55.094 4.06021,13.50042 6.09032,19.46784 4.46623,13.82574 v 0" /></g></g><g
       id="g466"><path
         id="path468"
         style="fill:none;stroke:#000000;stroke-width:0.80000001;stroke-linecap:square;stroke-linejoin:miter;stroke-miterlimit:10;stroke-dasharray:none;stroke-opacity:1"
         d="M 144,108 V 760.32" /><path
         id="path470"
         style="fill:none;stroke:#000000;stroke-width:0.80000001;stroke-linecap:square;stroke-linejoin:miter;stroke-miterlimit:10;stroke-dasharray:none;stroke-opacity:1"
         d="M 1036.8,108 V 760.32" /><path
         id="path472"
         style="fill:none;stroke:#000000;stroke-width:0.80000001;stroke-linecap:square;stroke-linejoin:miter;stroke-miterlimit:10;stroke-dasharray:none;stroke-opacity:1"
         d="m 144,108 h 892.8" /><path
         id="path474"
         style="fill:none;stroke:#000000;stroke-width:0.80000001;stroke-linecap:square;stroke-linejoin:miter;stroke-miterlimit:10;stroke-dasharray:none;stroke-opacity:1"
         d="m 144,760.32 h 892.8" /><path
         id="path476"
         style="fill:#ffffff;fill-opacity:0.8;fill-rule:nonzero;stroke:#cccccc;stroke-width:1;stroke-linecap:butt;stroke-linejoin:miter;stroke-miterlimit:10;stroke-dasharray:none;stroke-opacity:0.8"
         d="M 765.0375,117 H 1024.2 c 2.4,0 3.6,1.2 3.6,3.6 v 209.575 c 0,2.4 -1.2,3.6 -3.6,3.6 H 765.0375 c -2.4,0 -3.6,-1.2 -3.6,-3.6 V 120.6 c 0,-2.4 1.2,-3.6 3.6,-3.6 z" /><path
         id="path478"
         style="fill:none;stroke:#1f77b4;stroke-width:1.5;stroke-linecap:square;stroke-linejoin:round;stroke-miterlimit:10;stroke-dasharray:none;stroke-opacity:1"
         d="m 768.6375,319.20312 h 36" /><text
         id="text482"
         style="font-variant:normal;font-weight:normal;font-size:18px;font-family:'DejaVu Sans';-inkscape-font-specification:DejaVuSans;writing-mode:lr-tb;fill:#000000;fill-opacity:1;fill-rule:nonzero;stroke:none"
         transform="matrix(1,0,0,-1,819.0375,312.90312)"><tspan
           id="tspan480"
           y="0"
           x="0 13.86 24.93 35.585999 40.59 50.490002 61.560001 67.283997 82.367996 93.816002 99.540001 105.264 117.828 128.84399 139.86 144.864 150.588 164.448 175.464 190.188">Device #3, Cool Down</tspan></text>
<path
         id="path484"
         style="fill:none;stroke:#ff7f0e;stroke-width:1.5;stroke-linecap:square;stroke-linejoin:round;stroke-miterlimit:10;stroke-dasharray:none;stroke-opacity:1"
         d="m 768.6375,292.78125 h 36" /><text
         id="text488"
         style="font-variant:normal;font-weight:normal;font-size:18px;font-family:'DejaVu Sans';-inkscape-font-specification:DejaVuSans;writing-mode:lr-tb;fill:#000000;fill-opacity:1;fill-rule:nonzero;stroke:none"
         transform="matrix(1,0,0,-1,819.0375,286.48125)"><tspan
           id="tspan486"
           y="0"
           x="0 13.86 24.93 35.585999 40.59 50.490002 61.560001 67.283997 82.367996 93.816002 99.540001 105.264 117.828 128.84399 139.86 144.864 150.588 164.448 175.464 190.188">Device #4, Cool Down</tspan></text>
<path
         id="path490"
         style="fill:none;stroke:#2ca02c;stroke-width:1.5;stroke-linecap:square;stroke-linejoin:round;stroke-miterlimit:10;stroke-dasharray:none;stroke-opacity:1"
         d="m 768.6375,266.35937 h 36" /><text
         id="text494"
         style="font-variant:normal;font-weight:normal;font-size:18px;font-family:'DejaVu Sans';-inkscape-font-specification:DejaVuSans;writing-mode:lr-tb;fill:#000000;fill-opacity:1;fill-rule:nonzero;stroke:none"
         transform="matrix(1,0,0,-1,819.0375,260.05937)"><tspan
           id="tspan492"
           y="0"
           x="0 13.86 24.93 35.585999 40.59 50.490002 61.560001 67.283997 82.367996 93.816002 99.540001 105.264 117.828 128.84399 139.86 144.864 150.588 164.448 175.464 190.188">Device #5, Cool Down</tspan></text>
<path
         id="path496"
         style="fill:none;stroke:#d62728;stroke-width:1.5;stroke-linecap:square;stroke-linejoin:round;stroke-miterlimit:10;stroke-dasharray:none;stroke-opacity:1"
         d="m 768.6375,239.9375 h 36" /><text
         id="text500"
         style="font-variant:normal;font-weight:normal;font-size:18px;font-family:'DejaVu Sans';-inkscape-font-specification:DejaVuSans;writing-mode:lr-tb;fill:#000000;fill-opacity:1;fill-rule:nonzero;stroke:none"
         transform="matrix(1,0,0,-1,819.0375,233.6375)"><tspan
           id="tspan498"
           y="0"
           x="0 13.86 24.93 35.585999 40.59 50.490002 61.560001 67.283997 82.367996 93.816002 99.540001 105.264 117.828 128.84399 139.86 144.864 150.588 164.448 175.464 190.188">Device #6, Cool Down</tspan></text>
<path
         id="path502"
         style="fill:none;stroke:#9467bd;stroke-width:1.5;stroke-linecap:square;stroke-linejoin:round;stroke-miterlimit:10;stroke-dasharray:none;stroke-opacity:1"
         d="m 768.6375,213.51562 h 36" /><text
         id="text506"
         style="font-variant:normal;font-weight:normal;font-size:18px;font-family:'DejaVu Sans';-inkscape-font-specification:DejaVuSans;writing-mode:lr-tb;fill:#000000;fill-opacity:1;fill-rule:nonzero;stroke:none"
         transform="matrix(1,0,0,-1,819.0375,207.21562)"><tspan
           id="tspan504"
           y="0"
           x="0 13.86 24.93 35.585999 40.59 50.490002 61.560001 67.283997 82.367996 93.816002 99.540001 105.264 123.066 134.10001 141.498 159.03 164.754 177.92999">Device #3, Warm Up</tspan></text>
<path
         id="path508"
         style="fill:none;stroke:#8c564b;stroke-width:1.5;stroke-linecap:square;stroke-linejoin:round;stroke-miterlimit:10;stroke-dasharray:none;stroke-opacity:1"
         d="m 768.6375,187.09375 h 36" /><text
         id="text512"
         style="font-variant:normal;font-weight:normal;font-size:18px;font-family:'DejaVu Sans';-inkscape-font-specification:DejaVuSans;writing-mode:lr-tb;fill:#000000;fill-opacity:1;fill-rule:nonzero;stroke:none"
         transform="matrix(1,0,0,-1,819.0375,180.79375)"><tspan
           id="tspan510"
           y="0"
           x="0 13.86 24.93 35.585999 40.59 50.490002 61.560001 67.283997 82.367996 93.816002 99.540001 105.264 123.066 134.10001 141.498 159.03 164.754 177.92999">Device #4, Warm Up</tspan></text>
<path
         id="path514"
         style="fill:none;stroke:#e377c2;stroke-width:1.5;stroke-linecap:square;stroke-linejoin:round;stroke-miterlimit:10;stroke-dasharray:none;stroke-opacity:1"
         d="m 768.6375,160.67187 h 36" /><text
         id="text518"
         style="font-variant:normal;font-weight:normal;font-size:18px;font-family:'DejaVu Sans';-inkscape-font-specification:DejaVuSans;writing-mode:lr-tb;fill:#000000;fill-opacity:1;fill-rule:nonzero;stroke:none"
         transform="matrix(1,0,0,-1,819.0375,154.37187)"><tspan
           id="tspan516"
           y="0"
           x="0 13.86 24.93 35.585999 40.59 50.490002 61.560001 67.283997 82.367996 93.816002 99.540001 105.264 123.066 134.10001 141.498 159.03 164.754 177.92999">Device #5, Warm Up</tspan></text>
<path
         id="path520"
         style="fill:none;stroke:#7f7f7f;stroke-width:1.5;stroke-linecap:square;stroke-linejoin:round;stroke-miterlimit:10;stroke-dasharray:none;stroke-opacity:1"
         d="m 768.6375,134.25 h 36" /><text
         id="text524"
         style="font-variant:normal;font-weight:normal;font-size:18px;font-family:'DejaVu Sans';-inkscape-font-specification:DejaVuSans;writing-mode:lr-tb;fill:#000000;fill-opacity:1;fill-rule:nonzero;stroke:none"
         transform="matrix(1,0,0,-1,819.0375,127.95)"><tspan
           id="tspan522"
           y="0"
           x="0 13.86 24.93 35.585999 40.59 50.490002 61.560001 67.283997 82.367996 93.816002 99.540001 105.264 123.066 134.10001 141.498 159.03 164.754 177.92999">Device #6, Warm Up</tspan></text>
</g></g></svg>