<?xml version="1.0" encoding="UTF-8" standalone="no"?>
<svg
   xmlns:dc="http://purl.org/dc/elements/1.1/"
   xmlns:cc="http://creativecommons.org/ns#"
   xmlns:rdf="http://www.w3.org/1999/02/22-rdf-syntax-ns#"
   xmlns:svg="http://www.w3.org/2000/svg"
   xmlns="http://www.w3.org/2000/svg"
   viewBox="0 0 1536 1152"
   height="1152"
   width="1536"
   xml:space="preserve"
   id="svg2"
   version="1.1"><metadata
     id="metadata8"><rdf:RDF><cc:Work
         rdf:about=""><dc:format>image/svg+xml</dc:format><dc:type
           rdf:resource="http://purl.org/dc/dcmitype/StillImage" /></cc:Work></rdf:RDF></metadata><defs
     id="defs6"><clipPath
       id="clipPath22"
       clipPathUnits="userSpaceOnUse"><path
         id="path20"
         d="m 144,108 h 892.8 V 760.32 H 144 Z" /></clipPath><clipPath
       id="clipPath40"
       clipPathUnits="userSpaceOnUse"><path
         id="path38"
         d="m 144,108 h 892.8 V 760.32 H 144 Z" /></clipPath><clipPath
       id="clipPath58"
       clipPathUnits="userSpaceOnUse"><path
         id="path56"
         d="m 144,108 h 892.8 V 760.32 H 144 Z" /></clipPath><clipPath
       id="clipPath76"
       clipPathUnits="userSpaceOnUse"><path
         id="path74"
         d="m 144,108 h 892.8 V 760.32 H 144 Z" /></clipPath><clipPath
       id="clipPath94"
       clipPathUnits="userSpaceOnUse"><path
         id="path92"
         d="m 144,108 h 892.8 V 760.32 H 144 Z" /></clipPath><clipPath
       id="clipPath112"
       clipPathUnits="userSpaceOnUse"><path
         id="path110"
         d="m 144,108 h 892.8 V 760.32 H 144 Z" /></clipPath><clipPath
       id="clipPath130"
       clipPathUnits="userSpaceOnUse"><path
         id="path128"
         d="m 144,108 h 892.8 V 760.32 H 144 Z" /></clipPath><clipPath
       id="clipPath148"
       clipPathUnits="userSpaceOnUse"><path
         id="path146"
         d="m 144,108 h 892.8 V 760.32 H 144 Z" /></clipPath><clipPath
       id="clipPath170"
       clipPathUnits="userSpaceOnUse"><path
         id="path168"
         d="m 144,108 h 892.8 V 760.32 H 144 Z" /></clipPath><clipPath
       id="clipPath192"
       clipPathUnits="userSpaceOnUse"><path
         id="path190"
         d="M -1070,-416 H 1976 V 1175 H -1070 Z" /></clipPath><clipPath
       id="clipPath202"
       clipPathUnits="userSpaceOnUse"><path
         id="path200"
         d="m 144,108 h 892.8 V 760.32 H 144 Z" /></clipPath><clipPath
       id="clipPath224"
       clipPathUnits="userSpaceOnUse"><path
         id="path222"
         d="M -1070,-416 H 1976 V 1175 H -1070 Z" /></clipPath><clipPath
       id="clipPath234"
       clipPathUnits="userSpaceOnUse"><path
         id="path232"
         d="m 144,108 h 892.8 V 760.32 H 144 Z" /></clipPath><clipPath
       id="clipPath256"
       clipPathUnits="userSpaceOnUse"><path
         id="path254"
         d="M -1070,-416 H 1976 V 1175 H -1070 Z" /></clipPath><clipPath
       id="clipPath266"
       clipPathUnits="userSpaceOnUse"><path
         id="path264"
         d="m 144,108 h 892.8 V 760.32 H 144 Z" /></clipPath><clipPath
       id="clipPath288"
       clipPathUnits="userSpaceOnUse"><path
         id="path286"
         d="M -1070,-416 H 1976 V 1175 H -1070 Z" /></clipPath><clipPath
       id="clipPath298"
       clipPathUnits="userSpaceOnUse"><path
         id="path296"
         d="m 144,108 h 892.8 V 760.32 H 144 Z" /></clipPath><clipPath
       id="clipPath320"
       clipPathUnits="userSpaceOnUse"><path
         id="path318"
         d="M -1070,-416 H 1976 V 1175 H -1070 Z" /></clipPath><clipPath
       id="clipPath330"
       clipPathUnits="userSpaceOnUse"><path
         id="path328"
         d="m 144,108 h 892.8 V 760.32 H 144 Z" /></clipPath><clipPath
       id="clipPath348"
       clipPathUnits="userSpaceOnUse"><path
         id="path346"
         d="m 144,108 h 892.8 V 760.32 H 144 Z" /></clipPath><clipPath
       id="clipPath366"
       clipPathUnits="userSpaceOnUse"><path
         id="path364"
         d="m 144,108 h 892.8 V 760.32 H 144 Z" /></clipPath><clipPath
       id="clipPath384"
       clipPathUnits="userSpaceOnUse"><path
         id="path382"
         d="m 144,108 h 892.8 V 760.32 H 144 Z" /></clipPath><clipPath
       id="clipPath410"
       clipPathUnits="userSpaceOnUse"><path
         id="path408"
         d="M -1021,-463 H 1794 V 1233 H -1021 Z" /></clipPath><clipPath
       id="clipPath420"
       clipPathUnits="userSpaceOnUse"><path
         id="path418"
         d="m 144,108 h 892.8 V 760.32 H 144 Z" /></clipPath></defs><g
     transform="matrix(1.3333333,0,0,-1.3333333,0,1152)"
     id="g10"><path
       id="path12"
       style="fill:#ffffff;fill-opacity:1;fill-rule:nonzero;stroke:none"
       d="M 0,0 H 1152 V 864 H 0 Z" /><path
       id="path14"
       style="fill:#ffffff;fill-opacity:1;fill-rule:nonzero;stroke:none"
       d="m 144,108 h 892.8 V 760.32 H 144 Z" /><g
       id="g16"><g
         clip-path="url(#clipPath22)"
         id="g18"><path
           id="path24"
           style="fill:none;stroke:#b0b0b0;stroke-width:0.80000001;stroke-linecap:square;stroke-linejoin:round;stroke-miterlimit:10;stroke-dasharray:none;stroke-opacity:1"
           d="M 184.58056,108 V 760.32" /></g></g><g
       id="g26"><path
         id="path28"
         style="fill:#000000;fill-opacity:1;fill-rule:nonzero;stroke:#000000;stroke-width:0.80000001;stroke-linecap:butt;stroke-linejoin:round;stroke-miterlimit:10;stroke-dasharray:none;stroke-opacity:1"
         d="m 184.58056,108 v -3.5" /><text
         id="text32"
         style="font-variant:normal;font-weight:bold;font-size:16px;font-family:'DejaVu Sans';-inkscape-font-specification:DejaVuSans-Bold;writing-mode:lr-tb;fill:#000000;fill-opacity:1;fill-rule:nonzero;stroke:none"
         transform="matrix(1,0,0,-1,179.01025,88.84375)"><tspan
           id="tspan30"
           y="0"
           x="0">0</tspan></text>
</g><g
       id="g34"><g
         clip-path="url(#clipPath40)"
         id="g36"><path
           id="path42"
           style="fill:none;stroke:#b0b0b0;stroke-width:0.80000001;stroke-linecap:square;stroke-linejoin:round;stroke-miterlimit:10;stroke-dasharray:none;stroke-opacity:1"
           d="M 301.41453,108 V 760.32" /></g></g><g
       id="g44"><path
         id="path46"
         style="fill:#000000;fill-opacity:1;fill-rule:nonzero;stroke:#000000;stroke-width:0.80000001;stroke-linecap:butt;stroke-linejoin:round;stroke-miterlimit:10;stroke-dasharray:none;stroke-opacity:1"
         d="m 301.41453,108 v -3.5" /><text
         id="text50"
         style="font-variant:normal;font-weight:bold;font-size:16px;font-family:'DejaVu Sans';-inkscape-font-specification:DejaVuSans-Bold;writing-mode:lr-tb;fill:#000000;fill-opacity:1;fill-rule:nonzero;stroke:none"
         transform="matrix(1,0,0,-1,295.84421,88.84375)"><tspan
           id="tspan48"
           y="0"
           x="0">2</tspan></text>
</g><g
       id="g52"><g
         clip-path="url(#clipPath58)"
         id="g54"><path
           id="path60"
           style="fill:none;stroke:#b0b0b0;stroke-width:0.80000001;stroke-linecap:square;stroke-linejoin:round;stroke-miterlimit:10;stroke-dasharray:none;stroke-opacity:1"
           d="M 418.24849,108 V 760.32" /></g></g><g
       id="g62"><path
         id="path64"
         style="fill:#000000;fill-opacity:1;fill-rule:nonzero;stroke:#000000;stroke-width:0.80000001;stroke-linecap:butt;stroke-linejoin:round;stroke-miterlimit:10;stroke-dasharray:none;stroke-opacity:1"
         d="m 418.24849,108 v -3.5" /><text
         id="text68"
         style="font-variant:normal;font-weight:bold;font-size:16px;font-family:'DejaVu Sans';-inkscape-font-specification:DejaVuSans-Bold;writing-mode:lr-tb;fill:#000000;fill-opacity:1;fill-rule:nonzero;stroke:none"
         transform="matrix(1,0,0,-1,412.67818,88.84375)"><tspan
           id="tspan66"
           y="0"
           x="0">4</tspan></text>
</g><g
       id="g70"><g
         clip-path="url(#clipPath76)"
         id="g72"><path
           id="path78"
           style="fill:none;stroke:#b0b0b0;stroke-width:0.80000001;stroke-linecap:square;stroke-linejoin:round;stroke-miterlimit:10;stroke-dasharray:none;stroke-opacity:1"
           d="M 535.08246,108 V 760.32" /></g></g><g
       id="g80"><path
         id="path82"
         style="fill:#000000;fill-opacity:1;fill-rule:nonzero;stroke:#000000;stroke-width:0.80000001;stroke-linecap:butt;stroke-linejoin:round;stroke-miterlimit:10;stroke-dasharray:none;stroke-opacity:1"
         d="m 535.08246,108 v -3.5" /><text
         id="text86"
         style="font-variant:normal;font-weight:bold;font-size:16px;font-family:'DejaVu Sans';-inkscape-font-specification:DejaVuSans-Bold;writing-mode:lr-tb;fill:#000000;fill-opacity:1;fill-rule:nonzero;stroke:none"
         transform="matrix(1,0,0,-1,529.51215,88.84375)"><tspan
           id="tspan84"
           y="0"
           x="0">6</tspan></text>
</g><g
       id="g88"><g
         clip-path="url(#clipPath94)"
         id="g90"><path
           id="path96"
           style="fill:none;stroke:#b0b0b0;stroke-width:0.80000001;stroke-linecap:square;stroke-linejoin:round;stroke-miterlimit:10;stroke-dasharray:none;stroke-opacity:1"
           d="M 651.91642,108 V 760.32" /></g></g><g
       id="g98"><path
         id="path100"
         style="fill:#000000;fill-opacity:1;fill-rule:nonzero;stroke:#000000;stroke-width:0.80000001;stroke-linecap:butt;stroke-linejoin:round;stroke-miterlimit:10;stroke-dasharray:none;stroke-opacity:1"
         d="m 651.91642,108 v -3.5" /><text
         id="text104"
         style="font-variant:normal;font-weight:bold;font-size:16px;font-family:'DejaVu Sans';-inkscape-font-specification:DejaVuSans-Bold;writing-mode:lr-tb;fill:#000000;fill-opacity:1;fill-rule:nonzero;stroke:none"
         transform="matrix(1,0,0,-1,646.34611,88.84375)"><tspan
           id="tspan102"
           y="0"
           x="0">8</tspan></text>
</g><g
       id="g106"><g
         clip-path="url(#clipPath112)"
         id="g108"><path
           id="path114"
           style="fill:none;stroke:#b0b0b0;stroke-width:0.80000001;stroke-linecap:square;stroke-linejoin:round;stroke-miterlimit:10;stroke-dasharray:none;stroke-opacity:1"
           d="M 768.75039,108 V 760.32" /></g></g><g
       id="g116"><path
         id="path118"
         style="fill:#000000;fill-opacity:1;fill-rule:nonzero;stroke:#000000;stroke-width:0.80000001;stroke-linecap:butt;stroke-linejoin:round;stroke-miterlimit:10;stroke-dasharray:none;stroke-opacity:1"
         d="m 768.75039,108 v -3.5" /><text
         id="text122"
         style="font-variant:normal;font-weight:bold;font-size:16px;font-family:'DejaVu Sans';-inkscape-font-specification:DejaVuSans-Bold;writing-mode:lr-tb;fill:#000000;fill-opacity:1;fill-rule:nonzero;stroke:none"
         transform="matrix(1,0,0,-1,757.60977,88.84375)"><tspan
           id="tspan120"
           y="0"
           x="0 11.136">10</tspan></text>
</g><g
       id="g124"><g
         clip-path="url(#clipPath130)"
         id="g126"><path
           id="path132"
           style="fill:none;stroke:#b0b0b0;stroke-width:0.80000001;stroke-linecap:square;stroke-linejoin:round;stroke-miterlimit:10;stroke-dasharray:none;stroke-opacity:1"
           d="M 885.58436,108 V 760.32" /></g></g><g
       id="g134"><path
         id="path136"
         style="fill:#000000;fill-opacity:1;fill-rule:nonzero;stroke:#000000;stroke-width:0.80000001;stroke-linecap:butt;stroke-linejoin:round;stroke-miterlimit:10;stroke-dasharray:none;stroke-opacity:1"
         d="m 885.58436,108 v -3.5" /><text
         id="text140"
         style="font-variant:normal;font-weight:bold;font-size:16px;font-family:'DejaVu Sans';-inkscape-font-specification:DejaVuSans-Bold;writing-mode:lr-tb;fill:#000000;fill-opacity:1;fill-rule:nonzero;stroke:none"
         transform="matrix(1,0,0,-1,874.44373,88.84375)"><tspan
           id="tspan138"
           y="0"
           x="0 11.136">12</tspan></text>
</g><g
       id="g142"><g
         clip-path="url(#clipPath148)"
         id="g144"><path
           id="path150"
           style="fill:none;stroke:#b0b0b0;stroke-width:0.80000001;stroke-linecap:square;stroke-linejoin:round;stroke-miterlimit:10;stroke-dasharray:none;stroke-opacity:1"
           d="M 1002.4183,108 V 760.32" /></g></g><g
       id="g152"><path
         id="path154"
         style="fill:#000000;fill-opacity:1;fill-rule:nonzero;stroke:#000000;stroke-width:0.80000001;stroke-linecap:butt;stroke-linejoin:round;stroke-miterlimit:10;stroke-dasharray:none;stroke-opacity:1"
         d="m 1002.4183,108 v -3.5" /><text
         id="text158"
         style="font-variant:normal;font-weight:bold;font-size:16px;font-family:'DejaVu Sans';-inkscape-font-specification:DejaVuSans-Bold;writing-mode:lr-tb;fill:#000000;fill-opacity:1;fill-rule:nonzero;stroke:none"
         transform="matrix(1,0,0,-1,991.2777,88.84375)"><tspan
           id="tspan156"
           y="0"
           x="0 11.136">14</tspan></text>
<text
         id="text162"
         style="font-variant:normal;font-weight:normal;font-size:16px;font-family:'DejaVu Sans';-inkscape-font-specification:DejaVuSans;writing-mode:lr-tb;fill:#000000;fill-opacity:1;fill-rule:nonzero;stroke:none"
         transform="matrix(1,0,0,-1,528.73594,69.359375)"><tspan
           id="tspan160"
           y="0"
           x="0 10.944 21.104 31.264 35.712002 40.16 50 60.16 65.248001 74.447998 78.896004 88.736 93.183998 103.344 108.432 113.52">Applied Field, T</tspan></text>
</g><g
       id="g164"><g
         clip-path="url(#clipPath170)"
         id="g166"><path
           id="path172"
           style="fill:none;stroke:#b0b0b0;stroke-width:0.80000001;stroke-linecap:square;stroke-linejoin:round;stroke-miterlimit:10;stroke-dasharray:none;stroke-opacity:1"
           d="m 144,121.31451 h 892.8" /></g></g><g
       id="g174"><path
         id="path176"
         style="fill:#000000;fill-opacity:1;fill-rule:nonzero;stroke:#000000;stroke-width:0.80000001;stroke-linecap:butt;stroke-linejoin:round;stroke-miterlimit:10;stroke-dasharray:none;stroke-opacity:1"
         d="m 144,121.31451 h -3.5" /><g
         transform="translate(50.671875,115.23638)"
         id="g178"><text
           id="text182"
           style="font-variant:normal;font-weight:bold;font-size:16px;font-family:'DejaVu Sans';-inkscape-font-specification:DejaVuSans-Bold;writing-mode:lr-tb;fill:#000000;fill-opacity:1;fill-rule:nonzero;stroke:none"
           transform="matrix(1,0,0,-1,13.40625,0)"><tspan
             id="tspan180"
             y="0"
             x="0 11.136 17.216 28.351999 39.487999 50.624001 61.759998">0.00005</tspan></text>
<g
           transform="scale(0.016)"
           id="g184"><g
             id="g186"><g
               clip-path="url(#clipPath192)"
               id="g188"><path
                 id="path194"
                 style="fill:#000000;fill-opacity:1;fill-rule:nonzero;stroke:none"
                 d="M 106,371 H 732 V 256 H 106 v 115" /></g></g></g></g></g><g
       id="g196"><g
         clip-path="url(#clipPath202)"
         id="g198"><path
           id="path204"
           style="fill:none;stroke:#b0b0b0;stroke-width:0.80000001;stroke-linecap:square;stroke-linejoin:round;stroke-miterlimit:10;stroke-dasharray:none;stroke-opacity:1"
           d="m 144,194.6008 h 892.8" /></g></g><g
       id="g206"><path
         id="path208"
         style="fill:#000000;fill-opacity:1;fill-rule:nonzero;stroke:#000000;stroke-width:0.80000001;stroke-linecap:butt;stroke-linejoin:round;stroke-miterlimit:10;stroke-dasharray:none;stroke-opacity:1"
         d="m 144,194.6008 h -3.5" /><g
         transform="translate(50.671875,188.52268)"
         id="g210"><text
           id="text214"
           style="font-variant:normal;font-weight:bold;font-size:16px;font-family:'DejaVu Sans';-inkscape-font-specification:DejaVuSans-Bold;writing-mode:lr-tb;fill:#000000;fill-opacity:1;fill-rule:nonzero;stroke:none"
           transform="matrix(1,0,0,-1,13.40625,0)"><tspan
             id="tspan212"
             y="0"
             x="0 11.136 17.216 28.351999 39.487999 50.624001 61.759998">0.00004</tspan></text>
<g
           transform="scale(0.016)"
           id="g216"><g
             id="g218"><g
               clip-path="url(#clipPath224)"
               id="g220"><path
                 id="path226"
                 style="fill:#000000;fill-opacity:1;fill-rule:nonzero;stroke:none"
                 d="M 106,371 H 732 V 256 H 106 v 115" /></g></g></g></g></g><g
       id="g228"><g
         clip-path="url(#clipPath234)"
         id="g230"><path
           id="path236"
           style="fill:none;stroke:#b0b0b0;stroke-width:0.80000001;stroke-linecap:square;stroke-linejoin:round;stroke-miterlimit:10;stroke-dasharray:none;stroke-opacity:1"
           d="m 144,267.8871 h 892.8" /></g></g><g
       id="g238"><path
         id="path240"
         style="fill:#000000;fill-opacity:1;fill-rule:nonzero;stroke:#000000;stroke-width:0.80000001;stroke-linecap:butt;stroke-linejoin:round;stroke-miterlimit:10;stroke-dasharray:none;stroke-opacity:1"
         d="m 144,267.8871 h -3.5" /><g
         transform="translate(50.671875,261.80897)"
         id="g242"><text
           id="text246"
           style="font-variant:normal;font-weight:bold;font-size:16px;font-family:'DejaVu Sans';-inkscape-font-specification:DejaVuSans-Bold;writing-mode:lr-tb;fill:#000000;fill-opacity:1;fill-rule:nonzero;stroke:none"
           transform="matrix(1,0,0,-1,13.40625,0)"><tspan
             id="tspan244"
             y="0"
             x="0 11.136 17.216 28.351999 39.487999 50.624001 61.759998">0.00003</tspan></text>
<g
           transform="scale(0.016)"
           id="g248"><g
             id="g250"><g
               clip-path="url(#clipPath256)"
               id="g252"><path
                 id="path258"
                 style="fill:#000000;fill-opacity:1;fill-rule:nonzero;stroke:none"
                 d="M 106,371 H 732 V 256 H 106 v 115" /></g></g></g></g></g><g
       id="g260"><g
         clip-path="url(#clipPath266)"
         id="g262"><path
           id="path268"
           style="fill:none;stroke:#b0b0b0;stroke-width:0.80000001;stroke-linecap:square;stroke-linejoin:round;stroke-miterlimit:10;stroke-dasharray:none;stroke-opacity:1"
           d="m 144,341.17339 h 892.8" /></g></g><g
       id="g270"><path
         id="path272"
         style="fill:#000000;fill-opacity:1;fill-rule:nonzero;stroke:#000000;stroke-width:0.80000001;stroke-linecap:butt;stroke-linejoin:round;stroke-miterlimit:10;stroke-dasharray:none;stroke-opacity:1"
         d="m 144,341.17339 h -3.5" /><g
         transform="translate(50.671875,335.09527)"
         id="g274"><text
           id="text278"
           style="font-variant:normal;font-weight:bold;font-size:16px;font-family:'DejaVu Sans';-inkscape-font-specification:DejaVuSans-Bold;writing-mode:lr-tb;fill:#000000;fill-opacity:1;fill-rule:nonzero;stroke:none"
           transform="matrix(1,0,0,-1,13.40625,0)"><tspan
             id="tspan276"
             y="0"
             x="0 11.136 17.216 28.351999 39.487999 50.624001 61.759998">0.00002</tspan></text>
<g
           transform="scale(0.016)"
           id="g280"><g
             id="g282"><g
               clip-path="url(#clipPath288)"
               id="g284"><path
                 id="path290"
                 style="fill:#000000;fill-opacity:1;fill-rule:nonzero;stroke:none"
                 d="M 106,371 H 732 V 256 H 106 v 115" /></g></g></g></g></g><g
       id="g292"><g
         clip-path="url(#clipPath298)"
         id="g294"><path
           id="path300"
           style="fill:none;stroke:#b0b0b0;stroke-width:0.80000001;stroke-linecap:square;stroke-linejoin:round;stroke-miterlimit:10;stroke-dasharray:none;stroke-opacity:1"
           d="m 144,414.45969 h 892.8" /></g></g><g
       id="g302"><path
         id="path304"
         style="fill:#000000;fill-opacity:1;fill-rule:nonzero;stroke:#000000;stroke-width:0.80000001;stroke-linecap:butt;stroke-linejoin:round;stroke-miterlimit:10;stroke-dasharray:none;stroke-opacity:1"
         d="m 144,414.45969 h -3.5" /><g
         transform="translate(50.671875,408.38156)"
         id="g306"><text
           id="text310"
           style="font-variant:normal;font-weight:bold;font-size:16px;font-family:'DejaVu Sans';-inkscape-font-specification:DejaVuSans-Bold;writing-mode:lr-tb;fill:#000000;fill-opacity:1;fill-rule:nonzero;stroke:none"
           transform="matrix(1,0,0,-1,13.40625,0)"><tspan
             id="tspan308"
             y="0"
             x="0 11.136 17.216 28.351999 39.487999 50.624001 61.759998">0.00001</tspan></text>
<g
           transform="scale(0.016)"
           id="g312"><g
             id="g314"><g
               clip-path="url(#clipPath320)"
               id="g316"><path
                 id="path322"
                 style="fill:#000000;fill-opacity:1;fill-rule:nonzero;stroke:none"
                 d="M 106,371 H 732 V 256 H 106 v 115" /></g></g></g></g></g><g
       id="g324"><g
         clip-path="url(#clipPath330)"
         id="g326"><path
           id="path332"
           style="fill:none;stroke:#b0b0b0;stroke-width:0.80000001;stroke-linecap:square;stroke-linejoin:round;stroke-miterlimit:10;stroke-dasharray:none;stroke-opacity:1"
           d="m 144,487.74598 h 892.8" /></g></g><g
       id="g334"><path
         id="path336"
         style="fill:#000000;fill-opacity:1;fill-rule:nonzero;stroke:#000000;stroke-width:0.80000001;stroke-linecap:butt;stroke-linejoin:round;stroke-miterlimit:10;stroke-dasharray:none;stroke-opacity:1"
         d="m 144,487.74598 h -3.5" /><text
         id="text340"
         style="font-variant:normal;font-weight:bold;font-size:16px;font-family:'DejaVu Sans';-inkscape-font-specification:DejaVuSans-Bold;writing-mode:lr-tb;fill:#000000;fill-opacity:1;fill-rule:nonzero;stroke:none"
         transform="matrix(1,0,0,-1,64.078125,481.66786)"><tspan
           id="tspan338"
           y="0"
           x="0 11.136 17.216 28.351999 39.487999 50.624001 61.759998">0.00000</tspan></text>
</g><g
       id="g342"><g
         clip-path="url(#clipPath348)"
         id="g344"><path
           id="path350"
           style="fill:none;stroke:#b0b0b0;stroke-width:0.80000001;stroke-linecap:square;stroke-linejoin:round;stroke-miterlimit:10;stroke-dasharray:none;stroke-opacity:1"
           d="m 144,561.03227 h 892.8" /></g></g><g
       id="g352"><path
         id="path354"
         style="fill:#000000;fill-opacity:1;fill-rule:nonzero;stroke:#000000;stroke-width:0.80000001;stroke-linecap:butt;stroke-linejoin:round;stroke-miterlimit:10;stroke-dasharray:none;stroke-opacity:1"
         d="m 144,561.03227 h -3.5" /><text
         id="text358"
         style="font-variant:normal;font-weight:bold;font-size:16px;font-family:'DejaVu Sans';-inkscape-font-specification:DejaVuSans-Bold;writing-mode:lr-tb;fill:#000000;fill-opacity:1;fill-rule:nonzero;stroke:none"
         transform="matrix(1,0,0,-1,64.078125,554.95415)"><tspan
           id="tspan356"
           y="0"
           x="0 11.136 17.216 28.351999 39.487999 50.624001 61.759998">0.00001</tspan></text>
</g><g
       id="g360"><g
         clip-path="url(#clipPath366)"
         id="g362"><path
           id="path368"
           style="fill:none;stroke:#b0b0b0;stroke-width:0.80000001;stroke-linecap:square;stroke-linejoin:round;stroke-miterlimit:10;stroke-dasharray:none;stroke-opacity:1"
           d="m 144,634.31857 h 892.8" /></g></g><g
       id="g370"><path
         id="path372"
         style="fill:#000000;fill-opacity:1;fill-rule:nonzero;stroke:#000000;stroke-width:0.80000001;stroke-linecap:butt;stroke-linejoin:round;stroke-miterlimit:10;stroke-dasharray:none;stroke-opacity:1"
         d="m 144,634.31857 h -3.5" /><text
         id="text376"
         style="font-variant:normal;font-weight:bold;font-size:16px;font-family:'DejaVu Sans';-inkscape-font-specification:DejaVuSans-Bold;writing-mode:lr-tb;fill:#000000;fill-opacity:1;fill-rule:nonzero;stroke:none"
         transform="matrix(1,0,0,-1,64.078125,628.24044)"><tspan
           id="tspan374"
           y="0"
           x="0 11.136 17.216 28.351999 39.487999 50.624001 61.759998">0.00002</tspan></text>
</g><g
       id="g378"><g
         clip-path="url(#clipPath384)"
         id="g380"><path
           id="path386"
           style="fill:none;stroke:#b0b0b0;stroke-width:0.80000001;stroke-linecap:square;stroke-linejoin:round;stroke-miterlimit:10;stroke-dasharray:none;stroke-opacity:1"
           d="m 144,707.60486 h 892.8" /></g></g><g
       id="g388"><path
         id="path390"
         style="fill:#000000;fill-opacity:1;fill-rule:nonzero;stroke:#000000;stroke-width:0.80000001;stroke-linecap:butt;stroke-linejoin:round;stroke-miterlimit:10;stroke-dasharray:none;stroke-opacity:1"
         d="m 144,707.60486 h -3.5" /><text
         id="text394"
         style="font-variant:normal;font-weight:bold;font-size:16px;font-family:'DejaVu Sans';-inkscape-font-specification:DejaVuSans-Bold;writing-mode:lr-tb;fill:#000000;fill-opacity:1;fill-rule:nonzero;stroke:none"
         transform="matrix(1,0,0,-1,64.078125,701.52674)"><tspan
           id="tspan392"
           y="0"
           x="0 11.136 17.216 28.351999 39.487999 50.624001 61.759998">0.00003</tspan></text>
<g
         transform="rotate(90,-124.49406,167.16594)"
         id="g396"><text
           id="text400"
           style="font-variant:normal;font-weight:normal;font-size:16px;font-family:'DejaVu Sans';-inkscape-font-specification:DejaVuSans;writing-mode:lr-tb;fill:#000000;fill-opacity:1;fill-rule:nonzero;stroke:none"
           transform="matrix(1,0,0,-1,0,0.84375)"><tspan
             id="tspan398"
             y="0"
             x="0 11.117188 20.960938 25.40625 35.210938 41.484375 45.929688 55.398438 65.242188 70.328125 81.5 91.304688 101.46094 111.26562 120.0625 124.50781 130.78125 140.58594 150.72656 159.52344 169.36719 174.45312 185.625 195.76562 205.57031 215.71094 225.86719 235.71094 240.79688 256.82812 268 273.39062">Relative Capacitance Change, C/C</tspan></text>
<g
           transform="matrix(0.016,0,0,0.016,245.88281,0.84375)"
           id="g402"><g
             id="g404"><g
               clip-path="url(#clipPath410)"
               id="g406"><path
                 id="path412"
                 style="fill:#000000;fill-opacity:1;fill-rule:nonzero;stroke:none"
                 d="M 342,632 142,82 H 542 L 342,632 M 8,0 286,729 H 398 L 676,0 H 8" /></g></g></g></g></g><g
       id="g414"><g
         clip-path="url(#clipPath420)"
         id="g416"><path
           id="path422"
           style="fill:none;stroke:#1f77b4;stroke-width:1.5;stroke-linecap:square;stroke-linejoin:round;stroke-miterlimit:10;stroke-dasharray:none;stroke-opacity:1"
           d="m 184.58182,487.74598 0.76223,3.5724 0.90714,110.74436 0.86254,-53.58598 0.86476,-121.46156 0.88881,-35.72398 0.9116,110.74435 h 0.88639 l 0.88842,28.5792 0.86385,-75.02038 0.88778,-21.43439 0.86396,-82.16517 0.86415,64.30318 0.91115,-178.61994 0.88912,153.61315 0.86447,-150.04075 0.8637,160.75794 0.86471,-7.1448 0.88706,85.73757 0.88756,46.44119 0.86358,-82.16517 0.86442,-53.58598 0.88924,-21.4344 0.86474,-32.15159 0.86463,96.45477 0.86302,-85.73757 0.88852,100.02716 0.88775,-67.87557 0.86471,-28.57919 0.88708,-42.86878 0.86521,196.48192 0.88883,-135.75115 0.88781,67.87558 0.86474,-32.15159 1.23973,-96.45476 0.86718,75.02037 0.88851,-21.43439 0.84101,-25.0068 0.8891,-92.88236 0.866,146.46835 0.86614,21.43439 0.8659,-28.57919 0.88725,32.15159 1.75437,-42.86879 0.91278,125.03396 0.88754,-50.01359 0.86663,21.4344 0.84248,39.29638 0.86624,-32.15159 0.88911,71.44798 0.86353,-146.46835 h 0.88873 l 0.86564,3.5724 0.86465,96.45476 0.9112,121.46156 0.86699,-57.15838 0.88961,-89.30997 0.88909,200.05433 0.88797,-142.89595 0.88931,50.01359 0.86544,-32.15159 0.86577,-10.7172 0.88808,-82.16517 0.86531,10.7172 0.88847,21.43439 0.86711,50.01358 0.86527,-3.5724 0.88842,-28.57919 0.86572,-71.44797 0.89402,110.74436 0.86569,-10.7172 0.86553,35.72399 0.86398,-25.00679 0.89058,-200.05433 0.8664,178.61994 0.88893,57.15838 0.88785,-10.7172 0.86562,89.30997 0.86566,-178.61994 0.88871,103.59956 1.7783,-7.14479 0.91317,78.59277 0.8885,-85.73757 0.86536,-46.44118 h 0.86559 l 0.91218,-3.5724 0.8647,-10.7172 0.88907,121.46156 0.86553,-103.59956 0.88877,-39.29639 0.8663,100.02716 0.86635,10.7172 0.88754,110.74436 0.91273,-128.60635 0.86503,42.86878 0.86558,-25.00679 0.912,-46.44119 0.88947,-21.43439 0.88758,142.89595 0.86767,-117.88916 0.86599,-46.44118 0.88797,50.01358 0.88953,-85.73757 0.91531,75.02038 0.88953,117.88915 0.8879,-139.32354 0.88913,-32.15159 0.86707,-39.29639 0.8658,228.63352 0.91194,-42.86879 h 0.86511 l 1.77777,-75.02037 0.86562,-7.1448 h 0.86452 l 0.88912,-71.44797 0.86717,17.86199 0.91257,21.4344 0.86511,-53.58599 0.86573,-17.86199 0.86417,110.74436 0.88977,-153.61314 0.88811,28.57919 1.75471,-21.4344 0.89033,-28.57919 0.86688,50.01359 0.91456,-32.15159 0.86898,-7.1448 h 0.88897 l 0.86884,85.73757 0.91529,60.73078 0.86831,-110.74436 0.89352,-14.2896 0.89197,146.46835 0.86838,-25.00679 0.89148,3.5724 0.86916,-53.58598 h 0.86843 l 0.89269,178.61993 0.86576,-75.02037 0.86842,14.28959 0.89338,-39.29638 0.8934,-139.32355 0.86699,46.44118 0.91567,-3.5724 0.89162,71.44798 0.91578,-39.29639 0.86833,28.57919 0.89187,-32.15159 0.89216,-67.87557 0.91686,42.86878 0.91411,28.57919 h 0.91444 l 0.86916,25.00679 0.89065,-35.72399 0.89234,-10.71719 0.89112,-14.2896 0.86693,75.02038 0.86931,64.30317 0.91647,-78.59277 0.89121,-28.57919 0.89152,17.862 0.86946,-50.01359 0.89119,42.86879 0.84554,10.7172 0.89146,-75.02038 0.89212,14.2896 0.89327,-42.86879 0.89261,-10.71719 0.86638,82.16517 0.91493,-53.58598 0.89342,67.87557 0.86972,78.59277 0.86706,-85.73757 0.91593,135.75115 0.86855,-100.02716 h 0.87006 l 0.86897,17.86199 0.89075,-103.59956 0.89246,182.19234 0.86826,-114.31676 0.86714,-3.5724 0.86739,21.43439 0.89259,10.7172 0.86994,-78.59277 0.89235,-35.72399 0.8683,114.31676 0.88937,-25.00679 h 0.89251 l 0.89085,35.72398 0.8921,-32.15158 0.86789,-17.862 0.86874,-85.73757 0.8697,28.57919 0.86889,21.43439 0.91491,-7.14479 0.86893,114.31676 0.89169,-142.89595 0.89193,-57.15838 0.91327,7.1448 0.86793,-14.2896 0.89232,100.02716 0.86999,-7.14479 0.89187,-100.02717 0.86836,53.58598 0.89221,46.44119 0.89649,7.14479 0.8693,-28.57919 0.86751,-85.73756 0.86908,60.73077 0.89276,-64.30317 0.86804,167.90274 0.86766,21.43439 0.89127,-42.86879 0.86902,-14.28959 0.89109,71.44797 0.86911,-42.86878 0.88933,-53.58598 0.89239,157.18554 0.87007,-244.70931 0.91564,119.67536 0.86779,14.28959 0.91562,10.7172 0.915,96.45476 0.8677,-35.72398 0.8922,-42.86879 0.89189,-12.14615 0.86866,-20.00544 0.89289,-10.71719 1.82847,57.15837 0.86955,89.30997 0.89124,-46.44118 0.89223,-132.17875 0.8428,92.88236 0.86784,-14.28959 1.80997,71.44797 0.86753,-25.00679 0.86832,-64.30317 0.91584,10.71719 0.87169,21.43439 0.89251,53.58598 0.89106,-71.44797 0.84554,92.88237 0.89314,-125.03396 0.869,-92.88236 0.91267,110.74436 0.86873,35.72398 0.89136,-96.45476 0.86861,21.43439 0.89216,128.60635 0.89104,21.4344 0.89271,7.14479 0.89364,10.7172 0.89152,-25.00679 0.868,-142.89595 0.91568,75.02037 0.89127,-14.28959 0.89047,117.88915 0.89079,-125.03395 0.8923,-21.43439 0.86948,-32.15159 0.89252,-53.58598 0.89171,125.03395 0.86847,-42.86878 0.8687,110.74436 0.8677,-17.86199 0.86891,-50.01359 h 0.8912 l 0.8689,-60.73077 0.8934,10.71719 0.86851,-21.43439 0.89132,-28.57919 0.89211,175.04754 0.89235,-28.57919 0.89054,-21.43439 1.75981,-107.17197 0.892,57.15838 0.87046,-28.57919 0.89257,-14.28959 0.86708,114.31676 0.89241,-21.43439 0.86847,-146.46835 0.86916,-46.44118 0.89127,46.44118 0.89227,82.16517 0.89298,-21.43439 0.8672,-75.02038 0.89152,-3.5724 0.86815,96.45477 0.86887,-14.2896 0.86715,42.86879 0.89275,-121.46156 0.86535,117.88916 h 0.86904 l 0.87003,10.7172 0.89248,-71.44798 0.84405,-10.71719 0.91601,-39.29639 0.86881,-57.15838 0.86797,325.08828 0.9161,32.15159 0.89109,-92.88236 0.89234,17.86199 0.91683,-35.72399 0.89234,-85.73757 0.8912,46.44119 0.86884,-114.31676 0.89351,21.43439 0.89232,103.59956 0.86829,-78.59277 0.86872,121.46156 0.86875,-110.74436 0.89337,132.17875 1.78336,-221.48872 0.89104,96.45477 0.89086,-85.73757 0.89248,-42.86879 0.86797,10.7172 0.86907,14.28959 0.86936,25.00679 0.8674,107.17196 0.91443,-89.30996 0.86918,-14.2896 0.86864,10.7172 0.89097,-3.5724 0.86877,-92.88237 0.86726,-7.14479 0.91626,92.88236 0.91678,35.72399 0.89223,-42.86879 0.89161,-32.15158 0.86859,28.57919 0.8682,-60.73078 0.91356,153.61314 0.86795,42.86879 0.8917,25.00679 0.86907,-46.44119 0.86948,-164.33034 0.89223,132.17876 0.89159,-132.17876 0.84544,7.1448 0.89661,10.7172 0.86898,-32.15159 0.89118,-25.00679 0.89042,60.73078 0.86987,-121.46156 0.89225,200.05433 0.86797,-39.29639 0.89202,-10.71719 0.86891,-32.15159 0.9129,46.44118 0.86889,-32.15159 0.89138,-14.28959 0.84527,3.5724 1.76193,117.88915 0.86845,-160.75794 0.86877,-7.1448 0.89068,82.16517 0.86929,-35.72398 0.89157,196.48193 0.86763,-100.02717 0.86685,28.57919 0.89399,-46.44118 0.89223,-78.59277 0.89097,10.71719 0.86884,25.00679 0.89113,-42.86878 0.86911,7.1448 0.86754,-82.16517 0.86913,146.46834 0.86921,75.02038 0.89241,-167.90274 0.89282,10.71719 0.84385,-42.86878 0.91363,139.32355 0.89561,28.57919 0.86877,-60.73078 0.89106,-32.15159 0.86864,-75.02037 h 0.93942 l 0.86774,125.03395 0.89188,-64.30317 0.86855,35.72398 0.91484,-3.57239 0.89259,-82.16517 0.86827,260.7851 0.89129,-225.06112 0.89234,46.44119 0.86966,82.16517 0.86928,-103.59957 1.17644,-53.58598 2.20681,150.75523 2.16593,-32.86607 2.28378,-128.60635 2.16529,-21.4344 2.16496,-17.86199 2.22452,250.06791 2.16123,-178.61993 2.16576,71.44797 2.28217,-64.30318 2.22598,7.1448 2.16426,64.30318 2.22352,-117.88916 2.22139,175.04754 2.22323,-142.89595 2.16428,-10.7172 2.16503,-78.59277 2.22569,10.7172 2.1643,153.61314 2.16024,-107.17196 2.16705,-89.30997 h 2.2234 l 2.22592,-78.59277 2.10607,-46.44118 2.22618,146.46834 2.16458,-39.29638 2.2235,232.20591 2.28415,-64.30317 2.16499,-28.57919 2.16421,-42.86879 h 2.22372 l 2.167,10.7172 2.16006,21.43439 2.22308,-10.71719 2.16723,-14.2896 2.16485,-10.7172 2.17101,-17.86199 2.2224,-46.44118 2.22601,21.43439 2.16449,-46.44118 2.22335,-64.30318 2.16673,146.46835 2.22409,-35.72399 2.21824,-7.1448 2.22309,42.86879 2.16722,7.14479 2.22318,-71.44797 2.22327,21.43439 2.22569,125.03396 2.21852,-50.01358 2.22706,-35.72399 2.22386,78.59277 2.16663,-21.43439 2.28173,-3.5724 2.16453,14.28959 2.16727,39.29639 2.22327,21.43439 2.28209,-53.58598 2.1654,-14.28959 2.22441,-17.862 2.22332,-28.57919 h 4.38551 l 2.16527,103.59957 2.2245,57.15837 2.16499,-46.44118 2.22486,-53.58598 2.2774,-21.43439 2.16526,89.30997 2.22633,-42.86879 2.10625,-10.71719 h 2.16412 l 2.16553,-67.87558 2.16586,-21.43439 2.22404,21.43439 2.2235,64.30318 2.1669,-67.87558 2.16581,28.57919 2.28406,32.15159 2.22391,28.57919 2.16531,-57.15838 2.16594,14.2896 h 2.22368 l 2.22574,10.71719 2.22331,42.86879 2.1649,14.28959 2.16553,32.15159 2.34079,-57.15838 2.28232,-132.17875 2.28233,7.1448 2.16695,135.75115 2.27858,-46.44119 2.22687,103.59956 2.22473,-57.15837 2.34188,67.87557 2.16499,-3.5724 2.223,32.15159 2.28383,-167.90274 2.10593,-17.86199 2.22276,103.59956 2.2256,-42.86878 2.16494,-3.5724 2.16536,-21.43439 2.21838,82.16517 2.2841,7.14479 2.16737,-75.02037 2.22486,28.57919 h 2.16618 l 2.16499,10.7172 2.15996,-185.76474 2.16504,150.04075 2.16654,-39.29639 2.16485,53.58598 2.22304,-25.00679 2.22578,-7.14479 2.2229,-17.862 2.1649,21.43439 2.16476,-110.74436 2.28428,-64.30317 2.16472,32.15159 2.16257,46.44118 2.16498,39.29638 2.22364,121.46156 2.16558,-21.43439 2.22295,-46.44118 2.16745,60.73077 2.15828,-132.17875 2.22345,107.17196 2.22551,39.29639 2.16457,71.44797 2.22459,-92.88236 2.22314,64.30317 2.28341,-25.00679 2.10767,-17.86199 2.22405,-60.73078 2.16658,32.15159 2.22441,64.30317 2.22331,-17.86199 2.10621,-35.72399 2.21975,-75.02037 2.16458,228.63352 2.22231,-157.18554 2.1084,-85.73757 4.4474,178.61993 2.28214,-35.72399 2.22537,-3.57239 2.22728,-39.29639 2.22336,67.87558 2.167,-196.48193 2.16599,239.35071 2.21775,-132.17875 2.16512,75.02037 2.28292,-21.43439 2.16412,10.71719 2.22322,50.01359 2.2261,-42.86879 2.15951,-28.57919 2.16463,-42.86878 2.16544,-3.5724 2.16558,-107.17196 2.16805,-7.1448 2.22354,103.59956 2.22532,57.15838 2.16476,-78.59277 2.22341,35.72399 2.22409,-35.72399 2.22304,-150.04074 2.16079,96.45476 2.16457,-17.86199 2.16664,-78.59277 2.22299,-28.57919 2.16499,-60.73078 2.22368,67.87557 2.22372,228.63352 2.16549,-35.72399 2.22355,10.7172 2.22573,-28.57919 2.16444,82.16517 2.16526,-7.1448 2.22404,-64.30317 2.21825,71.44797 2.22254,-75.02037 2.2235,32.15159 2.1664,-85.73757 2.22263,-42.86879 2.16325,46.44119 2.16298,25.00679 2.22386,39.29638 2.22542,-78.59277 2.16453,3.5724 2.22541,17.86199 2.16426,82.16517 2.22331,142.89595 2.16572,-214.34392 2.22341,-71.44797 2.16416,14.28959 2.28155,-17.86199 2.22542,175.04753 2.22358,-110.74436 2.28064,89.30997 h 2.16563 l 2.16535,-96.45476 2.22833,39.29638 2.16508,160.75794 2.16599,-128.60635 2.16426,-64.30318 2.22332,53.58598 2.16544,46.44119 2.22377,-3.5724 v 0" /></g></g><g
       id="g424"><path
         id="path426"
         style="fill:none;stroke:#000000;stroke-width:0.80000001;stroke-linecap:square;stroke-linejoin:miter;stroke-miterlimit:10;stroke-dasharray:none;stroke-opacity:1"
         d="M 144,108 V 760.32" /><path
         id="path428"
         style="fill:none;stroke:#000000;stroke-width:0.80000001;stroke-linecap:square;stroke-linejoin:miter;stroke-miterlimit:10;stroke-dasharray:none;stroke-opacity:1"
         d="M 1036.8,108 V 760.32" /><path
         id="path430"
         style="fill:none;stroke:#000000;stroke-width:0.80000001;stroke-linecap:square;stroke-linejoin:miter;stroke-miterlimit:10;stroke-dasharray:none;stroke-opacity:1"
         d="m 144,108 h 892.8" /><path
         id="path432"
         style="fill:none;stroke:#000000;stroke-width:0.80000001;stroke-linecap:square;stroke-linejoin:miter;stroke-miterlimit:10;stroke-dasharray:none;stroke-opacity:1"
         d="m 144,760.32 h 892.8" /></g></g></svg>