<?xml version="1.0" encoding="UTF-8" standalone="no"?>
<svg
   xmlns:dc="http://purl.org/dc/elements/1.1/"
   xmlns:cc="http://creativecommons.org/ns#"
   xmlns:rdf="http://www.w3.org/1999/02/22-rdf-syntax-ns#"
   xmlns:svg="http://www.w3.org/2000/svg"
   xmlns="http://www.w3.org/2000/svg"
   viewBox="0 0 733.30548 407.16135"
   height="407.16135"
   width="733.30548"
   xml:space="preserve"
   id="svg2"
   version="1.1"><metadata
     id="metadata8"><rdf:RDF><cc:Work
         rdf:about=""><dc:format>image/svg+xml</dc:format><dc:type
           rdf:resource="http://purl.org/dc/dcmitype/StillImage" /></cc:Work></rdf:RDF></metadata><defs
     id="defs6" /><g
     transform="matrix(1.3333333,0,0,1.3333333,-35.406666,-55.291654)"
     id="g10"><g
       id="g12"><g
         id="g14"><path
           id="path16"
           style="fill:#ff0000;fill-opacity:1;fill-rule:nonzero;stroke:#000000;stroke-width:2.957546;stroke-linecap:butt;stroke-linejoin:miter;stroke-miterlimit:4;stroke-dasharray:none;stroke-opacity:1"
           d="m 280.961,180.875 h 257.641 v 20.871 H 280.961 Z" /></g><g
         id="g18"><path
           id="path20"
           style="fill:none;stroke:#000000;stroke-width:2.80160809;stroke-linecap:butt;stroke-linejoin:miter;stroke-miterlimit:4;stroke-dasharray:none;stroke-opacity:1"
           d="m 311.535,152.141 h 199.641 v 80.551 H 311.535 Z" /></g><text
         id="text24"
         style="font-variant:normal;font-weight:normal;font-size:18.97817802px;font-family:'DejaVu Sans';-inkscape-font-specification:DejaVuSans;writing-mode:lr-tb;fill:#000000;fill-opacity:1;fill-rule:nonzero;stroke:none"
         transform="translate(300.12642,299.78155)"><tspan
           id="tspan22"
           y="0"
           x="0">P</tspan></text>
<g
         id="g26"><path
           id="path28"
           style="fill:none;stroke:#000000;stroke-width:2.37227201;stroke-linecap:butt;stroke-linejoin:miter;stroke-miterlimit:4;stroke-dasharray:none;stroke-opacity:1"
           d="m 318.043,293.605 c 0,6.821 -5.531,12.356 -12.355,12.356 -6.825,0 -12.356,-5.535 -12.356,-12.356 0,-6.824 5.531,-12.355 12.356,-12.355 6.824,0 12.355,5.531 12.355,12.355 z" /></g><g
         id="g30"><path
           id="path32"
           style="fill:none;stroke:#000000;stroke-width:2.37227201;stroke-linecap:butt;stroke-linejoin:miter;stroke-miterlimit:4;stroke-dasharray:none;stroke-opacity:1"
           d="m 191.09,230.281 c 0,6.824 -5.535,12.356 -12.356,12.356 -6.824,0 -12.355,-5.532 -12.355,-12.356 0,-6.824 5.531,-12.355 12.355,-12.355 6.821,0 12.356,5.531 12.356,12.355 z" /></g><g
         id="g34"><path
           id="path36"
           style="fill:none;stroke:#000000;stroke-width:0.790757;stroke-linecap:butt;stroke-linejoin:miter;stroke-miterlimit:4;stroke-dasharray:none;stroke-opacity:1"
           d="m 187.473,221.668 c -17.364,17.363 -17.364,17.363 -17.364,17.363" /></g><g
         id="g38"><path
           id="path40"
           style="fill:none;stroke:#000000;stroke-width:0.790757;stroke-linecap:butt;stroke-linejoin:miter;stroke-miterlimit:4;stroke-dasharray:none;stroke-opacity:1"
           d="m 169.836,221.504 c 17.363,17.363 17.363,17.363 17.363,17.363" /></g><text
         id="text44"
         style="font-variant:normal;font-weight:normal;font-size:18.97817802px;font-family:'DejaVu Sans';-inkscape-font-specification:DejaVuSans;writing-mode:lr-tb;fill:#000000;fill-opacity:1;fill-rule:nonzero;stroke:none"
         transform="translate(252.24852,198.46575)"><tspan
           id="tspan42"
           y="0"
           x="0">P</tspan></text>
<g
         id="g46"><path
           id="path48"
           style="fill:none;stroke:#000000;stroke-width:2.37227201;stroke-linecap:butt;stroke-linejoin:miter;stroke-miterlimit:4;stroke-dasharray:none;stroke-opacity:1"
           d="m 270.164,192.289 c 0,6.824 -5.531,12.356 -12.355,12.356 -6.825,0 -12.356,-5.532 -12.356,-12.356 0,-6.824 5.531,-12.355 12.356,-12.355 6.824,0 12.355,5.531 12.355,12.355 z" /></g><g
         id="g50"><path
           id="path52"
           style="fill:none;stroke:#000000;stroke-width:2.37227201;stroke-linecap:butt;stroke-linejoin:miter;stroke-miterlimit:4;stroke-dasharray:none;stroke-opacity:1"
           d="m 110.777,192.289 c 0,6.824 -5.531,12.356 -12.355,12.356 -6.824,0 -12.356,-5.532 -12.356,-12.356 0,-6.824 5.532,-12.355 12.356,-12.355 6.824,0 12.355,5.531 12.355,12.355 z" /></g><g
         id="g54"><path
           id="path56"
           style="fill:none;stroke:#000000;stroke-width:0.790757;stroke-linecap:butt;stroke-linejoin:miter;stroke-miterlimit:4;stroke-dasharray:none;stroke-opacity:1"
           d="M 107.16,183.676 C 89.797,201.039 89.797,201.039 89.797,201.039" /></g><g
         id="g58"><path
           id="path60"
           style="fill:none;stroke:#000000;stroke-width:0.790757;stroke-linecap:butt;stroke-linejoin:miter;stroke-miterlimit:4;stroke-dasharray:none;stroke-opacity:1"
           d="m 89.523,183.512 c 17.364,17.363 17.364,17.363 17.364,17.363" /></g><g
         id="g62"><path
           id="path64"
           style="fill:none;stroke:#000000;stroke-width:2.37227201;stroke-linecap:butt;stroke-linejoin:miter;stroke-miterlimit:4;stroke-dasharray:none;stroke-opacity:1"
           d="m 232.48,192.289 c 0,6.824 -5.531,12.356 -12.355,12.356 -6.824,0 -12.355,-5.532 -12.355,-12.356 0,-6.824 5.531,-12.355 12.355,-12.355 6.824,0 12.355,5.531 12.355,12.355 z" /></g><g
         id="g66"><path
           id="path68"
           style="fill:none;stroke:#000000;stroke-width:0.790757;stroke-linecap:butt;stroke-linejoin:miter;stroke-miterlimit:4;stroke-dasharray:none;stroke-opacity:1"
           d="M 228.863,183.676 C 211.5,201.039 211.5,201.039 211.5,201.039" /></g><g
         id="g70"><path
           id="path72"
           style="fill:none;stroke:#000000;stroke-width:0.790757;stroke-linecap:butt;stroke-linejoin:miter;stroke-miterlimit:4;stroke-dasharray:none;stroke-opacity:1"
           d="m 211.227,183.512 c 17.363,17.363 17.363,17.363 17.363,17.363" /></g><g
         id="g74"><path
           id="path76"
           style="fill:none;stroke:#000000;stroke-width:2.37227201;stroke-linecap:butt;stroke-linejoin:miter;stroke-miterlimit:4;stroke-dasharray:none;stroke-opacity:1"
           d="m 575.348,189.816 c 0,6.825 -5.532,12.356 -12.356,12.356 -6.824,0 -12.355,-5.531 -12.355,-12.356 0,-6.824 5.531,-12.355 12.355,-12.355 6.824,0 12.356,5.531 12.356,12.355 z" /></g><g
         id="g78"><path
           id="path80"
           style="fill:none;stroke:#000000;stroke-width:0.790757;stroke-linecap:butt;stroke-linejoin:miter;stroke-miterlimit:4;stroke-dasharray:none;stroke-opacity:1"
           d="m 571.73,181.203 c -17.363,17.363 -17.363,17.363 -17.363,17.363" /></g><g
         id="g82"><path
           id="path84"
           style="fill:none;stroke:#000000;stroke-width:0.790757;stroke-linecap:butt;stroke-linejoin:miter;stroke-miterlimit:4;stroke-dasharray:none;stroke-opacity:1"
           d="m 554.094,181.039 c 17.363,17.367 17.363,17.367 17.363,17.367" /></g><g
         id="g86"><path
           id="path88"
           style="fill:none;stroke:#000000;stroke-width:0.79075801;stroke-linecap:butt;stroke-linejoin:miter;stroke-miterlimit:4;stroke-dasharray:none;stroke-opacity:1"
           d="m 281.254,191.617 c -11.356,0 -11.356,0 -11.356,0" /></g><g
         id="g90"><path
           id="path92"
           style="fill:none;stroke:#000000;stroke-width:0.79075801;stroke-linecap:butt;stroke-linejoin:miter;stroke-miterlimit:4;stroke-dasharray:none;stroke-opacity:1"
           d="m 245.871,192.926 c -13.539,0 -13.539,0 -13.539,0" /></g><g
         id="g94"><path
           id="path96"
           style="fill:none;stroke:#000000;stroke-width:0.77265602;stroke-linecap:butt;stroke-linejoin:miter;stroke-miterlimit:4;stroke-dasharray:none;stroke-opacity:1"
           d="m 207.43,192.27 c -92.172,0 -96.758,0 -96.758,0" /></g><g
         id="g98"><path
           id="path100"
           style="fill:none;stroke:#000000;stroke-width:2.70251703;stroke-linecap:butt;stroke-linejoin:miter;stroke-miterlimit:4;stroke-dasharray:none;stroke-opacity:1"
           d="m 156.543,42.82 h 1.523 c 6.2,0 11.196,4.992 11.196,11.196 v 68.14 c 0,6.203 -4.996,11.196 -11.196,11.196 h -1.523 c -6.203,0 -11.195,-4.993 -11.195,-11.196 v -68.14 c 0,-6.204 4.992,-11.196 11.195,-11.196 z" /></g><g
         id="g102"><path
           id="path104"
           style="fill:none;stroke:#000000;stroke-width:2.37227201;stroke-linecap:butt;stroke-linejoin:miter;stroke-miterlimit:4;stroke-dasharray:none;stroke-opacity:1"
           d="m 169.113,162.129 c 0,6.824 -5.531,12.355 -12.355,12.355 -6.824,0 -12.356,-5.531 -12.356,-12.355 0,-6.824 5.532,-12.356 12.356,-12.356 6.824,0 12.355,5.532 12.355,12.356 z" /></g><g
         id="g106"><path
           id="path108"
           style="fill:none;stroke:#000000;stroke-width:0.790757;stroke-linecap:butt;stroke-linejoin:miter;stroke-miterlimit:4;stroke-dasharray:none;stroke-opacity:1"
           d="m 165.496,153.516 c -17.363,17.367 -17.363,17.367 -17.363,17.367" /></g><g
         id="g110"><path
           id="path112"
           style="fill:none;stroke:#000000;stroke-width:0.790757;stroke-linecap:butt;stroke-linejoin:miter;stroke-miterlimit:4;stroke-dasharray:none;stroke-opacity:1"
           d="m 147.859,153.352 c 17.364,17.367 17.364,17.367 17.364,17.367" /></g><g
         id="g114"><path
           id="path116"
           style="fill:none;stroke:#000000;stroke-width:0.79075801;stroke-linecap:butt;stroke-linejoin:miter;stroke-miterlimit:4;stroke-dasharray:none;stroke-opacity:1"
           d="m 156.539,149.68 c 0,-16.383 0,-16.383 0,-16.383 v 0.437" /></g><g
         id="g118"><path
           id="path120"
           style="fill:none;stroke:#000000;stroke-width:0.79075801;stroke-linecap:butt;stroke-linejoin:miter;stroke-miterlimit:4;stroke-dasharray:none;stroke-opacity:1"
           d="m 156.977,174.578 c 0,17.477 0,17.477 0,17.477" /></g><g
         id="g122"><path
           id="path124"
           style="fill:none;stroke:#000000;stroke-width:2.37227201;stroke-linecap:butt;stroke-linejoin:miter;stroke-miterlimit:4;stroke-dasharray:none;stroke-opacity:1"
           d="m 178.055,262.383 h 41.281 c 5.625,0 10.156,4.531 10.156,10.156 v 41.281 c 0,5.629 -4.531,10.157 -10.156,10.157 h -41.281 c -5.629,0 -10.157,-4.528 -10.157,-10.157 v -41.281 c 0,-5.625 4.528,-10.156 10.157,-10.156 z" /></g><g
         id="g126"><path
           id="path128"
           style="fill:none;stroke:#000000;stroke-width:2.37227201;stroke-linecap:butt;stroke-linejoin:miter;stroke-miterlimit:4;stroke-dasharray:none;stroke-opacity:1"
           d="m 147.055,292.961 c 0,6.824 -5.535,12.355 -12.36,12.355 -6.82,0 -12.355,-5.531 -12.355,-12.355 0,-6.824 5.535,-12.356 12.355,-12.356 6.825,0 12.36,5.532 12.36,12.356 z" /></g><g
         id="g130"><path
           id="path132"
           style="fill:none;stroke:#000000;stroke-width:0.790757;stroke-linecap:butt;stroke-linejoin:miter;stroke-miterlimit:4;stroke-dasharray:none;stroke-opacity:1"
           d="M 143.438,284.348 C 126.07,301.715 126.07,301.715 126.07,301.715" /></g><g
         id="g134"><path
           id="path136"
           style="fill:none;stroke:#000000;stroke-width:0.790757;stroke-linecap:butt;stroke-linejoin:miter;stroke-miterlimit:4;stroke-dasharray:none;stroke-opacity:1"
           d="m 125.801,284.184 c 17.363,17.367 17.363,17.367 17.363,17.367" /></g><g
         id="g138"><path
           id="path140"
           style="fill:none;stroke:#000000;stroke-width:0.77455002;stroke-linecap:butt;stroke-linejoin:miter;stroke-miterlimit:4;stroke-dasharray:none;stroke-opacity:1"
           d="m 134.48,280.074 c 0,-84.031 0,-87.804 0,-87.804" /></g><g
         id="g142"><path
           id="path144"
           style="fill:none;stroke:#000000;stroke-width:0.79075801;stroke-linecap:butt;stroke-linejoin:miter;stroke-miterlimit:4;stroke-dasharray:none;stroke-opacity:1"
           d="m 146.93,293.18 c 20.968,0 20.312,0 20.312,0" /></g><g
         id="g146"><path
           id="path148"
           style="fill:none;stroke:#000000;stroke-width:2.37227201;stroke-linecap:butt;stroke-linejoin:miter;stroke-miterlimit:4;stroke-dasharray:none;stroke-opacity:1"
           d="m 278.105,293.836 c 0,6.824 -5.535,12.355 -12.359,12.355 -6.82,0 -12.355,-5.531 -12.355,-12.355 0,-6.824 5.535,-12.356 12.355,-12.356 6.824,0 12.359,5.532 12.359,12.356 z" /></g><g
         id="g150"><path
           id="path152"
           style="fill:none;stroke:#000000;stroke-width:0.790757;stroke-linecap:butt;stroke-linejoin:miter;stroke-miterlimit:4;stroke-dasharray:none;stroke-opacity:1"
           d="m 274.488,285.223 c -17.367,17.363 -17.367,17.363 -17.367,17.363" /></g><g
         id="g154"><path
           id="path156"
           style="fill:none;stroke:#000000;stroke-width:0.790757;stroke-linecap:butt;stroke-linejoin:miter;stroke-miterlimit:4;stroke-dasharray:none;stroke-opacity:1"
           d="m 256.852,285.059 c 17.363,17.363 17.363,17.363 17.363,17.363" /></g><g
         id="g158"><path
           id="path160"
           style="fill:none;stroke:#000000;stroke-width:0.79075801;stroke-linecap:butt;stroke-linejoin:miter;stroke-miterlimit:4;stroke-dasharray:none;stroke-opacity:1"
           d="m 253.516,294.492 c -24.243,0 -24.243,0 -24.243,0" /></g><g
         id="g162"><path
           id="path164"
           style="fill:none;stroke:#000000;stroke-width:0.73315299;stroke-linecap:butt;stroke-linejoin:miter;stroke-miterlimit:4;stroke-dasharray:none;stroke-opacity:1"
           d="m 318.352,294.531 c 245.875,0 245.875,0 245.875,0" /></g><g
         id="g166"><path
           id="path168"
           style="fill:none;stroke:#000000;stroke-width:0.79075801;stroke-linecap:butt;stroke-linejoin:miter;stroke-miterlimit:4;stroke-dasharray:none;stroke-opacity:1"
           d="m 564.227,294.531 c 0,-92.051 0,-92.051 0,-92.051" /></g><g
         id="g170"><path
           id="path172"
           style="fill:none;stroke:#000000;stroke-width:0.79075801;stroke-linecap:butt;stroke-linejoin:miter;stroke-miterlimit:4;stroke-dasharray:none;stroke-opacity:1"
           d="m 550.637,190.742 c -11.739,0 -12.356,0 -12.356,0" /></g><g
         id="g174"><path
           id="path176"
           style="fill:none;stroke:#000000;stroke-width:0.79075801;stroke-linecap:butt;stroke-linejoin:miter;stroke-miterlimit:4;stroke-dasharray:none;stroke-opacity:1"
           d="m 277.27,293.914 c 16.062,0 15.445,0 15.445,0" /></g><g
         id="g178"><path
           id="path180"
           style="fill:none;stroke:#000000;stroke-width:0.79075801;stroke-linecap:butt;stroke-linejoin:miter;stroke-miterlimit:4;stroke-dasharray:none;stroke-opacity:1"
           d="m 179.352,191.98 c 0,25.329 0,25.329 0,25.329" /></g><g
         id="g182"><path
           id="path184"
           style="fill:none;stroke:#000000;stroke-width:0.79075801;stroke-linecap:butt;stroke-linejoin:miter;stroke-miterlimit:4;stroke-dasharray:none;stroke-opacity:1"
           d="m 191.09,230.281 c 75.984,0 75.984,0 75.984,0 v 51.586" /></g><g
         id="g186"><path
           id="path188"
           style="fill:none;stroke:#000000;stroke-width:0.88935697;stroke-linecap:butt;stroke-linejoin:miter;stroke-miterlimit:4;stroke-dasharray:none;stroke-opacity:1"
           d="m 86.309,193.57 c -59.754,0 -59.754,0 -59.754,0" /></g><text
         id="text200"
         style="font-variant:normal;font-weight:normal;font-size:16px;font-family:'DejaVu Sans';-inkscape-font-specification:DejaVuSans;writing-mode:lr-tb;fill:#000000;fill-opacity:1;fill-rule:nonzero;stroke:none"
         transform="translate(181.47233,69.231548)"><tspan
           id="tspan190"
           y="0"
           x="0 12.592 22.048 31.504 41.647999 51.487999 61.616001 67.375999 77.552002 87.727997 92.848 102.992 113.12 123.264 133.408 137.84">Oxygen-18 Supply</tspan><tspan
           id="tspan192"
           y="72.920418"
           x="178.98642 186.31442 196.44241 206.58641 216.42642 221.49841 229.86641 239.99442 246.31442 256.44241 266.23441 275.06641">Tube Furnace</tspan><tspan
           id="tspan194"
           y="274.28009"
           x="-19.887377 -8.7193756 1.0566241 5.4886241 15.632624 20.704624 28.128624 34.704624 44.496624">Cold Trap</tspan><tspan
           id="tspan196"
           y="77.892242"
           x="-149.15533 -139.77933 -129.65132 -114.06733 -103.92332 -99.491325 -89.363327">Pumping</tspan><tspan
           id="tspan198"
           y="105.39224"
           x="-149.15533 -140.06732 -130.29132 -123.71532">Port</tspan></text>
</g></g></svg>