<?xml version="1.0" encoding="UTF-8" standalone="no"?>
<svg
   xmlns:dc="http://purl.org/dc/elements/1.1/"
   xmlns:cc="http://creativecommons.org/ns#"
   xmlns:rdf="http://www.w3.org/1999/02/22-rdf-syntax-ns#"
   xmlns:svg="http://www.w3.org/2000/svg"
   xmlns="http://www.w3.org/2000/svg"
   viewBox="0 0 1536 1152"
   height="1152"
   width="1536"
   xml:space="preserve"
   id="svg2"
   version="1.1"><metadata
     id="metadata8"><rdf:RDF><cc:Work
         rdf:about=""><dc:format>image/svg+xml</dc:format><dc:type
           rdf:resource="http://purl.org/dc/dcmitype/StillImage" /></cc:Work></rdf:RDF></metadata><defs
     id="defs6"><clipPath
       id="clipPath22"
       clipPathUnits="userSpaceOnUse"><path
         id="path20"
         d="m 144,108 h 892.8 V 760.32 H 144 Z" /></clipPath><clipPath
       id="clipPath44"
       clipPathUnits="userSpaceOnUse"><path
         id="path42"
         d="M -1070,-416 H 1976 V 1175 H -1070 Z" /></clipPath><clipPath
       id="clipPath54"
       clipPathUnits="userSpaceOnUse"><path
         id="path52"
         d="m 144,108 h 892.8 V 760.32 H 144 Z" /></clipPath><clipPath
       id="clipPath76"
       clipPathUnits="userSpaceOnUse"><path
         id="path74"
         d="M -1070,-416 H 1976 V 1175 H -1070 Z" /></clipPath><clipPath
       id="clipPath86"
       clipPathUnits="userSpaceOnUse"><path
         id="path84"
         d="m 144,108 h 892.8 V 760.32 H 144 Z" /></clipPath><clipPath
       id="clipPath104"
       clipPathUnits="userSpaceOnUse"><path
         id="path102"
         d="m 144,108 h 892.8 V 760.32 H 144 Z" /></clipPath><clipPath
       id="clipPath122"
       clipPathUnits="userSpaceOnUse"><path
         id="path120"
         d="m 144,108 h 892.8 V 760.32 H 144 Z" /></clipPath><clipPath
       id="clipPath144"
       clipPathUnits="userSpaceOnUse"><path
         id="path142"
         d="m 144,108 h 892.8 V 760.32 H 144 Z" /></clipPath><clipPath
       id="clipPath166"
       clipPathUnits="userSpaceOnUse"><path
         id="path164"
         d="M -1070,-416 H 1976 V 1175 H -1070 Z" /></clipPath><clipPath
       id="clipPath176"
       clipPathUnits="userSpaceOnUse"><path
         id="path174"
         d="m 144,108 h 892.8 V 760.32 H 144 Z" /></clipPath><clipPath
       id="clipPath198"
       clipPathUnits="userSpaceOnUse"><path
         id="path196"
         d="M -1070,-416 H 1976 V 1175 H -1070 Z" /></clipPath><clipPath
       id="clipPath208"
       clipPathUnits="userSpaceOnUse"><path
         id="path206"
         d="m 144,108 h 892.8 V 760.32 H 144 Z" /></clipPath><clipPath
       id="clipPath226"
       clipPathUnits="userSpaceOnUse"><path
         id="path224"
         d="m 144,108 h 892.8 V 760.32 H 144 Z" /></clipPath><clipPath
       id="clipPath244"
       clipPathUnits="userSpaceOnUse"><path
         id="path242"
         d="m 144,108 h 892.8 V 760.32 H 144 Z" /></clipPath><clipPath
       id="clipPath286"
       clipPathUnits="userSpaceOnUse"><path
         id="path284"
         d="M -1016,-351 H 1660 V 1068 H -1016 Z" /></clipPath><clipPath
       id="clipPath298"
       clipPathUnits="userSpaceOnUse"><path
         id="path296"
         d="M -1021,-463 H 1794 V 1233 H -1021 Z" /></clipPath><clipPath
       id="clipPath310"
       clipPathUnits="userSpaceOnUse"><path
         id="path308"
         d="M -1021,-463 H 1794 V 1233 H -1021 Z" /></clipPath><clipPath
       id="clipPath320"
       clipPathUnits="userSpaceOnUse"><path
         id="path318"
         d="m 144,108 h 892.8 V 760.32 H 144 Z" /></clipPath></defs><g
     transform="matrix(1.3333333,0,0,-1.3333333,0,1152)"
     id="g10"><path
       id="path12"
       style="fill:#ffffff;fill-opacity:1;fill-rule:nonzero;stroke:none"
       d="M 0,0 H 1152 V 864 H 0 Z" /><path
       id="path14"
       style="fill:#ffffff;fill-opacity:1;fill-rule:nonzero;stroke:none"
       d="m 144,108 h 892.8 V 760.32 H 144 Z" /><g
       id="g16"><g
         clip-path="url(#clipPath22)"
         id="g18"><path
           id="path24"
           style="fill:none;stroke:#b0b0b0;stroke-width:0.80000001;stroke-linecap:square;stroke-linejoin:round;stroke-miterlimit:10;stroke-dasharray:none;stroke-opacity:1"
           d="M 259.11985,108 V 760.32" /></g></g><g
       id="g26"><path
         id="path28"
         style="fill:#000000;fill-opacity:1;fill-rule:nonzero;stroke:#000000;stroke-width:0.80000001;stroke-linecap:butt;stroke-linejoin:round;stroke-miterlimit:10;stroke-dasharray:none;stroke-opacity:1"
         d="m 259.11985,108 v -3.5" /><g
         transform="translate(245.31516,87.328125)"
         id="g30"><text
           id="text34"
           style="font-variant:normal;font-weight:bold;font-size:18px;font-family:'DejaVu Sans';-inkscape-font-specification:DejaVuSans-Bold;writing-mode:lr-tb;fill:#000000;fill-opacity:1;fill-rule:nonzero;stroke:none"
           transform="matrix(1,0,0,-1,15.082031,0)"><tspan
             id="tspan32"
             y="0"
             x="0">4</tspan></text>
<g
           transform="scale(0.018)"
           id="g36"><g
             id="g38"><g
               clip-path="url(#clipPath44)"
               id="g40"><path
                 id="path46"
                 style="fill:#000000;fill-opacity:1;fill-rule:nonzero;stroke:none"
                 d="M 106,371 H 732 V 256 H 106 v 115" /></g></g></g></g></g><g
       id="g48"><g
         clip-path="url(#clipPath54)"
         id="g50"><path
           id="path56"
           style="fill:none;stroke:#b0b0b0;stroke-width:0.80000001;stroke-linecap:square;stroke-linejoin:round;stroke-miterlimit:10;stroke-dasharray:none;stroke-opacity:1"
           d="M 424.75993,108 V 760.32" /></g></g><g
       id="g58"><path
         id="path60"
         style="fill:#000000;fill-opacity:1;fill-rule:nonzero;stroke:#000000;stroke-width:0.80000001;stroke-linecap:butt;stroke-linejoin:round;stroke-miterlimit:10;stroke-dasharray:none;stroke-opacity:1"
         d="m 424.75993,108 v -3.5" /><g
         transform="translate(410.95524,87.328125)"
         id="g62"><text
           id="text66"
           style="font-variant:normal;font-weight:bold;font-size:18px;font-family:'DejaVu Sans';-inkscape-font-specification:DejaVuSans-Bold;writing-mode:lr-tb;fill:#000000;fill-opacity:1;fill-rule:nonzero;stroke:none"
           transform="matrix(1,0,0,-1,15.082031,0)"><tspan
             id="tspan64"
             y="0"
             x="0">2</tspan></text>
<g
           transform="scale(0.018)"
           id="g68"><g
             id="g70"><g
               clip-path="url(#clipPath76)"
               id="g72"><path
                 id="path78"
                 style="fill:#000000;fill-opacity:1;fill-rule:nonzero;stroke:none"
                 d="M 106,371 H 732 V 256 H 106 v 115" /></g></g></g></g></g><g
       id="g80"><g
         clip-path="url(#clipPath86)"
         id="g82"><path
           id="path88"
           style="fill:none;stroke:#b0b0b0;stroke-width:0.80000001;stroke-linecap:square;stroke-linejoin:round;stroke-miterlimit:10;stroke-dasharray:none;stroke-opacity:1"
           d="M 590.4,108 V 760.32" /></g></g><g
       id="g90"><path
         id="path92"
         style="fill:#000000;fill-opacity:1;fill-rule:nonzero;stroke:#000000;stroke-width:0.80000001;stroke-linecap:butt;stroke-linejoin:round;stroke-miterlimit:10;stroke-dasharray:none;stroke-opacity:1"
         d="m 590.4,108 v -3.5" /><text
         id="text96"
         style="font-variant:normal;font-weight:bold;font-size:18px;font-family:'DejaVu Sans';-inkscape-font-specification:DejaVuSans-Bold;writing-mode:lr-tb;fill:#000000;fill-opacity:1;fill-rule:nonzero;stroke:none"
         transform="matrix(1,0,0,-1,584.13438,87.328125)"><tspan
           id="tspan94"
           y="0"
           x="0">0</tspan></text>
</g><g
       id="g98"><g
         clip-path="url(#clipPath104)"
         id="g100"><path
           id="path106"
           style="fill:none;stroke:#b0b0b0;stroke-width:0.80000001;stroke-linecap:square;stroke-linejoin:round;stroke-miterlimit:10;stroke-dasharray:none;stroke-opacity:1"
           d="M 756.04007,108 V 760.32" /></g></g><g
       id="g108"><path
         id="path110"
         style="fill:#000000;fill-opacity:1;fill-rule:nonzero;stroke:#000000;stroke-width:0.80000001;stroke-linecap:butt;stroke-linejoin:round;stroke-miterlimit:10;stroke-dasharray:none;stroke-opacity:1"
         d="m 756.04007,108 v -3.5" /><text
         id="text114"
         style="font-variant:normal;font-weight:bold;font-size:18px;font-family:'DejaVu Sans';-inkscape-font-specification:DejaVuSans-Bold;writing-mode:lr-tb;fill:#000000;fill-opacity:1;fill-rule:nonzero;stroke:none"
         transform="matrix(1,0,0,-1,749.77445,87.328125)"><tspan
           id="tspan112"
           y="0"
           x="0">2</tspan></text>
</g><g
       id="g116"><g
         clip-path="url(#clipPath122)"
         id="g118"><path
           id="path124"
           style="fill:none;stroke:#b0b0b0;stroke-width:0.80000001;stroke-linecap:square;stroke-linejoin:round;stroke-miterlimit:10;stroke-dasharray:none;stroke-opacity:1"
           d="M 921.68015,108 V 760.32" /></g></g><g
       id="g126"><path
         id="path128"
         style="fill:#000000;fill-opacity:1;fill-rule:nonzero;stroke:#000000;stroke-width:0.80000001;stroke-linecap:butt;stroke-linejoin:round;stroke-miterlimit:10;stroke-dasharray:none;stroke-opacity:1"
         d="m 921.68015,108 v -3.5" /><text
         id="text132"
         style="font-variant:normal;font-weight:bold;font-size:18px;font-family:'DejaVu Sans';-inkscape-font-specification:DejaVuSans-Bold;writing-mode:lr-tb;fill:#000000;fill-opacity:1;fill-rule:nonzero;stroke:none"
         transform="matrix(1,0,0,-1,915.41452,87.328125)"><tspan
           id="tspan130"
           y="0"
           x="0">4</tspan></text>
<text
         id="text136"
         style="font-variant:normal;font-weight:normal;font-size:18px;font-family:'DejaVu Sans';-inkscape-font-specification:DejaVuSans;writing-mode:lr-tb;fill:#000000;fill-opacity:1;fill-rule:nonzero;stroke:none"
         transform="matrix(1,0,0,-1,557.75938,65.90625)"><tspan
           id="tspan134"
           y="0"
           x="0 10.35 15.354 26.424 31.427999 42.858002 48.582001 54.306">Field, T</tspan></text>
</g><g
       id="g138"><g
         clip-path="url(#clipPath144)"
         id="g140"><path
           id="path146"
           style="fill:none;stroke:#b0b0b0;stroke-width:0.80000001;stroke-linecap:square;stroke-linejoin:round;stroke-miterlimit:10;stroke-dasharray:none;stroke-opacity:1"
           d="m 144,206.87146 h 892.8" /></g></g><g
       id="g148"><path
         id="path150"
         style="fill:#000000;fill-opacity:1;fill-rule:nonzero;stroke:#000000;stroke-width:0.80000001;stroke-linecap:butt;stroke-linejoin:round;stroke-miterlimit:10;stroke-dasharray:none;stroke-opacity:1"
         d="m 144,206.87146 h -3.5" /><g
         transform="translate(77.484375,200.03552)"
         id="g152"><text
           id="text156"
           style="font-variant:normal;font-weight:bold;font-size:18px;font-family:'DejaVu Sans';-inkscape-font-specification:DejaVuSans-Bold;writing-mode:lr-tb;fill:#000000;fill-opacity:1;fill-rule:nonzero;stroke:none"
           transform="matrix(1,0,0,-1,15.082031,0)"><tspan
             id="tspan154"
             y="0"
             x="0 12.528 19.368 31.896">0.10</tspan></text>
<g
           transform="scale(0.018)"
           id="g158"><g
             id="g160"><g
               clip-path="url(#clipPath166)"
               id="g162"><path
                 id="path168"
                 style="fill:#000000;fill-opacity:1;fill-rule:nonzero;stroke:none"
                 d="M 106,371 H 732 V 256 H 106 v 115" /></g></g></g></g></g><g
       id="g170"><g
         clip-path="url(#clipPath176)"
         id="g172"><path
           id="path178"
           style="fill:none;stroke:#b0b0b0;stroke-width:0.80000001;stroke-linecap:square;stroke-linejoin:round;stroke-miterlimit:10;stroke-dasharray:none;stroke-opacity:1"
           d="m 144,320.51573 h 892.8" /></g></g><g
       id="g180"><path
         id="path182"
         style="fill:#000000;fill-opacity:1;fill-rule:nonzero;stroke:#000000;stroke-width:0.80000001;stroke-linecap:butt;stroke-linejoin:round;stroke-miterlimit:10;stroke-dasharray:none;stroke-opacity:1"
         d="m 144,320.51573 h -3.5" /><g
         transform="translate(77.484375,313.67979)"
         id="g184"><text
           id="text188"
           style="font-variant:normal;font-weight:bold;font-size:18px;font-family:'DejaVu Sans';-inkscape-font-specification:DejaVuSans-Bold;writing-mode:lr-tb;fill:#000000;fill-opacity:1;fill-rule:nonzero;stroke:none"
           transform="matrix(1,0,0,-1,15.082031,0)"><tspan
             id="tspan186"
             y="0"
             x="0 12.528 19.368 31.896">0.05</tspan></text>
<g
           transform="scale(0.018)"
           id="g190"><g
             id="g192"><g
               clip-path="url(#clipPath198)"
               id="g194"><path
                 id="path200"
                 style="fill:#000000;fill-opacity:1;fill-rule:nonzero;stroke:none"
                 d="M 106,371 H 732 V 256 H 106 v 115" /></g></g></g></g></g><g
       id="g202"><g
         clip-path="url(#clipPath208)"
         id="g204"><path
           id="path210"
           style="fill:none;stroke:#b0b0b0;stroke-width:0.80000001;stroke-linecap:square;stroke-linejoin:round;stroke-miterlimit:10;stroke-dasharray:none;stroke-opacity:1"
           d="m 144,434.16 h 892.8" /></g></g><g
       id="g212"><path
         id="path214"
         style="fill:#000000;fill-opacity:1;fill-rule:nonzero;stroke:#000000;stroke-width:0.80000001;stroke-linecap:butt;stroke-linejoin:round;stroke-miterlimit:10;stroke-dasharray:none;stroke-opacity:1"
         d="m 144,434.16 h -3.5" /><text
         id="text218"
         style="font-variant:normal;font-weight:bold;font-size:18px;font-family:'DejaVu Sans';-inkscape-font-specification:DejaVuSans-Bold;writing-mode:lr-tb;fill:#000000;fill-opacity:1;fill-rule:nonzero;stroke:none"
         transform="matrix(1,0,0,-1,92.5625,427.32406)"><tspan
           id="tspan216"
           y="0"
           x="0 12.528 19.368 31.896">0.00</tspan></text>
</g><g
       id="g220"><g
         clip-path="url(#clipPath226)"
         id="g222"><path
           id="path228"
           style="fill:none;stroke:#b0b0b0;stroke-width:0.80000001;stroke-linecap:square;stroke-linejoin:round;stroke-miterlimit:10;stroke-dasharray:none;stroke-opacity:1"
           d="m 144,547.80427 h 892.8" /></g></g><g
       id="g230"><path
         id="path232"
         style="fill:#000000;fill-opacity:1;fill-rule:nonzero;stroke:#000000;stroke-width:0.80000001;stroke-linecap:butt;stroke-linejoin:round;stroke-miterlimit:10;stroke-dasharray:none;stroke-opacity:1"
         d="m 144,547.80427 h -3.5" /><text
         id="text236"
         style="font-variant:normal;font-weight:bold;font-size:18px;font-family:'DejaVu Sans';-inkscape-font-specification:DejaVuSans-Bold;writing-mode:lr-tb;fill:#000000;fill-opacity:1;fill-rule:nonzero;stroke:none"
         transform="matrix(1,0,0,-1,92.5625,540.96833)"><tspan
           id="tspan234"
           y="0"
           x="0 12.528 19.368 31.896">0.05</tspan></text>
</g><g
       id="g238"><g
         clip-path="url(#clipPath244)"
         id="g240"><path
           id="path246"
           style="fill:none;stroke:#b0b0b0;stroke-width:0.80000001;stroke-linecap:square;stroke-linejoin:round;stroke-miterlimit:10;stroke-dasharray:none;stroke-opacity:1"
           d="m 144,661.44854 h 892.8" /></g></g><g
       id="g248"><path
         id="path250"
         style="fill:#000000;fill-opacity:1;fill-rule:nonzero;stroke:#000000;stroke-width:0.80000001;stroke-linecap:butt;stroke-linejoin:round;stroke-miterlimit:10;stroke-dasharray:none;stroke-opacity:1"
         d="m 144,661.44854 h -3.5" /><text
         id="text254"
         style="font-variant:normal;font-weight:bold;font-size:18px;font-family:'DejaVu Sans';-inkscape-font-specification:DejaVuSans-Bold;writing-mode:lr-tb;fill:#000000;fill-opacity:1;fill-rule:nonzero;stroke:none"
         transform="matrix(1,0,0,-1,92.5625,654.61261)"><tspan
           id="tspan252"
           y="0"
           x="0 12.528 19.368 31.896">0.10</tspan></text>
<g
         transform="rotate(90,-119.08781,186.57219)"
         id="g256"><text
           id="text260"
           style="font-variant:normal;font-weight:normal;font-size:18px;font-family:'DejaVu Sans';-inkscape-font-specification:DejaVuSans;writing-mode:lr-tb;fill:#000000;fill-opacity:1;fill-rule:nonzero;stroke:none"
           transform="matrix(1,0,0,-1,0,0.328125)"><tspan
             id="tspan258"
             y="0"
             x="0 13.535156 24.56543 29.566406 34.567383 40.289062 50.185547 61.198242 72.606445 84.032227 95.44043 105.33691 112.39453 117.39551 128.04785 133.04883 140.10645 150.75879">Hall conductivity </tspan></text>
<text
           id="text264"
           style="font-style:italic;font-variant:normal;font-size:12.60000038px;font-family:'DejaVu Sans';-inkscape-font-specification:DejaVuSans-Oblique;writing-mode:lr-tb;fill:#000000;fill-opacity:1;fill-rule:nonzero;stroke:none"
           transform="matrix(1,0,0,-1,167.88867,-2.625)"><tspan
             id="tspan262"
             y="0"
             x="0 7.4566407">xy</tspan></text>
<text
           id="text268"
           style="font-variant:normal;font-weight:normal;font-size:18px;font-family:'DejaVu Sans';-inkscape-font-specification:DejaVuSans;writing-mode:lr-tb;fill:#000000;fill-opacity:1;fill-rule:nonzero;stroke:none"
           transform="matrix(1,0,0,-1,183.29414,0.328125)"><tspan
             id="tspan266"
             y="0"
             x="0 5.7216797">, </tspan></text>
<text
           id="text272"
           style="font-style:italic;font-variant:normal;font-size:18px;font-family:'DejaVu Sans';-inkscape-font-specification:DejaVuSans-Oblique;writing-mode:lr-tb;fill:#000000;fill-opacity:1;fill-rule:nonzero;stroke:none"
           transform="matrix(1,0,0,-1,194.7375,0.328125)"><tspan
             id="tspan270"
             y="0"
             x="0">m</tspan></text>
<text
           id="text276"
           style="font-variant:normal;font-weight:normal;font-size:18px;font-family:'DejaVu Sans';-inkscape-font-specification:DejaVuSans;writing-mode:lr-tb;fill:#000000;fill-opacity:1;fill-rule:nonzero;stroke:none"
           transform="matrix(1,0,0,-1,238.76191,0.328125)"><tspan
             id="tspan274"
             y="0"
             x="0">m</tspan></text>
<g
           transform="matrix(0.018,0,0,0.018,156.48047,0.328125)"
           id="g278"><g
             id="g280"><g
               clip-path="url(#clipPath286)"
               id="g282"><path
                 id="path288"
                 style="fill:#000000;fill-opacity:1;fill-rule:nonzero;stroke:none"
                 d="m 347,476 c -50,0 -92,-18 -125,-54 -36,-38 -59,-87 -71,-149 -13,-66 -9,-117 12,-155 20,-38 55,-56 104,-56 47,0 88,19 124,57 35,37 59,88 72,154 11,59 7,109 -13,149 -19,36 -53,54 -103,54 m 14,71 H 659 L 642,457 H 541 C 566,406 572,345 559,273 541,183 505,113 451,63 396,12 329,-13 251,-13 173,-13 116,12 82,63 47,113 39,183 57,273 c 17,90 53,160 107,211 45,42 111,63 197,63" /></g></g></g><g
           transform="matrix(0.018,0,0,0.018,212.27168,0.328125)"
           id="g290"><g
             id="g292"><g
               clip-path="url(#clipPath298)"
               id="g294"><path
                 id="path300"
                 style="fill:#000000;fill-opacity:1;fill-rule:nonzero;stroke:none"
                 d="M 726,87 V 0 H 433 v 87 c 58,31 103,74 135,128 32,54 48,114 48,180 0,78 -22,140 -64,188 -44,47 -100,71 -170,71 -71,0 -128,-24 -171,-71 -43,-48 -64,-110 -64,-188 0,-66 16,-126 48,-180 32,-54 78,-97 136,-128 V 0 H 38 v 87 h 156 c -52,45 -89,92 -113,141 -24,48 -35,102 -35,162 0,103 31,187 94,252 62,64 142,96 242,96 98,0 179,-32 242,-96 62,-64 94,-147 94,-247 C 718,331 706,276 683,228 659,180 622,133 570,87 h 156" /></g></g></g><g
           transform="matrix(0.018,0,0,0.018,229.5334,0.328125)"
           id="g302"><g
             id="g304"><g
               clip-path="url(#clipPath310)"
               id="g306"><path
                 id="path312"
                 style="fill:#000000;fill-opacity:1;fill-rule:nonzero;stroke:none"
                 d="M 107,409 H 210 V 285 H 107 v 124" /></g></g></g></g></g><g
       id="g314"><g
         clip-path="url(#clipPath320)"
         id="g316"><path
           id="path322"
           style="fill:none;stroke:#1f77b4;stroke-width:1.5;stroke-linecap:square;stroke-linejoin:round;stroke-miterlimit:10;stroke-dasharray:none;stroke-opacity:1"
           d="m 184.58182,137.65091 0.81163,1.14266 2.43491,4.03259 1.62328,2.19569 1.62327,2.75921 0.81163,0.94567 3.24655,5.52379 0.81164,0.87767 0.81163,1.51053 0.81164,1.18404 0.81164,1.62061 0.81163,1.33306 0.81164,1.02149 1.62327,2.79776 1.62327,2.72784 0.81164,1.07729 1.62327,2.82906 1.62328,2.75442 0.81163,1.13805 3.24655,5.45297 1.62327,2.60913 0.81164,1.59765 0.81163,1.07484 0.81164,1.29317 2.43491,4.44973 0.81163,1.06667 5.68146,9.75633 0.81164,1.01942 1.62327,2.95183 0.81163,1.26816 0.81164,1.56409 4.05818,6.59312 0.81164,1.05942 1.62327,3.01709 1.62327,2.3682 0.81164,1.72475 0.81164,1.02639 0.81163,1.55939 16.23273,26.17677 0.81164,1.01363 3.24654,5.46673 0.81164,0.96805 1.62327,2.831 0.81164,0.90261 2.43491,3.91716 0.81163,1.6016 0.81164,0.91504 5.68145,8.97628 0.81164,0.90178 1.62327,2.49778 1.62328,2.74695 0.81163,0.89562 0.81164,1.15722 1.62327,2.65135 0.81164,0.84322 2.43491,3.9614 0.81163,0.74565 3.24655,5.04727 0.81164,0.81506 0.81163,1.14418 0.81164,1.37048 0.81163,0.8299 0.81164,1.47991 0.81164,0.87879 1.62327,2.46849 0.81164,0.72811 3.24654,4.65643 0.81164,0.77003 1.62327,2.12165 0.81164,1.1678 0.81163,0.94629 0.81164,0.69422 2.43491,3.37884 0.81164,0.63918 1.62327,1.9597 1.62327,2.01782 0.81164,0.49187 1.62327,1.99872 0.81164,1.09546 0.81163,0.81133 0.81164,0.47399 1.62327,1.80307 0.81164,0.9505 0.81163,0.7008 0.81164,0.5496 0.81164,0.77617 0.81163,1.15281 0.81164,0.31288 2.43491,2.13593 0.81164,1.0241 0.81163,0.43348 4.05818,3.06892 0.81164,0.59465 0.81164,0.77955 0.81163,0.28026 3.24655,2.4379 0.81163,0.19136 1.62328,1.07496 0.81164,0.29965 3.24654,2.19515 0.81164,0.13577 2.43491,1.23857 1.62327,0.88635 0.81163,0.28397 0.81164,0.10244 0.81164,0.75519 0.81163,0.24721 0.81164,0.46045 0.81164,0.2944 0.81163,0.11018 1.62327,1.07963 0.81164,-0.0847 0.81164,0.58307 2.43491,1.00569 0.81163,10e-4 0.81164,0.54051 1.62327,0.64411 2.43491,0.99538 0.81164,0.33218 0.81163,-0.005 0.81164,0.52816 0.81164,0.16385 0.81163,0.38367 0.81164,0.25846 0.81164,0.0678 0.81163,0.50107 1.62327,0.5367 0.81164,0.0378 1.62327,0.83698 0.81164,0.18877 0.81164,0.32446 0.81163,-0.12218 1.62328,0.79315 1.62327,0.19644 0.81163,0.51057 1.62328,0.39523 0.81164,0.0564 0.81163,0.26488 0.81164,0.4612 0.81163,0.16239 0.81164,0.0155 0.81164,0.4213 0.81163,0.21693 0.81164,0.0194 1.62327,0.58083 1.62327,0.33882 1.62328,0.48019 0.81163,0.0572 0.81164,0.34849 2.43491,0.58467 2.43491,0.68876 0.81163,0.0301 0.81164,0.38321 4.05818,1.21509 4.05818,1.49234 4.05819,1.65247 2.4349,1.09939 0.81164,0.42959 0.81164,0.11187 3.24654,2.105 1.62328,0.80433 0.81163,0.76262 2.43491,1.45281 1.62327,1.28678 1.62328,1.01396 0.81163,0.82174 1.62328,1.1651 0.81163,0.76758 0.81164,0.52794 4.86982,4.07986 0.81163,0.8459 0.81164,0.27492 0.81164,0.931 0.81163,0.7545 1.62327,1.1899 2.43491,2.08699 0.81164,0.36354 0.81164,0.82251 2.43491,1.97356 0.81163,0.23532 1.62327,1.39305 1.62328,1.26538 0.81163,0.0305 0.81164,0.68408 0.81164,0.52816 0.81163,0.18506 0.81164,0.79714 0.81164,0.26238 0.81163,0.47089 0.81164,0.16482 0.81163,0.511 0.81164,0.66691 0.81164,0.29983 1.62327,0.44046 2.43491,1.20498 0.81164,-0.0263 0.81163,0.68577 0.81164,0.0334 1.62327,0.60867 0.81164,-0.032 0.81163,0.41099 4.86982,0.84144 1.62327,-0.0649 0.81164,0.24308 1.62327,0.20134 0.81164,-0.16447 1.62327,0.43116 0.81164,0.0666 1.62327,-0.17093 2.43491,0.34542 0.81164,-0.0834 0.81163,0.14395 0.81164,-0.0677 1.62327,0.22403 0.81164,-0.0339 1.62327,0.28267 0.81164,-0.0972 0.81163,0.2057 1.62328,0.0945 0.81163,0.25527 0.81164,-0.0635 0.81164,0.27706 1.62327,0.0842 0.81164,0.34139 4.86981,0.80677 0.81164,0.35729 4.86982,1.11388 0.81164,0.32789 0.81163,-0.0513 0.81164,0.41201 2.43491,0.36771 2.43491,0.76243 0.81163,0.0682 0.81164,0.21961 0.81163,0.0662 0.81164,0.40082 0.81164,0.0558 1.62327,0.39093 1.62327,0.42893 0.81164,-0.024 0.81164,0.1638 0.81163,0.44155 0.81164,0.22092 1.62327,0.10889 1.62328,0.4524 0.81163,-0.0162 3.24655,0.67559 0.81163,0.005 0.81164,0.22346 0.81164,0.087 0.81163,0.24653 1.62328,0.10452 1.62327,0.34499 0.81163,-0.0422 1.62328,0.16043 1.62327,0.34428 0.81163,-0.0428 0.81164,0.10276 1.62327,0.39068 0.81164,-0.0723 0.81164,0.16369 0.81163,0.35138 0.81164,0.15026 0.81164,-0.0452 1.62327,0.23731 0.81163,0.0352 0.81164,0.22184 0.81164,0.0281 2.43491,0.32902 10.55127,1.31311 2.43491,0.31278 0.81164,0.18731 1.62327,0.16865 4.05818,0.55779 6.49309,0.96991 0.81164,0.26918 1.62327,0.35412 3.24654,0.78017 4.05819,0.6333 1.62327,0.17974 2.43491,0.36208 17.04436,2.17755 0.81164,0.0386 1.62327,0.29038 0.81164,0.0281 0.81163,0.22184 1.62328,0.14344 0.81163,0.12904 0.81164,-0.0452 0.81164,0.15026 0.81163,0.35138 0.81164,0.16369 0.81163,-0.0723 2.43492,0.49344 0.81163,-0.0428 3.24655,0.50471 0.81163,-0.0422 1.62328,0.34499 3.24654,0.43804 0.81164,0.22346 1.62327,0.0776 0.81164,0.2848 1.62327,0.318 0.81164,-0.0162 1.62327,0.4524 1.62327,0.10889 0.81164,0.22092 0.81163,0.44155 0.81164,0.1638 0.81164,-0.024 1.62327,0.42893 1.62327,0.39093 0.81164,0.0558 0.81163,0.40082 0.81164,0.0662 0.81164,0.21961 0.81163,0.0682 1.62328,0.50164 0.81163,0.26079 0.81164,0.058 1.62327,0.30966 0.81164,0.41202 0.81163,-0.0513 1.62328,0.60245 4.05818,0.83932 0.81164,0.35729 4.86981,0.80677 0.81164,0.34139 1.62327,0.0842 0.81164,0.27706 0.81163,-0.0635 0.81164,0.25527 2.43491,0.30016 0.81164,-0.0972 1.62327,0.28267 0.81164,-0.0339 1.62327,0.22403 0.81163,-0.0677 0.81164,0.14395 0.81164,-0.0833 1.62327,0.22329 0.81164,0.12213 1.62327,-0.17093 0.81164,0.0666 1.62327,0.43116 0.81164,-0.16447 1.62327,0.20134 0.81163,0.24308 1.62328,-0.0649 0.81163,0.27542 0.81164,0.0423 2.43491,0.39074 0.81164,0.13296 0.81163,0.41099 0.81164,-0.0321 1.62327,0.60868 0.81164,0.0334 0.81163,0.68577 0.81164,-0.0263 0.81164,0.30672 1.62327,0.89826 2.43491,0.74029 0.81164,0.66691 0.81163,0.511 0.81164,0.16482 0.81163,0.47088 0.81164,0.26239 0.81164,0.79714 0.81163,0.18506 0.81164,0.52816 0.81163,0.68408 0.81164,0.0305 1.62327,1.26538 1.62328,1.39305 0.81163,0.23532 3.24655,2.79607 0.81164,0.36354 3.24654,2.69777 0.81164,0.57912 0.81163,0.7545 0.81164,0.931 0.81164,0.27492 1.62327,1.56235 0.81163,0.51808 0.81164,0.85368 0.81164,0.57319 1.62327,1.41846 0.81164,0.52794 0.81163,0.76758 1.62328,1.1651 0.81163,0.82174 1.62327,1.01396 3.24655,2.24135 0.81164,0.49824 0.81163,0.76262 3.24655,1.75934 1.62327,1.14999 0.81164,0.11187 2.43491,1.19309 2.43491,1.05223 0.81163,0.4176 1.62327,0.51853 3.24655,1.21566 4.05818,1.27074 0.81164,0.22103 0.81163,0.38321 0.81164,0.0301 1.62327,0.46346 4.05819,1.15846 0.81163,0.0572 8.11637,2.07297 0.81163,0.16239 0.81164,0.4612 0.81163,0.26488 0.81164,0.0564 1.62327,0.39522 0.81164,0.51058 1.62327,0.19644 1.62328,0.79315 0.81163,-0.12219 0.81164,0.32447 0.81163,0.18877 1.62328,0.83698 0.81163,0.0378 1.62328,0.5367 0.81163,0.50106 0.81164,0.0678 0.81164,0.25846 0.81163,0.38367 0.81164,0.16385 0.81163,0.52816 0.81164,-0.005 4.86982,1.97167 0.81164,0.54051 0.81163,10e-4 2.43491,1.00569 0.81164,0.58307 0.81164,-0.0847 1.62327,1.07963 0.81163,0.11018 0.81164,0.2944 0.81164,0.46045 0.81163,0.24721 0.81164,0.75519 0.81163,0.10244 0.81164,0.28397 4.05818,2.12492 0.81164,0.13577 1.62327,1.17545 1.62327,1.0197 0.81164,0.29964 1.62327,1.07497 0.81164,0.19136 3.24655,2.4379 0.81163,0.28026 0.81164,0.77955 1.62327,1.28585 0.81164,0.74155 0.81164,0.3518 1.62327,1.28437 0.81163,0.43348 0.81164,1.0241 0.81164,0.59899 1.62327,1.53694 0.81163,0.31288 0.81164,1.15281 0.81164,0.77617 0.81163,0.5496 0.81164,0.70079 2.43491,2.75358 0.81164,0.47399 0.81163,0.81133 1.62327,2.13793 0.81164,0.95625 0.81164,0.49187 3.24654,3.97752 0.81164,0.63918 2.43491,3.37884 0.81163,0.69422 0.81164,0.94629 1.62328,2.2724 0.81163,1.01705 0.81164,0.77003 1.62327,2.35106 1.62327,2.30537 0.81164,0.72811 1.62327,2.46849 0.81164,0.87879 0.81164,1.47991 0.81163,0.8299 0.81164,1.37048 0.81163,1.14418 0.81164,0.81506 1.62327,2.42235 1.62328,2.62491 0.81163,0.74566 0.81164,1.44449 6.49309,9.4054 1.62327,2.67434 0.81164,1.22931 0.81163,0.90178 0.81164,1.49648 5.68145,8.39483 0.81164,1.60161 0.81164,1.1501 1.62327,2.76705 0.81164,0.90262 1.62327,2.831 0.81164,0.96805 3.24654,5.46673 0.81164,1.01362 3.24654,5.34669 0.81164,1.10693 3.24654,5.26059 1.62328,2.58858 0.81163,1.4669 0.81164,1.07191 3.24655,5.37841 1.62327,2.64857 0.81163,1.3082 0.81164,1.55939 0.81164,1.02639 0.81164,1.72475 0.81163,1.08063 0.81164,1.28757 1.62327,3.01709 0.81164,1.05942 1.62327,2.72612 0.81163,1.42905 0.81164,1.12391 0.81164,1.31403 0.81163,1.5641 1.62328,2.68082 0.81163,1.53917 0.81164,1.01942 1.62327,2.92826 2.43491,3.92619 1.62327,2.90188 0.81164,1.06667 3.24655,5.7429 0.81163,1.07484 1.62327,2.97294 2.43491,3.77965 1.62328,2.90716 1.62327,2.45475 2.43491,4.26678 0.81163,1.07729 1.62328,2.72784 1.62327,2.79776 0.81164,1.02149 0.81163,1.33306 0.81164,1.6206 0.81164,1.18405 0.81163,1.51053 0.81164,0.87766 0.81164,1.33505 0.81163,1.59699 8.928,13.66758 v 0" /></g></g><g
       id="g324"><path
         id="path326"
         style="fill:none;stroke:#000000;stroke-width:0.80000001;stroke-linecap:square;stroke-linejoin:miter;stroke-miterlimit:10;stroke-dasharray:none;stroke-opacity:1"
         d="M 144,108 V 760.32" /><path
         id="path328"
         style="fill:none;stroke:#000000;stroke-width:0.80000001;stroke-linecap:square;stroke-linejoin:miter;stroke-miterlimit:10;stroke-dasharray:none;stroke-opacity:1"
         d="M 1036.8,108 V 760.32" /><path
         id="path330"
         style="fill:none;stroke:#000000;stroke-width:0.80000001;stroke-linecap:square;stroke-linejoin:miter;stroke-miterlimit:10;stroke-dasharray:none;stroke-opacity:1"
         d="m 144,108 h 892.8" /><path
         id="path332"
         style="fill:none;stroke:#000000;stroke-width:0.80000001;stroke-linecap:square;stroke-linejoin:miter;stroke-miterlimit:10;stroke-dasharray:none;stroke-opacity:1"
         d="m 144,760.32 h 892.8" /></g></g></svg>