<?xml version="1.0" encoding="UTF-8" standalone="no"?>
<svg
   xmlns:dc="http://purl.org/dc/elements/1.1/"
   xmlns:cc="http://creativecommons.org/ns#"
   xmlns:rdf="http://www.w3.org/1999/02/22-rdf-syntax-ns#"
   xmlns:svg="http://www.w3.org/2000/svg"
   xmlns="http://www.w3.org/2000/svg"
   viewBox="0 0 768 576"
   height="576"
   width="768"
   xml:space="preserve"
   id="svg2"
   version="1.1"><metadata
     id="metadata8"><rdf:RDF><cc:Work
         rdf:about=""><dc:format>image/svg+xml</dc:format><dc:type
           rdf:resource="http://purl.org/dc/dcmitype/StillImage" /></cc:Work></rdf:RDF></metadata><defs
     id="defs6"><clipPath
       id="clipPath24"
       clipPathUnits="userSpaceOnUse"><path
         id="path22"
         d="m 1229.05,572.488 h 4256.27 v 3497.29 H 1229.05 Z" /></clipPath></defs><g
     transform="matrix(1.3333333,0,0,-1.3333333,0,575.99999)"
     id="g10"><g
       transform="scale(0.1)"
       id="g12"><path
         id="path14"
         style="fill:#ffffff;fill-opacity:1;fill-rule:nonzero;stroke:none"
         d="M 0,0 H 5760 V 4320 H 0 Z" /><path
         id="path16"
         style="fill:#ffffff;fill-opacity:1;fill-rule:nonzero;stroke:none"
         d="m 1229.05,572.488 h 4256.27 v 3497.29 H 1229.05 Z" /><g
         id="g18"><g
           clip-path="url(#clipPath24)"
           id="g20"><path
             id="path26"
             style="fill:none;stroke:#3249a5;stroke-width:10;stroke-linecap:square;stroke-linejoin:round;stroke-miterlimit:10;stroke-dasharray:none;stroke-opacity:1"
             d="m 3357.19,4069.78 10.64,-169.78 10.64,-249.22 10.64,-11.76 10.64,27.68 10.64,-107.13 10.64,113.99 10.64,-144.06 10.64,-66.63 10.64,149.62 10.64,-2.38 10.64,-49.81 10.65,20.54 10.64,-3.98 10.64,82.91 10.64,178.04 10.64,-53.82 10.64,137.95 10.64,-115.09 10.64,3.41 10.64,-21.45 10.64,-130.75 10.64,228.92 10.64,-94.32 10.64,76.48 10.64,17.37 10.65,-111.64 10.64,136.97 10.64,72.91 10.64,-144.04 10.64,106.98 10.64,-35.83 10.64,-47.94 10.64,-30.72 10.64,52.42 10.64,-8.28 21.28,-51.14 10.64,36.82 10.64,2.57 10.64,-12.25 10.65,-20.36 10.64,86.89 10.64,-4.14 10.64,-84.9 10.64,158.88 10.64,15.18 10.64,-61.79 10.64,-135.58 10.64,118.46 10.64,-41.45 10.64,37.5 10.64,-39.43 10.64,-63.11 10.64,61.3 10.65,-85.99 10.64,100.79 10.64,-67.14 10.64,76.98 10.64,-26.63 10.64,-155.7 10.64,11.39 10.64,93.94 10.64,-73.28 10.64,11.69 21.28,-52.39 10.64,87.86 10.64,-4.42 10.64,-66.25 10.65,84.77 10.64,-6.18 10.64,11.4 10.64,50.21 10.64,-129.89 10.64,-47.62 10.64,-26.66 10.64,148.74 10.64,-61.52 10.64,-88.48 10.64,-323.48 10.64,-251.93 10.64,32.1 10.64,-28.54 10.65,186.32 10.64,-16.35 10.64,-36.87 10.64,-117.83 10.64,-12 10.64,0.11 10.64,-32.88 10.64,47.85 10.64,24.7 21.28,-155.74 10.64,148.68 10.64,-98.81 10.64,21.69 10.64,-44.03 10.65,-14.96 10.64,-43.28 10.64,-12.25 10.64,-90.74 10.64,122.47 10.64,-63.63 10.64,118.58 10.64,-198.68 10.64,78.37 10.64,-70.8 10.64,-113.5 10.64,58.77 10.64,-17.76 10.64,115.17 10.65,-130.52 21.28,-21.36 10.64,-27.41 10.64,120.35 10.64,-31.09 10.64,34.27 10.64,-1.39 10.64,-81.91 10.64,-28.56 10.64,-95.34 10.64,-78.82 10.64,-19.22 10.64,193.5 10.64,-16.72 10.65,-141.92 10.64,45.22 10.64,110.79 10.64,-301.63 10.64,84.52 10.64,-99.05 10.64,21.01 10.64,23.93 10.64,80.69 10.64,-149 10.64,73.89 10.64,23.7 10.64,-165.65 10.64,-57.6 10.64,25.17 10.65,206.94 10.64,5 10.64,-134.19 10.64,-165.16 10.64,78.21 10.64,-6.97 10.64,17.1 10.64,41.35 10.64,-112.65 10.64,-3.79 10.64,30.57 10.64,-220.13 10.64,31.93 10.64,-148.12 10.65,110.53 10.64,-210.53 10.64,43.86 10.64,32.28 10.64,-130.72 10.64,-101.29 10.64,242.09 10.64,54.24 10.64,139.67 10.64,-141.42 10.64,72.55 10.64,58.4 10.64,-29.62 10.64,15.18 10.64,-143.54 10.65,-88.91 10.64,108.45 10.64,-103.15 10.64,147.36 10.64,-305.99 10.64,162.22 10.64,25.38 10.64,-70.91 10.64,8.91 10.64,12.44 10.64,-203.61 10.64,18.11 10.64,64.98 10.64,-177.5 10.65,197.33 10.64,-81.92 10.64,-38.47 10.64,-132.36 10.64,54.52 10.64,119.08 10.64,-104.74 10.64,42.04 10.64,-99.05 10.64,79.07 10.64,-56.08" /></g></g><path
         id="path28"
         style="fill:none;stroke:#1a7a3b;stroke-width:10;stroke-linecap:square;stroke-linejoin:round;stroke-miterlimit:10;stroke-dasharray:none;stroke-opacity:1"
         d="m 1271.61,1139.33 10.64,24.1 10.64,-179.379 10.64,212.759 10.65,-121.54 10.64,145.47 10.64,-56.71 10.64,76.72 10.64,-27.33 10.64,-150.53 10.64,148.87 10.64,-0.27 10.64,75.23 10.64,-102.34 10.64,89.59 10.64,-18.11 10.64,24.49 10.64,-98.8 10.65,166.2 10.64,-96.63 10.64,118.69 10.64,25.23 10.64,-9.52 10.64,102.73 10.64,-47.11 10.64,91.37 10.64,3.64 10.64,-141.54 10.64,100.68 10.64,50.3 10.64,213.1 10.64,-50.09 10.64,-11.91 10.65,-37.36 10.64,46.5 10.64,-68.49 10.64,50.29 10.64,161.24 10.64,23.99 10.64,18.96 10.64,-101.12 10.64,204.36 10.64,0.42 10.64,-116.63 10.64,135.69 10.64,-90.1 10.64,216.32 10.65,4.79 10.64,-76.56 10.64,-38.94 10.64,39.43 10.64,-3.27 10.64,28.56 10.64,-39.41 10.64,-55.45 10.64,61.66 10.64,83.49 10.64,-146.37 10.64,-60.87 10.64,43.38 10.64,1.92 10.64,-39.87 10.65,27.8 10.64,106.61 10.64,136.96 10.64,-228.23 10.64,205.13 10.64,128.77 10.64,-128.24 10.64,80.83 10.64,15.35 10.64,29.79 10.64,-123.36 10.64,-17.33 10.64,64.77 10.64,46.42 10.65,37.25 10.64,-130.59 10.64,129.16 10.64,-100.76 10.64,86.1 10.64,42.38 10.64,90.69 10.64,-122.76 10.64,0.3 10.64,158.31 10.64,137.7 10.64,6.09 10.64,-62.26 10.64,53.09 10.64,24.83 10.65,-102.8 10.64,37.93 10.64,118.75 10.64,-46.22 10.64,-206.25 10.64,-28.38 10.64,33.44 10.64,87.98 10.64,-155.88 10.64,125.48 10.64,158.53 10.64,-158.53 10.64,40.07 10.64,103.27 10.64,-49.61 10.65,40.87 10.64,-59.98 10.64,265.79 10.64,164.55 10.64,-52.64 10.64,74.97 10.64,91.46 10.64,-197.7 10.64,-38.01 10.64,39.92 10.64,93.18 10.64,39.78 10.64,-100.51 21.29,151.77 10.64,-10.38 21.28,-197.53 10.64,1.1 10.64,73.34 10.64,207.1 10.64,-153 10.64,97.26 10.64,-142.11 10.64,70.9 10.64,51.25 10.64,-1.79 10.64,143.03 10.64,-81.39 10.65,-91.45 10.64,5.93 10.64,64.43 10.64,108.84 10.64,-116.41 10.64,-43.49 10.64,151.15 10.64,0.42 10.64,-74.66 10.64,166.14 10.64,-192.72 10.64,78.76 10.64,-52.45 10.64,-114.78 10.65,-55.34 10.64,-0.02 10.64,60.58 10.64,-51.24 10.64,21.81 10.64,-89.82 10.64,230.23 10.64,55.28 10.64,-151.55 10.64,92.46 10.64,-36.37 10.64,73.97 10.64,-102.76 10.64,-47.64 10.64,16.41 10.65,102.91 10.64,46.09 10.64,85.26 10.64,-203.83 10.64,131.76 10.64,-39.31 10.64,-141.11 10.64,142.26 10.64,-78.95 10.64,-23.04 10.64,-73.11 10.64,-123.72 10.64,-26.65 10.64,123.2 10.65,66.37 10.64,92.9 10.64,-171.56 10.64,333.46 10.64,-148.53 10.64,-27.75 10.64,-67.26 10.64,-246.33 10.64,14.4 10.64,-178.84 10.64,198.36 10.64,-138.89 10.64,38.32 10.64,10.48 31.93,300.47 10.64,123.8 10.64,-193.7 10.64,-79.86 10.64,137.38 10.64,-40.16 10.64,-168.35 10.64,122.96 10.64,73.6 10.64,-128.93 10.64,-23.87 10.64,66.27 10.64,58.66 10.64,-2.43 10.65,-54.04 10.64,-12.99 10.64,-87.12 10.64,135.14 10.64,-104.98 10.64,23.98 10.64,-3.27 10.64,175.78 10.64,-27.35 10.64,165.15 10.64,-80.7 10.64,-165.6 10.64,67.05 10.64,55.67 10.65,-125.73 10.64,-215.07 10.64,-75.95 10.64,-128.09 10.64,110.77 10.64,-110.16 10.64,-78.37 21.28,379.3 10.64,118.23 10.64,42.29 10.64,5.22 10.64,7.55 10.64,-93.55 10.64,-1.18 10.65,-39.5 10.64,-28.77 10.64,-165.49 10.64,148.14 10.64,-198.94 10.64,-15.92 10.64,260.03 10.64,-142.21 10.64,166.08 10.64,-216.86 10.64,-100.65 10.64,82.77 10.64,-27.18 10.64,-73.94 10.65,145.12 10.64,-41.89 10.64,116.79 10.64,-287.16 10.64,87.96 10.64,51.42 21.28,92.63 10.64,25.41 10.64,-33.94 10.64,-3.13 10.64,38.72 10.64,-85.08 10.64,71.15 10.64,47.14 10.65,-142.11 10.64,27.94 10.64,53.34 10.64,-76.89 10.64,6.21 10.64,-6.91 10.64,-35.06 10.64,-107.02 10.64,36.59 10.64,42.49 10.64,-151.77 10.64,116.36 10.64,47.51 10.64,-23.75 10.65,117.96 10.64,-53.96 10.64,23.09 10.64,-182.55 10.64,-0.05 10.64,55.92 10.64,-1.56 10.64,46.31 21.28,-129.8 10.64,-26.5 10.64,45.69 10.64,13.84 10.64,-15.92 10.64,69.88 10.65,-12.74 10.64,5.81 10.64,-68.19 10.64,13.49 21.28,35.82 10.64,63.33 10.64,-22.65 10.64,-143.49 10.64,126.45 10.64,-70.18 10.64,86.24 10.64,-3.46 10.64,-42.19 10.65,47.92 10.64,-10.39 10.64,-74.94 10.64,-47.51 10.64,8.43 10.64,-27.51 10.64,7.14 10.64,-49.05 10.64,87.46 10.64,121.34 10.64,-129.43 10.64,-8.71 10.64,-1.28 10.64,12.61 10.64,-71.7 10.65,25.36 10.64,64.47 10.64,-98.13 10.64,10.45 10.64,-61.62 10.64,-20.82 10.64,-73 10.64,-108.82 10.64,87.09 10.64,-41.28 10.64,-101.96 10.64,153.44 10.64,69.75 10.64,18.05 10.64,-22.25 10.65,-47.99 10.64,14.9 10.64,-99.77 10.64,56.3 10.64,-69.83 10.64,-95.25 10.64,-10.47 10.64,48.14 10.64,-53.88 10.64,-23.75 10.64,147.45 10.64,-67.81 21.28,-198.41 10.65,151.08 10.64,-8.56 10.64,-24.66 10.64,-109.3 21.28,-18.38 10.64,-116.01 10.64,-40.44 10.64,-68.42 10.64,66.7 10.64,121.2 10.64,-18.09 10.64,51.83 10.64,-86.37 10.64,13.35 10.65,-112.93 10.64,27.89 10.64,20.64 10.64,55.55 10.64,-39.68 10.64,-13.41 10.64,18.6 10.64,-59.08 10.64,7.48 21.28,-96.1 10.64,36.41 10.64,30.4 10.64,-40.45 10.65,-141.29 10.64,-74.5 21.28,143.91 10.64,-62.26 10.64,40.81 10.64,-22.76 10.64,-36.95 10.64,-50.68 10.64,-24.47 10.64,57.24" /><path
         id="path30"
         style="fill:none;stroke:#ed1c24;stroke-width:10;stroke-linecap:square;stroke-linejoin:round;stroke-miterlimit:10;stroke-dasharray:none;stroke-opacity:1"
         d="m 1271.61,905.148 10.64,-41.988 10.64,313.36 10.64,-110.22 10.65,91.41 10.64,-75.49 10.64,131.73 10.64,20.78 10.64,-186.2 10.64,75.38 10.64,87.62 10.64,69.21 10.64,-19.43 10.64,96.52 10.64,-166.4 10.64,126.2 10.64,29.79 10.64,79.8 10.65,95.29 10.64,-36.73 10.64,87.68 10.64,-78.48 10.64,-114.27 10.64,100.4 10.64,-69.33 10.64,-107.22 10.64,9.16 10.64,292.38 10.64,-26.05 10.64,12.62 10.64,-70.76 21.28,180.51 10.65,-98.24 10.64,209.74 10.64,-133.05 10.64,226.88 10.64,-126.38 10.64,-6.63 10.64,74.23 10.64,58.16 10.64,-70.55 10.64,-122.6 10.64,241.8 10.64,12.56 10.64,-88.97 10.64,124.18 10.65,-197.32 10.64,22.61 10.64,74.77 10.64,-181.39 10.64,24.26 10.64,28.08 10.64,181.23 10.64,-223.76 10.64,17.52 10.64,-37.29 10.64,153.48 10.64,31.95 10.64,2.19 10.64,-106.64 10.64,101.37 10.65,34.02 10.64,-24.93 10.64,83.56 10.64,173.27 10.64,42.5 10.64,-200.26 10.64,83.33 10.64,-90.6 10.64,-72.56 10.64,31.22 10.64,131.75 10.64,-61.3 10.64,23.58 10.64,-60.74 10.65,311.65 10.64,-183.17 10.64,124.4 10.64,85.41 10.64,131.05 10.64,-62.15 10.64,155.01 10.64,-135.66 10.64,149.49 10.64,-16.62 10.64,-54.66 10.64,6 10.64,12.1 10.64,-67.44 10.64,67.5 21.29,-101.16 10.64,37.21 10.64,31.93 10.64,121.69 10.64,-91.16 10.64,122.33 10.64,-224.11 10.64,139.73 10.64,-70.2 10.64,-61.62 10.64,16.71 10.64,9.31 10.64,96.24 10.64,178.61 10.65,15.84 10.64,-97.54 10.64,-2.5 10.64,63.88 10.64,-119.33 10.64,-142.26 10.64,202.74 10.64,99.97 10.64,-77.73 10.64,-35.37 10.64,134.52 10.64,-52.71 10.64,-30.65 10.64,67.36 10.65,46.41 10.64,-10.57 10.64,-46.22 10.64,60.65 10.64,-42.28 10.64,-145 10.64,258.57 21.28,-124.71 10.64,3.38 10.64,78.77 10.64,93.96 10.64,-70.19 10.64,47.66 10.64,-39.37 10.65,-50.19 10.64,-13.15 10.64,-130.18 10.64,156.23 10.64,-38.37 10.64,23.04 10.64,-13.4 10.64,85.52 10.64,-95.41 10.64,13.28 10.64,-82.57 10.64,-172.06 10.64,117.06 10.64,32.73 10.65,-74.37 10.64,1.63 10.64,-44.52 10.64,106.4 10.64,-55.93 10.64,27.38 10.64,-96.67 10.64,-112.82 21.28,247.14 10.64,-229.33 10.64,56.51 10.64,14.46 10.64,-58.72 10.64,23.52 10.65,13.79 10.64,-71.39 10.64,50.93 10.64,203.9 10.64,55.35 10.64,47.29 10.64,27.89 10.64,12.42 10.64,99.11 10.64,-151.53 10.64,133.63 10.64,5.39 10.64,-75.57 10.64,-43.23 10.65,-160.14 10.64,99.24 10.64,2.18 10.64,34.74 10.64,-88.32 10.64,159.57 10.64,-140.79 10.64,0.67 10.64,-145.51 10.64,254.15 10.64,-99.16 10.64,35.93 10.64,54.59 10.64,-57.05 10.64,52.64 10.65,31.34 10.64,-71.08 10.64,146.56" /><path
         id="path32"
         style="fill:none;stroke:#231f20;stroke-width:10;stroke-linecap:square;stroke-linejoin:miter;stroke-miterlimit:10;stroke-dasharray:none;stroke-opacity:1"
         d="M 1229.05,4069.78 H 5485.32" /><path
         id="path34"
         style="fill:none;stroke:#231f20;stroke-width:10;stroke-linecap:square;stroke-linejoin:miter;stroke-miterlimit:10;stroke-dasharray:none;stroke-opacity:1"
         d="M 5485.32,572.488 V 4069.78" /><path
         id="path36"
         style="fill:none;stroke:#231f20;stroke-width:10;stroke-linecap:square;stroke-linejoin:miter;stroke-miterlimit:10;stroke-dasharray:none;stroke-opacity:1"
         d="M 1229.05,572.488 H 5485.32" /><path
         id="path38"
         style="fill:none;stroke:#231f20;stroke-width:10;stroke-linecap:square;stroke-linejoin:miter;stroke-miterlimit:10;stroke-dasharray:none;stroke-opacity:1"
         d="M 1229.05,572.488 V 4069.78" /><path
         id="path40"
         style="fill:#231f20;fill-opacity:1;fill-rule:nonzero;stroke:none"
         d="m 1229.05,572.488 v 40" /><path
         id="path42"
         style="fill:none;stroke:#231f20;stroke-width:5;stroke-linecap:butt;stroke-linejoin:round;stroke-miterlimit:10;stroke-dasharray:none;stroke-opacity:1"
         d="m 1229.05,572.488 v 40" /><path
         id="path44"
         style="fill:#231f20;fill-opacity:1;fill-rule:nonzero;stroke:none"
         d="m 1229.05,4069.78 v -40" /><path
         id="path46"
         style="fill:none;stroke:#231f20;stroke-width:5;stroke-linecap:butt;stroke-linejoin:round;stroke-miterlimit:10;stroke-dasharray:none;stroke-opacity:1"
         d="m 1229.05,4069.78 v -40" /><path
         id="path48"
         style="fill:#231f20;fill-opacity:1;fill-rule:nonzero;stroke:none"
         d="m 1214.05,424.211 h 25.76 v 88.949 l -28,-5.59 v 14.399 l 27.84,5.601 h 15.84 V 424.211 h 25.76 v -13.289 h -67.2 v 13.289" /><path
         id="path50"
         style="fill:#231f20;fill-opacity:1;fill-rule:nonzero;stroke:none"
         d="m 1346.85,517.16 c -8.16,0 -14.24,-4 -18.4,-11.988 -4.16,-8.012 -6.08,-20 -6.08,-36 0,-16.012 1.92,-28.012 6.08,-36.012 4.16,-7.988 10.24,-12 18.4,-12 8.16,0 14.24,4.012 18.4,12 4,8 6.08,20 6.08,36.012 0,16 -2.08,27.988 -6.08,36 -4.16,7.988 -10.24,11.988 -18.4,11.988 m 0,12.488 c 12.96,0 22.88,-5.289 29.92,-15.519 6.88,-10.41 10.4,-25.449 10.4,-44.957 0,-19.692 -3.52,-34.731 -10.4,-44.961 -7.04,-10.25 -16.96,-15.371 -29.92,-15.371 -13.12,0 -23.2,5.121 -30.08,15.371 -6.88,10.23 -10.24,25.269 -10.24,44.961 0,19.508 3.36,34.547 10.24,44.957 6.88,10.23 16.96,15.519 30.08,15.519" /><path
         id="path52"
         style="fill:#231f20;fill-opacity:1;fill-rule:nonzero;stroke:none"
         d="m 1077.1,454.441 h 100.16 v 13.2773 H 1077.1 Z" /><path
         id="path54"
         style="fill:#231f20;fill-opacity:1;fill-rule:nonzero;stroke:none"
         d="m 2293.12,572.488 v 40" /><path
         id="path56"
         style="fill:none;stroke:#231f20;stroke-width:5;stroke-linecap:butt;stroke-linejoin:round;stroke-miterlimit:10;stroke-dasharray:none;stroke-opacity:1"
         d="m 2293.12,572.488 v 40" /><path
         id="path58"
         style="fill:#231f20;fill-opacity:1;fill-rule:nonzero;stroke:none"
         d="m 2293.12,4069.78 v -40" /><path
         id="path60"
         style="fill:none;stroke:#231f20;stroke-width:5;stroke-linecap:butt;stroke-linejoin:round;stroke-miterlimit:10;stroke-dasharray:none;stroke-opacity:1"
         d="m 2293.12,4069.78 v -40" /><path
         id="path62"
         style="fill:#231f20;fill-opacity:1;fill-rule:nonzero;stroke:none"
         d="m 2326.49,527.57 h 61.92 v -13.289 h -47.52 v -28.633 c 2.24,0.801 4.64,1.434 6.88,1.762 2.24,0.309 4.64,0.641 6.88,0.641 12.96,0 23.2,-3.692 30.88,-10.719 7.68,-7.203 11.52,-16.812 11.52,-28.973 0,-12.629 -4,-22.398 -11.84,-29.269 -7.84,-6.891 -18.88,-10.25 -32.96,-10.25 -4.96,0 -9.92,0.48 -15.04,1.121 -5.12,0.809 -10.24,1.93 -15.68,3.687 v 15.832 c 4.64,-2.55 9.44,-4.48 14.56,-5.761 4.96,-1.27 10.24,-1.75 15.84,-1.75 8.96,0 16.16,2.242 21.44,7.043 5.12,4.789 7.84,11.199 7.84,19.347 0,8.012 -2.72,14.403 -7.84,19.211 -5.28,4.801 -12.48,7.2 -21.44,7.2 -4.16,0 -8.48,-0.489 -12.64,-1.45 -4.16,-0.949 -8.48,-2.398 -12.8,-4.308 v 58.558" /><path
         id="path64"
         style="fill:#231f20;fill-opacity:1;fill-rule:nonzero;stroke:none"
         d="m 2192.11,454.441 h 100.16 v 13.2773 h -100.16 z" /><path
         id="path66"
         style="fill:#231f20;fill-opacity:1;fill-rule:nonzero;stroke:none"
         d="m 3357.19,572.488 v 40" /><path
         id="path68"
         style="fill:none;stroke:#231f20;stroke-width:5;stroke-linecap:butt;stroke-linejoin:round;stroke-miterlimit:10;stroke-dasharray:none;stroke-opacity:1"
         d="m 3357.19,572.488 v 40" /><path
         id="path70"
         style="fill:#231f20;fill-opacity:1;fill-rule:nonzero;stroke:none"
         d="m 3357.19,4069.78 v -40" /><path
         id="path72"
         style="fill:none;stroke:#231f20;stroke-width:5;stroke-linecap:butt;stroke-linejoin:round;stroke-miterlimit:10;stroke-dasharray:none;stroke-opacity:1"
         d="m 3357.19,4069.78 v -40" /><path
         id="path74"
         style="fill:#231f20;fill-opacity:1;fill-rule:nonzero;stroke:none"
         d="m 3357.13,517.16 c -8.16,0 -14.24,-4 -18.4,-11.988 -4.16,-8.012 -6.08,-20 -6.08,-36 0,-16.012 1.92,-28.012 6.08,-36.012 4.16,-7.988 10.24,-12 18.4,-12 8.16,0 14.24,4.012 18.4,12 4,8 6.08,20 6.08,36.012 0,16 -2.08,27.988 -6.08,36 -4.16,7.988 -10.24,11.988 -18.4,11.988 m 0,12.488 c 12.96,0 22.88,-5.289 29.92,-15.519 6.88,-10.41 10.4,-25.449 10.4,-44.957 0,-19.692 -3.52,-34.731 -10.4,-44.961 -7.04,-10.25 -16.96,-15.371 -29.92,-15.371 -13.12,0 -23.2,5.121 -30.08,15.371 -6.88,10.23 -10.24,25.269 -10.24,44.961 0,19.508 3.36,34.547 10.24,44.957 6.88,10.23 16.96,15.519 30.08,15.519" /><path
         id="path76"
         style="fill:#231f20;fill-opacity:1;fill-rule:nonzero;stroke:none"
         d="m 4421.26,572.488 v 40" /><path
         id="path78"
         style="fill:none;stroke:#231f20;stroke-width:5;stroke-linecap:butt;stroke-linejoin:round;stroke-miterlimit:10;stroke-dasharray:none;stroke-opacity:1"
         d="m 4421.26,572.488 v 40" /><path
         id="path80"
         style="fill:#231f20;fill-opacity:1;fill-rule:nonzero;stroke:none"
         d="m 4421.26,4069.78 v -40" /><path
         id="path82"
         style="fill:none;stroke:#231f20;stroke-width:5;stroke-linecap:butt;stroke-linejoin:round;stroke-miterlimit:10;stroke-dasharray:none;stroke-opacity:1"
         d="m 4421.26,4069.78 v -40" /><path
         id="path84"
         style="fill:#231f20;fill-opacity:1;fill-rule:nonzero;stroke:none"
         d="m 4387.6,527.57 h 61.92 V 514.281 H 4402 v -28.633 c 2.24,0.801 4.64,1.434 6.88,1.762 2.24,0.309 4.64,0.641 6.88,0.641 12.96,0 23.2,-3.692 30.88,-10.719 7.68,-7.203 11.52,-16.812 11.52,-28.973 0,-12.629 -4,-22.398 -11.84,-29.269 -7.84,-6.891 -18.88,-10.25 -32.96,-10.25 -4.96,0 -9.92,0.48 -15.04,1.121 -5.12,0.809 -10.24,1.93 -15.68,3.687 v 15.832 c 4.64,-2.55 9.44,-4.48 14.56,-5.761 4.96,-1.27 10.24,-1.75 15.84,-1.75 8.96,0 16.16,2.242 21.44,7.043 5.12,4.789 7.84,11.199 7.84,19.347 0,8.012 -2.72,14.403 -7.84,19.211 -5.28,4.801 -12.48,7.2 -21.44,7.2 -4.16,0 -8.48,-0.489 -12.64,-1.45 -4.16,-0.949 -8.48,-2.398 -12.8,-4.308 v 58.558" /><path
         id="path86"
         style="fill:#231f20;fill-opacity:1;fill-rule:nonzero;stroke:none"
         d="m 5485.32,572.488 v 40" /><path
         id="path88"
         style="fill:none;stroke:#231f20;stroke-width:5;stroke-linecap:butt;stroke-linejoin:round;stroke-miterlimit:10;stroke-dasharray:none;stroke-opacity:1"
         d="m 5485.32,572.488 v 40" /><path
         id="path90"
         style="fill:#231f20;fill-opacity:1;fill-rule:nonzero;stroke:none"
         d="m 5485.32,4069.78 v -40" /><path
         id="path92"
         style="fill:none;stroke:#231f20;stroke-width:5;stroke-linecap:butt;stroke-linejoin:round;stroke-miterlimit:10;stroke-dasharray:none;stroke-opacity:1"
         d="m 5485.32,4069.78 v -40" /><path
         id="path94"
         style="fill:#231f20;fill-opacity:1;fill-rule:nonzero;stroke:none"
         d="m 5403.29,424.211 h 25.76 v 88.949 l -28,-5.59 v 14.399 l 27.84,5.601 h 15.84 V 424.211 h 25.76 v -13.289 h -67.2 v 13.289" /><path
         id="path96"
         style="fill:#231f20;fill-opacity:1;fill-rule:nonzero;stroke:none"
         d="m 5536.09,517.16 c -8.16,0 -14.24,-4 -18.4,-11.988 -4.16,-8.012 -6.08,-20 -6.08,-36 0,-16.012 1.92,-28.012 6.08,-36.012 4.16,-7.988 10.24,-12 18.4,-12 8.16,0 14.24,4.012 18.4,12 4,8 6.08,20 6.08,36.012 0,16 -2.08,27.988 -6.08,36 -4.16,7.988 -10.24,11.988 -18.4,11.988 m 0,12.488 c 12.96,0 22.88,-5.289 29.92,-15.519 6.88,-10.41 10.4,-25.449 10.4,-44.957 0,-19.692 -3.52,-34.731 -10.4,-44.961 -7.04,-10.25 -16.96,-15.371 -29.92,-15.371 -13.12,0 -23.2,5.121 -30.08,15.371 -6.88,10.23 -10.24,25.269 -10.24,44.961 0,19.508 3.36,34.547 10.24,44.957 6.88,10.23 16.96,15.519 30.08,15.519" /><path
         id="path98"
         style="fill:#231f20;fill-opacity:1;fill-rule:nonzero;stroke:none"
         d="m 2690.6,322.719 h 23.52 l 29.76,-79.36 29.92,79.36 h 23.52 V 206.082 h -15.36 V 308.48 l -30.08,-80 h -15.84 l -30.08,80 V 206.082 h -15.36 v 116.637" /><path
         id="path100"
         style="fill:#231f20;fill-opacity:1;fill-rule:nonzero;stroke:none"
         d="m 2867.88,250.082 c -11.68,0 -19.68,-1.441 -24.16,-4 -4.48,-2.723 -6.72,-7.203 -6.72,-13.602 0,-5.121 1.6,-9.281 4.96,-12.16 3.36,-3.039 8,-4.48 13.76,-4.48 8,0 14.4,2.719 19.2,8.48 4.8,5.602 7.2,13.121 7.2,22.559 v 3.203 h -14.24 m 28.64,5.918 v -49.918 h -14.4 v 13.277 c -3.36,-5.437 -7.52,-9.277 -12.32,-11.679 -4.8,-2.399 -10.88,-3.68 -17.92,-3.68 -8.96,0 -16.16,2.402 -21.44,7.359 -5.28,4.961 -7.84,11.68 -7.84,20.161 0,9.761 3.2,17.121 9.92,22.242 6.56,4.957 16.32,7.519 29.44,7.519 h 20.16 v 1.438 c 0,6.562 -2.24,11.679 -6.56,15.363 -4.32,3.52 -10.4,5.438 -18.24,5.438 -5.12,0 -9.92,-0.641 -14.72,-1.918 -4.8,-1.282 -9.28,-3.043 -13.6,-5.282 v 13.282 c 5.12,1.918 10.24,3.519 15.2,4.476 4.96,0.961 9.76,1.602 14.56,1.602 12.64,0 22.08,-3.36 28.32,-9.918 6.24,-6.563 9.44,-16.481 9.44,-29.762" /><path
         id="path102"
         style="fill:#231f20;fill-opacity:1;fill-rule:nonzero;stroke:none"
         d="m 2983.72,250.879 c 0,10.242 -2.24,18.402 -6.4,24.16 -4.32,5.762 -10.4,8.641 -18.08,8.641 -7.68,0 -13.76,-2.879 -18.08,-8.641 -4.32,-5.758 -6.4,-13.918 -6.4,-24.16 0,-10.399 2.08,-18.399 6.4,-24.16 4.32,-5.758 10.4,-8.637 18.08,-8.637 7.68,0 13.76,2.879 18.08,8.637 4.16,5.761 6.4,13.761 6.4,24.16 m 14.4,-33.918 c 0,-14.719 -3.36,-25.762 -9.92,-33.121 -6.72,-7.199 -16.8,-10.879 -30.4,-10.879 -5.12,0 -9.76,0.48 -14.24,1.121 -4.48,0.797 -8.96,1.918 -13.12,3.52 v 13.918 c 4.16,-2.239 8.32,-3.84 12.48,-4.961 4.16,-1.118 8.32,-1.758 12.64,-1.758 9.28,0 16.32,2.558 21.12,7.359 4.64,4.961 7.04,12.32 7.04,22.238 v 7.043 c -3.04,-5.121 -6.88,-8.961 -11.52,-11.519 -4.64,-2.563 -10.08,-3.84 -16.48,-3.84 -10.88,0 -19.52,4 -26.08,12.16 -6.56,8.156 -9.76,19.039 -9.76,32.637 0,13.441 3.2,24.32 9.76,32.48 6.56,8.161 15.2,12.321 26.08,12.321 6.4,0 11.84,-1.282 16.48,-3.84 4.64,-2.559 8.48,-6.399 11.52,-11.52 v 13.282 h 14.4 v -76.641" /><path
         id="path104"
         style="fill:#231f20;fill-opacity:1;fill-rule:nonzero;stroke:none"
         d="m 3100.52,258.879 v -52.797 h -14.4 v 52.316 c 0,8.321 -1.76,14.403 -4.96,18.563 -3.2,4.16 -8,6.238 -14.4,6.238 -7.84,0 -13.92,-2.558 -18.4,-7.519 -4.48,-4.961 -6.72,-11.68 -6.72,-20.16 v -49.438 h -14.4 v 87.52 h 14.4 V 280 c 3.36,5.121 7.36,9.121 12.16,11.68 4.64,2.562 10.08,4 16.16,4 9.92,0 17.6,-3.2 22.72,-9.442 5.12,-6.238 7.84,-15.359 7.84,-27.359" /><path
         id="path106"
         style="fill:#231f20;fill-opacity:1;fill-rule:nonzero;stroke:none"
         d="m 3204.04,253.441 v -7.043 h -66.08 c 0.64,-9.918 3.52,-17.597 8.96,-22.718 5.28,-5.121 12.64,-7.68 22.24,-7.68 5.44,0 10.88,0.641 16,1.922 5.12,1.277 10.4,3.359 15.52,6.238 v -13.601 c -5.12,-2.239 -10.4,-4 -15.84,-4.957 -5.44,-0.961 -11.04,-1.602 -16.48,-1.602 -14.08,0 -25.12,4 -33.28,12 -8.16,8 -12.16,19.039 -12.16,32.961 0,14.238 3.84,25.598 11.52,34.078 7.68,8.32 18.24,12.641 31.36,12.641 11.84,0 21.12,-3.84 28,-11.36 6.72,-7.679 10.24,-17.922 10.24,-30.879 m -14.4,4.161 c -0.16,7.839 -2.4,14.078 -6.56,18.878 -4.32,4.641 -10.08,7.04 -17.12,7.04 -8,0 -14.4,-2.399 -19.2,-6.879 -4.8,-4.481 -7.68,-10.879 -8.32,-19.039 h 51.2" /><path
         id="path108"
         style="fill:#231f20;fill-opacity:1;fill-rule:nonzero;stroke:none"
         d="m 3241.8,318.398 v -24.796 h 29.6 v -11.204 h -29.6 v -47.519 c 0,-7.199 0.96,-11.84 2.88,-13.758 1.92,-2.082 5.92,-3.039 12,-3.039 h 14.72 v -12 h -14.72 c -11.2,0 -18.88,2.078 -23.04,6.238 -4.16,4.16 -6.24,11.68 -6.24,22.559 v 47.519 h -10.56 v 11.204 h 10.56 v 24.796 h 14.4" /><path
         id="path110"
         style="fill:#231f20;fill-opacity:1;fill-rule:nonzero;stroke:none"
         d="m 3290.28,293.602 h 14.4 v -87.52 h -14.4 v 87.52 m 0,34.078 h 14.4 v -18.239 h -14.4 v 18.239" /><path
         id="path112"
         style="fill:#231f20;fill-opacity:1;fill-rule:nonzero;stroke:none"
         d="m 3397.8,290.238 v -13.437 c -4.16,2.238 -8.16,3.84 -12.32,4.961 -4.16,1.117 -8.16,1.758 -12.32,1.758 -9.28,0 -16.64,-3.04 -21.76,-8.961 -5.12,-5.918 -7.68,-14.239 -7.68,-24.797 0,-10.723 2.56,-19.043 7.68,-24.961 5.12,-5.922 12.48,-8.801 21.76,-8.801 4.16,0 8.16,0.48 12.32,1.602 4.16,1.117 8.16,2.878 12.32,5.117 v -13.278 c -4.16,-1.921 -8.32,-3.359 -12.48,-4.16 -4.32,-0.801 -8.96,-1.281 -13.76,-1.281 -13.12,0 -23.68,4 -31.36,12.32 -7.84,8.16 -11.68,19.36 -11.68,33.442 0,14.238 3.84,25.437 11.68,33.597 7.84,8.161 18.56,12.321 32.32,12.321 4.48,0 8.8,-0.481 12.96,-1.438 4.16,-0.961 8.32,-2.242 12.32,-4.004" /><path
         id="path114"
         style="fill:#231f20;fill-opacity:1;fill-rule:nonzero;stroke:none"
         d="m 3474.28,322.719 h 67.04 v -13.278 h -51.2 v -34.402 h 46.24 v -13.277 h -46.24 v -55.68 h -15.84 v 116.637" /><path
         id="path116"
         style="fill:#231f20;fill-opacity:1;fill-rule:nonzero;stroke:none"
         d="m 3565.64,293.602 h 14.4 v -87.52 h -14.4 v 87.52 m 0,34.078 h 14.4 v -18.239 h -14.4 v 18.239" /><path
         id="path118"
         style="fill:#231f20;fill-opacity:1;fill-rule:nonzero;stroke:none"
         d="m 3685,253.441 v -7.043 h -66.08 c 0.64,-9.918 3.52,-17.597 8.96,-22.718 5.28,-5.121 12.64,-7.68 22.24,-7.68 5.44,0 10.88,0.641 16,1.922 5.12,1.277 10.4,3.359 15.52,6.238 v -13.601 c -5.12,-2.239 -10.4,-4 -15.84,-4.957 -5.44,-0.961 -11.04,-1.602 -16.48,-1.602 -14.08,0 -25.12,4 -33.28,12 -8.16,8 -12.16,19.039 -12.16,32.961 0,14.238 3.84,25.598 11.52,34.078 7.68,8.32 18.24,12.641 31.36,12.641 11.84,0 21.12,-3.84 28,-11.36 6.72,-7.679 10.24,-17.922 10.24,-30.879 m -14.4,4.161 c -0.16,7.839 -2.4,14.078 -6.56,18.878 -4.32,4.641 -10.08,7.04 -17.12,7.04 -8,0 -14.4,-2.399 -19.2,-6.879 -4.8,-4.481 -7.68,-10.879 -8.32,-19.039 h 51.2" /><path
         id="path120"
         style="fill:#231f20;fill-opacity:1;fill-rule:nonzero;stroke:none"
         d="m 3708.52,206.082 h 14.4023 V 327.68 H 3708.52 Z" /><path
         id="path122"
         style="fill:#231f20;fill-opacity:1;fill-rule:nonzero;stroke:none"
         d="m 3810.6,280.32 v 47.36 H 3825 V 206.082 h -14.4 v 13.117 c -3.04,-5.277 -6.88,-9.117 -11.52,-11.519 -4.64,-2.399 -10.08,-3.68 -16.48,-3.68 -10.56,0 -19.2,4.16 -25.92,12.48 -6.72,8.321 -9.92,19.52 -9.92,33.282 0,13.758 3.2,24.797 9.92,33.277 6.72,8.32 15.36,12.641 25.92,12.641 6.4,0 11.84,-1.282 16.48,-3.84 4.64,-2.559 8.48,-6.399 11.52,-11.52 m -48.96,-30.558 c 0,-10.563 2.08,-18.883 6.4,-24.961 4.32,-6.082 10.4,-8.961 18.08,-8.961 7.52,0 13.44,2.879 17.92,8.961 4.32,6.078 6.56,14.398 6.56,24.961 0,10.558 -2.24,18.718 -6.56,24.797 -4.48,6.082 -10.4,9.121 -17.92,9.121 -7.68,0 -13.76,-3.039 -18.08,-9.121 -4.32,-6.079 -6.4,-14.239 -6.4,-24.797" /><path
         id="path124"
         style="fill:#231f20;fill-opacity:1;fill-rule:nonzero;stroke:none"
         d="m 3858.28,225.922 h 16.48 V 212.48 l -12.8,-24.8 h -10.08 l 6.4,24.8 v 13.442" /><path
         id="path126"
         style="fill:#231f20;fill-opacity:1;fill-rule:nonzero;stroke:none"
         d="m 3941,322.719 h 98.56 v -13.278 h -41.44 V 206.082 h -15.84 V 309.441 H 3941 v 13.278" /><path
         id="path128"
         style="fill:#231f20;fill-opacity:1;fill-rule:nonzero;stroke:none"
         d="m 1229.05,572.488 h 40" /><path
         id="path130"
         style="fill:none;stroke:#231f20;stroke-width:5;stroke-linecap:butt;stroke-linejoin:round;stroke-miterlimit:10;stroke-dasharray:none;stroke-opacity:1"
         d="m 1229.05,572.488 h 40" /><path
         id="path132"
         style="fill:#231f20;fill-opacity:1;fill-rule:nonzero;stroke:none"
         d="m 5485.32,572.488 h -40" /><path
         id="path134"
         style="fill:none;stroke:#231f20;stroke-width:5;stroke-linecap:butt;stroke-linejoin:round;stroke-miterlimit:10;stroke-dasharray:none;stroke-opacity:1"
         d="m 5485.32,572.488 h -40" /><path
         id="path136"
         style="fill:#231f20;fill-opacity:1;fill-rule:nonzero;stroke:none"
         d="m 577.742,634.59 c -8.16,0 -14.238,-4 -18.398,-12 -4.16,-8 -6.082,-20 -6.082,-36 0,-16 1.922,-28 6.082,-36 4.16,-8 10.238,-12 18.398,-12 8.16,0 14.238,4 18.403,12 3.996,8 6.078,20 6.078,36 0,16 -2.082,28 -6.078,36 -4.165,8 -10.243,12 -18.403,12 m 0,12.48 c 12.961,0 22.879,-5.281 29.922,-15.519 6.879,-10.403 10.399,-25.442 10.399,-44.961 0,-19.68 -3.52,-34.719 -10.399,-44.961 -7.043,-10.238 -16.961,-15.359 -29.922,-15.359 -13.121,0 -23.199,5.121 -30.078,15.359 -6.883,10.242 -10.242,25.281 -10.242,44.961 0,19.519 3.359,34.558 10.242,44.961 6.879,10.238 16.957,15.519 30.078,15.519" /><path
         id="path138"
         style="fill:#231f20;fill-opacity:1;fill-rule:nonzero;stroke:none"
         d="m 645.742,528.352 h 16.4805 v 19.8398 H 645.742 Z" /><path
         id="path140"
         style="fill:#231f20;fill-opacity:1;fill-rule:nonzero;stroke:none"
         d="m 730.383,634.59 c -8.16,0 -14.242,-4 -18.403,-12 -4.16,-8 -6.078,-20 -6.078,-36 0,-16 1.918,-28 6.078,-36 4.161,-8 10.243,-12 18.403,-12 8.16,0 14.238,4 18.398,12 4,8 6.082,20 6.082,36 0,16 -2.082,28 -6.082,36 -4.16,8 -10.238,12 -18.398,12 m 0,12.48 c 12.961,0 22.879,-5.281 29.918,-15.519 6.883,-10.403 10.402,-25.442 10.402,-44.961 0,-19.68 -3.519,-34.719 -10.402,-44.961 -7.039,-10.238 -16.957,-15.359 -29.918,-15.359 -13.121,0 -23.199,5.121 -30.082,15.359 -6.879,10.242 -10.238,25.281 -10.238,44.961 0,19.519 3.359,34.558 10.238,44.961 6.883,10.238 16.961,15.519 30.082,15.519" /><path
         id="path142"
         style="fill:#231f20;fill-opacity:1;fill-rule:nonzero;stroke:none"
         d="m 832.141,634.59 c -8.161,0 -14.239,-4 -18.399,-12 -4.16,-8 -6.082,-20 -6.082,-36 0,-16 1.922,-28 6.082,-36 4.16,-8 10.238,-12 18.399,-12 8.16,0 14.242,4 18.402,12 4,8 6.078,20 6.078,36 0,16 -2.078,28 -6.078,36 -4.16,8 -10.242,12 -18.402,12 m 0,12.48 c 12.961,0 22.882,-5.281 29.922,-15.519 6.878,-10.403 10.398,-25.442 10.398,-44.961 0,-19.68 -3.52,-34.719 -10.398,-44.961 -7.04,-10.238 -16.961,-15.359 -29.922,-15.359 -13.118,0 -23.2,5.121 -30.078,15.359 -6.879,10.242 -10.243,25.281 -10.243,44.961 0,19.519 3.364,34.558 10.243,44.961 6.878,10.238 16.96,15.519 30.078,15.519" /><path
         id="path144"
         style="fill:#231f20;fill-opacity:1;fill-rule:nonzero;stroke:none"
         d="m 933.902,634.59 c -8.16,0 -14.242,-4 -18.398,-12 -4.16,-8 -6.082,-20 -6.082,-36 0,-16 1.922,-28 6.082,-36 4.156,-8 10.238,-12 18.398,-12 8.161,0 14.239,4 18.399,12 4,8 6.082,20 6.082,36 0,16 -2.082,28 -6.082,36 -4.16,8 -10.238,12 -18.399,12 m 0,12.48 c 12.961,0 22.879,-5.281 29.918,-15.519 6.883,-10.403 10.403,-25.442 10.403,-44.961 0,-19.68 -3.52,-34.719 -10.403,-44.961 -7.039,-10.238 -16.957,-15.359 -29.918,-15.359 -13.121,0 -23.199,5.121 -30.082,15.359 -6.879,10.242 -10.238,25.281 -10.238,44.961 0,19.519 3.359,34.558 10.238,44.961 6.883,10.238 16.961,15.519 30.082,15.519" /><path
         id="path146"
         style="fill:#231f20;fill-opacity:1;fill-rule:nonzero;stroke:none"
         d="m 1049.74,591.23 c 7.52,-1.601 13.44,-4.96 17.6,-10.082 4.16,-5.117 6.4,-11.519 6.4,-18.878 0,-11.52 -4,-20.481 -11.84,-26.719 -8,-6.242 -19.2,-9.281 -33.76,-9.281 -4.96,0 -10.08,0.48 -15.2,1.441 -5.12,0.801 -10.56,2.238 -15.999,4.16 v 15.199 c 4.319,-2.558 9.119,-4.48 14.399,-5.761 5.12,-1.278 10.56,-1.918 16.32,-1.918 9.92,0 17.44,1.918 22.56,5.757 5.12,3.84 7.84,9.602 7.84,17.122 0,6.718 -2.4,12.16 -7.2,16 -4.8,3.839 -11.52,5.921 -20.16,5.921 h -13.6 v 12.957 h 14.24 c 7.68,0 13.6,1.442 17.76,4.641 4.16,3.043 6.24,7.52 6.24,13.441 0,5.918 -2.24,10.559 -6.4,13.758 -4.32,3.203 -10.4,4.801 -18.24,4.801 -4.32,0 -8.96,-0.48 -13.92,-1.437 -4.96,-0.961 -10.4,-2.403 -16.32,-4.321 v 14.078 c 5.92,1.602 11.52,2.879 16.8,3.68 5.12,0.801 10.08,1.281 14.88,1.281 11.84,0 21.28,-2.718 28.32,-8.16 7.04,-5.441 10.56,-12.801 10.56,-22.078 0,-6.402 -1.92,-11.844 -5.6,-16.32 -3.68,-4.481 -8.96,-7.684 -15.68,-9.282" /><path
         id="path148"
         style="fill:#231f20;fill-opacity:1;fill-rule:nonzero;stroke:none"
         d="m 1103.82,644.988 h 61.92 v -13.277 h -47.52 V 603.07 c 2.24,0.801 4.64,1.442 6.88,1.762 2.24,0.316 4.64,0.637 6.88,0.637 12.96,0 23.2,-3.68 30.88,-10.719 7.68,-7.199 11.52,-16.801 11.52,-28.961 0,-12.641 -4,-22.398 -11.84,-29.277 -7.84,-6.883 -18.88,-10.242 -32.96,-10.242 -4.96,0 -9.92,0.48 -15.04,1.121 -5.12,0.8 -10.24,1.918 -15.68,3.679 v 15.84 c 4.64,-2.558 9.44,-4.48 14.56,-5.762 4.96,-1.277 10.24,-1.757 15.84,-1.757 8.96,0 16.16,2.238 21.44,7.039 5.12,4.8 7.84,11.199 7.84,19.359 0,8 -2.72,14.402 -7.84,19.199 -5.28,4.801 -12.48,7.203 -21.44,7.203 -4.16,0 -8.48,-0.48 -12.64,-1.441 -4.16,-0.961 -8.48,-2.398 -12.8,-4.32 v 58.558" /><path
         id="path150"
         style="fill:#231f20;fill-opacity:1;fill-rule:nonzero;stroke:none"
         d="m 409.762,571.871 h 100.16 v 13.2773 h -100.16 z" /><path
         id="path152"
         style="fill:#231f20;fill-opacity:1;fill-rule:nonzero;stroke:none"
         d="m 1229.05,1072.1 h 40" /><path
         id="path154"
         style="fill:none;stroke:#231f20;stroke-width:5;stroke-linecap:butt;stroke-linejoin:round;stroke-miterlimit:10;stroke-dasharray:none;stroke-opacity:1"
         d="m 1229.05,1072.1 h 40" /><path
         id="path156"
         style="fill:#231f20;fill-opacity:1;fill-rule:nonzero;stroke:none"
         d="m 5485.32,1072.1 h -40" /><path
         id="path158"
         style="fill:none;stroke:#231f20;stroke-width:5;stroke-linecap:butt;stroke-linejoin:round;stroke-miterlimit:10;stroke-dasharray:none;stroke-opacity:1"
         d="m 5485.32,1072.1 h -40" /><path
         id="path160"
         style="fill:#231f20;fill-opacity:1;fill-rule:nonzero;stroke:none"
         d="m 577.742,1134.2 c -8.16,0 -14.238,-4 -18.398,-12 -4.16,-8 -6.082,-20 -6.082,-36 0,-16 1.922,-28 6.082,-36 4.16,-8 10.238,-12 18.398,-12 8.16,0 14.238,4 18.403,12 3.996,8 6.078,20 6.078,36 0,16 -2.082,28 -6.078,36 -4.165,8 -10.243,12 -18.403,12 m 0,12.48 c 12.961,0 22.879,-5.28 29.922,-15.52 6.879,-10.4 10.399,-25.44 10.399,-44.96 0,-19.68 -3.52,-34.72 -10.399,-44.96 -7.043,-10.24 -16.961,-15.36 -29.922,-15.36 -13.121,0 -23.199,5.12 -30.078,15.36 -6.883,10.24 -10.242,25.28 -10.242,44.96 0,19.52 3.359,34.56 10.242,44.96 6.879,10.24 16.957,15.52 30.078,15.52" /><path
         id="path162"
         style="fill:#231f20;fill-opacity:1;fill-rule:nonzero;stroke:none"
         d="m 645.742,1027.96 h 16.4805 v 19.8398 H 645.742 Z" /><path
         id="path164"
         style="fill:#231f20;fill-opacity:1;fill-rule:nonzero;stroke:none"
         d="m 730.383,1134.2 c -8.16,0 -14.242,-4 -18.403,-12 -4.16,-8 -6.078,-20 -6.078,-36 0,-16 1.918,-28 6.078,-36 4.161,-8 10.243,-12 18.403,-12 8.16,0 14.238,4 18.398,12 4,8 6.082,20 6.082,36 0,16 -2.082,28 -6.082,36 -4.16,8 -10.238,12 -18.398,12 m 0,12.48 c 12.961,0 22.879,-5.28 29.918,-15.52 6.883,-10.4 10.402,-25.44 10.402,-44.96 0,-19.68 -3.519,-34.72 -10.402,-44.96 -7.039,-10.24 -16.957,-15.36 -29.918,-15.36 -13.121,0 -23.199,5.12 -30.082,15.36 -6.879,10.24 -10.238,25.28 -10.238,44.96 0,19.52 3.359,34.56 10.238,44.96 6.883,10.24 16.961,15.52 30.082,15.52" /><path
         id="path166"
         style="fill:#231f20;fill-opacity:1;fill-rule:nonzero;stroke:none"
         d="m 832.141,1134.2 c -8.161,0 -14.239,-4 -18.399,-12 -4.16,-8 -6.082,-20 -6.082,-36 0,-16 1.922,-28 6.082,-36 4.16,-8 10.238,-12 18.399,-12 8.16,0 14.242,4 18.402,12 4,8 6.078,20 6.078,36 0,16 -2.078,28 -6.078,36 -4.16,8 -10.242,12 -18.402,12 m 0,12.48 c 12.961,0 22.882,-5.28 29.922,-15.52 6.878,-10.4 10.398,-25.44 10.398,-44.96 0,-19.68 -3.52,-34.72 -10.398,-44.96 -7.04,-10.24 -16.961,-15.36 -29.922,-15.36 -13.118,0 -23.2,5.12 -30.078,15.36 -6.879,10.24 -10.243,25.28 -10.243,44.96 0,19.52 3.364,34.56 10.243,44.96 6.878,10.24 16.96,15.52 30.078,15.52" /><path
         id="path168"
         style="fill:#231f20;fill-opacity:1;fill-rule:nonzero;stroke:none"
         d="m 933.902,1134.2 c -8.16,0 -14.242,-4 -18.398,-12 -4.16,-8 -6.082,-20 -6.082,-36 0,-16 1.922,-28 6.082,-36 4.156,-8 10.238,-12 18.398,-12 8.161,0 14.239,4 18.399,12 4,8 6.082,20 6.082,36 0,16 -2.082,28 -6.082,36 -4.16,8 -10.238,12 -18.399,12 m 0,12.48 c 12.961,0 22.879,-5.28 29.918,-15.52 6.883,-10.4 10.403,-25.44 10.403,-44.96 0,-19.68 -3.52,-34.72 -10.403,-44.96 -7.039,-10.24 -16.957,-15.36 -29.918,-15.36 -13.121,0 -23.199,5.12 -30.082,15.36 -6.879,10.24 -10.238,25.28 -10.238,44.96 0,19.52 3.359,34.56 10.238,44.96 6.883,10.24 16.961,15.52 30.082,15.52" /><path
         id="path170"
         style="fill:#231f20;fill-opacity:1;fill-rule:nonzero;stroke:none"
         d="m 1049.74,1090.84 c 7.52,-1.6 13.44,-4.96 17.6,-10.08 4.16,-5.12 6.4,-11.52 6.4,-18.88 0,-11.52 -4,-20.48 -11.84,-26.72 -8,-6.24 -19.2,-9.28 -33.76,-9.28 -4.96,0 -10.08,0.48 -15.2,1.44 -5.12,0.8 -10.56,2.24 -15.999,4.16 v 15.2 c 4.319,-2.56 9.119,-4.48 14.399,-5.76 5.12,-1.28 10.56,-1.92 16.32,-1.92 9.92,0 17.44,1.92 22.56,5.76 5.12,3.84 7.84,9.6 7.84,17.12 0,6.72 -2.4,12.16 -7.2,16 -4.8,3.84 -11.52,5.92 -20.16,5.92 h -13.6 v 12.96 h 14.24 c 7.68,0 13.6,1.44 17.76,4.64 4.16,3.04 6.24,7.52 6.24,13.44 0,5.92 -2.24,10.56 -6.4,13.76 -4.32,3.2 -10.4,4.8 -18.24,4.8 -4.32,0 -8.96,-0.48 -13.92,-1.44 -4.96,-0.96 -10.4,-2.4 -16.32,-4.32 v 14.08 c 5.92,1.6 11.52,2.88 16.8,3.68 5.12,0.8 10.08,1.28 14.88,1.28 11.84,0 21.28,-2.72 28.32,-8.16 7.04,-5.44 10.56,-12.8 10.56,-22.08 0,-6.4 -1.92,-11.84 -5.6,-16.32 -3.68,-4.48 -8.96,-7.68 -15.68,-9.28" /><path
         id="path172"
         style="fill:#231f20;fill-opacity:1;fill-rule:nonzero;stroke:none"
         d="m 1137.42,1134.2 c -8.16,0 -14.24,-4 -18.4,-12 -4.16,-8 -6.08,-20 -6.08,-36 0,-16 1.92,-28 6.08,-36 4.16,-8 10.24,-12 18.4,-12 8.16,0 14.24,4 18.4,12 4,8 6.08,20 6.08,36 0,16 -2.08,28 -6.08,36 -4.16,8 -10.24,12 -18.4,12 m 0,12.48 c 12.96,0 22.88,-5.28 29.92,-15.52 6.88,-10.4 10.4,-25.44 10.4,-44.96 0,-19.68 -3.52,-34.72 -10.4,-44.96 -7.04,-10.24 -16.96,-15.36 -29.92,-15.36 -13.12,0 -23.2,5.12 -30.08,15.36 -6.88,10.24 -10.24,25.28 -10.24,44.96 0,19.52 3.36,34.56 10.24,44.96 6.88,10.24 16.96,15.52 30.08,15.52" /><path
         id="path174"
         style="fill:#231f20;fill-opacity:1;fill-rule:nonzero;stroke:none"
         d="m 409.762,1071.48 h 100.16 v 13.2813 h -100.16 z" /><path
         id="path176"
         style="fill:#231f20;fill-opacity:1;fill-rule:nonzero;stroke:none"
         d="m 1229.05,1571.71 h 40" /><path
         id="path178"
         style="fill:none;stroke:#231f20;stroke-width:5;stroke-linecap:butt;stroke-linejoin:round;stroke-miterlimit:10;stroke-dasharray:none;stroke-opacity:1"
         d="m 1229.05,1571.71 h 40" /><path
         id="path180"
         style="fill:#231f20;fill-opacity:1;fill-rule:nonzero;stroke:none"
         d="m 5485.32,1571.71 h -40" /><path
         id="path182"
         style="fill:none;stroke:#231f20;stroke-width:5;stroke-linecap:butt;stroke-linejoin:round;stroke-miterlimit:10;stroke-dasharray:none;stroke-opacity:1"
         d="m 5485.32,1571.71 h -40" /><path
         id="path184"
         style="fill:#231f20;fill-opacity:1;fill-rule:nonzero;stroke:none"
         d="m 577.742,1633.81 c -8.16,0 -14.238,-4 -18.398,-12 -4.16,-8 -6.082,-20 -6.082,-36 0,-16 1.922,-28 6.082,-36 4.16,-8 10.238,-12 18.398,-12 8.16,0 14.238,4 18.403,12 3.996,8 6.078,20 6.078,36 0,16 -2.082,28 -6.078,36 -4.165,8 -10.243,12 -18.403,12 m 0,12.48 c 12.961,0 22.879,-5.28 29.922,-15.52 6.879,-10.4 10.399,-25.44 10.399,-44.96 0,-19.68 -3.52,-34.72 -10.399,-44.96 -7.043,-10.24 -16.961,-15.36 -29.922,-15.36 -13.121,0 -23.199,5.12 -30.078,15.36 -6.883,10.24 -10.242,25.28 -10.242,44.96 0,19.52 3.359,34.56 10.242,44.96 6.879,10.24 16.957,15.52 30.078,15.52" /><path
         id="path186"
         style="fill:#231f20;fill-opacity:1;fill-rule:nonzero;stroke:none"
         d="m 645.742,1527.57 h 16.4805 v 19.8398 H 645.742 Z" /><path
         id="path188"
         style="fill:#231f20;fill-opacity:1;fill-rule:nonzero;stroke:none"
         d="m 730.383,1633.81 c -8.16,0 -14.242,-4 -18.403,-12 -4.16,-8 -6.078,-20 -6.078,-36 0,-16 1.918,-28 6.078,-36 4.161,-8 10.243,-12 18.403,-12 8.16,0 14.238,4 18.398,12 4,8 6.082,20 6.082,36 0,16 -2.082,28 -6.082,36 -4.16,8 -10.238,12 -18.398,12 m 0,12.48 c 12.961,0 22.879,-5.28 29.918,-15.52 6.883,-10.4 10.402,-25.44 10.402,-44.96 0,-19.68 -3.519,-34.72 -10.402,-44.96 -7.039,-10.24 -16.957,-15.36 -29.918,-15.36 -13.121,0 -23.199,5.12 -30.082,15.36 -6.879,10.24 -10.238,25.28 -10.238,44.96 0,19.52 3.359,34.56 10.238,44.96 6.883,10.24 16.961,15.52 30.082,15.52" /><path
         id="path190"
         style="fill:#231f20;fill-opacity:1;fill-rule:nonzero;stroke:none"
         d="m 832.141,1633.81 c -8.161,0 -14.239,-4 -18.399,-12 -4.16,-8 -6.082,-20 -6.082,-36 0,-16 1.922,-28 6.082,-36 4.16,-8 10.238,-12 18.399,-12 8.16,0 14.242,4 18.402,12 4,8 6.078,20 6.078,36 0,16 -2.078,28 -6.078,36 -4.16,8 -10.242,12 -18.402,12 m 0,12.48 c 12.961,0 22.882,-5.28 29.922,-15.52 6.878,-10.4 10.398,-25.44 10.398,-44.96 0,-19.68 -3.52,-34.72 -10.398,-44.96 -7.04,-10.24 -16.961,-15.36 -29.922,-15.36 -13.118,0 -23.2,5.12 -30.078,15.36 -6.879,10.24 -10.243,25.28 -10.243,44.96 0,19.52 3.364,34.56 10.243,44.96 6.878,10.24 16.96,15.52 30.078,15.52" /><path
         id="path192"
         style="fill:#231f20;fill-opacity:1;fill-rule:nonzero;stroke:none"
         d="m 933.902,1633.81 c -8.16,0 -14.242,-4 -18.398,-12 -4.16,-8 -6.082,-20 -6.082,-36 0,-16 1.922,-28 6.082,-36 4.156,-8 10.238,-12 18.398,-12 8.161,0 14.239,4 18.399,12 4,8 6.082,20 6.082,36 0,16 -2.082,28 -6.082,36 -4.16,8 -10.238,12 -18.399,12 m 0,12.48 c 12.961,0 22.879,-5.28 29.918,-15.52 6.883,-10.4 10.403,-25.44 10.403,-44.96 0,-19.68 -3.52,-34.72 -10.403,-44.96 -7.039,-10.24 -16.957,-15.36 -29.918,-15.36 -13.121,0 -23.199,5.12 -30.082,15.36 -6.879,10.24 -10.238,25.28 -10.238,44.96 0,19.52 3.359,34.56 10.238,44.96 6.883,10.24 16.961,15.52 30.082,15.52" /><path
         id="path194"
         style="fill:#231f20;fill-opacity:1;fill-rule:nonzero;stroke:none"
         d="m 1015.5,1540.85 h 55.04 v -13.28 h -74.079 v 13.28 c 5.919,6.08 14.079,14.4 24.479,24.96 10.24,10.4 16.8,17.12 19.52,20.16 5.12,5.6 8.64,10.4 10.56,14.4 1.92,3.84 3.04,7.84 3.04,11.68 0,6.08 -2.24,11.2 -6.56,15.04 -4.32,3.84 -9.92,5.92 -16.96,5.92 -4.96,0 -10.24,-0.96 -15.68,-2.56 -5.44,-1.76 -11.36,-4.32 -17.598,-7.84 v 16 c 6.398,2.56 12.318,4.48 17.758,5.76 5.44,1.28 10.56,1.92 15.2,1.92 12,0 21.6,-3.04 28.8,-9.12 7.2,-6.08 10.88,-14.08 10.88,-24.16 0,-4.8 -0.96,-9.44 -2.72,-13.6 -1.76,-4.32 -4.96,-9.44 -9.76,-15.2 -1.28,-1.6 -5.44,-5.92 -12.48,-13.12 -7.04,-7.2 -16.8,-17.28 -29.44,-30.24" /><path
         id="path196"
         style="fill:#231f20;fill-opacity:1;fill-rule:nonzero;stroke:none"
         d="m 1103.82,1644.21 h 61.92 v -13.28 h -47.52 v -28.64 c 2.24,0.8 4.64,1.44 6.88,1.76 2.24,0.32 4.64,0.64 6.88,0.64 12.96,0 23.2,-3.68 30.88,-10.72 7.68,-7.2 11.52,-16.8 11.52,-28.96 0,-12.64 -4,-22.4 -11.84,-29.28 -7.84,-6.88 -18.88,-10.24 -32.96,-10.24 -4.96,0 -9.92,0.48 -15.04,1.12 -5.12,0.8 -10.24,1.92 -15.68,3.68 v 15.84 c 4.64,-2.56 9.44,-4.48 14.56,-5.76 4.96,-1.28 10.24,-1.76 15.84,-1.76 8.96,0 16.16,2.24 21.44,7.04 5.12,4.8 7.84,11.2 7.84,19.36 0,8 -2.72,14.4 -7.84,19.2 -5.28,4.8 -12.48,7.2 -21.44,7.2 -4.16,0 -8.48,-0.48 -12.64,-1.44 -4.16,-0.96 -8.48,-2.4 -12.8,-4.32 v 58.56" /><path
         id="path198"
         style="fill:#231f20;fill-opacity:1;fill-rule:nonzero;stroke:none"
         d="m 409.762,1571.09 h 100.16 v 13.2813 h -100.16 z" /><path
         id="path200"
         style="fill:#231f20;fill-opacity:1;fill-rule:nonzero;stroke:none"
         d="m 1229.05,2071.33 h 40" /><path
         id="path202"
         style="fill:none;stroke:#231f20;stroke-width:5;stroke-linecap:butt;stroke-linejoin:round;stroke-miterlimit:10;stroke-dasharray:none;stroke-opacity:1"
         d="m 1229.05,2071.33 h 40" /><path
         id="path204"
         style="fill:#231f20;fill-opacity:1;fill-rule:nonzero;stroke:none"
         d="m 5485.32,2071.33 h -40" /><path
         id="path206"
         style="fill:none;stroke:#231f20;stroke-width:5;stroke-linecap:butt;stroke-linejoin:round;stroke-miterlimit:10;stroke-dasharray:none;stroke-opacity:1"
         d="m 5485.32,2071.33 h -40" /><path
         id="path208"
         style="fill:#231f20;fill-opacity:1;fill-rule:nonzero;stroke:none"
         d="m 577.742,2133.43 c -8.16,0 -14.238,-4 -18.398,-12 -4.16,-8 -6.082,-20 -6.082,-36 0,-16 1.922,-28 6.082,-36 4.16,-8 10.238,-12 18.398,-12 8.16,0 14.238,4 18.403,12 3.996,8 6.078,20 6.078,36 0,16 -2.082,28 -6.078,36 -4.165,8 -10.243,12 -18.403,12 m 0,12.48 c 12.961,0 22.879,-5.28 29.922,-15.52 6.879,-10.4 10.399,-25.44 10.399,-44.96 0,-19.68 -3.52,-34.72 -10.399,-44.96 -7.043,-10.24 -16.961,-15.36 -29.922,-15.36 -13.121,0 -23.199,5.12 -30.078,15.36 -6.883,10.24 -10.242,25.28 -10.242,44.96 0,19.52 3.359,34.56 10.242,44.96 6.879,10.24 16.957,15.52 30.078,15.52" /><path
         id="path210"
         style="fill:#231f20;fill-opacity:1;fill-rule:nonzero;stroke:none"
         d="m 645.742,2027.19 h 16.4805 v 19.8398 H 645.742 Z" /><path
         id="path212"
         style="fill:#231f20;fill-opacity:1;fill-rule:nonzero;stroke:none"
         d="m 730.383,2133.43 c -8.16,0 -14.242,-4 -18.403,-12 -4.16,-8 -6.078,-20 -6.078,-36 0,-16 1.918,-28 6.078,-36 4.161,-8 10.243,-12 18.403,-12 8.16,0 14.238,4 18.398,12 4,8 6.082,20 6.082,36 0,16 -2.082,28 -6.082,36 -4.16,8 -10.238,12 -18.398,12 m 0,12.48 c 12.961,0 22.879,-5.28 29.918,-15.52 6.883,-10.4 10.402,-25.44 10.402,-44.96 0,-19.68 -3.519,-34.72 -10.402,-44.96 -7.039,-10.24 -16.957,-15.36 -29.918,-15.36 -13.121,0 -23.199,5.12 -30.082,15.36 -6.879,10.24 -10.238,25.28 -10.238,44.96 0,19.52 3.359,34.56 10.238,44.96 6.883,10.24 16.961,15.52 30.082,15.52" /><path
         id="path214"
         style="fill:#231f20;fill-opacity:1;fill-rule:nonzero;stroke:none"
         d="m 832.141,2133.43 c -8.161,0 -14.239,-4 -18.399,-12 -4.16,-8 -6.082,-20 -6.082,-36 0,-16 1.922,-28 6.082,-36 4.16,-8 10.238,-12 18.399,-12 8.16,0 14.242,4 18.402,12 4,8 6.078,20 6.078,36 0,16 -2.078,28 -6.078,36 -4.16,8 -10.242,12 -18.402,12 m 0,12.48 c 12.961,0 22.882,-5.28 29.922,-15.52 6.878,-10.4 10.398,-25.44 10.398,-44.96 0,-19.68 -3.52,-34.72 -10.398,-44.96 -7.04,-10.24 -16.961,-15.36 -29.922,-15.36 -13.118,0 -23.2,5.12 -30.078,15.36 -6.879,10.24 -10.243,25.28 -10.243,44.96 0,19.52 3.364,34.56 10.243,44.96 6.878,10.24 16.96,15.52 30.078,15.52" /><path
         id="path216"
         style="fill:#231f20;fill-opacity:1;fill-rule:nonzero;stroke:none"
         d="m 933.902,2133.43 c -8.16,0 -14.242,-4 -18.398,-12 -4.16,-8 -6.082,-20 -6.082,-36 0,-16 1.922,-28 6.082,-36 4.156,-8 10.238,-12 18.398,-12 8.161,0 14.239,4 18.399,12 4,8 6.082,20 6.082,36 0,16 -2.082,28 -6.082,36 -4.16,8 -10.238,12 -18.399,12 m 0,12.48 c 12.961,0 22.879,-5.28 29.918,-15.52 6.883,-10.4 10.403,-25.44 10.403,-44.96 0,-19.68 -3.52,-34.72 -10.403,-44.96 -7.039,-10.24 -16.957,-15.36 -29.918,-15.36 -13.121,0 -23.199,5.12 -30.082,15.36 -6.879,10.24 -10.238,25.28 -10.238,44.96 0,19.52 3.359,34.56 10.238,44.96 6.883,10.24 16.961,15.52 30.082,15.52" /><path
         id="path218"
         style="fill:#231f20;fill-opacity:1;fill-rule:nonzero;stroke:none"
         d="m 1015.5,2040.47 h 55.04 v -13.28 h -74.079 v 13.28 c 5.919,6.08 14.079,14.4 24.479,24.96 10.24,10.4 16.8,17.12 19.52,20.16 5.12,5.6 8.64,10.4 10.56,14.4 1.92,3.84 3.04,7.84 3.04,11.68 0,6.08 -2.24,11.2 -6.56,15.04 -4.32,3.84 -9.92,5.92 -16.96,5.92 -4.96,0 -10.24,-0.96 -15.68,-2.56 -5.44,-1.76 -11.36,-4.32 -17.598,-7.84 v 16 c 6.398,2.56 12.318,4.48 17.758,5.76 5.44,1.28 10.56,1.92 15.2,1.92 12,0 21.6,-3.04 28.8,-9.12 7.2,-6.08 10.88,-14.08 10.88,-24.16 0,-4.8 -0.96,-9.44 -2.72,-13.6 -1.76,-4.32 -4.96,-9.44 -9.76,-15.2 -1.28,-1.6 -5.44,-5.92 -12.48,-13.12 -7.04,-7.2 -16.8,-17.28 -29.44,-30.24" /><path
         id="path220"
         style="fill:#231f20;fill-opacity:1;fill-rule:nonzero;stroke:none"
         d="m 1137.42,2133.43 c -8.16,0 -14.24,-4 -18.4,-12 -4.16,-8 -6.08,-20 -6.08,-36 0,-16 1.92,-28 6.08,-36 4.16,-8 10.24,-12 18.4,-12 8.16,0 14.24,4 18.4,12 4,8 6.08,20 6.08,36 0,16 -2.08,28 -6.08,36 -4.16,8 -10.24,12 -18.4,12 m 0,12.48 c 12.96,0 22.88,-5.28 29.92,-15.52 6.88,-10.4 10.4,-25.44 10.4,-44.96 0,-19.68 -3.52,-34.72 -10.4,-44.96 -7.04,-10.24 -16.96,-15.36 -29.92,-15.36 -13.12,0 -23.2,5.12 -30.08,15.36 -6.88,10.24 -10.24,25.28 -10.24,44.96 0,19.52 3.36,34.56 10.24,44.96 6.88,10.24 16.96,15.52 30.08,15.52" /><path
         id="path222"
         style="fill:#231f20;fill-opacity:1;fill-rule:nonzero;stroke:none"
         d="m 409.762,2070.71 h 100.16 v 13.2773 h -100.16 z" /><path
         id="path224"
         style="fill:#231f20;fill-opacity:1;fill-rule:nonzero;stroke:none"
         d="m 1229.05,2570.94 h 40" /><path
         id="path226"
         style="fill:none;stroke:#231f20;stroke-width:5;stroke-linecap:butt;stroke-linejoin:round;stroke-miterlimit:10;stroke-dasharray:none;stroke-opacity:1"
         d="m 1229.05,2570.94 h 40" /><path
         id="path228"
         style="fill:#231f20;fill-opacity:1;fill-rule:nonzero;stroke:none"
         d="m 5485.32,2570.94 h -40" /><path
         id="path230"
         style="fill:none;stroke:#231f20;stroke-width:5;stroke-linecap:butt;stroke-linejoin:round;stroke-miterlimit:10;stroke-dasharray:none;stroke-opacity:1"
         d="m 5485.32,2570.94 h -40" /><path
         id="path232"
         style="fill:#231f20;fill-opacity:1;fill-rule:nonzero;stroke:none"
         d="m 577.742,2633.04 c -8.16,0 -14.238,-4 -18.398,-12 -4.16,-8 -6.082,-20 -6.082,-36 0,-16 1.922,-28 6.082,-36 4.16,-8 10.238,-12 18.398,-12 8.16,0 14.238,4 18.403,12 3.996,8 6.078,20 6.078,36 0,16 -2.082,28 -6.078,36 -4.165,8 -10.243,12 -18.403,12 m 0,12.48 c 12.961,0 22.879,-5.28 29.922,-15.52 6.879,-10.4 10.399,-25.44 10.399,-44.96 0,-19.68 -3.52,-34.72 -10.399,-44.96 -7.043,-10.24 -16.961,-15.36 -29.922,-15.36 -13.121,0 -23.199,5.12 -30.078,15.36 -6.883,10.24 -10.242,25.28 -10.242,44.96 0,19.52 3.359,34.56 10.242,44.96 6.879,10.24 16.957,15.52 30.078,15.52" /><path
         id="path234"
         style="fill:#231f20;fill-opacity:1;fill-rule:nonzero;stroke:none"
         d="m 645.742,2526.8 h 16.4805 v 19.8398 H 645.742 Z" /><path
         id="path236"
         style="fill:#231f20;fill-opacity:1;fill-rule:nonzero;stroke:none"
         d="m 730.383,2633.04 c -8.16,0 -14.242,-4 -18.403,-12 -4.16,-8 -6.078,-20 -6.078,-36 0,-16 1.918,-28 6.078,-36 4.161,-8 10.243,-12 18.403,-12 8.16,0 14.238,4 18.398,12 4,8 6.082,20 6.082,36 0,16 -2.082,28 -6.082,36 -4.16,8 -10.238,12 -18.398,12 m 0,12.48 c 12.961,0 22.879,-5.28 29.918,-15.52 6.883,-10.4 10.402,-25.44 10.402,-44.96 0,-19.68 -3.519,-34.72 -10.402,-44.96 -7.039,-10.24 -16.957,-15.36 -29.918,-15.36 -13.121,0 -23.199,5.12 -30.082,15.36 -6.879,10.24 -10.238,25.28 -10.238,44.96 0,19.52 3.359,34.56 10.238,44.96 6.883,10.24 16.961,15.52 30.082,15.52" /><path
         id="path238"
         style="fill:#231f20;fill-opacity:1;fill-rule:nonzero;stroke:none"
         d="m 832.141,2633.04 c -8.161,0 -14.239,-4 -18.399,-12 -4.16,-8 -6.082,-20 -6.082,-36 0,-16 1.922,-28 6.082,-36 4.16,-8 10.238,-12 18.399,-12 8.16,0 14.242,4 18.402,12 4,8 6.078,20 6.078,36 0,16 -2.078,28 -6.078,36 -4.16,8 -10.242,12 -18.402,12 m 0,12.48 c 12.961,0 22.882,-5.28 29.922,-15.52 6.878,-10.4 10.398,-25.44 10.398,-44.96 0,-19.68 -3.52,-34.72 -10.398,-44.96 -7.04,-10.24 -16.961,-15.36 -29.922,-15.36 -13.118,0 -23.2,5.12 -30.078,15.36 -6.879,10.24 -10.243,25.28 -10.243,44.96 0,19.52 3.364,34.56 10.243,44.96 6.878,10.24 16.96,15.52 30.078,15.52" /><path
         id="path240"
         style="fill:#231f20;fill-opacity:1;fill-rule:nonzero;stroke:none"
         d="m 933.902,2633.04 c -8.16,0 -14.242,-4 -18.398,-12 -4.16,-8 -6.082,-20 -6.082,-36 0,-16 1.922,-28 6.082,-36 4.156,-8 10.238,-12 18.398,-12 8.161,0 14.239,4 18.399,12 4,8 6.082,20 6.082,36 0,16 -2.082,28 -6.082,36 -4.16,8 -10.238,12 -18.399,12 m 0,12.48 c 12.961,0 22.879,-5.28 29.918,-15.52 6.883,-10.4 10.403,-25.44 10.403,-44.96 0,-19.68 -3.52,-34.72 -10.403,-44.96 -7.039,-10.24 -16.957,-15.36 -29.918,-15.36 -13.121,0 -23.199,5.12 -30.082,15.36 -6.879,10.24 -10.238,25.28 -10.238,44.96 0,19.52 3.359,34.56 10.238,44.96 6.883,10.24 16.961,15.52 30.082,15.52" /><path
         id="path242"
         style="fill:#231f20;fill-opacity:1;fill-rule:nonzero;stroke:none"
         d="m 1004.62,2540.08 h 25.76 v 88.96 l -28,-5.6 v 14.4 l 27.84,5.6 h 15.84 v -103.36 h 25.76 v -13.28 h -67.2 v 13.28" /><path
         id="path244"
         style="fill:#231f20;fill-opacity:1;fill-rule:nonzero;stroke:none"
         d="m 1103.82,2643.44 h 61.92 v -13.28 h -47.52 v -28.64 c 2.24,0.8 4.64,1.44 6.88,1.76 2.24,0.32 4.64,0.64 6.88,0.64 12.96,0 23.2,-3.68 30.88,-10.72 7.68,-7.2 11.52,-16.8 11.52,-28.96 0,-12.64 -4,-22.4 -11.84,-29.28 -7.84,-6.88 -18.88,-10.24 -32.96,-10.24 -4.96,0 -9.92,0.48 -15.04,1.12 -5.12,0.8 -10.24,1.92 -15.68,3.68 v 15.84 c 4.64,-2.56 9.44,-4.48 14.56,-5.76 4.96,-1.28 10.24,-1.76 15.84,-1.76 8.96,0 16.16,2.24 21.44,7.04 5.12,4.8 7.84,11.2 7.84,19.36 0,8 -2.72,14.4 -7.84,19.2 -5.28,4.8 -12.48,7.2 -21.44,7.2 -4.16,0 -8.48,-0.48 -12.64,-1.44 -4.16,-0.96 -8.48,-2.4 -12.8,-4.32 v 58.56" /><path
         id="path246"
         style="fill:#231f20;fill-opacity:1;fill-rule:nonzero;stroke:none"
         d="m 409.762,2570.32 h 100.16 v 13.2813 h -100.16 z" /><path
         id="path248"
         style="fill:#231f20;fill-opacity:1;fill-rule:nonzero;stroke:none"
         d="m 1229.05,3070.55 h 40" /><path
         id="path250"
         style="fill:none;stroke:#231f20;stroke-width:5;stroke-linecap:butt;stroke-linejoin:round;stroke-miterlimit:10;stroke-dasharray:none;stroke-opacity:1"
         d="m 1229.05,3070.55 h 40" /><path
         id="path252"
         style="fill:#231f20;fill-opacity:1;fill-rule:nonzero;stroke:none"
         d="m 5485.32,3070.55 h -40" /><path
         id="path254"
         style="fill:none;stroke:#231f20;stroke-width:5;stroke-linecap:butt;stroke-linejoin:round;stroke-miterlimit:10;stroke-dasharray:none;stroke-opacity:1"
         d="m 5485.32,3070.55 h -40" /><path
         id="path256"
         style="fill:#231f20;fill-opacity:1;fill-rule:nonzero;stroke:none"
         d="m 577.742,3132.65 c -8.16,0 -14.238,-4 -18.398,-12 -4.16,-8 -6.082,-20 -6.082,-36 0,-16 1.922,-28 6.082,-36 4.16,-8 10.238,-12 18.398,-12 8.16,0 14.238,4 18.403,12 3.996,8 6.078,20 6.078,36 0,16 -2.082,28 -6.078,36 -4.165,8 -10.243,12 -18.403,12 m 0,12.48 c 12.961,0 22.879,-5.28 29.922,-15.52 6.879,-10.4 10.399,-25.44 10.399,-44.96 0,-19.68 -3.52,-34.72 -10.399,-44.96 -7.043,-10.24 -16.961,-15.36 -29.922,-15.36 -13.121,0 -23.199,5.12 -30.078,15.36 -6.883,10.24 -10.242,25.28 -10.242,44.96 0,19.52 3.359,34.56 10.242,44.96 6.879,10.24 16.957,15.52 30.078,15.52" /><path
         id="path258"
         style="fill:#231f20;fill-opacity:1;fill-rule:nonzero;stroke:none"
         d="m 645.742,3026.41 h 16.4805 v 19.8398 H 645.742 Z" /><path
         id="path260"
         style="fill:#231f20;fill-opacity:1;fill-rule:nonzero;stroke:none"
         d="m 730.383,3132.65 c -8.16,0 -14.242,-4 -18.403,-12 -4.16,-8 -6.078,-20 -6.078,-36 0,-16 1.918,-28 6.078,-36 4.161,-8 10.243,-12 18.403,-12 8.16,0 14.238,4 18.398,12 4,8 6.082,20 6.082,36 0,16 -2.082,28 -6.082,36 -4.16,8 -10.238,12 -18.398,12 m 0,12.48 c 12.961,0 22.879,-5.28 29.918,-15.52 6.883,-10.4 10.402,-25.44 10.402,-44.96 0,-19.68 -3.519,-34.72 -10.402,-44.96 -7.039,-10.24 -16.957,-15.36 -29.918,-15.36 -13.121,0 -23.199,5.12 -30.082,15.36 -6.879,10.24 -10.238,25.28 -10.238,44.96 0,19.52 3.359,34.56 10.238,44.96 6.883,10.24 16.961,15.52 30.082,15.52" /><path
         id="path262"
         style="fill:#231f20;fill-opacity:1;fill-rule:nonzero;stroke:none"
         d="m 832.141,3132.65 c -8.161,0 -14.239,-4 -18.399,-12 -4.16,-8 -6.082,-20 -6.082,-36 0,-16 1.922,-28 6.082,-36 4.16,-8 10.238,-12 18.399,-12 8.16,0 14.242,4 18.402,12 4,8 6.078,20 6.078,36 0,16 -2.078,28 -6.078,36 -4.16,8 -10.242,12 -18.402,12 m 0,12.48 c 12.961,0 22.882,-5.28 29.922,-15.52 6.878,-10.4 10.398,-25.44 10.398,-44.96 0,-19.68 -3.52,-34.72 -10.398,-44.96 -7.04,-10.24 -16.961,-15.36 -29.922,-15.36 -13.118,0 -23.2,5.12 -30.078,15.36 -6.879,10.24 -10.243,25.28 -10.243,44.96 0,19.52 3.364,34.56 10.243,44.96 6.878,10.24 16.96,15.52 30.078,15.52" /><path
         id="path264"
         style="fill:#231f20;fill-opacity:1;fill-rule:nonzero;stroke:none"
         d="m 933.902,3132.65 c -8.16,0 -14.242,-4 -18.398,-12 -4.16,-8 -6.082,-20 -6.082,-36 0,-16 1.922,-28 6.082,-36 4.156,-8 10.238,-12 18.398,-12 8.161,0 14.239,4 18.399,12 4,8 6.082,20 6.082,36 0,16 -2.082,28 -6.082,36 -4.16,8 -10.238,12 -18.399,12 m 0,12.48 c 12.961,0 22.879,-5.28 29.918,-15.52 6.883,-10.4 10.403,-25.44 10.403,-44.96 0,-19.68 -3.52,-34.72 -10.403,-44.96 -7.039,-10.24 -16.957,-15.36 -29.918,-15.36 -13.121,0 -23.199,5.12 -30.082,15.36 -6.879,10.24 -10.238,25.28 -10.238,44.96 0,19.52 3.359,34.56 10.238,44.96 6.883,10.24 16.961,15.52 30.082,15.52" /><path
         id="path266"
         style="fill:#231f20;fill-opacity:1;fill-rule:nonzero;stroke:none"
         d="m 1004.62,3039.69 h 25.76 v 88.96 l -28,-5.6 v 14.4 l 27.84,5.6 h 15.84 v -103.36 h 25.76 v -13.28 h -67.2 v 13.28" /><path
         id="path268"
         style="fill:#231f20;fill-opacity:1;fill-rule:nonzero;stroke:none"
         d="m 1137.42,3132.65 c -8.16,0 -14.24,-4 -18.4,-12 -4.16,-8 -6.08,-20 -6.08,-36 0,-16 1.92,-28 6.08,-36 4.16,-8 10.24,-12 18.4,-12 8.16,0 14.24,4 18.4,12 4,8 6.08,20 6.08,36 0,16 -2.08,28 -6.08,36 -4.16,8 -10.24,12 -18.4,12 m 0,12.48 c 12.96,0 22.88,-5.28 29.92,-15.52 6.88,-10.4 10.4,-25.44 10.4,-44.96 0,-19.68 -3.52,-34.72 -10.4,-44.96 -7.04,-10.24 -16.96,-15.36 -29.92,-15.36 -13.12,0 -23.2,5.12 -30.08,15.36 -6.88,10.24 -10.24,25.28 -10.24,44.96 0,19.52 3.36,34.56 10.24,44.96 6.88,10.24 16.96,15.52 30.08,15.52" /><path
         id="path270"
         style="fill:#231f20;fill-opacity:1;fill-rule:nonzero;stroke:none"
         d="m 409.762,3069.93 h 100.16 v 13.2813 h -100.16 z" /><path
         id="path272"
         style="fill:#231f20;fill-opacity:1;fill-rule:nonzero;stroke:none"
         d="m 1229.05,3570.16 h 40" /><path
         id="path274"
         style="fill:none;stroke:#231f20;stroke-width:5;stroke-linecap:butt;stroke-linejoin:round;stroke-miterlimit:10;stroke-dasharray:none;stroke-opacity:1"
         d="m 1229.05,3570.16 h 40" /><path
         id="path276"
         style="fill:#231f20;fill-opacity:1;fill-rule:nonzero;stroke:none"
         d="m 5485.32,3570.16 h -40" /><path
         id="path278"
         style="fill:none;stroke:#231f20;stroke-width:5;stroke-linecap:butt;stroke-linejoin:round;stroke-miterlimit:10;stroke-dasharray:none;stroke-opacity:1"
         d="m 5485.32,3570.16 h -40" /><path
         id="path280"
         style="fill:#231f20;fill-opacity:1;fill-rule:nonzero;stroke:none"
         d="m 577.742,3632.27 c -8.16,0 -14.238,-4 -18.398,-12 -4.16,-8 -6.082,-20 -6.082,-36 0,-16 1.922,-28 6.082,-36 4.16,-8 10.238,-12 18.398,-12 8.16,0 14.238,4 18.403,12 3.996,8 6.078,20 6.078,36 0,16 -2.082,28 -6.078,36 -4.165,8 -10.243,12 -18.403,12 m 0,12.48 c 12.961,0 22.879,-5.29 29.922,-15.53 6.879,-10.4 10.399,-25.43 10.399,-44.95 0,-19.68 -3.52,-34.73 -10.399,-44.97 -7.043,-10.24 -16.961,-15.35 -29.922,-15.35 -13.121,0 -23.199,5.11 -30.078,15.35 -6.883,10.24 -10.242,25.29 -10.242,44.97 0,19.52 3.359,34.55 10.242,44.95 6.879,10.24 16.957,15.53 30.078,15.53" /><path
         id="path282"
         style="fill:#231f20;fill-opacity:1;fill-rule:nonzero;stroke:none"
         d="m 645.742,3526.02 h 16.4805 v 19.8398 H 645.742 Z" /><path
         id="path284"
         style="fill:#231f20;fill-opacity:1;fill-rule:nonzero;stroke:none"
         d="m 730.383,3632.27 c -8.16,0 -14.242,-4 -18.403,-12 -4.16,-8 -6.078,-20 -6.078,-36 0,-16 1.918,-28 6.078,-36 4.161,-8 10.243,-12 18.403,-12 8.16,0 14.238,4 18.398,12 4,8 6.082,20 6.082,36 0,16 -2.082,28 -6.082,36 -4.16,8 -10.238,12 -18.398,12 m 0,12.48 c 12.961,0 22.879,-5.29 29.918,-15.53 6.883,-10.4 10.402,-25.43 10.402,-44.95 0,-19.68 -3.519,-34.73 -10.402,-44.97 -7.039,-10.24 -16.957,-15.35 -29.918,-15.35 -13.121,0 -23.199,5.11 -30.082,15.35 -6.879,10.24 -10.238,25.29 -10.238,44.97 0,19.52 3.359,34.55 10.238,44.95 6.883,10.24 16.961,15.53 30.082,15.53" /><path
         id="path286"
         style="fill:#231f20;fill-opacity:1;fill-rule:nonzero;stroke:none"
         d="m 832.141,3632.27 c -8.161,0 -14.239,-4 -18.399,-12 -4.16,-8 -6.082,-20 -6.082,-36 0,-16 1.922,-28 6.082,-36 4.16,-8 10.238,-12 18.399,-12 8.16,0 14.242,4 18.402,12 4,8 6.078,20 6.078,36 0,16 -2.078,28 -6.078,36 -4.16,8 -10.242,12 -18.402,12 m 0,12.48 c 12.961,0 22.882,-5.29 29.922,-15.53 6.878,-10.4 10.398,-25.43 10.398,-44.95 0,-19.68 -3.52,-34.73 -10.398,-44.97 -7.04,-10.24 -16.961,-15.35 -29.922,-15.35 -13.118,0 -23.2,5.11 -30.078,15.35 -6.879,10.24 -10.243,25.29 -10.243,44.97 0,19.52 3.364,34.55 10.243,44.95 6.878,10.24 16.96,15.53 30.078,15.53" /><path
         id="path288"
         style="fill:#231f20;fill-opacity:1;fill-rule:nonzero;stroke:none"
         d="m 933.902,3632.27 c -8.16,0 -14.242,-4 -18.398,-12 -4.16,-8 -6.082,-20 -6.082,-36 0,-16 1.922,-28 6.082,-36 4.156,-8 10.238,-12 18.398,-12 8.161,0 14.239,4 18.399,12 4,8 6.082,20 6.082,36 0,16 -2.082,28 -6.082,36 -4.16,8 -10.238,12 -18.399,12 m 0,12.48 c 12.961,0 22.879,-5.29 29.918,-15.53 6.883,-10.4 10.403,-25.43 10.403,-44.95 0,-19.68 -3.52,-34.73 -10.403,-44.97 -7.039,-10.24 -16.957,-15.35 -29.918,-15.35 -13.121,0 -23.199,5.11 -30.082,15.35 -6.879,10.24 -10.238,25.29 -10.238,44.97 0,19.52 3.359,34.55 10.238,44.95 6.883,10.24 16.961,15.53 30.082,15.53" /><path
         id="path290"
         style="fill:#231f20;fill-opacity:1;fill-rule:nonzero;stroke:none"
         d="m 1035.66,3632.27 c -8.16,0 -14.24,-4 -18.4,-12 -4.16,-8 -6.08,-20 -6.08,-36 0,-16 1.92,-28 6.08,-36 4.16,-8 10.24,-12 18.4,-12 8.16,0 14.24,4 18.4,12 4,8 6.08,20 6.08,36 0,16 -2.08,28 -6.08,36 -4.16,8 -10.24,12 -18.4,12 m 0,12.48 c 12.96,0 22.88,-5.29 29.92,-15.53 6.88,-10.4 10.4,-25.43 10.4,-44.95 0,-19.68 -3.52,-34.73 -10.4,-44.97 -7.04,-10.24 -16.96,-15.35 -29.92,-15.35 -13.12,0 -23.2,5.11 -30.08,15.35 -6.877,10.24 -10.236,25.29 -10.236,44.97 0,19.52 3.359,34.55 10.236,44.95 6.88,10.24 16.96,15.53 30.08,15.53" /><path
         id="path292"
         style="fill:#231f20;fill-opacity:1;fill-rule:nonzero;stroke:none"
         d="m 1103.82,3642.66 h 61.92 v -13.28 h -47.52 v -28.63 c 2.24,0.79 4.64,1.43 6.88,1.75 2.24,0.32 4.64,0.64 6.88,0.64 12.96,0 23.2,-3.68 30.88,-10.71 7.68,-7.21 11.52,-16.8 11.52,-28.97 0,-12.64 -4,-22.4 -11.84,-29.28 -7.84,-6.88 -18.88,-10.23 -32.96,-10.23 -4.96,0 -9.92,0.48 -15.04,1.11 -5.12,0.8 -10.24,1.92 -15.68,3.69 v 15.84 c 4.64,-2.57 9.44,-4.48 14.56,-5.77 4.96,-1.28 10.24,-1.75 15.84,-1.75 8.96,0 16.16,2.23 21.44,7.04 5.12,4.79 7.84,11.19 7.84,19.35 0,8 -2.72,14.4 -7.84,19.2 -5.28,4.8 -12.48,7.2 -21.44,7.2 -4.16,0 -8.48,-0.48 -12.64,-1.43 -4.16,-0.97 -8.48,-2.41 -12.8,-4.32 v 58.55" /><path
         id="path294"
         style="fill:#231f20;fill-opacity:1;fill-rule:nonzero;stroke:none"
         d="m 409.762,3569.54 h 100.16 v 13.2813 h -100.16 z" /><path
         id="path296"
         style="fill:#231f20;fill-opacity:1;fill-rule:nonzero;stroke:none"
         d="m 1229.05,4069.78 h 40" /><path
         id="path298"
         style="fill:none;stroke:#231f20;stroke-width:5;stroke-linecap:butt;stroke-linejoin:round;stroke-miterlimit:10;stroke-dasharray:none;stroke-opacity:1"
         d="m 1229.05,4069.78 h 40" /><path
         id="path300"
         style="fill:#231f20;fill-opacity:1;fill-rule:nonzero;stroke:none"
         d="m 5485.32,4069.78 h -40" /><path
         id="path302"
         style="fill:none;stroke:#231f20;stroke-width:5;stroke-linecap:butt;stroke-linejoin:round;stroke-miterlimit:10;stroke-dasharray:none;stroke-opacity:1"
         d="m 5485.32,4069.78 h -40" /><path
         id="path304"
         style="fill:#231f20;fill-opacity:1;fill-rule:nonzero;stroke:none"
         d="m 577.742,4131.88 c -8.16,0 -14.238,-4 -18.398,-12 -4.16,-8 -6.082,-20 -6.082,-36 0,-16 1.922,-28 6.082,-36 4.16,-8 10.238,-12 18.398,-12 8.16,0 14.238,4 18.403,12 3.996,8 6.078,20 6.078,36 0,16 -2.082,28 -6.078,36 -4.165,8 -10.243,12 -18.403,12 m 0,12.48 c 12.961,0 22.879,-5.28 29.922,-15.52 6.879,-10.4 10.399,-25.44 10.399,-44.96 0,-19.68 -3.52,-34.72 -10.399,-44.96 -7.043,-10.24 -16.961,-15.36 -29.922,-15.36 -13.121,0 -23.199,5.12 -30.078,15.36 -6.883,10.24 -10.242,25.28 -10.242,44.96 0,19.52 3.359,34.56 10.242,44.96 6.879,10.24 16.957,15.52 30.078,15.52" /><path
         id="path306"
         style="fill:#231f20;fill-opacity:1;fill-rule:nonzero;stroke:none"
         d="m 645.742,4025.64 h 16.4805 v 19.8398 H 645.742 Z" /><path
         id="path308"
         style="fill:#231f20;fill-opacity:1;fill-rule:nonzero;stroke:none"
         d="m 730.383,4131.88 c -8.16,0 -14.242,-4 -18.403,-12 -4.16,-8 -6.078,-20 -6.078,-36 0,-16 1.918,-28 6.078,-36 4.161,-8 10.243,-12 18.403,-12 8.16,0 14.238,4 18.398,12 4,8 6.082,20 6.082,36 0,16 -2.082,28 -6.082,36 -4.16,8 -10.238,12 -18.398,12 m 0,12.48 c 12.961,0 22.879,-5.28 29.918,-15.52 6.883,-10.4 10.402,-25.44 10.402,-44.96 0,-19.68 -3.519,-34.72 -10.402,-44.96 -7.039,-10.24 -16.957,-15.36 -29.918,-15.36 -13.121,0 -23.199,5.12 -30.082,15.36 -6.879,10.24 -10.238,25.28 -10.238,44.96 0,19.52 3.359,34.56 10.238,44.96 6.883,10.24 16.961,15.52 30.082,15.52" /><path
         id="path310"
         style="fill:#231f20;fill-opacity:1;fill-rule:nonzero;stroke:none"
         d="m 832.141,4131.88 c -8.161,0 -14.239,-4 -18.399,-12 -4.16,-8 -6.082,-20 -6.082,-36 0,-16 1.922,-28 6.082,-36 4.16,-8 10.238,-12 18.399,-12 8.16,0 14.242,4 18.402,12 4,8 6.078,20 6.078,36 0,16 -2.078,28 -6.078,36 -4.16,8 -10.242,12 -18.402,12 m 0,12.48 c 12.961,0 22.882,-5.28 29.922,-15.52 6.878,-10.4 10.398,-25.44 10.398,-44.96 0,-19.68 -3.52,-34.72 -10.398,-44.96 -7.04,-10.24 -16.961,-15.36 -29.922,-15.36 -13.118,0 -23.2,5.12 -30.078,15.36 -6.879,10.24 -10.243,25.28 -10.243,44.96 0,19.52 3.364,34.56 10.243,44.96 6.878,10.24 16.96,15.52 30.078,15.52" /><path
         id="path312"
         style="fill:#231f20;fill-opacity:1;fill-rule:nonzero;stroke:none"
         d="m 933.902,4131.88 c -8.16,0 -14.242,-4 -18.398,-12 -4.16,-8 -6.082,-20 -6.082,-36 0,-16 1.922,-28 6.082,-36 4.156,-8 10.238,-12 18.398,-12 8.161,0 14.239,4 18.399,12 4,8 6.082,20 6.082,36 0,16 -2.082,28 -6.082,36 -4.16,8 -10.238,12 -18.399,12 m 0,12.48 c 12.961,0 22.879,-5.28 29.918,-15.52 6.883,-10.4 10.403,-25.44 10.403,-44.96 0,-19.68 -3.52,-34.72 -10.403,-44.96 -7.039,-10.24 -16.957,-15.36 -29.918,-15.36 -13.121,0 -23.199,5.12 -30.082,15.36 -6.879,10.24 -10.238,25.28 -10.238,44.96 0,19.52 3.359,34.56 10.238,44.96 6.883,10.24 16.961,15.52 30.082,15.52" /><path
         id="path314"
         style="fill:#231f20;fill-opacity:1;fill-rule:nonzero;stroke:none"
         d="m 1035.66,4131.88 c -8.16,0 -14.24,-4 -18.4,-12 -4.16,-8 -6.08,-20 -6.08,-36 0,-16 1.92,-28 6.08,-36 4.16,-8 10.24,-12 18.4,-12 8.16,0 14.24,4 18.4,12 4,8 6.08,20 6.08,36 0,16 -2.08,28 -6.08,36 -4.16,8 -10.24,12 -18.4,12 m 0,12.48 c 12.96,0 22.88,-5.28 29.92,-15.52 6.88,-10.4 10.4,-25.44 10.4,-44.96 0,-19.68 -3.52,-34.72 -10.4,-44.96 -7.04,-10.24 -16.96,-15.36 -29.92,-15.36 -13.12,0 -23.2,5.12 -30.08,15.36 -6.877,10.24 -10.236,25.28 -10.236,44.96 0,19.52 3.359,34.56 10.236,44.96 6.88,10.24 16.96,15.52 30.08,15.52" /><path
         id="path316"
         style="fill:#231f20;fill-opacity:1;fill-rule:nonzero;stroke:none"
         d="m 1137.42,4131.88 c -8.16,0 -14.24,-4 -18.4,-12 -4.16,-8 -6.08,-20 -6.08,-36 0,-16 1.92,-28 6.08,-36 4.16,-8 10.24,-12 18.4,-12 8.16,0 14.24,4 18.4,12 4,8 6.08,20 6.08,36 0,16 -2.08,28 -6.08,36 -4.16,8 -10.24,12 -18.4,12 m 0,12.48 c 12.96,0 22.88,-5.28 29.92,-15.52 6.88,-10.4 10.4,-25.44 10.4,-44.96 0,-19.68 -3.52,-34.72 -10.4,-44.96 -7.04,-10.24 -16.96,-15.36 -29.92,-15.36 -13.12,0 -23.2,5.12 -30.08,15.36 -6.88,10.24 -10.24,25.28 -10.24,44.96 0,19.52 3.36,34.56 10.24,44.96 6.88,10.24 16.96,15.52 30.08,15.52" /><path
         id="path318"
         style="fill:#231f20;fill-opacity:1;fill-rule:nonzero;stroke:none"
         d="m 186.684,1619.17 h 16.64 c -4.801,-5.44 -8.48,-11.04 -11.043,-17.12 -2.398,-6.08 -3.679,-12.32 -3.679,-19.04 0,-13.44 4.16,-23.68 12.32,-30.72 8.16,-7.04 19.84,-10.56 35.199,-10.56 15.363,0 27.203,3.52 35.363,10.56 8.161,7.04 12.161,17.28 12.161,30.72 0,6.72 -1.122,12.96 -3.68,19.04 -2.402,6.08 -6.082,11.68 -11.043,17.12 h 16.48 c 3.84,-5.6 6.563,-11.52 8.321,-17.6 1.761,-6.08 2.718,-12.64 2.718,-19.52 0,-17.6 -5.277,-31.52 -16,-41.76 -10.718,-10.24 -25.437,-15.2 -44.32,-15.2 -18.719,0 -33.437,4.96 -44.316,15.2 -10.723,10.24 -16.16,24.16 -16.16,41.76 0,7.04 0.957,13.6 2.718,19.68 1.918,6.08 4.641,12 8.321,17.44" /><path
         id="path320"
         style="fill:#231f20;fill-opacity:1;fill-rule:nonzero;stroke:none"
         d="m 250.363,1682.73 c 0,-11.68 1.442,-19.68 4,-24.16 2.719,-4.48 7.2,-6.72 13.602,-6.72 5.117,0 9.277,1.6 12.156,4.96 3.039,3.36 4.481,8 4.481,13.76 0,8 -2.719,14.4 -8.481,19.2 -5.598,4.8 -13.117,7.2 -22.558,7.2 h -3.2 v -14.24 m -5.922,28.64 h 49.922 v -14.4 h -13.281 c 5.441,-3.36 9.281,-7.52 11.68,-12.32 2.402,-4.8 3.679,-10.88 3.679,-17.92 0,-8.96 -2.398,-16.16 -7.359,-21.44 -4.961,-5.28 -11.68,-7.84 -20.16,-7.84 -9.758,0 -17.117,3.2 -22.238,9.92 -4.961,6.56 -7.52,16.32 -7.52,29.44 v 20.16 h -1.441 c -6.559,0 -11.68,-2.24 -15.36,-6.56 -3.519,-4.32 -5.441,-10.4 -5.441,-18.24 0,-5.12 0.641,-9.92 1.922,-14.72 1.277,-4.8 3.039,-9.28 5.277,-13.6 h -13.277 c -1.922,5.12 -3.52,10.24 -4.481,15.2 -0.961,4.96 -1.601,9.76 -1.601,14.56 0,12.64 3.359,22.08 9.922,28.32 6.558,6.24 16.48,9.44 29.757,9.44" /><path
         id="path322"
         style="fill:#231f20;fill-opacity:1;fill-rule:nonzero;stroke:none"
         d="m 281.242,1754.86 h 46.242 v -14.4 h -120.64 v 14.4 h 13.277 c -5.117,2.88 -8.961,6.72 -11.519,11.36 -2.559,4.64 -3.84,10.24 -3.84,16.64 0,10.56 4.32,19.2 12.64,25.92 8.481,6.56 19.52,9.92 33.282,9.92 13.757,0 24.961,-3.36 33.277,-9.92 8.32,-6.72 12.48,-15.36 12.48,-25.92 0,-6.4 -1.277,-12 -3.679,-16.64 -2.399,-4.64 -6.239,-8.48 -11.52,-11.36 m -30.558,48.96 c -10.563,0 -18.719,-2.24 -24.801,-6.56 -6.078,-4.48 -9.121,-10.4 -9.121,-17.92 0,-7.68 3.043,-13.6 9.121,-17.92 6.082,-4.48 14.238,-6.56 24.801,-6.56 10.558,0 18.879,2.08 24.961,6.56 6.078,4.32 8.957,10.24 8.957,17.92 0,7.52 -2.879,13.44 -8.957,17.92 -6.082,4.32 -14.403,6.56 -24.961,6.56" /><path
         id="path324"
         style="fill:#231f20;fill-opacity:1;fill-rule:nonzero;stroke:none"
         d="m 250.363,1882.34 c 0,-11.68 1.442,-19.68 4,-24.16 2.719,-4.48 7.2,-6.72 13.602,-6.72 5.117,0 9.277,1.6 12.156,4.96 3.039,3.36 4.481,8 4.481,13.76 0,8 -2.719,14.4 -8.481,19.2 -5.598,4.8 -13.117,7.2 -22.558,7.2 h -3.2 v -14.24 m -5.922,28.64 h 49.922 v -14.4 h -13.281 c 5.441,-3.36 9.281,-7.52 11.68,-12.32 2.402,-4.8 3.679,-10.88 3.679,-17.92 0,-8.96 -2.398,-16.16 -7.359,-21.44 -4.961,-5.28 -11.68,-7.84 -20.16,-7.84 -9.758,0 -17.117,3.2 -22.238,9.92 -4.961,6.56 -7.52,16.32 -7.52,29.44 v 20.16 h -1.441 c -6.559,0 -11.68,-2.24 -15.36,-6.56 -3.519,-4.32 -5.441,-10.4 -5.441,-18.24 0,-5.12 0.641,-9.92 1.922,-14.72 1.277,-4.8 3.039,-9.28 5.277,-13.6 h -13.277 c -1.922,5.12 -3.52,10.24 -4.481,15.2 -0.961,4.96 -1.601,9.76 -1.601,14.56 0,12.64 3.359,22.08 9.922,28.32 6.558,6.24 16.48,9.44 29.757,9.44" /><path
         id="path326"
         style="fill:#231f20;fill-opacity:1;fill-rule:nonzero;stroke:none"
         d="m 210.203,2003.59 h 13.442 c -2.243,-4.16 -3.84,-8.16 -4.961,-12.32 -1.121,-4.16 -1.762,-8.16 -1.762,-12.32 0,-9.28 3.043,-16.64 8.961,-21.76 5.922,-5.12 14.238,-7.68 24.801,-7.68 10.718,0 19.039,2.56 24.961,7.68 5.918,5.12 8.796,12.48 8.796,21.76 0,4.16 -0.48,8.16 -1.597,12.32 -1.121,4.16 -2.879,8.16 -5.121,12.32 h 13.281 c 1.918,-4.16 3.359,-8.32 4.16,-12.48 0.801,-4.32 1.277,-8.96 1.277,-13.76 0,-13.12 -4,-23.68 -12.32,-31.36 -8.156,-7.84 -19.359,-11.68 -33.437,-11.68 -14.243,0 -25.442,3.84 -33.602,11.68 -8.16,7.84 -12.32,18.56 -12.32,32.32 0,4.48 0.48,8.8 1.441,12.96 0.961,4.16 2.238,8.32 4,12.32" /><path
         id="path328"
         style="fill:#231f20;fill-opacity:1;fill-rule:nonzero;stroke:none"
         d="m 206.844,2028.52 v 14.4 h 87.519 v -14.4 h -87.519 m -34.082,0 v 14.4 h 18.242 v -14.4 h -18.242" /><path
         id="path330"
         style="fill:#231f20;fill-opacity:1;fill-rule:nonzero;stroke:none"
         d="m 182.043,2087.21 h 24.801 v 29.6 h 11.199 v -29.6 h 47.52 c 7.199,0 11.839,0.96 13.761,2.88 2.078,1.92 3.039,5.92 3.039,12 v 14.72 h 12 v -14.72 c 0,-11.2 -2.082,-18.88 -6.242,-23.04 -4.16,-4.16 -11.68,-6.24 -22.558,-6.24 h -47.52 v -10.56 h -11.199 v 10.56 h -24.801 v 14.4" /><path
         id="path332"
         style="fill:#231f20;fill-opacity:1;fill-rule:nonzero;stroke:none"
         d="m 250.363,2175.54 c 0,-11.68 1.442,-19.68 4,-24.16 2.719,-4.48 7.2,-6.72 13.602,-6.72 5.117,0 9.277,1.6 12.156,4.96 3.039,3.36 4.481,8 4.481,13.76 0,8 -2.719,14.4 -8.481,19.2 -5.598,4.8 -13.117,7.2 -22.558,7.2 h -3.2 v -14.24 m -5.922,28.64 h 49.922 v -14.4 h -13.281 c 5.441,-3.36 9.281,-7.52 11.68,-12.32 2.402,-4.8 3.679,-10.88 3.679,-17.92 0,-8.96 -2.398,-16.16 -7.359,-21.44 -4.961,-5.28 -11.68,-7.84 -20.16,-7.84 -9.758,0 -17.117,3.2 -22.238,9.92 -4.961,6.56 -7.52,16.32 -7.52,29.44 v 20.16 h -1.441 c -6.559,0 -11.68,-2.24 -15.36,-6.56 -3.519,-4.32 -5.441,-10.4 -5.441,-18.24 0,-5.12 0.641,-9.92 1.922,-14.72 1.277,-4.8 3.039,-9.28 5.277,-13.6 h -13.277 c -1.922,5.12 -3.52,10.24 -4.481,15.2 -0.961,4.96 -1.601,9.76 -1.601,14.56 0,12.64 3.359,22.08 9.922,28.32 6.558,6.24 16.48,9.44 29.757,9.44" /><path
         id="path334"
         style="fill:#231f20;fill-opacity:1;fill-rule:nonzero;stroke:none"
         d="m 241.563,2306.55 h 52.8 v -14.4 h -52.32 c -8.32,0 -14.402,-1.76 -18.559,-4.96 -4.16,-3.2 -6.242,-8 -6.242,-14.4 0,-7.84 2.563,-13.92 7.52,-18.4 4.961,-4.48 11.679,-6.72 20.16,-6.72 h 49.441 v -14.4 h -87.519 v 14.4 h 13.597 c -5.121,3.36 -9.121,7.36 -11.679,12.16 -2.559,4.64 -4,10.08 -4,16.16 0,9.92 3.199,17.6 9.441,22.72 6.238,5.12 15.36,7.84 27.36,7.84" /><path
         id="path336"
         style="fill:#231f20;fill-opacity:1;fill-rule:nonzero;stroke:none"
         d="m 210.203,2398.2 h 13.442 c -2.243,-4.16 -3.84,-8.16 -4.961,-12.32 -1.121,-4.16 -1.762,-8.16 -1.762,-12.32 0,-9.28 3.043,-16.64 8.961,-21.76 5.922,-5.12 14.238,-7.68 24.801,-7.68 10.718,0 19.039,2.56 24.961,7.68 5.918,5.12 8.796,12.48 8.796,21.76 0,4.16 -0.48,8.16 -1.597,12.32 -1.121,4.16 -2.879,8.16 -5.121,12.32 h 13.281 c 1.918,-4.16 3.359,-8.32 4.16,-12.48 0.801,-4.32 1.277,-8.96 1.277,-13.76 0,-13.12 -4,-23.68 -12.32,-31.36 -8.156,-7.84 -19.359,-11.68 -33.437,-11.68 -14.243,0 -25.442,3.84 -33.602,11.68 -8.16,7.84 -12.32,18.56 -12.32,32.32 0,4.48 0.48,8.8 1.441,12.96 0.961,4.16 2.238,8.32 4,12.32" /><path
         id="path338"
         style="fill:#231f20;fill-opacity:1;fill-rule:nonzero;stroke:none"
         d="m 247.004,2498.01 h 7.039 v -66.08 c 9.918,0.64 17.602,3.52 22.719,8.96 5.121,5.28 7.679,12.64 7.679,22.24 0,5.44 -0.636,10.88 -1.918,16 -1.281,5.12 -3.359,10.4 -6.242,15.52 h 13.602 c 2.238,-5.12 4,-10.4 4.961,-15.84 0.957,-5.44 1.597,-11.04 1.597,-16.48 0,-14.08 -4,-25.12 -12,-33.28 -8,-8.16 -19.039,-12.16 -32.957,-12.16 -14.242,0 -25.601,3.84 -34.082,11.52 -8.32,7.68 -12.64,18.24 -12.64,31.36 0,11.84 3.84,21.12 11.359,28 7.684,6.72 17.922,10.24 30.883,10.24 m -4.16,-14.4 c -7.84,-0.16 -14.082,-2.4 -18.883,-6.56 -4.637,-4.32 -7.039,-10.08 -7.039,-17.12 0,-8 2.402,-14.4 6.883,-19.2 4.476,-4.8 10.879,-7.68 19.039,-8.32 v 51.2" /><path
         id="path340"
         style="fill:#231f20;fill-opacity:1;fill-rule:nonzero;stroke:none"
         d="m 274.523,2525.24 v 16.48 h 13.442 l 24.797,-12.8 v -10.08 l -24.797,6.4 h -13.442" /><path
         id="path342"
         style="fill:#231f20;fill-opacity:1;fill-rule:nonzero;stroke:none"
         d="m 294.363,2616.88 c 0,-0.96 -0.32,-1.28 -1.281,-1.28 h -0.16 l -0.32,0.16 -111.039,55.04 c -1.122,0.48 -1.758,1.44 -1.758,2.88 v 2.24 c 0,1.44 0.636,2.4 1.758,2.88 l 111.039,55.04 0.32,0.16 h 0.16 c 0.961,0 1.281,-0.48 1.281,-1.28 v -115.84 m -12.8,10.56 v 84.32 l -84.961,-42.08 84.961,-42.24" /><path
         id="path344"
         style="fill:#231f20;fill-opacity:1;fill-rule:nonzero;stroke:none"
         d="m 259.805,2764.88 c 6.398,0 12.16,1.12 16.957,3.68 4.961,2.4 8.801,5.92 11.519,10.72 2.723,4.8 4,10.4 4,16.8 0,6.72 -1.597,13.12 -5.117,19.36 -3.519,6.24 -8.16,11.52 -13.922,16 -5.758,4.32 -11.84,7.36 -18.238,8.96 l -0.961,1.28 v 1.92 l 0.48,0.96 0.961,0.48 0.481,-0.16 c 7.359,-1.92 14.398,-5.44 20.797,-10.56 6.562,-5.28 11.679,-11.52 15.359,-18.88 3.68,-7.36 5.602,-14.72 5.602,-22.4 0,-8.32 -1.922,-15.84 -5.442,-22.4 -3.679,-6.72 -8.797,-11.84 -15.519,-15.52 -6.719,-3.68 -14.239,-5.44 -22.719,-5.44 -8.961,0 -17.762,1.92 -26.559,5.92 -8.64,4 -16.48,9.44 -23.363,16.16 -6.879,6.72 -12.316,14.56 -16.48,23.2 -3.996,8.64 -6.078,17.44 -6.078,26.4 0,3.52 0.64,6.88 1.597,10.08 1.121,3.2 2.723,6.24 4.961,9.12 2.242,2.72 4.641,4.96 7.524,6.72 l -13.762,12.64 -0.32,0.8 v 0.96 l 0.64,0.96 0.957,0.48 43.203,-10.88 1.121,-1.28 v -2.88 c 0,-0.96 -0.48,-1.28 -1.761,-1.28 -2.239,0.32 -5.121,0.64 -8.481,0.64 -5.121,0 -10.078,-0.96 -14.719,-2.72 -4.48,-1.76 -8.16,-4.48 -11.039,-8.16 -2.882,-3.84 -4.32,-8.32 -4.32,-13.6 0,-8.8 2.238,-16.8 6.559,-24 4.48,-7.2 10.242,-13.28 17.281,-18.4 7.039,-5.12 15.039,-8.96 23.68,-11.68 8.64,-2.72 17.121,-4 25.121,-4" /><path
         id="path346"
         style="fill:#231f20;fill-opacity:1;fill-rule:nonzero;stroke:none"
         d="m 331.004,2864.7 -0.641,0.16 -154.082,55.68 -1.437,1.12 -0.481,1.76 c 0,0.96 0.321,1.6 0.957,2.24 0.645,0.64 1.282,0.96 2.243,0.96 h 0.64 l 154.078,-55.68 c 1.282,-0.64 1.922,-1.76 1.922,-3.04 0,-0.96 -0.32,-1.6 -0.961,-2.24 l -2.238,-0.96" /><path
         id="path348"
         style="fill:#231f20;fill-opacity:1;fill-rule:nonzero;stroke:none"
         d="m 259.805,2959.1 c 6.398,0 12.16,1.12 16.957,3.68 4.961,2.4 8.801,5.92 11.519,10.72 2.723,4.8 4,10.4 4,16.8 0,6.72 -1.597,13.12 -5.117,19.36 -3.519,6.24 -8.16,11.52 -13.922,16 -5.758,4.32 -11.84,7.36 -18.238,8.96 l -0.961,1.28 v 1.92 l 0.48,0.96 0.961,0.48 0.481,-0.16 c 7.359,-1.92 14.398,-5.44 20.797,-10.56 6.562,-5.28 11.679,-11.52 15.359,-18.88 3.68,-7.36 5.602,-14.72 5.602,-22.4 0,-8.32 -1.922,-15.84 -5.442,-22.4 -3.679,-6.72 -8.797,-11.84 -15.519,-15.52 -6.719,-3.68 -14.239,-5.44 -22.719,-5.44 -8.961,0 -17.762,1.92 -26.559,5.92 -8.64,4 -16.48,9.44 -23.363,16.16 -6.879,6.72 -12.316,14.56 -16.48,23.2 -3.996,8.64 -6.078,17.44 -6.078,26.4 0,3.52 0.64,6.88 1.597,10.08 1.121,3.2 2.723,6.24 4.961,9.12 2.242,2.72 4.641,4.96 7.524,6.72 l -13.762,12.64 -0.32,0.8 v 0.96 l 0.64,0.96 0.957,0.48 43.203,-10.88 1.121,-1.28 v -2.88 c 0,-0.96 -0.48,-1.28 -1.761,-1.28 -2.239,0.32 -5.121,0.64 -8.481,0.64 -5.121,0 -10.078,-0.96 -14.719,-2.72 -4.48,-1.76 -8.16,-4.48 -11.039,-8.16 -2.882,-3.84 -4.32,-8.32 -4.32,-13.6 0,-8.8 2.238,-16.8 6.559,-24 4.48,-7.2 10.242,-13.28 17.281,-18.4 7.039,-5.12 15.039,-8.96 23.68,-11.68 8.64,-2.72 17.121,-4 25.121,-4" /><path
         id="path350"
         style="fill:#231f20;fill-opacity:1;fill-rule:nonzero;stroke:none"
         d="m 323.926,3077.96 c 0,-9.18 -3.696,-15.46 -11.203,-18.7 -7.504,-3.36 -16.461,-4.93 -26.879,-4.93 -6.496,0 -12.543,0.56 -18.254,1.79 -5.715,1.12 -10.531,3.47 -14.563,7.06 -4.031,3.47 -6.047,8.4 -6.047,14.78 0,4.93 1.231,8.96 3.583,12.1 2.464,3.13 5.488,5.48 9.296,7.16 3.809,1.57 7.954,2.69 12.321,3.36 4.371,0.56 8.961,0.9 13.664,0.9 6.496,0 12.433,-0.67 18.031,-1.79 5.602,-1.23 10.418,-3.59 14.227,-7.06 3.804,-3.47 5.824,-8.4 5.824,-14.67 m -2.801,0 c 0,4.14 -2.129,7.28 -6.387,9.3 -4.254,2.01 -8.957,3.24 -14.109,3.69 -5.152,0.45 -10.754,0.79 -16.578,0.79 -5.598,0 -10.75,-0.34 -15.453,-0.79 -4.707,-0.45 -9.075,-1.68 -12.883,-3.69 -3.809,-2.02 -5.82,-5.16 -5.82,-9.3 0,-4.26 2.011,-7.39 5.82,-9.41 3.808,-2.01 8.176,-3.36 12.883,-3.81 4.703,-0.44 9.855,-0.67 15.453,-0.67 4.258,0 8.176,0 11.762,0.23 3.695,0.22 7.503,0.78 11.421,1.68 3.922,0.89 7.168,2.24 9.86,4.25 2.687,1.91 4.031,4.48 4.031,7.73" /><path
         id="path352"
         style="fill:#231f20;fill-opacity:1;fill-rule:nonzero;stroke:none"
         d="M 1266.8,3385.8 H 1390 v -16.6 h -51.8 V 3240 h -19.8 v 129.2 h -51.6 v 16.6" /><path
         id="path354"
         style="fill:#231f20;fill-opacity:1;fill-rule:nonzero;stroke:none"
         d="m 1474.2,3330.8 h 125.2 v -16.4 h -125.2 v 16.4 m 0,-39.8 h 125.2 v -16.6 h -125.2 v 16.6" /><path
         id="path356"
         style="fill:#231f20;fill-opacity:1;fill-rule:nonzero;stroke:none"
         d="m 1759.8,3368.6 -49.8,-77.8 h 49.8 v 77.8 m -5.2,17.2 h 24.8 v -95 h 20.8 v -16.4 h -20.8 V 3240 h -19.6 v 34.4 H 1694 v 19 l 60.6,92.4" /><path
         id="path358"
         style="fill:#231f20;fill-opacity:1;fill-rule:nonzero;stroke:none"
         d="m 1832.8,3240 h 20.5977 v 24.8008 H 1832.8 Z" /><path
         id="path360"
         style="fill:#231f20;fill-opacity:1;fill-rule:nonzero;stroke:none"
         d="m 1913.39,3256.6 h 68.8 V 3240 h -92.6 v 16.6 c 7.4,7.6 17.6,18 30.6,31.2 12.8,13 21,21.4 24.4,25.2 6.4,7 10.8,13 13.2,18 2.4,4.8 3.8,9.8 3.8,14.6 0,7.6 -2.8,14 -8.2,18.8 -5.4,4.8 -12.4,7.4 -21.2,7.4 -6.2,0 -12.8,-1.2 -19.6,-3.2 -6.8,-2.2 -14.2,-5.4 -22,-9.8 v 20 c 8,3.2 15.4,5.6 22.2,7.2 6.8,1.6 13.2,2.4 19,2.4 15,0 27,-3.8 36,-11.4 9,-7.6 13.6,-17.6 13.6,-30.2 0,-6 -1.2,-11.8 -3.4,-17 -2.2,-5.4 -6.2,-11.8 -12.2,-19 -1.6,-2 -6.8,-7.4 -15.6,-16.4 -8.8,-9 -21,-21.6 -36.8,-37.8" /><path
         id="path362"
         style="fill:#231f20;fill-opacity:1;fill-rule:nonzero;stroke:none"
         d="m 2085.39,3385.8 h 19.8 v -61.6 l 65.4,61.6 h 25.4 l -72.4,-68 77.6,-77.8 h -26 l -70,70.2 V 3240 h -19.8 v 145.8" /></g></g></svg>