<?xml version="1.0" encoding="UTF-8" standalone="no"?>
<svg
   xmlns:dc="http://purl.org/dc/elements/1.1/"
   xmlns:cc="http://creativecommons.org/ns#"
   xmlns:rdf="http://www.w3.org/1999/02/22-rdf-syntax-ns#"
   xmlns:svg="http://www.w3.org/2000/svg"
   xmlns="http://www.w3.org/2000/svg"
   viewBox="0 0 768 576"
   height="576"
   width="768"
   xml:space="preserve"
   id="svg2"
   version="1.1"><metadata
     id="metadata8"><rdf:RDF><cc:Work
         rdf:about=""><dc:format>image/svg+xml</dc:format><dc:type
           rdf:resource="http://purl.org/dc/dcmitype/StillImage" /></cc:Work></rdf:RDF></metadata><defs
     id="defs6"><clipPath
       id="clipPath22"
       clipPathUnits="userSpaceOnUse"><path
         id="path20"
         d="M 84.605,63.98 H 550.54877 V 411.22 H 84.605 Z" /></clipPath><clipPath
       id="clipPath40"
       clipPathUnits="userSpaceOnUse"><path
         id="path38"
         d="M 84.605,63.98 H 550.54877 V 411.22 H 84.605 Z" /></clipPath><clipPath
       id="clipPath58"
       clipPathUnits="userSpaceOnUse"><path
         id="path56"
         d="M 84.605,63.98 H 550.54877 V 411.22 H 84.605 Z" /></clipPath><clipPath
       id="clipPath76"
       clipPathUnits="userSpaceOnUse"><path
         id="path74"
         d="M 84.605,63.98 H 550.54877 V 411.22 H 84.605 Z" /></clipPath><clipPath
       id="clipPath94"
       clipPathUnits="userSpaceOnUse"><path
         id="path92"
         d="M 84.605,63.98 H 550.54877 V 411.22 H 84.605 Z" /></clipPath><clipPath
       id="clipPath112"
       clipPathUnits="userSpaceOnUse"><path
         id="path110"
         d="M 84.605,63.98 H 550.54877 V 411.22 H 84.605 Z" /></clipPath><clipPath
       id="clipPath148"
       clipPathUnits="userSpaceOnUse"><path
         id="path146"
         d="M 84.605,63.98 H 550.54877 V 411.22 H 84.605 Z" /></clipPath><clipPath
       id="clipPath166"
       clipPathUnits="userSpaceOnUse"><path
         id="path164"
         d="M 84.605,63.98 H 550.54877 V 411.22 H 84.605 Z" /></clipPath><clipPath
       id="clipPath184"
       clipPathUnits="userSpaceOnUse"><path
         id="path182"
         d="M 84.605,63.98 H 550.54877 V 411.22 H 84.605 Z" /></clipPath><clipPath
       id="clipPath202"
       clipPathUnits="userSpaceOnUse"><path
         id="path200"
         d="M 84.605,63.98 H 550.54877 V 411.22 H 84.605 Z" /></clipPath><clipPath
       id="clipPath220"
       clipPathUnits="userSpaceOnUse"><path
         id="path218"
         d="M 84.605,63.98 H 550.54877 V 411.22 H 84.605 Z" /></clipPath><clipPath
       id="clipPath238"
       clipPathUnits="userSpaceOnUse"><path
         id="path236"
         d="M 84.605,63.98 H 550.54877 V 411.22 H 84.605 Z" /></clipPath><clipPath
       id="clipPath256"
       clipPathUnits="userSpaceOnUse"><path
         id="path254"
         d="M 84.605,63.98 H 550.54877 V 411.22 H 84.605 Z" /></clipPath><clipPath
       id="clipPath274"
       clipPathUnits="userSpaceOnUse"><path
         id="path272"
         d="M 84.605,63.98 H 550.54877 V 411.22 H 84.605 Z" /></clipPath><clipPath
       id="clipPath308"
       clipPathUnits="userSpaceOnUse"><path
         id="path306"
         d="M -1016,-351 H 1660 V 1068 H -1016 Z" /></clipPath><clipPath
       id="clipPath320"
       clipPathUnits="userSpaceOnUse"><path
         id="path318"
         d="M -1021,-463 H 1794 V 1233 H -1021 Z" /></clipPath><clipPath
       id="clipPath330"
       clipPathUnits="userSpaceOnUse"><path
         id="path328"
         d="M 84.605,63.98 H 550.54877 V 411.22 H 84.605 Z" /></clipPath></defs><g
     transform="matrix(1.3333333,0,0,-1.3333333,0,575.99999)"
     id="g10"><path
       id="path12"
       style="fill:#ffffff;fill-opacity:1;fill-rule:nonzero;stroke:none"
       d="M 0,0 H 576 V 432 H 0 Z" /><path
       id="path14"
       style="fill:#ffffff;fill-opacity:1;fill-rule:nonzero;stroke:none"
       d="M 84.605,63.98 H 550.54877 V 411.22 H 84.605 Z" /><g
       id="g16"><g
         clip-path="url(#clipPath22)"
         id="g18"><path
           id="path24"
           style="fill:none;stroke:#b0b0b0;stroke-width:0.80000001;stroke-linecap:square;stroke-linejoin:round;stroke-miterlimit:10;stroke-dasharray:none;stroke-opacity:1"
           d="M 84.605,63.98 V 411.22" /></g></g><g
       id="g26"><path
         id="path28"
         style="fill:#000000;fill-opacity:1;fill-rule:nonzero;stroke:#000000;stroke-width:0.80000001;stroke-linecap:butt;stroke-linejoin:round;stroke-miterlimit:10;stroke-dasharray:none;stroke-opacity:1"
         d="m 84.605,63.98 v -3.5" /><text
         id="text32"
         style="font-variant:normal;font-weight:normal;font-size:16px;font-family:'DejaVu Sans';-inkscape-font-specification:DejaVuSans;writing-mode:lr-tb;fill:#000000;fill-opacity:1;fill-rule:nonzero;stroke:none"
         transform="matrix(1,0,0,-1,79.51125,44.82375)"><tspan
           id="tspan30"
           y="0"
           x="0">0</tspan></text>
</g><g
       id="g34"><g
         clip-path="url(#clipPath40)"
         id="g36"><path
           id="path42"
           style="fill:none;stroke:#b0b0b0;stroke-width:0.80000001;stroke-linecap:square;stroke-linejoin:round;stroke-miterlimit:10;stroke-dasharray:none;stroke-opacity:1"
           d="M 177.79375,63.98 V 411.22" /></g></g><g
       id="g44"><path
         id="path46"
         style="fill:#000000;fill-opacity:1;fill-rule:nonzero;stroke:#000000;stroke-width:0.80000001;stroke-linecap:butt;stroke-linejoin:round;stroke-miterlimit:10;stroke-dasharray:none;stroke-opacity:1"
         d="m 177.79375,63.98 v -3.5" /><text
         id="text50"
         style="font-variant:normal;font-weight:normal;font-size:16px;font-family:'DejaVu Sans';-inkscape-font-specification:DejaVuSans;writing-mode:lr-tb;fill:#000000;fill-opacity:1;fill-rule:nonzero;stroke:none"
         transform="matrix(1,0,0,-1,162.5125,44.82375)"><tspan
           id="tspan48"
           y="0"
           x="0 10.176 20.351999">200</tspan></text>
</g><g
       id="g52"><g
         clip-path="url(#clipPath58)"
         id="g54"><path
           id="path60"
           style="fill:none;stroke:#b0b0b0;stroke-width:0.80000001;stroke-linecap:square;stroke-linejoin:round;stroke-miterlimit:10;stroke-dasharray:none;stroke-opacity:1"
           d="M 270.98251,63.98 V 411.22" /></g></g><g
       id="g62"><path
         id="path64"
         style="fill:#000000;fill-opacity:1;fill-rule:nonzero;stroke:#000000;stroke-width:0.80000001;stroke-linecap:butt;stroke-linejoin:round;stroke-miterlimit:10;stroke-dasharray:none;stroke-opacity:1"
         d="m 270.98251,63.98 v -3.5" /><text
         id="text68"
         style="font-variant:normal;font-weight:normal;font-size:16px;font-family:'DejaVu Sans';-inkscape-font-specification:DejaVuSans;writing-mode:lr-tb;fill:#000000;fill-opacity:1;fill-rule:nonzero;stroke:none"
         transform="matrix(1,0,0,-1,255.70126,44.82375)"><tspan
           id="tspan66"
           y="0"
           x="0 10.176 20.351999">400</tspan></text>
</g><g
       id="g70"><g
         clip-path="url(#clipPath76)"
         id="g72"><path
           id="path78"
           style="fill:none;stroke:#b0b0b0;stroke-width:0.80000001;stroke-linecap:square;stroke-linejoin:round;stroke-miterlimit:10;stroke-dasharray:none;stroke-opacity:1"
           d="M 364.17126,63.98 V 411.22" /></g></g><g
       id="g80"><path
         id="path82"
         style="fill:#000000;fill-opacity:1;fill-rule:nonzero;stroke:#000000;stroke-width:0.80000001;stroke-linecap:butt;stroke-linejoin:round;stroke-miterlimit:10;stroke-dasharray:none;stroke-opacity:1"
         d="m 364.17126,63.98 v -3.5" /><text
         id="text86"
         style="font-variant:normal;font-weight:normal;font-size:16px;font-family:'DejaVu Sans';-inkscape-font-specification:DejaVuSans;writing-mode:lr-tb;fill:#000000;fill-opacity:1;fill-rule:nonzero;stroke:none"
         transform="matrix(1,0,0,-1,348.89001,44.82375)"><tspan
           id="tspan84"
           y="0"
           x="0 10.176 20.351999">600</tspan></text>
</g><g
       id="g88"><g
         clip-path="url(#clipPath94)"
         id="g90"><path
           id="path96"
           style="fill:none;stroke:#b0b0b0;stroke-width:0.80000001;stroke-linecap:square;stroke-linejoin:round;stroke-miterlimit:10;stroke-dasharray:none;stroke-opacity:1"
           d="M 457.36002,63.98 V 411.22" /></g></g><g
       id="g98"><path
         id="path100"
         style="fill:#000000;fill-opacity:1;fill-rule:nonzero;stroke:#000000;stroke-width:0.80000001;stroke-linecap:butt;stroke-linejoin:round;stroke-miterlimit:10;stroke-dasharray:none;stroke-opacity:1"
         d="m 457.36002,63.98 v -3.5" /><text
         id="text104"
         style="font-variant:normal;font-weight:normal;font-size:16px;font-family:'DejaVu Sans';-inkscape-font-specification:DejaVuSans;writing-mode:lr-tb;fill:#000000;fill-opacity:1;fill-rule:nonzero;stroke:none"
         transform="matrix(1,0,0,-1,442.07877,44.82375)"><tspan
           id="tspan102"
           y="0"
           x="0 10.176 20.351999">800</tspan></text>
</g><g
       id="g106"><g
         clip-path="url(#clipPath112)"
         id="g108"><path
           id="path114"
           style="fill:none;stroke:#b0b0b0;stroke-width:0.80000001;stroke-linecap:square;stroke-linejoin:round;stroke-miterlimit:10;stroke-dasharray:none;stroke-opacity:1"
           d="M 550.54877,63.98 V 411.22" /></g></g><g
       id="g116"><path
         id="path118"
         style="fill:#000000;fill-opacity:1;fill-rule:nonzero;stroke:#000000;stroke-width:0.80000001;stroke-linecap:butt;stroke-linejoin:round;stroke-miterlimit:10;stroke-dasharray:none;stroke-opacity:1"
         d="m 550.54877,63.98 v -3.5" /><text
         id="text122"
         style="font-variant:normal;font-weight:normal;font-size:16px;font-family:'DejaVu Sans';-inkscape-font-specification:DejaVuSans;writing-mode:lr-tb;fill:#000000;fill-opacity:1;fill-rule:nonzero;stroke:none"
         transform="matrix(1,0,0,-1,530.17377,44.82375)"><tspan
           id="tspan120"
           y="0"
           x="0 10.176 20.351999 30.528">1000</tspan></text>
<g
         transform="translate(294.07689,23.82375)"
         id="g124"><text
           id="text128"
           style="font-style:italic;font-variant:normal;font-size:16px;font-family:'DejaVu Sans';-inkscape-font-specification:DejaVuSans-Oblique;writing-mode:lr-tb;fill:#000000;fill-opacity:1;fill-rule:nonzero;stroke:none"
           transform="matrix(1,0,0,-1,0,0.5625)"><tspan
             id="tspan126"
             y="0"
             x="0">T</tspan></text>
<text
           id="text132"
           style="font-variant:normal;font-weight:normal;font-size:11.19999981px;font-family:'DejaVu Sans';-inkscape-font-specification:DejaVuSans;writing-mode:lr-tb;fill:#000000;fill-opacity:1;fill-rule:nonzero;stroke:none"
           transform="matrix(1,0,0,-1,10.897083,6.6875)"><tspan
             id="tspan130"
             y="0"
             x="0">2</tspan></text>
<text
           id="text136"
           style="font-variant:normal;font-weight:normal;font-size:16px;font-family:'DejaVu Sans';-inkscape-font-specification:DejaVuSans;writing-mode:lr-tb;fill:#000000;fill-opacity:1;fill-rule:nonzero;stroke:none"
           transform="matrix(1,0,0,-1,18.460365,0.5625)"><tspan
             id="tspan134"
             y="0"
             x="0 5.0859375 10.171875">, K</tspan></text>
<text
           id="text140"
           style="font-variant:normal;font-weight:normal;font-size:11.19999981px;font-family:'DejaVu Sans';-inkscape-font-specification:DejaVuSans;writing-mode:lr-tb;fill:#000000;fill-opacity:1;fill-rule:nonzero;stroke:none"
           transform="matrix(1,0,0,-1,39.277552,6.6875)"><tspan
             id="tspan138"
             y="0"
             x="0">2</tspan></text>
</g></g><g
       id="g142"><g
         clip-path="url(#clipPath148)"
         id="g144"><path
           id="path150"
           style="fill:none;stroke:#b0b0b0;stroke-width:0.80000001;stroke-linecap:square;stroke-linejoin:round;stroke-miterlimit:10;stroke-dasharray:none;stroke-opacity:1"
           d="M 84.605,63.98 H 550.54877" /></g></g><g
       id="g152"><path
         id="path154"
         style="fill:#000000;fill-opacity:1;fill-rule:nonzero;stroke:#000000;stroke-width:0.80000001;stroke-linecap:butt;stroke-linejoin:round;stroke-miterlimit:10;stroke-dasharray:none;stroke-opacity:1"
         d="m 84.605,63.98 h -3.5" /><text
         id="text158"
         style="font-variant:normal;font-weight:normal;font-size:16px;font-family:'DejaVu Sans';-inkscape-font-specification:DejaVuSans;writing-mode:lr-tb;fill:#000000;fill-opacity:1;fill-rule:nonzero;stroke:none"
         transform="matrix(1,0,0,-1,31.76125,57.901875)"><tspan
           id="tspan156"
           y="0"
           x="0 10.176 20.351999 25.440001 35.616001">37.90</tspan></text>
</g><g
       id="g160"><g
         clip-path="url(#clipPath166)"
         id="g162"><path
           id="path168"
           style="fill:none;stroke:#b0b0b0;stroke-width:0.80000001;stroke-linecap:square;stroke-linejoin:round;stroke-miterlimit:10;stroke-dasharray:none;stroke-opacity:1"
           d="M 84.605,113.58571 H 550.54877" /></g></g><g
       id="g170"><path
         id="path172"
         style="fill:#000000;fill-opacity:1;fill-rule:nonzero;stroke:#000000;stroke-width:0.80000001;stroke-linecap:butt;stroke-linejoin:round;stroke-miterlimit:10;stroke-dasharray:none;stroke-opacity:1"
         d="m 84.605,113.58571 h -3.5" /><text
         id="text176"
         style="font-variant:normal;font-weight:normal;font-size:16px;font-family:'DejaVu Sans';-inkscape-font-specification:DejaVuSans;writing-mode:lr-tb;fill:#000000;fill-opacity:1;fill-rule:nonzero;stroke:none"
         transform="matrix(1,0,0,-1,31.76125,107.50759)"><tspan
           id="tspan174"
           y="0"
           x="0 10.176 20.351999 25.440001 35.616001">37.95</tspan></text>
</g><g
       id="g178"><g
         clip-path="url(#clipPath184)"
         id="g180"><path
           id="path186"
           style="fill:none;stroke:#b0b0b0;stroke-width:0.80000001;stroke-linecap:square;stroke-linejoin:round;stroke-miterlimit:10;stroke-dasharray:none;stroke-opacity:1"
           d="M 84.605,163.19143 H 550.54877" /></g></g><g
       id="g188"><path
         id="path190"
         style="fill:#000000;fill-opacity:1;fill-rule:nonzero;stroke:#000000;stroke-width:0.80000001;stroke-linecap:butt;stroke-linejoin:round;stroke-miterlimit:10;stroke-dasharray:none;stroke-opacity:1"
         d="m 84.605,163.19143 h -3.5" /><text
         id="text194"
         style="font-variant:normal;font-weight:normal;font-size:16px;font-family:'DejaVu Sans';-inkscape-font-specification:DejaVuSans;writing-mode:lr-tb;fill:#000000;fill-opacity:1;fill-rule:nonzero;stroke:none"
         transform="matrix(1,0,0,-1,31.76125,157.1133)"><tspan
           id="tspan192"
           y="0"
           x="0 10.176 20.351999 25.440001 35.616001">38.00</tspan></text>
</g><g
       id="g196"><g
         clip-path="url(#clipPath202)"
         id="g198"><path
           id="path204"
           style="fill:none;stroke:#b0b0b0;stroke-width:0.80000001;stroke-linecap:square;stroke-linejoin:round;stroke-miterlimit:10;stroke-dasharray:none;stroke-opacity:1"
           d="M 84.605,212.79714 H 550.54877" /></g></g><g
       id="g206"><path
         id="path208"
         style="fill:#000000;fill-opacity:1;fill-rule:nonzero;stroke:#000000;stroke-width:0.80000001;stroke-linecap:butt;stroke-linejoin:round;stroke-miterlimit:10;stroke-dasharray:none;stroke-opacity:1"
         d="m 84.605,212.79714 h -3.5" /><text
         id="text212"
         style="font-variant:normal;font-weight:normal;font-size:16px;font-family:'DejaVu Sans';-inkscape-font-specification:DejaVuSans;writing-mode:lr-tb;fill:#000000;fill-opacity:1;fill-rule:nonzero;stroke:none"
         transform="matrix(1,0,0,-1,31.76125,206.71902)"><tspan
           id="tspan210"
           y="0"
           x="0 10.176 20.351999 25.440001 35.616001">38.05</tspan></text>
</g><g
       id="g214"><g
         clip-path="url(#clipPath220)"
         id="g216"><path
           id="path222"
           style="fill:none;stroke:#b0b0b0;stroke-width:0.80000001;stroke-linecap:square;stroke-linejoin:round;stroke-miterlimit:10;stroke-dasharray:none;stroke-opacity:1"
           d="M 84.605,262.40286 H 550.54877" /></g></g><g
       id="g224"><path
         id="path226"
         style="fill:#000000;fill-opacity:1;fill-rule:nonzero;stroke:#000000;stroke-width:0.80000001;stroke-linecap:butt;stroke-linejoin:round;stroke-miterlimit:10;stroke-dasharray:none;stroke-opacity:1"
         d="m 84.605,262.40286 h -3.5" /><text
         id="text230"
         style="font-variant:normal;font-weight:normal;font-size:16px;font-family:'DejaVu Sans';-inkscape-font-specification:DejaVuSans;writing-mode:lr-tb;fill:#000000;fill-opacity:1;fill-rule:nonzero;stroke:none"
         transform="matrix(1,0,0,-1,31.76125,256.32473)"><tspan
           id="tspan228"
           y="0"
           x="0 10.176 20.351999 25.440001 35.616001">38.10</tspan></text>
</g><g
       id="g232"><g
         clip-path="url(#clipPath238)"
         id="g234"><path
           id="path240"
           style="fill:none;stroke:#b0b0b0;stroke-width:0.80000001;stroke-linecap:square;stroke-linejoin:round;stroke-miterlimit:10;stroke-dasharray:none;stroke-opacity:1"
           d="M 84.605,312.00857 H 550.54877" /></g></g><g
       id="g242"><path
         id="path244"
         style="fill:#000000;fill-opacity:1;fill-rule:nonzero;stroke:#000000;stroke-width:0.80000001;stroke-linecap:butt;stroke-linejoin:round;stroke-miterlimit:10;stroke-dasharray:none;stroke-opacity:1"
         d="m 84.605,312.00857 h -3.5" /><text
         id="text248"
         style="font-variant:normal;font-weight:normal;font-size:16px;font-family:'DejaVu Sans';-inkscape-font-specification:DejaVuSans;writing-mode:lr-tb;fill:#000000;fill-opacity:1;fill-rule:nonzero;stroke:none"
         transform="matrix(1,0,0,-1,31.76125,305.93045)"><tspan
           id="tspan246"
           y="0"
           x="0 10.176 20.351999 25.440001 35.616001">38.15</tspan></text>
</g><g
       id="g250"><g
         clip-path="url(#clipPath256)"
         id="g252"><path
           id="path258"
           style="fill:none;stroke:#b0b0b0;stroke-width:0.80000001;stroke-linecap:square;stroke-linejoin:round;stroke-miterlimit:10;stroke-dasharray:none;stroke-opacity:1"
           d="M 84.605,361.61429 H 550.54877" /></g></g><g
       id="g260"><path
         id="path262"
         style="fill:#000000;fill-opacity:1;fill-rule:nonzero;stroke:#000000;stroke-width:0.80000001;stroke-linecap:butt;stroke-linejoin:round;stroke-miterlimit:10;stroke-dasharray:none;stroke-opacity:1"
         d="m 84.605,361.61429 h -3.5" /><text
         id="text266"
         style="font-variant:normal;font-weight:normal;font-size:16px;font-family:'DejaVu Sans';-inkscape-font-specification:DejaVuSans;writing-mode:lr-tb;fill:#000000;fill-opacity:1;fill-rule:nonzero;stroke:none"
         transform="matrix(1,0,0,-1,31.76125,355.53616)"><tspan
           id="tspan264"
           y="0"
           x="0 10.176 20.351999 25.440001 35.616001">38.20</tspan></text>
</g><g
       id="g268"><g
         clip-path="url(#clipPath274)"
         id="g270"><path
           id="path276"
           style="fill:none;stroke:#b0b0b0;stroke-width:0.80000001;stroke-linecap:square;stroke-linejoin:round;stroke-miterlimit:10;stroke-dasharray:none;stroke-opacity:1"
           d="M 84.605,411.22 H 550.54877" /></g></g><g
       id="g278"><path
         id="path280"
         style="fill:#000000;fill-opacity:1;fill-rule:nonzero;stroke:#000000;stroke-width:0.80000001;stroke-linecap:butt;stroke-linejoin:round;stroke-miterlimit:10;stroke-dasharray:none;stroke-opacity:1"
         d="m 84.605,411.22 h -3.5" /><text
         id="text284"
         style="font-variant:normal;font-weight:normal;font-size:16px;font-family:'DejaVu Sans';-inkscape-font-specification:DejaVuSans;writing-mode:lr-tb;fill:#000000;fill-opacity:1;fill-rule:nonzero;stroke:none"
         transform="matrix(1,0,0,-1,31.76125,405.14188)"><tspan
           id="tspan282"
           y="0"
           x="0 10.176 20.351999 25.440001 35.616001">38.25</tspan></text>
<g
         transform="rotate(90,-74.083438,98.516562)"
         id="g286"><text
           id="text290"
           style="font-variant:normal;font-weight:normal;font-size:16px;font-family:'DejaVu Sans';-inkscape-font-specification:DejaVuSans;writing-mode:lr-tb;fill:#000000;fill-opacity:1;fill-rule:nonzero;stroke:none"
           transform="matrix(1,0,0,-1,0,0.7046875)"><tspan
             id="tspan288"
             y="0"
             x="0 10.179688 24.21875 29.304688 34.390625 49.976562 55.367188 64.570312 69.65625 75.898438 85.367188 95.546875">1/, m/F (x10</tspan></text>
<text
           id="text294"
           style="font-variant:normal;font-weight:normal;font-size:11.19999981px;font-family:'DejaVu Sans';-inkscape-font-specification:DejaVuSans;writing-mode:lr-tb;fill:#000000;fill-opacity:1;fill-rule:nonzero;stroke:none"
           transform="matrix(1,0,0,-1,115.26406,6.8296875)"><tspan
             id="tspan292"
             y="0"
             x="0">5</tspan></text>
<text
           id="text298"
           style="font-variant:normal;font-weight:normal;font-size:16px;font-family:'DejaVu Sans';-inkscape-font-specification:DejaVuSans;writing-mode:lr-tb;fill:#000000;fill-opacity:1;fill-rule:nonzero;stroke:none"
           transform="matrix(1,0,0,-1,122.82734,0.7046875)"><tspan
             id="tspan296"
             y="0"
             x="0">)</tspan></text>
<g
           transform="matrix(0.016,0,0,0.016,15.570313,0.7046875)"
           id="g300"><g
             id="g302"><g
               clip-path="url(#clipPath308)"
               id="g304"><path
                 id="path310"
                 style="fill:#000000;fill-opacity:1;fill-rule:nonzero;stroke:none"
                 d="m 197,295 c -35,8 -60,22 -75,43 -12,15 -18,33 -18,53 0,55 26,99 80,131 41,26 94,39 158,39 24,0 50,-2 77,-6 27,-4 56,-10 86,-18 l -15,-81 c -30,9 -58,16 -83,20 -26,4 -50,6 -73,6 -39,0 -71,-8 -96,-22 -31,-18 -46,-40 -46,-66 0,-18 8,-32 24,-44 18,-14 47,-21 85,-21 h 75 l -14,-75 h -72 c -45,0 -81,-9 -107,-25 -36,-22 -54,-51 -54,-86 0,-22 9,-41 29,-55 24,-18 60,-27 110,-27 30,0 59,2 89,8 28,6 55,16 81,28 L 422,13 C 390,4 361,-2 333,-6 305,-10 277,-13 251,-13 173,-13 117,1 81,30 53,52 39,83 39,122 c 0,52 18,94 55,126 26,23 61,39 103,47" /></g></g></g><g
           transform="matrix(0.0112,0,0,0.0112,105.87969,6.8296875)"
           id="g312"><g
             id="g314"><g
               clip-path="url(#clipPath320)"
               id="g316"><path
                 id="path322"
                 style="fill:#000000;fill-opacity:1;fill-rule:nonzero;stroke:none"
                 d="M 106,355 H 732 V 272 H 106 v 83" /></g></g></g></g></g><g
       id="g324"><g
         clip-path="url(#clipPath330)"
         id="g326"><path
           id="path332"
           style="fill:none;stroke:#1f77b4;stroke-width:1.5;stroke-linecap:square;stroke-linejoin:round;stroke-miterlimit:10;stroke-dasharray:none;stroke-opacity:1"
           d="m 577,380.75076 -4.66582,-1.36295 -9.86591,-2.95043 -3.61315,-1.04483 -16.59635,-5.1004 -3.63178,-1.16737 -4.57292,-1.47447 -32.44196,-10.80927 -6.70823,-2.4558 -7.7557,-2.82377 -28.19105,-10.6774 -5.06222,-2.08569 -3.0814,-1.22677 -29.6508,-12.50848 -27.58867,-12.74525 -12.3124,-6.12447 -19.8614,-10.22345 -26.42059,-14.74387 -27.46831,-16.80987 -20.74627,-13.68138 -17.15178,-12.20714 -9.36355,-6.95454 -12.21358,-9.39067 -15.10902,-12.06686 -21.90372,-18.81621 -12.14074,-11.07391 -7.68435,-7.35873 -9.02686,-8.57143 -15.74569,-15.30944 -21.14024,-19.96863 -3.29229,-1.81979 -0.3913,-0.90983 -0.67207,-0.90979 -2.62541,-2.54717 -4.52727,-3.94137 -8.11958,-6.54692 -6.19277,-4.42394 -1.82376,-1.15126 -3.66354,-2.24174 -6.92714,-3.39239 -1.98867,-0.78743 -2.39475,-0.847972 -2.21747,-0.666233 -1.046152,-0.242261 -0.918013,-0.242258 -0.564312,-0.06056 -2.255769,-0.423942 -0.771518,-0.06056 -0.37315,-0.06056 -1.230038,-0.06056 -0.143841,-0.06056 -2.94847,0.06056 -0.134146,0.06056 -0.888471,0.06056 -0.113696,0.06056 -0.526998,0.06056 -0.110979,0.06056 -0.301671,0.06056 -0.111754,0.06056 -0.216389,0.06056 -0.111401,0.06056 -0.103539,0.06056 v 0 l -0.1124,0.121128 -0.07274,0.06056 -0.07855,0.121129 h -0.03182 l -0.121046,0.06056 -0.110991,0.12113 -0.09452,0.06057 v 0 l -0.07971,0.121131 h -0.02688 l -0.179168,0.06057 h 0.0045 l -0.08458,0.484536 h -0.02513 l -0.03521,-0.06057 0.03846,0.06057 h -0.03714" /></g></g><g
       id="g334"><path
         id="path336"
         style="fill:none;stroke:#000000;stroke-width:0.80000001;stroke-linecap:square;stroke-linejoin:miter;stroke-miterlimit:10;stroke-dasharray:none;stroke-opacity:1"
         d="M 84.605,63.98 V 411.22" /><path
         id="path338"
         style="fill:none;stroke:#000000;stroke-width:0.80000001;stroke-linecap:square;stroke-linejoin:miter;stroke-miterlimit:10;stroke-dasharray:none;stroke-opacity:1"
         d="M 550.54877,63.98 V 411.22" /><path
         id="path340"
         style="fill:none;stroke:#000000;stroke-width:0.80000001;stroke-linecap:square;stroke-linejoin:miter;stroke-miterlimit:10;stroke-dasharray:none;stroke-opacity:1"
         d="M 84.605,63.98 H 550.54877" /><path
         id="path342"
         style="fill:none;stroke:#000000;stroke-width:0.80000001;stroke-linecap:square;stroke-linejoin:miter;stroke-miterlimit:10;stroke-dasharray:none;stroke-opacity:1"
         d="M 84.605,411.22 H 550.54877" /></g></g></svg>