<?xml version="1.0" encoding="UTF-8" standalone="no"?>
<svg
   xmlns:dc="http://purl.org/dc/elements/1.1/"
   xmlns:cc="http://creativecommons.org/ns#"
   xmlns:rdf="http://www.w3.org/1999/02/22-rdf-syntax-ns#"
   xmlns:svg="http://www.w3.org/2000/svg"
   xmlns="http://www.w3.org/2000/svg"
   viewBox="0 0 1536 960"
   height="960"
   width="1536"
   xml:space="preserve"
   id="svg2"
   version="1.1"><metadata
     id="metadata8"><rdf:RDF><cc:Work
         rdf:about=""><dc:format>image/svg+xml</dc:format><dc:type
           rdf:resource="http://purl.org/dc/dcmitype/StillImage" /></cc:Work></rdf:RDF></metadata><defs
     id="defs6"><clipPath
       id="clipPath22"
       clipPathUnits="userSpaceOnUse"><path
         id="path20"
         d="m 144,90 h 892.8 V 633.6 H 144 Z" /></clipPath><clipPath
       id="clipPath40"
       clipPathUnits="userSpaceOnUse"><path
         id="path38"
         d="m 144,90 h 892.8 V 633.6 H 144 Z" /></clipPath><clipPath
       id="clipPath58"
       clipPathUnits="userSpaceOnUse"><path
         id="path56"
         d="m 144,90 h 892.8 V 633.6 H 144 Z" /></clipPath><clipPath
       id="clipPath76"
       clipPathUnits="userSpaceOnUse"><path
         id="path74"
         d="m 144,90 h 892.8 V 633.6 H 144 Z" /></clipPath><clipPath
       id="clipPath94"
       clipPathUnits="userSpaceOnUse"><path
         id="path92"
         d="m 144,90 h 892.8 V 633.6 H 144 Z" /></clipPath><clipPath
       id="clipPath112"
       clipPathUnits="userSpaceOnUse"><path
         id="path110"
         d="m 144,90 h 892.8 V 633.6 H 144 Z" /></clipPath><clipPath
       id="clipPath134"
       clipPathUnits="userSpaceOnUse"><path
         id="path132"
         d="m 144,90 h 892.8 V 633.6 H 144 Z" /></clipPath><clipPath
       id="clipPath152"
       clipPathUnits="userSpaceOnUse"><path
         id="path150"
         d="m 144,90 h 892.8 V 633.6 H 144 Z" /></clipPath><clipPath
       id="clipPath170"
       clipPathUnits="userSpaceOnUse"><path
         id="path168"
         d="m 144,90 h 892.8 V 633.6 H 144 Z" /></clipPath><clipPath
       id="clipPath188"
       clipPathUnits="userSpaceOnUse"><path
         id="path186"
         d="m 144,90 h 892.8 V 633.6 H 144 Z" /></clipPath><clipPath
       id="clipPath206"
       clipPathUnits="userSpaceOnUse"><path
         id="path204"
         d="m 144,90 h 892.8 V 633.6 H 144 Z" /></clipPath><clipPath
       id="clipPath224"
       clipPathUnits="userSpaceOnUse"><path
         id="path222"
         d="m 144,90 h 892.8 V 633.6 H 144 Z" /></clipPath><clipPath
       id="clipPath242"
       clipPathUnits="userSpaceOnUse"><path
         id="path240"
         d="m 144,90 h 892.8 V 633.6 H 144 Z" /></clipPath><clipPath
       id="clipPath260"
       clipPathUnits="userSpaceOnUse"><path
         id="path258"
         d="m 144,90 h 892.8 V 633.6 H 144 Z" /></clipPath><clipPath
       id="clipPath278"
       clipPathUnits="userSpaceOnUse"><path
         id="path276"
         d="m 144,90 h 892.8 V 633.6 H 144 Z" /></clipPath><clipPath
       id="clipPath304"
       clipPathUnits="userSpaceOnUse"><path
         id="path302"
         d="M -1021,-463 H 1794 V 1233 H -1021 Z" /></clipPath><clipPath
       id="clipPath314"
       clipPathUnits="userSpaceOnUse"><path
         id="path312"
         d="m 144,90 h 892.8 V 633.6 H 144 Z" /></clipPath><clipPath
       id="clipPath324"
       clipPathUnits="userSpaceOnUse"><path
         id="path322"
         d="m 144,90 h 892.8 V 633.6 H 144 Z" /></clipPath><clipPath
       id="clipPath334"
       clipPathUnits="userSpaceOnUse"><path
         id="path332"
         d="m 144,90 h 892.8 V 633.6 H 144 Z" /></clipPath><clipPath
       id="clipPath344"
       clipPathUnits="userSpaceOnUse"><path
         id="path342"
         d="m 144,90 h 892.8 V 633.6 H 144 Z" /></clipPath><clipPath
       id="clipPath354"
       clipPathUnits="userSpaceOnUse"><path
         id="path352"
         d="m 144,90 h 892.8 V 633.6 H 144 Z" /></clipPath><clipPath
       id="clipPath364"
       clipPathUnits="userSpaceOnUse"><path
         id="path362"
         d="m 144,90 h 892.8 V 633.6 H 144 Z" /></clipPath><clipPath
       id="clipPath374"
       clipPathUnits="userSpaceOnUse"><path
         id="path372"
         d="m 144,90 h 892.8 V 633.6 H 144 Z" /></clipPath><clipPath
       id="clipPath384"
       clipPathUnits="userSpaceOnUse"><path
         id="path382"
         d="m 144,90 h 892.8 V 633.6 H 144 Z" /></clipPath><clipPath
       id="clipPath394"
       clipPathUnits="userSpaceOnUse"><path
         id="path392"
         d="m 144,90 h 892.8 V 633.6 H 144 Z" /></clipPath></defs><g
     transform="matrix(1.3333333,0,0,-1.3333333,0,959.99998)"
     id="g10"><path
       id="path12"
       style="fill:#ffffff;fill-opacity:1;fill-rule:nonzero;stroke:none"
       d="M 0,0 H 1152 V 720 H 0 Z" /><path
       id="path14"
       style="fill:#ffffff;fill-opacity:1;fill-rule:nonzero;stroke:none"
       d="m 144,90 h 892.8 V 633.6 H 144 Z" /><g
       id="g16"><g
         clip-path="url(#clipPath22)"
         id="g18"><path
           id="path24"
           style="fill:none;stroke:#b0b0b0;stroke-width:0.80000001;stroke-linecap:square;stroke-linejoin:round;stroke-miterlimit:10;stroke-dasharray:none;stroke-opacity:1"
           d="M 144,90 V 633.6" /></g></g><g
       id="g26"><path
         id="path28"
         style="fill:#000000;fill-opacity:1;fill-rule:nonzero;stroke:#000000;stroke-width:0.80000001;stroke-linecap:butt;stroke-linejoin:round;stroke-miterlimit:10;stroke-dasharray:none;stroke-opacity:1"
         d="M 144,90 V 86.5" /><text
         id="text32"
         style="font-variant:normal;font-weight:normal;font-size:16px;font-family:'DejaVu Sans';-inkscape-font-specification:DejaVuSans;writing-mode:lr-tb;fill:#000000;fill-opacity:1;fill-rule:nonzero;stroke:none"
         transform="matrix(1,0,0,-1,131.26562,70.84375)"><tspan
           id="tspan30"
           y="0"
           x="0 10.176 15.264">0.0</tspan></text>
</g><g
       id="g34"><g
         clip-path="url(#clipPath40)"
         id="g36"><path
           id="path42"
           style="fill:none;stroke:#b0b0b0;stroke-width:0.80000001;stroke-linecap:square;stroke-linejoin:round;stroke-miterlimit:10;stroke-dasharray:none;stroke-opacity:1"
           d="M 306.32727,90 V 633.6" /></g></g><g
       id="g44"><path
         id="path46"
         style="fill:#000000;fill-opacity:1;fill-rule:nonzero;stroke:#000000;stroke-width:0.80000001;stroke-linecap:butt;stroke-linejoin:round;stroke-miterlimit:10;stroke-dasharray:none;stroke-opacity:1"
         d="M 306.32727,90 V 86.5" /><text
         id="text50"
         style="font-variant:normal;font-weight:normal;font-size:16px;font-family:'DejaVu Sans';-inkscape-font-specification:DejaVuSans;writing-mode:lr-tb;fill:#000000;fill-opacity:1;fill-rule:nonzero;stroke:none"
         transform="matrix(1,0,0,-1,293.5929,70.84375)"><tspan
           id="tspan48"
           y="0"
           x="0 10.176 15.264">0.2</tspan></text>
</g><g
       id="g52"><g
         clip-path="url(#clipPath58)"
         id="g54"><path
           id="path60"
           style="fill:none;stroke:#b0b0b0;stroke-width:0.80000001;stroke-linecap:square;stroke-linejoin:round;stroke-miterlimit:10;stroke-dasharray:none;stroke-opacity:1"
           d="M 468.65455,90 V 633.6" /></g></g><g
       id="g62"><path
         id="path64"
         style="fill:#000000;fill-opacity:1;fill-rule:nonzero;stroke:#000000;stroke-width:0.80000001;stroke-linecap:butt;stroke-linejoin:round;stroke-miterlimit:10;stroke-dasharray:none;stroke-opacity:1"
         d="M 468.65455,90 V 86.5" /><text
         id="text68"
         style="font-variant:normal;font-weight:normal;font-size:16px;font-family:'DejaVu Sans';-inkscape-font-specification:DejaVuSans;writing-mode:lr-tb;fill:#000000;fill-opacity:1;fill-rule:nonzero;stroke:none"
         transform="matrix(1,0,0,-1,455.92017,70.84375)"><tspan
           id="tspan66"
           y="0"
           x="0 10.176 15.264">0.4</tspan></text>
</g><g
       id="g70"><g
         clip-path="url(#clipPath76)"
         id="g72"><path
           id="path78"
           style="fill:none;stroke:#b0b0b0;stroke-width:0.80000001;stroke-linecap:square;stroke-linejoin:round;stroke-miterlimit:10;stroke-dasharray:none;stroke-opacity:1"
           d="M 630.98182,90 V 633.6" /></g></g><g
       id="g80"><path
         id="path82"
         style="fill:#000000;fill-opacity:1;fill-rule:nonzero;stroke:#000000;stroke-width:0.80000001;stroke-linecap:butt;stroke-linejoin:round;stroke-miterlimit:10;stroke-dasharray:none;stroke-opacity:1"
         d="M 630.98182,90 V 86.5" /><text
         id="text86"
         style="font-variant:normal;font-weight:normal;font-size:16px;font-family:'DejaVu Sans';-inkscape-font-specification:DejaVuSans;writing-mode:lr-tb;fill:#000000;fill-opacity:1;fill-rule:nonzero;stroke:none"
         transform="matrix(1,0,0,-1,618.24744,70.84375)"><tspan
           id="tspan84"
           y="0"
           x="0 10.176 15.264">0.6</tspan></text>
</g><g
       id="g88"><g
         clip-path="url(#clipPath94)"
         id="g90"><path
           id="path96"
           style="fill:none;stroke:#b0b0b0;stroke-width:0.80000001;stroke-linecap:square;stroke-linejoin:round;stroke-miterlimit:10;stroke-dasharray:none;stroke-opacity:1"
           d="M 793.30909,90 V 633.6" /></g></g><g
       id="g98"><path
         id="path100"
         style="fill:#000000;fill-opacity:1;fill-rule:nonzero;stroke:#000000;stroke-width:0.80000001;stroke-linecap:butt;stroke-linejoin:round;stroke-miterlimit:10;stroke-dasharray:none;stroke-opacity:1"
         d="M 793.30909,90 V 86.5" /><text
         id="text104"
         style="font-variant:normal;font-weight:normal;font-size:16px;font-family:'DejaVu Sans';-inkscape-font-specification:DejaVuSans;writing-mode:lr-tb;fill:#000000;fill-opacity:1;fill-rule:nonzero;stroke:none"
         transform="matrix(1,0,0,-1,780.57472,70.84375)"><tspan
           id="tspan102"
           y="0"
           x="0 10.176 15.264">0.8</tspan></text>
</g><g
       id="g106"><g
         clip-path="url(#clipPath112)"
         id="g108"><path
           id="path114"
           style="fill:none;stroke:#b0b0b0;stroke-width:0.80000001;stroke-linecap:square;stroke-linejoin:round;stroke-miterlimit:10;stroke-dasharray:none;stroke-opacity:1"
           d="M 955.63636,90 V 633.6" /></g></g><g
       id="g116"><path
         id="path118"
         style="fill:#000000;fill-opacity:1;fill-rule:nonzero;stroke:#000000;stroke-width:0.80000001;stroke-linecap:butt;stroke-linejoin:round;stroke-miterlimit:10;stroke-dasharray:none;stroke-opacity:1"
         d="M 955.63636,90 V 86.5" /><text
         id="text122"
         style="font-variant:normal;font-weight:normal;font-size:16px;font-family:'DejaVu Sans';-inkscape-font-specification:DejaVuSans;writing-mode:lr-tb;fill:#000000;fill-opacity:1;fill-rule:nonzero;stroke:none"
         transform="matrix(1,0,0,-1,942.90199,70.84375)"><tspan
           id="tspan120"
           y="0"
           x="0 10.176 15.264">1.0</tspan></text>
<text
         id="text126"
         style="font-variant:normal;font-weight:normal;font-size:22px;font-family:'DejaVu Sans';-inkscape-font-specification:DejaVuSans;writing-mode:lr-tb;fill:#000000;fill-opacity:1;fill-rule:nonzero;stroke:none"
         transform="matrix(1,0,0,-1,504.42344,46.796875)"><tspan
           id="tspan124"
           y="0"
           x="0 13.442 26.972 48.400002 62.369999 75.900002 84.942001 98.428001 107.052 121 130.04201 143.57201 150.56799 157.564">Temperature, K</tspan></text>
</g><g
       id="g128"><g
         clip-path="url(#clipPath134)"
         id="g130"><path
           id="path136"
           style="fill:none;stroke:#b0b0b0;stroke-width:0.80000001;stroke-linecap:square;stroke-linejoin:round;stroke-miterlimit:10;stroke-dasharray:none;stroke-opacity:1"
           d="m 144,90 h 892.8" /></g></g><g
       id="g138"><path
         id="path140"
         style="fill:#000000;fill-opacity:1;fill-rule:nonzero;stroke:#000000;stroke-width:0.80000001;stroke-linecap:butt;stroke-linejoin:round;stroke-miterlimit:10;stroke-dasharray:none;stroke-opacity:1"
         d="m 144,90 h -3.5" /><text
         id="text144"
         style="font-variant:normal;font-weight:normal;font-size:16px;font-family:'DejaVu Sans';-inkscape-font-specification:DejaVuSans;writing-mode:lr-tb;fill:#000000;fill-opacity:1;fill-rule:nonzero;stroke:none"
         transform="matrix(1,0,0,-1,91.15625,83.921875)"><tspan
           id="tspan142"
           y="0"
           x="0 10.176 15.264 25.440001 35.616001">0.000</tspan></text>
</g><g
       id="g146"><g
         clip-path="url(#clipPath152)"
         id="g148"><path
           id="path154"
           style="fill:none;stroke:#b0b0b0;stroke-width:0.80000001;stroke-linecap:square;stroke-linejoin:round;stroke-miterlimit:10;stroke-dasharray:none;stroke-opacity:1"
           d="m 144,154.71429 h 892.8" /></g></g><g
       id="g156"><path
         id="path158"
         style="fill:#000000;fill-opacity:1;fill-rule:nonzero;stroke:#000000;stroke-width:0.80000001;stroke-linecap:butt;stroke-linejoin:round;stroke-miterlimit:10;stroke-dasharray:none;stroke-opacity:1"
         d="m 144,154.71429 h -3.5" /><text
         id="text162"
         style="font-variant:normal;font-weight:normal;font-size:16px;font-family:'DejaVu Sans';-inkscape-font-specification:DejaVuSans;writing-mode:lr-tb;fill:#000000;fill-opacity:1;fill-rule:nonzero;stroke:none"
         transform="matrix(1,0,0,-1,91.15625,148.63616)"><tspan
           id="tspan160"
           y="0"
           x="0 10.176 15.264 25.440001 35.616001">0.025</tspan></text>
</g><g
       id="g164"><g
         clip-path="url(#clipPath170)"
         id="g166"><path
           id="path172"
           style="fill:none;stroke:#b0b0b0;stroke-width:0.80000001;stroke-linecap:square;stroke-linejoin:round;stroke-miterlimit:10;stroke-dasharray:none;stroke-opacity:1"
           d="m 144,219.42857 h 892.8" /></g></g><g
       id="g174"><path
         id="path176"
         style="fill:#000000;fill-opacity:1;fill-rule:nonzero;stroke:#000000;stroke-width:0.80000001;stroke-linecap:butt;stroke-linejoin:round;stroke-miterlimit:10;stroke-dasharray:none;stroke-opacity:1"
         d="m 144,219.42857 h -3.5" /><text
         id="text180"
         style="font-variant:normal;font-weight:normal;font-size:16px;font-family:'DejaVu Sans';-inkscape-font-specification:DejaVuSans;writing-mode:lr-tb;fill:#000000;fill-opacity:1;fill-rule:nonzero;stroke:none"
         transform="matrix(1,0,0,-1,91.15625,213.35045)"><tspan
           id="tspan178"
           y="0"
           x="0 10.176 15.264 25.440001 35.616001">0.050</tspan></text>
</g><g
       id="g182"><g
         clip-path="url(#clipPath188)"
         id="g184"><path
           id="path190"
           style="fill:none;stroke:#b0b0b0;stroke-width:0.80000001;stroke-linecap:square;stroke-linejoin:round;stroke-miterlimit:10;stroke-dasharray:none;stroke-opacity:1"
           d="m 144,284.14286 h 892.8" /></g></g><g
       id="g192"><path
         id="path194"
         style="fill:#000000;fill-opacity:1;fill-rule:nonzero;stroke:#000000;stroke-width:0.80000001;stroke-linecap:butt;stroke-linejoin:round;stroke-miterlimit:10;stroke-dasharray:none;stroke-opacity:1"
         d="m 144,284.14286 h -3.5" /><text
         id="text198"
         style="font-variant:normal;font-weight:normal;font-size:16px;font-family:'DejaVu Sans';-inkscape-font-specification:DejaVuSans;writing-mode:lr-tb;fill:#000000;fill-opacity:1;fill-rule:nonzero;stroke:none"
         transform="matrix(1,0,0,-1,91.15625,278.06473)"><tspan
           id="tspan196"
           y="0"
           x="0 10.176 15.264 25.440001 35.616001">0.075</tspan></text>
</g><g
       id="g200"><g
         clip-path="url(#clipPath206)"
         id="g202"><path
           id="path208"
           style="fill:none;stroke:#b0b0b0;stroke-width:0.80000001;stroke-linecap:square;stroke-linejoin:round;stroke-miterlimit:10;stroke-dasharray:none;stroke-opacity:1"
           d="m 144,348.85714 h 892.8" /></g></g><g
       id="g210"><path
         id="path212"
         style="fill:#000000;fill-opacity:1;fill-rule:nonzero;stroke:#000000;stroke-width:0.80000001;stroke-linecap:butt;stroke-linejoin:round;stroke-miterlimit:10;stroke-dasharray:none;stroke-opacity:1"
         d="m 144,348.85714 h -3.5" /><text
         id="text216"
         style="font-variant:normal;font-weight:normal;font-size:16px;font-family:'DejaVu Sans';-inkscape-font-specification:DejaVuSans;writing-mode:lr-tb;fill:#000000;fill-opacity:1;fill-rule:nonzero;stroke:none"
         transform="matrix(1,0,0,-1,91.15625,342.77902)"><tspan
           id="tspan214"
           y="0"
           x="0 10.176 15.264 25.440001 35.616001">0.100</tspan></text>
</g><g
       id="g218"><g
         clip-path="url(#clipPath224)"
         id="g220"><path
           id="path226"
           style="fill:none;stroke:#b0b0b0;stroke-width:0.80000001;stroke-linecap:square;stroke-linejoin:round;stroke-miterlimit:10;stroke-dasharray:none;stroke-opacity:1"
           d="m 144,413.57143 h 892.8" /></g></g><g
       id="g228"><path
         id="path230"
         style="fill:#000000;fill-opacity:1;fill-rule:nonzero;stroke:#000000;stroke-width:0.80000001;stroke-linecap:butt;stroke-linejoin:round;stroke-miterlimit:10;stroke-dasharray:none;stroke-opacity:1"
         d="m 144,413.57143 h -3.5" /><text
         id="text234"
         style="font-variant:normal;font-weight:normal;font-size:16px;font-family:'DejaVu Sans';-inkscape-font-specification:DejaVuSans;writing-mode:lr-tb;fill:#000000;fill-opacity:1;fill-rule:nonzero;stroke:none"
         transform="matrix(1,0,0,-1,91.15625,407.4933)"><tspan
           id="tspan232"
           y="0"
           x="0 10.176 15.264 25.440001 35.616001">0.125</tspan></text>
</g><g
       id="g236"><g
         clip-path="url(#clipPath242)"
         id="g238"><path
           id="path244"
           style="fill:none;stroke:#b0b0b0;stroke-width:0.80000001;stroke-linecap:square;stroke-linejoin:round;stroke-miterlimit:10;stroke-dasharray:none;stroke-opacity:1"
           d="m 144,478.28571 h 892.8" /></g></g><g
       id="g246"><path
         id="path248"
         style="fill:#000000;fill-opacity:1;fill-rule:nonzero;stroke:#000000;stroke-width:0.80000001;stroke-linecap:butt;stroke-linejoin:round;stroke-miterlimit:10;stroke-dasharray:none;stroke-opacity:1"
         d="m 144,478.28571 h -3.5" /><text
         id="text252"
         style="font-variant:normal;font-weight:normal;font-size:16px;font-family:'DejaVu Sans';-inkscape-font-specification:DejaVuSans;writing-mode:lr-tb;fill:#000000;fill-opacity:1;fill-rule:nonzero;stroke:none"
         transform="matrix(1,0,0,-1,91.15625,472.20759)"><tspan
           id="tspan250"
           y="0"
           x="0 10.176 15.264 25.440001 35.616001">0.150</tspan></text>
</g><g
       id="g254"><g
         clip-path="url(#clipPath260)"
         id="g256"><path
           id="path262"
           style="fill:none;stroke:#b0b0b0;stroke-width:0.80000001;stroke-linecap:square;stroke-linejoin:round;stroke-miterlimit:10;stroke-dasharray:none;stroke-opacity:1"
           d="m 144,543 h 892.8" /></g></g><g
       id="g264"><path
         id="path266"
         style="fill:#000000;fill-opacity:1;fill-rule:nonzero;stroke:#000000;stroke-width:0.80000001;stroke-linecap:butt;stroke-linejoin:round;stroke-miterlimit:10;stroke-dasharray:none;stroke-opacity:1"
         d="m 144,543 h -3.5" /><text
         id="text270"
         style="font-variant:normal;font-weight:normal;font-size:16px;font-family:'DejaVu Sans';-inkscape-font-specification:DejaVuSans;writing-mode:lr-tb;fill:#000000;fill-opacity:1;fill-rule:nonzero;stroke:none"
         transform="matrix(1,0,0,-1,91.15625,536.92187)"><tspan
           id="tspan268"
           y="0"
           x="0 10.176 15.264 25.440001 35.616001">0.175</tspan></text>
</g><g
       id="g272"><g
         clip-path="url(#clipPath278)"
         id="g274"><path
           id="path280"
           style="fill:none;stroke:#b0b0b0;stroke-width:0.80000001;stroke-linecap:square;stroke-linejoin:round;stroke-miterlimit:10;stroke-dasharray:none;stroke-opacity:1"
           d="m 144,607.71429 h 892.8" /></g></g><g
       id="g282"><path
         id="path284"
         style="fill:#000000;fill-opacity:1;fill-rule:nonzero;stroke:#000000;stroke-width:0.80000001;stroke-linecap:butt;stroke-linejoin:round;stroke-miterlimit:10;stroke-dasharray:none;stroke-opacity:1"
         d="m 144,607.71429 h -3.5" /><text
         id="text288"
         style="font-variant:normal;font-weight:normal;font-size:16px;font-family:'DejaVu Sans';-inkscape-font-specification:DejaVuSans;writing-mode:lr-tb;fill:#000000;fill-opacity:1;fill-rule:nonzero;stroke:none"
         transform="matrix(1,0,0,-1,91.15625,601.63616)"><tspan
           id="tspan286"
           y="0"
           x="0 10.176 15.264 25.440001 35.616001">0.200</tspan></text>
<g
         transform="rotate(90,-54.821875,136.97812)"
         id="g290"><text
           id="text294"
           style="font-variant:normal;font-weight:normal;font-size:22px;font-family:'DejaVu Sans';-inkscape-font-specification:DejaVuSans;writing-mode:lr-tb;fill:#000000;fill-opacity:1;fill-rule:nonzero;stroke:none"
           transform="matrix(1,0,0,-1,0,0.28125)"><tspan
             id="tspan292"
             y="0"
             x="0 13.438477 27.381836 40.916992 49.961914 71.392578 84.874023 90.986328 97.979492 113.34082 126.80078 140.74414 154.70898 168.65234 180.74805 189.37402 195.48633 208.50586 214.61816 223.24414 236.26367 243.25684 250.25 272.00293 279.41504 287.99805 316.42188 330.84863">Thermal Conductivity, W/(mK)</tspan></text>
<g
           transform="matrix(0.022,0,0,0.022,309.42871,0.28125)"
           id="g296"><g
             id="g298"><g
               clip-path="url(#clipPath304)"
               id="g300"><path
                 id="path306"
                 style="fill:#000000;fill-opacity:1;fill-rule:nonzero;stroke:none"
                 d="M 107,409 H 210 V 285 H 107 v 124" /></g></g></g></g></g><g
       id="g308"><g
         clip-path="url(#clipPath314)"
         id="g310"><path
           id="path316"
           style="fill:none;stroke:#440154;stroke-width:1.5;stroke-linecap:square;stroke-linejoin:round;stroke-miterlimit:10;stroke-dasharray:none;stroke-opacity:1"
           d="m 293.87817,135.38723 29.7888,6.07712 33.2881,9.72094 38.98328,20.4429 41.22451,27.38295 45.78422,26.27326 17.60817,13.58818 9.59956,5.68394 9.58336,7.61565 38.98821,34.82661 85.20777,53.66379 79.98133,49.1491 28.07925,23.57103 76.52264,52.73079 77.9327,59.89765 75.73575,78.01627" /></g></g><g
       id="g318"><g
         clip-path="url(#clipPath324)"
         id="g320"><path
           id="path326"
           style="fill:none;stroke:#482475;stroke-width:1.5;stroke-linecap:square;stroke-linejoin:round;stroke-miterlimit:10;stroke-dasharray:none;stroke-opacity:1"
           d="m 293.87817,132.66307 29.7888,10.93893 33.2881,12.48482 38.98328,21.7788 41.22451,23.99932 45.78422,27.00786 17.60817,14.10795 9.59956,8.32933 9.58336,8.60255 38.98821,34.71361 85.20777,40.88253 79.98133,52.93516 28.07925,21.5039 76.52264,49.57602 77.9327,62.25926 75.73575,78.94361" /></g></g><g
       id="g328"><g
         clip-path="url(#clipPath334)"
         id="g330"><path
           id="path336"
           style="fill:none;stroke:#414487;stroke-width:1.5;stroke-linecap:square;stroke-linejoin:round;stroke-miterlimit:10;stroke-dasharray:none;stroke-opacity:1"
           d="m 293.87817,134.18272 29.7888,10.93714 33.2881,13.13582 38.98328,21.9672 41.22451,21.01766 45.78422,27.98137 17.60817,15.41714 9.59956,7.67383 9.58336,8.77867 38.98821,22.68114 85.20777,41.29953 79.98133,50.13643 28.07925,21.31306 76.52264,49.65198 77.9327,62.81923 75.73575,78.18784" /></g></g><g
       id="g338"><g
         clip-path="url(#clipPath344)"
         id="g340"><path
           id="path346"
           style="fill:none;stroke:#355f8d;stroke-width:1.5;stroke-linecap:square;stroke-linejoin:round;stroke-miterlimit:10;stroke-dasharray:none;stroke-opacity:1"
           d="m 293.87817,136.69161 29.7888,11.7099 33.2881,14.41758 38.98328,20.39256 41.22451,19.89928 45.78422,28.397 17.60817,14.6851 9.59956,6.65658 9.58336,5.49483 38.98821,21.03173 85.20777,39.73128 79.98133,46.72085 28.07925,21.48785 76.52264,48.10562 77.9327,62.0456 75.73575,73.1942" /></g></g><g
       id="g348"><g
         clip-path="url(#clipPath354)"
         id="g350"><path
           id="path356"
           style="fill:none;stroke:#2a788e;stroke-width:1.5;stroke-linecap:square;stroke-linejoin:round;stroke-miterlimit:10;stroke-dasharray:none;stroke-opacity:1"
           d="m 293.87817,139.38975 29.7888,13.2688 33.2881,16.11641 38.98328,18.8987 41.22451,19.11778 45.78422,27.5784 17.60817,11.69482 9.59956,5.60962 9.58336,4.56295 38.98821,17.07047 85.20777,42.72729 79.98133,40.95246 28.07925,22.73323 76.52264,47.46036 77.9327,60.14054 75.73575,74.09375" /></g></g><g
       id="g358"><g
         clip-path="url(#clipPath364)"
         id="g360"><path
           id="path366"
           style="fill:none;stroke:#21918c;stroke-width:1.5;stroke-linecap:square;stroke-linejoin:round;stroke-miterlimit:10;stroke-dasharray:none;stroke-opacity:1"
           d="m 293.87817,142.27636 29.7888,14.82261 33.2881,17.14322 38.98328,18.28087 41.22451,19.17636 45.78422,24.69399 17.60817,9.41397 9.59956,4.13259 9.58336,4.12484 38.98821,15.25957 85.20777,40.67137 79.98133,38.66558 28.07925,23.34553 76.52264,46.0836 77.9327,60.1142 75.73575,73.04748" /></g></g><g
       id="g368"><g
         clip-path="url(#clipPath374)"
         id="g370"><path
           id="path376"
           style="fill:none;stroke:#22a884;stroke-width:1.5;stroke-linecap:square;stroke-linejoin:round;stroke-miterlimit:10;stroke-dasharray:none;stroke-opacity:1"
           d="m 293.87817,144.24651 29.7888,15.99027 33.2881,18.30655 38.98328,18.917 41.22451,19.83431 45.78422,21.4822 17.60817,6.99713 9.59956,2.96034 9.58336,3.7978 38.98821,12.75136 85.20777,39.77895 79.98133,35.26185 28.07925,23.94225 76.52264,46.27572 77.9327,59.21907 75.73575,73.53198" /></g></g><g
       id="g378"><g
         clip-path="url(#clipPath384)"
         id="g380"><path
           id="path386"
           style="fill:none;stroke:#44bf70;stroke-width:1.5;stroke-linecap:square;stroke-linejoin:round;stroke-miterlimit:10;stroke-dasharray:none;stroke-opacity:1"
           d="m 293.87817,144.79192 29.7888,16.93574 33.2881,18.89471 38.98328,21.03141 41.22451,22.2107 45.78422,18.33026 17.60817,5.09925 9.59956,2.55493 9.58336,3.0039 38.98821,9.51902 85.20777,37.58531 79.98133,34.10911 28.07925,24.01816 76.52264,45.96727 77.9327,58.60574 75.73575,72.20062" /></g></g><g
       id="g388"><g
         clip-path="url(#clipPath394)"
         id="g390"><path
           id="path396"
           style="fill:none;stroke:#7ad151;stroke-width:1.5;stroke-linecap:square;stroke-linejoin:round;stroke-miterlimit:10;stroke-dasharray:none;stroke-opacity:1"
           d="m 293.87817,145.44744 29.7888,16.67797 33.2881,20.37453 38.98328,23.9833 41.22451,24.69128 45.78422,16.004 17.60817,4.5039 9.59956,1.7332 9.58336,3.95775 38.98821,10.28979 85.20777,30.41834 79.98133,31.64928 28.07925,23.94254 76.52264,47.26451 77.9327,58.16033 75.73575,69.15965" /></g></g><g
       id="g398"><path
         id="path400"
         style="fill:none;stroke:#000000;stroke-width:0.80000001;stroke-linecap:square;stroke-linejoin:miter;stroke-miterlimit:10;stroke-dasharray:none;stroke-opacity:1"
         d="M 144,90 V 633.6" /><path
         id="path402"
         style="fill:none;stroke:#000000;stroke-width:0.80000001;stroke-linecap:square;stroke-linejoin:miter;stroke-miterlimit:10;stroke-dasharray:none;stroke-opacity:1"
         d="M 1036.8,90 V 633.6" /><path
         id="path404"
         style="fill:none;stroke:#000000;stroke-width:0.80000001;stroke-linecap:square;stroke-linejoin:miter;stroke-miterlimit:10;stroke-dasharray:none;stroke-opacity:1"
         d="m 144,90 h 892.8" /><path
         id="path406"
         style="fill:none;stroke:#000000;stroke-width:0.80000001;stroke-linecap:square;stroke-linejoin:miter;stroke-miterlimit:10;stroke-dasharray:none;stroke-opacity:1"
         d="m 144,633.6 h 892.8" /><path
         id="path408"
         style="fill:#ffffff;fill-opacity:0.8;fill-rule:nonzero;stroke:#cccccc;stroke-width:1;stroke-linecap:butt;stroke-linejoin:miter;stroke-miterlimit:10;stroke-dasharray:none;stroke-opacity:0.8"
         d="m 152.4,465.375 h 64.82187 c 1.6,0 2.4,0.8 2.4,2.4 V 625.2 c 0,1.6 -0.8,2.4 -2.4,2.4 H 152.4 c -1.6,0 -2.4,-0.8 -2.4,-2.4 V 467.775 c 0,-1.6 0.8,-2.4 2.4,-2.4 z" /><path
         id="path410"
         style="fill:none;stroke:#440154;stroke-width:1.5;stroke-linecap:square;stroke-linejoin:round;stroke-miterlimit:10;stroke-dasharray:none;stroke-opacity:1"
         d="m 154.8,617.875 h 24" /><text
         id="text414"
         style="font-variant:normal;font-weight:normal;font-size:12px;font-family:'DejaVu Sans';-inkscape-font-specification:DejaVuSans;writing-mode:lr-tb;fill:#000000;fill-opacity:1;fill-rule:nonzero;stroke:none"
         transform="matrix(1,0,0,-1,188.4,613.675)"><tspan
           id="tspan412"
           y="0"
           x="0 7.632 11.448 19.08">0.0T</tspan></text>
<path
         id="path416"
         style="fill:none;stroke:#482475;stroke-width:1.5;stroke-linecap:square;stroke-linejoin:round;stroke-miterlimit:10;stroke-dasharray:none;stroke-opacity:1"
         d="m 154.8,600.25 h 24" /><text
         id="text420"
         style="font-variant:normal;font-weight:normal;font-size:12px;font-family:'DejaVu Sans';-inkscape-font-specification:DejaVuSans;writing-mode:lr-tb;fill:#000000;fill-opacity:1;fill-rule:nonzero;stroke:none"
         transform="matrix(1,0,0,-1,188.4,596.05)"><tspan
           id="tspan418"
           y="0"
           x="0 7.632 11.448 19.08">1.0T</tspan></text>
<path
         id="path422"
         style="fill:none;stroke:#414487;stroke-width:1.5;stroke-linecap:square;stroke-linejoin:round;stroke-miterlimit:10;stroke-dasharray:none;stroke-opacity:1"
         d="m 154.8,582.625 h 24" /><text
         id="text426"
         style="font-variant:normal;font-weight:normal;font-size:12px;font-family:'DejaVu Sans';-inkscape-font-specification:DejaVuSans;writing-mode:lr-tb;fill:#000000;fill-opacity:1;fill-rule:nonzero;stroke:none"
         transform="matrix(1,0,0,-1,188.4,578.425)"><tspan
           id="tspan424"
           y="0"
           x="0 7.632 11.448 19.08">2.0T</tspan></text>
<path
         id="path428"
         style="fill:none;stroke:#355f8d;stroke-width:1.5;stroke-linecap:square;stroke-linejoin:round;stroke-miterlimit:10;stroke-dasharray:none;stroke-opacity:1"
         d="m 154.8,565 h 24" /><text
         id="text432"
         style="font-variant:normal;font-weight:normal;font-size:12px;font-family:'DejaVu Sans';-inkscape-font-specification:DejaVuSans;writing-mode:lr-tb;fill:#000000;fill-opacity:1;fill-rule:nonzero;stroke:none"
         transform="matrix(1,0,0,-1,188.4,560.8)"><tspan
           id="tspan430"
           y="0"
           x="0 7.632 11.448 19.08">3.0T</tspan></text>
<path
         id="path434"
         style="fill:none;stroke:#2a788e;stroke-width:1.5;stroke-linecap:square;stroke-linejoin:round;stroke-miterlimit:10;stroke-dasharray:none;stroke-opacity:1"
         d="m 154.8,547.375 h 24" /><text
         id="text438"
         style="font-variant:normal;font-weight:normal;font-size:12px;font-family:'DejaVu Sans';-inkscape-font-specification:DejaVuSans;writing-mode:lr-tb;fill:#000000;fill-opacity:1;fill-rule:nonzero;stroke:none"
         transform="matrix(1,0,0,-1,188.4,543.175)"><tspan
           id="tspan436"
           y="0"
           x="0 7.632 11.448 19.08">4.0T</tspan></text>
<path
         id="path440"
         style="fill:none;stroke:#21918c;stroke-width:1.5;stroke-linecap:square;stroke-linejoin:round;stroke-miterlimit:10;stroke-dasharray:none;stroke-opacity:1"
         d="m 154.8,529.75 h 24" /><text
         id="text444"
         style="font-variant:normal;font-weight:normal;font-size:12px;font-family:'DejaVu Sans';-inkscape-font-specification:DejaVuSans;writing-mode:lr-tb;fill:#000000;fill-opacity:1;fill-rule:nonzero;stroke:none"
         transform="matrix(1,0,0,-1,188.4,525.55)"><tspan
           id="tspan442"
           y="0"
           x="0 7.632 11.448 19.08">5.0T</tspan></text>
<path
         id="path446"
         style="fill:none;stroke:#22a884;stroke-width:1.5;stroke-linecap:square;stroke-linejoin:round;stroke-miterlimit:10;stroke-dasharray:none;stroke-opacity:1"
         d="m 154.8,512.125 h 24" /><text
         id="text450"
         style="font-variant:normal;font-weight:normal;font-size:12px;font-family:'DejaVu Sans';-inkscape-font-specification:DejaVuSans;writing-mode:lr-tb;fill:#000000;fill-opacity:1;fill-rule:nonzero;stroke:none"
         transform="matrix(1,0,0,-1,188.4,507.925)"><tspan
           id="tspan448"
           y="0"
           x="0 7.632 11.448 19.08">6.0T</tspan></text>
<path
         id="path452"
         style="fill:none;stroke:#44bf70;stroke-width:1.5;stroke-linecap:square;stroke-linejoin:round;stroke-miterlimit:10;stroke-dasharray:none;stroke-opacity:1"
         d="m 154.8,494.5 h 24" /><text
         id="text456"
         style="font-variant:normal;font-weight:normal;font-size:12px;font-family:'DejaVu Sans';-inkscape-font-specification:DejaVuSans;writing-mode:lr-tb;fill:#000000;fill-opacity:1;fill-rule:nonzero;stroke:none"
         transform="matrix(1,0,0,-1,188.4,490.3)"><tspan
           id="tspan454"
           y="0"
           x="0 7.632 11.448 19.08">7.0T</tspan></text>
<path
         id="path458"
         style="fill:none;stroke:#7ad151;stroke-width:1.5;stroke-linecap:square;stroke-linejoin:round;stroke-miterlimit:10;stroke-dasharray:none;stroke-opacity:1"
         d="m 154.8,476.875 h 24" /><text
         id="text462"
         style="font-variant:normal;font-weight:normal;font-size:12px;font-family:'DejaVu Sans';-inkscape-font-specification:DejaVuSans;writing-mode:lr-tb;fill:#000000;fill-opacity:1;fill-rule:nonzero;stroke:none"
         transform="matrix(1,0,0,-1,188.4,472.675)"><tspan
           id="tspan460"
           y="0"
           x="0 7.632 11.448 19.08">8.0T</tspan></text>
</g></g></svg>