<?xml version="1.0" encoding="UTF-8" standalone="no"?>
<svg
   xmlns:dc="http://purl.org/dc/elements/1.1/"
   xmlns:cc="http://creativecommons.org/ns#"
   xmlns:rdf="http://www.w3.org/1999/02/22-rdf-syntax-ns#"
   xmlns:svg="http://www.w3.org/2000/svg"
   xmlns="http://www.w3.org/2000/svg"
   viewBox="0 0 1152.8333 864"
   height="864"
   width="1152.8333"
   xml:space="preserve"
   id="svg2"
   version="1.1"><metadata
     id="metadata8"><rdf:RDF><cc:Work
         rdf:about=""><dc:format>image/svg+xml</dc:format><dc:type
           rdf:resource="http://purl.org/dc/dcmitype/StillImage" /></cc:Work></rdf:RDF></metadata><defs
     id="defs6"><clipPath
       id="clipPath22"
       clipPathUnits="userSpaceOnUse"><path
         id="path20"
         d="M 108,81 H 777.6 V 570.24 H 108 Z" /></clipPath><clipPath
       id="clipPath44"
       clipPathUnits="userSpaceOnUse"><path
         id="path42"
         d="M -1021,-463 H 1794 V 1233 H -1021 Z" /></clipPath><clipPath
       id="clipPath54"
       clipPathUnits="userSpaceOnUse"><path
         id="path52"
         d="M 108,81 H 777.6 V 570.24 H 108 Z" /></clipPath><clipPath
       id="clipPath76"
       clipPathUnits="userSpaceOnUse"><path
         id="path74"
         d="M -1021,-463 H 1794 V 1233 H -1021 Z" /></clipPath><clipPath
       id="clipPath86"
       clipPathUnits="userSpaceOnUse"><path
         id="path84"
         d="M 108,81 H 777.6 V 570.24 H 108 Z" /></clipPath><clipPath
       id="clipPath108"
       clipPathUnits="userSpaceOnUse"><path
         id="path106"
         d="M -1021,-463 H 1794 V 1233 H -1021 Z" /></clipPath><clipPath
       id="clipPath118"
       clipPathUnits="userSpaceOnUse"><path
         id="path116"
         d="M 108,81 H 777.6 V 570.24 H 108 Z" /></clipPath><clipPath
       id="clipPath140"
       clipPathUnits="userSpaceOnUse"><path
         id="path138"
         d="M -1021,-463 H 1794 V 1233 H -1021 Z" /></clipPath><clipPath
       id="clipPath150"
       clipPathUnits="userSpaceOnUse"><path
         id="path148"
         d="M 108,81 H 777.6 V 570.24 H 108 Z" /></clipPath><clipPath
       id="clipPath168"
       clipPathUnits="userSpaceOnUse"><path
         id="path166"
         d="M 108,81 H 777.6 V 570.24 H 108 Z" /></clipPath><clipPath
       id="clipPath186"
       clipPathUnits="userSpaceOnUse"><path
         id="path184"
         d="M 108,81 H 777.6 V 570.24 H 108 Z" /></clipPath><clipPath
       id="clipPath204"
       clipPathUnits="userSpaceOnUse"><path
         id="path202"
         d="M 108,81 H 777.6 V 570.24 H 108 Z" /></clipPath><clipPath
       id="clipPath222"
       clipPathUnits="userSpaceOnUse"><path
         id="path220"
         d="M 108,81 H 777.6 V 570.24 H 108 Z" /></clipPath><clipPath
       id="clipPath244"
       clipPathUnits="userSpaceOnUse"><path
         id="path242"
         d="M 108,81 H 777.6 V 570.24 H 108 Z" /></clipPath><clipPath
       id="clipPath266"
       clipPathUnits="userSpaceOnUse"><path
         id="path264"
         d="M -1021,-463 H 1794 V 1233 H -1021 Z" /></clipPath><clipPath
       id="clipPath276"
       clipPathUnits="userSpaceOnUse"><path
         id="path274"
         d="M 108,81 H 777.6 V 570.24 H 108 Z" /></clipPath><clipPath
       id="clipPath298"
       clipPathUnits="userSpaceOnUse"><path
         id="path296"
         d="M -1021,-463 H 1794 V 1233 H -1021 Z" /></clipPath><clipPath
       id="clipPath308"
       clipPathUnits="userSpaceOnUse"><path
         id="path306"
         d="M 108,81 H 777.6 V 570.24 H 108 Z" /></clipPath><clipPath
       id="clipPath330"
       clipPathUnits="userSpaceOnUse"><path
         id="path328"
         d="M -1021,-463 H 1794 V 1233 H -1021 Z" /></clipPath><clipPath
       id="clipPath340"
       clipPathUnits="userSpaceOnUse"><path
         id="path338"
         d="M 108,81 H 777.6 V 570.24 H 108 Z" /></clipPath><clipPath
       id="clipPath362"
       clipPathUnits="userSpaceOnUse"><path
         id="path360"
         d="M -1021,-463 H 1794 V 1233 H -1021 Z" /></clipPath><clipPath
       id="clipPath372"
       clipPathUnits="userSpaceOnUse"><path
         id="path370"
         d="M 108,81 H 777.6 V 570.24 H 108 Z" /></clipPath><clipPath
       id="clipPath390"
       clipPathUnits="userSpaceOnUse"><path
         id="path388"
         d="M 108,81 H 777.6 V 570.24 H 108 Z" /></clipPath><clipPath
       id="clipPath408"
       clipPathUnits="userSpaceOnUse"><path
         id="path406"
         d="M 108,81 H 777.6 V 570.24 H 108 Z" /></clipPath><clipPath
       id="clipPath426"
       clipPathUnits="userSpaceOnUse"><path
         id="path424"
         d="M 108,81 H 777.6 V 570.24 H 108 Z" /></clipPath><clipPath
       id="clipPath444"
       clipPathUnits="userSpaceOnUse"><path
         id="path442"
         d="M 108,81 H 777.6 V 570.24 H 108 Z" /></clipPath><clipPath
       id="clipPath478"
       clipPathUnits="userSpaceOnUse"><path
         id="path476"
         d="M -1016,-351 H 1660 V 1068 H -1016 Z" /></clipPath><clipPath
       id="clipPath490"
       clipPathUnits="userSpaceOnUse"><path
         id="path488"
         d="M -1021,-463 H 1794 V 1233 H -1021 Z" /></clipPath><clipPath
       id="clipPath500"
       clipPathUnits="userSpaceOnUse"><path
         id="path498"
         d="M 108,81 H 777.6 V 570.24 H 108 Z" /></clipPath></defs><g
     transform="matrix(1.3333333,0,0,-1.3333333,0.83333331,863.99998)"
     id="g10"><path
       id="path12"
       style="fill:#ffffff;fill-opacity:1;fill-rule:nonzero;stroke:none"
       d="M 0,0 H 864 V 648 H 0 Z" /><path
       id="path14"
       style="fill:#ffffff;fill-opacity:1;fill-rule:nonzero;stroke:none"
       d="M 108,81 H 777.6 V 570.24 H 108 Z" /><g
       id="g16"><g
         clip-path="url(#clipPath22)"
         id="g18"><path
           id="path24"
           style="fill:none;stroke:#b0b0b0;stroke-width:0.80000001;stroke-linecap:square;stroke-linejoin:round;stroke-miterlimit:10;stroke-dasharray:none;stroke-opacity:1"
           d="M 138.43636,81 V 570.24" /></g></g><g
       id="g26"><path
         id="path28"
         style="fill:#000000;fill-opacity:1;fill-rule:nonzero;stroke:#000000;stroke-width:0.80000001;stroke-linecap:butt;stroke-linejoin:round;stroke-miterlimit:10;stroke-dasharray:none;stroke-opacity:1"
         d="M 138.43636,81 V 77.5" /><g
         transform="translate(113.90511,61.84375)"
         id="g30"><text
           id="text34"
           style="font-variant:normal;font-weight:normal;font-size:16px;font-family:'DejaVu Sans';-inkscape-font-specification:DejaVuSans;writing-mode:lr-tb;fill:#000000;fill-opacity:1;fill-rule:nonzero;stroke:none"
           transform="matrix(1,0,0,-1,13.40625,0)"><tspan
             id="tspan32"
             y="0"
             x="0 10.176 20.351999 25.440001">10.0</tspan></text>
<g
           transform="scale(0.016)"
           id="g36"><g
             id="g38"><g
               clip-path="url(#clipPath44)"
               id="g40"><path
                 id="path46"
                 style="fill:#000000;fill-opacity:1;fill-rule:nonzero;stroke:none"
                 d="M 106,355 H 732 V 272 H 106 v 83" /></g></g></g></g></g><g
       id="g48"><g
         clip-path="url(#clipPath54)"
         id="g50"><path
           id="path56"
           style="fill:none;stroke:#b0b0b0;stroke-width:0.80000001;stroke-linecap:square;stroke-linejoin:round;stroke-miterlimit:10;stroke-dasharray:none;stroke-opacity:1"
           d="M 214.52727,81 V 570.24" /></g></g><g
       id="g58"><path
         id="path60"
         style="fill:#000000;fill-opacity:1;fill-rule:nonzero;stroke:#000000;stroke-width:0.80000001;stroke-linecap:butt;stroke-linejoin:round;stroke-miterlimit:10;stroke-dasharray:none;stroke-opacity:1"
         d="M 214.52727,81 V 77.5" /><g
         transform="translate(195.08977,61.84375)"
         id="g62"><text
           id="text66"
           style="font-variant:normal;font-weight:normal;font-size:16px;font-family:'DejaVu Sans';-inkscape-font-specification:DejaVuSans;writing-mode:lr-tb;fill:#000000;fill-opacity:1;fill-rule:nonzero;stroke:none"
           transform="matrix(1,0,0,-1,13.40625,0)"><tspan
             id="tspan64"
             y="0"
             x="0 10.176 15.264">7.5</tspan></text>
<g
           transform="scale(0.016)"
           id="g68"><g
             id="g70"><g
               clip-path="url(#clipPath76)"
               id="g72"><path
                 id="path78"
                 style="fill:#000000;fill-opacity:1;fill-rule:nonzero;stroke:none"
                 d="M 106,355 H 732 V 272 H 106 v 83" /></g></g></g></g></g><g
       id="g80"><g
         clip-path="url(#clipPath86)"
         id="g82"><path
           id="path88"
           style="fill:none;stroke:#b0b0b0;stroke-width:0.80000001;stroke-linecap:square;stroke-linejoin:round;stroke-miterlimit:10;stroke-dasharray:none;stroke-opacity:1"
           d="M 290.61818,81 V 570.24" /></g></g><g
       id="g90"><path
         id="path92"
         style="fill:#000000;fill-opacity:1;fill-rule:nonzero;stroke:#000000;stroke-width:0.80000001;stroke-linecap:butt;stroke-linejoin:round;stroke-miterlimit:10;stroke-dasharray:none;stroke-opacity:1"
         d="M 290.61818,81 V 77.5" /><g
         transform="translate(271.18068,61.84375)"
         id="g94"><text
           id="text98"
           style="font-variant:normal;font-weight:normal;font-size:16px;font-family:'DejaVu Sans';-inkscape-font-specification:DejaVuSans;writing-mode:lr-tb;fill:#000000;fill-opacity:1;fill-rule:nonzero;stroke:none"
           transform="matrix(1,0,0,-1,13.40625,0)"><tspan
             id="tspan96"
             y="0"
             x="0 10.176 15.264">5.0</tspan></text>
<g
           transform="scale(0.016)"
           id="g100"><g
             id="g102"><g
               clip-path="url(#clipPath108)"
               id="g104"><path
                 id="path110"
                 style="fill:#000000;fill-opacity:1;fill-rule:nonzero;stroke:none"
                 d="M 106,355 H 732 V 272 H 106 v 83" /></g></g></g></g></g><g
       id="g112"><g
         clip-path="url(#clipPath118)"
         id="g114"><path
           id="path120"
           style="fill:none;stroke:#b0b0b0;stroke-width:0.80000001;stroke-linecap:square;stroke-linejoin:round;stroke-miterlimit:10;stroke-dasharray:none;stroke-opacity:1"
           d="M 366.70909,81 V 570.24" /></g></g><g
       id="g122"><path
         id="path124"
         style="fill:#000000;fill-opacity:1;fill-rule:nonzero;stroke:#000000;stroke-width:0.80000001;stroke-linecap:butt;stroke-linejoin:round;stroke-miterlimit:10;stroke-dasharray:none;stroke-opacity:1"
         d="M 366.70909,81 V 77.5" /><g
         transform="translate(347.27159,61.84375)"
         id="g126"><text
           id="text130"
           style="font-variant:normal;font-weight:normal;font-size:16px;font-family:'DejaVu Sans';-inkscape-font-specification:DejaVuSans;writing-mode:lr-tb;fill:#000000;fill-opacity:1;fill-rule:nonzero;stroke:none"
           transform="matrix(1,0,0,-1,13.40625,0)"><tspan
             id="tspan128"
             y="0"
             x="0 10.176 15.264">2.5</tspan></text>
<g
           transform="scale(0.016)"
           id="g132"><g
             id="g134"><g
               clip-path="url(#clipPath140)"
               id="g136"><path
                 id="path142"
                 style="fill:#000000;fill-opacity:1;fill-rule:nonzero;stroke:none"
                 d="M 106,355 H 732 V 272 H 106 v 83" /></g></g></g></g></g><g
       id="g144"><g
         clip-path="url(#clipPath150)"
         id="g146"><path
           id="path152"
           style="fill:none;stroke:#b0b0b0;stroke-width:0.80000001;stroke-linecap:square;stroke-linejoin:round;stroke-miterlimit:10;stroke-dasharray:none;stroke-opacity:1"
           d="M 442.8,81 V 570.24" /></g></g><g
       id="g154"><path
         id="path156"
         style="fill:#000000;fill-opacity:1;fill-rule:nonzero;stroke:#000000;stroke-width:0.80000001;stroke-linecap:butt;stroke-linejoin:round;stroke-miterlimit:10;stroke-dasharray:none;stroke-opacity:1"
         d="M 442.8,81 V 77.5" /><text
         id="text160"
         style="font-variant:normal;font-weight:normal;font-size:16px;font-family:'DejaVu Sans';-inkscape-font-specification:DejaVuSans;writing-mode:lr-tb;fill:#000000;fill-opacity:1;fill-rule:nonzero;stroke:none"
         transform="matrix(1,0,0,-1,430.06562,61.84375)"><tspan
           id="tspan158"
           y="0"
           x="0 10.176 15.264">0.0</tspan></text>
</g><g
       id="g162"><g
         clip-path="url(#clipPath168)"
         id="g164"><path
           id="path170"
           style="fill:none;stroke:#b0b0b0;stroke-width:0.80000001;stroke-linecap:square;stroke-linejoin:round;stroke-miterlimit:10;stroke-dasharray:none;stroke-opacity:1"
           d="M 518.89091,81 V 570.24" /></g></g><g
       id="g172"><path
         id="path174"
         style="fill:#000000;fill-opacity:1;fill-rule:nonzero;stroke:#000000;stroke-width:0.80000001;stroke-linecap:butt;stroke-linejoin:round;stroke-miterlimit:10;stroke-dasharray:none;stroke-opacity:1"
         d="M 518.89091,81 V 77.5" /><text
         id="text178"
         style="font-variant:normal;font-weight:normal;font-size:16px;font-family:'DejaVu Sans';-inkscape-font-specification:DejaVuSans;writing-mode:lr-tb;fill:#000000;fill-opacity:1;fill-rule:nonzero;stroke:none"
         transform="matrix(1,0,0,-1,506.15653,61.84375)"><tspan
           id="tspan176"
           y="0"
           x="0 10.176 15.264">2.5</tspan></text>
</g><g
       id="g180"><g
         clip-path="url(#clipPath186)"
         id="g182"><path
           id="path188"
           style="fill:none;stroke:#b0b0b0;stroke-width:0.80000001;stroke-linecap:square;stroke-linejoin:round;stroke-miterlimit:10;stroke-dasharray:none;stroke-opacity:1"
           d="M 594.98182,81 V 570.24" /></g></g><g
       id="g190"><path
         id="path192"
         style="fill:#000000;fill-opacity:1;fill-rule:nonzero;stroke:#000000;stroke-width:0.80000001;stroke-linecap:butt;stroke-linejoin:round;stroke-miterlimit:10;stroke-dasharray:none;stroke-opacity:1"
         d="M 594.98182,81 V 77.5" /><text
         id="text196"
         style="font-variant:normal;font-weight:normal;font-size:16px;font-family:'DejaVu Sans';-inkscape-font-specification:DejaVuSans;writing-mode:lr-tb;fill:#000000;fill-opacity:1;fill-rule:nonzero;stroke:none"
         transform="matrix(1,0,0,-1,582.24744,61.84375)"><tspan
           id="tspan194"
           y="0"
           x="0 10.176 15.264">5.0</tspan></text>
</g><g
       id="g198"><g
         clip-path="url(#clipPath204)"
         id="g200"><path
           id="path206"
           style="fill:none;stroke:#b0b0b0;stroke-width:0.80000001;stroke-linecap:square;stroke-linejoin:round;stroke-miterlimit:10;stroke-dasharray:none;stroke-opacity:1"
           d="M 671.07273,81 V 570.24" /></g></g><g
       id="g208"><path
         id="path210"
         style="fill:#000000;fill-opacity:1;fill-rule:nonzero;stroke:#000000;stroke-width:0.80000001;stroke-linecap:butt;stroke-linejoin:round;stroke-miterlimit:10;stroke-dasharray:none;stroke-opacity:1"
         d="M 671.07273,81 V 77.5" /><text
         id="text214"
         style="font-variant:normal;font-weight:normal;font-size:16px;font-family:'DejaVu Sans';-inkscape-font-specification:DejaVuSans;writing-mode:lr-tb;fill:#000000;fill-opacity:1;fill-rule:nonzero;stroke:none"
         transform="matrix(1,0,0,-1,658.33835,61.84375)"><tspan
           id="tspan212"
           y="0"
           x="0 10.176 15.264">7.5</tspan></text>
</g><g
       id="g216"><g
         clip-path="url(#clipPath222)"
         id="g218"><path
           id="path224"
           style="fill:none;stroke:#b0b0b0;stroke-width:0.80000001;stroke-linecap:square;stroke-linejoin:round;stroke-miterlimit:10;stroke-dasharray:none;stroke-opacity:1"
           d="M 747.16364,81 V 570.24" /></g></g><g
       id="g226"><path
         id="path228"
         style="fill:#000000;fill-opacity:1;fill-rule:nonzero;stroke:#000000;stroke-width:0.80000001;stroke-linecap:butt;stroke-linejoin:round;stroke-miterlimit:10;stroke-dasharray:none;stroke-opacity:1"
         d="M 747.16364,81 V 77.5" /><text
         id="text232"
         style="font-variant:normal;font-weight:normal;font-size:16px;font-family:'DejaVu Sans';-inkscape-font-specification:DejaVuSans;writing-mode:lr-tb;fill:#000000;fill-opacity:1;fill-rule:nonzero;stroke:none"
         transform="matrix(1,0,0,-1,729.33551,61.84375)"><tspan
           id="tspan230"
           y="0"
           x="0 10.176 20.351999 25.440001">10.0</tspan></text>
<text
         id="text236"
         style="font-variant:normal;font-weight:normal;font-size:16px;font-family:'DejaVu Sans';-inkscape-font-specification:DejaVuSans;writing-mode:lr-tb;fill:#000000;fill-opacity:1;fill-rule:nonzero;stroke:none"
         transform="matrix(1,0,0,-1,413.76875,42.359375)"><tspan
           id="tspan234"
           y="0"
           x="0 9.1999998 13.648 23.488001 27.936001 38.096001 43.183998 48.271999">Field, T</tspan></text>
</g><g
       id="g238"><g
         clip-path="url(#clipPath244)"
         id="g240"><path
           id="path246"
           style="fill:none;stroke:#b0b0b0;stroke-width:0.80000001;stroke-linecap:square;stroke-linejoin:round;stroke-miterlimit:10;stroke-dasharray:none;stroke-opacity:1"
           d="M 108,97.8144 H 777.6" /></g></g><g
       id="g248"><path
         id="path250"
         style="fill:#000000;fill-opacity:1;fill-rule:nonzero;stroke:#000000;stroke-width:0.80000001;stroke-linecap:butt;stroke-linejoin:round;stroke-miterlimit:10;stroke-dasharray:none;stroke-opacity:1"
         d="m 108,97.8144 h -3.5" /><g
         transform="translate(21.375,91.736275)"
         id="g252"><text
           id="text256"
           style="font-variant:normal;font-weight:normal;font-size:16px;font-family:'DejaVu Sans';-inkscape-font-specification:DejaVuSans;writing-mode:lr-tb;fill:#000000;fill-opacity:1;fill-rule:nonzero;stroke:none"
           transform="matrix(1,0,0,-1,13.40625,0)"><tspan
             id="tspan254"
             y="0"
             x="0 10.176 15.264 25.440001 35.616001 45.792 55.967999">0.00100</tspan></text>
<g
           transform="scale(0.016)"
           id="g258"><g
             id="g260"><g
               clip-path="url(#clipPath266)"
               id="g262"><path
                 id="path268"
                 style="fill:#000000;fill-opacity:1;fill-rule:nonzero;stroke:none"
                 d="M 106,355 H 732 V 272 H 106 v 83" /></g></g></g></g></g><g
       id="g270"><g
         clip-path="url(#clipPath276)"
         id="g272"><path
           id="path278"
           style="fill:none;stroke:#b0b0b0;stroke-width:0.80000001;stroke-linecap:square;stroke-linejoin:round;stroke-miterlimit:10;stroke-dasharray:none;stroke-opacity:1"
           d="M 108,154.7658 H 777.6" /></g></g><g
       id="g280"><path
         id="path282"
         style="fill:#000000;fill-opacity:1;fill-rule:nonzero;stroke:#000000;stroke-width:0.80000001;stroke-linecap:butt;stroke-linejoin:round;stroke-miterlimit:10;stroke-dasharray:none;stroke-opacity:1"
         d="m 108,154.7658 h -3.5" /><g
         transform="translate(21.375,148.68768)"
         id="g284"><text
           id="text288"
           style="font-variant:normal;font-weight:normal;font-size:16px;font-family:'DejaVu Sans';-inkscape-font-specification:DejaVuSans;writing-mode:lr-tb;fill:#000000;fill-opacity:1;fill-rule:nonzero;stroke:none"
           transform="matrix(1,0,0,-1,13.40625,0)"><tspan
             id="tspan286"
             y="0"
             x="0 10.176 15.264 25.440001 35.616001 45.792 55.967999">0.00075</tspan></text>
<g
           transform="scale(0.016)"
           id="g290"><g
             id="g292"><g
               clip-path="url(#clipPath298)"
               id="g294"><path
                 id="path300"
                 style="fill:#000000;fill-opacity:1;fill-rule:nonzero;stroke:none"
                 d="M 106,355 H 732 V 272 H 106 v 83" /></g></g></g></g></g><g
       id="g302"><g
         clip-path="url(#clipPath308)"
         id="g304"><path
           id="path310"
           style="fill:none;stroke:#b0b0b0;stroke-width:0.80000001;stroke-linecap:square;stroke-linejoin:round;stroke-miterlimit:10;stroke-dasharray:none;stroke-opacity:1"
           d="M 108,211.7172 H 777.6" /></g></g><g
       id="g312"><path
         id="path314"
         style="fill:#000000;fill-opacity:1;fill-rule:nonzero;stroke:#000000;stroke-width:0.80000001;stroke-linecap:butt;stroke-linejoin:round;stroke-miterlimit:10;stroke-dasharray:none;stroke-opacity:1"
         d="m 108,211.7172 h -3.5" /><g
         transform="translate(21.375,205.63908)"
         id="g316"><text
           id="text320"
           style="font-variant:normal;font-weight:normal;font-size:16px;font-family:'DejaVu Sans';-inkscape-font-specification:DejaVuSans;writing-mode:lr-tb;fill:#000000;fill-opacity:1;fill-rule:nonzero;stroke:none"
           transform="matrix(1,0,0,-1,13.40625,0)"><tspan
             id="tspan318"
             y="0"
             x="0 10.176 15.264 25.440001 35.616001 45.792 55.967999">0.00050</tspan></text>
<g
           transform="scale(0.016)"
           id="g322"><g
             id="g324"><g
               clip-path="url(#clipPath330)"
               id="g326"><path
                 id="path332"
                 style="fill:#000000;fill-opacity:1;fill-rule:nonzero;stroke:none"
                 d="M 106,355 H 732 V 272 H 106 v 83" /></g></g></g></g></g><g
       id="g334"><g
         clip-path="url(#clipPath340)"
         id="g336"><path
           id="path342"
           style="fill:none;stroke:#b0b0b0;stroke-width:0.80000001;stroke-linecap:square;stroke-linejoin:round;stroke-miterlimit:10;stroke-dasharray:none;stroke-opacity:1"
           d="M 108,268.6686 H 777.6" /></g></g><g
       id="g344"><path
         id="path346"
         style="fill:#000000;fill-opacity:1;fill-rule:nonzero;stroke:#000000;stroke-width:0.80000001;stroke-linecap:butt;stroke-linejoin:round;stroke-miterlimit:10;stroke-dasharray:none;stroke-opacity:1"
         d="m 108,268.6686 h -3.5" /><g
         transform="translate(21.375,262.59048)"
         id="g348"><text
           id="text352"
           style="font-variant:normal;font-weight:normal;font-size:16px;font-family:'DejaVu Sans';-inkscape-font-specification:DejaVuSans;writing-mode:lr-tb;fill:#000000;fill-opacity:1;fill-rule:nonzero;stroke:none"
           transform="matrix(1,0,0,-1,13.40625,0)"><tspan
             id="tspan350"
             y="0"
             x="0 10.176 15.264 25.440001 35.616001 45.792 55.967999">0.00025</tspan></text>
<g
           transform="scale(0.016)"
           id="g354"><g
             id="g356"><g
               clip-path="url(#clipPath362)"
               id="g358"><path
                 id="path364"
                 style="fill:#000000;fill-opacity:1;fill-rule:nonzero;stroke:none"
                 d="M 106,355 H 732 V 272 H 106 v 83" /></g></g></g></g></g><g
       id="g366"><g
         clip-path="url(#clipPath372)"
         id="g368"><path
           id="path374"
           style="fill:none;stroke:#b0b0b0;stroke-width:0.80000001;stroke-linecap:square;stroke-linejoin:round;stroke-miterlimit:10;stroke-dasharray:none;stroke-opacity:1"
           d="M 108,325.62 H 777.6" /></g></g><g
       id="g376"><path
         id="path378"
         style="fill:#000000;fill-opacity:1;fill-rule:nonzero;stroke:#000000;stroke-width:0.80000001;stroke-linecap:butt;stroke-linejoin:round;stroke-miterlimit:10;stroke-dasharray:none;stroke-opacity:1"
         d="m 108,325.62 h -3.5" /><text
         id="text382"
         style="font-variant:normal;font-weight:normal;font-size:16px;font-family:'DejaVu Sans';-inkscape-font-specification:DejaVuSans;writing-mode:lr-tb;fill:#000000;fill-opacity:1;fill-rule:nonzero;stroke:none"
         transform="matrix(1,0,0,-1,34.78125,319.54187)"><tspan
           id="tspan380"
           y="0"
           x="0 10.176 15.264 25.440001 35.616001 45.792 55.967999">0.00000</tspan></text>
</g><g
       id="g384"><g
         clip-path="url(#clipPath390)"
         id="g386"><path
           id="path392"
           style="fill:none;stroke:#b0b0b0;stroke-width:0.80000001;stroke-linecap:square;stroke-linejoin:round;stroke-miterlimit:10;stroke-dasharray:none;stroke-opacity:1"
           d="M 108,382.5714 H 777.6" /></g></g><g
       id="g394"><path
         id="path396"
         style="fill:#000000;fill-opacity:1;fill-rule:nonzero;stroke:#000000;stroke-width:0.80000001;stroke-linecap:butt;stroke-linejoin:round;stroke-miterlimit:10;stroke-dasharray:none;stroke-opacity:1"
         d="m 108,382.5714 h -3.5" /><text
         id="text400"
         style="font-variant:normal;font-weight:normal;font-size:16px;font-family:'DejaVu Sans';-inkscape-font-specification:DejaVuSans;writing-mode:lr-tb;fill:#000000;fill-opacity:1;fill-rule:nonzero;stroke:none"
         transform="matrix(1,0,0,-1,34.78125,376.49327)"><tspan
           id="tspan398"
           y="0"
           x="0 10.176 15.264 25.440001 35.616001 45.792 55.967999">0.00025</tspan></text>
</g><g
       id="g402"><g
         clip-path="url(#clipPath408)"
         id="g404"><path
           id="path410"
           style="fill:none;stroke:#b0b0b0;stroke-width:0.80000001;stroke-linecap:square;stroke-linejoin:round;stroke-miterlimit:10;stroke-dasharray:none;stroke-opacity:1"
           d="M 108,439.5228 H 777.6" /></g></g><g
       id="g412"><path
         id="path414"
         style="fill:#000000;fill-opacity:1;fill-rule:nonzero;stroke:#000000;stroke-width:0.80000001;stroke-linecap:butt;stroke-linejoin:round;stroke-miterlimit:10;stroke-dasharray:none;stroke-opacity:1"
         d="m 108,439.5228 h -3.5" /><text
         id="text418"
         style="font-variant:normal;font-weight:normal;font-size:16px;font-family:'DejaVu Sans';-inkscape-font-specification:DejaVuSans;writing-mode:lr-tb;fill:#000000;fill-opacity:1;fill-rule:nonzero;stroke:none"
         transform="matrix(1,0,0,-1,34.78125,433.44467)"><tspan
           id="tspan416"
           y="0"
           x="0 10.176 15.264 25.440001 35.616001 45.792 55.967999">0.00050</tspan></text>
</g><g
       id="g420"><g
         clip-path="url(#clipPath426)"
         id="g422"><path
           id="path428"
           style="fill:none;stroke:#b0b0b0;stroke-width:0.80000001;stroke-linecap:square;stroke-linejoin:round;stroke-miterlimit:10;stroke-dasharray:none;stroke-opacity:1"
           d="M 108,496.4742 H 777.6" /></g></g><g
       id="g430"><path
         id="path432"
         style="fill:#000000;fill-opacity:1;fill-rule:nonzero;stroke:#000000;stroke-width:0.80000001;stroke-linecap:butt;stroke-linejoin:round;stroke-miterlimit:10;stroke-dasharray:none;stroke-opacity:1"
         d="m 108,496.4742 h -3.5" /><text
         id="text436"
         style="font-variant:normal;font-weight:normal;font-size:16px;font-family:'DejaVu Sans';-inkscape-font-specification:DejaVuSans;writing-mode:lr-tb;fill:#000000;fill-opacity:1;fill-rule:nonzero;stroke:none"
         transform="matrix(1,0,0,-1,34.78125,490.39607)"><tspan
           id="tspan434"
           y="0"
           x="0 10.176 15.264 25.440001 35.616001 45.792 55.967999">0.00075</tspan></text>
</g><g
       id="g438"><g
         clip-path="url(#clipPath444)"
         id="g440"><path
           id="path446"
           style="fill:none;stroke:#b0b0b0;stroke-width:0.80000001;stroke-linecap:square;stroke-linejoin:round;stroke-miterlimit:10;stroke-dasharray:none;stroke-opacity:1"
           d="M 108,553.4256 H 777.6" /></g></g><g
       id="g448"><path
         id="path450"
         style="fill:#000000;fill-opacity:1;fill-rule:nonzero;stroke:#000000;stroke-width:0.80000001;stroke-linecap:butt;stroke-linejoin:round;stroke-miterlimit:10;stroke-dasharray:none;stroke-opacity:1"
         d="m 108,553.4256 h -3.5" /><text
         id="text454"
         style="font-variant:normal;font-weight:normal;font-size:16px;font-family:'DejaVu Sans';-inkscape-font-specification:DejaVuSans;writing-mode:lr-tb;fill:#000000;fill-opacity:1;fill-rule:nonzero;stroke:none"
         transform="matrix(1,0,0,-1,34.78125,547.34747)"><tspan
           id="tspan452"
           y="0"
           x="0 10.176 15.264 25.440001 35.616001 45.792 55.967999">0.00100</tspan></text>
<g
         transform="rotate(90,-78.8725,91.2475)"
         id="g456"><text
           id="text460"
           style="font-variant:normal;font-weight:normal;font-size:16px;font-family:'DejaVu Sans';-inkscape-font-specification:DejaVuSans;writing-mode:lr-tb;fill:#000000;fill-opacity:1;fill-rule:nonzero;stroke:none"
           transform="matrix(1,0,0,-1,0,0.84375)"><tspan
             id="tspan458"
             y="0"
             x="0 9.7734375 19.914062 29.757812 36.335938 51.921875 61.726562 66.171875 71.257812 83.289062 93.09375 97.539062 101.98438 107.07031 118.24219 128.03125 138.17188 148.32812 158.46875 167.26562 173.53906 177.98438 187.45312 191.89844 198.17188 207.64062">Thermal Hall Conductivity </tspan></text>
<text
           id="text464"
           style="font-style:italic;font-variant:normal;font-size:11.19999981px;font-family:'DejaVu Sans';-inkscape-font-specification:DejaVuSans-Oblique;writing-mode:lr-tb;fill:#000000;fill-opacity:1;fill-rule:nonzero;stroke:none"
           transform="matrix(1,0,0,-1,222.15625,-1.78125)"><tspan
             id="tspan462"
             y="0"
             x="0 6.6281252">xy</tspan></text>
<text
           id="text468"
           style="font-variant:normal;font-weight:normal;font-size:16px;font-family:'DejaVu Sans';-inkscape-font-specification:DejaVuSans;writing-mode:lr-tb;fill:#000000;fill-opacity:1;fill-rule:nonzero;stroke:none"
           transform="matrix(1,0,0,-1,235.85,0.84375)"><tspan
             id="tspan466"
             y="0"
             x="0 5.0859375 10.171875 25.992188 31.382812 37.625 58.296875 68.789062">, W/(mK)</tspan></text>
<g
           transform="matrix(0.016,0,0,0.016,212.72656,0.84375)"
           id="g470"><g
             id="g472"><g
               clip-path="url(#clipPath478)"
               id="g474"><path
                 id="path480"
                 style="fill:#000000;fill-opacity:1;fill-rule:nonzero;stroke:none"
                 d="m 146,547 h 93 L 195,320 475,547 H 584 L 329,341 512,0 H 402 L 254,282 175,219 133,0 H 40 l 106,547" /></g></g></g><g
           transform="matrix(0.016,0,0,0.016,289.06094,0.84375)"
           id="g482"><g
             id="g484"><g
               clip-path="url(#clipPath490)"
               id="g486"><path
                 id="path492"
                 style="fill:#000000;fill-opacity:1;fill-rule:nonzero;stroke:none"
                 d="M 107,409 H 210 V 285 H 107 v 124" /></g></g></g></g></g><g
       id="g494"><g
         clip-path="url(#clipPath500)"
         id="g496"><path
           id="path502"
           style="fill:none;stroke:#1f77b4;stroke-width:1.5;stroke-linecap:square;stroke-linejoin:round;stroke-miterlimit:10;stroke-dasharray:none;stroke-opacity:1"
           d="m 138.43636,394.60206 0.30437,-181.84389 0.30436,-12.09184 0.30436,19.33005 2.13055,285.20247 0.30436,0.53267 0.30437,-10.1337 0.30436,-14.87114 1.21745,-258.49719 0.30437,-41.74942 0.60873,-27.97835 0.30436,24.29402 0.91309,154.30982 0.30436,61.9176 0.60873,35.57534 0.30437,3.10948 0.91309,-97.10789 0.30436,-36.26511 0.30436,-17.81724 0.60873,-5.60013 1.52182,176.54526 0.60873,-26.54029 0.30436,-34.61252 1.21745,-239.71287 0.30437,-1.29633 0.60872,20.36972 0.60873,102.53632 0.60873,112.30985 0.30436,29.65232 0.60873,-19.08139 0.60873,-75.88457 0.91309,-131.28823 0.60873,17.25972 0.30436,18.90808 0.60873,68.34909 0.60872,61.59627 0.30437,5.54779 0.60872,-42.97859 0.60873,-94.10429 0.91309,-109.37052 0.60873,27.11055 0.30436,31.14081 1.52182,250.23253 0.60873,49.07029 0.60873,-63.14984 0.60872,-80.4879 0.30437,-49.39975 0.60872,-39.52007 0.30437,11.78373 0.91309,116.7991 0.30436,54.69496 0.60873,23.32892 0.30436,1.07433 0.60873,-70.60072 0.91309,-107.45487 0.60873,-7.09241 0.30436,28.01916 1.21746,143.32895 0.60872,-12.09614 0.30437,-25.90388 1.21745,-185.51378 0.30437,-22.91354 0.60872,-25.63321 1.52182,210.84544 0.60873,44.01587 0.30436,-12.31322 1.52182,-208.61856 0.30436,-16.10383 0.30437,-1.37791 1.52182,238.80256 0.60872,39.6852 0.30437,-18.0908 0.91309,-122.87036 0.30436,-67.02854 0.60873,-36.687 0.30436,-6.72396 0.60873,57.1396 0.30436,32.82195 0.30437,58.30106 0.30436,24.78378 0.60873,6.11069 0.91309,-112.10253 0.60873,-100.47624 0.60872,-34.16758 0.30437,18.39571 0.91309,120.46791 0.30436,62.09024 0.91309,90.94019 0.91309,-109.09084 0.60873,-75.338 0.60873,-30.26621 0.30436,20.73963 1.21746,196.9784 0.60872,4.32484 0.30437,-14.6112 0.60872,-130.59077 0.60873,-138.90149 0.30437,-23.36808 0.60872,-11.47368 0.30437,46.16671 0.91309,206.00382 0.30436,37.50951 0.60873,-2.14751 0.30436,-19.69093 1.21746,-158.37252 0.30436,6.21019 0.60873,28.86491 0.60872,68.79607 0.60873,58.94106 0.30437,4.25346 0.60872,-37.88584 1.21746,-172.05945 0.30436,-25.8274 0.60873,38.46888 0.30436,35.68834 0.91309,182.11842 0.30437,49.49619 0.30436,14.70339 0.60873,1.61748 0.60872,-93.78176 0.9131,-114.77058 0.60872,-7.07453 0.30437,20.40661 0.60872,73.76463 0.60873,65.57774 0.30436,4.95738 0.30437,-1.3421 0.30436,-3.23534 0.60873,-83.7737 0.60873,-70.05831 0.30436,-17.68053 0.60873,7.50157 0.60872,92.07713 0.9131,149.5881 0.60872,24.72022 0.30437,2.23242 1.52181,-255.51993 0.60873,-38.75866 0.30437,30.9296 1.21745,210.36444 0.60873,30.46009 0.30436,-6.51878 1.52182,-261.51027 0.60873,-51.12846 1.52181,117.19072 0.60873,-1.06056 1.52182,-100.09705 0.60873,33.98041 0.30436,21.61541 0.91309,132.09031 0.30437,37.32264 0.30436,10.83369 0.60873,-5.68161 0.30436,-28.40371 1.21745,-170.1504 0.60873,-8.87405 0.30437,11.59322 0.91309,133.2437 0.30436,55.65804 0.30436,24.33578 0.60873,25.71428 0.91309,-120.03636 0.60873,-78.37977 0.60873,-9.20052 0.30436,22.31577 1.21745,163.91554 0.60873,-20.2642 0.30437,-16.11304 1.52181,-296.68856 0.60873,-18.08518 0.30436,28.05656 1.52182,300.29026 0.60873,55.34641 0.30436,-18.77649 1.21746,-125.09565 0.60873,-21.72943 1.21745,95.479 0.30436,6.53472 0.60873,-47.45993 1.52182,-209.18506 0.91309,98.13556 0.60873,131.87398 0.60872,114.79405 0.30437,22.97797 0.60873,-10.33985 0.30436,-31.00975 1.21745,-190.04043 0.60873,-30.6381 0.30436,-7.42031 0.9131,77.84217 0.30436,31.26287 0.30436,16.17763 0.60873,15.75003 0.60873,-47.32903 0.91309,-69.99673 0.60873,15.18941 0.30436,20.29946 0.60873,61.77899 0.60872,50.3639 0.30437,-15.41755 0.60872,-42.58776 0.60873,-98.49249 0.60873,-79.42059 0.30436,-18.40632 0.60873,10.5266 1.52182,169.47994 0.60873,-19.80468 0.30436,-18.35392 0.91309,-125.34209 0.30436,-39.21767 0.30437,0.51921 0.60872,35.51878 1.21746,185.89949 0.30436,27.60845 0.60873,-41.46827 0.30436,-36.86732 0.91309,-149.38166 0.30437,-45.1372 0.30436,12.91446 0.60873,39.2815 0.60873,101.42009 0.60872,81.27397 0.30437,17.1389 0.60872,-29.44218 0.60873,-87.50743 0.91309,-139.79219 0.60873,3.04606 0.30436,4.94286 1.52182,207.82351 0.60873,-8.72993 1.21745,-106.69787 0.30437,-3.38904 1.82618,249.15099 0.30436,26.22096 0.30437,-31.66338 0.60872,-96.58286 0.60873,-122.50656 0.60873,-102.12773 0.30436,-20.44867 0.60873,41.22246 0.91309,151.41528 0.60873,108.38405 0.30436,7.68755 0.30436,3.7213 0.30437,2.35421 1.52182,-223.79308 0.60873,-22.99583 0.30436,12.05917 1.21745,129.90689 0.60873,-3.60072 0.30436,-12.29244 0.91309,-103.54451 0.30437,-31.69486 0.30436,-1.30949 0.60873,19.91177 0.91309,159.28694 0.60873,83.31683 0.60872,-6.82067 0.30437,-26.82366 1.21745,-256.28956 0.91309,-28.62732 1.52182,244.8366 0.60873,46.9007 0.30436,-2.2778 0.91309,-74.18128 0.30437,-34.0894 0.60872,-5.45795 0.30437,2.19639 1.21745,120.99682 0.30437,1.16324 0.60872,-24.05353 1.21746,-142.26675 0.30436,-25.27891 0.60873,16.61743 0.30436,16.93549 0.91309,83.28764 0.30437,28.99327 0.30436,-8.19357 0.60873,-24.95187 0.60872,-81.18139 0.60873,-69.1252 0.30437,-7.6605 0.60872,36.50539 0.91309,151.50461 0.60873,88.87139 0.91309,-40.52883 1.21746,-213.37239 0.30436,-28.80484 0.60873,-29.88246 0.30436,22.54282 1.82618,233.06439 0.30437,19.05424 0.91309,-63.43983 0.30436,-36.49851 0.60873,-41.01844 0.30436,-17.8365 0.30437,5.57585 0.60872,22.79469 0.30437,20.04529 0.30436,29.74136 0.60873,21.65444 0.30436,-7.07211 0.91309,-91.56619 0.30437,-44.93266 0.91309,-22.71462 1.52181,199.15835 0.60873,1.72538 0.30437,-34.59922 1.21745,-191.34593 0.60873,-17.92972 0.30436,8.42395 0.91309,120.63684 0.30437,43.62631 0.30436,11.85846 0.60873,8.64253 0.60872,-74.88454 0.91309,-92.56976 0.60873,9.42736 0.30437,29.4888 1.21745,235.20446 0.91309,57.75572 0.60873,-87.15957 0.91309,-126.66533 0.60873,-21.5482 0.30436,16.77922 1.21745,126.49461 0.60873,-19.12564 0.30437,-16.50698 0.91309,-127.54605 0.30436,-37.95315 0.30436,-9.5344 0.60873,-1.96334 0.60873,77.40632 0.91309,117.65273 0.60873,37.88179 0.30436,2.74933 1.52182,-168.10748 0.60873,-34.49974 1.21745,125.00677 0.30436,16.25257 0.60873,-8.57678 0.60873,-71.35084 0.91309,-108.74087 0.60873,19.34579 0.30436,15.76966 0.60873,93.13202 0.60872,86.40991 0.30437,10.67681 0.60873,-14.05681 0.91309,-139.20813 0.60872,-87.48588 0.60873,8.21637 0.30436,19.73105 1.21746,244.20916 0.30436,22.74482 0.60873,27.43292 0.30436,-35.97364 1.21746,-221.64559 0.60873,-45.84623 0.30436,1.46551 0.91309,134.26395 0.30436,59.28783 0.91309,50.06519 0.60873,-69.77404 0.91309,-109.92824 0.60873,-24.1525 0.30436,13.68242 1.21746,139.91887 0.60873,-8.70059 0.30436,-13.10965 1.21745,-151.47067 0.30437,18.59165 0.60872,52.9441 1.52182,236.23801 0.60873,-32.62236 0.30436,-31.50166 1.21746,-226.19034 0.91309,-18.91666 1.21745,137.59991 0.30437,13.88321 0.60872,14.32393 0.9131,-41.32715 0.30436,-12.49486 0.30436,-18.92223 0.60873,-6.19666 0.30436,2.07629 0.30437,17.60327 0.60872,11.27558 0.30437,11.39249 0.30436,-11.43388 0.60873,-35.76142 0.91309,-120.57896 0.30436,-37.90788 0.30437,-20.91805 0.60872,13.86259 0.30437,25.44908 1.21745,210.20014 0.91309,44.23301 0.91309,-120.39971 0.30437,-44.66635 0.30436,-27.11415 0.60873,-15.49421 0.30436,23.15158 1.21746,183.06981 0.60872,17.8997 0.30437,3.95128 1.21745,-152.25436 0.30437,-17.41177 0.60873,-11.44406 1.21745,97.77023 0.30436,17.76439 0.60873,-29.54769 0.60873,-61.79388 0.91309,-81.10554 0.91309,77.84833 0.30436,44.45007 0.91309,84.82551 0.30437,7.76062 0.60872,-30.88607 0.30437,-28.00922 0.60872,-29.89482 0.60873,-27.49361 0.91309,66.94645 0.30437,34.89105 0.91309,63.88668 0.30436,-13.74237 0.60873,-60.44625 0.91309,-156.34201 0.60873,-89.51821 0.60872,-11.02582 0.30437,7.86807 0.91309,151.77123 0.30436,58.63354 0.91309,93.06825 0.30437,-15.92578 0.91309,-117.18804 0.30436,-51.51172 0.60873,-55.02148 0.30436,-3.77012 0.91309,113.13341 0.30437,51.97434 0.60872,-1.84447 0.30437,-3.15587 0.91309,-110.77781 0.30436,-34.4047 0.30437,4.83097 0.60872,46.08104 1.52182,195.43305 0.91309,-59.93964 1.21746,-216.30354 0.30436,0.1462 0.60873,20.36875 0.60873,90.87368 0.60872,103.21452 0.30437,21.79534 0.60872,-21.65103 0.30437,-24.03654 1.21745,-181.67002 0.91309,14.62632 1.21746,187.70639 0.30436,19.58737 0.60873,17.52188 0.30436,-20.01356 1.21746,-173.65053 0.60872,-36.52095 0.30437,-9.76137 2.13054,313.58329 0.30437,-8.01389 1.21745,-123.13838 0.60873,-13.34154 0.30436,6.86845 0.60873,61.89852 0.60873,55.51679 0.60872,-36.79195 0.30437,-20.48001 0.60873,-89.16378 0.60872,-78.99405 0.30436,-14.29084 0.60873,24.21902 0.30437,64.55122 0.60872,-36.20536 0.30437,64.55122 0.60872,24.21902 0.30437,-14.29084 1.52182,-188.63784 0.60872,-36.79195 1.21746,117.41531 0.30436,6.86845 0.60873,-13.34154 1.21745,-123.13838 0.30437,-8.01389 0.91309,111.15704 1.21745,202.42625 0.30437,-9.76137 0.60872,-36.52095 1.52182,-193.66409 0.60873,17.52188 0.30436,19.58737 1.21746,187.70639 0.91309,14.62632 0.60872,-86.99419 0.60873,-94.67583 0.30437,-24.03654 0.60872,-21.65104 0.30437,21.79535 1.21745,194.0882 0.60873,20.36874 0.30436,0.14621 1.52182,-240.48134 0.60873,-35.76184 0.30436,26.11187 1.21746,169.32118 0.60872,46.08104 0.30437,4.83097 1.21745,-145.18251 0.30436,-3.15587 0.60873,-1.84447 0.60873,90.20182 0.60873,74.90593 0.30436,-3.77012 0.60873,-55.02148 0.60872,-92.0256 0.60873,-76.67416 0.30437,-15.92578 0.91309,93.06825 0.91309,162.68389 0.30436,47.72088 0.30436,7.86807 0.60873,-11.02582 0.30437,-35.25864 1.21745,-210.60159 0.60873,-60.44624 0.30436,-13.74237 0.91309,63.88668 0.60873,57.39884 0.60873,44.43866 1.21745,-57.38843 0.30436,-28.00922 0.60873,-30.88607 0.30437,7.76062 0.91309,84.82551 0.30436,44.45007 0.91309,77.84833 0.91309,-81.10554 0.60873,-61.79388 0.60873,-29.54769 0.60872,41.89958 0.91309,73.63504 0.60873,-11.44406 0.30437,-17.41177 0.91309,-113.47991 0.30436,-38.77445 0.30436,3.95128 0.60873,17.89969 0.91309,139.02471 0.30437,44.04511 0.30436,23.15158 0.60873,-15.49421 0.30436,-27.11415 1.21746,-165.06606 0.91309,44.23301 1.21745,210.20014 0.30436,25.44908 0.60873,13.86259 0.30436,-20.91805 1.52182,-176.38704 0.60873,-29.2951 0.30436,11.39249 0.60873,11.27558 0.30436,17.60327 0.30437,2.07629 0.60873,-6.19666 0.60872,-31.41709 0.91309,-41.32715 0.60873,14.32393 0.30436,13.88321 1.21746,137.59991 0.60873,-12.19476 0.30436,-6.7219 0.60873,-108.88763 0.60873,-117.30271 0.30436,-31.50166 0.60873,-32.62236 0.30436,16.8334 1.21745,219.40461 0.91309,71.53575 0.60873,-70.96243 0.60873,-80.50824 0.30436,-13.10965 0.60873,-8.70059 0.60873,66.62248 0.60873,73.29639 0.30436,13.68242 0.60873,-24.1525 0.30436,-27.78809 0.91309,-120.06218 0.30437,-31.85201 0.60872,32.09674 0.30436,17.96845 0.60873,104.90617 0.60873,88.64561 0.30436,1.46551 0.60873,-45.84623 0.60873,-107.30266 0.60872,-114.34293 0.30437,-35.97364 0.60873,27.43292 0.30436,22.74482 0.91309,185.65724 0.30436,58.55192 0.30437,19.73105 0.60873,8.21637 0.60872,-87.48588 0.91309,-139.20813 0.60873,-14.05681 0.30436,10.6768 1.21746,179.54194 0.30436,15.76966 0.60873,19.34579 0.91309,-108.74087 0.60873,-71.35084 0.60873,-8.57678 0.30436,16.25256 1.21745,125.00678 0.91309,-54.24166 1.21746,-148.36556 0.30436,2.74933 0.60873,37.88179 0.30436,31.25958 1.21746,163.79947 0.60873,-1.96334 0.30436,-9.5344 1.52182,-182.00618 0.60873,-19.12564 0.30436,23.01828 0.91309,103.47633 0.30436,16.77922 0.60873,-21.54821 0.30436,-29.01197 1.21746,-184.81292 0.91309,57.75571 0.91309,176.40189 0.30436,58.80258 0.30437,29.4888 0.60872,9.42736 0.60873,-59.20323 0.91309,-108.25107 0.60873,8.64253 0.30436,11.85846 1.21746,164.26314 0.30436,8.42396 0.60873,-17.92972 1.21745,-191.34593 0.30437,-34.59922 0.60872,1.72538 0.30437,24.9383 1.21745,174.22005 0.60873,-14.60189 0.30436,-8.11273 0.60873,-76.09886 0.60873,-60.39999 0.30436,-7.07211 0.60873,21.65444 0.60873,49.78665 0.60872,22.79469 0.30437,5.57585 0.91309,-58.85494 0.30436,-36.49851 0.91309,-63.43984 0.30437,19.05425 0.60872,58.84445 0.60873,92.21053 0.60873,82.00941 0.30436,22.54282 0.60873,-29.88246 0.30436,-28.80484 1.21746,-213.37239 0.60873,-28.18398 0.30436,-12.34485 0.60872,88.87139 0.9131,151.50461 0.60872,36.50539 0.30437,-7.6605 0.91309,-104.68181 0.30436,-45.62478 0.91309,-33.14544 1.21746,112.28091 0.30436,16.93549 0.60873,16.61743 0.30436,-25.27891 1.21746,-142.26675 0.60872,-24.05353 0.30437,1.16324 1.21745,120.99682 0.30436,2.19639 0.60873,-5.45796 0.60873,-58.9058 0.60873,-49.36487 0.30436,-2.2778 0.60873,46.90069 0.60873,93.67092 0.91309,151.16569 0.91309,-28.62732 1.21745,-256.28956 0.30436,-26.82366 0.60873,-6.82067 0.30437,32.61158 1.21745,209.99219 0.60873,19.91176 0.30436,-1.30948 1.52182,-147.53181 0.60873,-3.60072 1.52181,141.96606 0.60873,-22.99583 0.30437,-32.13392 1.21745,-191.65916 0.30436,2.3542 0.30437,3.72131 0.30436,7.68755 0.91309,157.62548 0.60873,102.17385 0.60873,41.22246 0.30436,-20.44867 0.91309,-153.47522 0.60873,-119.50329 0.60873,-79.90202 0.60872,60.6582 0.30437,34.44893 0.91309,138.19571 0.30436,42.0691 0.30437,-3.38903 1.21745,-106.69787 0.60873,-8.72993 0.30436,16.63007 1.21745,191.19344 0.30437,4.94286 0.60873,3.04606 1.52181,-227.29962 0.60873,-29.44218 0.30436,17.1389 0.9131,122.22243 0.30436,60.47163 0.91309,52.19596 1.52182,-231.38618 0.60873,-41.46827 0.30436,27.60845 1.21745,185.89949 0.60873,35.51878 0.30437,0.51921 1.52181,-182.91368 0.60873,-19.80468 1.52182,169.47994 0.60873,10.5266 0.30436,-18.40632 0.91309,-119.87679 0.30436,-58.03629 0.91309,-58.00531 0.9131,77.58461 0.30436,34.55828 0.30436,20.29946 0.60873,15.18941 0.30436,-18.43865 1.21746,-98.88711 0.60873,15.75003 0.30436,16.17763 0.91309,84.66796 0.30436,24.43708 0.30437,-7.42031 0.60873,-30.6381 1.21745,-190.04043 0.30436,-31.00975 0.60873,-10.33985 0.30436,22.97797 0.91309,173.65861 0.30437,73.00942 0.91309,98.13556 0.30436,-30.57478 1.52182,-202.36725 0.30436,-23.70296 0.30437,6.53472 1.21745,95.479 0.60873,-21.72943 0.30436,-22.66318 0.60873,-71.52582 0.30437,-30.90665 0.30436,-18.77649 0.30436,22.45383 0.60873,65.72476 0.91309,205.18882 0.30436,62.26926 0.30437,28.05656 0.60872,-18.08518 0.30437,-32.94495 1.21745,-263.74361 0.60873,-27.78697 0.30436,-8.59027 0.91309,119.85593 0.30437,44.05961 0.30436,22.31577 0.60873,-9.20052 0.60873,-78.37977 0.91309,-120.03636 0.60872,25.71428 0.30437,24.33578 0.60873,100.74114 0.60872,88.1606 0.30437,11.59322 0.60873,-8.87405 1.52181,-198.55411 0.60873,-5.68162 0.30436,10.8337 0.91309,120.84322 0.30437,48.56973 0.60872,39.22782 0.30437,16.368 0.30436,-9.07462 1.21746,-91.02243 0.60873,-1.06056 0.30436,13.37278 1.21745,103.81794 0.91309,-85.27717 1.21746,-227.36156 0.30436,-6.51878 0.60873,30.46009 0.91309,161.39023 0.30436,48.97421 0.30437,30.9296 0.60872,-38.75866 0.30437,-39.68876 1.21745,-215.83117 0.30437,2.23242 0.60872,24.72022 1.52182,241.66522 0.60873,7.50158 0.30436,-17.68053 0.91309,-105.77728 0.30437,-48.05473 0.30436,-3.23534 0.30437,-1.34211 0.30436,4.95739 1.52182,159.74898 0.60872,-7.07453 0.60873,-74.1577 0.91309,-134.39464 0.60873,1.61748 0.30436,14.70339 0.91309,162.7331 0.30437,68.88151 0.30436,35.68834 0.60873,38.46888 0.30436,-25.8274 1.21746,-172.05945 0.60872,-37.88584 0.30437,4.25346 0.91309,89.3217 0.30436,38.41543 0.60873,28.86491 0.30436,6.21019 0.60873,-74.74848 0.60873,-83.62405 0.30436,-19.69093 0.60873,-2.1475 0.30436,37.50951 1.21746,252.17053 0.60872,-11.47368 0.30437,-23.36808 1.21745,-269.49227 0.30436,-14.6112 0.60873,4.32485 1.21746,196.9784 0.30436,20.73963 0.60873,-30.26621 0.60872,-75.338 0.9131,-109.09084 0.60872,57.37761 0.30437,33.56257 0.60872,101.86145 0.60873,80.69671 0.30436,18.39571 0.60873,-34.16758 0.60873,-100.47624 0.91309,-112.10253 0.60873,6.11069 0.30436,24.78378 0.30437,58.30106 0.91309,89.96155 0.30436,-6.72396 0.60873,-36.687 0.30436,-67.02854 0.91309,-122.87036 0.30436,-18.0908 0.60873,39.6852 0.60873,97.64456 0.91309,141.158 0.30436,-1.37791 0.60873,-33.09681 0.60873,-102.1442 0.60873,-89.48138 0.30436,-12.31322 0.60873,44.01587 1.52181,210.84544 0.60873,-25.63322 0.30437,-22.91353 1.52181,-211.41766 0.60873,-12.09614 0.60873,66.34737 0.91309,105.00074 0.60873,-7.09241 0.30436,-23.95916 0.91309,-124.13089 0.30437,-29.96554 0.30436,1.07433 0.60873,23.32891 0.60872,94.86558 0.60873,76.62849 0.30436,11.78373 0.60873,-39.52007 0.60873,-93.72586 0.91309,-99.31163 0.60873,49.07029 0.30436,34.21362 0.60873,114.39392 0.91309,132.7658 0.60873,27.11055 0.60872,-71.53594 0.60873,-77.57471 0.30436,-54.36416 0.60873,-42.97859 0.30436,5.54779 1.21746,129.94536 0.30436,18.90808 0.60873,17.25972 0.91309,-131.28823 0.60873,-75.88457 0.60873,-19.08139 0.30436,29.65232 1.21745,214.84617 0.60873,20.36972 0.30436,-1.29633 0.60873,-114.68894 0.60873,-125.02393 0.30436,-34.61253 0.60873,-26.54028 0.30437,15.75396 1.21745,160.79129 0.60873,-5.60012 0.30436,-17.81724 1.21745,-133.373 0.30437,3.10948 0.60872,35.57534 0.9131,166.88808 0.30436,49.33934 0.30436,24.29402 0.60873,-27.97835 0.30437,-41.74942 1.21745,-258.49719 0.60873,-25.00484 0.30436,0.53267 2.43491,304.53251 0.30436,-12.09183 0.30437,-181.84389 v 0" /></g></g><g
       id="g504"><path
         id="path506"
         style="fill:none;stroke:#000000;stroke-width:0.80000001;stroke-linecap:square;stroke-linejoin:miter;stroke-miterlimit:10;stroke-dasharray:none;stroke-opacity:1"
         d="M 108,81 V 570.24" /><path
         id="path508"
         style="fill:none;stroke:#000000;stroke-width:0.80000001;stroke-linecap:square;stroke-linejoin:miter;stroke-miterlimit:10;stroke-dasharray:none;stroke-opacity:1"
         d="M 777.6,81 V 570.24" /><path
         id="path510"
         style="fill:none;stroke:#000000;stroke-width:0.80000001;stroke-linecap:square;stroke-linejoin:miter;stroke-miterlimit:10;stroke-dasharray:none;stroke-opacity:1"
         d="M 108,81 H 777.6" /><path
         id="path512"
         style="fill:none;stroke:#000000;stroke-width:0.80000001;stroke-linecap:square;stroke-linejoin:miter;stroke-miterlimit:10;stroke-dasharray:none;stroke-opacity:1"
         d="M 108,570.24 H 777.6" /><text
         id="text516"
         style="font-variant:normal;font-weight:normal;font-size:19.20000076px;font-family:'DejaVu Sans';-inkscape-font-specification:DejaVuSans;writing-mode:lr-tb;fill:#000000;fill-opacity:1;fill-rule:nonzero;stroke:none"
         transform="matrix(1,0,0,-1,260.675,576.24)"><tspan
           id="tspan514"
           y="0"
           x="0 12.192 25.593599 38.764801 53.875198 59.980801 71.711998 83.884804 95.692802 103.584 122.2848 134.0544 139.392 145.4976 159.936 171.7056 177.0432 182.3808 188.4864 201.888 213.6384 225.8112 238.0032 250.17599 260.73599 268.26239 273.60001 284.9664 290.30399 297.83041 309.19681 315.3024 321.40799 333.6192 339.72479 351.936">SCBO Thermal Hall Conductivity, 6.0K</tspan></text>
</g></g></svg>