<?xml version="1.0" encoding="UTF-8" standalone="no"?>
<svg
   xmlns:dc="http://purl.org/dc/elements/1.1/"
   xmlns:cc="http://creativecommons.org/ns#"
   xmlns:rdf="http://www.w3.org/1999/02/22-rdf-syntax-ns#"
   xmlns:svg="http://www.w3.org/2000/svg"
   xmlns="http://www.w3.org/2000/svg"
   viewBox="0 0 1536 1152"
   height="1152"
   width="1536"
   xml:space="preserve"
   id="svg2"
   version="1.1"><metadata
     id="metadata8"><rdf:RDF><cc:Work
         rdf:about=""><dc:format>image/svg+xml</dc:format><dc:type
           rdf:resource="http://purl.org/dc/dcmitype/StillImage" /></cc:Work></rdf:RDF></metadata><defs
     id="defs6"><clipPath
       id="clipPath22"
       clipPathUnits="userSpaceOnUse"><path
         id="path20"
         d="m 144,108 h 892.8 V 760.32 H 144 Z" /></clipPath><clipPath
       id="clipPath40"
       clipPathUnits="userSpaceOnUse"><path
         id="path38"
         d="m 144,108 h 892.8 V 760.32 H 144 Z" /></clipPath><clipPath
       id="clipPath58"
       clipPathUnits="userSpaceOnUse"><path
         id="path56"
         d="m 144,108 h 892.8 V 760.32 H 144 Z" /></clipPath><clipPath
       id="clipPath76"
       clipPathUnits="userSpaceOnUse"><path
         id="path74"
         d="m 144,108 h 892.8 V 760.32 H 144 Z" /></clipPath><clipPath
       id="clipPath94"
       clipPathUnits="userSpaceOnUse"><path
         id="path92"
         d="m 144,108 h 892.8 V 760.32 H 144 Z" /></clipPath><clipPath
       id="clipPath112"
       clipPathUnits="userSpaceOnUse"><path
         id="path110"
         d="m 144,108 h 892.8 V 760.32 H 144 Z" /></clipPath><clipPath
       id="clipPath130"
       clipPathUnits="userSpaceOnUse"><path
         id="path128"
         d="m 144,108 h 892.8 V 760.32 H 144 Z" /></clipPath><clipPath
       id="clipPath148"
       clipPathUnits="userSpaceOnUse"><path
         id="path146"
         d="m 144,108 h 892.8 V 760.32 H 144 Z" /></clipPath><clipPath
       id="clipPath170"
       clipPathUnits="userSpaceOnUse"><path
         id="path168"
         d="m 144,108 h 892.8 V 760.32 H 144 Z" /></clipPath><clipPath
       id="clipPath188"
       clipPathUnits="userSpaceOnUse"><path
         id="path186"
         d="m 144,108 h 892.8 V 760.32 H 144 Z" /></clipPath><clipPath
       id="clipPath206"
       clipPathUnits="userSpaceOnUse"><path
         id="path204"
         d="m 144,108 h 892.8 V 760.32 H 144 Z" /></clipPath><clipPath
       id="clipPath224"
       clipPathUnits="userSpaceOnUse"><path
         id="path222"
         d="m 144,108 h 892.8 V 760.32 H 144 Z" /></clipPath><clipPath
       id="clipPath242"
       clipPathUnits="userSpaceOnUse"><path
         id="path240"
         d="m 144,108 h 892.8 V 760.32 H 144 Z" /></clipPath><clipPath
       id="clipPath268"
       clipPathUnits="userSpaceOnUse"><path
         id="path266"
         d="M -1021,-463 H 1794 V 1233 H -1021 Z" /></clipPath><clipPath
       id="clipPath278"
       clipPathUnits="userSpaceOnUse"><path
         id="path276"
         d="m 144,108 h 892.8 V 760.32 H 144 Z" /></clipPath><clipPath
       id="clipPath288"
       clipPathUnits="userSpaceOnUse"><path
         id="path286"
         d="m 144,108 h 892.8 V 760.32 H 144 Z" /></clipPath><clipPath
       id="clipPath298"
       clipPathUnits="userSpaceOnUse"><path
         id="path296"
         d="m 144,108 h 892.8 V 760.32 H 144 Z" /></clipPath><clipPath
       id="clipPath308"
       clipPathUnits="userSpaceOnUse"><path
         id="path306"
         d="m 144,108 h 892.8 V 760.32 H 144 Z" /></clipPath><clipPath
       id="clipPath318"
       clipPathUnits="userSpaceOnUse"><path
         id="path316"
         d="m 144,108 h 892.8 V 760.32 H 144 Z" /></clipPath><clipPath
       id="clipPath328"
       clipPathUnits="userSpaceOnUse"><path
         id="path326"
         d="m 144,108 h 892.8 V 760.32 H 144 Z" /></clipPath><clipPath
       id="clipPath338"
       clipPathUnits="userSpaceOnUse"><path
         id="path336"
         d="m 144,108 h 892.8 V 760.32 H 144 Z" /></clipPath><clipPath
       id="clipPath348"
       clipPathUnits="userSpaceOnUse"><path
         id="path346"
         d="m 144,108 h 892.8 V 760.32 H 144 Z" /></clipPath><clipPath
       id="clipPath358"
       clipPathUnits="userSpaceOnUse"><path
         id="path356"
         d="m 144,108 h 892.8 V 760.32 H 144 Z" /></clipPath><clipPath
       id="clipPath368"
       clipPathUnits="userSpaceOnUse"><path
         id="path366"
         d="m 144,108 h 892.8 V 760.32 H 144 Z" /></clipPath><clipPath
       id="clipPath378"
       clipPathUnits="userSpaceOnUse"><path
         id="path376"
         d="m 144,108 h 892.8 V 760.32 H 144 Z" /></clipPath><clipPath
       id="clipPath388"
       clipPathUnits="userSpaceOnUse"><path
         id="path386"
         d="m 144,108 h 892.8 V 760.32 H 144 Z" /></clipPath><clipPath
       id="clipPath398"
       clipPathUnits="userSpaceOnUse"><path
         id="path396"
         d="m 144,108 h 892.8 V 760.32 H 144 Z" /></clipPath><clipPath
       id="clipPath408"
       clipPathUnits="userSpaceOnUse"><path
         id="path406"
         d="m 144,108 h 892.8 V 760.32 H 144 Z" /></clipPath><clipPath
       id="clipPath418"
       clipPathUnits="userSpaceOnUse"><path
         id="path416"
         d="m 144,108 h 892.8 V 760.32 H 144 Z" /></clipPath></defs><g
     transform="matrix(1.3333333,0,0,-1.3333333,0,1152)"
     id="g10"><path
       id="path12"
       style="fill:#ffffff;fill-opacity:1;fill-rule:nonzero;stroke:none"
       d="M 0,0 H 1152 V 864 H 0 Z" /><path
       id="path14"
       style="fill:#ffffff;fill-opacity:1;fill-rule:nonzero;stroke:none"
       d="m 144,108 h 892.8 V 760.32 H 144 Z" /><g
       id="g16"><g
         clip-path="url(#clipPath22)"
         id="g18"><path
           id="path24"
           style="fill:none;stroke:#b0b0b0;stroke-width:0.80000001;stroke-linecap:square;stroke-linejoin:round;stroke-miterlimit:10;stroke-dasharray:none;stroke-opacity:1"
           d="M 228.45405,108 V 760.32" /></g></g><g
       id="g26"><path
         id="path28"
         style="fill:#000000;fill-opacity:1;fill-rule:nonzero;stroke:#000000;stroke-width:0.80000001;stroke-linecap:butt;stroke-linejoin:round;stroke-miterlimit:10;stroke-dasharray:none;stroke-opacity:1"
         d="m 228.45405,108 v -3.5" /><text
         id="text32"
         style="font-variant:normal;font-weight:normal;font-size:10px;font-family:'DejaVu Sans';-inkscape-font-specification:DejaVuSans;writing-mode:lr-tb;fill:#000000;fill-opacity:1;fill-rule:nonzero;stroke:none"
         transform="matrix(1,0,0,-1,220.50093,93.40625)"><tspan
           id="tspan30"
           y="0"
           x="0 6.3600001 9.54">2.5</tspan></text>
</g><g
       id="g34"><g
         clip-path="url(#clipPath40)"
         id="g36"><path
           id="path42"
           style="fill:none;stroke:#b0b0b0;stroke-width:0.80000001;stroke-linecap:square;stroke-linejoin:round;stroke-miterlimit:10;stroke-dasharray:none;stroke-opacity:1"
           d="M 338.13464,108 V 760.32" /></g></g><g
       id="g44"><path
         id="path46"
         style="fill:#000000;fill-opacity:1;fill-rule:nonzero;stroke:#000000;stroke-width:0.80000001;stroke-linecap:butt;stroke-linejoin:round;stroke-miterlimit:10;stroke-dasharray:none;stroke-opacity:1"
         d="m 338.13464,108 v -3.5" /><text
         id="text50"
         style="font-variant:normal;font-weight:normal;font-size:10px;font-family:'DejaVu Sans';-inkscape-font-specification:DejaVuSans;writing-mode:lr-tb;fill:#000000;fill-opacity:1;fill-rule:nonzero;stroke:none"
         transform="matrix(1,0,0,-1,330.18152,93.40625)"><tspan
           id="tspan48"
           y="0"
           x="0 6.3600001 9.54">5.0</tspan></text>
</g><g
       id="g52"><g
         clip-path="url(#clipPath58)"
         id="g54"><path
           id="path60"
           style="fill:none;stroke:#b0b0b0;stroke-width:0.80000001;stroke-linecap:square;stroke-linejoin:round;stroke-miterlimit:10;stroke-dasharray:none;stroke-opacity:1"
           d="M 447.81523,108 V 760.32" /></g></g><g
       id="g62"><path
         id="path64"
         style="fill:#000000;fill-opacity:1;fill-rule:nonzero;stroke:#000000;stroke-width:0.80000001;stroke-linecap:butt;stroke-linejoin:round;stroke-miterlimit:10;stroke-dasharray:none;stroke-opacity:1"
         d="m 447.81523,108 v -3.5" /><text
         id="text68"
         style="font-variant:normal;font-weight:normal;font-size:10px;font-family:'DejaVu Sans';-inkscape-font-specification:DejaVuSans;writing-mode:lr-tb;fill:#000000;fill-opacity:1;fill-rule:nonzero;stroke:none"
         transform="matrix(1,0,0,-1,439.86211,93.40625)"><tspan
           id="tspan66"
           y="0"
           x="0 6.3600001 9.54">7.5</tspan></text>
</g><g
       id="g70"><g
         clip-path="url(#clipPath76)"
         id="g72"><path
           id="path78"
           style="fill:none;stroke:#b0b0b0;stroke-width:0.80000001;stroke-linecap:square;stroke-linejoin:round;stroke-miterlimit:10;stroke-dasharray:none;stroke-opacity:1"
           d="M 557.49582,108 V 760.32" /></g></g><g
       id="g80"><path
         id="path82"
         style="fill:#000000;fill-opacity:1;fill-rule:nonzero;stroke:#000000;stroke-width:0.80000001;stroke-linecap:butt;stroke-linejoin:round;stroke-miterlimit:10;stroke-dasharray:none;stroke-opacity:1"
         d="m 557.49582,108 v -3.5" /><text
         id="text86"
         style="font-variant:normal;font-weight:normal;font-size:10px;font-family:'DejaVu Sans';-inkscape-font-specification:DejaVuSans;writing-mode:lr-tb;fill:#000000;fill-opacity:1;fill-rule:nonzero;stroke:none"
         transform="matrix(1,0,0,-1,546.36301,93.40625)"><tspan
           id="tspan84"
           y="0"
           x="0 6.3600001 12.72 15.9">10.0</tspan></text>
</g><g
       id="g88"><g
         clip-path="url(#clipPath94)"
         id="g90"><path
           id="path96"
           style="fill:none;stroke:#b0b0b0;stroke-width:0.80000001;stroke-linecap:square;stroke-linejoin:round;stroke-miterlimit:10;stroke-dasharray:none;stroke-opacity:1"
           d="M 667.17641,108 V 760.32" /></g></g><g
       id="g98"><path
         id="path100"
         style="fill:#000000;fill-opacity:1;fill-rule:nonzero;stroke:#000000;stroke-width:0.80000001;stroke-linecap:butt;stroke-linejoin:round;stroke-miterlimit:10;stroke-dasharray:none;stroke-opacity:1"
         d="m 667.17641,108 v -3.5" /><text
         id="text104"
         style="font-variant:normal;font-weight:normal;font-size:10px;font-family:'DejaVu Sans';-inkscape-font-specification:DejaVuSans;writing-mode:lr-tb;fill:#000000;fill-opacity:1;fill-rule:nonzero;stroke:none"
         transform="matrix(1,0,0,-1,656.0436,93.40625)"><tspan
           id="tspan102"
           y="0"
           x="0 6.3600001 12.72 15.9">12.5</tspan></text>
</g><g
       id="g106"><g
         clip-path="url(#clipPath112)"
         id="g108"><path
           id="path114"
           style="fill:none;stroke:#b0b0b0;stroke-width:0.80000001;stroke-linecap:square;stroke-linejoin:round;stroke-miterlimit:10;stroke-dasharray:none;stroke-opacity:1"
           d="M 776.857,108 V 760.32" /></g></g><g
       id="g116"><path
         id="path118"
         style="fill:#000000;fill-opacity:1;fill-rule:nonzero;stroke:#000000;stroke-width:0.80000001;stroke-linecap:butt;stroke-linejoin:round;stroke-miterlimit:10;stroke-dasharray:none;stroke-opacity:1"
         d="m 776.857,108 v -3.5" /><text
         id="text122"
         style="font-variant:normal;font-weight:normal;font-size:10px;font-family:'DejaVu Sans';-inkscape-font-specification:DejaVuSans;writing-mode:lr-tb;fill:#000000;fill-opacity:1;fill-rule:nonzero;stroke:none"
         transform="matrix(1,0,0,-1,765.72419,93.40625)"><tspan
           id="tspan120"
           y="0"
           x="0 6.3600001 12.72 15.9">15.0</tspan></text>
</g><g
       id="g124"><g
         clip-path="url(#clipPath130)"
         id="g126"><path
           id="path132"
           style="fill:none;stroke:#b0b0b0;stroke-width:0.80000001;stroke-linecap:square;stroke-linejoin:round;stroke-miterlimit:10;stroke-dasharray:none;stroke-opacity:1"
           d="M 886.53759,108 V 760.32" /></g></g><g
       id="g134"><path
         id="path136"
         style="fill:#000000;fill-opacity:1;fill-rule:nonzero;stroke:#000000;stroke-width:0.80000001;stroke-linecap:butt;stroke-linejoin:round;stroke-miterlimit:10;stroke-dasharray:none;stroke-opacity:1"
         d="m 886.53759,108 v -3.5" /><text
         id="text140"
         style="font-variant:normal;font-weight:normal;font-size:10px;font-family:'DejaVu Sans';-inkscape-font-specification:DejaVuSans;writing-mode:lr-tb;fill:#000000;fill-opacity:1;fill-rule:nonzero;stroke:none"
         transform="matrix(1,0,0,-1,875.40478,93.40625)"><tspan
           id="tspan138"
           y="0"
           x="0 6.3600001 12.72 15.9">17.5</tspan></text>
</g><g
       id="g142"><g
         clip-path="url(#clipPath148)"
         id="g144"><path
           id="path150"
           style="fill:none;stroke:#b0b0b0;stroke-width:0.80000001;stroke-linecap:square;stroke-linejoin:round;stroke-miterlimit:10;stroke-dasharray:none;stroke-opacity:1"
           d="M 996.21818,108 V 760.32" /></g></g><g
       id="g152"><path
         id="path154"
         style="fill:#000000;fill-opacity:1;fill-rule:nonzero;stroke:#000000;stroke-width:0.80000001;stroke-linecap:butt;stroke-linejoin:round;stroke-miterlimit:10;stroke-dasharray:none;stroke-opacity:1"
         d="m 996.21818,108 v -3.5" /><text
         id="text158"
         style="font-variant:normal;font-weight:normal;font-size:10px;font-family:'DejaVu Sans';-inkscape-font-specification:DejaVuSans;writing-mode:lr-tb;fill:#000000;fill-opacity:1;fill-rule:nonzero;stroke:none"
         transform="matrix(1,0,0,-1,985.08537,93.40625)"><tspan
           id="tspan156"
           y="0"
           x="0 6.3600001 12.72 15.9">20.0</tspan></text>
<text
         id="text162"
         style="font-variant:normal;font-weight:normal;font-size:24px;font-family:'DejaVu Sans';-inkscape-font-specification:DejaVuSans;writing-mode:lr-tb;fill:#000000;fill-opacity:1;fill-rule:nonzero;stroke:none"
         transform="matrix(1,0,0,-1,496.61875,69.09375)"><tspan
           id="tspan160"
           y="0"
           x="0 14.664 29.424 52.799999 68.040001 82.800003 92.664001 107.376 116.784 132 141.864 156.62399 164.256 171.888">Temperature, K</tspan></text>
</g><g
       id="g164"><g
         clip-path="url(#clipPath170)"
         id="g166"><path
           id="path172"
           style="fill:none;stroke:#b0b0b0;stroke-width:0.80000001;stroke-linecap:square;stroke-linejoin:round;stroke-miterlimit:10;stroke-dasharray:none;stroke-opacity:1"
           d="m 144,138.58319 h 892.8" /></g></g><g
       id="g174"><path
         id="path176"
         style="fill:#000000;fill-opacity:1;fill-rule:nonzero;stroke:#000000;stroke-width:0.80000001;stroke-linecap:butt;stroke-linejoin:round;stroke-miterlimit:10;stroke-dasharray:none;stroke-opacity:1"
         d="m 144,138.58319 h -3.5" /><text
         id="text180"
         style="font-variant:normal;font-weight:normal;font-size:10px;font-family:'DejaVu Sans';-inkscape-font-specification:DejaVuSans;writing-mode:lr-tb;fill:#000000;fill-opacity:1;fill-rule:nonzero;stroke:none"
         transform="matrix(1,0,0,-1,130.64062,134.78632)"><tspan
           id="tspan178"
           y="0"
           x="0">0</tspan></text>
</g><g
       id="g182"><g
         clip-path="url(#clipPath188)"
         id="g184"><path
           id="path190"
           style="fill:none;stroke:#b0b0b0;stroke-width:0.80000001;stroke-linecap:square;stroke-linejoin:round;stroke-miterlimit:10;stroke-dasharray:none;stroke-opacity:1"
           d="m 144,276.78036 h 892.8" /></g></g><g
       id="g192"><path
         id="path194"
         style="fill:#000000;fill-opacity:1;fill-rule:nonzero;stroke:#000000;stroke-width:0.80000001;stroke-linecap:butt;stroke-linejoin:round;stroke-miterlimit:10;stroke-dasharray:none;stroke-opacity:1"
         d="m 144,276.78036 h -3.5" /><text
         id="text198"
         style="font-variant:normal;font-weight:normal;font-size:10px;font-family:'DejaVu Sans';-inkscape-font-specification:DejaVuSans;writing-mode:lr-tb;fill:#000000;fill-opacity:1;fill-rule:nonzero;stroke:none"
         transform="matrix(1,0,0,-1,130.64062,272.98349)"><tspan
           id="tspan196"
           y="0"
           x="0">5</tspan></text>
</g><g
       id="g200"><g
         clip-path="url(#clipPath206)"
         id="g202"><path
           id="path208"
           style="fill:none;stroke:#b0b0b0;stroke-width:0.80000001;stroke-linecap:square;stroke-linejoin:round;stroke-miterlimit:10;stroke-dasharray:none;stroke-opacity:1"
           d="m 144,414.97753 h 892.8" /></g></g><g
       id="g210"><path
         id="path212"
         style="fill:#000000;fill-opacity:1;fill-rule:nonzero;stroke:#000000;stroke-width:0.80000001;stroke-linecap:butt;stroke-linejoin:round;stroke-miterlimit:10;stroke-dasharray:none;stroke-opacity:1"
         d="m 144,414.97753 h -3.5" /><text
         id="text216"
         style="font-variant:normal;font-weight:normal;font-size:10px;font-family:'DejaVu Sans';-inkscape-font-specification:DejaVuSans;writing-mode:lr-tb;fill:#000000;fill-opacity:1;fill-rule:nonzero;stroke:none"
         transform="matrix(1,0,0,-1,124.28125,411.18065)"><tspan
           id="tspan214"
           y="0"
           x="0 6.3600001">10</tspan></text>
</g><g
       id="g218"><g
         clip-path="url(#clipPath224)"
         id="g220"><path
           id="path226"
           style="fill:none;stroke:#b0b0b0;stroke-width:0.80000001;stroke-linecap:square;stroke-linejoin:round;stroke-miterlimit:10;stroke-dasharray:none;stroke-opacity:1"
           d="m 144,553.1747 h 892.8" /></g></g><g
       id="g228"><path
         id="path230"
         style="fill:#000000;fill-opacity:1;fill-rule:nonzero;stroke:#000000;stroke-width:0.80000001;stroke-linecap:butt;stroke-linejoin:round;stroke-miterlimit:10;stroke-dasharray:none;stroke-opacity:1"
         d="m 144,553.1747 h -3.5" /><text
         id="text234"
         style="font-variant:normal;font-weight:normal;font-size:10px;font-family:'DejaVu Sans';-inkscape-font-specification:DejaVuSans;writing-mode:lr-tb;fill:#000000;fill-opacity:1;fill-rule:nonzero;stroke:none"
         transform="matrix(1,0,0,-1,124.28125,549.37782)"><tspan
           id="tspan232"
           y="0"
           x="0 6.3600001">15</tspan></text>
</g><g
       id="g236"><g
         clip-path="url(#clipPath242)"
         id="g238"><path
           id="path244"
           style="fill:none;stroke:#b0b0b0;stroke-width:0.80000001;stroke-linecap:square;stroke-linejoin:round;stroke-miterlimit:10;stroke-dasharray:none;stroke-opacity:1"
           d="m 144,691.37186 h 892.8" /></g></g><g
       id="g246"><path
         id="path248"
         style="fill:#000000;fill-opacity:1;fill-rule:nonzero;stroke:#000000;stroke-width:0.80000001;stroke-linecap:butt;stroke-linejoin:round;stroke-miterlimit:10;stroke-dasharray:none;stroke-opacity:1"
         d="m 144,691.37186 h -3.5" /><text
         id="text252"
         style="font-variant:normal;font-weight:normal;font-size:10px;font-family:'DejaVu Sans';-inkscape-font-specification:DejaVuSans;writing-mode:lr-tb;fill:#000000;fill-opacity:1;fill-rule:nonzero;stroke:none"
         transform="matrix(1,0,0,-1,124.28125,687.57499)"><tspan
           id="tspan250"
           y="0"
           x="0 6.3600001">20</tspan></text>
<g
         transform="rotate(90,-92.439375,207.72062)"
         id="g254"><text
           id="text258"
           style="font-variant:normal;font-weight:normal;font-size:24px;font-family:'DejaVu Sans';-inkscape-font-specification:DejaVuSans;writing-mode:lr-tb;fill:#000000;fill-opacity:1;fill-rule:nonzero;stroke:none"
           transform="matrix(1,0,0,-1,0,0.765625)"><tspan
             id="tspan256"
             y="0"
             x="0 18.046875 32.8125 47.519531 56.929688 64.558594 81.316406 96.023438 111.25781 125.96484 139.16016 145.82812 155.23828 169.44141 177.07031 184.69922 191.77734 199.86328 213.76172 228.99609 251.88281">Heat Capacity, J/kg K</tspan></text>
<g
           transform="matrix(0.024,0,0,0.024,236.625,0.765625)"
           id="g260"><g
             id="g262"><g
               clip-path="url(#clipPath268)"
               id="g264"><path
                 id="path270"
                 style="fill:#000000;fill-opacity:1;fill-rule:nonzero;stroke:none"
                 d="M 107,409 H 210 V 285 H 107 v 124" /></g></g></g></g></g><g
       id="g272"><g
         clip-path="url(#clipPath278)"
         id="g274"><path
           id="path280"
           style="fill:none;stroke:#1f77b4;stroke-width:1.5;stroke-linecap:square;stroke-linejoin:round;stroke-miterlimit:10;stroke-dasharray:none;stroke-opacity:1"
           d="m 184.58182,138.81051 21.93612,0.26995 10.96805,0.26403 10.96806,0.49914 5.48403,0.40522 5.48403,0.56121 5.48403,0.76367 5.48403,1.01256 5.48403,1.31543 5.48403,1.69736 5.48403,2.16363 5.48403,2.71424 5.48403,3.34894 5.48403,4.05771 5.48403,4.8274 5.48403,5.65711 5.48403,6.54682 5.48403,7.49655 5.48403,8.50235 5.48403,9.54503 5.48402,10.61881 5.48403,11.72368 5.48403,12.85965 5.48403,14.02669 5.48403,15.2233 5.48403,16.3739 5.48403,17.37032 5.48403,18.20418 5.48403,18.87553 10.96806,39.1149 16.45209,59.6304 5.48403,19.43601 5.48403,18.89936 5.48403,18.171 5.48403,17.25094 5.48403,16.13916 5.48402,14.83566 5.48403,13.34046 5.48403,11.65354 5.48403,9.81409 5.48403,8.03305 5.48403,6.38117 5.48403,4.85845 5.48403,3.46492 5.48403,2.20058 5.48403,1.0654 5.48403,0.0594 5.48403,-0.81737 5.48403,-1.56499 5.48403,-2.18343 5.48403,-2.67496 5.48403,-3.08009 5.48403,-3.43371 5.48403,-3.73694 5.48403,-3.98977 5.48403,-4.19222 10.96806,-8.79024 16.45208,-13.44402 5.48403,-4.34877 5.48403,-4.19849 5.48403,-3.99785 5.48403,-3.75501 5.48403,-3.50494 5.48403,-3.25692 5.48403,-3.01094 5.48403,-2.76701 5.48403,-2.52512 5.48403,-2.2853 5.48403,-2.0475 5.48403,-1.81177 5.48403,-1.57807 5.48403,-1.34643 5.48402,-1.11684 5.48403,-0.88928 5.48403,-0.66379 5.48403,-0.44033 5.48403,-0.21892 5.48403,-5e-5 5.48403,0.2132 5.48403,0.4196 5.48403,0.61915 5.48403,0.81183 5.48403,0.99767 5.48403,1.17665 5.48403,1.34877 5.48403,1.51405 5.48403,1.67246 5.48403,1.82402 5.48403,1.96873 5.48403,2.10657 5.48403,2.23758 10.96805,4.84072 10.96806,5.28244 10.96806,5.66956 10.96806,6.02021 10.96806,6.36579 10.96806,6.70947 10.96806,7.05121 10.96806,7.39104 10.96806,7.72893 10.96806,8.06492 10.96805,8.39896 10.96806,8.73109 10.96806,9.0613 10.96806,9.38958 10.96806,9.71581 10.96806,10.03767 10.96806,10.35309 10.96806,10.66201 10.96806,10.96444 10.96805,11.26036 10.96806,11.54979 10.96806,11.83271 10.96806,12.10914 5.48403,6.1562 v 0" /></g></g><g
       id="g282"><g
         clip-path="url(#clipPath288)"
         id="g284"><path
           id="path290"
           style="fill:none;stroke:#ff7f0e;stroke-width:1.5;stroke-linecap:square;stroke-linejoin:round;stroke-miterlimit:10;stroke-dasharray:none;stroke-opacity:1"
           d="m 184.58182,139.26197 10.96806,0.19815 21.93611,-0.065 5.48403,0.1077 5.48403,0.2327 5.48403,0.39545 5.48403,0.59591 5.48403,0.83408 5.48403,1.10999 5.48403,1.42428 5.48403,1.79566 5.48403,2.24485 5.48403,2.77288 5.48403,3.37977 5.48403,4.06553 5.48403,4.83015 5.48403,5.67216 5.48403,6.5706 5.48403,7.50973 5.48403,8.48916 5.48403,9.5089 5.48402,10.56895 5.48403,11.6693 5.48403,12.80409 5.48403,13.92151 5.48403,14.99457 5.48403,16.02306 5.48403,17.00698 5.48403,17.94632 5.48403,18.8411 5.48403,19.66225 10.96806,40.82466 10.96806,40.9635 5.48403,19.83578 5.48403,19.03286 5.48403,17.98899 5.48403,16.82362 5.48403,15.56005 5.48402,14.19826 5.48403,12.73826 5.48403,11.18004 5.48403,9.52429 5.48403,7.84376 5.48403,6.27458 5.48403,4.83173 5.48403,3.5152 5.48403,2.32498 5.48403,1.26109 5.48403,0.32278 5.48403,-0.51249 5.48403,-1.27103 5.48403,-1.95429 5.48403,-2.56232 5.48403,-3.09507 5.48403,-3.55258 5.48403,-3.93496 5.48403,-4.24431 5.48403,-4.48222 10.96806,-9.39267 10.96805,-9.48772 5.48403,-4.60553 5.48403,-4.45958 5.48403,-4.29905 5.48403,-4.12408 5.48403,-3.93462 5.48403,-3.73072 5.48403,-3.51234 5.48403,-3.28008 5.48403,-3.0371 5.48403,-2.78448 5.48403,-2.52224 5.48403,-2.25035 5.48403,-1.96884 5.48403,-1.67768 5.48403,-1.38144 5.48402,-1.09674 5.48403,-0.82737 5.48403,-0.57335 5.48403,-0.33465 5.48403,-0.11131 5.48403,0.0967 5.48403,0.29069 5.48403,0.47361 5.48403,0.64588 5.48403,0.80751 5.48403,0.95848 5.48403,1.09881 5.48403,1.22861 5.48403,1.35451 5.48403,1.48652 5.48403,1.62549 5.48403,1.77141 5.48403,1.9243 5.48403,2.08414 5.48403,2.2505 5.48402,2.41347 5.48403,2.56353 10.96806,5.52385 10.96806,5.96404 10.96806,6.31337 10.96806,6.67325 10.96806,7.08365 10.96806,7.54312 10.96806,8.00313 10.96806,8.40621 10.96806,8.74902 10.96805,9.02422 21.93612,18.48605 21.93612,18.65047 10.96806,9.75275 5.48403,5.10184 5.48403,5.29683 5.48403,5.49566 10.96806,11.43819 32.90417,35.03708 5.48403,5.52892 5.48403,5.33455 5.48403,5.10055 v 0" /></g></g><g
       id="g292"><g
         clip-path="url(#clipPath298)"
         id="g294"><path
           id="path300"
           style="fill:none;stroke:#2ca02c;stroke-width:1.5;stroke-linecap:square;stroke-linejoin:round;stroke-miterlimit:10;stroke-dasharray:none;stroke-opacity:1"
           d="m 184.58182,139.34837 10.96806,0.15667 21.93611,-0.0204 5.48403,0.14619 5.48403,0.2824 5.48403,0.45647 5.48403,0.66838 5.48403,0.91815 5.48403,1.20576 5.48403,1.53232 5.48403,1.91804 5.48403,2.38088 5.48403,2.92147 5.48403,3.53981 5.48403,4.23589 5.48403,5.00972 5.48403,5.85941 5.48403,6.76073 5.48403,7.6969 5.48403,8.66758 5.48403,9.67279 5.48402,10.71251 5.48403,11.78675 5.48403,12.89023 5.48403,13.97489 5.48403,15.01505 5.48403,16.01046 5.48403,16.96113 5.48403,17.86706 5.48403,18.72825 5.48403,19.5178 10.96806,40.4548 10.96806,40.49661 5.48403,19.56999 5.48403,18.74767 5.48403,17.68564 5.48403,16.51243 5.48403,15.25522 5.48402,13.91403 5.48403,12.48887 5.48403,10.97972 5.48403,9.38714 5.48403,7.7722 5.48403,6.25075 5.48403,4.83573 5.48403,3.52712 5.48403,2.32494 5.48403,1.22917 5.48403,0.23958 5.48403,-0.65063 5.48403,-1.44887 5.48403,-2.15554 5.48403,-2.77064 5.48403,-3.29414 5.48403,-3.72609 5.48403,-4.06752 5.48403,-4.33178 10.96805,-9.18373 16.45209,-14.0556 5.48403,-4.49373 5.48403,-4.33157 5.48403,-4.16024 5.48403,-3.97979 5.48403,-3.79018 5.48403,-3.59146 5.48403,-3.38359 5.48403,-3.16673 5.48403,-2.94147 5.48403,-2.70804 5.48403,-2.46638 5.48403,-2.21652 5.48403,-1.95847 5.48403,-1.69222 5.48403,-1.42238 5.48402,-1.16287 5.48403,-0.91627 5.48403,-0.6826 5.48403,-0.46186 5.48403,-0.25403 5.48403,-0.0591 5.48403,0.12698 5.48403,0.312 5.48403,0.49686 5.48403,0.68158 5.48403,0.86614 5.48403,1.05054 5.48403,1.23462 5.48403,1.41162 5.48403,1.57283 5.48403,1.71764 10.96806,3.80419 10.96806,4.18763 10.96805,4.52101 5.48403,2.41529 5.48403,2.53757 5.48403,2.67418 5.48403,2.82509 5.48403,2.98918 5.48403,3.15412 5.48403,3.3125 5.48403,3.46422 5.48403,3.60925 10.96806,7.62698 10.96806,8.12895 10.96806,8.58821 10.96806,9.00746 10.96805,9.38363 16.45209,14.51981 16.45209,14.52495 21.93612,19.08817 10.96806,9.99007 5.48403,5.24038 5.48403,5.4267 10.96806,11.29963 10.96805,11.69325 21.93612,23.6009 10.96806,11.4244 5.48403,5.51248 v 0" /></g></g><g
       id="g302"><g
         clip-path="url(#clipPath308)"
         id="g304"><path
           id="path310"
           style="fill:none;stroke:#d62728;stroke-width:1.5;stroke-linecap:square;stroke-linejoin:round;stroke-miterlimit:10;stroke-dasharray:none;stroke-opacity:1"
           d="m 184.58182,139.34464 10.96806,0.13533 16.45209,-0.0298 5.48402,0.0872 5.48403,0.20208 5.48403,0.35678 5.48403,0.55129 5.48403,0.78559 5.48403,1.0597 5.48403,1.3736 5.48403,1.72868 5.48403,2.1443 5.48403,2.63495 5.48403,3.20097 5.48403,3.84236 5.48403,4.55912 5.48403,5.35125 5.48403,6.21632 5.48403,7.12497 5.48403,8.05753 5.48403,9.01368 5.48403,9.99337 5.48402,10.99666 5.48403,12.02349 5.48403,13.06941 5.48403,14.09041 5.48403,15.06159 5.48403,15.98267 5.48403,16.85363 5.48403,17.6745 5.48403,18.44525 5.48403,19.14474 21.93612,78.80104 5.48403,18.92155 5.48403,18.0763 5.48403,16.99754 5.48403,15.81709 5.48403,14.5675 5.48402,13.24877 5.48403,11.8609 5.48403,10.40388 5.48403,8.87798 5.48403,7.33324 5.48403,5.88029 5.48403,4.53392 5.48403,3.29414 5.48403,2.16094 5.48403,1.13433 5.48403,0.21398 5.48403,-0.61115 5.48403,-1.35452 5.48403,-2.01692 5.48403,-2.59837 5.48403,-3.09884 5.48403,-3.51838 5.48403,-3.85757 5.48403,-4.12501 10.96805,-8.79025 16.45209,-13.55468 5.48403,-4.36049 5.48403,-4.21609 5.48403,-4.06108 5.48403,-3.89549 5.48403,-3.71934 5.48403,-3.53262 5.48403,-3.33533 5.48403,-3.12794 5.48403,-2.91247 5.48403,-2.68951 5.48403,-2.459 5.48403,-2.22101 5.48403,-1.97548 5.48403,-1.72245 5.48403,-1.4648 5.48402,-1.21078 5.48403,-0.96183 5.48403,-0.71795 5.48403,-0.47914 5.48403,-0.24541 5.48403,-0.0168 5.48403,0.20348 5.48403,0.40938 5.48403,0.60029 5.48403,0.77621 5.48403,0.93715 5.48403,1.08308 5.48403,1.21426 5.48403,1.33946 5.48403,1.47018 5.48403,1.6072 5.48403,1.75052 5.48403,1.90012 5.48403,2.05603 5.48403,2.21783 5.48402,2.37721 5.48403,2.52629 5.48403,2.66475 10.96806,5.70243 10.96806,6.12983 10.96806,6.52416 10.96806,6.96151 10.96806,7.44817 10.96806,7.96252 10.96806,8.39413 10.96806,8.70777 16.45208,13.42156 10.96806,9.18646 10.96806,9.44937 10.96806,9.77268 10.96806,10.10909 10.96806,10.42062 10.96806,10.7062 10.96806,10.96345 16.45208,16.8525 16.45209,17.23614 21.93612,23.37384 v 0" /></g></g><g
       id="g312"><g
         clip-path="url(#clipPath318)"
         id="g314"><path
           id="path320"
           style="fill:none;stroke:#9467bd;stroke-width:1.5;stroke-linecap:square;stroke-linejoin:round;stroke-miterlimit:10;stroke-dasharray:none;stroke-opacity:1"
           d="m 184.58182,139.4211 10.96806,0.14354 16.45209,-0.0303 5.48402,0.11138 5.48403,0.25002 5.48403,0.4354 5.48403,0.66753 5.48403,0.94639 5.48403,1.27201 5.48403,1.64436 5.48403,2.06418 5.48403,2.54011 5.48403,3.07787 5.48403,3.67757 5.48403,4.33921 5.48403,5.06276 5.48403,5.84827 5.48403,6.69377 5.48403,7.57633 5.48403,8.48082 5.48403,9.40703 5.48403,10.35492 5.48402,11.3245 5.48403,12.31577 5.48403,13.32365 5.48403,14.29281 5.48403,15.18945 5.48403,16.01306 5.48403,16.76362 5.48403,17.44116 5.48403,18.04568 10.96806,37.46299 10.96806,37.86306 5.48403,18.49716 5.48403,17.89584 5.48403,17.06072 5.48403,16.01584 5.48403,14.87785 5.48403,13.682 5.48402,12.4283 5.48403,11.11677 5.48403,9.7474 5.48403,8.32023 5.48403,6.87172 5.48403,5.50028 5.48403,4.22239 5.48403,3.03802 5.48403,1.9472 5.48403,0.94991 5.48403,0.0462 5.48403,-0.76413 5.48403,-1.48104 5.48403,-2.10461 5.48403,-2.63482 5.48403,-3.07166 5.48403,-3.41515 5.48403,-3.66682 5.48403,-3.85426 10.96805,-8.1107 27.42015,-20.7938 10.96806,-7.7835 5.48403,-3.66113 5.48403,-3.47048 5.48403,-3.25215 5.48403,-3.00972 5.48403,-2.76114 5.48403,-2.51199 5.48403,-2.26227 5.48403,-2.012 5.48403,-1.76116 5.48403,-1.50975 5.48403,-1.25954 5.48402,-1.01631 5.48403,-0.7812 5.48403,-0.55425 5.48403,-0.33543 5.48403,-0.12476 5.48403,0.0778 5.48403,0.27285 5.48403,0.46188 5.48403,0.645 5.48403,0.82226 5.48403,0.99364 5.48403,1.15912 5.48403,1.31869 5.48403,1.46953 5.48403,1.60761 10.96806,3.57695 10.96806,3.97183 10.96805,4.27784 10.96806,4.63627 5.48403,2.49179 5.48403,2.62864 5.48403,2.78126 5.48403,2.94894 5.48403,3.12251 5.48403,3.29585 5.48403,3.46885 5.48403,3.64152 5.48403,3.81386 5.48403,3.98584 5.48403,4.15603 10.96806,8.7665 10.96806,9.25404 10.96806,9.59944 38.3882,34.05305 27.42015,23.37719 5.48403,4.96037 5.48403,5.17327 5.48403,5.4044 10.96806,11.34849 16.45208,17.73408 10.96806,11.80079 10.96806,11.38632 5.48403,5.43142 5.48403,5.20021 v 0" /></g></g><g
       id="g322"><g
         clip-path="url(#clipPath328)"
         id="g324"><path
           id="path330"
           style="fill:none;stroke:#8c564b;stroke-width:1.5;stroke-linecap:square;stroke-linejoin:round;stroke-miterlimit:10;stroke-dasharray:none;stroke-opacity:1"
           d="m 184.58182,139.30469 10.96806,0.1179 10.96806,0.0434 5.48403,0.1132 5.48402,0.23787 5.48403,0.41031 5.48403,0.63051 5.48403,0.89848 5.48403,1.21421 5.48403,1.57771 5.48403,1.98897 5.48403,2.44866 5.48403,2.9639 5.48403,3.53902 5.48403,4.17406 5.48403,4.86904 5.48403,5.62396 5.48403,6.43881 5.48403,7.31083 5.48403,8.20441 5.48403,9.09469 5.48403,9.98119 5.48403,10.86389 5.48402,11.74281 5.48403,12.61793 5.48403,13.48657 5.48403,14.31348 5.48403,15.07398 5.48403,15.76753 5.48403,16.39415 5.48403,16.95383 5.48403,17.44659 10.96806,35.97417 10.96806,36.06727 5.48403,17.50689 5.48403,16.85604 5.48403,15.98042 5.48403,14.90062 5.48403,13.74435 5.48403,12.56049 5.48402,11.34912 5.48403,10.11026 5.48403,8.84389 5.48403,7.55003 5.48403,6.24796 5.48403,5.00645 5.48403,3.84088 5.48403,2.75119 5.48403,1.73744 5.48403,0.79959 5.48403,-0.0623 5.48403,-0.8437 5.48403,-1.53624 5.48403,-2.139 5.48403,-2.65198 5.48403,-3.0752 5.48403,-3.40865 5.48403,-3.65303 10.96806,-7.77689 21.93611,-16.04058 5.48403,-3.8252 5.48403,-3.68449 5.48403,-3.54007 5.48403,-3.39213 5.48403,-3.24064 5.48403,-3.08562 5.48403,-2.92705 5.48403,-2.76301 5.48403,-2.58177 5.48403,-2.37895 5.48403,-2.15454 5.48403,-1.90856 5.48403,-1.64098 5.48403,-1.35182 5.48403,-1.04942 5.48402,-0.76712 5.48403,-0.51327 5.48403,-0.28788 5.48403,-0.0909 5.48403,0.0776 5.48403,0.21764 5.48403,0.33767 5.48403,0.45886 5.48403,0.58452 5.48403,0.71466 5.48403,0.84927 5.48403,0.98835 5.48403,1.13189 5.48403,1.27926 5.48403,1.42932 5.48403,1.58197 5.48403,1.73719 5.48403,1.89499 5.48403,2.05538 5.48403,2.21829 5.48402,2.38138 5.48403,2.54179 5.48403,2.69928 5.48403,2.85389 5.48403,3.0056 5.48403,3.15443 5.48403,3.30003 10.96806,6.99654 10.96806,7.43331 10.96806,7.75936 10.96806,7.9971 10.96806,8.28573 10.96806,8.67861 10.96805,9.17164 10.96806,9.63561 16.45209,14.92825 27.42015,25.08293 10.96806,10.3437 10.96806,10.76098 10.96806,11.14351 38.3882,39.49769 10.96806,10.70053 v 0" /></g></g><g
       id="g332"><g
         clip-path="url(#clipPath338)"
         id="g334"><path
           id="path340"
           style="fill:none;stroke:#e377c2;stroke-width:1.5;stroke-linecap:square;stroke-linejoin:round;stroke-miterlimit:10;stroke-dasharray:none;stroke-opacity:1"
           d="m 184.58182,139.26039 27.42015,0.4968 5.48402,0.38283 5.48403,0.60158 5.48403,0.87358 5.48403,1.19883 5.48403,1.57734 5.48403,2.00909 5.48403,2.49411 5.48403,3.03149 5.48403,3.61227 5.48403,4.23133 5.48403,4.8886 5.48403,5.58407 5.48403,6.31775 5.48403,7.08965 5.48403,7.8981 5.48403,8.71873 5.48403,9.53295 5.48403,10.34028 5.48403,11.14071 5.48402,11.93427 5.48403,12.72092 5.48403,13.4987 5.48403,14.23055 5.48403,14.88378 5.48403,15.45726 5.48403,15.95099 10.96806,33.06422 21.93612,67.70088 5.48403,16.25382 5.48403,15.60657 5.48403,14.76993 5.48403,13.75405 5.48403,12.65227 5.48403,11.5147 5.48402,10.34182 5.48403,9.13363 5.48403,7.89012 5.48403,6.6113 5.48403,5.31805 5.48403,4.11515 5.48403,3.0354 5.48403,2.07884 5.48403,1.24545 5.48403,0.53524 5.48403,-0.0519 5.48403,-0.54312 5.48403,-1.00888 5.48403,-1.46026 5.48403,-1.89728 5.48403,-2.31993 5.48403,-2.72822 5.48403,-3.12149 5.48403,-3.47055 5.48403,-3.73492 10.96806,-7.91241 10.96805,-7.91814 5.48403,-3.7466 5.48403,-3.5452 5.48403,-3.34425 5.48403,-3.14427 5.48403,-2.94526 5.48403,-2.7472 5.48403,-2.55011 5.48403,-2.35385 5.48403,-2.15734 5.48403,-1.96012 5.48403,-1.76216 5.48403,-1.56348 5.48403,-1.36408 5.48403,-1.16394 5.48403,-0.96467 5.48402,-0.77361 5.48403,-0.59287 5.48403,-0.42245 5.48403,-0.26236 5.48403,-0.11261 5.48403,0.0268 5.48403,0.15983 5.48403,0.29802 5.48403,0.44357 5.48403,0.5965 5.48403,0.7568 5.48403,0.92445 5.48403,1.09948 5.48403,1.27991 5.48403,1.46163 5.48403,1.64411 5.48403,1.82733 5.48403,2.01131 5.48403,2.19604 5.48403,2.38149 5.48402,2.56484 5.48403,2.74167 5.48403,2.91158 5.48403,3.07459 5.48403,3.23067 5.48403,3.37985 10.96806,7.17566 10.96806,7.64509 10.96806,7.9989 16.45209,12.42454 10.96806,8.53686 10.96806,8.80468 10.96805,9.13028 10.96806,9.43938 16.45209,14.49171 21.93612,19.49359 10.96806,10.01761 10.96806,10.4455 10.96806,10.9789 10.96806,11.35881 27.42014,28.71552 10.96806,11.07615 5.48403,5.34783 v 0" /></g></g><g
       id="g342"><g
         clip-path="url(#clipPath348)"
         id="g344"><path
           id="path350"
           style="fill:none;stroke:#7f7f7f;stroke-width:1.5;stroke-linecap:square;stroke-linejoin:round;stroke-miterlimit:10;stroke-dasharray:none;stroke-opacity:1"
           d="m 184.58182,139.09854 16.45209,0.30654 5.48403,0.2541 5.48403,0.42046 5.48402,0.64105 5.48403,0.91589 5.48403,1.24496 5.48403,1.62828 5.48403,2.06583 5.48403,2.55762 5.48403,3.10365 5.48403,3.70212 5.48403,4.33422 5.48403,4.9887 5.48403,5.66543 5.48403,6.36441 5.48403,7.08563 5.48403,7.8291 5.48403,8.59348 5.48403,9.35369 5.48403,10.08732 5.48403,10.79354 5.48403,11.47241 5.48402,12.12387 5.48403,12.74797 5.48403,13.34403 5.48403,13.89391 5.48403,14.37715 5.48403,14.79265 10.96806,30.56091 27.42015,78.2038 5.48403,14.85032 5.48403,14.18941 5.48403,13.35642 5.48403,12.35726 5.48403,11.2831 5.48403,10.20517 5.48402,9.12539 5.48403,8.04374 5.48403,6.96023 5.48403,5.87486 5.48403,4.79462 5.48403,3.77476 5.48403,2.84143 5.48403,1.99482 5.48403,1.23491 5.48403,0.56171 5.48403,-0.0248 5.48403,-0.53349 5.48403,-0.9978 5.48403,-1.42556 5.48403,-1.81678 5.48403,-2.17144 5.48403,-2.48956 5.48403,-2.77106 5.48403,-3.01083 5.48403,-3.19915 10.96806,-6.75324 16.45208,-10.23072 10.96806,-6.38228 5.48403,-2.9995 5.48403,-2.85309 5.48403,-2.6927 5.48403,-2.51834 5.48403,-2.33037 5.48403,-2.13249 5.48403,-1.92672 5.48403,-1.71308 5.48403,-1.49158 5.48403,-1.26223 5.48403,-1.025 5.48403,-0.78277 5.48402,-0.55291 5.48403,-0.34207 5.48403,-0.15024 5.48403,0.0226 5.48403,0.17638 5.48403,0.31116 5.48403,0.43205 5.48403,0.55849 5.48403,0.69509 5.48403,0.84185 5.48403,0.99877 5.48403,1.16585 5.48403,1.34308 5.48403,1.52554 5.48403,1.70027 5.48403,1.86514 5.48403,2.02016 5.48403,2.16534 5.48403,2.30066 10.96805,4.97342 5.48403,2.67369 5.48403,2.80669 5.48403,2.94623 5.48403,3.09228 5.48403,3.24489 5.48403,3.40372 10.96806,7.24495 10.96806,7.67979 16.45209,11.9391 10.96806,8.10737 10.96806,8.40857 5.48403,4.38331 5.48403,4.53791 5.48402,4.71476 10.96806,9.8671 32.90418,30.30385 16.45209,14.79461 10.96806,10.15177 10.96806,10.59499 16.45208,16.44937 21.93612,22.02245 10.96806,10.64279 5.48403,5.15016 v 0" /></g></g><g
       id="g352"><g
         clip-path="url(#clipPath358)"
         id="g354"><path
           id="path360"
           style="fill:none;stroke:#bcbd22;stroke-width:1.5;stroke-linecap:square;stroke-linejoin:round;stroke-miterlimit:10;stroke-dasharray:none;stroke-opacity:1"
           d="m 184.58182,138.89074 10.96806,0.26095 5.48403,0.30152 5.48403,0.48682 5.48403,0.72557 5.48402,1.01777 5.48403,1.36343 5.48403,1.76253 5.48403,2.21508 5.48403,2.7211 5.48403,3.28055 5.48403,3.89346 5.48403,4.55661 5.48403,5.23573 5.48403,5.91025 5.48403,6.57985 5.48403,7.24453 5.48403,7.9043 5.48403,8.55917 5.48403,9.20852 5.48403,9.83775 5.48403,10.43183 5.48403,10.99011 5.48403,11.51255 5.48402,11.99918 5.48403,12.44997 5.48403,12.86484 5.48403,13.23842 10.96806,27.40057 10.96806,28.30075 21.93612,57.48504 5.48403,13.93987 5.48403,13.46646 5.48403,12.83869 5.48403,12.05659 5.48403,11.12277 5.48403,10.11273 5.48403,9.11116 5.48402,8.12252 5.48403,7.14686 5.48403,6.18414 5.48403,5.23437 5.48403,4.29971 5.48403,3.4076 5.48403,2.57712 5.48403,1.80862 5.48403,1.10215 5.48403,0.45767 5.48403,-0.12481 5.48403,-0.6462 5.48403,-1.11184 5.48403,-1.52366 5.48403,-1.88165 5.48403,-2.18581 5.48403,-2.43614 5.48403,-2.63267 10.96806,-5.66933 32.90417,-17.68588 10.96806,-5.3399 5.48403,-2.49903 5.48403,-2.37276 5.48403,-2.23726 5.48403,-2.09172 5.48403,-1.925 5.48403,-1.72893 5.48403,-1.50331 5.48403,-1.24816 5.48403,-0.96347 5.48403,-0.64924 5.48403,-0.31241 5.48402,-0.0123 5.48403,0.22096 10.96806,0.87347 10.96806,1.00177 21.93612,1.54743 5.48403,0.58463 5.48403,0.79304 5.48403,1.06611 5.48403,1.38408 5.48403,1.67327 5.48403,1.9165 5.48403,2.11375 10.96806,4.63542 10.96805,4.89651 5.48403,2.54481 5.48403,2.67455 5.48403,2.85598 5.48403,3.08908 5.48403,3.37386 5.48403,3.70997 5.48403,4.05791 5.48403,4.34403 5.48403,4.5602 10.96806,9.48931 10.96806,9.51625 10.96806,9.18827 16.45209,13.34554 32.90417,26.51262 16.45209,13.56396 10.96806,9.35699 5.48403,4.87262 5.48403,5.05127 5.48403,5.26685 5.48403,5.51935 5.48403,5.79041 10.96806,12.18821 21.93611,25.05191 5.48403,6.03826 5.48403,5.82309 5.48403,5.54526 5.48403,5.20479 5.48403,4.80167 v 0" /></g></g><g
       id="g362"><g
         clip-path="url(#clipPath368)"
         id="g364"><path
           id="path370"
           style="fill:none;stroke:#17becf;stroke-width:1.5;stroke-linecap:square;stroke-linejoin:round;stroke-miterlimit:10;stroke-dasharray:none;stroke-opacity:1"
           d="m 184.58182,138.53156 5.48403,0.15096 5.48403,0.34849 5.48403,0.59163 5.48403,0.8804 5.48403,1.21477 5.48402,1.59478 5.48403,2.0204 5.48403,2.49163 5.48403,3.00849 5.48403,3.57097 5.48403,4.17906 5.48403,4.83277 5.48403,5.52752 5.48403,6.21466 5.48403,6.86478 5.48403,7.4775 5.48403,8.05281 5.48403,8.5907 5.48403,9.09119 5.48403,9.55451 5.48403,9.98819 5.48403,10.40097 5.48403,10.79338 5.48403,11.16537 5.48402,11.517 5.48403,11.84821 5.48403,12.15894 10.96806,25.11037 10.96806,25.83622 21.93612,52.21415 5.48403,12.76957 5.48403,12.43507 5.48403,11.97737 5.48403,11.39649 5.48403,10.69242 5.48403,9.866 5.48403,8.96458 5.48403,8.06025 5.48402,7.15909 5.48403,6.26106 5.48403,5.36619 5.48403,4.47447 5.48403,3.58793 5.48403,2.75017 5.48403,2.00308 5.48403,1.34835 5.48403,0.78601 5.48403,0.31601 5.48403,-0.0616 5.48403,-0.35659 5.48403,-0.65099 5.48403,-0.98596 5.48403,-1.36183 5.48403,-1.77861 5.48403,-2.23627 5.48403,-2.73483 5.48403,-3.23974 5.48403,-3.61381 16.45208,-11.43709 5.48403,-3.46134 5.48403,-3.01308 5.48403,-2.49742 5.48403,-2.04874 5.48403,-1.67713 5.48403,-1.38259 5.48403,-1.16512 10.96806,-1.98408 10.96806,-1.79617 10.96806,-1.52357 5.48403,-0.61673 5.48403,-0.49717 5.48403,-0.36098 5.48402,-0.21415 5.48403,-0.0606 5.48403,0.0997 5.48403,0.26668 5.48403,0.44032 5.48403,0.62067 5.48403,0.80665 5.48403,0.99117 5.48403,1.17115 5.48403,1.34659 5.48403,1.51751 5.48403,1.68389 5.48403,1.84572 5.48403,2.00281 5.48403,2.15392 5.48403,2.29868 5.48403,2.43707 5.48403,2.5691 10.96806,5.50887 10.96805,5.95309 10.96806,6.31063 10.96806,6.57491 10.96806,6.75408 10.96806,6.9773 10.96806,7.34776 5.48403,3.85972 5.48403,4.00841 5.48403,4.16287 10.96806,8.73247 10.96806,9.17217 10.96805,9.48898 16.45209,14.6382 16.45209,15.01107 16.45209,15.28722 16.45209,15.56346 16.45209,15.88549 10.96806,10.8693 10.96805,11.2082 10.96806,11.64734 10.96806,12.18674 5.48403,6.32699 5.48403,6.49943 v 0" /></g></g><g
       id="g372"><g
         clip-path="url(#clipPath378)"
         id="g374"><path
           id="path380"
           style="fill:none;stroke:#1f77b4;stroke-width:1.5;stroke-linecap:square;stroke-linejoin:round;stroke-miterlimit:10;stroke-dasharray:none;stroke-opacity:1"
           d="m 184.58182,138.1807 5.48403,0.29504 5.48403,0.64312 5.48403,1.02443 5.48403,1.43896 5.48403,1.88672 5.48402,2.36769 5.48403,2.88189 5.48403,3.42931 5.48403,4.00996 5.48403,4.62383 5.48403,5.27093 5.48403,5.95125 5.48403,6.65884 5.48403,7.32891 5.48403,7.92152 5.48403,8.43608 5.48403,8.8726 5.48403,9.23108 10.96806,19.22632 10.96806,19.92314 10.96806,20.64098 10.96805,21.44117 10.96806,22.30574 10.96806,22.96011 21.93612,46.17967 10.96806,22.31813 5.48403,10.71952 5.48403,10.32083 5.48403,9.84291 5.48403,9.28574 5.48403,8.64942 5.48403,7.95219 5.48403,7.23505 5.48402,6.50359 5.48403,5.75778 5.48403,4.99765 5.48403,4.22318 5.48403,3.43508 5.48403,2.66672 5.48403,1.9651 5.48403,1.33376 5.48403,0.77271 5.48403,0.28194 5.48403,-0.13855 5.48403,-0.48982 5.48403,-0.7886 5.48403,-1.04795 5.48403,-1.26824 5.48403,-1.44948 10.96806,-3.2864 10.96806,-3.58117 10.96806,-3.79422 10.96805,-3.98534 21.93612,-8.21837 5.48403,-1.90298 5.48403,-1.75256 5.48403,-1.55709 5.48403,-1.31731 5.48403,-1.06274 5.48403,-0.83266 5.48403,-0.62973 5.48403,-0.454 5.48403,-0.30542 10.96806,-0.27305 10.96805,0.0749 10.96806,0.42676 10.96806,0.79763 5.48403,0.54529 5.48403,0.66315 5.48403,0.80883 5.48403,0.98244 5.48403,1.18399 5.48403,1.41347 5.48403,1.67089 5.48403,1.95053 5.48403,2.20979 5.48403,2.42942 5.48403,2.60932 10.96806,5.59943 16.45208,8.81681 10.96806,6.08313 10.96806,6.37558 10.96806,6.78409 5.48403,3.5848 5.48403,3.73669 5.48403,3.90626 5.48403,4.09349 5.48403,4.2984 5.48403,4.52081 5.48403,4.73898 10.96806,9.93519 21.93611,20.2094 10.96806,9.62523 27.42015,23.7564 10.96806,9.91181 16.45209,15.26952 21.93612,20.71264 10.96805,10.57473 10.96806,10.84938 10.96806,11.22233 10.96806,11.69361 5.48403,6.05425 v 0" /></g></g><g
       id="g382"><g
         clip-path="url(#clipPath388)"
         id="g384"><path
           id="path390"
           style="fill:none;stroke:#ff7f0e;stroke-width:1.5;stroke-linecap:square;stroke-linejoin:round;stroke-miterlimit:10;stroke-dasharray:none;stroke-opacity:1"
           d="m 184.58182,137.99454 5.48403,0.59779 5.48403,1.13076 5.48403,1.67679 5.48403,2.23587 5.48403,2.808 5.48402,3.39318 5.48403,3.9914 5.48403,4.60268 5.48403,5.22701 5.48403,5.86437 5.48403,6.51481 5.48403,7.17827 5.48403,7.84697 5.48403,8.44205 5.48403,8.91786 5.48403,9.27383 10.96806,19.13629 10.96806,19.12348 10.96806,18.53006 21.93611,36.73308 10.96806,19.11041 10.96806,19.82506 16.45209,30.53716 16.45209,30.59611 5.48403,9.82941 5.48403,9.4375 5.48403,8.91985 5.48403,8.27649 5.48403,7.50742 5.48403,6.65503 5.48403,5.84191 5.48402,5.09014 5.48403,4.39972 5.48403,3.77065 5.48403,3.20295 5.48403,2.69647 5.48403,2.23966 5.48403,1.8107 5.48403,1.40714 5.48403,1.029 5.48403,0.67627 5.48403,0.34897 5.48403,0.047 5.48403,-0.23161 5.48403,-0.48897 5.48403,-0.72513 5.48403,-0.94013 5.48403,-1.13395 5.48403,-1.3066 5.48403,-1.45765 10.96805,-3.26282 16.45209,-5.33975 10.96806,-3.52797 10.96806,-3.24757 5.48403,-1.4528 5.48403,-1.30374 5.48403,-1.12839 5.48403,-0.9269 5.48403,-0.71779 5.48403,-0.53481 5.48403,-0.38156 10.96806,-0.42231 16.45208,-0.19305 5.48403,0.05 5.48403,0.17094 5.48403,0.33497 5.48403,0.54208 5.48403,0.79229 5.48403,1.08271 5.48403,1.36297 5.48403,1.59019 5.48403,1.763 10.96806,3.82681 16.45209,5.7662 10.96806,3.96714 5.48403,2.19287 5.48403,2.41298 5.48403,2.69351 5.48402,3.02379 5.48403,3.3256 5.48403,3.56419 10.96806,7.59062 16.45209,11.60479 21.93612,15.2324 5.48403,3.99702 5.48403,4.15306 5.48403,4.33531 5.48403,4.50528 10.96806,9.44518 10.96806,9.8991 16.45208,15.36502 21.93612,20.57422 10.96806,9.96917 21.93612,19.75191 10.96806,10.2736 10.96806,10.76362 10.96805,11.24948 10.96806,11.71961 10.96806,12.17402 10.96806,12.61269 5.48403,6.46594 v 0" /></g></g><g
       id="g392"><g
         clip-path="url(#clipPath398)"
         id="g394"><path
           id="path400"
           style="fill:none;stroke:#2ca02c;stroke-width:1.5;stroke-linecap:square;stroke-linejoin:round;stroke-miterlimit:10;stroke-dasharray:none;stroke-opacity:1"
           d="m 184.58182,137.65091 5.48403,1.11509 5.48403,1.94964 5.48403,2.74198 5.48403,3.4921 5.48403,4.20003 5.48402,4.86576 5.48403,5.48926 5.48403,6.07058 5.48403,6.60967 5.48403,7.10658 5.48403,7.56127 5.48403,7.97376 5.48403,8.34161 5.48403,8.64237 10.96806,17.86976 16.45209,27.07629 10.96806,17.35323 10.96806,16.63757 10.96805,16.18815 21.93612,32.10702 10.96806,16.43085 10.96806,17.00676 10.96806,17.79337 10.96806,18.05052 5.48403,8.72421 5.48403,8.3049 5.48403,7.72158 5.48403,6.97431 5.48403,6.1069 5.48403,5.27903 5.48402,4.52697 5.48403,3.85074 5.48403,3.25036 5.48403,2.72578 5.48403,2.27702 5.48403,1.89227 5.48403,1.54146 5.48403,1.21987 5.48403,0.92749 5.48403,0.66433 5.48403,0.43037 5.48403,0.22559 5.48403,0.0471 5.48403,-0.10937 5.48403,-0.24405 10.96806,-0.80514 10.96806,-1.0841 10.96805,-1.29835 10.96806,-1.63673 5.48403,-0.99001 5.48403,-1.1283 10.96806,-2.64137 16.45209,-4.12209 5.48403,-1.18647 5.48403,-0.99682 5.48403,-0.77014 5.48403,-0.5547 5.48403,-0.35749 5.48403,-0.17849 5.48403,-0.0177 5.48403,0.12488 5.48403,0.24934 10.96805,0.83336 10.96806,1.26706 10.96806,1.68848 10.96806,2.10442 5.48403,1.22437 5.48403,1.35483 5.48403,1.49714 5.48403,1.65132 5.48403,1.81734 5.48403,1.99502 5.48403,2.18052 5.48403,2.37058 5.48403,2.5651 5.48403,2.76405 5.48403,2.96745 5.48403,3.17531 5.48402,3.38626 5.48403,3.58445 5.48403,3.75952 10.96806,7.951 10.96806,8.3716 16.45209,12.9699 21.93612,17.39638 32.90418,25.77836 10.96805,9.08968 10.96806,9.44833 21.93612,19.39299 16.45209,14.70563 10.96806,10.15219 10.96806,10.66951 10.96806,11.2542 10.96805,11.69924 16.45209,18.03997 21.93612,24.1462 v 0" /></g></g><g
       id="g402"><g
         clip-path="url(#clipPath408)"
         id="g404"><path
           id="path410"
           style="fill:none;stroke:#d62728;stroke-width:1.5;stroke-linecap:square;stroke-linejoin:round;stroke-miterlimit:10;stroke-dasharray:none;stroke-opacity:1"
           d="m 184.58182,138.4102 5.48403,2.02839 5.48403,3.13617 5.48403,4.13701 5.48403,5.03091 5.48403,5.81787 5.48402,6.49789 5.48403,7.07098 5.48403,7.53712 5.48403,7.89633 10.96806,16.44253 10.96806,16.60391 10.96806,16.2551 10.96806,15.85479 10.96806,15.43575 10.96806,15.0095 16.45209,21.98784 21.93611,29.3126 16.45209,22.44252 27.42015,37.60962 5.48403,7.2884 5.48403,7.05119 5.48403,6.73656 5.48403,6.34449 5.48403,5.87499 5.48403,5.34347 5.48403,4.81733 5.48402,4.31497 5.48403,3.83638 5.48403,3.38158 5.48403,2.95056 5.48403,2.5433 5.48403,2.16332 5.48403,1.82138 5.48403,1.51964 5.48403,1.25807 5.48403,1.03667 5.48403,0.85545 5.48403,0.71412 5.48403,0.59279 5.48403,0.45857 5.48403,0.30838 5.48403,0.14224 5.48403,-0.0399 5.48403,-0.23796 5.48403,-0.45013 5.48403,-0.64549 10.96806,-1.70684 21.93611,-3.87457 10.96806,-1.62117 10.96806,-1.28863 10.96806,-0.9114 5.48403,-0.29929 5.48403,-0.18245 5.48403,-0.0543 5.48403,0.0851 5.48403,0.23591 5.48403,0.39796 5.48403,0.57101 5.48402,0.74561 5.48403,0.9109 5.48403,1.06624 5.48403,1.21167 5.48403,1.34718 5.48403,1.47275 5.48403,1.58913 5.48403,1.70717 5.48403,1.83529 5.48403,1.9737 5.48403,2.12241 5.48403,2.28141 5.48403,2.45071 5.48403,2.62888 5.48403,2.8037 5.48403,2.96888 5.48403,3.12435 5.48403,3.27013 10.96806,6.93878 10.96805,7.39875 10.96806,7.74521 16.45209,12.00201 16.45209,12.25798 10.96806,8.44696 10.96806,8.80318 10.96806,9.23857 10.96806,9.66923 10.96806,10.08377 10.96805,10.44882 16.45209,15.75219 10.96806,10.04377 10.96806,9.4193 10.96806,9.23208 5.48403,4.73531 5.48403,4.91585 5.48403,5.17196 5.48403,5.45954 10.96806,11.52023 16.45208,17.66631 5.48403,5.69387 5.48403,5.47231 5.48403,5.17631 5.48403,4.80584 5.48403,4.36092 5.48403,3.84154 v 0" /></g></g><g
       id="g412"><g
         clip-path="url(#clipPath418)"
         id="g414"><path
           id="path420"
           style="fill:none;stroke:#9467bd;stroke-width:1.5;stroke-linecap:square;stroke-linejoin:round;stroke-miterlimit:10;stroke-dasharray:none;stroke-opacity:1"
           d="m 184.58182,141.72938 5.48403,3.46474 5.48403,4.65022 5.48403,5.68475 5.48403,6.56834 5.48403,7.30098 5.48402,7.88268 5.48403,8.31343 10.96806,17.31532 10.96806,17.22698 5.48403,8.203 5.48403,7.74865 5.48403,7.30403 5.48403,6.92755 5.48403,6.61935 5.48403,6.37948 10.96806,12.31258 27.42015,30.49605 16.45208,18.73859 16.45209,19.26902 38.38821,45.53945 5.48403,6.16916 5.48403,5.921 5.48403,5.61152 5.48403,5.24072 5.48403,4.81945 5.48403,4.39864 5.48402,3.99327 5.48403,3.60329 5.48403,3.22874 5.48403,2.8696 5.48403,2.52588 5.48403,2.19906 5.48403,1.89451 5.48403,1.61343 5.48403,1.35583 5.48403,1.12171 5.48403,0.91106 5.48403,0.72386 5.48403,0.55512 5.48403,0.39432 5.48403,0.24012 5.48403,0.0925 5.48403,-0.0485 5.48403,-0.18293 10.96806,-0.72567 21.93611,-1.93785 5.48403,-0.35724 5.48403,-0.23163 10.96806,-0.10628 10.96806,0.23806 16.45209,0.66089 10.96806,0.59071 5.48403,0.41295 5.48403,0.5309 5.48403,0.67851 5.48403,0.8555 5.48402,1.04041 5.48403,1.19619 10.96806,2.72852 21.93612,5.92509 10.96806,3.16542 5.48403,1.78902 5.48403,1.99745 5.48403,2.25902 5.48403,2.57018 5.48403,2.87216 5.48403,3.11707 10.96806,6.73501 32.90417,20.96115 5.48403,3.68136 5.48403,3.8611 5.48403,4.09183 5.48403,4.35672 5.48403,4.57854 10.96806,9.56168 10.96806,9.66644 10.96806,9.28479 21.93612,18.02189 5.48403,4.72934 5.48402,4.93475 5.48403,5.1517 10.96806,10.7893 32.90418,33.27491 10.96806,10.7377 10.96806,10.49873 16.45209,15.35194 21.93611,20.35345 10.96806,10.4242 10.96806,10.76526 5.48403,5.55178 v 0" /></g></g><g
       id="g422"><path
         id="path424"
         style="fill:none;stroke:#000000;stroke-width:0.80000001;stroke-linecap:square;stroke-linejoin:miter;stroke-miterlimit:10;stroke-dasharray:none;stroke-opacity:1"
         d="M 144,108 V 760.32" /><path
         id="path426"
         style="fill:none;stroke:#000000;stroke-width:0.80000001;stroke-linecap:square;stroke-linejoin:miter;stroke-miterlimit:10;stroke-dasharray:none;stroke-opacity:1"
         d="M 1036.8,108 V 760.32" /><path
         id="path428"
         style="fill:none;stroke:#000000;stroke-width:0.80000001;stroke-linecap:square;stroke-linejoin:miter;stroke-miterlimit:10;stroke-dasharray:none;stroke-opacity:1"
         d="m 144,108 h 892.8" /><path
         id="path430"
         style="fill:none;stroke:#000000;stroke-width:0.80000001;stroke-linecap:square;stroke-linejoin:miter;stroke-miterlimit:10;stroke-dasharray:none;stroke-opacity:1"
         d="m 144,760.32 h 892.8" /><text
         id="text434"
         style="font-variant:normal;font-weight:normal;font-size:24px;font-family:'DejaVu Sans';-inkscape-font-specification:DejaVuSans;writing-mode:lr-tb;fill:#000000;fill-opacity:1;fill-rule:nonzero;stroke:none"
         transform="matrix(1,0,0,-1,468.18906,766.32)"><tspan
           id="tspan432"
           y="0"
           x="0 15.24 31.992001 48.456001 67.344002 74.975998 93.024002 107.784 122.496 131.90401 139.536 156.28799 171 186.24001 200.952 214.15199 220.82401 230.23199">SCBO Heat Capacity</tspan></text>
<path
         id="path436"
         style="fill:#ffffff;fill-opacity:0.8;fill-rule:nonzero;stroke:#cccccc;stroke-width:1;stroke-linecap:butt;stroke-linejoin:miter;stroke-miterlimit:10;stroke-dasharray:none;stroke-opacity:0.8"
         d="m 152.4,486.345 h 61.00937 c 1.6,0 2.4,0.8 2.4,2.4 V 751.92 c 0,1.6 -0.8,2.4 -2.4,2.4 H 152.4 c -1.6,0 -2.4,-0.8 -2.4,-2.4 V 488.745 c 0,-1.6 0.8,-2.4 2.4,-2.4 z" /><path
         id="path438"
         style="fill:none;stroke:#1f77b4;stroke-width:1.5;stroke-linecap:square;stroke-linejoin:round;stroke-miterlimit:10;stroke-dasharray:none;stroke-opacity:1"
         d="m 154.8,744.595 h 24" /><text
         id="text442"
         style="font-variant:normal;font-weight:normal;font-size:12px;font-family:'DejaVu Sans';-inkscape-font-specification:DejaVuSans;writing-mode:lr-tb;fill:#000000;fill-opacity:1;fill-rule:nonzero;stroke:none"
         transform="matrix(1,0,0,-1,188.4,740.395)"><tspan
           id="tspan440"
           y="0"
           x="0 7.632">0T</tspan></text>
<path
         id="path444"
         style="fill:none;stroke:#ff7f0e;stroke-width:1.5;stroke-linecap:square;stroke-linejoin:round;stroke-miterlimit:10;stroke-dasharray:none;stroke-opacity:1"
         d="m 154.8,726.97 h 24" /><text
         id="text448"
         style="font-variant:normal;font-weight:normal;font-size:12px;font-family:'DejaVu Sans';-inkscape-font-specification:DejaVuSans;writing-mode:lr-tb;fill:#000000;fill-opacity:1;fill-rule:nonzero;stroke:none"
         transform="matrix(1,0,0,-1,188.4,722.77)"><tspan
           id="tspan446"
           y="0"
           x="0 7.632">1T</tspan></text>
<path
         id="path450"
         style="fill:none;stroke:#2ca02c;stroke-width:1.5;stroke-linecap:square;stroke-linejoin:round;stroke-miterlimit:10;stroke-dasharray:none;stroke-opacity:1"
         d="m 154.8,709.345 h 24" /><text
         id="text454"
         style="font-variant:normal;font-weight:normal;font-size:12px;font-family:'DejaVu Sans';-inkscape-font-specification:DejaVuSans;writing-mode:lr-tb;fill:#000000;fill-opacity:1;fill-rule:nonzero;stroke:none"
         transform="matrix(1,0,0,-1,188.4,705.145)"><tspan
           id="tspan452"
           y="0"
           x="0 7.632">2T</tspan></text>
<path
         id="path456"
         style="fill:none;stroke:#d62728;stroke-width:1.5;stroke-linecap:square;stroke-linejoin:round;stroke-miterlimit:10;stroke-dasharray:none;stroke-opacity:1"
         d="m 154.8,691.72 h 24" /><text
         id="text460"
         style="font-variant:normal;font-weight:normal;font-size:12px;font-family:'DejaVu Sans';-inkscape-font-specification:DejaVuSans;writing-mode:lr-tb;fill:#000000;fill-opacity:1;fill-rule:nonzero;stroke:none"
         transform="matrix(1,0,0,-1,188.4,687.52)"><tspan
           id="tspan458"
           y="0"
           x="0 7.632">3T</tspan></text>
<path
         id="path462"
         style="fill:none;stroke:#9467bd;stroke-width:1.5;stroke-linecap:square;stroke-linejoin:round;stroke-miterlimit:10;stroke-dasharray:none;stroke-opacity:1"
         d="m 154.8,674.095 h 24" /><text
         id="text466"
         style="font-variant:normal;font-weight:normal;font-size:12px;font-family:'DejaVu Sans';-inkscape-font-specification:DejaVuSans;writing-mode:lr-tb;fill:#000000;fill-opacity:1;fill-rule:nonzero;stroke:none"
         transform="matrix(1,0,0,-1,188.4,669.895)"><tspan
           id="tspan464"
           y="0"
           x="0 7.632">4T</tspan></text>
<path
         id="path468"
         style="fill:none;stroke:#8c564b;stroke-width:1.5;stroke-linecap:square;stroke-linejoin:round;stroke-miterlimit:10;stroke-dasharray:none;stroke-opacity:1"
         d="m 154.8,656.47 h 24" /><text
         id="text472"
         style="font-variant:normal;font-weight:normal;font-size:12px;font-family:'DejaVu Sans';-inkscape-font-specification:DejaVuSans;writing-mode:lr-tb;fill:#000000;fill-opacity:1;fill-rule:nonzero;stroke:none"
         transform="matrix(1,0,0,-1,188.4,652.27)"><tspan
           id="tspan470"
           y="0"
           x="0 7.632">5T</tspan></text>
<path
         id="path474"
         style="fill:none;stroke:#e377c2;stroke-width:1.5;stroke-linecap:square;stroke-linejoin:round;stroke-miterlimit:10;stroke-dasharray:none;stroke-opacity:1"
         d="m 154.8,638.845 h 24" /><text
         id="text478"
         style="font-variant:normal;font-weight:normal;font-size:12px;font-family:'DejaVu Sans';-inkscape-font-specification:DejaVuSans;writing-mode:lr-tb;fill:#000000;fill-opacity:1;fill-rule:nonzero;stroke:none"
         transform="matrix(1,0,0,-1,188.4,634.645)"><tspan
           id="tspan476"
           y="0"
           x="0 7.632">6T</tspan></text>
<path
         id="path480"
         style="fill:none;stroke:#7f7f7f;stroke-width:1.5;stroke-linecap:square;stroke-linejoin:round;stroke-miterlimit:10;stroke-dasharray:none;stroke-opacity:1"
         d="m 154.8,621.22 h 24" /><text
         id="text484"
         style="font-variant:normal;font-weight:normal;font-size:12px;font-family:'DejaVu Sans';-inkscape-font-specification:DejaVuSans;writing-mode:lr-tb;fill:#000000;fill-opacity:1;fill-rule:nonzero;stroke:none"
         transform="matrix(1,0,0,-1,188.4,617.02)"><tspan
           id="tspan482"
           y="0"
           x="0 7.632">7T</tspan></text>
<path
         id="path486"
         style="fill:none;stroke:#bcbd22;stroke-width:1.5;stroke-linecap:square;stroke-linejoin:round;stroke-miterlimit:10;stroke-dasharray:none;stroke-opacity:1"
         d="m 154.8,603.595 h 24" /><text
         id="text490"
         style="font-variant:normal;font-weight:normal;font-size:12px;font-family:'DejaVu Sans';-inkscape-font-specification:DejaVuSans;writing-mode:lr-tb;fill:#000000;fill-opacity:1;fill-rule:nonzero;stroke:none"
         transform="matrix(1,0,0,-1,188.4,599.395)"><tspan
           id="tspan488"
           y="0"
           x="0 7.632">8T</tspan></text>
<path
         id="path492"
         style="fill:none;stroke:#17becf;stroke-width:1.5;stroke-linecap:square;stroke-linejoin:round;stroke-miterlimit:10;stroke-dasharray:none;stroke-opacity:1"
         d="m 154.8,585.97 h 24" /><text
         id="text496"
         style="font-variant:normal;font-weight:normal;font-size:12px;font-family:'DejaVu Sans';-inkscape-font-specification:DejaVuSans;writing-mode:lr-tb;fill:#000000;fill-opacity:1;fill-rule:nonzero;stroke:none"
         transform="matrix(1,0,0,-1,188.4,581.77)"><tspan
           id="tspan494"
           y="0"
           x="0 7.632">9T</tspan></text>
<path
         id="path498"
         style="fill:none;stroke:#1f77b4;stroke-width:1.5;stroke-linecap:square;stroke-linejoin:round;stroke-miterlimit:10;stroke-dasharray:none;stroke-opacity:1"
         d="m 154.8,568.345 h 24" /><text
         id="text502"
         style="font-variant:normal;font-weight:normal;font-size:12px;font-family:'DejaVu Sans';-inkscape-font-specification:DejaVuSans;writing-mode:lr-tb;fill:#000000;fill-opacity:1;fill-rule:nonzero;stroke:none"
         transform="matrix(1,0,0,-1,188.4,564.145)"><tspan
           id="tspan500"
           y="0"
           x="0 7.632 15.264">10T</tspan></text>
<path
         id="path504"
         style="fill:none;stroke:#ff7f0e;stroke-width:1.5;stroke-linecap:square;stroke-linejoin:round;stroke-miterlimit:10;stroke-dasharray:none;stroke-opacity:1"
         d="m 154.8,550.72 h 24" /><text
         id="text508"
         style="font-variant:normal;font-weight:normal;font-size:12px;font-family:'DejaVu Sans';-inkscape-font-specification:DejaVuSans;writing-mode:lr-tb;fill:#000000;fill-opacity:1;fill-rule:nonzero;stroke:none"
         transform="matrix(1,0,0,-1,188.4,546.52)"><tspan
           id="tspan506"
           y="0"
           x="0 7.632 15.264">11T</tspan></text>
<path
         id="path510"
         style="fill:none;stroke:#2ca02c;stroke-width:1.5;stroke-linecap:square;stroke-linejoin:round;stroke-miterlimit:10;stroke-dasharray:none;stroke-opacity:1"
         d="m 154.8,533.095 h 24" /><text
         id="text514"
         style="font-variant:normal;font-weight:normal;font-size:12px;font-family:'DejaVu Sans';-inkscape-font-specification:DejaVuSans;writing-mode:lr-tb;fill:#000000;fill-opacity:1;fill-rule:nonzero;stroke:none"
         transform="matrix(1,0,0,-1,188.4,528.895)"><tspan
           id="tspan512"
           y="0"
           x="0 7.632 15.264">12T</tspan></text>
<path
         id="path516"
         style="fill:none;stroke:#d62728;stroke-width:1.5;stroke-linecap:square;stroke-linejoin:round;stroke-miterlimit:10;stroke-dasharray:none;stroke-opacity:1"
         d="m 154.8,515.47 h 24" /><text
         id="text520"
         style="font-variant:normal;font-weight:normal;font-size:12px;font-family:'DejaVu Sans';-inkscape-font-specification:DejaVuSans;writing-mode:lr-tb;fill:#000000;fill-opacity:1;fill-rule:nonzero;stroke:none"
         transform="matrix(1,0,0,-1,188.4,511.27)"><tspan
           id="tspan518"
           y="0"
           x="0 7.632 15.264">13T</tspan></text>
<path
         id="path522"
         style="fill:none;stroke:#9467bd;stroke-width:1.5;stroke-linecap:square;stroke-linejoin:round;stroke-miterlimit:10;stroke-dasharray:none;stroke-opacity:1"
         d="m 154.8,497.845 h 24" /><text
         id="text526"
         style="font-variant:normal;font-weight:normal;font-size:12px;font-family:'DejaVu Sans';-inkscape-font-specification:DejaVuSans;writing-mode:lr-tb;fill:#000000;fill-opacity:1;fill-rule:nonzero;stroke:none"
         transform="matrix(1,0,0,-1,188.4,493.645)"><tspan
           id="tspan524"
           y="0"
           x="0 7.632 15.264">14T</tspan></text>
</g></g></svg>