<?xml version="1.0" encoding="UTF-8" standalone="no"?>
<svg
   xmlns:dc="http://purl.org/dc/elements/1.1/"
   xmlns:cc="http://creativecommons.org/ns#"
   xmlns:rdf="http://www.w3.org/1999/02/22-rdf-syntax-ns#"
   xmlns:svg="http://www.w3.org/2000/svg"
   xmlns="http://www.w3.org/2000/svg"
   viewBox="0 0 1536 1152"
   height="1152"
   width="1536"
   xml:space="preserve"
   id="svg2"
   version="1.1"><metadata
     id="metadata8"><rdf:RDF><cc:Work
         rdf:about=""><dc:format>image/svg+xml</dc:format><dc:type
           rdf:resource="http://purl.org/dc/dcmitype/StillImage" /></cc:Work></rdf:RDF></metadata><defs
     id="defs6"><clipPath
       id="clipPath22"
       clipPathUnits="userSpaceOnUse"><path
         id="path20"
         d="m 144,108 h 892.8 V 760.32 H 144 Z" /></clipPath><clipPath
       id="clipPath40"
       clipPathUnits="userSpaceOnUse"><path
         id="path38"
         d="m 144,108 h 892.8 V 760.32 H 144 Z" /></clipPath><clipPath
       id="clipPath58"
       clipPathUnits="userSpaceOnUse"><path
         id="path56"
         d="m 144,108 h 892.8 V 760.32 H 144 Z" /></clipPath><clipPath
       id="clipPath76"
       clipPathUnits="userSpaceOnUse"><path
         id="path74"
         d="m 144,108 h 892.8 V 760.32 H 144 Z" /></clipPath><clipPath
       id="clipPath94"
       clipPathUnits="userSpaceOnUse"><path
         id="path92"
         d="m 144,108 h 892.8 V 760.32 H 144 Z" /></clipPath><clipPath
       id="clipPath112"
       clipPathUnits="userSpaceOnUse"><path
         id="path110"
         d="m 144,108 h 892.8 V 760.32 H 144 Z" /></clipPath><clipPath
       id="clipPath130"
       clipPathUnits="userSpaceOnUse"><path
         id="path128"
         d="m 144,108 h 892.8 V 760.32 H 144 Z" /></clipPath><clipPath
       id="clipPath148"
       clipPathUnits="userSpaceOnUse"><path
         id="path146"
         d="m 144,108 h 892.8 V 760.32 H 144 Z" /></clipPath><clipPath
       id="clipPath170"
       clipPathUnits="userSpaceOnUse"><path
         id="path168"
         d="m 144,108 h 892.8 V 760.32 H 144 Z" /></clipPath><clipPath
       id="clipPath188"
       clipPathUnits="userSpaceOnUse"><path
         id="path186"
         d="m 144,108 h 892.8 V 760.32 H 144 Z" /></clipPath><clipPath
       id="clipPath206"
       clipPathUnits="userSpaceOnUse"><path
         id="path204"
         d="m 144,108 h 892.8 V 760.32 H 144 Z" /></clipPath><clipPath
       id="clipPath224"
       clipPathUnits="userSpaceOnUse"><path
         id="path222"
         d="m 144,108 h 892.8 V 760.32 H 144 Z" /></clipPath><clipPath
       id="clipPath242"
       clipPathUnits="userSpaceOnUse"><path
         id="path240"
         d="m 144,108 h 892.8 V 760.32 H 144 Z" /></clipPath><clipPath
       id="clipPath272"
       clipPathUnits="userSpaceOnUse"><path
         id="path270"
         d="M -1021,-463 H 1794 V 1233 H -1021 Z" /></clipPath><clipPath
       id="clipPath282"
       clipPathUnits="userSpaceOnUse"><path
         id="path280"
         d="m 144,108 h 892.8 V 760.32 H 144 Z" /></clipPath><clipPath
       id="clipPath292"
       clipPathUnits="userSpaceOnUse"><path
         id="path290"
         d="m 144,108 h 892.8 V 760.32 H 144 Z" /></clipPath><clipPath
       id="clipPath302"
       clipPathUnits="userSpaceOnUse"><path
         id="path300"
         d="m 144,108 h 892.8 V 760.32 H 144 Z" /></clipPath><clipPath
       id="clipPath312"
       clipPathUnits="userSpaceOnUse"><path
         id="path310"
         d="m 144,108 h 892.8 V 760.32 H 144 Z" /></clipPath><clipPath
       id="clipPath322"
       clipPathUnits="userSpaceOnUse"><path
         id="path320"
         d="m 144,108 h 892.8 V 760.32 H 144 Z" /></clipPath><clipPath
       id="clipPath332"
       clipPathUnits="userSpaceOnUse"><path
         id="path330"
         d="m 144,108 h 892.8 V 760.32 H 144 Z" /></clipPath><clipPath
       id="clipPath342"
       clipPathUnits="userSpaceOnUse"><path
         id="path340"
         d="m 144,108 h 892.8 V 760.32 H 144 Z" /></clipPath><clipPath
       id="clipPath352"
       clipPathUnits="userSpaceOnUse"><path
         id="path350"
         d="m 144,108 h 892.8 V 760.32 H 144 Z" /></clipPath><clipPath
       id="clipPath362"
       clipPathUnits="userSpaceOnUse"><path
         id="path360"
         d="m 144,108 h 892.8 V 760.32 H 144 Z" /></clipPath><clipPath
       id="clipPath372"
       clipPathUnits="userSpaceOnUse"><path
         id="path370"
         d="m 144,108 h 892.8 V 760.32 H 144 Z" /></clipPath><clipPath
       id="clipPath382"
       clipPathUnits="userSpaceOnUse"><path
         id="path380"
         d="m 144,108 h 892.8 V 760.32 H 144 Z" /></clipPath><clipPath
       id="clipPath392"
       clipPathUnits="userSpaceOnUse"><path
         id="path390"
         d="m 144,108 h 892.8 V 760.32 H 144 Z" /></clipPath><clipPath
       id="clipPath402"
       clipPathUnits="userSpaceOnUse"><path
         id="path400"
         d="m 144,108 h 892.8 V 760.32 H 144 Z" /></clipPath><clipPath
       id="clipPath412"
       clipPathUnits="userSpaceOnUse"><path
         id="path410"
         d="m 144,108 h 892.8 V 760.32 H 144 Z" /></clipPath><clipPath
       id="clipPath422"
       clipPathUnits="userSpaceOnUse"><path
         id="path420"
         d="m 144,108 h 892.8 V 760.32 H 144 Z" /></clipPath></defs><g
     transform="matrix(1.3333333,0,0,-1.3333333,0,1152)"
     id="g10"><path
       id="path12"
       style="fill:#ffffff;fill-opacity:1;fill-rule:nonzero;stroke:none"
       d="M 0,0 H 1152 V 864 H 0 Z" /><path
       id="path14"
       style="fill:#ffffff;fill-opacity:1;fill-rule:nonzero;stroke:none"
       d="m 144,108 h 892.8 V 760.32 H 144 Z" /><g
       id="g16"><g
         clip-path="url(#clipPath22)"
         id="g18"><path
           id="path24"
           style="fill:none;stroke:#b0b0b0;stroke-width:0.80000001;stroke-linecap:square;stroke-linejoin:round;stroke-miterlimit:10;stroke-dasharray:none;stroke-opacity:1"
           d="M 228.45405,108 V 760.32" /></g></g><g
       id="g26"><path
         id="path28"
         style="fill:#000000;fill-opacity:1;fill-rule:nonzero;stroke:#000000;stroke-width:0.80000001;stroke-linecap:butt;stroke-linejoin:round;stroke-miterlimit:10;stroke-dasharray:none;stroke-opacity:1"
         d="m 228.45405,108 v -3.5" /><text
         id="text32"
         style="font-variant:normal;font-weight:normal;font-size:18px;font-family:'DejaVu Sans';-inkscape-font-specification:DejaVuSans;writing-mode:lr-tb;fill:#000000;fill-opacity:1;fill-rule:nonzero;stroke:none"
         transform="matrix(1,0,0,-1,214.14155,87.328125)"><tspan
           id="tspan30"
           y="0"
           x="0 11.448 17.172001">2.5</tspan></text>
</g><g
       id="g34"><g
         clip-path="url(#clipPath40)"
         id="g36"><path
           id="path42"
           style="fill:none;stroke:#b0b0b0;stroke-width:0.80000001;stroke-linecap:square;stroke-linejoin:round;stroke-miterlimit:10;stroke-dasharray:none;stroke-opacity:1"
           d="M 338.13464,108 V 760.32" /></g></g><g
       id="g44"><path
         id="path46"
         style="fill:#000000;fill-opacity:1;fill-rule:nonzero;stroke:#000000;stroke-width:0.80000001;stroke-linecap:butt;stroke-linejoin:round;stroke-miterlimit:10;stroke-dasharray:none;stroke-opacity:1"
         d="m 338.13464,108 v -3.5" /><text
         id="text50"
         style="font-variant:normal;font-weight:normal;font-size:18px;font-family:'DejaVu Sans';-inkscape-font-specification:DejaVuSans;writing-mode:lr-tb;fill:#000000;fill-opacity:1;fill-rule:nonzero;stroke:none"
         transform="matrix(1,0,0,-1,323.82214,87.328125)"><tspan
           id="tspan48"
           y="0"
           x="0 11.448 17.172001">5.0</tspan></text>
</g><g
       id="g52"><g
         clip-path="url(#clipPath58)"
         id="g54"><path
           id="path60"
           style="fill:none;stroke:#b0b0b0;stroke-width:0.80000001;stroke-linecap:square;stroke-linejoin:round;stroke-miterlimit:10;stroke-dasharray:none;stroke-opacity:1"
           d="M 447.81523,108 V 760.32" /></g></g><g
       id="g62"><path
         id="path64"
         style="fill:#000000;fill-opacity:1;fill-rule:nonzero;stroke:#000000;stroke-width:0.80000001;stroke-linecap:butt;stroke-linejoin:round;stroke-miterlimit:10;stroke-dasharray:none;stroke-opacity:1"
         d="m 447.81523,108 v -3.5" /><text
         id="text68"
         style="font-variant:normal;font-weight:normal;font-size:18px;font-family:'DejaVu Sans';-inkscape-font-specification:DejaVuSans;writing-mode:lr-tb;fill:#000000;fill-opacity:1;fill-rule:nonzero;stroke:none"
         transform="matrix(1,0,0,-1,433.50273,87.328125)"><tspan
           id="tspan66"
           y="0"
           x="0 11.448 17.172001">7.5</tspan></text>
</g><g
       id="g70"><g
         clip-path="url(#clipPath76)"
         id="g72"><path
           id="path78"
           style="fill:none;stroke:#b0b0b0;stroke-width:0.80000001;stroke-linecap:square;stroke-linejoin:round;stroke-miterlimit:10;stroke-dasharray:none;stroke-opacity:1"
           d="M 557.49582,108 V 760.32" /></g></g><g
       id="g80"><path
         id="path82"
         style="fill:#000000;fill-opacity:1;fill-rule:nonzero;stroke:#000000;stroke-width:0.80000001;stroke-linecap:butt;stroke-linejoin:round;stroke-miterlimit:10;stroke-dasharray:none;stroke-opacity:1"
         d="m 557.49582,108 v -3.5" /><text
         id="text86"
         style="font-variant:normal;font-weight:normal;font-size:18px;font-family:'DejaVu Sans';-inkscape-font-specification:DejaVuSans;writing-mode:lr-tb;fill:#000000;fill-opacity:1;fill-rule:nonzero;stroke:none"
         transform="matrix(1,0,0,-1,537.45676,87.328125)"><tspan
           id="tspan84"
           y="0"
           x="0 11.448 22.896 28.620001">10.0</tspan></text>
</g><g
       id="g88"><g
         clip-path="url(#clipPath94)"
         id="g90"><path
           id="path96"
           style="fill:none;stroke:#b0b0b0;stroke-width:0.80000001;stroke-linecap:square;stroke-linejoin:round;stroke-miterlimit:10;stroke-dasharray:none;stroke-opacity:1"
           d="M 667.17641,108 V 760.32" /></g></g><g
       id="g98"><path
         id="path100"
         style="fill:#000000;fill-opacity:1;fill-rule:nonzero;stroke:#000000;stroke-width:0.80000001;stroke-linecap:butt;stroke-linejoin:round;stroke-miterlimit:10;stroke-dasharray:none;stroke-opacity:1"
         d="m 667.17641,108 v -3.5" /><text
         id="text104"
         style="font-variant:normal;font-weight:normal;font-size:18px;font-family:'DejaVu Sans';-inkscape-font-specification:DejaVuSans;writing-mode:lr-tb;fill:#000000;fill-opacity:1;fill-rule:nonzero;stroke:none"
         transform="matrix(1,0,0,-1,647.13735,87.328125)"><tspan
           id="tspan102"
           y="0"
           x="0 11.448 22.896 28.620001">12.5</tspan></text>
</g><g
       id="g106"><g
         clip-path="url(#clipPath112)"
         id="g108"><path
           id="path114"
           style="fill:none;stroke:#b0b0b0;stroke-width:0.80000001;stroke-linecap:square;stroke-linejoin:round;stroke-miterlimit:10;stroke-dasharray:none;stroke-opacity:1"
           d="M 776.857,108 V 760.32" /></g></g><g
       id="g116"><path
         id="path118"
         style="fill:#000000;fill-opacity:1;fill-rule:nonzero;stroke:#000000;stroke-width:0.80000001;stroke-linecap:butt;stroke-linejoin:round;stroke-miterlimit:10;stroke-dasharray:none;stroke-opacity:1"
         d="m 776.857,108 v -3.5" /><text
         id="text122"
         style="font-variant:normal;font-weight:normal;font-size:18px;font-family:'DejaVu Sans';-inkscape-font-specification:DejaVuSans;writing-mode:lr-tb;fill:#000000;fill-opacity:1;fill-rule:nonzero;stroke:none"
         transform="matrix(1,0,0,-1,756.81794,87.328125)"><tspan
           id="tspan120"
           y="0"
           x="0 11.448 22.896 28.620001">15.0</tspan></text>
</g><g
       id="g124"><g
         clip-path="url(#clipPath130)"
         id="g126"><path
           id="path132"
           style="fill:none;stroke:#b0b0b0;stroke-width:0.80000001;stroke-linecap:square;stroke-linejoin:round;stroke-miterlimit:10;stroke-dasharray:none;stroke-opacity:1"
           d="M 886.53759,108 V 760.32" /></g></g><g
       id="g134"><path
         id="path136"
         style="fill:#000000;fill-opacity:1;fill-rule:nonzero;stroke:#000000;stroke-width:0.80000001;stroke-linecap:butt;stroke-linejoin:round;stroke-miterlimit:10;stroke-dasharray:none;stroke-opacity:1"
         d="m 886.53759,108 v -3.5" /><text
         id="text140"
         style="font-variant:normal;font-weight:normal;font-size:18px;font-family:'DejaVu Sans';-inkscape-font-specification:DejaVuSans;writing-mode:lr-tb;fill:#000000;fill-opacity:1;fill-rule:nonzero;stroke:none"
         transform="matrix(1,0,0,-1,866.49853,87.328125)"><tspan
           id="tspan138"
           y="0"
           x="0 11.448 22.896 28.620001">17.5</tspan></text>
</g><g
       id="g142"><g
         clip-path="url(#clipPath148)"
         id="g144"><path
           id="path150"
           style="fill:none;stroke:#b0b0b0;stroke-width:0.80000001;stroke-linecap:square;stroke-linejoin:round;stroke-miterlimit:10;stroke-dasharray:none;stroke-opacity:1"
           d="M 996.21818,108 V 760.32" /></g></g><g
       id="g152"><path
         id="path154"
         style="fill:#000000;fill-opacity:1;fill-rule:nonzero;stroke:#000000;stroke-width:0.80000001;stroke-linecap:butt;stroke-linejoin:round;stroke-miterlimit:10;stroke-dasharray:none;stroke-opacity:1"
         d="m 996.21818,108 v -3.5" /><text
         id="text158"
         style="font-variant:normal;font-weight:normal;font-size:18px;font-family:'DejaVu Sans';-inkscape-font-specification:DejaVuSans;writing-mode:lr-tb;fill:#000000;fill-opacity:1;fill-rule:nonzero;stroke:none"
         transform="matrix(1,0,0,-1,976.17912,87.328125)"><tspan
           id="tspan156"
           y="0"
           x="0 11.448 22.896 28.620001">20.0</tspan></text>
<text
         id="text162"
         style="font-variant:normal;font-weight:normal;font-size:24px;font-family:'DejaVu Sans';-inkscape-font-specification:DejaVuSans;writing-mode:lr-tb;fill:#000000;fill-opacity:1;fill-rule:nonzero;stroke:none"
         transform="matrix(1,0,0,-1,496.61875,61.34375)"><tspan
           id="tspan160"
           y="0"
           x="0 14.664 29.424 52.799999 68.040001 82.800003 92.664001 107.376 116.784 132 141.864 156.62399 164.256 171.888">Temperature, K</tspan></text>
</g><g
       id="g164"><g
         clip-path="url(#clipPath170)"
         id="g166"><path
           id="path172"
           style="fill:none;stroke:#b0b0b0;stroke-width:0.80000001;stroke-linecap:square;stroke-linejoin:round;stroke-miterlimit:10;stroke-dasharray:none;stroke-opacity:1"
           d="m 144,143.81943 h 892.8" /></g></g><g
       id="g174"><path
         id="path176"
         style="fill:#000000;fill-opacity:1;fill-rule:nonzero;stroke:#000000;stroke-width:0.80000001;stroke-linecap:butt;stroke-linejoin:round;stroke-miterlimit:10;stroke-dasharray:none;stroke-opacity:1"
         d="m 144,143.81943 h -3.5" /><text
         id="text180"
         style="font-variant:normal;font-weight:normal;font-size:18px;font-family:'DejaVu Sans';-inkscape-font-specification:DejaVuSans;writing-mode:lr-tb;fill:#000000;fill-opacity:1;fill-rule:nonzero;stroke:none"
         transform="matrix(1,0,0,-1,108.375,136.98349)"><tspan
           id="tspan178"
           y="0"
           x="0 11.448 17.172001">0.0</tspan></text>
</g><g
       id="g182"><g
         clip-path="url(#clipPath188)"
         id="g184"><path
           id="path190"
           style="fill:none;stroke:#b0b0b0;stroke-width:0.80000001;stroke-linecap:square;stroke-linejoin:round;stroke-miterlimit:10;stroke-dasharray:none;stroke-opacity:1"
           d="m 144,280.97793 h 892.8" /></g></g><g
       id="g192"><path
         id="path194"
         style="fill:#000000;fill-opacity:1;fill-rule:nonzero;stroke:#000000;stroke-width:0.80000001;stroke-linecap:butt;stroke-linejoin:round;stroke-miterlimit:10;stroke-dasharray:none;stroke-opacity:1"
         d="m 144,280.97793 h -3.5" /><text
         id="text198"
         style="font-variant:normal;font-weight:normal;font-size:18px;font-family:'DejaVu Sans';-inkscape-font-specification:DejaVuSans;writing-mode:lr-tb;fill:#000000;fill-opacity:1;fill-rule:nonzero;stroke:none"
         transform="matrix(1,0,0,-1,108.375,274.14199)"><tspan
           id="tspan196"
           y="0"
           x="0 11.448 17.172001">0.5</tspan></text>
</g><g
       id="g200"><g
         clip-path="url(#clipPath206)"
         id="g202"><path
           id="path208"
           style="fill:none;stroke:#b0b0b0;stroke-width:0.80000001;stroke-linecap:square;stroke-linejoin:round;stroke-miterlimit:10;stroke-dasharray:none;stroke-opacity:1"
           d="m 144,418.13642 h 892.8" /></g></g><g
       id="g210"><path
         id="path212"
         style="fill:#000000;fill-opacity:1;fill-rule:nonzero;stroke:#000000;stroke-width:0.80000001;stroke-linecap:butt;stroke-linejoin:round;stroke-miterlimit:10;stroke-dasharray:none;stroke-opacity:1"
         d="m 144,418.13642 h -3.5" /><text
         id="text216"
         style="font-variant:normal;font-weight:normal;font-size:18px;font-family:'DejaVu Sans';-inkscape-font-specification:DejaVuSans;writing-mode:lr-tb;fill:#000000;fill-opacity:1;fill-rule:nonzero;stroke:none"
         transform="matrix(1,0,0,-1,108.375,411.30049)"><tspan
           id="tspan214"
           y="0"
           x="0 11.448 17.172001">1.0</tspan></text>
</g><g
       id="g218"><g
         clip-path="url(#clipPath224)"
         id="g220"><path
           id="path226"
           style="fill:none;stroke:#b0b0b0;stroke-width:0.80000001;stroke-linecap:square;stroke-linejoin:round;stroke-miterlimit:10;stroke-dasharray:none;stroke-opacity:1"
           d="m 144,555.29492 h 892.8" /></g></g><g
       id="g228"><path
         id="path230"
         style="fill:#000000;fill-opacity:1;fill-rule:nonzero;stroke:#000000;stroke-width:0.80000001;stroke-linecap:butt;stroke-linejoin:round;stroke-miterlimit:10;stroke-dasharray:none;stroke-opacity:1"
         d="m 144,555.29492 h -3.5" /><text
         id="text234"
         style="font-variant:normal;font-weight:normal;font-size:18px;font-family:'DejaVu Sans';-inkscape-font-specification:DejaVuSans;writing-mode:lr-tb;fill:#000000;fill-opacity:1;fill-rule:nonzero;stroke:none"
         transform="matrix(1,0,0,-1,108.375,548.45899)"><tspan
           id="tspan232"
           y="0"
           x="0 11.448 17.172001">1.5</tspan></text>
</g><g
       id="g236"><g
         clip-path="url(#clipPath242)"
         id="g238"><path
           id="path244"
           style="fill:none;stroke:#b0b0b0;stroke-width:0.80000001;stroke-linecap:square;stroke-linejoin:round;stroke-miterlimit:10;stroke-dasharray:none;stroke-opacity:1"
           d="m 144,692.45342 h 892.8" /></g></g><g
       id="g246"><path
         id="path248"
         style="fill:#000000;fill-opacity:1;fill-rule:nonzero;stroke:#000000;stroke-width:0.80000001;stroke-linecap:butt;stroke-linejoin:round;stroke-miterlimit:10;stroke-dasharray:none;stroke-opacity:1"
         d="m 144,692.45342 h -3.5" /><text
         id="text252"
         style="font-variant:normal;font-weight:normal;font-size:18px;font-family:'DejaVu Sans';-inkscape-font-specification:DejaVuSans;writing-mode:lr-tb;fill:#000000;fill-opacity:1;fill-rule:nonzero;stroke:none"
         transform="matrix(1,0,0,-1,108.375,685.61749)"><tspan
           id="tspan250"
           y="0"
           x="0 11.448 17.172001">2.0</tspan></text>
<g
         transform="rotate(90,-56.3925,155.7675)"
         id="g254"><text
           id="text258"
           style="font-variant:normal;font-weight:normal;font-size:24px;font-family:'DejaVu Sans';-inkscape-font-specification:DejaVuSans;writing-mode:lr-tb;fill:#000000;fill-opacity:1;fill-rule:nonzero;stroke:none"
           transform="matrix(1,0,0,-1,0,0.34375)"><tspan
             id="tspan256"
             y="0"
             x="0 18.046875 32.8125 47.519531 56.929688 64.558594 81.316406 96.023438 111.25781 125.96484 139.16016 145.82812 155.23828 169.44141 177.52734 192.1875 206.95312 230.33203 245.56641 260.33203 270.19922 284.90625 294.31641 309.52734 319.39453 334.16016 341.78906 349.41797 356.49609 364.58203 378.48047 393.71484 416.60156">Heat Capacity/Temperature, J/kg K</tspan></text>
<text
           id="text262"
           style="font-variant:normal;font-weight:normal;font-size:16.79999924px;font-family:'DejaVu Sans';-inkscape-font-specification:DejaVuSans;writing-mode:lr-tb;fill:#000000;fill-opacity:1;fill-rule:nonzero;stroke:none"
           transform="matrix(1,0,0,-1,432.56953,9.53125)"><tspan
             id="tspan260"
             y="0"
             x="0">2</tspan></text>
<g
           transform="matrix(0.024,0,0,0.024,401.34375,0.34375)"
           id="g264"><g
             id="g266"><g
               clip-path="url(#clipPath272)"
               id="g268"><path
                 id="path274"
                 style="fill:#000000;fill-opacity:1;fill-rule:nonzero;stroke:none"
                 d="M 107,409 H 210 V 285 H 107 v 124" /></g></g></g></g></g><g
       id="g276"><g
         clip-path="url(#clipPath282)"
         id="g278"><path
           id="path284"
           style="fill:none;stroke:#1f77b4;stroke-width:1.5;stroke-linecap:square;stroke-linejoin:round;stroke-miterlimit:10;stroke-dasharray:none;stroke-opacity:1"
           d="m 184.58182,145.32351 16.45209,0.64323 10.96806,0.71232 5.48402,0.4985 5.48403,0.68976 5.48403,0.95595 5.48403,1.29382 5.48403,1.73918 5.48403,2.28683 5.48403,2.9197 5.48403,3.64799 5.48403,4.53373 5.48403,5.56906 5.48403,6.73262 5.48403,8.00601 5.48403,9.34815 5.48403,10.7164 5.48403,12.1053 5.48403,13.51233 5.48403,14.93535 5.48403,16.36358 5.48403,17.75415 5.48402,19.09871 5.48403,20.40207 5.48403,21.66847 5.48403,22.90161 5.48403,24.10175 5.48403,25.1292 10.96806,51.93252 10.96806,52.05171 5.48403,25.37934 5.48403,24.62578 5.48403,23.65444 5.48403,22.46334 5.48403,21.04543 5.48403,19.41659 5.48403,17.59275 5.48403,15.58835 5.48403,13.41652 5.48402,11.08922 5.48403,8.61736 5.48403,6.01092 5.48403,3.33173 5.48403,0.86381 5.48403,-1.31464 5.48403,-3.22226 5.48403,-4.87623 5.48403,-6.2924 5.48403,-7.48542 5.48403,-8.46879 5.48403,-9.25505 5.48403,-9.85579 5.48403,-10.28174 10.96806,-21.24702 27.42014,-53.77187 10.96806,-20.66199 5.48403,-9.96535 5.48403,-9.6671 5.48403,-9.3305 5.48403,-8.95743 5.48403,-8.54964 5.48403,-8.11654 5.48403,-7.69198 5.48403,-7.2841 5.48403,-6.89217 5.48403,-6.51544 5.48403,-6.15323 5.48403,-5.80492 5.48403,-5.46986 5.48403,-5.1475 5.48403,-4.83729 5.48403,-4.53871 5.48402,-4.25126 5.48403,-3.97449 5.48403,-3.70797 5.48403,-3.45125 5.48403,-3.20396 5.48403,-2.9661 5.48403,-2.73972 5.48403,-2.52533 5.48403,-2.32248 5.48403,-2.1307 5.48403,-1.9496 5.48403,-1.77875 5.48403,-1.61778 5.48403,-1.46631 5.48403,-1.32402 5.48403,-1.19055 5.48403,-1.06558 10.96806,-1.78883 10.96805,-1.38377 10.96806,-1.03669 10.96806,-0.74356 10.96806,-0.48889 10.96806,-0.2499 10.96806,-0.0236 10.96806,0.19079 10.96806,0.39403 10.96806,0.5868 10.96806,0.76973 10.96805,0.94338 10.96806,1.10833 10.96806,1.26505 16.45209,2.1746 16.45209,2.48397 16.45209,2.764 16.45209,3.01582 16.45208,3.24161 16.45209,3.44335 16.45209,3.62287 v 0" /></g></g><g
       id="g286"><g
         clip-path="url(#clipPath292)"
         id="g288"><path
           id="path294"
           style="fill:none;stroke:#ff7f0e;stroke-width:1.5;stroke-linecap:square;stroke-linejoin:round;stroke-miterlimit:10;stroke-dasharray:none;stroke-opacity:1"
           d="m 184.58182,148.31059 5.48403,0.56903 5.48403,-0.0868 16.45209,-1.27641 5.48402,-0.11542 5.48403,0.26153 5.48403,0.73169 5.48403,1.27729 5.48403,1.88464 5.48403,2.54298 5.48403,3.24383 5.48403,3.9825 5.48403,4.8103 5.48403,5.77486 5.48403,6.85971 5.48403,8.04824 5.48403,9.32663 5.48403,10.68328 5.48403,12.1048 5.48403,13.53283 5.48403,14.92989 5.48403,16.29863 5.48403,17.64221 5.48402,18.96334 5.48403,20.26441 5.48403,21.53547 5.48403,22.67673 5.48403,23.64859 5.48403,24.46679 5.48403,25.14558 10.96806,51.83196 10.96806,52.70867 5.48403,25.71702 5.48403,24.72359 5.48403,23.34638 5.48403,21.61548 5.48403,19.55815 5.48403,17.25628 5.48403,14.90368 5.48403,12.53761 5.48402,10.15905 5.48403,7.76886 5.48403,5.36787 5.48403,2.95769 5.48403,0.63523 5.48403,-1.42806 5.48403,-3.22975 5.48403,-4.78644 5.48403,-6.11345 5.48403,-7.22492 5.48403,-8.13477 5.48403,-8.88179 5.48403,-9.50624 5.48403,-10.01694 5.48403,-10.4204 10.96806,-21.65196 21.93611,-44.07969 5.48404,-10.73365 5.48402,-10.48263 5.48403,-10.16938 5.48403,-9.80149 5.48403,-9.41641 5.48403,-9.03131 5.48403,-8.6463 5.48403,-8.26136 5.48403,-7.87651 5.48403,-7.49171 5.48403,-7.10753 5.48403,-6.72676 5.48403,-6.35024 5.48403,-5.97776 5.48403,-5.60916 5.48403,-5.24426 5.48403,-4.88291 5.48403,-4.5288 5.48402,-4.1955 5.48403,-3.88531 5.48403,-3.59728 5.48403,-3.33047 5.48403,-3.08406 5.48403,-2.85722 5.48403,-2.64815 5.48403,-2.45384 5.48403,-2.27339 5.48403,-2.10628 5.48403,-1.95199 5.48403,-1.81005 5.48403,-1.6799 5.48403,-1.55624 5.48403,-1.43153 5.48403,-1.30518 5.48403,-1.17729 5.48403,-1.04788 5.48403,-0.91702 5.48403,-0.78507 5.48402,-0.65889 10.96806,-0.98757 10.96806,-0.62509 10.96806,-0.34987 10.96806,-0.11784 10.96806,0.13054 10.96806,0.39882 10.96806,0.67646 10.96806,0.91837 10.96806,1.11339 16.45208,1.93567 49.35627,6.22208 10.96806,1.66812 10.96806,2.02324 10.96806,2.30915 21.93611,4.78695 10.96806,2.15295 10.96806,1.78964 5.48403,0.7137 v 0" /></g></g><g
       id="g296"><g
         clip-path="url(#clipPath302)"
         id="g298"><path
           id="path304"
           style="fill:none;stroke:#2ca02c;stroke-width:1.5;stroke-linecap:square;stroke-linejoin:round;stroke-miterlimit:10;stroke-dasharray:none;stroke-opacity:1"
           d="m 184.58182,148.88224 5.48403,0.36658 5.48403,-0.20129 10.96806,-0.92892 5.48403,-0.31214 5.48402,-0.0105 5.48403,0.40161 5.48403,0.90221 5.48403,1.4744 5.48403,2.10518 5.48403,2.78435 5.48403,3.50384 5.48403,4.26064 5.48403,5.11081 5.48403,6.09331 5.48403,7.191 5.48403,8.38801 5.48403,9.67109 5.48403,11.02912 5.48403,12.44805 5.48403,13.86221 5.48403,15.23299 5.48403,16.56457 5.48403,17.86131 5.48402,19.12699 5.48403,20.36487 5.48403,21.56705 5.48403,22.64171 5.48403,23.55155 5.48403,24.31183 10.96806,50.37419 21.93612,103.11562 5.48403,24.29347 5.48403,22.89751 5.48403,21.15151 5.48403,19.08238 5.48403,16.77128 5.48403,14.42508 5.48403,12.08561 5.48402,9.75241 5.48403,7.42502 5.48403,5.10304 5.48403,2.78686 5.48403,0.5569 5.48403,-1.44171 5.48403,-3.20732 5.48403,-4.75473 5.48403,-6.09758 5.48403,-7.24847 5.48403,-8.2193 5.48403,-9.02889 5.48403,-9.6954 5.48403,-10.22753 5.48403,-10.633 10.96806,-22.01086 16.45209,-33.35258 10.96806,-21.56837 5.48402,-10.39179 5.48403,-10.05227 5.48403,-9.66391 5.48403,-9.26634 5.48403,-8.87445 5.48403,-8.48796 5.48403,-8.10667 5.48403,-7.73028 5.48403,-7.3586 5.48403,-6.99152 5.48403,-6.62939 5.48403,-6.27215 5.48403,-5.91958 5.48403,-5.57148 5.48403,-5.22765 5.48403,-4.88792 5.48403,-4.55599 5.48402,-4.24319 5.48403,-3.95083 5.48403,-3.67811 5.48403,-3.4242 5.48403,-3.18834 5.48403,-2.96979 5.48403,-2.76472 5.48403,-2.56648 5.48403,-2.37414 5.48403,-2.18746 5.48403,-2.00624 5.48403,-1.83026 5.48403,-1.65945 5.48403,-1.49859 5.48403,-1.35367 5.48403,-1.22454 10.96806,-2.12193 10.96806,-1.78043 10.96805,-1.49084 10.96806,-1.14972 10.96806,-0.74986 10.96806,-0.30614 10.96806,0.10931 10.96806,0.47145 10.96806,0.78363 10.96806,1.05247 10.96806,1.2848 10.96806,1.48301 21.93611,3.32659 16.45209,2.41822 27.42015,3.70389 10.96806,1.78648 10.96806,2.11339 16.45208,3.52786 16.45209,3.56625 10.96806,2.19538 10.96806,1.91616 v 0" /></g></g><g
       id="g306"><g
         clip-path="url(#clipPath312)"
         id="g308"><path
           id="path314"
           style="fill:none;stroke:#d62728;stroke-width:1.5;stroke-linecap:square;stroke-linejoin:round;stroke-miterlimit:10;stroke-dasharray:none;stroke-opacity:1"
           d="m 184.58182,148.85757 5.48403,0.28257 5.48403,-0.23481 10.96806,-0.84369 5.48403,-0.19308 5.48402,0.15962 5.48403,0.62298 5.48403,1.17482 5.48403,1.79834 5.48403,2.48045 5.48403,3.21101 5.48403,3.98192 5.48403,4.79105 5.48403,5.69175 5.48403,6.71299 5.48403,7.83854 5.48403,9.054 5.48403,10.34739 5.48403,11.70864 5.48403,13.1233 5.48403,14.51416 5.48403,15.83818 5.48403,17.10217 5.48403,18.31281 5.48402,19.47587 5.48403,20.59634 5.48403,21.66947 5.48403,22.61265 5.48403,23.39033 10.96806,48.52662 10.96806,50.00652 10.96806,50.24211 5.48403,24.32309 5.48403,23.25803 5.48403,21.83308 5.48403,20.07646 5.48403,18.01368 5.48403,15.71785 5.48403,13.40003 5.48403,11.10883 5.48402,8.84234 5.48403,6.59883 5.48403,4.37672 5.48403,2.17489 5.48403,0.0582 5.48403,-1.83488 5.48403,-3.49988 5.48403,-4.95127 5.48403,-6.20239 5.48403,-7.26557 5.48403,-8.1526 5.48403,-8.88707 5.48403,-9.49366 5.48403,-9.98071 5.48403,-10.35505 10.96806,-21.41366 16.45209,-32.50255 10.96806,-21.07744 5.48402,-10.17528 5.48403,-9.85758 5.48403,-9.49229 5.48403,-9.11636 5.48403,-8.74392 5.48403,-8.37482 5.48403,-8.00892 5.48403,-7.64605 5.48403,-7.2861 5.48403,-6.92933 5.48403,-6.57744 5.48403,-6.23071 5.48403,-5.88891 5.48403,-5.55182 5.48403,-5.21924 5.48403,-4.89097 5.48403,-4.56928 5.48402,-4.26077 5.48403,-3.96612 5.48403,-3.6847 5.48403,-3.41604 5.48403,-3.15956 5.48403,-2.91484 5.48403,-2.68397 5.48403,-2.47107 5.48403,-2.27593 5.48403,-2.09784 5.48403,-1.9362 5.48403,-1.79035 5.48403,-1.65954 5.48403,-1.53677 5.48403,-1.41335 5.48403,-1.28876 5.48403,-1.16301 5.48403,-1.03619 5.48403,-0.90831 5.48403,-0.77968 5.48402,-0.65607 10.96806,-0.98222 10.96806,-0.60799 10.96806,-0.30742 10.96806,-0.0429 10.96806,0.23629 10.96806,0.53309 10.96806,0.83314 10.96806,1.06931 16.45209,1.87069 21.93611,2.74186 16.45209,2.3273 16.45209,2.64179 16.45209,2.91257 16.45209,3.11948 27.42014,5.47217 27.42015,5.55029 v 0" /></g></g><g
       id="g316"><g
         clip-path="url(#clipPath322)"
         id="g318"><path
           id="path324"
           style="fill:none;stroke:#9467bd;stroke-width:1.5;stroke-linecap:square;stroke-linejoin:round;stroke-miterlimit:10;stroke-dasharray:none;stroke-opacity:1"
           d="m 184.58182,149.36351 5.48403,0.30217 5.48403,-0.28016 10.96806,-0.94278 5.48403,-0.181 5.48402,0.24449 5.48403,0.79811 5.48403,1.45428 5.48403,2.19341 5.48403,3.00046 5.48403,3.8636 5.48403,4.77348 5.48403,5.72492 5.48403,6.73794 5.48403,7.82023 5.48403,8.96218 5.48403,10.15558 5.48403,11.39354 5.48403,12.67034 5.48403,13.97632 5.48403,15.2527 5.48403,16.46774 5.48403,17.62784 5.48403,18.73911 5.48402,19.80682 5.48403,20.83557 5.48403,21.81896 5.48403,22.65179 10.96806,47.01466 27.42015,119.80856 5.48403,22.71276 5.48403,21.56905 5.48403,20.12269 5.48403,18.39741 5.48403,16.41466 5.48403,14.22994 5.48403,12.02964 5.48403,9.86586 5.48402,7.73597 5.48403,5.63763 5.48403,3.56862 5.48403,1.52706 5.48403,-0.44067 5.48403,-2.21131 5.48403,-3.77649 5.48403,-5.14925 5.48403,-6.34162 5.48403,-7.36469 5.48403,-8.22875 5.48403,-8.94335 5.48403,-9.5174 5.48403,-9.95908 10.96806,-20.7509 16.45209,-31.57312 10.96805,-20.52051 10.96806,-19.74637 5.48403,-9.50216 5.48403,-9.216 5.48403,-8.91012 5.48403,-8.5886 5.48403,-8.25223 5.48403,-7.9017 5.48403,-7.53769 5.48403,-7.16082 5.48403,-6.77496 5.48403,-6.3967 5.48403,-6.03068 5.48403,-5.67636 5.48403,-5.33324 5.48403,-5.00082 5.48403,-4.67863 5.48403,-4.36775 5.48402,-4.0725 5.48403,-3.79321 5.48403,-3.52923 5.48403,-3.27992 5.48403,-3.0447 5.48403,-2.82298 5.48403,-2.61374 5.48403,-2.41535 5.48403,-2.22728 5.48403,-2.04912 5.48403,-1.88051 5.48403,-1.72106 5.48403,-1.5705 5.48403,-1.4305 10.96806,-2.49348 10.96806,-2.0873 10.96806,-1.77517 10.96805,-1.50103 10.96806,-1.16689 10.96806,-0.76584 5.48403,-0.21332 5.48403,-0.0969 10.96806,0.14372 10.96806,0.57438 10.96806,0.98228 10.96806,1.33354 10.96806,1.58639 16.45208,2.6459 21.93612,3.52387 10.96806,1.54353 32.90418,4.20478 10.96806,1.92946 10.96806,2.28366 27.42014,6.04522 10.96806,2.09607 5.48403,0.89755 5.48403,0.7716 v 0" /></g></g><g
       id="g326"><g
         clip-path="url(#clipPath332)"
         id="g328"><path
           id="path334"
           style="fill:none;stroke:#8c564b;stroke-width:1.5;stroke-linecap:square;stroke-linejoin:round;stroke-miterlimit:10;stroke-dasharray:none;stroke-opacity:1"
           d="m 184.58182,148.59324 5.48403,0.19554 16.45209,-0.58843 5.48403,0.27098 5.48402,0.79081 5.48403,1.42818 5.48403,2.15955 5.48403,2.96704 5.48403,3.83679 5.48403,4.75799 5.48403,5.72206 5.48403,6.72425 5.48403,7.78044 5.48403,8.89534 5.48403,10.06074 5.48403,11.26968 5.48403,12.51635 5.48403,13.79587 5.48403,15.09731 5.48403,16.33228 5.48403,17.4506 5.48403,18.46447 5.48403,19.38549 5.48402,20.2237 5.48403,20.98782 5.48403,21.67994 10.96806,44.86268 27.42015,114.00143 5.48403,21.96032 5.48403,21.08411 5.48403,19.89731 5.48403,18.42481 5.48403,16.689 5.48403,14.71012 5.48403,12.5374 5.48403,10.37294 5.48403,8.28669 5.48402,6.27322 5.48403,4.32742 5.48403,2.44462 5.48403,0.62054 5.48403,-1.12319 5.48403,-2.70232 5.48403,-4.10783 5.48403,-5.35073 5.48403,-6.4412 5.48403,-7.38861 5.48403,-8.20159 5.48403,-8.88276 5.48403,-9.43012 5.48403,-9.85038 10.96806,-20.48896 16.45209,-31.12222 10.96805,-20.12985 5.48404,-9.73553 5.48402,-9.45987 5.48403,-9.14486 5.48403,-8.79533 5.48403,-8.44024 5.48403,-8.09455 5.48403,-7.75797 5.48403,-7.43007 5.48403,-7.11044 5.48403,-6.79869 5.48403,-6.49268 5.48403,-6.1816 5.48403,-5.86174 5.48403,-5.53351 5.48403,-5.19727 5.48403,-4.85335 5.48403,-4.50212 5.48403,-4.15089 5.48402,-3.82757 5.48403,-3.53788 5.48403,-3.28044 5.48403,-3.05392 5.48403,-2.85709 5.48403,-2.68873 5.48403,-2.54114 5.48403,-2.39697 5.48403,-2.25356 5.48403,-2.11087 5.48403,-1.96887 5.48403,-1.82755 5.48403,-1.68687 5.48403,-1.54729 5.48403,-1.40959 5.48403,-1.27379 5.48403,-1.1398 5.48403,-1.00758 5.48403,-0.87705 5.48403,-0.7482 5.48402,-0.62258 5.48403,-0.50207 10.96806,-0.66261 10.96806,-0.23899 10.96806,0.14421 10.96806,0.45457 10.96806,0.68048 16.45209,1.28606 10.96806,1.03394 10.96806,1.23739 10.96805,1.4907 10.96806,1.71606 60.32433,10.04808 16.45209,3.22078 27.42014,5.47677 10.96806,1.96838 10.96806,1.71746 v 0" /></g></g><g
       id="g336"><g
         clip-path="url(#clipPath342)"
         id="g338"><path
           id="path344"
           style="fill:none;stroke:#e377c2;stroke-width:1.5;stroke-linecap:square;stroke-linejoin:round;stroke-miterlimit:10;stroke-dasharray:none;stroke-opacity:1"
           d="m 184.58182,148.30014 5.48403,0.19212 10.96806,-0.16529 5.48403,0.23981 5.48403,0.73581 5.48402,1.38406 5.48403,2.15249 5.48403,3.01707 5.48403,3.95947 5.48403,4.96556 5.48403,6.02426 5.48403,7.1268 5.48403,8.26331 5.48403,9.4013 5.48403,10.52536 5.48403,11.63734 5.48403,12.73891 5.48403,13.83142 5.48403,14.91608 5.48403,15.98977 5.48403,16.99515 5.48403,17.89684 5.48403,18.70561 5.48403,19.4318 5.48402,20.08431 5.48403,20.67093 10.96806,42.78163 21.93612,86.88539 5.48403,21.13399 5.48403,20.64801 5.48403,19.95366 5.48403,18.99154 5.48403,17.78141 5.48403,16.34312 5.48403,14.69456 5.48403,12.8519 5.48403,10.84505 5.48403,8.82339 5.48403,6.86033 5.48402,4.95237 5.48403,3.09563 5.48403,1.2866 5.48403,-0.47797 5.48403,-2.17343 5.48403,-3.66788 5.48403,-4.93231 5.48403,-5.98128 5.48403,-6.82827 5.48403,-7.48571 5.48403,-7.96515 5.48403,-8.30957 5.48403,-8.60899 5.48403,-8.87887 5.48403,-9.12088 10.96806,-18.8641 10.96806,-19.50094 10.96805,-19.57629 5.48404,-9.58977 5.48402,-9.34533 5.48403,-9.02209 5.48403,-8.62845 5.48403,-8.21798 5.48403,-7.82298 5.48403,-7.44316 5.48403,-7.07783 5.48403,-6.72629 5.48403,-6.3879 5.48403,-6.06194 5.48403,-5.74687 5.48403,-5.44178 5.48403,-5.14621 5.48403,-4.85975 5.48403,-4.58202 5.48403,-4.31261 5.48403,-4.05254 5.48402,-3.80754 5.48403,-3.57873 5.48403,-3.36545 5.48403,-3.16706 5.48403,-2.98297 5.48403,-2.8126 5.48403,-2.65235 5.48403,-2.49278 5.48403,-2.33217 5.48403,-2.17057 5.48403,-2.00802 5.48403,-1.84454 5.48403,-1.6802 5.48403,-1.51642 5.48403,-1.35624 5.48403,-1.19986 5.48403,-1.04718 5.48403,-0.89806 5.48403,-0.75236 5.48403,-0.61 5.48402,-0.4728 5.48403,-0.34362 5.48403,-0.22244 10.96806,-0.11199 10.96806,0.28318 10.96806,0.61151 10.96806,0.85347 16.45209,1.55251 16.45209,1.75367 16.45209,2.03219 16.45208,2.36169 54.8403,8.43629 10.96806,2.02295 16.45209,3.36971 21.93611,4.54259 10.96806,2.05986 10.96806,1.79049 v 0" /></g></g><g
       id="g346"><g
         clip-path="url(#clipPath352)"
         id="g348"><path
           id="path354"
           style="fill:none;stroke:#7f7f7f;stroke-width:1.5;stroke-linecap:square;stroke-linejoin:round;stroke-miterlimit:10;stroke-dasharray:none;stroke-opacity:1"
           d="m 184.58182,147.22926 10.96806,0.44615 5.48403,0.49447 5.48403,0.98905 5.48403,1.64966 5.48402,2.43943 5.48403,3.33114 5.48403,4.30444 5.48403,5.34376 5.48403,6.43711 5.48403,7.57507 5.48403,8.75025 5.48403,9.95093 5.48403,11.11577 5.48403,12.21702 5.48403,13.26336 5.48403,14.26237 5.48403,15.22034 5.48403,16.14258 5.48403,17.03028 5.48403,17.82722 5.48403,18.49175 5.48403,19.03721 10.96805,39.29882 10.96806,40.34911 16.45209,60.73982 10.96806,39.23326 5.48403,18.93054 5.48403,18.35386 5.48403,17.61496 5.48403,16.64178 5.48403,15.44931 5.48403,14.05512 5.48403,12.47501 5.48403,10.7233 5.48403,8.82183 5.48403,6.9157 5.48403,5.10811 5.48402,3.39473 5.48403,1.76891 5.48403,0.22465 5.48403,-1.24358 5.48403,-2.63162 5.48403,-3.87282 5.48403,-4.94312 5.48403,-5.85319 5.48403,-6.61302 5.48403,-7.23187 5.48403,-7.71829 5.48403,-8.09072 5.48403,-8.39491 10.96806,-17.4844 10.96806,-18.07747 21.93611,-36.42853 10.96806,-17.53519 5.48403,-8.4283 5.48403,-8.14514 5.48403,-7.8421 5.48403,-7.53615 5.48403,-7.22787 5.48403,-6.9174 5.48403,-6.60482 5.48403,-6.29024 5.48403,-5.97409 5.48403,-5.65977 5.48403,-5.34902 5.48403,-5.04167 5.48403,-4.73761 5.48403,-4.43668 5.48403,-4.13874 5.48403,-3.84606 5.48402,-3.57299 5.48403,-3.32418 5.48403,-3.09861 5.48403,-2.89536 5.48403,-2.71352 5.48403,-2.55223 5.48403,-2.40665 5.48403,-2.26105 5.48403,-2.11184 5.48403,-1.95919 5.48403,-1.80321 5.48403,-1.64404 5.48403,-1.48179 5.48403,-1.32021 5.48403,-1.16871 5.48403,-1.02846 5.48403,-0.89904 10.96806,-1.45124 10.96805,-1.05043 10.96806,-0.67048 10.96806,-0.27555 10.96806,0.1339 10.96806,0.51448 10.96806,0.77423 21.93612,1.85115 10.96806,1.0331 10.96806,1.24496 10.96805,1.56931 10.96806,1.87958 21.93612,3.95447 10.96806,1.75892 27.42015,4.24268 10.96806,1.94416 38.3882,7.11716 10.96806,1.74401 5.48403,0.77068 v 0" /></g></g><g
       id="g356"><g
         clip-path="url(#clipPath362)"
         id="g358"><path
           id="path364"
           style="fill:none;stroke:#bcbd22;stroke-width:1.5;stroke-linecap:square;stroke-linejoin:round;stroke-miterlimit:10;stroke-dasharray:none;stroke-opacity:1"
           d="m 184.58182,145.85431 5.48403,0.40096 5.48403,0.7883 5.48403,1.38108 5.48403,2.12798 5.48403,2.99271 5.48402,3.9491 5.48403,4.97785 5.48403,6.06449 5.48403,7.19798 5.48403,8.36982 5.48403,9.57333 5.48403,10.80324 5.48403,12.04507 5.48403,13.19247 5.48403,14.19877 5.48403,15.08333 5.48403,15.86294 5.48403,16.55158 5.48403,17.16101 5.48403,17.69962 10.96806,36.60195 38.3882,130.34019 5.48403,17.84034 5.48403,17.4261 5.48403,16.95039 5.48403,16.41868 5.48403,15.83455 5.48403,15.13512 5.48403,14.23202 5.48403,13.13413 5.48403,11.85699 5.48403,10.41469 5.48403,8.81993 5.48403,7.08816 5.48403,5.34052 5.48403,3.70043 5.48402,2.16656 5.48403,0.73147 5.48403,-0.61165 5.48403,-1.86905 5.48403,-3.04361 5.48403,-4.10501 5.48403,-5.03613 5.48403,-5.84476 5.48403,-6.53859 5.48403,-7.12464 5.48403,-7.60947 5.48403,-8.0002 5.48403,-8.30859 10.96806,-17.2453 21.93612,-35.15303 10.96805,-17.06288 5.48404,-8.27815 5.48402,-8.07018 5.48403,-7.83472 5.48403,-7.57359 5.48403,-7.29968 5.48403,-7.02622 5.48403,-6.75379 5.48403,-6.48237 5.48403,-6.2119 5.48403,-5.94234 5.48403,-5.6729 5.48403,-5.39355 5.48403,-5.09743 5.48403,-4.78511 5.48403,-4.45732 5.48403,-4.11473 5.48403,-3.75796 5.48403,-3.3935 5.48402,-3.07124 5.48403,-2.81433 5.48403,-2.62025 10.96806,-4.89696 21.93612,-9.54669 5.48403,-2.23881 5.48403,-2.08746 5.48403,-1.89197 5.48403,-1.65397 5.48403,-1.38958 5.48403,-1.15343 5.48403,-0.95689 5.48403,-0.79856 10.96806,-1.26809 10.96805,-1.04371 10.96806,-0.78895 5.48403,-0.21871 5.48403,-0.0595 5.48403,0.12991 5.48403,0.34831 5.48403,0.56905 5.48403,0.74448 10.96806,1.82077 16.45209,2.87201 10.96806,1.63066 16.45209,2.09323 60.32432,7.20463 10.96806,1.7023 5.48403,0.99846 5.48403,1.12044 10.96806,2.60123 27.42014,7.08838 5.48403,1.25779 5.48403,1.13295 5.48403,0.97899 5.48403,0.79666 5.48403,0.58666 v 0" /></g></g><g
       id="g366"><g
         clip-path="url(#clipPath372)"
         id="g368"><path
           id="path374"
           style="fill:none;stroke:#17becf;stroke-width:1.5;stroke-linecap:square;stroke-linejoin:round;stroke-miterlimit:10;stroke-dasharray:none;stroke-opacity:1"
           d="m 184.58182,143.47777 5.48403,0.94829 5.48403,1.93307 5.48403,2.96234 5.48403,4.02502 5.48403,5.11322 5.48402,6.22128 5.48403,7.34503 5.48403,8.4813 5.48403,9.62774 5.48403,10.78247 5.48403,11.94408 5.48403,13.11141 5.48403,14.26899 5.48403,15.26974 5.48403,16.05047 5.48403,16.64147 10.96806,34.4235 27.42015,87.49314 10.96805,34.27972 10.96806,33.46093 10.96806,32.3329 5.48403,15.5739 5.48403,15.09154 5.48403,14.55114 5.48403,13.95787 5.48403,13.31599 5.48403,12.59154 5.48403,11.71733 5.48403,10.69704 5.48403,9.54234 5.48403,8.2638 5.48403,6.87092 5.48403,5.37358 5.48403,3.84916 5.48403,2.4037 5.48402,1.04014 5.48403,-0.24726 5.48403,-1.46377 5.48403,-2.61418 5.48403,-3.7002 5.48403,-4.66933 5.48403,-5.47544 5.48403,-6.12677 5.48403,-6.63297 5.48403,-7.00298 10.96806,-14.6234 10.96806,-15.17809 5.48403,-7.88012 5.48403,-8.12421 5.48403,-8.40323 5.48403,-8.71527 10.96806,-18.19836 10.96806,-18.11584 5.48402,-8.60938 5.48403,-8.10456 5.48403,-7.45704 5.48403,-6.76746 5.48403,-6.16795 5.48403,-5.66384 5.48403,-5.25058 5.48403,-4.92389 5.48403,-4.67977 10.96806,-8.89024 5.48403,-4.23382 5.48403,-4.07961 5.48403,-3.91554 5.48403,-3.74203 5.48403,-3.55948 5.48403,-3.36872 5.48402,-3.17508 5.48403,-2.9819 5.48403,-2.78922 5.48403,-2.59703 5.48403,-2.4053 5.48403,-2.214 5.48403,-2.02396 5.48403,-1.84064 5.48403,-1.66616 5.48403,-1.50017 5.48403,-1.34235 5.48403,-1.19241 5.48403,-1.05002 5.48403,-0.9151 5.48403,-0.78823 10.96806,-1.22778 10.96806,-0.81322 10.96805,-0.45613 10.96806,-0.16678 10.96806,0.0463 16.45209,0.31849 10.96806,0.37332 10.96806,0.59492 10.96806,0.89911 10.96806,1.23687 10.96806,1.50091 16.45208,2.56248 21.93612,3.68804 43.87224,7.68221 21.93612,3.97604 16.45208,3.21558 10.96806,2.34377 10.96806,2.5555 10.96806,2.80904 v 0" /></g></g><g
       id="g376"><g
         clip-path="url(#clipPath382)"
         id="g378"><path
           id="path384"
           style="fill:none;stroke:#1f77b4;stroke-width:1.5;stroke-linecap:square;stroke-linejoin:round;stroke-miterlimit:10;stroke-dasharray:none;stroke-opacity:1"
           d="m 184.58182,141.15629 5.48403,2.00684 5.48403,3.69426 5.48403,5.22003 5.48403,6.6246 5.48403,7.93647 5.48402,9.17626 5.48403,10.35911 5.48403,11.49644 5.48403,12.5969 5.48403,13.66721 5.48403,14.71261 5.48403,15.73723 5.48403,16.72557 5.48403,17.48523 21.93612,71.90264 5.48403,17.37176 5.48403,16.79039 5.48403,16.16303 5.48403,15.60731 5.48403,15.12257 5.48403,14.70092 5.48402,14.33557 10.96806,27.77116 5.48403,13.48607 5.48403,13.14778 5.48403,12.73198 5.48403,12.24592 5.48403,11.69595 5.48403,11.08778 5.48403,10.42644 5.48403,9.70613 5.48403,8.90439 5.48403,8.02333 5.48403,7.06929 5.48403,6.04801 5.48403,4.96465 5.48403,3.82404 5.48403,2.65724 5.48403,1.52535 5.48402,0.43377 5.48403,-0.62032 5.48403,-1.63952 5.48403,-2.62617 5.48403,-3.58153 5.48403,-4.46422 5.48403,-5.21873 5.48403,-5.84873 5.48403,-6.36199 5.48403,-6.76573 5.48403,-7.06655 10.96806,-14.67877 27.42015,-37.37205 10.96806,-14.35853 10.96806,-13.83233 10.96805,-13.32402 10.96806,-12.81898 5.48403,-6.17307 5.48403,-5.96661 5.48403,-5.72494 5.48403,-5.44973 5.48403,-5.14253 5.48403,-4.80548 5.48403,-4.46658 5.48403,-4.16094 5.48403,-3.88946 5.48403,-3.65064 5.48403,-3.44306 5.48403,-3.26538 5.48403,-3.11564 5.48402,-2.98011 5.48403,-2.84725 5.48403,-2.71653 5.48403,-2.5879 5.48403,-2.46127 5.48403,-2.33653 5.48403,-2.21249 5.48403,-2.07737 5.48403,-1.92473 5.48403,-1.75518 5.48403,-1.56933 5.48403,-1.36783 5.48403,-1.15125 5.48403,-0.92435 5.48403,-0.71854 5.48403,-0.54694 10.96806,-0.71014 10.96806,-0.40538 16.45208,-0.39379 10.96806,-0.0718 10.96806,0.16036 10.96806,0.45871 10.96806,0.82997 5.48403,0.57652 5.48403,0.69554 5.48403,0.82263 10.96806,1.97773 27.42014,5.34381 10.96806,1.75653 38.38821,5.75252 38.38821,6.4359 16.45208,2.85652 16.45209,3.11581 10.96806,2.29582 5.48403,1.22934 v 0" /></g></g><g
       id="g386"><g
         clip-path="url(#clipPath392)"
         id="g388"><path
           id="path394"
           style="fill:none;stroke:#ff7f0e;stroke-width:1.5;stroke-linecap:square;stroke-linejoin:round;stroke-miterlimit:10;stroke-dasharray:none;stroke-opacity:1"
           d="m 184.58182,139.92458 5.48403,3.95062 5.48403,6.40896 5.48403,8.4447 5.48403,10.1635 5.48403,11.63992 5.48402,12.92784 5.48403,14.06693 5.48403,15.08696 5.48403,16.01061 5.48403,16.85541 5.48403,17.63506 5.48403,18.36043 10.96806,38.38521 10.96806,38.29694 5.48403,18.30146 5.48403,17.38924 5.48403,16.25837 5.48403,14.9392 5.48403,13.61599 5.48403,12.52549 5.48403,11.66014 5.48403,10.99492 5.48402,10.50819 10.96806,20.17855 10.96806,19.66904 5.48403,9.58541 5.48403,9.3561 5.48403,9.08476 5.48403,8.77512 5.48403,8.43051 5.48403,8.02383 5.48403,7.45716 5.48403,6.72145 5.48403,5.83024 5.48403,4.79572 5.48403,3.62891 5.48403,2.33985 5.48403,0.99986 5.48403,-0.21032 5.48402,-1.26869 5.48403,-2.1859 5.48403,-2.97168 5.48403,-3.63495 5.48403,-4.18399 5.48403,-4.64141 5.48403,-5.04103 5.48403,-5.3896 5.48403,-5.69029 5.48403,-5.94607 5.48403,-6.15964 10.96806,-12.80627 10.96806,-13.2422 32.90417,-40.2031 10.96806,-12.87927 5.48403,-6.22791 5.48403,-6.05644 5.48403,-5.86413 5.48403,-5.65318 5.48403,-5.42469 5.48403,-5.17949 5.48403,-4.91839 5.48403,-4.64211 5.48403,-4.35152 5.48403,-4.06394 5.48403,-3.80938 5.48403,-3.58953 5.48403,-3.40287 10.96806,-6.37138 10.96805,-5.95967 5.48403,-2.80696 5.48403,-2.65009 5.48403,-2.46313 5.48403,-2.24725 5.48403,-2.00365 5.48403,-1.73566 5.48403,-1.48347 5.48403,-1.2795 10.96806,-2.13502 21.93612,-3.72701 10.96806,-1.68314 5.48403,-0.67065 5.48403,-0.50412 5.48403,-0.29989 5.48402,-0.0666 5.48403,0.14109 5.48403,0.30058 10.96806,0.89444 16.45209,1.42909 21.93612,1.64796 10.96806,1.11652 10.96806,1.5039 10.96806,1.82199 16.45208,3.10465 27.42015,5.34651 10.96806,1.9187 16.45209,2.56909 16.45209,2.58782 10.96806,1.93827 10.96806,2.14511 10.96805,2.33583 10.96806,2.51122 16.45209,4.06401 5.48403,1.42705 v 0" /></g></g><g
       id="g396"><g
         clip-path="url(#clipPath402)"
         id="g398"><path
           id="path404"
           style="fill:none;stroke:#2ca02c;stroke-width:1.5;stroke-linecap:square;stroke-linejoin:round;stroke-miterlimit:10;stroke-dasharray:none;stroke-opacity:1"
           d="m 184.58182,137.65091 5.48403,7.28506 5.48403,10.9773 5.48403,13.7077 5.48403,15.7167 5.48403,17.17405 5.48402,18.20234 5.48403,18.8919 10.96806,38.82014 10.96806,38.93022 10.96806,37.93384 5.48403,18.25855 5.48403,17.55735 5.48403,16.70615 5.48403,15.72563 5.48403,14.63302 5.48403,13.44279 5.48403,12.16935 5.48403,10.9287 5.48403,9.86515 5.48403,8.96965 5.48403,8.22353 5.48402,7.61064 5.48403,7.11694 5.48403,6.73023 5.48403,6.43823 10.96806,12.31534 21.93612,24.19107 10.96806,12.29109 5.48403,5.68005 5.48403,5.04736 5.48403,4.19659 5.48403,3.14454 5.48403,1.90638 5.48403,0.5604 5.48403,-0.65512 5.48402,-1.69801 5.48403,-2.58038 5.48403,-3.31332 5.48403,-3.90693 5.48403,-4.37055 5.48403,-4.72806 5.48403,-5.02479 5.48403,-5.27057 10.96806,-11.09039 10.96806,-11.53732 27.42015,-29.0732 10.96806,-11.21538 10.96805,-10.84892 27.42015,-26.52402 10.96806,-10.45074 5.48403,-5.0418 5.48403,-4.8535 5.48403,-4.6186 5.48403,-4.33936 5.48403,-4.03621 5.48403,-3.75332 5.48403,-3.49592 5.48403,-3.26291 5.48403,-3.05321 5.48403,-2.86582 5.48403,-2.69972 5.48402,-2.54898 5.48403,-2.40493 5.48403,-2.26659 5.48403,-2.13374 5.48403,-2.00613 5.48403,-1.88357 5.48403,-1.76571 5.48403,-1.64769 5.48403,-1.52428 5.48403,-1.39537 5.48403,-1.26117 5.48403,-1.12189 5.48403,-0.97773 5.48403,-0.829 5.48403,-0.67866 5.48403,-0.52913 5.48403,-0.38047 5.48403,-0.23263 5.48403,-0.0856 5.48403,0.0607 5.48402,0.20527 5.48403,0.33739 10.96806,0.99532 10.96806,1.30212 16.45209,2.23794 21.93612,3.0165 16.45209,1.99683 21.93612,2.59966 10.96805,1.5133 16.45209,2.54678 43.87224,7.04199 10.96806,2.07411 10.96806,2.3266 16.45208,3.78153 27.42015,6.37822 5.48403,1.19875 v 0" /></g></g><g
       id="g406"><g
         clip-path="url(#clipPath412)"
         id="g408"><path
           id="path414"
           style="fill:none;stroke:#d62728;stroke-width:1.5;stroke-linecap:square;stroke-linejoin:round;stroke-miterlimit:10;stroke-dasharray:none;stroke-opacity:1"
           d="m 184.58182,142.6748 5.48403,12.47664 5.48403,16.97684 5.48403,20.01096 5.48403,21.9455 10.96805,46.51808 5.48403,23.40228 5.48403,22.91262 5.48403,22.08858 5.48403,20.99098 5.48403,19.66736 5.48403,18.15543 5.48403,16.51013 5.48403,14.94949 5.48403,13.5547 5.48403,12.30272 5.48403,11.17384 5.48403,10.15166 5.48403,9.2224 5.48403,8.37508 5.48403,7.62504 5.48403,6.99384 5.48403,6.47009 5.48403,6.04189 5.48402,5.69889 5.48403,5.43213 10.96806,10.31643 5.48403,4.93173 5.48403,4.77323 5.48403,4.60783 5.48403,4.43618 5.48403,4.25881 5.48403,4.07624 5.48403,3.87251 5.48403,3.57497 5.48403,3.17018 5.48403,2.6667 5.48403,2.0723 5.48403,1.39394 5.48403,0.63798 5.48403,-0.16717 5.48403,-0.92063 5.48402,-1.60001 5.48403,-2.21052 5.48403,-2.7569 5.48403,-3.24349 5.48403,-3.67429 5.48403,-4.04844 5.48403,-4.35571 5.48403,-4.59773 10.96806,-9.68053 27.42015,-24.96567 10.96806,-10.19464 10.96806,-10.49169 21.93611,-21.35555 10.96806,-10.18897 5.48403,-4.83939 5.48403,-4.65168 5.48403,-4.46542 5.48403,-4.28051 5.48403,-4.09693 5.48403,-3.91457 5.48403,-3.73342 5.48403,-3.55251 5.48403,-3.36844 5.48403,-3.18054 5.48403,-2.98896 5.48403,-2.79388 5.48403,-2.59544 5.48403,-2.39405 5.48402,-2.19771 5.48403,-2.01524 5.48403,-1.84652 5.48403,-1.69101 5.48403,-1.54817 5.48403,-1.41751 5.48403,-1.29795 5.48403,-1.18061 5.48403,-1.05893 5.48403,-0.93289 5.48403,-0.80268 5.48403,-0.66843 5.48403,-0.53031 5.48403,-0.3895 5.48403,-0.25501 5.48403,-0.13115 10.96806,0.0685 10.96806,0.4452 10.96805,0.74468 16.45209,1.47823 27.42015,2.80357 10.96806,1.26633 10.96806,1.44771 10.96806,1.66909 10.96806,1.87756 10.96806,2.06714 27.42014,5.474 10.96806,1.83502 10.96806,1.43696 16.45209,1.99377 5.48403,0.78697 5.48403,0.91372 10.96806,2.21457 21.93611,4.88208 5.48403,1.08813 5.48403,0.96142 5.48403,0.79947 5.48403,0.60319 5.48403,0.37342 5.48403,0.11101 v 0" /></g></g><g
       id="g416"><g
         clip-path="url(#clipPath422)"
         id="g418"><path
           id="path424"
           style="fill:none;stroke:#9467bd;stroke-width:1.5;stroke-linecap:square;stroke-linejoin:round;stroke-miterlimit:10;stroke-dasharray:none;stroke-opacity:1"
           d="m 184.58182,164.63639 5.48403,19.55991 5.48403,23.48889 5.48403,25.83309 16.45208,80.99914 5.48403,25.75671 5.48403,24.29186 5.48403,22.46555 5.48403,20.34351 5.48403,17.97718 5.48403,15.40728 5.48403,12.73172 5.48403,10.3946 5.48403,8.51746 5.48403,7.03516 5.48403,5.89323 5.48403,5.04628 5.48403,4.45625 5.48403,4.08885 5.48403,3.85354 5.48403,3.66389 10.96806,6.90135 10.96805,6.53279 16.45209,9.47137 10.96806,6.0418 10.96806,5.69038 5.48403,2.68333 5.48403,2.54846 5.48403,2.3361 5.48403,2.03737 5.48403,1.65919 5.48403,1.20779 5.48403,0.68878 5.48403,0.1073 5.48403,-0.5161 5.48403,-1.1048 5.48402,-1.64011 5.48403,-2.12578 5.48403,-2.56521 5.48403,-2.96157 5.48403,-3.31769 5.48403,-3.63432 5.48403,-3.90709 5.48403,-4.1373 5.48403,-4.32759 10.96806,-9.07849 10.96806,-9.42459 16.45209,-14.47383 27.42014,-24.35331 10.96806,-9.30726 5.48403,-4.41991 5.48403,-4.21995 5.48403,-3.99263 5.48403,-3.7737 5.48403,-3.58146 5.48403,-3.41481 10.96806,-6.42614 10.96806,-6.03344 10.96806,-5.65198 5.48403,-2.63022 5.48403,-2.47125 5.48403,-2.29209 5.48403,-2.09381 5.48402,-1.89519 5.48403,-1.72688 10.96806,-3.07567 10.96806,-2.77037 16.45209,-3.90641 5.48403,-1.14959 5.48403,-1.01029 5.48403,-0.83511 5.48403,-0.62539 5.48403,-0.38507 5.48403,-0.15803 5.48403,0.0216 10.96806,0.39717 21.93611,1.07053 10.96806,0.54896 5.48403,0.37937 5.48403,0.49196 5.48403,0.63524 5.48403,0.79722 10.96806,1.9402 16.45209,3.12236 10.96806,1.76872 27.42015,3.91783 10.96805,2.06209 10.96806,2.4067 21.93612,5.01956 10.96806,2.29953 10.96806,2.11354 10.96806,1.92822 16.45209,2.58823 38.3882,5.80183 10.96806,1.89607 v 0" /></g></g><g
       id="g426"><path
         id="path428"
         style="fill:none;stroke:#000000;stroke-width:0.80000001;stroke-linecap:square;stroke-linejoin:miter;stroke-miterlimit:10;stroke-dasharray:none;stroke-opacity:1"
         d="M 144,108 V 760.32" /><path
         id="path430"
         style="fill:none;stroke:#000000;stroke-width:0.80000001;stroke-linecap:square;stroke-linejoin:miter;stroke-miterlimit:10;stroke-dasharray:none;stroke-opacity:1"
         d="M 1036.8,108 V 760.32" /><path
         id="path432"
         style="fill:none;stroke:#000000;stroke-width:0.80000001;stroke-linecap:square;stroke-linejoin:miter;stroke-miterlimit:10;stroke-dasharray:none;stroke-opacity:1"
         d="m 144,108 h 892.8" /><path
         id="path434"
         style="fill:none;stroke:#000000;stroke-width:0.80000001;stroke-linecap:square;stroke-linejoin:miter;stroke-miterlimit:10;stroke-dasharray:none;stroke-opacity:1"
         d="m 144,760.32 h 892.8" /><text
         id="text438"
         style="font-variant:normal;font-weight:normal;font-size:24px;font-family:'DejaVu Sans';-inkscape-font-specification:DejaVuSans;writing-mode:lr-tb;fill:#000000;fill-opacity:1;fill-rule:nonzero;stroke:none"
         transform="matrix(1,0,0,-1,468.18906,766.32)"><tspan
           id="tspan436"
           y="0"
           x="0 15.24 31.992001 48.456001 67.344002 74.975998 93.024002 107.784 122.496 131.90401 139.536 156.28799 171 186.24001 200.952 214.15199 220.82401 230.23199">SCBO Heat Capacity</tspan></text>
<path
         id="path440"
         style="fill:#ffffff;fill-opacity:0.8;fill-rule:nonzero;stroke:#cccccc;stroke-width:1;stroke-linecap:butt;stroke-linejoin:miter;stroke-miterlimit:10;stroke-dasharray:none;stroke-opacity:0.8"
         d="M 967.39062,486.345 H 1028.4 c 1.6,0 2.4,0.8 2.4,2.4 V 751.92 c 0,1.6 -0.8,2.4 -2.4,2.4 h -61.00938 c -1.6,0 -2.4,-0.8 -2.4,-2.4 V 488.745 c 0,-1.6 0.8,-2.4 2.4,-2.4 z" /><path
         id="path442"
         style="fill:none;stroke:#1f77b4;stroke-width:1.5;stroke-linecap:square;stroke-linejoin:round;stroke-miterlimit:10;stroke-dasharray:none;stroke-opacity:1"
         d="m 969.79062,744.595 h 24" /><text
         id="text446"
         style="font-variant:normal;font-weight:normal;font-size:12px;font-family:'DejaVu Sans';-inkscape-font-specification:DejaVuSans;writing-mode:lr-tb;fill:#000000;fill-opacity:1;fill-rule:nonzero;stroke:none"
         transform="matrix(1,0,0,-1,1003.3906,740.395)"><tspan
           id="tspan444"
           y="0"
           x="0 7.632">0T</tspan></text>
<path
         id="path448"
         style="fill:none;stroke:#ff7f0e;stroke-width:1.5;stroke-linecap:square;stroke-linejoin:round;stroke-miterlimit:10;stroke-dasharray:none;stroke-opacity:1"
         d="m 969.79062,726.97 h 24" /><text
         id="text452"
         style="font-variant:normal;font-weight:normal;font-size:12px;font-family:'DejaVu Sans';-inkscape-font-specification:DejaVuSans;writing-mode:lr-tb;fill:#000000;fill-opacity:1;fill-rule:nonzero;stroke:none"
         transform="matrix(1,0,0,-1,1003.3906,722.77)"><tspan
           id="tspan450"
           y="0"
           x="0 7.632">1T</tspan></text>
<path
         id="path454"
         style="fill:none;stroke:#2ca02c;stroke-width:1.5;stroke-linecap:square;stroke-linejoin:round;stroke-miterlimit:10;stroke-dasharray:none;stroke-opacity:1"
         d="m 969.79062,709.345 h 24" /><text
         id="text458"
         style="font-variant:normal;font-weight:normal;font-size:12px;font-family:'DejaVu Sans';-inkscape-font-specification:DejaVuSans;writing-mode:lr-tb;fill:#000000;fill-opacity:1;fill-rule:nonzero;stroke:none"
         transform="matrix(1,0,0,-1,1003.3906,705.145)"><tspan
           id="tspan456"
           y="0"
           x="0 7.632">2T</tspan></text>
<path
         id="path460"
         style="fill:none;stroke:#d62728;stroke-width:1.5;stroke-linecap:square;stroke-linejoin:round;stroke-miterlimit:10;stroke-dasharray:none;stroke-opacity:1"
         d="m 969.79062,691.72 h 24" /><text
         id="text464"
         style="font-variant:normal;font-weight:normal;font-size:12px;font-family:'DejaVu Sans';-inkscape-font-specification:DejaVuSans;writing-mode:lr-tb;fill:#000000;fill-opacity:1;fill-rule:nonzero;stroke:none"
         transform="matrix(1,0,0,-1,1003.3906,687.52)"><tspan
           id="tspan462"
           y="0"
           x="0 7.632">3T</tspan></text>
<path
         id="path466"
         style="fill:none;stroke:#9467bd;stroke-width:1.5;stroke-linecap:square;stroke-linejoin:round;stroke-miterlimit:10;stroke-dasharray:none;stroke-opacity:1"
         d="m 969.79062,674.095 h 24" /><text
         id="text470"
         style="font-variant:normal;font-weight:normal;font-size:12px;font-family:'DejaVu Sans';-inkscape-font-specification:DejaVuSans;writing-mode:lr-tb;fill:#000000;fill-opacity:1;fill-rule:nonzero;stroke:none"
         transform="matrix(1,0,0,-1,1003.3906,669.895)"><tspan
           id="tspan468"
           y="0"
           x="0 7.632">4T</tspan></text>
<path
         id="path472"
         style="fill:none;stroke:#8c564b;stroke-width:1.5;stroke-linecap:square;stroke-linejoin:round;stroke-miterlimit:10;stroke-dasharray:none;stroke-opacity:1"
         d="m 969.79062,656.47 h 24" /><text
         id="text476"
         style="font-variant:normal;font-weight:normal;font-size:12px;font-family:'DejaVu Sans';-inkscape-font-specification:DejaVuSans;writing-mode:lr-tb;fill:#000000;fill-opacity:1;fill-rule:nonzero;stroke:none"
         transform="matrix(1,0,0,-1,1003.3906,652.27)"><tspan
           id="tspan474"
           y="0"
           x="0 7.632">5T</tspan></text>
<path
         id="path478"
         style="fill:none;stroke:#e377c2;stroke-width:1.5;stroke-linecap:square;stroke-linejoin:round;stroke-miterlimit:10;stroke-dasharray:none;stroke-opacity:1"
         d="m 969.79062,638.845 h 24" /><text
         id="text482"
         style="font-variant:normal;font-weight:normal;font-size:12px;font-family:'DejaVu Sans';-inkscape-font-specification:DejaVuSans;writing-mode:lr-tb;fill:#000000;fill-opacity:1;fill-rule:nonzero;stroke:none"
         transform="matrix(1,0,0,-1,1003.3906,634.645)"><tspan
           id="tspan480"
           y="0"
           x="0 7.632">6T</tspan></text>
<path
         id="path484"
         style="fill:none;stroke:#7f7f7f;stroke-width:1.5;stroke-linecap:square;stroke-linejoin:round;stroke-miterlimit:10;stroke-dasharray:none;stroke-opacity:1"
         d="m 969.79062,621.22 h 24" /><text
         id="text488"
         style="font-variant:normal;font-weight:normal;font-size:12px;font-family:'DejaVu Sans';-inkscape-font-specification:DejaVuSans;writing-mode:lr-tb;fill:#000000;fill-opacity:1;fill-rule:nonzero;stroke:none"
         transform="matrix(1,0,0,-1,1003.3906,617.02)"><tspan
           id="tspan486"
           y="0"
           x="0 7.632">7T</tspan></text>
<path
         id="path490"
         style="fill:none;stroke:#bcbd22;stroke-width:1.5;stroke-linecap:square;stroke-linejoin:round;stroke-miterlimit:10;stroke-dasharray:none;stroke-opacity:1"
         d="m 969.79062,603.595 h 24" /><text
         id="text494"
         style="font-variant:normal;font-weight:normal;font-size:12px;font-family:'DejaVu Sans';-inkscape-font-specification:DejaVuSans;writing-mode:lr-tb;fill:#000000;fill-opacity:1;fill-rule:nonzero;stroke:none"
         transform="matrix(1,0,0,-1,1003.3906,599.395)"><tspan
           id="tspan492"
           y="0"
           x="0 7.632">8T</tspan></text>
<path
         id="path496"
         style="fill:none;stroke:#17becf;stroke-width:1.5;stroke-linecap:square;stroke-linejoin:round;stroke-miterlimit:10;stroke-dasharray:none;stroke-opacity:1"
         d="m 969.79062,585.97 h 24" /><text
         id="text500"
         style="font-variant:normal;font-weight:normal;font-size:12px;font-family:'DejaVu Sans';-inkscape-font-specification:DejaVuSans;writing-mode:lr-tb;fill:#000000;fill-opacity:1;fill-rule:nonzero;stroke:none"
         transform="matrix(1,0,0,-1,1003.3906,581.77)"><tspan
           id="tspan498"
           y="0"
           x="0 7.632">9T</tspan></text>
<path
         id="path502"
         style="fill:none;stroke:#1f77b4;stroke-width:1.5;stroke-linecap:square;stroke-linejoin:round;stroke-miterlimit:10;stroke-dasharray:none;stroke-opacity:1"
         d="m 969.79062,568.345 h 24" /><text
         id="text506"
         style="font-variant:normal;font-weight:normal;font-size:12px;font-family:'DejaVu Sans';-inkscape-font-specification:DejaVuSans;writing-mode:lr-tb;fill:#000000;fill-opacity:1;fill-rule:nonzero;stroke:none"
         transform="matrix(1,0,0,-1,1003.3906,564.145)"><tspan
           id="tspan504"
           y="0"
           x="0 7.632 15.264">10T</tspan></text>
<path
         id="path508"
         style="fill:none;stroke:#ff7f0e;stroke-width:1.5;stroke-linecap:square;stroke-linejoin:round;stroke-miterlimit:10;stroke-dasharray:none;stroke-opacity:1"
         d="m 969.79062,550.72 h 24" /><text
         id="text512"
         style="font-variant:normal;font-weight:normal;font-size:12px;font-family:'DejaVu Sans';-inkscape-font-specification:DejaVuSans;writing-mode:lr-tb;fill:#000000;fill-opacity:1;fill-rule:nonzero;stroke:none"
         transform="matrix(1,0,0,-1,1003.3906,546.52)"><tspan
           id="tspan510"
           y="0"
           x="0 7.632 15.264">11T</tspan></text>
<path
         id="path514"
         style="fill:none;stroke:#2ca02c;stroke-width:1.5;stroke-linecap:square;stroke-linejoin:round;stroke-miterlimit:10;stroke-dasharray:none;stroke-opacity:1"
         d="m 969.79062,533.095 h 24" /><text
         id="text518"
         style="font-variant:normal;font-weight:normal;font-size:12px;font-family:'DejaVu Sans';-inkscape-font-specification:DejaVuSans;writing-mode:lr-tb;fill:#000000;fill-opacity:1;fill-rule:nonzero;stroke:none"
         transform="matrix(1,0,0,-1,1003.3906,528.895)"><tspan
           id="tspan516"
           y="0"
           x="0 7.632 15.264">12T</tspan></text>
<path
         id="path520"
         style="fill:none;stroke:#d62728;stroke-width:1.5;stroke-linecap:square;stroke-linejoin:round;stroke-miterlimit:10;stroke-dasharray:none;stroke-opacity:1"
         d="m 969.79062,515.47 h 24" /><text
         id="text524"
         style="font-variant:normal;font-weight:normal;font-size:12px;font-family:'DejaVu Sans';-inkscape-font-specification:DejaVuSans;writing-mode:lr-tb;fill:#000000;fill-opacity:1;fill-rule:nonzero;stroke:none"
         transform="matrix(1,0,0,-1,1003.3906,511.27)"><tspan
           id="tspan522"
           y="0"
           x="0 7.632 15.264">13T</tspan></text>
<path
         id="path526"
         style="fill:none;stroke:#9467bd;stroke-width:1.5;stroke-linecap:square;stroke-linejoin:round;stroke-miterlimit:10;stroke-dasharray:none;stroke-opacity:1"
         d="m 969.79062,497.845 h 24" /><text
         id="text530"
         style="font-variant:normal;font-weight:normal;font-size:12px;font-family:'DejaVu Sans';-inkscape-font-specification:DejaVuSans;writing-mode:lr-tb;fill:#000000;fill-opacity:1;fill-rule:nonzero;stroke:none"
         transform="matrix(1,0,0,-1,1003.3906,493.645)"><tspan
           id="tspan528"
           y="0"
           x="0 7.632 15.264">14T</tspan></text>
</g></g></svg>