<?xml version="1.0" encoding="UTF-8" standalone="no"?>
<svg
   xmlns:dc="http://purl.org/dc/elements/1.1/"
   xmlns:cc="http://creativecommons.org/ns#"
   xmlns:rdf="http://www.w3.org/1999/02/22-rdf-syntax-ns#"
   xmlns:svg="http://www.w3.org/2000/svg"
   xmlns="http://www.w3.org/2000/svg"
   viewBox="0 0 170.41733 144"
   height="144"
   width="170.41733"
   xml:space="preserve"
   id="svg2"
   version="1.1"><metadata
     id="metadata8"><rdf:RDF><cc:Work
         rdf:about=""><dc:format>image/svg+xml</dc:format><dc:type
           rdf:resource="http://purl.org/dc/dcmitype/StillImage" /></cc:Work></rdf:RDF></metadata><defs
     id="defs6"><clipPath
       id="clipPath22"
       clipPathUnits="userSpaceOnUse"><path
         id="path20"
         d="M 0,0 H 128 V 108 H 0 Z" /></clipPath><clipPath
       id="clipPath34"
       clipPathUnits="userSpaceOnUse"><path
         id="path32"
         d="M 0,0 H 128 V 108 H 0 Z" /></clipPath><clipPath
       id="clipPath138"
       clipPathUnits="userSpaceOnUse"><path
         id="path136"
         d="M 5.934,0 H 127.813 V 103.531 H 5.934 Z" /></clipPath><clipPath
       id="clipPath148"
       clipPathUnits="userSpaceOnUse"><path
         id="path146"
         d="M 0,0 H 128 V 108 H 0 Z" /></clipPath><clipPath
       id="clipPath200"
       clipPathUnits="userSpaceOnUse"><path
         id="path198"
         d="M 0,0 H 128 V 108 H 0 Z" /></clipPath><clipPath
       id="clipPath222"
       clipPathUnits="userSpaceOnUse"><path
         id="path220"
         d="M 0,0 H 128 V 108 H 0 Z" /></clipPath><clipPath
       id="clipPath254"
       clipPathUnits="userSpaceOnUse"><path
         id="path252"
         d="M 0,0 H 128 V 108 H 0 Z" /></clipPath><clipPath
       id="clipPath276"
       clipPathUnits="userSpaceOnUse"><path
         id="path274"
         d="M 0,0 H 128 V 108 H 0 Z" /></clipPath><clipPath
       id="clipPath308"
       clipPathUnits="userSpaceOnUse"><path
         id="path306"
         d="M 0,0 H 128 V 108 H 0 Z" /></clipPath><clipPath
       id="clipPath374"
       clipPathUnits="userSpaceOnUse"><path
         id="path372"
         d="M 0,0 H 128 V 108 H 0 Z" /></clipPath><clipPath
       id="clipPath446"
       clipPathUnits="userSpaceOnUse"><path
         id="path444"
         d="M 0,0 H 128 V 108 H 0 Z" /></clipPath><clipPath
       id="clipPath466"
       clipPathUnits="userSpaceOnUse"><path
         id="path464"
         d="M 0,0 H 128 V 108 H 0 Z" /></clipPath><clipPath
       id="clipPath478"
       clipPathUnits="userSpaceOnUse"><path
         id="path476"
         d="M 0,0 H 128 V 108 H 0 Z" /></clipPath></defs><g
     transform="scale(1.3333333)"
     id="g10"><g
       id="g12"><g
         id="g14"><g
           id="g16"><g
             clip-path="url(#clipPath22)"
             id="g18"><g
               id="g24"><g
                 id="g26"><g
                   id="g28"><g
                     clip-path="url(#clipPath34)"
                     id="g30"><g
                       id="g36"><path
                         id="path38"
                         style="fill:#ffffff;fill-opacity:1;fill-rule:nonzero;stroke:none"
                         d="M 4.754,0 H 127.813 V 107 H 4.754 Z" /></g></g></g></g></g></g></g></g><path
         id="path40"
         style="fill:#8cc63f;fill-opacity:1;fill-rule:evenodd;stroke:none"
         d="m 54.594,56.695 c -0.196,1.235 -1.356,2.078 -2.594,1.883 -1.234,-0.195 -2.078,-1.359 -1.883,-2.594 0.199,-1.234 1.36,-2.078 2.594,-1.882 1.234,0.195 2.078,1.359 1.883,2.593" /><g
         transform="scale(1,-1)"
         id="g42"><path
           id="path44"
           style="fill:none;stroke:#00839b;stroke-width:0.25;stroke-linecap:butt;stroke-linejoin:miter;stroke-miterlimit:10;stroke-dasharray:none;stroke-opacity:1"
           d="m 54.594,-56.695 c -0.196,-1.235 -1.356,-2.078 -2.594,-1.883 -1.234,0.195 -2.078,1.359 -1.883,2.594 0.199,1.234 1.36,2.078 2.594,1.882 1.234,-0.195 2.078,-1.359 1.883,-2.593 z" /></g><g
         transform="scale(1,-1)"
         id="g46"><path
           id="path48"
           style="fill:none;stroke:#231f20;stroke-width:0.5;stroke-linecap:butt;stroke-linejoin:miter;stroke-miterlimit:10;stroke-dasharray:1.304, 2;stroke-dashoffset:0;stroke-opacity:1"
           d="M 48.133,-25.797 12.738,-96.586 h 70.789 l 35.395,70.789 z" /></g><path
         id="path50"
         style="fill:#bc8cbf;fill-opacity:1;fill-rule:evenodd;stroke:none"
         d="m 90.035,21.301 c -0.195,1.234 -1.355,2.078 -2.594,1.883 -1.234,-0.196 -2.078,-1.356 -1.879,-2.59 0.196,-1.239 1.356,-2.078 2.59,-1.883 1.235,0.195 2.078,1.355 1.883,2.59" /><g
         transform="scale(1,-1)"
         id="g52"><path
           id="path54"
           style="fill:none;stroke:#932b69;stroke-width:0.16299;stroke-linecap:butt;stroke-linejoin:miter;stroke-miterlimit:10;stroke-dasharray:none;stroke-opacity:1"
           d="m 90.035,-21.301 c -0.195,-1.234 -1.355,-2.078 -2.594,-1.883 -1.234,0.196 -2.078,1.356 -1.879,2.59 0.196,1.239 1.356,2.078 2.59,1.883 1.235,-0.195 2.078,-1.355 1.883,-2.59 z" /></g><path
         id="path56"
         style="fill:#ef4023;fill-opacity:1;fill-rule:evenodd;stroke:none"
         d="m 125.414,21.301 c -0.195,1.234 -1.355,2.078 -2.594,1.883 -1.234,-0.196 -2.078,-1.356 -1.882,-2.59 0.195,-1.239 1.359,-2.078 2.593,-1.883 1.235,0.195 2.078,1.355 1.883,2.59" /><g
         transform="scale(1,-1)"
         id="g58"><path
           id="path60"
           style="fill:none;stroke:#932b69;stroke-width:0.25;stroke-linecap:butt;stroke-linejoin:miter;stroke-miterlimit:10;stroke-dasharray:none;stroke-opacity:1"
           d="m 125.414,-21.301 c -0.195,-1.234 -1.355,-2.078 -2.594,-1.883 -1.234,0.196 -2.078,1.356 -1.882,2.59 0.195,1.239 1.359,2.078 2.593,1.883 1.235,-0.195 2.078,-1.355 1.883,-2.59 z" /></g><path
         id="path62"
         style="fill:#bc8cbf;fill-opacity:1;fill-rule:evenodd;stroke:none"
         d="m 96.504,41.422 c -1.227,-0.238 -2.027,-1.43 -1.789,-2.656 0.238,-1.227 1.43,-2.032 2.656,-1.793 1.227,0.238 2.031,1.429 1.793,2.656 -0.242,1.226 -1.43,2.031 -2.66,1.793" /><g
         transform="scale(1,-1)"
         id="g64"><path
           id="path66"
           style="fill:none;stroke:#932b69;stroke-width:0.16299;stroke-linecap:butt;stroke-linejoin:miter;stroke-miterlimit:10;stroke-dasharray:none;stroke-opacity:1"
           d="m 96.504,-41.422 c -1.227,0.238 -2.027,1.43 -1.789,2.656 0.238,1.227 1.43,2.032 2.656,1.793 1.227,-0.238 2.031,-1.429 1.793,-2.656 -0.242,-1.226 -1.43,-2.031 -2.66,-1.793 z" /></g><path
         id="path68"
         style="fill:#8cc63f;fill-opacity:1;fill-rule:evenodd;stroke:none"
         d="m 60.98,41.422 c -1.226,-0.238 -2.027,-1.43 -1.789,-2.656 0.239,-1.227 1.426,-2.032 2.653,-1.793 1.23,0.238 2.031,1.429 1.793,2.656 -0.239,1.226 -1.43,2.031 -2.657,1.793" /><g
         transform="scale(1,-1)"
         id="g70"><path
           id="path72"
           style="fill:none;stroke:#00839b;stroke-width:0.25;stroke-linecap:butt;stroke-linejoin:miter;stroke-miterlimit:10;stroke-dasharray:none;stroke-opacity:1"
           d="m 60.98,-41.422 c -1.226,0.238 -2.027,1.43 -1.789,2.656 0.239,1.227 1.426,2.032 2.653,1.793 1.23,-0.238 2.031,-1.429 1.793,-2.656 -0.239,-1.226 -1.43,-2.031 -2.657,-1.793 z" /></g><path
         id="path74"
         style="fill:#ef4023;fill-opacity:1;fill-rule:evenodd;stroke:none"
         d="m 54.785,21.301 c -0.199,1.234 -1.359,2.078 -2.594,1.883 -1.234,-0.196 -2.078,-1.356 -1.882,-2.59 0.195,-1.239 1.355,-2.078 2.589,-1.883 1.239,0.195 2.082,1.355 1.887,2.59" /><g
         transform="scale(1,-1)"
         id="g76"><path
           id="path78"
           style="fill:none;stroke:#932b69;stroke-width:0.25;stroke-linecap:butt;stroke-linejoin:miter;stroke-miterlimit:10;stroke-dasharray:none;stroke-opacity:1"
           d="m 54.785,-21.301 c -0.199,-1.234 -1.359,-2.078 -2.594,-1.883 -1.234,0.196 -2.078,1.356 -1.882,2.59 0.195,1.239 1.355,2.078 2.589,1.883 1.239,-0.195 2.082,-1.355 1.887,-2.59 z" /></g><path
         id="path80"
         style="fill:#8cc63f;fill-opacity:1;fill-rule:evenodd;stroke:none"
         d="m 90.008,56.695 c -0.196,1.235 -1.356,2.078 -2.594,1.883 -1.234,-0.195 -2.078,-1.359 -1.883,-2.594 0.196,-1.234 1.36,-2.078 2.594,-1.882 1.234,0.195 2.078,1.359 1.883,2.593" /><g
         transform="scale(1,-1)"
         id="g82"><path
           id="path84"
           style="fill:none;stroke:#00839b;stroke-width:0.25;stroke-linecap:butt;stroke-linejoin:miter;stroke-miterlimit:10;stroke-dasharray:none;stroke-opacity:1"
           d="m 90.008,-56.695 c -0.196,-1.235 -1.356,-2.078 -2.594,-1.883 -1.234,0.195 -2.078,1.359 -1.883,2.594 0.196,1.234 1.36,2.078 2.594,1.882 1.234,-0.195 2.078,-1.359 1.883,-2.593 z" /></g><path
         id="path86"
         style="fill:#8cc63f;fill-opacity:1;fill-rule:evenodd;stroke:none"
         d="m 61.344,76.812 c -1.231,-0.238 -2.032,-1.425 -1.793,-2.652 0.238,-1.23 1.429,-2.031 2.656,-1.793 1.227,0.238 2.031,1.43 1.789,2.656 -0.238,1.227 -1.426,2.032 -2.652,1.789" /><g
         transform="scale(1,-1)"
         id="g88"><path
           id="path90"
           style="fill:none;stroke:#00839b;stroke-width:0.25;stroke-linecap:butt;stroke-linejoin:miter;stroke-miterlimit:10;stroke-dasharray:none;stroke-opacity:1"
           d="m 61.344,-76.812 c -1.231,0.238 -2.032,1.425 -1.793,2.652 0.238,1.23 1.429,2.031 2.656,1.793 1.227,-0.238 2.031,-1.43 1.789,-2.656 -0.238,-1.227 -1.426,-2.032 -2.652,-1.789 z" /></g><path
         id="path92"
         style="fill:#bc8cbf;fill-opacity:1;fill-rule:evenodd;stroke:none"
         d="m 25.719,77.531 c -1.227,-0.234 -2.028,-1.426 -1.789,-2.652 0.238,-1.231 1.429,-2.031 2.656,-1.793 1.226,0.238 2.027,1.43 1.789,2.656 -0.238,1.227 -1.426,2.031 -2.656,1.789" /><g
         transform="scale(1,-1)"
         id="g94"><path
           id="path96"
           style="fill:none;stroke:#932b69;stroke-width:0.16299;stroke-linecap:butt;stroke-linejoin:miter;stroke-miterlimit:10;stroke-dasharray:none;stroke-opacity:1"
           d="m 25.719,-77.531 c -1.227,0.234 -2.028,1.426 -1.789,2.652 0.238,1.231 1.429,2.031 2.656,1.793 1.226,-0.238 2.027,-1.43 1.789,-2.656 -0.238,-1.227 -1.426,-2.031 -2.656,-1.789 z" /></g><path
         id="path98"
         style="fill:#ef4023;fill-opacity:1;fill-rule:evenodd;stroke:none"
         d="m 19.387,92.086 c -0.196,1.234 -1.356,2.078 -2.59,1.883 -1.235,-0.196 -2.078,-1.356 -1.883,-2.59 0.195,-1.234 1.356,-2.078 2.59,-1.883 1.238,0.195 2.082,1.356 1.883,2.59" /><g
         transform="scale(1,-1)"
         id="g100"><path
           id="path102"
           style="fill:none;stroke:#932b69;stroke-width:0.25;stroke-linecap:butt;stroke-linejoin:miter;stroke-miterlimit:10;stroke-dasharray:none;stroke-opacity:1"
           d="m 19.387,-92.086 c -0.196,-1.234 -1.356,-2.078 -2.59,-1.883 -1.235,0.196 -2.078,1.356 -1.883,2.59 0.195,1.234 1.356,2.078 2.59,1.883 1.238,-0.195 2.082,-1.356 1.883,-2.59 z" /></g><path
         id="path104"
         style="fill:#bc8cbf;fill-opacity:1;fill-rule:evenodd;stroke:none"
         d="m 54.645,92.086 c -0.2,1.234 -1.36,2.078 -2.594,1.883 -1.235,-0.196 -2.078,-1.356 -1.883,-2.59 0.195,-1.234 1.355,-2.078 2.59,-1.883 1.234,0.195 2.078,1.356 1.887,2.59" /><g
         transform="scale(1,-1)"
         id="g106"><path
           id="path108"
           style="fill:none;stroke:#932b69;stroke-width:0.16299;stroke-linecap:butt;stroke-linejoin:miter;stroke-miterlimit:10;stroke-dasharray:none;stroke-opacity:1"
           d="m 54.645,-92.086 c -0.2,-1.234 -1.36,-2.078 -2.594,-1.883 -1.235,0.196 -2.078,1.356 -1.883,2.59 0.195,1.234 1.355,2.078 2.59,1.883 1.234,-0.195 2.078,-1.356 1.887,-2.59 z" /></g><path
         id="path110"
         style="fill:#ef4023;fill-opacity:1;fill-rule:evenodd;stroke:none"
         d="m 90.176,92.086 c -0.196,1.234 -1.356,2.078 -2.59,1.883 -1.234,-0.196 -2.078,-1.356 -1.883,-2.59 0.195,-1.234 1.356,-2.078 2.59,-1.883 1.234,0.195 2.078,1.356 1.883,2.59" /><g
         transform="scale(1,-1)"
         id="g112"><path
           id="path114"
           style="fill:none;stroke:#932b69;stroke-width:0.25;stroke-linecap:butt;stroke-linejoin:miter;stroke-miterlimit:10;stroke-dasharray:none;stroke-opacity:1"
           d="m 90.176,-92.086 c -0.196,-1.234 -1.356,-2.078 -2.59,-1.883 -1.234,0.196 -2.078,1.356 -1.883,2.59 0.195,1.234 1.356,2.078 2.59,1.883 1.234,-0.195 2.078,-1.356 1.883,-2.59 z" /></g><g
         transform="scale(1,-1)"
         id="g116"><path
           id="path118"
           style="fill:none;stroke:#932b69;stroke-width:1;stroke-linecap:round;stroke-linejoin:round;stroke-miterlimit:10;stroke-dasharray:none;stroke-opacity:1"
           d="M 52.547,-8.098 V -18.719" /></g><path
         id="path120"
         style="fill:#ef4023;fill-opacity:1;fill-rule:evenodd;stroke:none"
         d="M 51.941,6.707 C 51.648,7.68 51.375,8.316 51.062,9.098 h 2.977 C 53.902,8.816 53.453,7.68 53.156,6.707 52.84,5.66 52.625,4.715 52.547,4.102 52.473,4.715 52.258,5.66 51.941,6.707" /><g
         transform="scale(1,-1)"
         id="g122"><path
           id="path124"
           style="fill:none;stroke:#932b69;stroke-width:0.25;stroke-linecap:butt;stroke-linejoin:miter;stroke-miterlimit:10;stroke-dasharray:none;stroke-opacity:1"
           d="M 51.941,-6.707 C 51.648,-7.68 51.375,-8.316 51.062,-9.098 h 2.977 c -0.137,0.282 -0.586,1.418 -0.883,2.391 -0.316,1.047 -0.531,1.992 -0.609,2.605 -0.074,-0.613 -0.289,-1.558 -0.606,-2.605 z" /></g><g
         transform="scale(1,-1)"
         id="g126"><path
           id="path128"
           style="fill:none;stroke:#932b69;stroke-width:1;stroke-linecap:round;stroke-linejoin:round;stroke-miterlimit:10;stroke-dasharray:none;stroke-opacity:1"
           d="M 43.672,-17.539 V -28.156" /></g><path
         id="path130"
         style="fill:#ef4023;fill-opacity:1;fill-rule:evenodd;stroke:none"
         d="m 43.066,16.145 c -0.293,0.976 -0.566,1.609 -0.878,2.39 h 2.976 c -0.133,-0.277 -0.586,-1.414 -0.883,-2.39 -0.316,-1.043 -0.531,-1.993 -0.605,-2.606 -0.078,0.613 -0.293,1.563 -0.61,2.606" /></g><g
       id="g132"><g
         clip-path="url(#clipPath138)"
         id="g134"><g
           id="g140"><g
             id="g142"><g
               clip-path="url(#clipPath148)"
               id="g144"><g
                 id="g150"><g
                   transform="scale(1,-1)"
                   id="g152"><path
                     id="path154"
                     style="fill:none;stroke:#932b69;stroke-width:0.25;stroke-linecap:butt;stroke-linejoin:miter;stroke-miterlimit:10;stroke-dasharray:none;stroke-opacity:1"
                     d="m 43.066,-16.145 c -0.293,-0.976 -0.566,-1.609 -0.878,-2.39 h 2.976 c -0.133,0.277 -0.586,1.414 -0.883,2.39 -0.316,1.043 -0.531,1.993 -0.605,2.606 -0.078,-0.613 -0.293,-1.563 -0.61,-2.606 z" /></g><g
                   transform="scale(1,-1)"
                   id="g156"><path
                     id="path158"
                     style="fill:none;stroke:#932b69;stroke-width:1;stroke-linecap:round;stroke-linejoin:round;stroke-miterlimit:10;stroke-dasharray:none;stroke-opacity:1"
                     d="M 79.043,-88.328 V -98.945" /></g></g></g></g></g><path
           id="path160"
           style="fill:#ef4023;fill-opacity:1;fill-rule:evenodd;stroke:none"
           d="m 78.441,86.934 c -0.296,0.976 -0.566,1.609 -0.882,2.39 h 2.976 c -0.133,-0.277 -0.586,-1.414 -0.879,-2.39 -0.316,-1.043 -0.531,-1.989 -0.609,-2.606 -0.078,0.617 -0.293,1.563 -0.606,2.606" /><g
           transform="scale(1,-1)"
           id="g162"><path
             id="path164"
             style="fill:none;stroke:#932b69;stroke-width:0.25;stroke-linecap:butt;stroke-linejoin:miter;stroke-miterlimit:10;stroke-dasharray:none;stroke-opacity:1"
             d="m 78.441,-86.934 c -0.296,-0.976 -0.566,-1.609 -0.882,-2.39 h 2.976 c -0.133,0.277 -0.586,1.414 -0.879,2.39 -0.316,1.043 -0.531,1.989 -0.609,2.606 -0.078,-0.617 -0.293,-1.563 -0.606,-2.606 z" /></g><g
           transform="scale(1,-1)"
           id="g166"><path
             id="path168"
             style="fill:none;stroke:#932b69;stroke-width:1;stroke-linecap:round;stroke-linejoin:round;stroke-miterlimit:10;stroke-dasharray:none;stroke-opacity:1"
             d="M 87.941,-78.887 V -89.508" /></g><path
           id="path170"
           style="fill:#ef4023;fill-opacity:1;fill-rule:evenodd;stroke:none"
           d="m 87.336,77.496 c -0.297,0.973 -0.566,1.609 -0.879,2.391 h 2.977 c -0.137,-0.282 -0.59,-1.418 -0.883,-2.391 -0.317,-1.043 -0.531,-1.992 -0.61,-2.605 -0.074,0.613 -0.289,1.562 -0.605,2.605" /><g
           transform="scale(1,-1)"
           id="g172"><path
             id="path174"
             style="fill:none;stroke:#932b69;stroke-width:0.25;stroke-linecap:butt;stroke-linejoin:miter;stroke-miterlimit:10;stroke-dasharray:none;stroke-opacity:1"
             d="m 87.336,-77.496 c -0.297,-0.973 -0.566,-1.609 -0.879,-2.391 h 2.977 c -0.137,0.282 -0.59,1.418 -0.883,2.391 -0.317,1.043 -0.531,1.992 -0.61,2.605 -0.074,-0.613 -0.289,-1.562 -0.605,-2.605 z" /></g><g
           transform="scale(1,-1)"
           id="g176"><path
             id="path178"
             style="fill:none;stroke:#00839b;stroke-width:1;stroke-linecap:round;stroke-linejoin:round;stroke-miterlimit:10;stroke-dasharray:none;stroke-opacity:1"
             d="m 71.035,-46.324 v 7.785" /></g><path
           id="path180"
           style="fill:#8cc63f;fill-opacity:1;fill-rule:evenodd;stroke:none"
           d="m 70.555,37.426 c -0.239,0.777 -0.453,1.285 -0.703,1.91 h 2.378 c -0.105,-0.223 -0.468,-1.133 -0.703,-1.91 -0.254,-0.836 -0.425,-1.594 -0.488,-2.086 -0.062,0.492 -0.234,1.25 -0.484,2.086" /><g
           transform="scale(1,-1)"
           id="g182"><path
             id="path184"
             style="fill:none;stroke:#00839b;stroke-width:0.25;stroke-linecap:butt;stroke-linejoin:miter;stroke-miterlimit:10;stroke-dasharray:none;stroke-opacity:1"
             d="m 70.555,-37.426 c -0.239,-0.777 -0.453,-1.285 -0.703,-1.91 h 2.378 c -0.105,0.223 -0.468,1.133 -0.703,1.91 -0.254,0.836 -0.425,1.594 -0.488,2.086 -0.062,-0.492 -0.234,-1.25 -0.484,-2.086 z" /></g><g
           transform="scale(1,-1)"
           id="g186"><path
             id="path188"
             style="fill:none;stroke:#00839b;stroke-width:1;stroke-linecap:round;stroke-linejoin:round;stroke-miterlimit:10;stroke-dasharray:none;stroke-opacity:1"
             d="m 61.414,-41.605 v -4.957" /></g><path
           id="path190"
           style="fill:#8cc63f;fill-opacity:1;fill-rule:evenodd;stroke:none"
           d="m 61.898,47.676 c 0.235,-0.781 0.454,-1.285 0.704,-1.914 h -2.383 c 0.109,0.226 0.469,1.133 0.703,1.914 0.254,0.836 0.43,1.594 0.488,2.082 0.063,-0.488 0.235,-1.246 0.488,-2.082" /><g
           id="g192"><g
             id="g194"><g
               clip-path="url(#clipPath200)"
               id="g196"><g
                 id="g202"><g
                   transform="scale(1,-1)"
                   id="g204"><path
                     id="path206"
                     style="fill:none;stroke:#00839b;stroke-width:0.25;stroke-linecap:butt;stroke-linejoin:miter;stroke-miterlimit:10;stroke-dasharray:none;stroke-opacity:1"
                     d="m 61.898,-47.676 c 0.235,0.781 0.454,1.285 0.704,1.914 h -2.383 c 0.109,-0.226 0.469,-1.133 0.703,-1.914 0.254,-0.836 0.43,-1.594 0.488,-2.082 0.063,0.488 0.235,1.246 0.488,2.082 z" /></g><g
                   transform="scale(1,-1)"
                   id="g208"><path
                     id="path210"
                     style="fill:none;stroke:#932b69;stroke-width:1;stroke-linecap:round;stroke-linejoin:round;stroke-miterlimit:10;stroke-dasharray:none;stroke-opacity:1"
                     d="M 8.492,-88.562 V -99.18" /></g></g></g></g></g><path
           id="path212"
           style="fill:#ef4023;fill-opacity:1;fill-rule:evenodd;stroke:none"
           d="M 7.887,87.172 C 7.59,88.145 7.32,88.777 7.008,89.562 H 9.98 C 9.848,89.281 9.398,88.145 9.102,87.172 8.785,86.125 8.57,85.18 8.492,84.566 8.418,85.18 8.203,86.125 7.887,87.172" /><g
           id="g214"><g
             id="g216"><g
               clip-path="url(#clipPath222)"
               id="g218"><g
                 id="g224"><g
                   transform="scale(1,-1)"
                   id="g226"><path
                     id="path228"
                     style="fill:none;stroke:#932b69;stroke-width:0.25;stroke-linecap:butt;stroke-linejoin:miter;stroke-miterlimit:10;stroke-dasharray:none;stroke-opacity:1"
                     d="M 7.887,-87.172 C 7.59,-88.145 7.32,-88.777 7.008,-89.562 H 9.98 c -0.132,0.281 -0.582,1.417 -0.878,2.39 -0.317,1.047 -0.532,1.992 -0.61,2.606 -0.074,-0.614 -0.289,-1.559 -0.605,-2.606 z" /></g></g></g></g></g><g
           transform="scale(1,-1)"
           id="g230"><path
             id="path232"
             style="fill:none;stroke:#932b69;stroke-width:1;stroke-linecap:round;stroke-linejoin:round;stroke-miterlimit:10;stroke-dasharray:none;stroke-opacity:1"
             d="M 17.152,-79.359 V -89.98" /></g><path
           id="path234"
           style="fill:#ef4023;fill-opacity:1;fill-rule:evenodd;stroke:none"
           d="m 16.547,77.969 c -0.293,0.972 -0.567,1.605 -0.879,2.39 h 2.977 c -0.137,-0.281 -0.586,-1.418 -0.883,-2.39 -0.313,-1.047 -0.532,-1.992 -0.606,-2.606 -0.078,0.614 -0.293,1.559 -0.609,2.606" /><g
           transform="scale(1,-1)"
           id="g236"><path
             id="path238"
             style="fill:none;stroke:#932b69;stroke-width:0.25;stroke-linecap:butt;stroke-linejoin:miter;stroke-miterlimit:10;stroke-dasharray:none;stroke-opacity:1"
             d="m 16.547,-77.969 c -0.293,-0.972 -0.567,-1.605 -0.879,-2.39 h 2.977 c -0.137,0.281 -0.586,1.418 -0.883,2.39 -0.313,1.047 -0.532,1.992 -0.606,2.606 -0.078,-0.614 -0.293,-1.559 -0.609,-2.606 z" /></g><g
           transform="scale(1,-1)"
           id="g240"><path
             id="path242"
             style="fill:none;stroke:#932b69;stroke-width:1;stroke-linecap:round;stroke-linejoin:round;stroke-miterlimit:10;stroke-dasharray:none;stroke-opacity:1"
             d="M 114.293,-18.012 V -28.629" /></g><path
           id="path244"
           style="fill:#ef4023;fill-opacity:1;fill-rule:evenodd;stroke:none"
           d="m 113.688,16.617 c -0.297,0.977 -0.567,1.61 -0.879,2.391 h 2.972 c -0.133,-0.281 -0.586,-1.414 -0.879,-2.391 -0.316,-1.043 -0.531,-1.992 -0.609,-2.605 -0.074,0.613 -0.293,1.562 -0.605,2.605" /><g
           id="g246"><g
             id="g248"><g
               clip-path="url(#clipPath254)"
               id="g250"><g
                 id="g256"><g
                   transform="scale(1,-1)"
                   id="g258"><path
                     id="path260"
                     style="fill:none;stroke:#932b69;stroke-width:0.25;stroke-linecap:butt;stroke-linejoin:miter;stroke-miterlimit:10;stroke-dasharray:none;stroke-opacity:1"
                     d="m 113.688,-16.617 c -0.297,-0.977 -0.567,-1.61 -0.879,-2.391 h 2.972 c -0.133,0.281 -0.586,1.414 -0.879,2.391 -0.316,1.043 -0.531,1.992 -0.609,2.605 -0.074,-0.613 -0.293,-1.562 -0.605,-2.605 z" /></g><g
                   transform="scale(1,-1)"
                   id="g262"><path
                     id="path264"
                     style="fill:none;stroke:#932b69;stroke-width:1;stroke-linecap:round;stroke-linejoin:round;stroke-miterlimit:10;stroke-dasharray:none;stroke-opacity:1"
                     d="M 123.176,-8.57 V -19.188" /></g></g></g></g></g><path
           id="path266"
           style="fill:#ef4023;fill-opacity:1;fill-rule:evenodd;stroke:none"
           d="m 122.57,7.18 c -0.293,0.972 -0.566,1.605 -0.879,2.39 h 2.977 c -0.133,-0.281 -0.586,-1.418 -0.879,-2.39 -0.316,-1.047 -0.535,-1.992 -0.609,-2.606 -0.078,0.614 -0.293,1.559 -0.61,2.606" /><g
           id="g268"><g
             id="g270"><g
               clip-path="url(#clipPath276)"
               id="g272"><g
                 id="g278"><g
                   transform="scale(1,-1)"
                   id="g280"><path
                     id="path282"
                     style="fill:none;stroke:#932b69;stroke-width:0.25;stroke-linecap:butt;stroke-linejoin:miter;stroke-miterlimit:10;stroke-dasharray:none;stroke-opacity:1"
                     d="m 122.57,-7.18 c -0.293,-0.972 -0.566,-1.605 -0.879,-2.39 h 2.977 c -0.133,0.281 -0.586,1.418 -0.879,2.39 -0.316,1.047 -0.535,1.992 -0.609,2.606 -0.078,-0.614 -0.293,-1.559 -0.61,-2.606 z" /></g><g
                   transform="scale(1,-1)"
                   id="g284"><path
                     id="path286"
                     style="fill:none;stroke:#932b69;stroke-width:1;stroke-linecap:round;stroke-linejoin:round;stroke-miterlimit:10;stroke-dasharray:none;stroke-opacity:1"
                     d="m 114.961,-30.547 7.855,8.766" /></g></g></g></g></g><g
           transform="scale(1,-1)"
           id="g288"><path
             id="path290"
             style="fill:none;stroke:#00839b;stroke-width:1;stroke-linecap:round;stroke-linejoin:round;stroke-miterlimit:10;stroke-dasharray:none;stroke-opacity:1"
             d="m 62.539,-40.047 8.059,-7.976" /></g><g
           transform="scale(1,-1)"
           id="g292"><path
             id="path294"
             style="fill:none;stroke:#932b69;stroke-width:1;stroke-linecap:round;stroke-linejoin:round;stroke-miterlimit:10;stroke-dasharray:none;stroke-opacity:1"
             d="m 44.277,-30.367 7.852,8.402" /></g><g
           transform="scale(1,-1)"
           id="g296"><path
             id="path298"
             style="fill:none;stroke:#00839b;stroke-width:1;stroke-linecap:round;stroke-linejoin:round;stroke-miterlimit:10;stroke-dasharray:none;stroke-opacity:1"
             d="m 43.383,-65.598 8.383,8.383 m 27.761,-8.402 7.672,8.402 m -24.66,-18.449 8.059,-7.754" /></g><g
           id="g300"><g
             id="g302"><g
               clip-path="url(#clipPath308)"
               id="g304"><g
                 id="g310"><g
                   transform="scale(1,-1)"
                   id="g312"><path
                     id="path314"
                     style="fill:none;stroke:#932b69;stroke-width:1;stroke-linecap:round;stroke-linejoin:round;stroke-miterlimit:10;stroke-dasharray:none;stroke-opacity:1"
                     d="m 27.105,-76.211 7.856,-7.855 m -26.305,-16.989 8.039,8.403 m 26.688,-8.336 8.199,8.152 m 28.129,-8.219 7.855,8.586 m 10.594,52.059 7.488,-7.856 m -26.304,17.899 7.855,8.222" /></g></g></g></g></g><g
           transform="scale(1,-1)"
           id="g316"><path
             id="path318"
             style="fill:none;stroke:#00839b;stroke-width:1;stroke-linecap:round;stroke-linejoin:round;stroke-miterlimit:10;stroke-dasharray:none;stroke-opacity:1"
             d="m 61.773,-72.516 v 7.786" /></g><path
           id="path320"
           style="fill:#8cc63f;fill-opacity:1;fill-rule:evenodd;stroke:none"
           d="m 61.289,63.617 c -0.238,0.778 -0.453,1.285 -0.707,1.91 h 2.383 c -0.106,-0.222 -0.469,-1.132 -0.703,-1.91 -0.254,-0.836 -0.426,-1.594 -0.489,-2.086 -0.062,0.492 -0.234,1.25 -0.484,2.086" /><g
           transform="scale(1,-1)"
           id="g322"><path
             id="path324"
             style="fill:none;stroke:#00839b;stroke-width:0.25;stroke-linecap:butt;stroke-linejoin:miter;stroke-miterlimit:10;stroke-dasharray:none;stroke-opacity:1"
             d="m 61.289,-63.617 c -0.238,-0.778 -0.453,-1.285 -0.707,-1.91 h 2.383 c -0.106,0.222 -0.469,1.132 -0.703,1.91 -0.254,0.836 -0.426,1.594 -0.489,2.086 -0.062,-0.492 -0.234,-1.25 -0.484,-2.086 z" /></g><path
           id="path326"
           style="fill:#8cc63f;fill-opacity:1;fill-rule:evenodd;stroke:none"
           d="m 51.871,52.656 c -0.238,0.782 -0.453,1.289 -0.707,1.914 h 2.383 c -0.106,-0.222 -0.469,-1.132 -0.703,-1.914 -0.254,-0.836 -0.426,-1.594 -0.489,-2.082 -0.062,0.488 -0.234,1.246 -0.484,2.082" /><g
           transform="scale(1,-1)"
           id="g328"><path
             id="path330"
             style="fill:none;stroke:#00839b;stroke-width:0.25;stroke-linecap:butt;stroke-linejoin:miter;stroke-miterlimit:10;stroke-dasharray:none;stroke-opacity:1"
             d="m 51.871,-52.656 c -0.238,-0.782 -0.453,-1.289 -0.707,-1.914 h 2.383 c -0.106,0.222 -0.469,1.132 -0.703,1.914 -0.254,0.836 -0.426,1.594 -0.489,2.082 -0.062,-0.488 -0.234,-1.246 -0.484,-2.082 z" /></g><path
           id="path332"
           style="fill:#8cc63f;fill-opacity:1;fill-rule:evenodd;stroke:none"
           d="m 87.285,52.473 c -0.238,0.781 -0.453,1.289 -0.707,1.914 h 2.383 c -0.106,-0.223 -0.469,-1.133 -0.707,-1.914 -0.25,-0.832 -0.422,-1.59 -0.484,-2.082 -0.063,0.492 -0.235,1.25 -0.485,2.082" /><g
           transform="scale(1,-1)"
           id="g334"><path
             id="path336"
             style="fill:none;stroke:#00839b;stroke-width:0.25;stroke-linecap:butt;stroke-linejoin:miter;stroke-miterlimit:10;stroke-dasharray:none;stroke-opacity:1"
             d="m 87.285,-52.473 c -0.238,-0.781 -0.453,-1.289 -0.707,-1.914 h 2.383 c -0.106,0.223 -0.469,1.133 -0.707,1.914 -0.25,0.832 -0.422,1.59 -0.484,2.082 -0.063,-0.492 -0.235,-1.25 -0.485,-2.082 z" /></g><path
           id="path338"
           style="fill:#8cc63f;fill-opacity:1;fill-rule:evenodd;stroke:none"
           d="m 45.855,66.105 c -0.195,1.235 -1.355,2.079 -2.589,1.883 -1.235,-0.199 -2.078,-1.355 -1.883,-2.593 0.195,-1.235 1.355,-2.079 2.59,-1.883 1.234,0.195 2.078,1.355 1.882,2.593" /><g
           transform="scale(1,-1)"
           id="g340"><path
             id="path342"
             style="fill:none;stroke:#00839b;stroke-width:0.25;stroke-linecap:butt;stroke-linejoin:miter;stroke-miterlimit:10;stroke-dasharray:none;stroke-opacity:1"
             d="m 45.855,-66.105 c -0.195,-1.235 -1.355,-2.079 -2.589,-1.883 -1.235,0.199 -2.078,1.355 -1.883,2.593 0.195,1.235 1.355,2.079 2.59,1.883 1.234,-0.195 2.078,-1.355 1.882,-2.593 z" /></g><g
           transform="scale(1,-1)"
           id="g344"><path
             id="path346"
             style="fill:none;stroke:#00839b;stroke-width:1;stroke-linecap:round;stroke-linejoin:round;stroke-miterlimit:10;stroke-dasharray:none;stroke-opacity:1"
             d="m 70.723,-85.289 v -4.957" /></g><path
           id="path348"
           style="fill:#8cc63f;fill-opacity:1;fill-rule:evenodd;stroke:none"
           d="m 71.207,91.359 c 0.234,-0.781 0.453,-1.289 0.703,-1.914 h -2.379 c 0.106,0.227 0.469,1.133 0.703,1.914 0.254,0.836 0.426,1.594 0.489,2.082 0.058,-0.488 0.234,-1.246 0.484,-2.082" /><g
           transform="scale(1,-1)"
           id="g350"><path
             id="path352"
             style="fill:none;stroke:#00839b;stroke-width:0.25;stroke-linecap:butt;stroke-linejoin:miter;stroke-miterlimit:10;stroke-dasharray:none;stroke-opacity:1"
             d="m 71.207,-91.359 c 0.234,0.781 0.453,1.289 0.703,1.914 h -2.379 c 0.106,-0.227 0.469,-1.133 0.703,-1.914 0.254,-0.836 0.426,-1.594 0.489,-2.082 0.058,0.488 0.234,1.246 0.484,2.082 z" /></g><path
           id="path354"
           style="fill:#8cc63f;fill-opacity:1;fill-rule:evenodd;stroke:none"
           d="m 79.52,69.805 c 0.234,-0.782 0.453,-1.285 0.703,-1.914 h -2.379 c 0.105,0.226 0.468,1.132 0.703,1.914 0.254,0.836 0.426,1.593 0.488,2.086 0.059,-0.493 0.235,-1.25 0.485,-2.086" /><g
           transform="scale(1,-1)"
           id="g356"><path
             id="path358"
             style="fill:none;stroke:#00839b;stroke-width:0.25;stroke-linecap:butt;stroke-linejoin:miter;stroke-miterlimit:10;stroke-dasharray:none;stroke-opacity:1"
             d="m 79.52,-69.805 c 0.234,0.782 0.453,1.285 0.703,1.914 h -2.379 c 0.105,-0.226 0.468,-1.132 0.703,-1.914 0.254,-0.836 0.426,-1.593 0.488,-2.086 0.059,0.493 0.235,1.25 0.485,2.086 z" /></g><path
           id="path360"
           style="fill:#8cc63f;fill-opacity:1;fill-rule:evenodd;stroke:none"
           d="m 44.105,69.621 c 0.235,-0.777 0.454,-1.285 0.704,-1.91 H 42.43 c 0.105,0.223 0.468,1.133 0.703,1.91 0.254,0.836 0.426,1.594 0.488,2.086 0.059,-0.492 0.231,-1.25 0.484,-2.086" /><g
           transform="scale(1,-1)"
           id="g362"><path
             id="path364"
             style="fill:none;stroke:#00839b;stroke-width:0.25;stroke-linecap:butt;stroke-linejoin:miter;stroke-miterlimit:10;stroke-dasharray:none;stroke-opacity:1"
             d="m 44.105,-69.621 c 0.235,0.777 0.454,1.285 0.704,1.91 H 42.43 c 0.105,-0.223 0.468,-1.133 0.703,-1.91 0.254,-0.836 0.426,-1.594 0.488,-2.086 0.059,0.492 0.231,1.25 0.484,2.086 z" /></g><g
           id="g366"><g
             id="g368"><g
               clip-path="url(#clipPath374)"
               id="g370"><g
                 id="g376"><path
                   id="path378"
                   style="fill:#ef4023;fill-opacity:1;fill-rule:evenodd;stroke:none"
                   d="m 10.559,101.496 c -0.196,1.234 -1.356,2.078 -2.594,1.883 -1.235,-0.195 -2.078,-1.356 -1.883,-2.59 0.199,-1.234 1.359,-2.078 2.594,-1.883 1.234,0.196 2.078,1.356 1.883,2.59" /><g
                   transform="scale(1,-1)"
                   id="g380"><path
                     id="path382"
                     style="fill:none;stroke:#932b69;stroke-width:0.25;stroke-linecap:butt;stroke-linejoin:miter;stroke-miterlimit:10;stroke-dasharray:none;stroke-opacity:1"
                     d="m 10.559,-101.496 c -0.196,-1.234 -1.356,-2.078 -2.594,-1.883 -1.235,0.195 -2.078,1.356 -1.883,2.59 0.199,1.234 1.359,2.078 2.594,1.883 1.234,-0.196 2.078,-1.356 1.883,-2.59 z" /></g><path
                   id="path384"
                   style="fill:#ef4023;fill-opacity:1;fill-rule:evenodd;stroke:none"
                   d="m 81.344,101.496 c -0.196,1.234 -1.356,2.078 -2.594,1.883 -1.23,-0.195 -2.078,-1.356 -1.879,-2.59 0.195,-1.234 1.356,-2.078 2.59,-1.883 1.234,0.196 2.078,1.356 1.883,2.59" /><g
                   transform="scale(1,-1)"
                   id="g386"><path
                     id="path388"
                     style="fill:none;stroke:#932b69;stroke-width:0.25;stroke-linecap:butt;stroke-linejoin:miter;stroke-miterlimit:10;stroke-dasharray:none;stroke-opacity:1"
                     d="m 81.344,-101.496 c -0.196,-1.234 -1.356,-2.078 -2.594,-1.883 -1.23,0.195 -2.078,1.356 -1.879,2.59 0.195,1.234 1.356,2.078 2.59,1.883 1.234,-0.196 2.078,-1.356 1.883,-2.59 z" /></g></g></g></g></g><path
           id="path390"
           style="fill:#ef4023;fill-opacity:1;fill-rule:evenodd;stroke:none"
           d="m 116.527,30.711 c -0.195,1.234 -1.355,2.078 -2.589,1.883 -1.235,-0.196 -2.079,-1.356 -1.883,-2.59 0.195,-1.238 1.355,-2.078 2.59,-1.883 1.234,0.195 2.078,1.356 1.882,2.59" /><g
           transform="scale(1,-1)"
           id="g392"><path
             id="path394"
             style="fill:none;stroke:#932b69;stroke-width:0.25;stroke-linecap:butt;stroke-linejoin:miter;stroke-miterlimit:10;stroke-dasharray:none;stroke-opacity:1"
             d="m 116.527,-30.711 c -0.195,-1.234 -1.355,-2.078 -2.589,-1.883 -1.235,0.196 -2.079,1.356 -1.883,2.59 0.195,1.238 1.355,2.078 2.59,1.883 1.234,-0.195 2.078,-1.356 1.882,-2.59 z" /></g><path
           id="path396"
           style="fill:#ef4023;fill-opacity:1;fill-rule:evenodd;stroke:none"
           d="m 45.91,30.711 c -0.199,1.234 -1.359,2.078 -2.594,1.883 -1.234,-0.196 -2.078,-1.356 -1.882,-2.59 0.195,-1.238 1.355,-2.078 2.593,-1.883 1.235,0.195 2.078,1.356 1.883,2.59" /><g
           transform="scale(1,-1)"
           id="g398"><path
             id="path400"
             style="fill:none;stroke:#932b69;stroke-width:0.25;stroke-linecap:butt;stroke-linejoin:miter;stroke-miterlimit:10;stroke-dasharray:none;stroke-opacity:1"
             d="m 45.91,-30.711 c -0.199,-1.234 -1.359,-2.078 -2.594,-1.883 -1.234,0.196 -2.078,1.356 -1.882,2.59 0.195,1.238 1.355,2.078 2.593,1.883 1.235,-0.195 2.078,-1.356 1.883,-2.59 z" /></g><path
           id="path402"
           style="fill:#8cc63f;fill-opacity:1;fill-rule:evenodd;stroke:none"
           d="m 70.289,85.773 c -1.227,-0.238 -2.031,-1.425 -1.793,-2.656 0.238,-1.226 1.43,-2.027 2.656,-1.789 1.227,0.238 2.032,1.43 1.793,2.656 -0.238,1.227 -1.429,2.028 -2.656,1.789" /><g
           transform="scale(1,-1)"
           id="g404"><path
             id="path406"
             style="fill:none;stroke:#00839b;stroke-width:0.25;stroke-linecap:butt;stroke-linejoin:miter;stroke-miterlimit:10;stroke-dasharray:none;stroke-opacity:1"
             d="m 70.289,-85.773 c -1.227,0.238 -2.031,1.425 -1.793,2.656 0.238,1.226 1.43,2.027 2.656,1.789 1.227,-0.238 2.032,-1.43 1.793,-2.656 -0.238,-1.227 -1.429,-2.028 -2.656,-1.789 z" /></g><path
           id="path408"
           style="fill:#8cc63f;fill-opacity:1;fill-rule:evenodd;stroke:none"
           d="m 81.27,66.105 c -0.196,1.235 -1.356,2.079 -2.59,1.883 -1.235,-0.199 -2.078,-1.355 -1.883,-2.593 0.195,-1.235 1.355,-2.079 2.59,-1.883 1.234,0.195 2.078,1.355 1.883,2.593" /><g
           transform="scale(1,-1)"
           id="g410"><path
             id="path412"
             style="fill:none;stroke:#00839b;stroke-width:0.25;stroke-linecap:butt;stroke-linejoin:miter;stroke-miterlimit:10;stroke-dasharray:none;stroke-opacity:1"
             d="m 81.27,-66.105 c -0.196,-1.235 -1.356,-2.079 -2.59,-1.883 -1.235,0.199 -2.078,1.355 -1.883,2.593 0.195,1.235 1.355,2.079 2.59,1.883 1.234,-0.195 2.078,-1.355 1.883,-2.593 z" /></g><path
           id="path414"
           style="fill:#8cc63f;fill-opacity:1;fill-rule:evenodd;stroke:none"
           d="m 70.605,50.383 c -1.226,-0.238 -2.031,-1.43 -1.793,-2.656 0.239,-1.231 1.43,-2.032 2.657,-1.793 1.23,0.238 2.031,1.429 1.793,2.656 -0.239,1.226 -1.43,2.031 -2.657,1.793" /><g
           transform="scale(1,-1)"
           id="g416"><path
             id="path418"
             style="fill:none;stroke:#00839b;stroke-width:0.25;stroke-linecap:butt;stroke-linejoin:miter;stroke-miterlimit:10;stroke-dasharray:none;stroke-opacity:1"
             d="m 70.605,-50.383 c -1.226,0.238 -2.031,1.43 -1.793,2.656 0.239,1.231 1.43,2.032 2.657,1.793 1.23,-0.238 2.031,-1.429 1.793,-2.656 -0.239,-1.226 -1.43,-2.031 -2.657,-1.793 z" /></g><path
           id="path420"
           style="fill:#bc8cbf;fill-opacity:1;fill-rule:evenodd;stroke:none"
           d="m 81.344,30.711 c -0.196,1.234 -1.356,2.078 -2.594,1.883 -1.23,-0.196 -2.078,-1.356 -1.879,-2.59 0.195,-1.238 1.356,-2.078 2.59,-1.883 1.234,0.195 2.078,1.356 1.883,2.59" /><g
           transform="scale(1,-1)"
           id="g422"><path
             id="path424"
             style="fill:none;stroke:#932b69;stroke-width:0.16299;stroke-linecap:butt;stroke-linejoin:miter;stroke-miterlimit:10;stroke-dasharray:none;stroke-opacity:1"
             d="m 81.344,-30.711 c -0.196,-1.234 -1.356,-2.078 -2.594,-1.883 -1.23,0.196 -2.078,1.356 -1.879,2.59 0.195,1.238 1.356,2.078 2.59,1.883 1.234,-0.195 2.078,-1.356 1.883,-2.59 z" /></g><path
           id="path426"
           style="fill:#bc8cbf;fill-opacity:1;fill-rule:evenodd;stroke:none"
           d="m 105.559,50.383 c -1.231,-0.238 -2.032,-1.43 -1.793,-2.656 0.238,-1.231 1.429,-2.032 2.652,-1.793 1.23,0.238 2.031,1.429 1.793,2.656 -0.238,1.226 -1.426,2.031 -2.652,1.793" /><g
           transform="scale(1,-1)"
           id="g428"><path
             id="path430"
             style="fill:none;stroke:#932b69;stroke-width:0.16299;stroke-linecap:butt;stroke-linejoin:miter;stroke-miterlimit:10;stroke-dasharray:none;stroke-opacity:1"
             d="m 105.559,-50.383 c -1.231,0.238 -2.032,1.43 -1.793,2.656 0.238,1.231 1.429,2.032 2.652,1.793 1.23,-0.238 2.031,-1.429 1.793,-2.656 -0.238,-1.226 -1.426,-2.031 -2.652,-1.793 z" /></g><path
           id="path432"
           style="fill:#bc8cbf;fill-opacity:1;fill-rule:evenodd;stroke:none"
           d="m 34.77,86.492 c -1.227,-0.238 -2.028,-1.426 -1.79,-2.652 0.239,-1.231 1.426,-2.031 2.653,-1.793 1.23,0.238 2.031,1.43 1.793,2.656 -0.238,1.227 -1.43,2.027 -2.656,1.789" /><g
           transform="scale(1,-1)"
           id="g434"><path
             id="path436"
             style="fill:none;stroke:#932b69;stroke-width:0.16299;stroke-linecap:butt;stroke-linejoin:miter;stroke-miterlimit:10;stroke-dasharray:none;stroke-opacity:1"
             d="m 34.77,-86.492 c -1.227,0.238 -2.028,1.426 -1.79,2.652 0.239,1.231 1.426,2.031 2.653,1.793 1.23,-0.238 2.031,-1.43 1.793,-2.656 -0.238,-1.227 -1.43,-2.027 -2.656,-1.789 z" /></g><g
           id="g438"><g
             id="g440"><g
               clip-path="url(#clipPath446)"
               id="g442"><g
                 id="g448"><path
                   id="path450"
                   style="fill:#bc8cbf;fill-opacity:1;fill-rule:evenodd;stroke:none"
                   d="m 45.953,101.496 c -0.199,1.234 -1.359,2.078 -2.594,1.883 -1.234,-0.195 -2.078,-1.356 -1.882,-2.59 0.195,-1.234 1.355,-2.078 2.593,-1.883 1.235,0.196 2.078,1.356 1.883,2.59" /><g
                   transform="scale(1,-1)"
                   id="g452"><path
                     id="path454"
                     style="fill:none;stroke:#932b69;stroke-width:0.16299;stroke-linecap:butt;stroke-linejoin:miter;stroke-miterlimit:10;stroke-dasharray:none;stroke-opacity:1"
                     d="m 45.953,-101.496 c -0.199,-1.234 -1.359,-2.078 -2.594,-1.883 -1.234,0.195 -2.078,1.356 -1.882,2.59 0.195,1.234 1.355,2.078 2.593,1.883 1.235,-0.196 2.078,-1.356 1.883,-2.59 z" /></g></g></g></g></g></g></g><g
       id="g456"><g
         id="g458"><g
           id="g460"><g
             clip-path="url(#clipPath466)"
             id="g462"><g
               id="g468"><g
                 id="g470"><g
                   id="g472"><g
                     clip-path="url(#clipPath478)"
                     id="g474"><g
                       id="g480"><path
                         id="path482"
                         style="fill:#ffffff;fill-opacity:1;fill-rule:nonzero;stroke:none"
                         d="M 4.754,107.609 H 127.813 V 208.73 H 4.754 Z" /></g></g></g></g></g></g></g></g><path
         id="path484"
         style="fill:#ffffff;fill-opacity:0.24255299;fill-rule:nonzero;stroke:none"
         d="M 0,0 H 127.812 V 107.469 H 0 Z" /></g></g></svg>