<?xml version="1.0" encoding="UTF-8" standalone="no"?>
<svg
   xmlns:dc="http://purl.org/dc/elements/1.1/"
   xmlns:cc="http://creativecommons.org/ns#"
   xmlns:rdf="http://www.w3.org/1999/02/22-rdf-syntax-ns#"
   xmlns:svg="http://www.w3.org/2000/svg"
   xmlns="http://www.w3.org/2000/svg"
   viewBox="0 0 1152 864"
   height="864"
   width="1152"
   xml:space="preserve"
   id="svg2"
   version="1.1"><metadata
     id="metadata8"><rdf:RDF><cc:Work
         rdf:about=""><dc:format>image/svg+xml</dc:format><dc:type
           rdf:resource="http://purl.org/dc/dcmitype/StillImage" /></cc:Work></rdf:RDF></metadata><defs
     id="defs6"><clipPath
       id="clipPath22"
       clipPathUnits="userSpaceOnUse"><path
         id="path20"
         d="M 108,81 H 777.6 V 570.24 H 108 Z" /></clipPath><clipPath
       id="clipPath44"
       clipPathUnits="userSpaceOnUse"><path
         id="path42"
         d="M -1021,-463 H 1794 V 1233 H -1021 Z" /></clipPath><clipPath
       id="clipPath54"
       clipPathUnits="userSpaceOnUse"><path
         id="path52"
         d="M 108,81 H 777.6 V 570.24 H 108 Z" /></clipPath><clipPath
       id="clipPath76"
       clipPathUnits="userSpaceOnUse"><path
         id="path74"
         d="M -1021,-463 H 1794 V 1233 H -1021 Z" /></clipPath><clipPath
       id="clipPath86"
       clipPathUnits="userSpaceOnUse"><path
         id="path84"
         d="M 108,81 H 777.6 V 570.24 H 108 Z" /></clipPath><clipPath
       id="clipPath108"
       clipPathUnits="userSpaceOnUse"><path
         id="path106"
         d="M -1021,-463 H 1794 V 1233 H -1021 Z" /></clipPath><clipPath
       id="clipPath118"
       clipPathUnits="userSpaceOnUse"><path
         id="path116"
         d="M 108,81 H 777.6 V 570.24 H 108 Z" /></clipPath><clipPath
       id="clipPath140"
       clipPathUnits="userSpaceOnUse"><path
         id="path138"
         d="M -1021,-463 H 1794 V 1233 H -1021 Z" /></clipPath><clipPath
       id="clipPath150"
       clipPathUnits="userSpaceOnUse"><path
         id="path148"
         d="M 108,81 H 777.6 V 570.24 H 108 Z" /></clipPath><clipPath
       id="clipPath168"
       clipPathUnits="userSpaceOnUse"><path
         id="path166"
         d="M 108,81 H 777.6 V 570.24 H 108 Z" /></clipPath><clipPath
       id="clipPath186"
       clipPathUnits="userSpaceOnUse"><path
         id="path184"
         d="M 108,81 H 777.6 V 570.24 H 108 Z" /></clipPath><clipPath
       id="clipPath204"
       clipPathUnits="userSpaceOnUse"><path
         id="path202"
         d="M 108,81 H 777.6 V 570.24 H 108 Z" /></clipPath><clipPath
       id="clipPath222"
       clipPathUnits="userSpaceOnUse"><path
         id="path220"
         d="M 108,81 H 777.6 V 570.24 H 108 Z" /></clipPath><clipPath
       id="clipPath244"
       clipPathUnits="userSpaceOnUse"><path
         id="path242"
         d="M 108,81 H 777.6 V 570.24 H 108 Z" /></clipPath><clipPath
       id="clipPath262"
       clipPathUnits="userSpaceOnUse"><path
         id="path260"
         d="M 108,81 H 777.6 V 570.24 H 108 Z" /></clipPath><clipPath
       id="clipPath280"
       clipPathUnits="userSpaceOnUse"><path
         id="path278"
         d="M 108,81 H 777.6 V 570.24 H 108 Z" /></clipPath><clipPath
       id="clipPath298"
       clipPathUnits="userSpaceOnUse"><path
         id="path296"
         d="M 108,81 H 777.6 V 570.24 H 108 Z" /></clipPath><clipPath
       id="clipPath324"
       clipPathUnits="userSpaceOnUse"><path
         id="path322"
         d="M -1021,-463 H 1794 V 1233 H -1021 Z" /></clipPath><clipPath
       id="clipPath334"
       clipPathUnits="userSpaceOnUse"><path
         id="path332"
         d="M 108,81 H 777.6 V 570.24 H 108 Z" /></clipPath><clipPath
       id="clipPath344"
       clipPathUnits="userSpaceOnUse"><path
         id="path342"
         d="M 108,81 H 777.6 V 570.24 H 108 Z" /></clipPath><clipPath
       id="clipPath354"
       clipPathUnits="userSpaceOnUse"><path
         id="path352"
         d="M 108,81 H 777.6 V 570.24 H 108 Z" /></clipPath><clipPath
       id="clipPath364"
       clipPathUnits="userSpaceOnUse"><path
         id="path362"
         d="M 108,81 H 777.6 V 570.24 H 108 Z" /></clipPath><clipPath
       id="clipPath374"
       clipPathUnits="userSpaceOnUse"><path
         id="path372"
         d="M 108,81 H 777.6 V 570.24 H 108 Z" /></clipPath></defs><g
     transform="matrix(1.3333333,0,0,-1.3333333,0,863.99998)"
     id="g10"><path
       id="path12"
       style="fill:#ffffff;fill-opacity:1;fill-rule:nonzero;stroke:none"
       d="M 0,0 H 864 V 648 H 0 Z" /><path
       id="path14"
       style="fill:#ffffff;fill-opacity:1;fill-rule:nonzero;stroke:none"
       d="M 108,81 H 777.6 V 570.24 H 108 Z" /><g
       id="g16"><g
         clip-path="url(#clipPath22)"
         id="g18"><path
           id="path24"
           style="fill:none;stroke:#b0b0b0;stroke-width:0.80000001;stroke-linecap:square;stroke-linejoin:round;stroke-miterlimit:10;stroke-dasharray:none;stroke-opacity:1"
           d="M 138.43636,81 V 570.24" /></g></g><g
       id="g26"><path
         id="path28"
         style="fill:#000000;fill-opacity:1;fill-rule:nonzero;stroke:#000000;stroke-width:0.80000001;stroke-linecap:butt;stroke-linejoin:round;stroke-miterlimit:10;stroke-dasharray:none;stroke-opacity:1"
         d="M 138.43636,81 V 77.5" /><g
         transform="translate(113.90511,61.84375)"
         id="g30"><text
           id="text34"
           style="font-variant:normal;font-weight:normal;font-size:16px;font-family:'DejaVu Sans';-inkscape-font-specification:DejaVuSans;writing-mode:lr-tb;fill:#000000;fill-opacity:1;fill-rule:nonzero;stroke:none"
           transform="matrix(1,0,0,-1,13.40625,0)"><tspan
             id="tspan32"
             y="0"
             x="0 10.176 20.351999 25.440001">10.0</tspan></text>
<g
           transform="scale(0.016)"
           id="g36"><g
             id="g38"><g
               clip-path="url(#clipPath44)"
               id="g40"><path
                 id="path46"
                 style="fill:#000000;fill-opacity:1;fill-rule:nonzero;stroke:none"
                 d="M 106,355 H 732 V 272 H 106 v 83" /></g></g></g></g></g><g
       id="g48"><g
         clip-path="url(#clipPath54)"
         id="g50"><path
           id="path56"
           style="fill:none;stroke:#b0b0b0;stroke-width:0.80000001;stroke-linecap:square;stroke-linejoin:round;stroke-miterlimit:10;stroke-dasharray:none;stroke-opacity:1"
           d="M 214.52727,81 V 570.24" /></g></g><g
       id="g58"><path
         id="path60"
         style="fill:#000000;fill-opacity:1;fill-rule:nonzero;stroke:#000000;stroke-width:0.80000001;stroke-linecap:butt;stroke-linejoin:round;stroke-miterlimit:10;stroke-dasharray:none;stroke-opacity:1"
         d="M 214.52727,81 V 77.5" /><g
         transform="translate(195.08977,61.84375)"
         id="g62"><text
           id="text66"
           style="font-variant:normal;font-weight:normal;font-size:16px;font-family:'DejaVu Sans';-inkscape-font-specification:DejaVuSans;writing-mode:lr-tb;fill:#000000;fill-opacity:1;fill-rule:nonzero;stroke:none"
           transform="matrix(1,0,0,-1,13.40625,0)"><tspan
             id="tspan64"
             y="0"
             x="0 10.176 15.264">7.5</tspan></text>
<g
           transform="scale(0.016)"
           id="g68"><g
             id="g70"><g
               clip-path="url(#clipPath76)"
               id="g72"><path
                 id="path78"
                 style="fill:#000000;fill-opacity:1;fill-rule:nonzero;stroke:none"
                 d="M 106,355 H 732 V 272 H 106 v 83" /></g></g></g></g></g><g
       id="g80"><g
         clip-path="url(#clipPath86)"
         id="g82"><path
           id="path88"
           style="fill:none;stroke:#b0b0b0;stroke-width:0.80000001;stroke-linecap:square;stroke-linejoin:round;stroke-miterlimit:10;stroke-dasharray:none;stroke-opacity:1"
           d="M 290.61818,81 V 570.24" /></g></g><g
       id="g90"><path
         id="path92"
         style="fill:#000000;fill-opacity:1;fill-rule:nonzero;stroke:#000000;stroke-width:0.80000001;stroke-linecap:butt;stroke-linejoin:round;stroke-miterlimit:10;stroke-dasharray:none;stroke-opacity:1"
         d="M 290.61818,81 V 77.5" /><g
         transform="translate(271.18068,61.84375)"
         id="g94"><text
           id="text98"
           style="font-variant:normal;font-weight:normal;font-size:16px;font-family:'DejaVu Sans';-inkscape-font-specification:DejaVuSans;writing-mode:lr-tb;fill:#000000;fill-opacity:1;fill-rule:nonzero;stroke:none"
           transform="matrix(1,0,0,-1,13.40625,0)"><tspan
             id="tspan96"
             y="0"
             x="0 10.176 15.264">5.0</tspan></text>
<g
           transform="scale(0.016)"
           id="g100"><g
             id="g102"><g
               clip-path="url(#clipPath108)"
               id="g104"><path
                 id="path110"
                 style="fill:#000000;fill-opacity:1;fill-rule:nonzero;stroke:none"
                 d="M 106,355 H 732 V 272 H 106 v 83" /></g></g></g></g></g><g
       id="g112"><g
         clip-path="url(#clipPath118)"
         id="g114"><path
           id="path120"
           style="fill:none;stroke:#b0b0b0;stroke-width:0.80000001;stroke-linecap:square;stroke-linejoin:round;stroke-miterlimit:10;stroke-dasharray:none;stroke-opacity:1"
           d="M 366.70909,81 V 570.24" /></g></g><g
       id="g122"><path
         id="path124"
         style="fill:#000000;fill-opacity:1;fill-rule:nonzero;stroke:#000000;stroke-width:0.80000001;stroke-linecap:butt;stroke-linejoin:round;stroke-miterlimit:10;stroke-dasharray:none;stroke-opacity:1"
         d="M 366.70909,81 V 77.5" /><g
         transform="translate(347.27159,61.84375)"
         id="g126"><text
           id="text130"
           style="font-variant:normal;font-weight:normal;font-size:16px;font-family:'DejaVu Sans';-inkscape-font-specification:DejaVuSans;writing-mode:lr-tb;fill:#000000;fill-opacity:1;fill-rule:nonzero;stroke:none"
           transform="matrix(1,0,0,-1,13.40625,0)"><tspan
             id="tspan128"
             y="0"
             x="0 10.176 15.264">2.5</tspan></text>
<g
           transform="scale(0.016)"
           id="g132"><g
             id="g134"><g
               clip-path="url(#clipPath140)"
               id="g136"><path
                 id="path142"
                 style="fill:#000000;fill-opacity:1;fill-rule:nonzero;stroke:none"
                 d="M 106,355 H 732 V 272 H 106 v 83" /></g></g></g></g></g><g
       id="g144"><g
         clip-path="url(#clipPath150)"
         id="g146"><path
           id="path152"
           style="fill:none;stroke:#b0b0b0;stroke-width:0.80000001;stroke-linecap:square;stroke-linejoin:round;stroke-miterlimit:10;stroke-dasharray:none;stroke-opacity:1"
           d="M 442.8,81 V 570.24" /></g></g><g
       id="g154"><path
         id="path156"
         style="fill:#000000;fill-opacity:1;fill-rule:nonzero;stroke:#000000;stroke-width:0.80000001;stroke-linecap:butt;stroke-linejoin:round;stroke-miterlimit:10;stroke-dasharray:none;stroke-opacity:1"
         d="M 442.8,81 V 77.5" /><text
         id="text160"
         style="font-variant:normal;font-weight:normal;font-size:16px;font-family:'DejaVu Sans';-inkscape-font-specification:DejaVuSans;writing-mode:lr-tb;fill:#000000;fill-opacity:1;fill-rule:nonzero;stroke:none"
         transform="matrix(1,0,0,-1,430.06562,61.84375)"><tspan
           id="tspan158"
           y="0"
           x="0 10.176 15.264">0.0</tspan></text>
</g><g
       id="g162"><g
         clip-path="url(#clipPath168)"
         id="g164"><path
           id="path170"
           style="fill:none;stroke:#b0b0b0;stroke-width:0.80000001;stroke-linecap:square;stroke-linejoin:round;stroke-miterlimit:10;stroke-dasharray:none;stroke-opacity:1"
           d="M 518.89091,81 V 570.24" /></g></g><g
       id="g172"><path
         id="path174"
         style="fill:#000000;fill-opacity:1;fill-rule:nonzero;stroke:#000000;stroke-width:0.80000001;stroke-linecap:butt;stroke-linejoin:round;stroke-miterlimit:10;stroke-dasharray:none;stroke-opacity:1"
         d="M 518.89091,81 V 77.5" /><text
         id="text178"
         style="font-variant:normal;font-weight:normal;font-size:16px;font-family:'DejaVu Sans';-inkscape-font-specification:DejaVuSans;writing-mode:lr-tb;fill:#000000;fill-opacity:1;fill-rule:nonzero;stroke:none"
         transform="matrix(1,0,0,-1,506.15653,61.84375)"><tspan
           id="tspan176"
           y="0"
           x="0 10.176 15.264">2.5</tspan></text>
</g><g
       id="g180"><g
         clip-path="url(#clipPath186)"
         id="g182"><path
           id="path188"
           style="fill:none;stroke:#b0b0b0;stroke-width:0.80000001;stroke-linecap:square;stroke-linejoin:round;stroke-miterlimit:10;stroke-dasharray:none;stroke-opacity:1"
           d="M 594.98182,81 V 570.24" /></g></g><g
       id="g190"><path
         id="path192"
         style="fill:#000000;fill-opacity:1;fill-rule:nonzero;stroke:#000000;stroke-width:0.80000001;stroke-linecap:butt;stroke-linejoin:round;stroke-miterlimit:10;stroke-dasharray:none;stroke-opacity:1"
         d="M 594.98182,81 V 77.5" /><text
         id="text196"
         style="font-variant:normal;font-weight:normal;font-size:16px;font-family:'DejaVu Sans';-inkscape-font-specification:DejaVuSans;writing-mode:lr-tb;fill:#000000;fill-opacity:1;fill-rule:nonzero;stroke:none"
         transform="matrix(1,0,0,-1,582.24744,61.84375)"><tspan
           id="tspan194"
           y="0"
           x="0 10.176 15.264">5.0</tspan></text>
</g><g
       id="g198"><g
         clip-path="url(#clipPath204)"
         id="g200"><path
           id="path206"
           style="fill:none;stroke:#b0b0b0;stroke-width:0.80000001;stroke-linecap:square;stroke-linejoin:round;stroke-miterlimit:10;stroke-dasharray:none;stroke-opacity:1"
           d="M 671.07273,81 V 570.24" /></g></g><g
       id="g208"><path
         id="path210"
         style="fill:#000000;fill-opacity:1;fill-rule:nonzero;stroke:#000000;stroke-width:0.80000001;stroke-linecap:butt;stroke-linejoin:round;stroke-miterlimit:10;stroke-dasharray:none;stroke-opacity:1"
         d="M 671.07273,81 V 77.5" /><text
         id="text214"
         style="font-variant:normal;font-weight:normal;font-size:16px;font-family:'DejaVu Sans';-inkscape-font-specification:DejaVuSans;writing-mode:lr-tb;fill:#000000;fill-opacity:1;fill-rule:nonzero;stroke:none"
         transform="matrix(1,0,0,-1,658.33835,61.84375)"><tspan
           id="tspan212"
           y="0"
           x="0 10.176 15.264">7.5</tspan></text>
</g><g
       id="g216"><g
         clip-path="url(#clipPath222)"
         id="g218"><path
           id="path224"
           style="fill:none;stroke:#b0b0b0;stroke-width:0.80000001;stroke-linecap:square;stroke-linejoin:round;stroke-miterlimit:10;stroke-dasharray:none;stroke-opacity:1"
           d="M 747.16364,81 V 570.24" /></g></g><g
       id="g226"><path
         id="path228"
         style="fill:#000000;fill-opacity:1;fill-rule:nonzero;stroke:#000000;stroke-width:0.80000001;stroke-linecap:butt;stroke-linejoin:round;stroke-miterlimit:10;stroke-dasharray:none;stroke-opacity:1"
         d="M 747.16364,81 V 77.5" /><text
         id="text232"
         style="font-variant:normal;font-weight:normal;font-size:16px;font-family:'DejaVu Sans';-inkscape-font-specification:DejaVuSans;writing-mode:lr-tb;fill:#000000;fill-opacity:1;fill-rule:nonzero;stroke:none"
         transform="matrix(1,0,0,-1,729.33551,61.84375)"><tspan
           id="tspan230"
           y="0"
           x="0 10.176 20.351999 25.440001">10.0</tspan></text>
<text
         id="text236"
         style="font-variant:normal;font-weight:normal;font-size:16px;font-family:'DejaVu Sans';-inkscape-font-specification:DejaVuSans;writing-mode:lr-tb;fill:#000000;fill-opacity:1;fill-rule:nonzero;stroke:none"
         transform="matrix(1,0,0,-1,413.76875,42.359375)"><tspan
           id="tspan234"
           y="0"
           x="0 9.1999998 13.648 23.488001 27.936001 38.096001 43.183998 48.271999">Field, T</tspan></text>
</g><g
       id="g238"><g
         clip-path="url(#clipPath244)"
         id="g240"><path
           id="path246"
           style="fill:none;stroke:#b0b0b0;stroke-width:0.80000001;stroke-linecap:square;stroke-linejoin:round;stroke-miterlimit:10;stroke-dasharray:none;stroke-opacity:1"
           d="M 108,173.37127 H 777.6" /></g></g><g
       id="g248"><path
         id="path250"
         style="fill:#000000;fill-opacity:1;fill-rule:nonzero;stroke:#000000;stroke-width:0.80000001;stroke-linecap:butt;stroke-linejoin:round;stroke-miterlimit:10;stroke-dasharray:none;stroke-opacity:1"
         d="m 108,173.37127 h -3.5" /><text
         id="text254"
         style="font-variant:normal;font-weight:normal;font-size:16px;font-family:'DejaVu Sans';-inkscape-font-specification:DejaVuSans;writing-mode:lr-tb;fill:#000000;fill-opacity:1;fill-rule:nonzero;stroke:none"
         transform="matrix(1,0,0,-1,65.34375,167.29315)"><tspan
           id="tspan252"
           y="0"
           x="0 10.176 15.264 25.440001">0.15</tspan></text>
</g><g
       id="g256"><g
         clip-path="url(#clipPath262)"
         id="g258"><path
           id="path264"
           style="fill:none;stroke:#b0b0b0;stroke-width:0.80000001;stroke-linecap:square;stroke-linejoin:round;stroke-miterlimit:10;stroke-dasharray:none;stroke-opacity:1"
           d="M 108,278.93291 H 777.6" /></g></g><g
       id="g266"><path
         id="path268"
         style="fill:#000000;fill-opacity:1;fill-rule:nonzero;stroke:#000000;stroke-width:0.80000001;stroke-linecap:butt;stroke-linejoin:round;stroke-miterlimit:10;stroke-dasharray:none;stroke-opacity:1"
         d="m 108,278.93291 h -3.5" /><text
         id="text272"
         style="font-variant:normal;font-weight:normal;font-size:16px;font-family:'DejaVu Sans';-inkscape-font-specification:DejaVuSans;writing-mode:lr-tb;fill:#000000;fill-opacity:1;fill-rule:nonzero;stroke:none"
         transform="matrix(1,0,0,-1,65.34375,272.85479)"><tspan
           id="tspan270"
           y="0"
           x="0 10.176 15.264 25.440001">0.20</tspan></text>
</g><g
       id="g274"><g
         clip-path="url(#clipPath280)"
         id="g276"><path
           id="path282"
           style="fill:none;stroke:#b0b0b0;stroke-width:0.80000001;stroke-linecap:square;stroke-linejoin:round;stroke-miterlimit:10;stroke-dasharray:none;stroke-opacity:1"
           d="M 108,384.49455 H 777.6" /></g></g><g
       id="g284"><path
         id="path286"
         style="fill:#000000;fill-opacity:1;fill-rule:nonzero;stroke:#000000;stroke-width:0.80000001;stroke-linecap:butt;stroke-linejoin:round;stroke-miterlimit:10;stroke-dasharray:none;stroke-opacity:1"
         d="m 108,384.49455 h -3.5" /><text
         id="text290"
         style="font-variant:normal;font-weight:normal;font-size:16px;font-family:'DejaVu Sans';-inkscape-font-specification:DejaVuSans;writing-mode:lr-tb;fill:#000000;fill-opacity:1;fill-rule:nonzero;stroke:none"
         transform="matrix(1,0,0,-1,65.34375,378.41642)"><tspan
           id="tspan288"
           y="0"
           x="0 10.176 15.264 25.440001">0.25</tspan></text>
</g><g
       id="g292"><g
         clip-path="url(#clipPath298)"
         id="g294"><path
           id="path300"
           style="fill:none;stroke:#b0b0b0;stroke-width:0.80000001;stroke-linecap:square;stroke-linejoin:round;stroke-miterlimit:10;stroke-dasharray:none;stroke-opacity:1"
           d="M 108,490.05618 H 777.6" /></g></g><g
       id="g302"><path
         id="path304"
         style="fill:#000000;fill-opacity:1;fill-rule:nonzero;stroke:#000000;stroke-width:0.80000001;stroke-linecap:butt;stroke-linejoin:round;stroke-miterlimit:10;stroke-dasharray:none;stroke-opacity:1"
         d="m 108,490.05618 h -3.5" /><text
         id="text308"
         style="font-variant:normal;font-weight:normal;font-size:16px;font-family:'DejaVu Sans';-inkscape-font-specification:DejaVuSans;writing-mode:lr-tb;fill:#000000;fill-opacity:1;fill-rule:nonzero;stroke:none"
         transform="matrix(1,0,0,-1,65.34375,483.97806)"><tspan
           id="tspan306"
           y="0"
           x="0 10.176 15.264 25.440001">0.30</tspan></text>
<g
         transform="rotate(90,-72.388125,129.73187)"
         id="g310"><text
           id="text314"
           style="font-variant:normal;font-weight:normal;font-size:16px;font-family:'DejaVu Sans';-inkscape-font-specification:DejaVuSans;writing-mode:lr-tb;fill:#000000;fill-opacity:1;fill-rule:nonzero;stroke:none"
           transform="matrix(1,0,0,-1,0,0.84375)"><tspan
             id="tspan312"
             y="0"
             x="0 9.7734375 19.914062 29.757812 36.335938 51.921875 61.726562 66.171875 71.257812 82.429688 92.21875 102.35938 112.51562 122.65625 131.45312 137.72656 142.17188 151.64062 156.08594 162.35938 171.82812 176.91406 182 197.82031 203.21094 209.45312 230.125 240.61719">Thermal Conductivity, W/(mK)</tspan></text>
<g
           transform="matrix(0.016,0,0,0.016,225.03906,0.84375)"
           id="g316"><g
             id="g318"><g
               clip-path="url(#clipPath324)"
               id="g320"><path
                 id="path326"
                 style="fill:#000000;fill-opacity:1;fill-rule:nonzero;stroke:none"
                 d="M 107,409 H 210 V 285 H 107 v 124" /></g></g></g></g></g><g
       id="g328"><g
         clip-path="url(#clipPath334)"
         id="g330"><path
           id="path336"
           style="fill:none;stroke:#1f77b4;stroke-width:1.5;stroke-linecap:square;stroke-linejoin:round;stroke-miterlimit:10;stroke-dasharray:none;stroke-opacity:1"
           d="m 138.43636,121.10623 0.30437,-0.35095 1.21745,0.0138 0.60873,0.17927 1.21745,0.0965 0.60873,-0.26902 0.60873,-0.29165 0.91309,-0.21153 0.60873,0.22499 1.21745,0.56555 0.30436,0.0853 0.60873,-0.2239 1.21746,-0.83747 0.60872,-0.2702 0.30437,-0.0102 1.82618,0.82727 0.60873,-0.055 0.91309,-0.41773 0.91309,-0.32517 0.30436,-0.0113 0.91309,0.33083 0.91309,0.11334 0.60873,-0.26876 0.91309,-0.58702 0.60873,-0.18317 0.60873,0.11937 1.52181,1.04782 0.60873,0.11167 0.60873,-0.33879 1.21745,-0.87383 0.60873,0.005 1.21745,0.57127 0.60873,0.0726 0.30437,-0.0704 1.21745,-0.95123 0.60873,-0.2863 0.60872,0.0875 0.9131,0.39088 0.91309,0.12971 0.60872,-0.29494 0.60873,-0.3232 0.91309,-0.16207 0.30437,0.0631 1.21745,0.73773 0.91309,0.087 0.60873,-0.32621 1.52182,-0.92174 0.30436,-0.0964 0.91309,0.17057 1.52182,0.56151 0.91309,-0.11617 0.91309,-0.21768 0.91309,0.12994 0.91309,0.37235 0.60873,0.009 0.91309,-0.49206 1.21746,-0.82449 0.30436,-0.005 0.91309,0.38558 0.91309,0.53105 0.30436,0.0549 0.9131,-0.47423 0.91309,-0.61182 0.60872,0.013 1.52182,0.66636 0.60873,-0.14112 1.21745,-0.96023 0.60873,-0.31315 0.30436,-0.0225 2.13055,0.93172 0.30436,-0.0241 1.52182,-0.7265 0.60873,-0.0937 0.91309,0.32246 0.60873,0.20064 0.30436,0.0588 0.60873,-0.18359 1.82618,-0.98499 0.30436,0.049 1.52182,0.90764 0.30437,0.0745 0.30436,-0.068 1.82618,-1.17972 0.60873,0.10884 0.91309,0.57081 0.60873,0.21534 0.30436,0.004 0.30436,-0.10892 1.21746,-0.97728 0.60873,-0.36008 0.60872,0.1189 1.52182,0.91185 0.60873,0.0525 1.21745,-0.71301 0.60873,-0.39735 0.60873,0.0457 0.91309,0.37864 0.60873,0.24187 0.60872,-0.0974 2.13055,-0.86324 0.91309,0.29082 0.60873,0.2555 0.30436,0.0811 0.60873,-0.15208 0.91309,-0.66748 0.91309,-0.58518 0.30436,-0.0392 2.13055,0.9406 0.60873,-0.34499 1.21745,-0.71434 0.60873,0.0223 0.91309,0.53461 0.91309,0.28422 0.30436,-0.0692 2.13055,-1.37815 0.60873,0.12509 0.91309,0.44003 0.60872,0.36184 0.30437,0.0988 1.21745,-0.33728 0.60873,-0.33516 0.60873,-0.0275 0.60872,0.13698 0.60873,0.0922 0.30436,0.098 0.60873,-0.11011 1.82618,-1.00007 0.60873,-0.007 0.91309,0.30017 0.91309,0.45392 0.30437,0.0154 1.21745,-0.59662 0.60873,-0.38342 0.30436,-0.11724 1.52182,0.3851 0.30436,0.10187 0.60873,-0.1323 0.91309,-0.47014 0.60873,-0.19567 0.60873,0.11136 0.91309,0.53718 0.60872,0.15448 0.30437,-5e-4 0.60873,-0.34276 0.91309,-0.58742 0.60872,-0.18694 0.60873,0.17414 0.91309,0.45904 0.91309,0.20245 0.60873,-0.30664 1.52182,-0.96045 0.60873,0.0639 1.52181,0.76446 0.60873,0.0272 1.82618,-1.25543 0.60873,0.004 1.21745,0.55787 0.60873,0.21773 0.30437,-0.0266 1.82618,-0.99246 0.30436,-0.0453 1.82618,0.52975 0.60873,-0.11102 0.60873,-0.28173 1.52182,-0.19276 0.91309,0.42847 1.21745,0.25551 0.60873,-0.30689 1.52182,-0.82202 0.30436,-0.0463 1.21745,0.38717 0.60873,0.34635 0.60873,0.0351 0.91309,-0.21672 0.91309,-0.51482 0.60873,-0.0189 0.60873,0.14328 1.21745,0.51235 0.91309,-0.23472 0.60873,-0.44299 0.30436,-0.26772 0.60873,-0.13261 0.60873,0.0542 1.52181,0.44487 1.21746,-0.63117 0.60873,-0.26868 0.91309,0.21192 1.21745,0.40106 0.60873,-0.16276 1.52182,-0.58918 0.60872,-0.0395 1.82619,0.84161 0.60872,-0.13186 1.21746,-0.86283 0.60873,-0.29088 0.30436,-0.007 0.91309,0.41979 0.91309,0.44336 0.60873,-0.0919 0.60873,-0.29826 1.21745,-0.8234 0.60873,-0.043 0.60873,0.19244 1.21745,0.60491 0.60873,-0.16108 1.21745,-0.72282 0.60873,0.0391 1.52182,0.66781 0.60872,-0.086 1.52182,-0.98426 0.30437,-0.15246 0.30436,0.0137 1.21745,0.62067 0.60873,0.37277 0.60873,-0.0131 1.82618,-1.09328 0.30436,-0.0241 2.13055,0.87921 0.30436,-0.0809 1.52182,-0.88606 0.60873,-0.0968 1.82618,0.83341 0.60873,-0.11663 0.60872,-0.22353 0.60873,-0.15699 0.30437,-0.12754 0.60872,0.0568 0.91309,0.29692 0.91309,0.0954 0.60873,-0.30421 0.91309,-0.57821 0.60873,-0.1829 0.60873,0.14222 1.21745,0.7408 0.60873,0.12596 0.30436,-0.054 1.52182,-0.9764 0.30436,-0.15384 0.60873,0.0773 1.52182,0.63373 0.60873,-0.0532 2.13054,-1.08534 0.60873,0.20158 1.52182,0.78749 0.60873,-0.16032 0.60872,-0.38141 0.91309,-0.53752 0.30437,-0.0251 0.91309,0.38309 0.91309,0.42935 0.60873,-0.11546 1.82618,-0.80335 0.60873,0.18176 1.52181,0.6453 0.60873,-0.2137 0.91309,-0.49139 0.91309,-0.15108 0.60873,0.32282 0.60873,0.31627 0.91309,0.20285 0.30436,-0.0314 2.13055,-1.1325 0.60872,0.0633 0.9131,0.35612 0.60872,0.3127 0.30437,0.07 1.52181,-0.31151 0.60873,-0.14716 2.43491,0.28302 0.91309,-0.4349 1.21746,-0.32487 1.52181,0.5073 0.60873,0.0678 0.60873,-0.26391 0.91309,-0.35961 0.60873,-0.0871 0.60872,0.25155 1.52182,0.80937 0.60873,-0.17999 0.91309,-0.66341 0.91309,-0.59379 0.30437,-0.0115 0.91309,0.47633 0.91309,0.61623 0.30436,0.0722 0.60873,-0.2379 0.91309,-0.6031 0.60873,-0.37123 0.30436,-0.0527 0.91309,0.24687 1.21746,0.56901 1.21745,-0.31951 0.91309,-0.46353 0.60873,0.0369 0.60873,0.1738 0.91309,0.47737 0.60872,0.016 0.60873,-0.17741 1.21746,-0.63756 0.60872,0.0635 0.60873,0.23623 0.91309,0.49868 0.30436,0.0136 0.9131,-0.4469 1.21745,-0.74403 0.91309,0.19733 1.52182,0.45721 1.21745,-0.45347 0.60873,-0.22975 0.30436,-0.0242 2.13055,0.76202 0.60873,-0.2681 1.21745,-0.69607 0.60873,-0.0166 1.82618,0.86544 0.30437,-0.009 0.91309,-0.46003 0.91309,-0.51943 0.60872,-0.0571 1.82619,0.39514 0.60872,-0.23834 1.21746,-0.61946 0.30436,-0.10662 0.60873,0.099 1.52182,0.60316 0.60872,-0.0385 2.13055,-1.00761 0.91309,0.2388 1.52182,0.56394 0.91309,-0.24645 1.21745,-0.58561 0.9131,0.19116 1.52181,0.49937 2.13055,-0.66065 1.82618,0.96519 0.30436,-0.002 0.60873,-0.31624 1.21746,-0.8727 0.30436,-0.0464 0.30436,0.0797 1.52182,1.00678 0.60873,0.0443 1.52182,-0.82579 0.30436,-0.0986 0.60873,0.22896 0.91309,0.65285 0.91309,0.37413 0.30436,-0.0232 1.21746,-0.55142 1.21745,-0.26423 0.30437,0.0692 0.30436,-0.80117 0.30436,0.80117 0.60873,-0.0801 2.13055,0.82656 0.60872,-0.033 1.21746,-0.73063 0.60872,-0.40445 0.30437,-0.0646 0.91309,0.35176 1.21745,0.60439 0.60873,-0.23086 1.52182,-0.93168 0.30436,0.0464 1.82618,1.18894 0.30437,0.002 2.13054,-0.98039 0.60873,0.22174 1.21746,0.45411 0.60872,-0.043 1.21746,-0.54875 0.60872,-0.0988 0.60873,0.23225 0.91309,0.46456 0.91309,0.12559 0.60873,-0.25355 0.91309,-0.40514 0.60873,-0.13439 0.60873,0.18188 1.82618,0.87479 0.60873,-0.0881 0.91309,-0.39365 0.60872,-0.21361 0.30437,-0.0173 0.91309,0.38067 1.21745,0.58375 0.60873,-0.0833 1.52182,-0.309 0.60873,0.21213 1.82618,0.83077 0.60872,-0.21941 1.21746,-0.64603 0.60873,0.0166 1.82618,0.96417 0.30436,0.005 2.13055,-0.74298 0.60872,0.22975 1.21746,0.45347 0.60873,-0.008 0.91309,-0.44924 0.91309,-0.19733 0.60873,0.27712 0.91309,0.65521 0.60872,0.2586 0.60873,-0.10556 0.91309,-0.54627 0.60873,-0.15149 0.60873,0.0901 1.21745,0.67241 0.91309,0.0277 1.82618,-0.70163 0.60873,0.0987 0.91309,0.48455 0.91309,0.21333 0.60873,-0.22875 0.91309,-0.44522 0.60873,-0.14191 0.60873,0.18878 1.21745,0.83823 0.60873,0.2379 0.60872,-0.25619 1.21746,-0.77073 0.30436,-0.13786 0.30437,0.0115 0.60872,0.35661 1.21746,0.90059 0.60873,0.17999 0.91309,-0.43256 0.91309,-0.55665 0.60872,-0.0638 0.9131,0.27725 0.91309,0.4254 0.60872,-0.0678 1.82619,-0.49062 1.21745,0.39176 0.91309,0.40931 0.60873,-0.0766 1.52182,-0.26437 0.60872,0.14716 0.60873,0.18113 1.21746,0.0604 1.82618,-0.73997 0.60873,0.086 1.82618,1.05432 0.60872,-0.008 0.91309,-0.27951 0.9131,-0.52341 0.60872,0.0625 0.91309,0.38025 0.60873,0.35378 0.30437,0.0596 0.91309,-0.34553 0.91309,-0.44227 0.60872,0.005 2.13055,0.87451 2.13055,-0.78737 0.60872,0.32632 1.21746,0.71354 0.60873,0.002 1.52181,-0.86748 0.60873,-0.0785 0.91309,0.51949 0.91309,0.56049 0.60873,0.0532 2.13054,-0.71098 1.21746,0.68502 0.60873,0.44522 0.60872,0.0277 0.60873,-0.23761 1.21745,-0.71501 0.30437,-0.0301 0.91309,0.34802 1.21745,0.7173 0.91309,-0.0954 0.60873,-0.16347 0.60873,-0.19413 0.30436,0.004 0.91309,0.28453 1.21746,0.34016 1.82618,-0.83341 0.60873,0.0968 1.52182,0.88606 0.60872,0.0824 1.21746,-0.59064 0.60872,-0.29006 0.30437,0.0241 1.52182,0.89412 0.30436,0.19916 0.60873,0.0131 1.52182,-0.86133 0.60872,-0.14585 1.21746,0.69407 0.91309,0.52699 0.60873,-0.10305 1.52182,-0.62002 0.30436,0.0178 1.52182,0.81606 0.30436,0.0678 0.60873,-0.22503 0.91309,-0.52747 0.60872,-0.0777 0.60873,0.21976 1.21746,0.85582 0.60873,0.20895 0.30436,0.005 0.91309,-0.44336 0.60873,-0.30692 0.30436,-0.11287 0.60873,0.10196 1.82618,1.16579 0.30436,0.0249 2.13055,-0.87053 0.60872,0.20902 1.82619,0.61135 1.82618,-0.5786 0.30436,-0.0344 0.91309,0.44552 0.91309,0.45433 0.60873,-0.0185 0.91309,-0.42634 0.60873,-0.0542 0.60873,0.13261 0.91309,0.71071 0.60872,0.18719 0.60873,-3.8e-4 1.82619,-0.64044 0.60872,0.15924 0.91309,0.48946 0.91309,0.17221 0.60873,-0.22802 0.60873,-0.32884 0.91309,-0.24948 0.60873,0.15344 1.52181,0.90775 0.60873,0.12756 1.52182,-0.51701 0.30436,-0.18051 0.60873,-0.0168 2.13055,0.60236 0.91309,-0.25924 1.21745,-0.22522 2.13055,1.01903 0.30436,-0.0455 1.21745,-0.61112 0.60873,-0.17606 0.30437,0.053 1.21745,0.81076 0.60873,0.44467 0.60872,-0.0272 1.52182,-0.76446 0.60873,-0.0639 1.82618,1.16477 0.60873,0.0964 1.21745,-0.47849 0.60873,-0.29201 0.30437,-0.0592 0.91309,0.34806 1.21745,0.76906 0.60873,-0.0475 0.60872,-0.23796 0.9131,-0.50081 0.60872,0.0775 0.91309,0.39507 0.60873,0.28096 0.30436,0.0283 1.52182,-0.42991 0.30437,-0.0571 0.60872,0.28431 0.9131,0.55775 0.60872,0.25522 0.60873,-0.10565 0.91309,-0.4752 0.91309,-0.2393 0.60873,0.22412 0.60873,0.36748 1.52181,0.5758 0.91309,-0.19018 1.21746,-0.10952 0.91309,0.42805 0.91309,0.24439 0.60873,-0.25279 0.91309,-0.52616 0.91309,-0.24683 0.30437,0.0803 1.82618,1.29781 0.30436,0.0692 0.60873,-0.15941 0.91309,-0.45488 0.30436,-0.20454 0.60873,-0.0223 2.13055,1.06659 2.13054,-0.90863 0.60873,0.34895 1.21745,0.90371 0.60873,0.15208 0.91309,-0.33665 0.60873,-0.22773 0.60872,-0.061 0.60873,0.19129 1.52182,0.74719 0.30436,0.02 1.82618,-0.67597 0.30437,0.01 1.82618,1.11036 0.60873,-0.0525 1.82618,-1.01906 0.30436,-0.0117 1.21746,0.78205 0.60872,0.55531 0.60873,0.10534 0.91309,-0.35197 0.91309,-0.53308 0.30437,-0.01 1.21745,0.73271 0.60873,0.44701 0.30436,0.068 0.60873,-0.19869 1.52182,-0.83248 0.60873,0.18971 0.91309,0.61698 0.60873,0.30114 0.30436,0.0607 0.91309,-0.25947 0.91309,-0.32246 0.60873,0.0937 1.21745,0.55972 0.30436,0.16678 0.60873,-0.0247 2.13055,-0.86042 0.91309,0.5183 1.21745,0.86521 0.30437,0.031 0.91309,-0.37744 0.91309,-0.34328 0.30436,0.0414 1.82618,1.08605 0.60873,-0.19448 0.91309,-0.54406 0.60873,-0.23295 0.60873,0.10227 1.52181,1.09276 0.60873,0.1723 0.60873,-0.16005 1.21745,-0.39029 0.60873,0.0178 1.21746,0.29754 0.60872,-0.0132 0.60873,-0.24935 0.60873,-0.28773 0.91309,-0.17057 0.60873,0.23023 1.82618,1.11415 0.60873,-0.0242 0.60872,-0.20398 1.21746,-0.65957 0.60873,0.0695 0.60872,0.2193 0.91309,0.49145 0.60873,-0.0519 0.91309,-0.31134 0.60873,-0.25431 0.30436,0.009 0.91309,0.47873 1.21746,0.82922 0.60872,-0.0726 0.91309,-0.41202 0.60873,-0.21268 0.30437,0.0483 2.13054,1.20303 0.60873,-0.25107 1.52182,-0.99846 0.60872,0.0695 0.60873,0.25515 1.21746,0.69455 1.21745,-0.15681 0.60873,-0.28736 0.60872,0.0746 1.82619,0.75112 0.30436,-0.0165 1.82618,-0.82727 0.60873,0.10931 1.21745,0.76618 0.60873,0.38534 0.30436,0.081 0.9131,-0.32249 1.21745,-0.55333 0.60873,0.11083 0.91309,0.39235 0.60873,0.26902 0.60872,-0.0202 2.43491,-0.26936 0.30437,0.35095 v 0" /></g></g><g
       id="g338"><g
         clip-path="url(#clipPath344)"
         id="g340"><path
           id="path346"
           style="fill:none;stroke:#ff7f0e;stroke-width:1.5;stroke-linecap:square;stroke-linejoin:round;stroke-miterlimit:10;stroke-dasharray:none;stroke-opacity:1"
           d="m 138.43636,253.40547 0.60873,-1.10868 0.30436,-0.31594 0.91309,0.11807 1.52182,-0.31392 0.60873,-0.46119 1.52182,0.0708 0.60873,0.30164 0.60872,-0.0641 1.82619,-0.41227 2.4349,0.96019 2.13055,-1.51955 1.52182,0.24423 0.60872,0.31914 0.60873,-0.17733 0.91309,-0.24228 0.91309,-0.69998 1.21746,-0.52649 2.13054,0.73412 0.30437,-0.026 0.91309,-0.39606 1.21745,-0.48055 1.82618,0.73015 0.30437,0.10114 0.60873,-0.28351 0.60872,-0.272 0.91309,-0.45049 0.30437,-0.0183 0.91309,0.49864 1.21745,0.025 1.21746,-1.17842 0.91309,-0.22741 0.30436,0.0505 0.91309,0.44047 1.21746,-0.32405 0.91309,-0.58725 1.82618,-0.0636 0.30436,0.0937 0.60873,-0.0949 0.91309,-0.12081 0.91309,-0.63846 0.91309,-0.0641 0.30437,0.0384 1.21745,0.69125 0.91309,-0.15442 0.30437,-0.16431 0.91309,-0.77571 1.21745,-0.27209 0.91309,0.45593 0.91309,-0.12674 0.30437,-0.0388 0.60872,-0.41496 0.30437,-0.2538 1.21745,0.0734 0.30437,0.0941 0.91309,0.75326 0.91309,-0.21408 0.30436,-0.13862 1.21746,-1.09667 1.21745,-0.26329 0.91309,0.17635 0.91309,0.0449 0.30437,0.0552 1.21745,-0.30272 1.21746,-0.0921 0.60872,0.28246 1.52182,-0.0926 0.91309,-0.66228 1.21746,-0.40546 0.60872,0.27335 0.30437,0.17271 1.52182,0.10448 0.91309,-0.69755 1.21745,-0.52779 2.13055,0.93962 0.30436,-0.0203 0.91309,-0.3696 1.52182,-0.17188 0.60873,0.11111 1.21745,-0.62991 0.60873,-0.46133 0.30436,-0.27157 0.30437,-0.0342 1.52181,0.60653 0.60873,0.31563 1.21746,-0.44205 0.91309,-0.58762 2.43491,-0.0114 0.91309,-0.31011 0.30436,-0.0282 0.91309,-0.35702 0.91309,0.12214 0.60873,0.0703 0.60873,0.23465 1.52181,-0.53852 0.9131,-0.59961 1.21745,0.019 0.91309,0.49361 0.91309,-0.10761 0.60873,-0.15856 0.91309,-0.60366 1.21745,-0.40822 0.9131,0.43963 1.52181,0.0984 0.60873,-0.35342 1.21746,-0.037 0.30436,-0.0536 0.91309,0.25429 1.52182,-0.44095 0.60873,-0.46058 1.52181,-0.26176 0.91309,0.37599 1.21746,0.1915 1.21745,-0.55915 0.9131,-0.14673 0.60872,0.22551 0.30437,0.14821 0.60872,-0.0451 0.91309,-0.28878 0.91309,-0.81665 1.21746,-0.34866 0.60873,0.35838 0.30436,0.20818 0.60873,0.16552 0.60872,0.19768 0.30437,-0.0704 0.91309,-0.5777 1.21745,-0.22578 0.91309,0.50401 0.9131,-0.34955 0.60872,-0.422 0.60873,-0.69322 0.30436,-0.15796 0.91309,0.005 0.30437,0.10473 0.91309,0.66828 0.91309,0.0254 0.30436,-0.0599 1.52182,-0.84423 0.60873,-0.14138 0.30436,0.0325 0.91309,0.33696 1.21746,-0.12921 0.91309,-0.61097 0.60873,0.0942 0.91309,0.26343 0.60872,0.55383 0.30437,0.0748 1.21745,-0.13768 0.91309,-0.63524 0.91309,-0.0148 0.60873,0.0165 0.60873,0.31235 1.52182,-0.41221 0.91309,-0.77983 1.52182,-0.33931 0.60872,0.18928 0.91309,-0.28856 0.9131,-0.14396 0.30436,-0.1152 1.21745,0.29329 0.30437,-0.0735 0.91309,0.0775 0.60873,-0.24233 1.82618,-0.35972 3.04363,-0.19742 0.60873,0.0114 0.91309,-0.11187 1.52182,0.0102 0.60873,0.0303 1.21745,-0.24758 0.91309,-0.79087 1.21746,-0.26022 0.30436,0.14038 0.60873,0.53359 1.52182,0.20345 0.91309,-0.72677 0.60872,-0.25517 0.60873,-0.27876 0.60873,0.19271 0.60873,0.15292 1.21745,0.38537 0.91309,-0.28772 0.91309,-0.21347 0.30437,-0.10925 1.21745,0.23092 0.91309,-0.0491 0.30437,-0.1434 0.60872,-0.55157 1.21746,-0.30551 0.30436,0.0196 0.91309,0.61584 0.91309,0.0385 0.30437,-0.0669 0.60872,-0.54739 0.60873,-0.49066 0.91309,-0.23238 0.30437,0.0432 0.91309,0.51394 0.91309,-0.004 0.30436,-0.0769 1.21746,-0.90013 0.91309,-0.23758 0.30436,0.0835 0.91309,0.61155 1.21746,0.63295 2.13054,-1.04868 0.30436,0.001 0.9131,0.29796 1.21745,0.31093 1.21745,-0.8127 0.9131,-0.55612 0.60872,0.137 0.60873,0.053 1.21745,0.0622 0.60873,-0.34984 0.60873,-0.001 1.21745,0.15998 0.60873,0.19084 3.04364,-0.9077 0.60872,-0.10272 0.9131,0.19137 0.91309,0.13628 0.60872,0.0765 2.13055,-0.4614 0.91309,0.17823 1.52182,-0.22327 0.60873,-0.33418 0.91309,-0.042 0.60872,-0.0899 0.60873,0.21419 1.21746,-0.22868 0.30436,0.0368 0.91309,-0.31273 0.91309,0.23529 0.60873,0.0943 0.60873,0.2411 0.91309,-0.34266 0.60872,-0.19241 0.91309,-0.56048 1.21746,-0.29896 1.52182,0.50058 0.60872,0.091 0.30437,-0.10883 0.60873,-0.49151 1.52181,-0.31264 0.91309,0.69481 1.21746,-0.0174 0.60873,-0.49471 0.30436,-0.30652 0.60873,-0.0264 0.91309,0.1112 0.91309,0.58202 0.60873,-0.15136 0.60872,-0.23445 1.21746,-0.96744 0.91309,-0.0714 0.30436,0.12968 0.91309,0.63037 0.91309,0.0961 0.30437,-0.0684 0.91309,-0.70619 0.91309,-0.15726 0.60873,0.0888 0.60872,0.36097 0.60873,-0.0322 1.21746,-0.3739 0.60872,-0.29524 1.21746,0.13909 1.21745,0.44211 1.21746,-0.26631 0.60872,-0.58677 0.9131,-0.23817 0.60872,-0.0391 0.91309,0.50194 1.52182,-0.3287 0.60873,-0.51585 1.52182,-0.35207 0.91309,0.55808 1.21745,0.16125 0.60873,-0.42867 0.30436,-0.24452 1.21746,-0.0913 0.30436,0.0101 0.91309,0.45835 1.21746,-0.12861 1.21745,-0.67112 1.21746,-0.1113 0.60873,0.28895 1.21745,-0.0567 0.30436,-0.0634 0.91309,-0.52117 1.21746,-0.004 1.21745,0.39654 1.21746,-0.094 0.91309,-0.30735 2.13054,0.16879 0.91309,-0.3506 0.9131,-0.2369 0.30436,-0.13694 0.60873,0.10586 2.13054,0.69248 1.21746,-0.26766 0.91309,-0.61294 1.21745,-0.1316 0.91309,0.60305 1.21746,0.26822 1.52181,-0.81297 0.60873,-0.19165 0.30437,0.0629 0.60872,0.44505 1.21746,0.11329 0.30436,-0.0499 0.91309,-0.74273 1.21746,-0.12725 0.30436,0.16137 0.91309,0.73961 0.91309,0.0983 0.30437,-0.0708 0.91309,-0.82224 0.60872,-0.0134 0.60873,0.10748 1.21746,0.59746 1.52181,-0.55627 0.30437,-0.16844 0.60872,0.10427 1.82619,0.50484 1.21745,-0.13963 0.60873,-0.17262 0.30436,-0.13452 1.52182,0.12126 0.91309,0.79326 1.21746,0.64899 0.60872,-0.2315 0.30437,-0.16508 0.60873,-0.11867 0.91308,-0.2899 0.60873,0.39263 0.30437,-0.01 0.30436,-0.59306 0.30436,0.59306 0.30437,0.01 0.60872,-0.39263 1.52182,0.40857 0.91309,0.39658 1.21746,-0.64899 1.21745,-0.85749 1.21746,-0.057 0.91309,0.30714 0.91309,0.0777 0.30436,0.0619 2.43491,-0.60911 0.91309,0.4408 1.21746,0.33198 0.91309,-0.64553 0.91309,-0.14069 0.30436,0.0466 0.60873,0.51615 0.30436,0.30609 0.60873,0.0461 0.60873,-0.0736 0.30436,-0.14948 0.91309,-0.7515 0.91309,0.0712 0.30437,0.0561 1.21745,0.79262 1.21746,-0.11329 0.60872,-0.44505 0.30437,-0.0629 1.21745,0.34282 0.91309,0.6618 0.60873,-0.0958 0.91309,-0.32648 0.60873,-0.44901 1.21745,0.1316 0.60873,0.3799 0.60873,0.35155 1.52181,-0.003 0.60873,-0.36128 0.60873,-0.085 0.91309,-0.20009 0.91309,0.31422 0.91309,0.27196 0.30437,0.13826 2.13054,-0.16879 0.60873,0.16983 0.60873,0.16645 1.21745,0.0975 0.91309,-0.42894 1.21746,0.004 0.60872,0.32479 0.30437,0.19638 0.91309,0.10486 0.60872,0.0152 0.60873,-0.28895 0.60873,0.0379 0.91309,0.14347 0.91309,0.60109 0.60873,0.0381 0.60873,0.0905 0.30436,-0.0763 0.60873,-0.38202 1.21745,0.0404 0.30437,0.0408 0.91309,0.67319 1.21745,-0.16125 0.60873,-0.33944 0.30436,-0.21864 0.60873,0.1134 0.91309,0.23867 0.91309,0.68622 1.21745,0.15833 1.21746,-0.52635 1.21745,0.30172 0.60873,0.58677 0.60873,0.17612 0.91309,0.12942 0.91309,-0.48134 0.60873,-0.057 0.60873,-0.0821 0.60872,0.29524 0.30437,0.19472 1.52181,0.21142 0.91309,-0.46053 0.9131,0.0774 0.30436,0.0905 1.21745,0.77462 0.9131,-0.0961 0.30436,-0.12786 0.91309,-0.63219 0.91309,0.0714 0.30437,0.11728 1.21745,0.98026 0.91309,0.25571 0.60873,-0.35142 0.30436,-0.2306 1.52182,-0.0848 0.91309,0.80123 1.21745,0.0174 0.60873,-0.4441 0.30437,-0.25071 0.60872,0.0872 0.91309,0.22544 0.91309,0.60034 1.21746,-0.16112 0.91309,-0.43048 0.91309,0.23671 0.60873,0.1575 0.91309,0.56706 1.21745,0.43324 0.91309,-0.316 0.91309,-0.15902 0.30437,-0.0956 0.30436,0.0283 0.60873,0.28438 0.60873,0.007 0.91309,0.18523 0.60873,-0.21419 1.52181,0.13197 1.21746,0.48382 1.52182,-0.009 0.30436,-0.096 2.43491,0.47988 0.91309,-0.22263 0.91309,-0.11746 0.30436,-0.0825 1.52182,0.23408 0.91309,0.46188 1.52182,0.24956 0.60873,-0.24269 0.91309,-0.0432 0.60873,0.001 0.60872,0.34984 0.60873,0.004 1.82618,-0.25651 0.91309,0.55612 0.91309,0.58071 0.30437,0.23199 0.30436,0.016 2.13055,-0.62622 2.13054,1.04868 0.91309,-0.47206 0.91309,-0.53869 0.30437,-0.23375 0.30436,-0.0835 0.91309,0.23758 0.60873,0.39895 0.60873,0.50118 0.60872,0.0885 0.60873,-0.008 0.60873,-0.31528 0.30436,-0.19866 0.60873,0.0199 0.91309,0.34113 0.91309,0.8662 0.60873,0.0645 0.60873,-0.0361 0.60873,-0.38632 0.30436,-0.22952 0.60872,0.0537 0.9131,0.23219 0.91309,0.69497 1.52181,0.0324 0.60873,-0.21429 1.21746,0.32272 0.60873,0.16831 0.30436,0.11941 0.91309,-0.28074 1.52182,-0.45026 1.52181,0.7122 0.60873,0.5485 0.30437,0.0454 1.21745,-0.24882 0.91309,-0.67397 0.60873,0.11099 0.60873,0.14923 1.21745,0.90238 1.52182,0.10581 0.60873,-0.0623 3.95672,0.22699 0.30437,-0.0571 0.91309,0.15541 0.91309,0.0785 0.60873,0.19659 0.91309,0.18719 0.30436,0.16444 0.60873,-0.0339 0.30436,-0.0435 0.30437,0.0735 1.21745,-0.29329 0.91309,0.23206 0.91309,0.18826 0.30436,0.1274 0.9131,-0.2424 1.52181,0.55942 0.60873,0.61284 0.91309,0.26139 0.60873,0.15082 0.91309,-0.37095 1.52182,0.19828 0.60873,0.49383 0.60872,0.0359 0.60873,0.10181 0.30436,-0.0748 0.60873,-0.55383 1.21746,-0.35061 0.30436,-0.007 1.21746,0.64095 1.21745,0.0562 0.91309,-0.32639 1.21745,0.31165 0.91309,0.67396 0.9131,0.0717 0.30436,-0.0371 0.60873,-0.4194 0.30436,-0.24888 0.60873,-0.12031 0.60872,0.0102 0.30437,0.15796 0.91309,0.95407 0.91309,0.42629 0.30436,0.0844 1.21746,-0.49979 1.21745,0.32804 0.60873,0.47122 0.30436,0.0704 1.21746,-0.3632 0.91309,-0.56656 0.60873,0.13241 0.60872,0.21625 0.60873,0.5188 0.60873,0.44702 1.21745,0.18471 0.91309,-0.37372 1.21746,0.1985 1.21745,0.49019 1.52182,-0.39026 0.60873,-0.2083 1.21745,0.31002 0.91309,0.65002 1.52182,0.23441 0.60873,-0.23719 1.21745,0.10172 0.30437,-0.0112 0.91309,0.43552 1.52182,-0.29887 0.60873,-0.32129 0.60872,0.17788 1.21746,0.5891 0.60872,0.37095 1.21746,0.14012 0.91309,-0.49361 1.21745,-0.019 0.30437,0.10893 0.91309,0.60776 1.21745,0.42144 0.91309,-0.3022 0.91309,-0.059 0.30437,-0.0659 0.60872,0.20726 0.60873,0.17793 1.21746,0.41626 0.91309,-0.083 1.52182,0.17022 0.60872,0.40567 0.60873,0.2102 0.60873,0.23185 0.30436,-0.0926 0.60873,-0.44572 0.91309,-0.27348 0.30436,-0.11032 0.30437,0.0342 0.91309,0.7329 0.60873,0.30178 0.60872,0.32813 0.60873,-0.11111 0.30436,-0.0887 0.91309,0.21048 0.60873,0.12439 0.60873,0.29534 0.30436,0.0203 1.82618,-0.80267 0.30437,-0.13695 0.60873,0.22769 1.21745,0.73688 0.30436,0.26077 0.30437,0.10209 1.21745,-0.20657 0.91309,-0.44606 1.21746,0.40546 0.60873,0.41538 0.30436,0.2469 1.52182,0.0926 0.91309,-0.30694 2.43491,0.36415 2.4349,-0.14663 0.9131,0.29802 0.91309,0.98736 0.91309,0.30938 0.30436,0.0433 0.60873,-0.4625 0.30436,-0.29076 0.60873,-0.12551 0.91309,-0.042 0.91309,0.66876 1.21746,0.16555 1.21745,-0.41696 1.21745,0.39816 0.9131,0.77498 0.91309,0.15442 0.30436,-0.0485 0.91309,-0.64276 0.91309,-0.0118 0.30437,0.0375 0.60872,0.3969 0.30437,0.24156 0.60872,0.11 1.21746,0.012 0.60873,-0.0988 1.52181,0.31879 0.60873,0.4308 0.60873,0.14323 0.60873,0.18082 0.30436,-0.0607 0.60873,-0.37978 0.30436,-0.0505 0.91309,0.22741 0.30437,0.18955 0.91309,0.98887 0.60872,0.0248 0.60873,-0.0498 0.60873,-0.30871 0.30436,-0.18993 0.30436,0.0183 2.13055,1.006 1.82618,-0.69212 0.30437,-0.13917 1.82618,0.71243 0.30436,0.16418 0.30436,0.026 2.13055,-0.73412 0.91309,0.40232 0.60873,0.28488 0.91309,0.67382 1.21745,0.28506 0.91309,-0.43257 1.21746,-0.1308 0.30436,0.15326 0.9131,0.71021 0.91308,0.65608 0.30437,0.0466 0.91309,-0.46076 0.91309,-0.41662 0.30436,-0.12942 2.13055,0.48172 0.30436,-0.005 0.60873,-0.30164 1.52182,-0.0708 0.91309,0.6383 0.91309,0.076 0.60873,0.0656 0.60872,-0.12277 0.30437,0.31594 0.60873,1.10868 v 0" /></g></g><g
       id="g348"><g
         clip-path="url(#clipPath354)"
         id="g350"><path
           id="path356"
           style="fill:none;stroke:#2ca02c;stroke-width:1.5;stroke-linecap:square;stroke-linejoin:round;stroke-miterlimit:10;stroke-dasharray:none;stroke-opacity:1"
           d="m 138.43636,320.92699 0.60873,-0.66467 0.60873,0.0269 0.60872,0.0682 1.21746,-0.0594 0.60873,-0.56714 0.30436,-0.27444 0.60873,-0.0295 0.91309,0.16626 0.60873,0.73886 0.30436,0.12411 0.60873,-0.0969 0.60872,-0.1684 1.21746,-1.06562 0.91309,0.23113 0.30436,0.20794 0.60873,0.72147 0.60873,0.021 0.60872,-0.20015 0.30437,-0.22237 0.91309,-1.31893 0.60873,-0.25287 0.60872,-0.0532 0.30437,0.21278 0.60872,0.77129 0.30437,0.18193 0.91309,0.0233 0.30436,-0.0868 0.91309,-1.07777 0.60873,-0.31267 0.60873,-0.15252 2.13054,1.07721 0.30437,-0.0438 0.60872,-0.47558 1.52182,-0.51816 0.91309,0.6284 0.91309,0.14548 0.30437,-0.0789 0.30436,-0.29466 0.60873,-0.90529 0.91309,-0.65716 0.60873,-0.20727 0.60872,0.56015 1.52182,0.5554 0.60873,-0.34172 0.30436,-0.14841 0.30437,-0.001 1.21745,-0.50334 0.60873,0.41404 1.21745,0.1156 0.30437,0.0874 0.91309,-0.73924 0.60873,-0.0449 0.91309,0.0429 0.60872,0.40706 0.30437,-0.0203 1.52182,-0.93643 0.30436,-0.31208 0.60873,-0.0659 0.60872,0.18102 0.30437,-0.0357 0.91309,0.37708 0.91309,-0.36623 0.60873,-0.0799 0.60872,-0.46783 0.60873,0.0891 1.21746,-0.11305 0.60872,0.16873 0.60873,-0.0492 0.91309,0.11963 0.60873,-0.35933 0.60873,-0.12633 0.91309,-0.49725 0.91309,0.34936 1.52182,-0.0514 0.60872,-0.60337 0.60873,-0.22157 0.60873,-0.0648 0.30436,0.0767 0.60873,0.74894 0.60873,0.27933 0.91309,-0.0499 0.91309,-1.10001 0.30436,-0.15849 1.21746,0.005 0.60872,0.49464 0.60873,-0.0654 0.60873,-0.2029 0.30436,-0.005 0.91309,-0.54006 0.60873,0.18352 1.21745,0.68254 0.30437,0.21364 0.60872,-0.0567 0.9131,-0.16634 0.60872,-0.50737 0.91309,-0.3118 0.91309,-0.35184 0.60873,0.052 0.30437,-0.13173 1.21745,0.0485 0.60873,-0.52295 0.60872,-0.0433 0.9131,-0.28293 0.91309,0.65659 0.60872,0.0173 0.60873,0.0253 0.30436,-0.21472 0.60873,-0.74869 1.52182,-0.57532 0.60873,0.51015 1.52182,0.43018 0.60872,-0.42616 0.91309,-0.48162 0.91309,-0.43722 0.60873,0.31304 0.91309,0.058 0.60873,0.022 0.91309,-0.51991 1.21746,-0.109 1.82618,0.7404 0.30436,0.068 0.30436,-0.0564 0.60873,-0.40049 1.52182,-0.24903 1.21745,0.4032 1.21746,-0.44993 0.60873,-0.67355 0.60872,-0.16613 1.21746,-0.057 0.60873,0.23309 1.82618,-0.41023 0.30436,-0.17475 0.91309,0.25821 0.91309,0.34019 0.30437,0.22839 0.30436,0.0256 0.60873,-0.25893 1.21745,-0.73869 0.30437,-0.21718 1.82618,-0.10799 0.30436,0.11158 0.91309,-0.37965 1.52182,-0.38112 1.21746,0.38792 0.30436,0.10867 0.60873,0.44848 0.60872,-0.28011 1.21746,-0.86763 0.30436,-0.37508 0.60873,-0.1473 1.21745,0.29084 0.60873,0.48518 1.52182,-0.36927 0.60873,-0.70143 0.60872,-0.0419 1.21746,0.21051 0.60872,0.39486 0.60873,-0.19492 0.91309,-0.432 0.60873,-0.70321 0.60873,-0.0735 0.91309,0.26983 0.91309,0.85353 0.60873,0.053 0.60872,-0.087 0.60873,-0.46678 0.30436,-0.22574 0.9131,-0.11346 0.60872,-0.008 0.60873,0.38743 1.21745,-0.24209 0.30437,-0.003 0.91309,-0.5946 0.60873,0.0971 0.91309,-0.0477 0.60872,0.47003 1.52182,-0.59224 0.91309,-0.77053 0.60873,0.0586 0.60873,0.20261 1.21745,0.76784 1.21746,-0.52273 0.60872,-0.71888 0.60873,-0.10255 1.21746,0.36461 0.60872,0.39778 0.60873,-0.2839 0.91309,-0.52888 0.60873,-0.65441 0.91309,-0.0373 0.60873,0.0604 0.91309,0.41025 0.91309,-0.0622 0.60873,0.004 0.60872,-0.21015 0.60873,0.0873 0.60873,-0.0676 0.30436,-0.11522 0.60873,0.0502 1.21745,-0.37582 0.30437,0.003 0.60872,-0.37415 0.30437,-0.14815 0.60873,-0.0299 0.60872,-0.11039 0.30437,0.0135 0.60873,0.62965 1.52181,0.37428 1.21746,-0.53624 1.52181,0.19246 0.30437,0.13586 0.60873,-0.18685 1.21745,-0.72973 0.30436,-0.35947 0.60873,-0.25324 0.91309,-0.29755 0.30437,0.0397 0.60872,0.37808 0.60873,-0.1879 1.21745,-0.16352 0.30437,-0.21645 1.52182,0.45739 0.91309,0.70087 0.60873,0.0474 0.60872,-0.067 0.30437,-0.15446 0.60872,-0.66901 1.52182,-0.7756 0.91309,0.23927 0.30437,-0.0602 1.21745,0.34082 0.60873,-0.13053 0.60872,0.20322 0.60873,-0.004 0.30437,-0.10782 0.60872,0.29031 1.82618,-0.45454 0.60873,-0.49622 0.60873,-0.16297 0.60873,-0.15932 0.30436,0.0457 0.60873,0.54144 1.52182,0.0922 0.91309,-0.85875 1.21745,-0.18728 0.30436,0.19469 0.60873,0.71745 0.91309,0.23993 0.30437,0.0138 0.30436,-0.10837 0.91309,-1.0317 0.60873,-0.19568 0.60873,-0.0432 1.21745,0.64531 1.21745,-0.36587 0.60873,-0.66979 0.91309,-0.27276 0.60873,0.007 1.21745,0.83757 0.60873,0.15525 0.30437,-0.0502 0.30436,-0.22555 0.60873,-0.75643 0.91309,-0.43925 0.60872,-0.0932 0.60873,0.40696 0.60873,0.01 1.21745,-0.37113 0.60873,-0.41247 1.21746,-0.0744 0.30436,-0.0409 0.60873,0.41977 0.91309,-0.0625 0.60872,0.0712 0.9131,-0.52189 0.60872,0.0247 0.60873,-0.0519 0.30436,0.0724 0.60873,0.55924 1.52182,0.0706 0.91309,-0.93012 0.91309,-0.30534 0.30436,-0.11728 0.30437,0.0175 0.60873,0.35364 1.52181,-0.0711 0.60873,-0.4586 0.60873,-0.0286 0.91309,0.11223 1.21745,0.88484 0.91309,-0.11637 0.30437,-0.16935 0.60873,-0.8237 0.60872,0.0191 0.91309,0.2413 0.91309,0.83056 0.60873,-0.17215 0.60873,-0.31 0.60873,-0.79244 0.30436,-0.40146 0.60873,-0.124 0.60872,0.0512 0.30437,0.13989 0.60873,0.78857 0.30436,0.12743 0.60873,-0.1824 0.60872,-0.33929 0.91309,-1.08815 0.30437,-0.0648 0.60873,0.18342 0.60872,0.49398 0.60873,0.94139 0.60873,0.25335 0.60872,0.005 0.30437,-0.17624 0.91309,-1.0278 0.60873,-0.22864 0.60872,-0.0735 0.60873,0.29307 0.30436,0.17992 0.60873,-0.11533 1.21746,-0.56671 0.30436,-0.2547 0.60873,-9.1e-4 1.82618,0.75163 0.30436,-0.0414 1.52182,-0.87564 0.30436,-0.28574 0.60873,-0.11134 0.91309,-1.2e-4 0.91309,0.41951 1.21746,-0.31676 0.30436,-0.17085 0.60873,-0.66153 0.60873,0.0301 0.60872,0.22815 0.30437,0.19494 0.91309,1.09237 0.60873,0.0634 0.30436,-0.011 0.30436,-0.14726 0.60873,-0.66254 0.30436,-0.34101 0.60873,-0.18949 0.91309,0.0127 0.60873,0.46213 0.60873,-0.093 1.21745,-0.69865 0.60873,-0.51576 0.60873,0.0734 0.91309,0.35248 0.60873,0.66638 1.52181,0.22565 0.91309,-0.41025 0.60873,0.0183 0.91309,0.004 0.60873,0.40118 0.91309,0.0679 0.60873,-0.0674 0.91309,-1.0088 0.91309,-0.61164 0.30436,-0.0777 0.30437,0.0977 0.60872,0.34866 1.52182,-0.0575 0.60873,-0.5181 1.52182,0.41725 0.91309,0.64551 1.21745,-0.39489 0.60873,-0.51167 0.30436,-0.26058 0.60873,0.15806 0.91309,0.51623 0.60873,0.83686 0.30436,0.19904 0.60873,-0.0528 0.60873,-0.22551 1.21745,-1.00299 0.91309,0.0808 0.30437,0.1504 0.60872,0.64596 0.60873,0.0875 0.60873,-0.0285 0.30436,-0.12069 0.91309,-0.93349 0.91309,-0.22866 0.30437,-0.0199 0.30436,0.0918 0.60873,0.59157 1.21745,0.33093 0.30437,0.0936 0.91309,-0.49295 1.21745,0.0183 0.30436,0.14253 0.60873,0.50549 1.52182,0.28236 0.60873,-0.53989 1.21745,-0.24524 0.30437,-0.14198 0.30436,0.10269 0.60873,0.36745 0.60872,0.006 0.60873,0.0556 0.30436,-0.0792 0.60873,-0.61187 1.52182,-0.18695 0.91309,0.64769 0.91309,0.0606 0.30437,0.0374 0.30436,-0.0981 0.60873,-0.47308 0.91309,-0.12336 0.60872,-0.0682 0.60873,0.76334 0.30437,-0.15927 0.30436,0.86277 0.30436,-0.86277 0.30437,0.15927 0.60872,-0.76334 1.52182,0.19155 0.91309,0.57115 1.52182,-0.21309 0.60873,-0.53262 0.60873,0.0387 0.91309,0.14821 0.60872,0.61187 0.60873,0.0613 1.21746,-0.17408 0.60872,-0.33963 0.91309,0.3097 0.60873,0.0775 0.60873,0.53989 1.52182,-0.28236 0.91309,-0.64802 1.52182,0.0737 0.60872,0.40096 1.52182,-0.42458 0.60873,-0.59157 0.60873,-0.072 0.91309,0.22866 0.60872,0.62758 0.30437,0.30591 0.60872,0.14048 0.9131,-0.0788 0.60872,-0.64596 0.60873,-0.21816 0.91309,0.077 1.21746,1.06165 0.91309,0.12957 0.30436,-0.19904 0.60873,-0.83686 0.91309,-0.51623 0.60873,-0.15806 1.21745,0.90577 0.91309,0.26137 0.30436,-0.0979 0.60873,-0.54762 0.91309,-0.26963 0.60873,-0.14762 0.60873,0.5181 0.60872,0.10255 1.21746,-0.17632 0.60873,-0.31512 0.30436,0.0777 1.21745,0.86553 0.60873,0.75491 0.60873,0.0674 1.21745,-0.23891 0.30437,-0.23016 0.60872,-0.0351 1.52182,0.25514 0.30437,0.16739 1.52181,-0.22565 0.9131,-0.83812 0.91309,-0.2647 0.30436,0.0106 0.30436,0.18646 0.60873,0.57979 1.52182,0.54119 0.60873,-0.46213 0.91309,-0.0127 0.60873,0.18949 0.91309,1.00355 0.30436,0.14726 0.91309,-0.0524 0.30436,-0.23927 0.60873,-0.8531 0.60873,-0.32887 0.60873,-0.14317 0.30436,0.0188 0.91309,0.83238 1.21745,0.31676 0.60873,-0.27094 0.30437,-0.14857 1.21745,0.0335 0.30436,0.0779 0.60873,0.57185 1.52182,0.63092 1.82618,-0.75163 0.60873,9.1e-4 0.60873,0.49808 1.52181,0.43866 0.91309,-0.47299 0.60873,0.0735 0.60873,0.22864 1.21745,1.20404 0.9131,-0.0746 0.30436,-0.18375 0.91309,-1.23218 0.60873,-0.30511 0.30436,-0.0815 0.30437,0.0648 0.60872,0.74756 0.60873,0.546 0.91309,0.31628 0.30436,-0.12743 0.60873,-0.78857 0.60873,-0.1986 0.91309,0.13151 0.91309,1.1939 0.60873,0.31 0.60872,0.17215 0.30437,-0.14068 0.60873,-0.68988 1.52181,-0.26043 0.60873,0.8237 0.60873,0.22143 0.91309,0.0249 0.60873,-0.59432 0.30436,-0.25109 1.52182,-0.0836 0.60873,0.4586 0.91309,0.0203 0.60872,0.0508 0.91309,-0.37117 1.52182,0.65748 0.60873,0.69526 1.21745,-0.0494 0.30437,-0.0212 0.60873,-0.55924 0.60872,-0.0531 1.21746,0.10158 0.60873,0.42824 1.21745,-0.0573 0.30436,0.0486 0.60873,-0.41977 1.82618,0.28143 0.60873,0.39798 1.52182,0.20984 0.60872,-0.40696 0.60873,0.0932 0.91309,0.43925 0.91309,0.98198 0.30437,0.0502 0.91309,-0.25525 0.60872,-0.49697 0.30437,-0.2406 0.60873,-0.007 0.91309,0.27276 0.60872,0.66979 0.60873,0.23671 0.91309,0.12816 1.21746,-0.66616 0.91309,0.26073 0.30436,0.23015 0.60873,0.80155 0.30436,0.10837 0.91309,-0.14484 0.30437,-0.10893 0.91309,-0.91214 0.30436,-0.0392 1.21746,0.40322 0.60872,0.68203 0.30437,0.0846 1.21745,-0.17683 0.60873,-0.54144 0.60873,-0.002 1.21745,0.47859 0.60873,0.49411 0.91309,0.0918 0.60873,0.16477 0.60872,-0.29031 0.60873,0.1341 0.60873,-0.0655 0.30436,-0.1595 0.91309,0.0845 0.60873,-0.22232 0.30436,-0.0725 0.60873,0.0554 0.60873,-0.23452 1.52182,0.7756 0.60872,0.66901 0.60873,0.21319 0.91309,-0.0391 1.52182,-0.86642 0.91309,-0.29184 0.60873,0.43311 0.91309,-0.0531 0.91309,0.0305 0.30436,-0.22068 0.30437,-0.0397 1.52181,0.55079 0.60873,0.6946 0.60873,0.22787 0.60873,0.30402 0.30436,0.0496 0.91309,-0.31221 1.52182,0.13737 0.60873,0.38276 0.60872,-0.12372 0.91309,-0.25056 0.60873,-0.62965 0.60873,0.0247 0.60873,0.13781 0.30436,-0.0357 1.21746,0.51917 0.91309,0.26197 0.30436,0.11385 0.60873,-0.0502 0.60872,0.16484 0.60873,0.01 0.30436,-0.0792 0.9131,0.23156 0.91309,-0.0176 0.60873,-0.004 0.60872,-0.35191 0.91309,-0.0654 0.60873,0.0423 0.91309,0.83882 1.21745,0.62837 0.60873,-0.39778 0.30437,-0.1553 0.60872,-0.10961 0.60873,-0.10752 0.30436,0.11037 0.60873,0.71888 1.21746,0.52273 0.30436,-0.0162 1.21745,-0.89402 0.91309,-0.11882 0.30437,0.14876 0.60873,0.62177 1.52181,0.59224 0.60873,-0.47003 1.82618,0.0729 0.60873,0.47216 0.91309,0.0383 0.60873,0.20645 0.60873,-0.38743 0.60872,0.008 1.21746,0.3392 0.60872,0.46678 0.60873,0.087 0.60873,-0.053 0.30436,-0.18057 0.60873,-0.67296 0.91309,-0.26983 0.60873,0.0735 0.91309,0.87475 1.21745,0.45538 0.30437,-0.12862 0.60873,-0.43249 0.60872,10e-4 0.60873,-0.0553 0.30436,0.052 0.60873,0.70143 1.52182,0.36927 0.91309,-0.64275 1.21745,-0.11778 0.30437,0.13181 0.60872,0.72307 1.52182,0.79975 0.91309,-0.55715 0.9131,-0.26202 0.30436,-0.1259 0.30436,0.0245 0.60873,0.30693 0.60873,0.0497 1.21745,0.26807 0.30436,-0.11152 0.60873,0.18477 0.91309,0.0347 1.52182,0.95587 0.60873,0.25893 0.30436,-0.0256 0.60873,-0.45655 0.60873,-0.11203 0.91309,-0.25821 0.91309,0.42988 0.60873,0.04 0.60872,0.11506 0.30437,-0.0581 0.60873,-0.2775 0.60872,0.1421 0.60873,0.072 0.30436,0.11151 0.60873,0.67355 1.52182,0.47851 1.21745,-0.40162 1.52182,0.41903 0.30437,0.20033 0.30436,0.0564 1.21745,-0.28925 1.21746,-0.58392 1.21745,0.28001 0.60873,0.41368 0.60873,-0.022 1.82618,-0.27746 2.13054,1.25146 1.52182,-0.43018 0.60873,-0.51015 0.91309,0.32612 0.60873,0.2492 0.91309,0.96341 0.60873,-0.0253 0.91309,-0.12668 0.60872,-0.54724 1.52182,0.3262 0.60873,0.52295 0.60873,-0.008 0.60872,-0.0406 0.60873,0.14971 0.60873,-0.0552 0.91309,0.47767 0.60873,0.17119 0.60872,0.50737 1.52182,0.22301 1.21746,-0.75168 0.91309,-0.32802 0.30436,0.0945 0.60873,0.44555 0.60872,0.0839 0.60873,0.21111 0.30437,-0.0216 0.60872,-0.49464 0.60873,-0.008 0.60873,0.003 0.30436,0.15849 0.60873,0.7356 0.30436,0.36441 0.60873,0.07 0.60873,-0.1103 0.30436,-0.18909 0.60873,-0.74894 0.60872,-0.0669 0.9131,0.27662 0.91309,0.7771 2.13054,-0.47168 0.91309,0.49725 1.52182,0.49153 0.60873,-0.1255 0.60873,0.0492 0.30436,-0.0246 0.60873,-0.22275 0.60872,0.16017 0.60873,0.0145 0.30436,-0.0721 0.60873,0.46783 0.91309,0.17897 0.60873,0.26719 2.13055,-0.53844 0.30436,0.082 0.60873,0.6155 0.60872,0.23761 0.60873,0.3954 0.30436,0.0203 0.9131,-0.46286 0.60872,0.0129 0.60873,0.0449 0.60873,0.4917 0.30436,0.24754 0.91309,-0.16799 0.60873,-0.035 0.60873,-0.41404 0.60873,0.22055 0.60872,0.28279 0.30437,0.001 0.91309,0.49013 1.52181,-0.5554 0.60873,-0.56015 0.60873,0.20727 0.91309,0.65716 0.91309,1.19995 0.30436,0.0789 0.91309,-0.14548 0.30437,-0.14421 0.60873,-0.48419 0.60872,0.14851 1.82618,0.88908 0.60873,-0.21756 1.21746,-0.68765 0.30436,-0.172 0.60873,0.15252 0.60872,0.31267 0.60873,0.67095 0.30437,0.40682 0.60872,0.1026 0.60873,-0.0391 0.30436,-0.18193 0.91309,-0.98407 0.60873,0.0532 0.60873,0.25287 0.30436,0.32957 0.60873,0.98936 0.60873,0.33858 0.60872,0.12989 0.30437,-0.067 0.91309,-0.92941 0.91309,-0.23113 0.30436,0.10728 1.21746,1.04273 0.91309,0.18088 0.30436,-0.12411 0.60873,-0.73886 0.91309,-0.16626 0.60873,0.0295 0.91309,0.84158 0.60873,0.0576 1.82618,-0.0933 0.60873,0.66467 v 0" /></g></g><g
       id="g358"><g
         clip-path="url(#clipPath364)"
         id="g360"><path
           id="path366"
           style="fill:none;stroke:#d62728;stroke-width:1.5;stroke-linecap:square;stroke-linejoin:round;stroke-miterlimit:10;stroke-dasharray:none;stroke-opacity:1"
           d="m 138.43636,405.44966 0.60873,-1.41323 0.30436,-0.43658 0.30437,-0.0268 0.91309,0.22391 1.21745,0.19664 0.60873,-0.3043 1.82618,0.14549 0.30437,0.16583 1.82618,-0.60106 0.30436,-0.27317 0.30437,-0.0612 1.52181,0.20788 0.60873,0.60618 0.91309,0.0653 0.60873,0.0748 0.91309,-0.84217 0.30436,-0.12755 0.91309,-0.74479 0.30437,-0.10243 0.60872,0.20663 0.60873,-0.0536 0.91309,0.29635 0.60873,-0.46175 0.91309,-0.12206 0.60873,-0.15802 0.30436,0.0992 0.60873,0.43593 0.60873,0.0219 0.60872,-0.14829 0.30437,-0.18879 0.60872,-0.95684 0.9131,-0.67963 0.60872,-0.23597 1.21746,0.25683 1.21745,-0.14583 0.60873,-0.29617 1.82618,0.57009 0.30436,0.25035 1.21746,-0.268 0.60873,-0.50228 0.60872,-0.649 0.91309,-0.2585 0.60873,0.042 0.60873,0.43514 0.60873,-0.0773 0.91309,-0.45185 0.91309,-0.88898 0.60873,-0.12964 0.60872,0.0962 0.30437,0.1717 0.60872,0.67884 0.91309,0.39805 0.60873,-0.0258 0.91309,-0.95771 1.21746,-0.75879 0.30436,0.0665 0.60873,0.41456 0.91309,0.11145 0.60873,-0.2045 0.60872,-0.8432 0.60873,-0.35502 0.91309,-0.19511 0.30437,0.15947 0.30436,0.28885 0.60873,0.1228 1.21745,0.12212 0.60873,-0.39784 0.60873,0.10835 1.21745,-0.0127 0.30436,0.21368 1.82619,-0.61814 0.60872,-0.46312 0.60873,-0.0971 0.91309,-0.24927 0.60873,0.20636 0.60873,-0.19531 1.21745,-0.0833 0.60873,-0.2968 0.30436,10e-4 1.21746,-0.49666 0.60872,0.17616 1.52182,-0.55057 0.91309,-0.84206 0.60873,-0.14319 0.60873,10e-4 0.30436,0.12881 0.60873,0.49005 1.52182,-0.064 0.60872,-0.5661 0.91309,-0.0239 0.60873,-0.078 0.91309,0.16945 0.60873,-0.23217 0.91309,-0.18206 0.60873,-0.35187 0.60872,0.15315 1.21746,0.0674 0.30436,0.15929 1.52182,-0.68222 0.30436,-0.21361 0.60873,-0.6366 0.60873,-0.19411 0.91309,-0.38455 0.60873,0.31559 0.91309,-0.18818 0.60873,-0.0238 0.30436,-0.13923 0.30436,-0.28076 0.30437,-0.0748 1.21745,0.0782 0.30436,0.0114 0.60873,0.55178 1.52182,-0.12128 0.91309,-0.7715 0.60873,-0.17043 0.91309,-0.28282 0.60873,0.41285 0.91309,-0.16341 0.60872,0.007 0.9131,-0.84509 1.21745,-0.46066 0.30436,0.007 0.60873,0.37023 0.91309,0.19467 0.60873,0.26568 0.60873,-0.47633 0.60872,-0.10836 0.91309,-0.40778 0.30437,0.0947 0.30436,0.25414 0.60873,0.0147 0.91309,-0.1362 0.30436,-0.22214 0.60873,-0.92362 0.91309,-0.6183 0.60873,-0.11246 0.91309,0.72763 0.91309,0.25317 0.30436,-0.055 0.30437,-0.2028 0.60873,-0.6845 0.91309,-0.41035 0.60872,-0.1854 0.60873,0.46392 1.52182,0.008 0.30436,-0.18859 0.30437,-0.32525 0.91309,-0.32303 0.60873,-0.16737 0.30436,10e-4 0.60873,0.41374 1.21745,0.0576 0.30436,-0.0534 1.21746,-0.75982 1.52182,-0.35709 0.60872,-0.0175 0.91309,0.037 0.30437,0.096 0.91309,-0.70089 1.52182,-0.66334 0.60872,0.26866 1.21746,0.0365 0.30436,-0.0692 0.60873,-0.56999 0.60873,-0.18045 0.91309,-0.0248 1.21745,0.44038 1.21746,-0.54186 0.60872,-0.67067 0.60873,-0.29905 0.91309,-0.14242 0.91309,0.55608 0.91309,0.13313 0.60873,-0.25641 0.60873,-0.53301 0.91309,-0.42064 0.60873,-0.11542 0.60872,0.20357 1.21746,-0.26763 0.30436,-0.0175 0.91309,-0.36092 1.52182,0.33031 0.60873,0.4361 0.60873,-0.066 0.91309,-0.3156 0.60872,-0.76712 0.60873,-0.26615 1.21746,-0.0567 0.30436,0.18134 0.60873,-0.0207 1.52182,-0.87963 0.30436,-0.27304 0.60873,-0.12513 0.60872,0.0118 0.30437,-0.0711 1.21745,0.28765 1.21746,-0.13309 0.60872,-0.61892 0.60873,-0.21572 0.60873,-0.30823 0.30436,-0.0906 0.60873,0.37642 2.13054,-0.63458 0.30437,-0.10151 0.91309,0.0402 0.60873,-0.0658 0.60873,0.26369 0.91308,-0.14456 0.60873,-0.0745 2.13055,-1.2872 0.30436,-0.13392 0.60873,0.17067 0.60873,-0.23795 1.21745,-0.0504 0.30436,-0.22083 1.21746,0.22429 0.60873,-0.0415 0.60872,0.26093 1.82618,-0.80357 0.30437,-0.31728 1.52182,-0.0298 0.30436,0.15781 0.30436,0.28684 0.30437,0.0657 1.21745,-0.54466 0.30437,-0.16656 0.60872,-0.73203 0.60873,0.0401 1.21745,0.43577 0.30437,0.30471 0.60873,-0.0426 0.91309,-0.53167 0.30436,-0.26276 0.60873,-0.77373 0.60872,-0.15659 0.60873,0.0748 0.30437,0.10521 0.60872,0.73293 0.60873,0.0296 0.91309,-0.19624 0.30436,-0.25595 0.30437,-0.43373 0.30436,-0.22569 0.60873,-0.22788 0.91309,-0.50173 0.60873,0.22298 0.91309,-0.32444 0.60873,-0.0922 0.91309,-0.62063 1.52181,-0.20785 0.60873,0.37933 1.52182,-0.10948 0.60873,-0.59505 1.21745,-0.16242 0.30437,0.048 0.30436,0.16171 0.60873,0.54956 1.21745,-0.005 0.30436,-0.0927 0.60873,-0.83224 1.82618,-0.5412 0.30437,0.22675 0.91309,-0.016 0.91309,-0.0682 0.60873,-0.54473 1.21745,-0.28872 0.30436,-0.1023 0.9131,0.20399 0.91309,-0.23795 0.30436,0.0171 0.30436,-0.0964 0.30437,-0.28643 0.30436,-0.12289 0.60873,0.0127 0.60873,-0.16203 0.30436,-0.15252 0.60873,0.26037 0.91309,-0.38457 0.91309,-0.21746 0.30436,-0.28154 0.60873,-0.0249 1.21745,-0.10982 0.60873,0.27338 1.52182,-0.61559 0.91309,-0.52033 0.60873,0.1447 1.52182,0.60864 0.60872,-0.23857 1.21746,-0.84709 0.30436,-0.40497 1.21746,-0.38735 0.30436,-0.0383 0.30436,0.0984 0.60873,0.42204 0.60873,0.17449 0.91309,0.29313 0.60873,-0.46533 0.60872,-0.045 0.91309,-0.41085 0.30437,0.0477 0.30436,0.17735 1.82618,-0.50395 0.60873,-0.62764 0.60873,-0.20971 0.91309,-0.44239 0.91309,0.31358 0.60873,0.0291 0.91309,0.0914 0.60872,-0.28996 2.43491,0.19705 1.52182,-1.01693 0.30437,-0.30986 0.60872,-0.0776 0.91309,0.0311 0.30437,-0.0146 0.60872,0.17918 0.9131,-0.38752 0.91309,-0.15754 0.30436,-0.2199 0.91309,0.16655 1.21746,0.0779 0.30436,0.0571 0.91309,-0.26499 0.60873,0.072 0.60872,-0.54986 0.9131,0.0707 0.91309,-0.009 0.30436,0.26318 0.30436,0.0261 0.60873,-0.14368 0.60873,-0.0904 0.30436,-0.12653 0.60873,-0.65357 1.52182,-0.16984 0.91309,0.59327 0.60873,-0.0742 0.60872,-0.1725 0.30437,-0.20302 0.60872,-0.65714 0.60873,-0.18838 0.91309,0.0383 0.60873,0.55192 0.91309,0.15317 0.60873,-0.0816 0.60872,-0.58739 1.21746,-0.80488 0.60873,-0.31249 0.60873,0.23107 0.60872,-0.038 1.21746,0.19392 0.30436,-0.13249 0.60873,0.0869 1.82618,0.56118 0.60873,-0.23979 1.52181,-0.99399 0.60873,0.0366 0.91309,0.2277 0.91309,0.30984 0.60873,-0.30038 0.60873,-0.3193 0.30436,-0.10272 0.60873,-0.49627 1.82618,0.24771 0.30436,0.20681 0.91309,-0.0895 0.9131,-0.0283 0.60872,-0.39234 0.91309,0.10395 0.60873,-0.14771 0.60873,0.34911 1.21745,-0.32288 0.60873,-0.048 0.30436,-0.25031 0.30437,-0.0916 0.60872,0.0246 0.9131,-0.20037 0.60872,0.34776 0.91309,-0.13456 0.91309,0.11563 0.30437,-0.17731 1.52182,0.14527 0.30436,-0.0996 0.60873,0.22566 0.91309,-0.42892 0.91309,-0.3786 0.30436,-0.27955 0.91309,0.01 0.60873,0.17637 0.30436,0.22118 0.60873,0.62769 0.91309,0.39347 0.60873,-0.007 0.91309,-0.79953 0.60873,-0.19299 0.60873,-0.0931 0.30436,0.11743 0.30436,0.28099 0.60873,0.14274 1.21745,-0.44627 0.60873,-0.80105 0.60873,-0.22573 0.60873,-0.0127 0.30436,0.0507 1.21745,0.98711 0.9131,0.16742 0.30436,-0.0991 0.60873,-0.51644 0.60873,-0.1433 0.60872,0.0568 0.30436,0.0739 0.9131,1.1257 0.30436,0.92958 0.30436,-0.92958 0.30437,-0.27326 0.60872,-0.85244 0.91309,-0.13072 0.60873,0.1433 0.91309,0.61552 0.60873,-0.0745 0.60873,-0.24066 0.30436,-0.18154 0.60873,-0.65786 0.60873,-0.0661 0.60872,0.12257 0.30437,0.13127 0.91309,0.95022 0.91309,0.2971 0.60873,-0.14274 0.30436,-0.28099 0.30436,-0.11743 0.91309,0.14977 0.60873,0.29014 0.60873,0.64566 0.60873,0.007 0.91309,-0.39347 1.21745,-0.98886 1.21746,-0.0459 0.60872,0.49979 0.91309,0.268 0.60873,0.31928 0.91309,-0.12609 0.30437,0.11425 0.91309,-0.2101 0.30436,-0.0494 0.60873,0.22716 0.60872,-0.16548 0.60873,0.0532 0.30437,0.0813 0.60872,-0.34776 1.21746,0.22206 0.30436,-0.0463 0.30436,0.0916 0.30437,0.25031 0.60873,0.048 0.60872,0.0812 0.60873,0.24169 0.60873,-0.34911 0.60872,0.14771 1.21746,0.0343 0.30436,0.25412 1.82618,0.11774 0.60873,-0.32773 0.60873,1.7e-4 0.91309,-0.12696 0.91309,0.59899 0.60873,0.3193 0.60873,0.30038 0.30436,-0.0228 0.60873,-0.287 0.60873,-0.11407 0.60872,-0.14067 0.30436,-0.01 0.60873,0.54722 0.91309,0.44677 0.60873,0.23979 2.13055,-0.62953 0.30436,-0.0185 0.60873,0.18206 0.91309,-0.24349 0.91309,-0.0554 0.30436,-0.13765 0.91309,0.52464 0.91309,0.59273 0.60873,0.58739 0.60873,0.0816 0.91309,-0.15317 0.60873,-0.55192 0.91309,-0.0383 0.60873,0.18838 1.21745,0.95956 0.91309,0.1473 0.30436,-0.0576 0.60873,-0.53566 0.60873,0.007 1.21745,0.43077 0.30437,0.38527 0.60872,0.19925 1.21746,0.13521 0.30436,-0.26318 0.30437,-0.0983 0.91309,0.11709 0.60872,-0.0808 0.60873,0.54986 0.60873,-0.072 1.21745,0.20794 0.30437,-0.20607 1.82618,-0.0384 0.60873,0.38778 0.60872,-0.0103 1.21746,0.34492 0.30436,-0.13658 1.82618,0.0611 0.60873,0.55398 0.60873,0.35463 0.60873,0.41818 0.30436,0.14439 0.91309,-0.24237 0.60873,-0.022 0.60873,-0.077 0.30436,0.0797 0.30436,0.21022 0.30436,0.0467 0.9131,-0.1834 0.60872,0.0396 0.60873,-0.33698 1.52182,0.6521 0.91309,0.76441 1.52182,0.36718 0.30436,-0.17735 0.30437,-0.0477 0.91309,0.41085 0.91309,0.25576 0.30436,0.25453 0.91309,-0.29313 0.91309,-0.31276 0.30437,-0.28377 0.30436,-0.0984 0.91309,0.19101 0.60873,0.23465 0.60873,0.7735 1.52181,0.71713 0.30437,-0.11797 0.30436,-0.24739 1.52182,-0.38798 0.30436,0.0197 0.60873,0.50066 0.91309,0.36333 0.60873,0.25226 0.91309,-0.24203 0.91309,0.0785 0.60873,0.0249 0.60873,0.43804 0.91308,0.13614 0.60873,0.30939 0.60873,-0.26037 0.60873,0.27308 1.21745,0.15167 0.30436,0.28643 0.60873,0.0793 1.21746,0.31873 0.60872,-0.28477 1.21746,0.34636 0.30436,0.0447 0.91309,0.6067 1.52182,0.0222 0.30436,-0.22675 0.30437,-0.075 1.52182,0.61625 0.60872,0.83224 0.60873,0.15151 0.91309,-0.0536 0.30437,-0.19026 0.30436,-0.3593 0.60873,-0.20976 1.21745,0.16242 0.60873,0.59505 1.52182,0.10948 0.91309,-0.37902 1.52182,0.30614 0.60872,0.52203 1.21746,0.27199 0.30436,0.1447 0.60873,-0.22298 1.21745,0.64251 0.30437,0.0871 0.30436,0.22569 0.60873,0.68968 0.91309,0.19624 0.60873,-0.0296 0.60872,-0.73293 0.60873,-0.17837 0.60873,0.0468 0.30436,0.10812 1.21746,1.2445 0.91309,0.39029 0.30436,-0.024 0.60873,-0.52673 1.52182,-0.25386 0.91309,0.89859 1.21745,0.54466 0.30436,-0.0657 0.60873,-0.44465 0.91309,-0.004 0.60873,0.0337 0.60873,0.61162 1.52182,0.50923 0.30436,-0.0655 0.30436,-0.19546 1.82618,-0.18278 0.60873,0.36254 0.91309,-0.0913 0.91309,0.19441 0.30437,-0.12713 0.91309,0.50997 0.60873,0.26638 0.30436,0.14698 0.60873,0.49779 1.52181,0.21902 0.60873,-0.26369 1.21746,0.0672 0.30436,-0.0416 0.30436,0.10151 0.30437,0.2577 0.60873,0.14161 0.91309,0.16023 0.30436,0.075 0.60873,-0.37642 0.60872,0.21434 0.60873,0.32223 0.30436,0.078 0.9131,0.71354 1.52182,0.0341 0.60872,-0.2833 0.60873,0.0817 0.60873,0.0236 0.30436,0.0792 0.91309,0.67381 0.60873,0.31308 0.60872,0.22426 0.30437,-0.0378 0.30436,-0.18134 0.30437,-0.0473 1.52181,0.37018 0.60873,0.76712 1.21746,0.38159 0.30436,1e-5 1.21745,-0.56384 1.21746,-0.20158 0.60873,0.35993 0.91309,0.12064 0.60872,0.16451 0.9131,-0.16072 0.60872,0.20263 0.91309,0.51256 0.60873,0.48961 0.60873,0.0642 0.91309,-0.20889 0.60873,-0.46666 0.91309,0.14242 0.60872,0.29905 0.91309,0.84712 1.21746,0.35023 0.30436,-0.0581 0.60873,-0.36708 1.21745,0.0918 0.30437,0.11342 0.60873,0.56999 0.60872,0.11266 1.21746,-0.1572 0.30436,-0.19138 0.30437,-0.0178 1.52181,0.81549 0.60873,0.56652 0.60873,-0.16829 1.21745,0.0528 0.30437,-0.1057 1.21745,0.46279 0.60873,0.27827 0.60872,0.48155 0.60873,0.0689 0.91309,-0.073 0.91309,-0.41483 0.60873,0.16737 0.91309,0.32303 0.60873,0.51384 1.82618,-0.23257 0.30436,-0.23925 1.21746,0.42701 0.60873,0.4567 0.30436,0.39654 0.30436,0.2028 0.30437,0.055 0.91309,-0.25317 0.30436,-0.13319 0.60873,-0.59444 0.60873,0.11246 0.91309,0.6183 0.91309,1.14576 0.60873,0.12704 0.91309,-0.006 0.30436,-0.25414 0.30437,-0.0947 1.21745,0.48346 0.30436,0.0327 0.60873,0.47633 1.21745,-0.40993 0.60873,-0.18351 0.30436,-0.23714 0.30437,-0.007 0.60873,0.26199 0.91309,0.33856 0.60873,0.7052 0.91308,0.0307 0.60873,0.12607 0.91309,-0.37798 1.52182,0.53255 0.60873,0.65733 1.52182,0.12128 0.60872,-0.55178 1.82619,-0.0147 0.60872,0.41999 1.21746,0.11921 0.30436,0.0928 0.60873,-0.31559 1.52182,0.57866 1.21745,0.99206 1.21746,0.54037 0.60872,-0.27409 0.91309,0.0474 0.60873,-0.15315 1.21746,0.47506 0.60872,0.13617 0.60873,0.18818 0.60873,-0.20276 1.52182,0.10197 0.60872,0.5661 1.52182,0.064 0.30437,-0.17221 0.30436,-0.31784 0.60873,-0.15842 0.91309,0.17144 0.30436,0.14081 0.60873,0.70125 1.52182,0.55057 0.91309,-0.0614 0.91309,0.3819 0.60872,0.0794 0.60873,0.33384 0.91309,-0.0343 0.60873,0.19531 0.60873,-0.20636 1.52182,0.34637 0.30436,0.15923 0.60873,0.47981 1.52181,0.44222 0.60873,-0.35228 0.91309,0.15126 0.91309,0.0332 0.30437,0.25633 0.91309,-0.10293 0.91309,-0.14199 0.60873,-0.44832 0.91309,0.19511 0.60872,0.35502 0.60873,0.8432 0.60873,0.2045 0.91309,-0.11145 0.91309,-0.4811 0.30437,0.0819 1.21745,0.90552 0.60873,0.72907 0.60872,0.0258 0.91309,-0.39805 0.9131,-0.85054 0.60872,-0.0962 0.60873,0.12964 0.30436,0.17915 0.60873,0.70983 0.91309,0.45185 0.60873,0.0773 0.91309,-0.47247 0.60873,0.0639 0.60873,0.18994 0.30436,0.24839 0.60873,0.69388 0.60872,0.28831 0.91309,0.1887 0.60873,-0.49227 0.60873,-0.18883 1.21745,-0.0381 0.60873,0.26012 1.52182,0.0897 0.60873,-0.26589 0.91309,0.40898 0.60872,0.50662 0.60873,0.95684 0.60873,0.31225 0.91309,0.003 0.30436,-0.14969 0.30437,-0.28624 0.30436,-0.0992 1.82618,0.52354 0.30437,0.21829 0.91309,-0.29635 1.52181,-0.0506 2.43492,1.68485 1.21745,-0.11043 0.60873,-0.60618 1.82618,-0.14663 0.60872,0.42827 0.60873,0.11131 0.91309,0.33465 0.60873,-0.34245 0.60873,0.0969 0.91309,-0.0658 0.91309,0.32286 1.82618,-0.43911 0.30436,0.0268 0.60873,1.03577 0.30437,0.81404 v 0" /></g></g><g
       id="g368"><g
         clip-path="url(#clipPath374)"
         id="g370"><path
           id="path376"
           style="fill:none;stroke:#9467bd;stroke-width:1.5;stroke-linecap:square;stroke-linejoin:round;stroke-miterlimit:10;stroke-dasharray:none;stroke-opacity:1"
           d="m 138.43636,547.41965 0.60873,-0.40667 0.30436,-0.0838 2.43491,0.73512 0.30437,-0.23485 0.30436,-0.008 0.91309,0.37606 0.60873,-0.27485 0.60873,0.47936 1.82618,-0.67333 0.30436,-0.47221 0.60873,-0.22598 0.91309,-0.0411 0.30436,-0.0756 0.60873,0.55288 1.52182,-0.13232 0.91309,-0.89932 0.60873,-0.18396 0.60872,-0.11173 0.30437,0.0655 0.30436,0.49361 0.30436,0.26671 0.60873,0.10196 0.91309,-0.11341 0.60873,-1.02546 1.21745,-0.35712 0.30437,-0.0699 0.30436,0.1049 0.30437,0.39824 0.60872,0.0766 1.21746,-0.0437 0.60872,-0.69792 0.60873,-0.16063 0.60873,-0.29553 0.30436,-0.0791 0.60873,0.23687 0.91309,-0.57027 0.60873,-0.295 0.91309,-0.64069 0.91309,0.21273 0.60873,0.18828 0.60872,0.60866 1.52182,-0.31474 0.30437,-0.26382 0.30436,-0.51668 0.60873,-0.28663 0.91309,-0.14903 0.30436,0.013 0.60873,0.81377 0.91309,-0.16436 0.60873,-0.2534 0.60872,-0.9019 0.60873,0.0699 1.21746,0.57158 0.30436,0.49474 0.30436,0.24253 0.60873,-0.22658 0.60873,-0.31262 0.30436,-0.0956 0.60873,-0.97216 0.91309,-0.14116 0.91309,-0.0463 0.30436,0.39403 0.30437,0.12316 0.60873,-0.11599 0.91309,-0.39859 0.60872,-0.95836 0.91309,-0.35066 0.60873,0.17311 0.30437,0.30187 0.30436,0.49068 0.91309,0.11363 0.30436,0.0108 0.60873,-0.42951 0.30436,-0.52365 0.30437,-0.26042 1.21745,0.17822 0.30437,0.17426 0.60872,0.81244 0.60873,-0.10239 0.60873,-0.33975 0.60873,-0.61857 0.30436,-0.53042 0.60873,-0.45369 0.60872,0.0993 0.60873,0.36788 0.60873,0.82236 0.60873,0.36246 0.60872,-0.16837 0.30437,-0.1562 0.30436,-0.32461 0.60873,-0.94324 0.91309,-0.9788 0.60873,-0.50617 0.60872,0.49993 0.91309,0.37598 0.60873,0.48679 0.30436,-0.15775 0.30437,-0.31075 0.91309,-0.23075 0.30436,-0.0654 0.60873,-0.27536 0.30436,0.29322 0.30437,0.1083 1.52182,-0.14636 0.60872,-0.8579 1.52182,-0.44985 0.30436,0.12215 0.30437,0.43213 0.60873,0.12661 1.21745,-0.30274 0.60873,-0.75035 0.91309,-0.056 0.60873,0.0713 0.60872,0.48815 0.91309,-0.4592 0.91309,-0.80056 0.30437,-0.56778 0.30436,-0.27912 0.60873,-0.1179 0.30436,0.008 0.60873,0.25623 0.60873,0.92816 1.52182,0.0313 0.30436,-0.22026 0.30436,-0.47246 0.30437,-0.0427 0.60872,0.11488 0.91309,-0.0754 0.60873,0.5303 1.82618,-1.59027 0.30437,-0.57175 0.60872,-0.1622 0.60873,0.0274 0.60873,0.23033 0.30436,0.45668 0.30437,0.23977 0.60872,-0.0681 0.91309,-0.41483 0.60873,-1.01005 0.60873,-0.33197 0.91309,0.0542 0.30436,0.19017 0.30437,0.55757 0.60872,0.48739 0.60873,-0.12584 0.60873,-0.21554 0.60873,-1.25834 0.60872,-0.48091 0.60873,0.0469 0.30436,0.10283 0.30437,0.38668 0.30436,0.64903 0.60873,0.43091 0.60873,0.0126 0.60872,-0.39228 0.60873,-1.17624 0.91309,-0.72489 0.60873,-0.36252 0.60873,0.36274 1.21745,-0.49514 0.60873,-0.16205 0.30436,-0.39725 0.30437,-0.0575 0.91309,0.39084 0.60872,0.27309 0.60873,0.91488 0.60873,0.0935 0.60873,-0.20992 0.30436,-0.20092 0.30436,-0.40722 0.30437,-0.60899 0.60872,-0.53293 0.60873,-0.21985 0.60873,0.0882 0.30436,0.32708 0.30437,0.15251 1.21745,-0.38288 0.30436,-0.0867 0.60873,-0.54846 0.91309,0.49417 0.91309,0.18672 0.30437,0.27454 0.30436,-0.0555 0.60873,-0.58151 1.21745,-0.87704 0.30437,-0.33232 0.91309,0.0564 0.91309,-0.0945 0.30436,0.21192 0.60873,-0.24666 1.21745,-0.56635 0.60873,-0.72625 0.91309,-0.10866 0.60873,0.14675 0.30436,0.34333 0.30437,0.52161 0.60872,0.17351 0.60873,-0.15061 0.30436,-0.17497 0.30437,-0.31302 0.30436,-0.76162 0.30436,-0.46121 0.60873,-0.37767 0.60873,-0.0171 0.30436,0.0634 0.60873,0.9493 0.60873,-0.0497 0.91309,-0.56657 0.30436,-0.32101 0.30437,-0.55723 0.60872,-0.21181 1.21746,0.33395 0.60872,0.63441 0.60873,-0.14854 0.91309,-0.67372 0.91309,-1.02792 0.91309,-0.11337 0.60873,0.15804 0.30437,0.3508 0.30436,0.14504 0.60873,-0.15393 0.91309,0.004 0.91309,-0.69082 0.60873,-0.2917 0.91309,-0.6223 0.30436,0.18358 0.60873,-0.0979 0.60872,-0.0877 0.60873,0.0922 0.60873,-0.67766 1.82618,-0.22567 0.30436,0.29777 0.9131,-0.066 0.91309,-0.19157 0.60872,-0.64193 1.52182,-0.22845 0.60873,0.50709 1.52182,-0.0134 0.30436,-0.13608 0.30436,-0.28988 0.60873,-0.14057 1.52182,-0.1709 0.30437,0.0357 0.91308,-0.48715 0.9131,-0.0514 0.30436,-0.22454 0.60873,0.092 0.60872,0.25817 0.60873,-0.21476 0.30436,0.18507 0.30437,0.0248 0.60873,-0.38698 0.60872,-0.54195 0.30437,-0.14564 0.91309,-0.77676 0.30436,-0.0585 0.60873,0.18477 0.60873,0.0232 0.30436,0.23722 0.30436,0.0171 0.60873,-0.2871 0.91309,-0.63709 0.60873,-0.76403 0.91309,-0.0844 0.60873,0.16248 0.30436,0.23229 0.30436,0.42052 0.60873,0.0936 0.91309,-0.35408 0.30437,-0.17171 0.60872,-1.00464 0.60873,-0.23285 0.91309,-0.0616 0.30436,0.20661 0.30437,0.38764 1.52182,-0.91099 0.30436,-0.27855 0.30436,-0.54892 0.30437,-0.21916 1.21745,0.0904 0.30437,0.11199 0.60872,0.6024 1.52182,-0.76893 0.30436,-0.31965 0.30437,-0.5101 0.60873,-0.32496 0.91309,-0.26811 0.30436,-0.0418 0.60873,0.65788 1.52182,0.64076 0.30436,-0.14786 0.30436,-0.3685 0.91309,-0.32434 0.30437,-0.0908 0.60872,-0.40081 0.30437,0.24009 0.30436,0.066 0.91309,-0.33382 0.60873,0.18312 0.60873,-0.43292 0.91309,0.20626 0.30436,-0.0684 0.60873,-0.29412 0.30436,0.21529 0.30437,-0.0224 0.91309,-0.42499 0.60872,-0.004 0.60873,-0.7414 0.91309,-0.30657 0.60873,-0.10957 0.30436,0.11233 0.30437,0.34856 0.91309,0.28262 0.60873,0.0895 0.30436,-0.0187 0.60873,-0.62044 0.60872,-0.21691 0.91309,-0.60511 0.30437,0.0352 0.30436,0.16972 0.91309,-0.24672 0.91309,-0.0278 0.60873,-0.62947 0.60873,-0.29904 0.91309,-0.73661 0.60873,0.22056 0.91309,-0.1906 0.91309,0.0855 0.30436,-0.35965 0.60873,-0.0301 0.91309,0.12243 0.30436,-0.03 0.60873,0.72431 0.60873,-0.0974 0.60873,-0.35673 0.30436,-0.24898 0.91309,-1.45108 0.60873,-0.37431 0.60872,-0.11023 0.30437,0.0306 0.30436,0.34605 0.30437,0.12134 1.21745,-0.17344 0.30436,-0.0462 0.60873,-0.68217 1.21746,-0.39358 0.30436,-0.078 0.30436,0.0529 0.30437,0.33266 0.60872,-0.0278 1.21746,-0.11246 0.60873,-0.67432 1.52181,-0.0145 0.30437,0.17878 0.30436,0.31645 0.91309,-0.10562 0.91309,-0.13402 0.60873,-0.53393 1.52182,-0.54259 0.60873,0.13326 1.82618,-0.81911 0.30436,-0.37834 0.60873,-0.01 0.91309,0.15024 0.30436,0.111 0.60873,0.56922 1.52182,-0.47321 0.60873,-0.57655 1.52181,0.23743 0.30437,0.0803 0.30436,0.25907 0.30436,0.0884 1.21746,-0.63546 0.30436,-0.25523 0.60873,-0.93015 1.21745,-0.32403 0.60873,0.28613 0.30437,0.53906 0.30436,0.26543 0.91309,0.24513 0.60873,-0.12084 0.60872,-1.01138 0.9131,-0.50643 0.60872,-0.21037 0.30437,0.0829 0.30436,0.31209 0.60873,-0.0721 1.21745,-0.59322 0.60873,-0.69257 0.60873,-0.0283 0.91309,0.29633 0.60872,0.68083 0.60873,0.0222 0.60873,-0.27355 0.60873,-0.53795 0.60872,-0.87309 0.60873,-0.33889 0.91309,0.0235 0.60873,0.7005 0.60873,0.27322 1.21745,-0.2487 0.30436,-0.45616 0.60873,-0.40981 1.21746,-0.31753 0.60873,0.45275 1.82618,-0.17693 0.30436,-0.31761 1.21745,0.15859 0.60873,-0.23763 0.30436,0.27069 0.30437,0.0707 0.91309,-0.26433 0.60873,0.21107 0.60872,-0.28142 0.91309,0.4713 0.30437,0.0492 0.60873,-0.0887 0.30436,0.1613 0.60873,-0.30516 0.60872,-0.32298 0.60873,-0.0121 0.60873,-0.4222 1.21745,0.0552 0.30437,-0.0388 0.30436,0.12751 0.30436,0.26288 1.82619,-0.34644 0.30436,-0.32223 0.30436,-0.12246 0.60873,0.0437 0.60873,-0.27325 0.30436,-0.22788 1.52182,-0.12182 0.91309,0.22662 0.91309,-0.5297 1.21746,-0.28346 0.91309,0.75647 1.21745,0.41323 0.30436,-0.0533 0.30437,-0.26239 1.21745,-0.16014 0.60873,-0.35163 0.30436,0.0399 0.30437,-0.0867 0.60873,-0.38253 0.30436,-0.0482 0.91309,0.22577 0.30436,-0.0878 0.60873,0.4736 0.91309,-0.0296 0.30436,0.008 0.30437,0.30113 0.30436,0.0405 0.60873,-0.26663 0.60873,-0.239 0.30436,-0.18941 0.60873,-0.8173 0.91309,-0.10583 0.60873,0.16192 0.30436,0.19095 0.30436,0.34321 0.60873,0.1199 1.21745,0.1183 0.60873,-0.466 1.52182,-0.21898 0.30436,0.11392 0.30437,0.28575 0.60872,0.21506 1.21746,-0.026 0.60873,-0.65072 0.60873,-0.35813 0.91308,-0.0143 0.60873,0.86916 0.30437,0.0767 0.30436,0.54562 0.30436,-0.54562 0.30437,-0.0767 0.60872,-0.86916 0.91309,0.0143 0.60873,0.35813 0.60873,0.65072 0.91309,0.007 0.30436,0.0185 0.60873,-0.21506 0.30436,-0.28575 0.30437,-0.11392 0.60873,0.15324 0.60872,0.0147 0.30437,0.051 0.60872,0.466 1.82619,-0.2382 0.60872,-0.53416 0.60873,-0.16192 0.91309,0.10583 0.91309,1.00671 0.60873,0.239 0.91309,0.22616 0.30436,-0.30113 1.21746,0.0212 0.60873,-0.4736 0.60872,0.094 0.60873,-0.232 0.30436,0.0482 0.91309,0.46922 0.30437,-0.0399 0.91309,0.44404 1.82618,0.26721 1.21746,-0.43172 0.60872,-0.62179 1.52182,0.44187 0.60873,0.37129 1.52182,-0.16949 1.21745,0.29257 0.60873,0.27325 0.91309,0.0788 0.30436,0.32223 1.82618,0.34644 0.60873,-0.39039 0.91309,0.0549 0.60873,-0.0713 0.91309,0.42826 0.30436,0.006 1.21746,0.62814 0.30436,-0.1613 1.21746,-0.0938 0.60872,-0.33796 0.60873,0.28142 0.60873,-0.21107 0.91309,0.26433 0.30436,-0.0707 0.30437,-0.27069 0.91309,0.24291 0.91309,-0.16387 0.30436,0.31761 0.30437,0.14831 0.60872,-0.0951 0.91309,0.12376 0.60873,-0.45275 1.52182,0.49072 0.30436,0.23662 0.30437,0.45616 0.30436,0.19225 1.21746,-0.0701 0.30436,-0.14665 0.60873,-0.7005 0.91309,-0.0235 0.60873,0.33889 0.30436,0.33868 0.30436,0.53441 0.60873,0.53795 0.60873,0.27355 0.60872,-0.0222 0.60873,-0.68083 0.91309,-0.29633 0.60873,0.0283 0.30436,0.25149 0.30437,0.44108 1.52181,0.6596 0.30437,0.006 0.30436,-0.31209 0.30437,-0.0829 1.21745,0.51816 0.30436,0.19864 0.60873,1.01138 0.60873,0.12084 0.91309,-0.24513 0.30436,-0.26543 0.30437,-0.53906 0.60872,-0.28613 0.60873,0.12545 0.60873,0.19858 0.60873,0.93015 0.60872,0.4732 0.91309,0.41749 0.30437,-0.0884 0.30436,-0.25907 1.52182,-0.2873 0.30436,-0.0305 0.60873,0.57655 1.21746,0.38841 0.30436,0.0848 0.91309,-0.68022 0.60873,-0.12584 0.91309,-0.0145 0.30436,0.37834 0.60873,0.29818 1.21745,0.52093 0.60873,-0.13326 0.60873,0.3052 0.91309,0.23739 0.91309,0.57276 0.60873,0.0952 0.60872,0.10497 0.30437,6.5e-4 0.60873,-0.49523 1.52181,0.0145 0.91309,0.73987 0.60873,0.0389 0.91309,0.0358 0.30437,-0.33266 0.30436,-0.0529 1.52182,0.47162 0.60873,0.68217 1.52181,0.21961 0.30437,-0.12134 0.30436,-0.34605 0.60873,-0.005 0.60872,0.21313 0.60873,0.49559 0.60873,1.20118 0.91309,0.60571 0.60873,0.0974 0.30436,-0.27603 0.30437,-0.44828 0.60872,0.06 0.91309,-0.18142 0.30437,0.0591 0.30436,0.35965 0.30437,0.09 0.60872,-0.1755 1.21746,0.0697 0.30436,-0.0996 1.21745,0.91492 0.60873,0.35236 0.30436,0.39784 0.30437,0.0736 0.60873,-0.0458 0.60872,0.13802 0.30437,0.1087 0.30436,-0.16972 0.30436,-0.0352 1.21746,0.73278 0.30436,0.0892 0.91309,0.63911 0.60873,-0.0895 0.91309,-0.28262 0.30436,-0.34856 0.30437,-0.11233 1.21745,0.28153 0.30437,0.13461 0.60872,0.7414 0.60873,0.004 0.91309,0.42499 0.30437,0.0224 0.30436,-0.21529 1.21745,0.3631 0.60873,-0.20685 0.60873,0.43292 0.60873,-0.18312 1.21745,0.26785 0.30436,-0.24009 0.91309,0.49163 0.9131,0.32434 0.30436,0.3685 0.30436,0.14786 1.82618,-0.93293 0.30437,-0.36571 0.91309,0.19465 0.91309,0.44024 0.60873,0.82975 0.60872,0.39036 0.9131,0.37857 0.60872,-0.6024 0.60873,-0.20963 0.91309,0.007 0.30436,0.21916 0.30437,0.54892 0.91309,0.70341 0.91309,0.48613 0.30437,-0.38764 0.30436,-0.20661 1.21745,0.16586 0.30437,0.12855 0.91309,1.17635 0.60872,0.27415 0.60873,0.0883 0.30436,-0.10201 0.60873,-0.65281 0.60873,-0.16248 0.91309,0.0844 0.91309,0.97848 0.91309,0.5906 0.30437,0.11914 0.30436,-0.0171 0.30436,-0.23722 1.52182,-0.14941 0.30436,0.0719 0.60873,0.70484 0.60873,0.3443 0.60873,0.57392 0.30436,0.15635 0.30436,-0.0248 0.30437,-0.18507 0.60872,0.21476 0.9131,-0.33992 0.30436,-0.0103 0.30436,0.22454 0.30437,0.0698 0.60872,-0.0184 1.21746,0.4515 0.30436,-0.0966 1.82618,0.40805 0.30437,0.28988 0.60873,0.22186 1.21745,-0.0724 0.60873,-0.50709 0.60872,-0.0231 1.21746,0.49738 0.30436,0.39606 1.21746,0.23629 0.60873,0.0213 0.30436,-0.29777 0.30436,-0.0787 0.91309,0.21329 0.60873,0.091 0.60873,0.67766 0.91309,-0.0599 0.91309,0.15334 0.30436,-0.18358 0.30437,0.13312 0.91309,0.68877 0.60872,0.17516 0.60873,0.60777 1.21746,0.0562 0.30436,0.0933 0.30436,-0.14504 0.30437,-0.3508 0.60872,-0.15804 0.91309,0.11337 0.30437,0.0997 0.60873,0.92821 0.91309,0.67372 0.60872,0.14854 0.9131,-0.71842 0.91309,-0.24994 0.30436,0.0493 0.30436,0.16249 0.30437,0.55723 0.60873,0.52607 0.60872,0.36151 0.60873,0.0497 0.60873,-0.9493 0.60872,-0.11088 0.60873,0.21661 0.30436,0.22562 0.30437,0.46121 0.30436,0.76162 0.60873,0.48799 0.60873,0.15061 0.60872,-0.17351 0.60873,-0.86494 0.60873,-0.14675 0.91309,0.10866 1.21745,1.02997 1.21746,0.50929 0.30436,-0.21192 0.30437,-0.0495 0.91309,0.18255 0.60872,-0.095 0.91309,0.86637 0.60873,0.34299 0.91309,0.63699 0.30437,-0.27454 1.52181,-0.48747 0.30437,-0.19342 0.60872,0.54846 1.52182,0.46961 0.30437,-0.15251 0.30436,-0.32708 0.60873,-0.0882 0.60873,0.21985 0.60872,0.53293 0.60873,1.01621 0.60873,0.33843 0.60872,0.0386 0.30437,-0.0597 0.60872,-0.91488 1.52182,-0.66393 0.30437,0.0575 0.30436,0.39725 1.82618,0.65719 0.60873,-0.36274 1.21745,0.8026 0.30437,0.28481 0.91309,1.41017 0.30436,0.15835 0.60873,-0.0126 0.60873,-0.43091 0.30436,-0.64903 0.30437,-0.38668 0.60872,-0.16075 0.30436,0.0111 0.60873,0.48091 0.60873,1.25834 1.21745,0.34138 0.60873,-0.48739 0.30436,-0.55757 0.30437,-0.19017 0.91309,-0.0542 0.60873,0.33197 0.60873,1.01005 0.91308,0.41483 0.60873,0.0681 0.30437,-0.23977 0.30436,-0.45668 0.60873,-0.23033 0.60872,-0.0274 0.60873,0.1622 0.60873,0.97848 1.52182,1.18354 0.30436,-0.18221 0.30436,-0.34809 1.21746,0.0528 0.30436,-0.0923 0.30437,0.0427 0.30436,0.47246 0.30436,0.22026 0.60873,0.0517 0.91309,-0.0829 0.60873,-0.92816 0.60873,-0.25623 0.60872,0.0314 0.30437,0.079 0.30436,0.27912 0.30437,0.56778 0.60872,0.57705 0.91309,0.5626 0.30437,0.12011 0.60872,-0.48815 1.21746,-0.0614 0.30436,0.0461 0.30436,0.29072 0.30437,0.45963 1.21745,0.30274 0.60873,-0.12661 0.30436,-0.43213 0.30437,-0.12215 1.52182,0.44985 0.60872,0.8579 1.21746,0.11958 0.30436,0.0268 0.30437,-0.1083 0.30436,-0.29322 0.30436,0.0788 0.60873,0.26196 0.60873,0.12639 0.30436,0.10436 0.60873,0.4685 0.60872,-0.48679 1.21746,-0.58741 0.30436,-0.2885 1.21746,1.11803 0.60872,0.77743 0.60873,0.85736 0.60873,0.26344 0.30436,0.0611 0.60873,-0.36246 0.91309,-1.00835 0.60873,-0.28681 0.30436,0.006 0.30437,0.16322 0.30436,0.29047 0.60873,0.87287 0.60872,0.46441 0.60873,0.20724 0.30436,0.0466 0.60873,-0.81244 0.60873,-0.30619 0.91309,-0.0463 0.30436,0.26042 0.30437,0.52365 0.60873,0.42951 1.21745,-0.12447 0.60873,-0.79255 0.60872,-0.17311 0.60873,0.20305 0.30436,0.14761 0.60873,0.95836 1.21746,0.48281 0.30436,0.0318 0.30436,-0.12316 0.30437,-0.39403 0.30436,-0.0576 0.60873,0.10387 0.60873,0.066 0.30436,0.0751 0.60873,0.97216 0.60872,0.21485 0.60873,0.3311 0.30436,0.0888 0.30437,-0.24253 0.30436,-0.49474 1.21746,-0.57158 0.60872,-0.0699 0.60873,0.9019 0.91309,0.3383 0.60873,0.0795 0.60873,-0.81377 0.91309,0.0531 0.60873,0.1694 0.30436,0.20014 0.30436,0.51668 0.30437,0.26382 1.52181,0.31474 0.60873,-0.60866 1.52182,-0.40101 0.30436,0.10247 0.60873,0.53822 1.52182,0.86527 0.60873,-0.23687 0.60872,0.19464 0.60873,0.28335 0.30436,0.0573 0.91309,0.7363 1.21746,0.0139 0.30436,-0.0852 0.30437,-0.39824 0.30436,-0.1049 1.52182,0.42706 0.60873,1.02546 0.91309,0.11341 0.60872,-0.10196 0.30437,-0.26671 0.30436,-0.49361 0.30436,-0.0655 1.21746,0.29569 0.30436,0.1472 0.60873,0.75212 0.60873,-0.005 0.60872,0.12476 0.30437,0.0128 0.60873,-0.55288 0.91309,0.12786 0.60872,0.0526 0.30437,0.16221 0.30436,0.47221 0.30436,0.23467 0.60873,0.071 0.91309,0.36767 0.60873,-0.47936 0.60873,0.27485 1.21745,-0.36787 0.30437,0.23485 0.30436,-0.051 0.30436,-0.16752 1.21746,-0.215 0.60872,-0.30156 0.60873,0.21788 0.30437,0.2726 v 0" /></g></g><g
       id="g378"><path
         id="path380"
         style="fill:none;stroke:#000000;stroke-width:0.80000001;stroke-linecap:square;stroke-linejoin:miter;stroke-miterlimit:10;stroke-dasharray:none;stroke-opacity:1"
         d="M 108,81 V 570.24" /><path
         id="path382"
         style="fill:none;stroke:#000000;stroke-width:0.80000001;stroke-linecap:square;stroke-linejoin:miter;stroke-miterlimit:10;stroke-dasharray:none;stroke-opacity:1"
         d="M 777.6,81 V 570.24" /><path
         id="path384"
         style="fill:none;stroke:#000000;stroke-width:0.80000001;stroke-linecap:square;stroke-linejoin:miter;stroke-miterlimit:10;stroke-dasharray:none;stroke-opacity:1"
         d="M 108,81 H 777.6" /><path
         id="path386"
         style="fill:none;stroke:#000000;stroke-width:0.80000001;stroke-linecap:square;stroke-linejoin:miter;stroke-miterlimit:10;stroke-dasharray:none;stroke-opacity:1"
         d="M 108,570.24 H 777.6" /><path
         id="path388"
         style="fill:#ffffff;fill-opacity:0.8;fill-rule:nonzero;stroke:#cccccc;stroke-width:1;stroke-linecap:butt;stroke-linejoin:miter;stroke-miterlimit:10;stroke-dasharray:none;stroke-opacity:0.8"
         d="M 674.1375,440.01812 H 766.4 c 2.13333,0 3.2,1.06667 3.2,3.2 V 559.04 c 0,2.13333 -1.06667,3.2 -3.2,3.2 h -92.2625 c -2.13333,0 -3.2,-1.06667 -3.2,-3.2 V 443.21812 c 0,-2.13333 1.06667,-3.2 3.2,-3.2 z" /><path
         id="path390"
         style="fill:none;stroke:#1f77b4;stroke-width:1.5;stroke-linecap:square;stroke-linejoin:round;stroke-miterlimit:10;stroke-dasharray:none;stroke-opacity:1"
         d="m 677.3375,549.28375 h 32" /><text
         id="text394"
         style="font-variant:normal;font-weight:normal;font-size:16px;font-family:'DejaVu Sans';-inkscape-font-specification:DejaVuSans;writing-mode:lr-tb;fill:#000000;fill-opacity:1;fill-rule:nonzero;stroke:none"
         transform="matrix(1,0,0,-1,722.1375,543.68375)"><tspan
           id="tspan392"
           y="0"
           x="0 10.176 15.264 25.440001 30.528">2.0 K</tspan></text>
<path
         id="path396"
         style="fill:none;stroke:#ff7f0e;stroke-width:1.5;stroke-linecap:square;stroke-linejoin:round;stroke-miterlimit:10;stroke-dasharray:none;stroke-opacity:1"
         d="m 677.3375,525.79938 h 32" /><text
         id="text400"
         style="font-variant:normal;font-weight:normal;font-size:16px;font-family:'DejaVu Sans';-inkscape-font-specification:DejaVuSans;writing-mode:lr-tb;fill:#000000;fill-opacity:1;fill-rule:nonzero;stroke:none"
         transform="matrix(1,0,0,-1,722.1375,520.19938)"><tspan
           id="tspan398"
           y="0"
           x="0 10.176 15.264 25.440001 30.528">3.0 K</tspan></text>
<path
         id="path402"
         style="fill:none;stroke:#2ca02c;stroke-width:1.5;stroke-linecap:square;stroke-linejoin:round;stroke-miterlimit:10;stroke-dasharray:none;stroke-opacity:1"
         d="m 677.3375,502.315 h 32" /><text
         id="text406"
         style="font-variant:normal;font-weight:normal;font-size:16px;font-family:'DejaVu Sans';-inkscape-font-specification:DejaVuSans;writing-mode:lr-tb;fill:#000000;fill-opacity:1;fill-rule:nonzero;stroke:none"
         transform="matrix(1,0,0,-1,722.1375,496.715)"><tspan
           id="tspan404"
           y="0"
           x="0 10.176 15.264 25.440001 30.528">4.0 K</tspan></text>
<path
         id="path408"
         style="fill:none;stroke:#d62728;stroke-width:1.5;stroke-linecap:square;stroke-linejoin:round;stroke-miterlimit:10;stroke-dasharray:none;stroke-opacity:1"
         d="m 677.3375,478.83062 h 32" /><text
         id="text412"
         style="font-variant:normal;font-weight:normal;font-size:16px;font-family:'DejaVu Sans';-inkscape-font-specification:DejaVuSans;writing-mode:lr-tb;fill:#000000;fill-opacity:1;fill-rule:nonzero;stroke:none"
         transform="matrix(1,0,0,-1,722.1375,473.23062)"><tspan
           id="tspan410"
           y="0"
           x="0 10.176 15.264 25.440001 30.528">5.0 K</tspan></text>
<path
         id="path414"
         style="fill:none;stroke:#9467bd;stroke-width:1.5;stroke-linecap:square;stroke-linejoin:round;stroke-miterlimit:10;stroke-dasharray:none;stroke-opacity:1"
         d="m 677.3375,455.34625 h 32" /><text
         id="text418"
         style="font-variant:normal;font-weight:normal;font-size:16px;font-family:'DejaVu Sans';-inkscape-font-specification:DejaVuSans;writing-mode:lr-tb;fill:#000000;fill-opacity:1;fill-rule:nonzero;stroke:none"
         transform="matrix(1,0,0,-1,722.1375,449.74625)"><tspan
           id="tspan416"
           y="0"
           x="0 10.176 15.264 25.440001 30.528">6.0 K</tspan></text>
</g></g></svg>