<?xml version="1.0" encoding="UTF-8" standalone="no"?>
<svg
   xmlns:dc="http://purl.org/dc/elements/1.1/"
   xmlns:cc="http://creativecommons.org/ns#"
   xmlns:rdf="http://www.w3.org/1999/02/22-rdf-syntax-ns#"
   xmlns:svg="http://www.w3.org/2000/svg"
   xmlns="http://www.w3.org/2000/svg"
   viewBox="0 0 1536 1152"
   height="1152"
   width="1536"
   xml:space="preserve"
   id="svg2"
   version="1.1"><metadata
     id="metadata8"><rdf:RDF><cc:Work
         rdf:about=""><dc:format>image/svg+xml</dc:format><dc:type
           rdf:resource="http://purl.org/dc/dcmitype/StillImage" /></cc:Work></rdf:RDF></metadata><defs
     id="defs6"><clipPath
       id="clipPath22"
       clipPathUnits="userSpaceOnUse"><path
         id="path20"
         d="m 144,108 h 892.8 V 760.32 H 144 Z" /></clipPath><clipPath
       id="clipPath44"
       clipPathUnits="userSpaceOnUse"><path
         id="path42"
         d="M -1021,-463 H 1794 V 1233 H -1021 Z" /></clipPath><clipPath
       id="clipPath54"
       clipPathUnits="userSpaceOnUse"><path
         id="path52"
         d="m 144,108 h 892.8 V 760.32 H 144 Z" /></clipPath><clipPath
       id="clipPath76"
       clipPathUnits="userSpaceOnUse"><path
         id="path74"
         d="M -1021,-463 H 1794 V 1233 H -1021 Z" /></clipPath><clipPath
       id="clipPath86"
       clipPathUnits="userSpaceOnUse"><path
         id="path84"
         d="m 144,108 h 892.8 V 760.32 H 144 Z" /></clipPath><clipPath
       id="clipPath108"
       clipPathUnits="userSpaceOnUse"><path
         id="path106"
         d="M -1021,-463 H 1794 V 1233 H -1021 Z" /></clipPath><clipPath
       id="clipPath118"
       clipPathUnits="userSpaceOnUse"><path
         id="path116"
         d="m 144,108 h 892.8 V 760.32 H 144 Z" /></clipPath><clipPath
       id="clipPath140"
       clipPathUnits="userSpaceOnUse"><path
         id="path138"
         d="M -1021,-463 H 1794 V 1233 H -1021 Z" /></clipPath><clipPath
       id="clipPath150"
       clipPathUnits="userSpaceOnUse"><path
         id="path148"
         d="m 144,108 h 892.8 V 760.32 H 144 Z" /></clipPath><clipPath
       id="clipPath168"
       clipPathUnits="userSpaceOnUse"><path
         id="path166"
         d="m 144,108 h 892.8 V 760.32 H 144 Z" /></clipPath><clipPath
       id="clipPath186"
       clipPathUnits="userSpaceOnUse"><path
         id="path184"
         d="m 144,108 h 892.8 V 760.32 H 144 Z" /></clipPath><clipPath
       id="clipPath204"
       clipPathUnits="userSpaceOnUse"><path
         id="path202"
         d="m 144,108 h 892.8 V 760.32 H 144 Z" /></clipPath><clipPath
       id="clipPath222"
       clipPathUnits="userSpaceOnUse"><path
         id="path220"
         d="m 144,108 h 892.8 V 760.32 H 144 Z" /></clipPath><clipPath
       id="clipPath244"
       clipPathUnits="userSpaceOnUse"><path
         id="path242"
         d="m 144,108 h 892.8 V 760.32 H 144 Z" /></clipPath><clipPath
       id="clipPath266"
       clipPathUnits="userSpaceOnUse"><path
         id="path264"
         d="M -1021,-463 H 1794 V 1233 H -1021 Z" /></clipPath><clipPath
       id="clipPath276"
       clipPathUnits="userSpaceOnUse"><path
         id="path274"
         d="m 144,108 h 892.8 V 760.32 H 144 Z" /></clipPath><clipPath
       id="clipPath298"
       clipPathUnits="userSpaceOnUse"><path
         id="path296"
         d="M -1021,-463 H 1794 V 1233 H -1021 Z" /></clipPath><clipPath
       id="clipPath308"
       clipPathUnits="userSpaceOnUse"><path
         id="path306"
         d="m 144,108 h 892.8 V 760.32 H 144 Z" /></clipPath><clipPath
       id="clipPath326"
       clipPathUnits="userSpaceOnUse"><path
         id="path324"
         d="m 144,108 h 892.8 V 760.32 H 144 Z" /></clipPath><clipPath
       id="clipPath344"
       clipPathUnits="userSpaceOnUse"><path
         id="path342"
         d="m 144,108 h 892.8 V 760.32 H 144 Z" /></clipPath><clipPath
       id="clipPath370"
       clipPathUnits="userSpaceOnUse"><path
         id="path368"
         d="M -1021,-463 H 1794 V 1233 H -1021 Z" /></clipPath><clipPath
       id="clipPath380"
       clipPathUnits="userSpaceOnUse"><path
         id="path378"
         d="m 144,108 h 892.8 V 760.32 H 144 Z" /></clipPath><clipPath
       id="clipPath420"
       clipPathUnits="userSpaceOnUse"><path
         id="path418"
         d="M -1016,-351 H 1660 V 1068 H -1016 Z" /></clipPath></defs><g
     transform="matrix(1.3333333,0,0,-1.3333333,0,1152)"
     id="g10"><path
       id="path12"
       style="fill:#ffffff;fill-opacity:1;fill-rule:nonzero;stroke:none"
       d="M 0,0 H 1152 V 864 H 0 Z" /><path
       id="path14"
       style="fill:#ffffff;fill-opacity:1;fill-rule:nonzero;stroke:none"
       d="m 144,108 h 892.8 V 760.32 H 144 Z" /><g
       id="g16"><g
         clip-path="url(#clipPath22)"
         id="g18"><path
           id="path24"
           style="fill:none;stroke:#b0b0b0;stroke-width:0.80000001;stroke-linecap:square;stroke-linejoin:round;stroke-miterlimit:10;stroke-dasharray:none;stroke-opacity:1"
           d="M 184.58182,108 V 760.32" /></g></g><g
       id="g26"><path
         id="path28"
         style="fill:#000000;fill-opacity:1;fill-rule:nonzero;stroke:#000000;stroke-width:0.80000001;stroke-linecap:butt;stroke-linejoin:round;stroke-miterlimit:10;stroke-dasharray:none;stroke-opacity:1"
         d="m 184.58182,108 v -3.5" /><g
         transform="translate(172.78494,88.84375)"
         id="g30"><text
           id="text34"
           style="font-variant:normal;font-weight:normal;font-size:16px;font-family:'DejaVu Sans';-inkscape-font-specification:DejaVuSans;writing-mode:lr-tb;fill:#000000;fill-opacity:1;fill-rule:nonzero;stroke:none"
           transform="matrix(1,0,0,-1,13.40625,0)"><tspan
             id="tspan32"
             y="0"
             x="0">8</tspan></text>
<g
           transform="scale(0.016)"
           id="g36"><g
             id="g38"><g
               clip-path="url(#clipPath44)"
               id="g40"><path
                 id="path46"
                 style="fill:#000000;fill-opacity:1;fill-rule:nonzero;stroke:none"
                 d="M 106,355 H 732 V 272 H 106 v 83" /></g></g></g></g></g><g
       id="g48"><g
         clip-path="url(#clipPath54)"
         id="g50"><path
           id="path56"
           style="fill:none;stroke:#b0b0b0;stroke-width:0.80000001;stroke-linecap:square;stroke-linejoin:round;stroke-miterlimit:10;stroke-dasharray:none;stroke-opacity:1"
           d="M 286.03636,108 V 760.32" /></g></g><g
       id="g58"><path
         id="path60"
         style="fill:#000000;fill-opacity:1;fill-rule:nonzero;stroke:#000000;stroke-width:0.80000001;stroke-linecap:butt;stroke-linejoin:round;stroke-miterlimit:10;stroke-dasharray:none;stroke-opacity:1"
         d="m 286.03636,108 v -3.5" /><g
         transform="translate(274.23949,88.84375)"
         id="g62"><text
           id="text66"
           style="font-variant:normal;font-weight:normal;font-size:16px;font-family:'DejaVu Sans';-inkscape-font-specification:DejaVuSans;writing-mode:lr-tb;fill:#000000;fill-opacity:1;fill-rule:nonzero;stroke:none"
           transform="matrix(1,0,0,-1,13.40625,0)"><tspan
             id="tspan64"
             y="0"
             x="0">6</tspan></text>
<g
           transform="scale(0.016)"
           id="g68"><g
             id="g70"><g
               clip-path="url(#clipPath76)"
               id="g72"><path
                 id="path78"
                 style="fill:#000000;fill-opacity:1;fill-rule:nonzero;stroke:none"
                 d="M 106,355 H 732 V 272 H 106 v 83" /></g></g></g></g></g><g
       id="g80"><g
         clip-path="url(#clipPath86)"
         id="g82"><path
           id="path88"
           style="fill:none;stroke:#b0b0b0;stroke-width:0.80000001;stroke-linecap:square;stroke-linejoin:round;stroke-miterlimit:10;stroke-dasharray:none;stroke-opacity:1"
           d="M 387.49091,108 V 760.32" /></g></g><g
       id="g90"><path
         id="path92"
         style="fill:#000000;fill-opacity:1;fill-rule:nonzero;stroke:#000000;stroke-width:0.80000001;stroke-linecap:butt;stroke-linejoin:round;stroke-miterlimit:10;stroke-dasharray:none;stroke-opacity:1"
         d="m 387.49091,108 v -3.5" /><g
         transform="translate(375.69403,88.84375)"
         id="g94"><text
           id="text98"
           style="font-variant:normal;font-weight:normal;font-size:16px;font-family:'DejaVu Sans';-inkscape-font-specification:DejaVuSans;writing-mode:lr-tb;fill:#000000;fill-opacity:1;fill-rule:nonzero;stroke:none"
           transform="matrix(1,0,0,-1,13.40625,0)"><tspan
             id="tspan96"
             y="0"
             x="0">4</tspan></text>
<g
           transform="scale(0.016)"
           id="g100"><g
             id="g102"><g
               clip-path="url(#clipPath108)"
               id="g104"><path
                 id="path110"
                 style="fill:#000000;fill-opacity:1;fill-rule:nonzero;stroke:none"
                 d="M 106,355 H 732 V 272 H 106 v 83" /></g></g></g></g></g><g
       id="g112"><g
         clip-path="url(#clipPath118)"
         id="g114"><path
           id="path120"
           style="fill:none;stroke:#b0b0b0;stroke-width:0.80000001;stroke-linecap:square;stroke-linejoin:round;stroke-miterlimit:10;stroke-dasharray:none;stroke-opacity:1"
           d="M 488.94545,108 V 760.32" /></g></g><g
       id="g122"><path
         id="path124"
         style="fill:#000000;fill-opacity:1;fill-rule:nonzero;stroke:#000000;stroke-width:0.80000001;stroke-linecap:butt;stroke-linejoin:round;stroke-miterlimit:10;stroke-dasharray:none;stroke-opacity:1"
         d="m 488.94545,108 v -3.5" /><g
         transform="translate(477.14858,88.84375)"
         id="g126"><text
           id="text130"
           style="font-variant:normal;font-weight:normal;font-size:16px;font-family:'DejaVu Sans';-inkscape-font-specification:DejaVuSans;writing-mode:lr-tb;fill:#000000;fill-opacity:1;fill-rule:nonzero;stroke:none"
           transform="matrix(1,0,0,-1,13.40625,0)"><tspan
             id="tspan128"
             y="0"
             x="0">2</tspan></text>
<g
           transform="scale(0.016)"
           id="g132"><g
             id="g134"><g
               clip-path="url(#clipPath140)"
               id="g136"><path
                 id="path142"
                 style="fill:#000000;fill-opacity:1;fill-rule:nonzero;stroke:none"
                 d="M 106,355 H 732 V 272 H 106 v 83" /></g></g></g></g></g><g
       id="g144"><g
         clip-path="url(#clipPath150)"
         id="g146"><path
           id="path152"
           style="fill:none;stroke:#b0b0b0;stroke-width:0.80000001;stroke-linecap:square;stroke-linejoin:round;stroke-miterlimit:10;stroke-dasharray:none;stroke-opacity:1"
           d="M 590.4,108 V 760.32" /></g></g><g
       id="g154"><path
         id="path156"
         style="fill:#000000;fill-opacity:1;fill-rule:nonzero;stroke:#000000;stroke-width:0.80000001;stroke-linecap:butt;stroke-linejoin:round;stroke-miterlimit:10;stroke-dasharray:none;stroke-opacity:1"
         d="m 590.4,108 v -3.5" /><text
         id="text160"
         style="font-variant:normal;font-weight:normal;font-size:16px;font-family:'DejaVu Sans';-inkscape-font-specification:DejaVuSans;writing-mode:lr-tb;fill:#000000;fill-opacity:1;fill-rule:nonzero;stroke:none"
         transform="matrix(1,0,0,-1,585.30625,88.84375)"><tspan
           id="tspan158"
           y="0"
           x="0">0</tspan></text>
</g><g
       id="g162"><g
         clip-path="url(#clipPath168)"
         id="g164"><path
           id="path170"
           style="fill:none;stroke:#b0b0b0;stroke-width:0.80000001;stroke-linecap:square;stroke-linejoin:round;stroke-miterlimit:10;stroke-dasharray:none;stroke-opacity:1"
           d="M 691.85454,108 V 760.32" /></g></g><g
       id="g172"><path
         id="path174"
         style="fill:#000000;fill-opacity:1;fill-rule:nonzero;stroke:#000000;stroke-width:0.80000001;stroke-linecap:butt;stroke-linejoin:round;stroke-miterlimit:10;stroke-dasharray:none;stroke-opacity:1"
         d="m 691.85454,108 v -3.5" /><text
         id="text178"
         style="font-variant:normal;font-weight:normal;font-size:16px;font-family:'DejaVu Sans';-inkscape-font-specification:DejaVuSans;writing-mode:lr-tb;fill:#000000;fill-opacity:1;fill-rule:nonzero;stroke:none"
         transform="matrix(1,0,0,-1,686.7608,88.84375)"><tspan
           id="tspan176"
           y="0"
           x="0">2</tspan></text>
</g><g
       id="g180"><g
         clip-path="url(#clipPath186)"
         id="g182"><path
           id="path188"
           style="fill:none;stroke:#b0b0b0;stroke-width:0.80000001;stroke-linecap:square;stroke-linejoin:round;stroke-miterlimit:10;stroke-dasharray:none;stroke-opacity:1"
           d="M 793.30909,108 V 760.32" /></g></g><g
       id="g190"><path
         id="path192"
         style="fill:#000000;fill-opacity:1;fill-rule:nonzero;stroke:#000000;stroke-width:0.80000001;stroke-linecap:butt;stroke-linejoin:round;stroke-miterlimit:10;stroke-dasharray:none;stroke-opacity:1"
         d="m 793.30909,108 v -3.5" /><text
         id="text196"
         style="font-variant:normal;font-weight:normal;font-size:16px;font-family:'DejaVu Sans';-inkscape-font-specification:DejaVuSans;writing-mode:lr-tb;fill:#000000;fill-opacity:1;fill-rule:nonzero;stroke:none"
         transform="matrix(1,0,0,-1,788.21534,88.84375)"><tspan
           id="tspan194"
           y="0"
           x="0">4</tspan></text>
</g><g
       id="g198"><g
         clip-path="url(#clipPath204)"
         id="g200"><path
           id="path206"
           style="fill:none;stroke:#b0b0b0;stroke-width:0.80000001;stroke-linecap:square;stroke-linejoin:round;stroke-miterlimit:10;stroke-dasharray:none;stroke-opacity:1"
           d="M 894.76364,108 V 760.32" /></g></g><g
       id="g208"><path
         id="path210"
         style="fill:#000000;fill-opacity:1;fill-rule:nonzero;stroke:#000000;stroke-width:0.80000001;stroke-linecap:butt;stroke-linejoin:round;stroke-miterlimit:10;stroke-dasharray:none;stroke-opacity:1"
         d="m 894.76364,108 v -3.5" /><text
         id="text214"
         style="font-variant:normal;font-weight:normal;font-size:16px;font-family:'DejaVu Sans';-inkscape-font-specification:DejaVuSans;writing-mode:lr-tb;fill:#000000;fill-opacity:1;fill-rule:nonzero;stroke:none"
         transform="matrix(1,0,0,-1,889.66989,88.84375)"><tspan
           id="tspan212"
           y="0"
           x="0">6</tspan></text>
</g><g
       id="g216"><g
         clip-path="url(#clipPath222)"
         id="g218"><path
           id="path224"
           style="fill:none;stroke:#b0b0b0;stroke-width:0.80000001;stroke-linecap:square;stroke-linejoin:round;stroke-miterlimit:10;stroke-dasharray:none;stroke-opacity:1"
           d="M 996.21818,108 V 760.32" /></g></g><g
       id="g226"><path
         id="path228"
         style="fill:#000000;fill-opacity:1;fill-rule:nonzero;stroke:#000000;stroke-width:0.80000001;stroke-linecap:butt;stroke-linejoin:round;stroke-miterlimit:10;stroke-dasharray:none;stroke-opacity:1"
         d="m 996.21818,108 v -3.5" /><text
         id="text232"
         style="font-variant:normal;font-weight:normal;font-size:16px;font-family:'DejaVu Sans';-inkscape-font-specification:DejaVuSans;writing-mode:lr-tb;fill:#000000;fill-opacity:1;fill-rule:nonzero;stroke:none"
         transform="matrix(1,0,0,-1,991.12443,88.84375)"><tspan
           id="tspan230"
           y="0"
           x="0">8</tspan></text>
<text
         id="text236"
         style="font-variant:normal;font-weight:normal;font-size:22px;font-family:'DejaVu Sans';-inkscape-font-specification:DejaVuSans;writing-mode:lr-tb;fill:#000000;fill-opacity:1;fill-rule:nonzero;stroke:none"
         transform="matrix(1,0,0,-1,550.50156,64.796875)"><tspan
           id="tspan234"
           y="0"
           x="0 12.65 18.766001 32.296001 38.411999 52.382 59.377998 66.374001">Field, T</tspan></text>
</g><g
       id="g238"><g
         clip-path="url(#clipPath244)"
         id="g240"><path
           id="path246"
           style="fill:none;stroke:#b0b0b0;stroke-width:0.80000001;stroke-linecap:square;stroke-linejoin:round;stroke-miterlimit:10;stroke-dasharray:none;stroke-opacity:1"
           d="m 144,165.09027 h 892.8" /></g></g><g
       id="g248"><path
         id="path250"
         style="fill:#000000;fill-opacity:1;fill-rule:nonzero;stroke:#000000;stroke-width:0.80000001;stroke-linecap:butt;stroke-linejoin:round;stroke-miterlimit:10;stroke-dasharray:none;stroke-opacity:1"
         d="m 144,165.09027 h -3.5" /><g
         transform="translate(67.5625,159.01215)"
         id="g252"><text
           id="text256"
           style="font-variant:normal;font-weight:normal;font-size:16px;font-family:'DejaVu Sans';-inkscape-font-specification:DejaVuSans;writing-mode:lr-tb;fill:#000000;fill-opacity:1;fill-rule:nonzero;stroke:none"
           transform="matrix(1,0,0,-1,13.40625,0)"><tspan
             id="tspan254"
             y="0"
             x="0 10.176 15.264 25.440001 35.616001 45.792">0.0010</tspan></text>
<g
           transform="scale(0.016)"
           id="g258"><g
             id="g260"><g
               clip-path="url(#clipPath266)"
               id="g262"><path
                 id="path268"
                 style="fill:#000000;fill-opacity:1;fill-rule:nonzero;stroke:none"
                 d="M 106,355 H 732 V 272 H 106 v 83" /></g></g></g></g></g><g
       id="g270"><g
         clip-path="url(#clipPath276)"
         id="g272"><path
           id="path278"
           style="fill:none;stroke:#b0b0b0;stroke-width:0.80000001;stroke-linecap:square;stroke-linejoin:round;stroke-miterlimit:10;stroke-dasharray:none;stroke-opacity:1"
           d="m 144,299.62514 h 892.8" /></g></g><g
       id="g280"><path
         id="path282"
         style="fill:#000000;fill-opacity:1;fill-rule:nonzero;stroke:#000000;stroke-width:0.80000001;stroke-linecap:butt;stroke-linejoin:round;stroke-miterlimit:10;stroke-dasharray:none;stroke-opacity:1"
         d="m 144,299.62514 h -3.5" /><g
         transform="translate(67.5625,293.54701)"
         id="g284"><text
           id="text288"
           style="font-variant:normal;font-weight:normal;font-size:16px;font-family:'DejaVu Sans';-inkscape-font-specification:DejaVuSans;writing-mode:lr-tb;fill:#000000;fill-opacity:1;fill-rule:nonzero;stroke:none"
           transform="matrix(1,0,0,-1,13.40625,0)"><tspan
             id="tspan286"
             y="0"
             x="0 10.176 15.264 25.440001 35.616001 45.792">0.0005</tspan></text>
<g
           transform="scale(0.016)"
           id="g290"><g
             id="g292"><g
               clip-path="url(#clipPath298)"
               id="g294"><path
                 id="path300"
                 style="fill:#000000;fill-opacity:1;fill-rule:nonzero;stroke:none"
                 d="M 106,355 H 732 V 272 H 106 v 83" /></g></g></g></g></g><g
       id="g302"><g
         clip-path="url(#clipPath308)"
         id="g304"><path
           id="path310"
           style="fill:none;stroke:#b0b0b0;stroke-width:0.80000001;stroke-linecap:square;stroke-linejoin:round;stroke-miterlimit:10;stroke-dasharray:none;stroke-opacity:1"
           d="m 144,434.16 h 892.8" /></g></g><g
       id="g312"><path
         id="path314"
         style="fill:#000000;fill-opacity:1;fill-rule:nonzero;stroke:#000000;stroke-width:0.80000001;stroke-linecap:butt;stroke-linejoin:round;stroke-miterlimit:10;stroke-dasharray:none;stroke-opacity:1"
         d="m 144,434.16 h -3.5" /><text
         id="text318"
         style="font-variant:normal;font-weight:normal;font-size:16px;font-family:'DejaVu Sans';-inkscape-font-specification:DejaVuSans;writing-mode:lr-tb;fill:#000000;fill-opacity:1;fill-rule:nonzero;stroke:none"
         transform="matrix(1,0,0,-1,80.96875,428.08187)"><tspan
           id="tspan316"
           y="0"
           x="0 10.176 15.264 25.440001 35.616001 45.792">0.0000</tspan></text>
</g><g
       id="g320"><g
         clip-path="url(#clipPath326)"
         id="g322"><path
           id="path328"
           style="fill:none;stroke:#b0b0b0;stroke-width:0.80000001;stroke-linecap:square;stroke-linejoin:round;stroke-miterlimit:10;stroke-dasharray:none;stroke-opacity:1"
           d="m 144,568.69486 h 892.8" /></g></g><g
       id="g330"><path
         id="path332"
         style="fill:#000000;fill-opacity:1;fill-rule:nonzero;stroke:#000000;stroke-width:0.80000001;stroke-linecap:butt;stroke-linejoin:round;stroke-miterlimit:10;stroke-dasharray:none;stroke-opacity:1"
         d="m 144,568.69486 h -3.5" /><text
         id="text336"
         style="font-variant:normal;font-weight:normal;font-size:16px;font-family:'DejaVu Sans';-inkscape-font-specification:DejaVuSans;writing-mode:lr-tb;fill:#000000;fill-opacity:1;fill-rule:nonzero;stroke:none"
         transform="matrix(1,0,0,-1,80.96875,562.61674)"><tspan
           id="tspan334"
           y="0"
           x="0 10.176 15.264 25.440001 35.616001 45.792">0.0005</tspan></text>
</g><g
       id="g338"><g
         clip-path="url(#clipPath344)"
         id="g340"><path
           id="path346"
           style="fill:none;stroke:#b0b0b0;stroke-width:0.80000001;stroke-linecap:square;stroke-linejoin:round;stroke-miterlimit:10;stroke-dasharray:none;stroke-opacity:1"
           d="m 144,703.22973 h 892.8" /></g></g><g
       id="g348"><path
         id="path350"
         style="fill:#000000;fill-opacity:1;fill-rule:nonzero;stroke:#000000;stroke-width:0.80000001;stroke-linecap:butt;stroke-linejoin:round;stroke-miterlimit:10;stroke-dasharray:none;stroke-opacity:1"
         d="m 144,703.22973 h -3.5" /><text
         id="text354"
         style="font-variant:normal;font-weight:normal;font-size:16px;font-family:'DejaVu Sans';-inkscape-font-specification:DejaVuSans;writing-mode:lr-tb;fill:#000000;fill-opacity:1;fill-rule:nonzero;stroke:none"
         transform="matrix(1,0,0,-1,80.96875,697.1516)"><tspan
           id="tspan352"
           y="0"
           x="0 10.176 15.264 25.440001 35.616001 45.792">0.0010</tspan></text>
<g
         transform="rotate(90,-87.04875,145.61125)"
         id="g356"><text
           id="text360"
           style="font-variant:normal;font-weight:normal;font-size:22px;font-family:'DejaVu Sans';-inkscape-font-specification:DejaVuSans;writing-mode:lr-tb;fill:#000000;fill-opacity:1;fill-rule:nonzero;stroke:none"
           transform="matrix(1,0,0,-1,0,0.28125)"><tspan
             id="tspan358"
             y="0"
             x="0 13.438477 27.381836 40.916992 49.961914 71.392578 84.874023 90.986328 97.979492 114.52246 128.00391 134.11621 140.22852 147.22168 162.58301 176.04297 189.98633 203.95117 217.89453 229.99023 238.61621 244.72852 257.74805 263.86035 272.48633 285.50586 292.49902 299.49219 321.24512 328.65723 337.24023 358.6709 379.65039 394.07715">Thermal Hall Conductivity, W/(m K)</tspan></text>
<g
           transform="matrix(0.022,0,0,0.022,365.66406,0.28125)"
           id="g362"><g
             id="g364"><g
               clip-path="url(#clipPath370)"
               id="g366"><path
                 id="path372"
                 style="fill:#000000;fill-opacity:1;fill-rule:nonzero;stroke:none"
                 d="M 107,409 H 210 V 285 H 107 v 124" /></g></g></g></g></g><g
       id="g374"><g
         clip-path="url(#clipPath380)"
         id="g376"><path
           id="path382"
           style="fill:none;stroke:#1f77b4;stroke-width:1.5;stroke-linecap:square;stroke-linejoin:round;stroke-miterlimit:10;stroke-dasharray:none;stroke-opacity:1"
           d="m 184.58182,439.29795 1.01454,-23.07641 1.01455,-20.07915 1.01454,-17.23096 1.01455,-14.52784 1.01454,-11.96604 1.01455,-9.54207 1.01455,-7.25264 1.01454,-5.09473 1.01455,-3.06552 1.01454,-1.16235 1.01455,0.61717 1.01454,2.27531 1.01455,3.81413 1.01454,5.23557 1.01455,6.54135 1.01454,7.73309 2.0291,18.5924 2.02909,22.02485 2.02909,24.58906 3.04363,39.82491 5.07273,67.2189 2.02909,24.75549 1.01455,5.09064 1.01454,1.96196 1.01455,1.40839 1.01454,1.98685 1.01455,1.58555 1.01454,0.49015 1.01455,-0.71855 1.01455,-2.7903 1.01454,-5.34462 1.01455,-6.74326 2.02909,-16.77007 3.04363,-28.91384 2.02909,-18.70338 3.04364,-23.54033 4.05818,-27.97069 2.02909,-14.47442 2.02909,-16.58864 4.05819,-34.00842 2.02909,-19.08323 1.01454,-10.69324 1.01455,-9.50449 1.01454,-7.67408 1.01455,-5.47241 1.01455,-2.81926 1.01454,0.23397 1.01455,1.4844 1.01454,2.78361 1.01455,4.13166 1.01454,6.33347 1.01455,8.45777 4.05818,41.9602 1.01454,8.61144 2.0291,14.0502 1.01454,6.27562 1.01455,5.06546 1.01454,2.64327 1.01455,0.47942 1.01454,-1.57839 1.01455,-3.91101 2.02909,-9.30562 2.02909,-11.05549 2.02909,-12.43764 2.02909,-13.07696 1.01455,-5.53291 3.04363,-13.86886 2.02909,-7.56861 1.01455,-2.76538 1.01455,-0.77698 1.01454,1.04613 1.01455,2.84734 1.01454,4.13322 1.01455,3.56532 1.01454,3.02743 3.04364,7.26176 2.02909,4.40697 1.01455,1.08533 1.01454,-0.87058 1.01455,-2.48925 1.01454,-3.88981 3.04364,-14.34437 2.02909,-8.12277 3.04364,-11.52717 1.01454,-3.60738 1.01455,-2.81786 1.01454,-1.63953 1.01455,-0.3375 1.01454,0.24814 1.01455,0.69733 1.01454,1.14423 1.01455,1.58872 1.01454,2.13875 1.01455,2.5941 1.01455,3.0471 1.01454,3.53575 1.01455,2.97404 1.01454,2.25859 1.01455,1.29482 1.01454,1.01657 1.01455,0.58838 1.01454,-0.19882 1.01455,-1.03932 1.01454,-1.48348 1.01455,-1.69066 1.01455,-1.98483 1.01454,-2.2808 1.01455,-1.17036 1.01454,0.17468 1.01455,1.99195 1.01454,3.7754 2.02909,8.97166 2.02909,10.59895 2.0291,11.69263 2.02909,13.33641 2.02909,14.86963 4.05818,32.13809 2.02909,17.1171 1.01455,7.15341 1.01454,5.6977 1.01455,2.5916 1.01454,0.87615 1.01455,-0.37876 1.01454,-1.64463 1.01455,-3.12502 1.01454,-4.90014 1.01455,-6.44856 1.01454,-8.80177 3.04364,-31.84686 1.01455,-9.323 2.02909,-15.50128 2.02909,-13.88579 2.02909,-12.51244 3.04364,-16.61706 2.02909,-10.65209 3.04363,-16.41317 2.02909,-9.56501 2.02909,-8.11583 2.0291,-6.4712 2.02909,-5.23138 1.01454,-2.21263 1.01455,-1.65066 1.01454,-0.9118 1.01455,-0.17119 1.01454,0.58563 1.01455,0.84719 1.01454,1.86996 1.01455,2.94332 1.01455,3.98014 5.07272,23.79728 4.05819,19.6835 1.01454,4.2397 2.02909,6.97647 1.01455,2.88524 1.01454,2.5325 1.01455,2.14433 1.01454,1.73527 1.01455,1.04214 1.01454,-0.54412 1.01455,-2.38731 1.01454,-4.28638 1.01455,-6.30612 3.04364,-25.14014 3.04363,-28.01539 3.04364,-29.66024 2.02909,-17.33941 5.07273,-41.1639 2.02909,-15.26914 2.02909,-13.54139 1.01454,-5.68678 1.01455,-4.8044 1.01455,-4.02802 1.01454,-3.11483 1.01455,-2.02862 1.01454,-0.77161 1.01455,0.54713 1.01454,2.6888 1.01455,4.65763 1.01454,6.32207 1.01455,7.75327 1.01454,9.04488 2.0291,21.68893 2.02909,24.37683 3.04363,39.66816 2.02909,30.80976 3.04364,48.166 2.02909,28.22973 2.02909,26.6721 1.01455,11.60301 1.01454,9.84931 1.01455,8.04234 1.01454,5.83682 1.01455,4.47749 1.01454,3.10664 1.01455,1.58979 1.01455,-0.19143 1.01454,-3.58471 1.01455,-6.7854 1.01454,-9.66117 3.04364,-35.21152 2.02909,-19.65819 2.02909,-16.53445 6.08727,-48.47889 4.05818,-34.88338 1.01455,-7.50851 1.01455,-6.55032 1.01454,-5.38247 1.01455,-4.1899 1.01454,-2.99865 1.01455,-1.77583 1.01454,-0.51693 1.01455,0.63221 1.01454,1.72244 1.01455,3.08044 1.01455,4.2477 1.01454,5.50299 1.01455,6.73522 1.01454,7.9552 1.01455,9.0936 1.01454,10.29254 3.04364,33.18258 1.01454,8.07609 1.01455,5.69498 2.02909,7.32749 1.01455,4.4496 1.01454,5.1222 1.01455,5.76349 1.01454,7.07111 1.01455,6.26012 1.01454,4.67502 1.01455,3.96588 1.01455,4.73889 1.01454,5.42653 1.01455,6.6392 3.04363,26.77225 1.01455,6.08827 1.01454,5.33925 1.01455,4.47187 1.01454,3.49297 1.01455,2.82562 1.01454,1.70753 1.01455,0.50132 1.01455,-0.78553 1.01454,-1.91738 1.01455,-0.77469 1.01454,0.72037 1.01455,2.55001 4.05818,18.50717 1.01454,3.74993 1.01455,3.24827 1.01454,2.65889 2.0291,4.40587 4.05818,7.72361 1.01454,2.16061 1.01455,2.42718 2.02909,5.81035 2.02909,5.82613 1.01455,2.40207 1.01454,1.9955 1.01455,1.5361 1.01454,1.02388 1.01455,0.45639 1.01454,0.007 1.01455,-0.35378 1.01454,-0.90399 1.01455,-1.13192 1.01454,0.0776 1.01455,0.22641 1.01455,-0.56162 1.01454,-1.49707 1.01455,-4.13972 1.01454,-8.50989 3.04364,-34.2726 1.01454,-9.0209 2.02909,-14.41708 1.01455,-9.0209 2.02909,-22.5365 1.01455,-11.7361 1.01454,-8.50989 1.01455,-4.13972 1.01454,-1.49707 1.01455,-0.56162 1.01454,0.22641 1.01455,0.0776 1.01455,-1.13192 1.01454,-0.90399 1.01455,-0.35378 1.01454,0.007 1.01455,0.4564 1.01454,1.02388 1.01455,1.5361 1.01454,1.9955 1.01455,2.40207 2.02909,5.82613 2.02909,5.81035 2.02909,4.58779 3.04364,5.84956 2.02909,3.94254 1.01454,2.33738 1.01455,2.65888 1.01454,3.24828 1.01455,3.74993 2.02909,8.82237 2.02909,9.6848 1.01455,2.55001 1.01454,0.72037 1.01455,-0.77469 1.01454,-1.91738 1.01455,-0.78553 1.01454,0.50132 1.01455,1.70753 1.01455,2.82562 1.01454,3.49297 1.01455,4.47187 1.01454,5.33925 1.01455,6.08827 1.01454,8.39898 2.0291,18.37327 1.01454,6.6392 1.01455,5.42653 1.01454,4.73889 1.01455,3.96588 1.01454,4.67501 1.01455,6.26013 1.01454,7.07111 1.01455,5.76349 1.01454,5.12219 1.01455,4.44961 2.02909,7.32749 1.01454,5.69498 1.01455,8.07609 1.01455,10.23245 3.04363,33.24268 1.01455,9.09359 1.01454,7.95519 1.01455,6.73522 1.01454,5.503 1.01455,4.24769 1.01454,3.08045 1.01455,1.72244 1.01455,0.63221 1.01454,-0.51693 1.01455,-1.77583 1.01454,-2.99865 1.01455,-4.1899 1.01454,-5.38248 1.01455,-6.55031 2.02909,-15.64223 5.07273,-43.62121 6.08727,-48.14179 2.02909,-19.65819 2.02909,-23.05499 1.01455,-12.15653 1.01454,-9.66117 1.01455,-6.7854 1.01454,-3.58471 1.01455,-0.19143 1.01454,1.58979 1.01455,3.10664 1.01454,4.47749 1.01455,5.83682 1.01455,8.04234 1.01454,9.84931 1.01455,11.603 4.05818,54.90184 5.07273,78.97575 3.04363,39.66817 2.02909,24.37683 2.02909,21.68892 1.01455,9.04489 1.01454,7.75327 1.01455,6.32207 1.01455,4.65763 1.01454,2.6888 1.01455,0.54713 1.01454,-0.77161 1.01455,-2.02862 1.01454,-3.11483 1.01455,-4.02802 1.01454,-4.8044 1.01455,-5.68678 2.02909,-13.54139 2.02909,-15.26915 4.05818,-32.80301 3.04364,-25.70029 2.02909,-19.70394 3.04364,-28.93461 2.02909,-17.53078 2.02909,-16.64644 1.01455,-6.30612 1.01454,-4.28638 1.01454,-2.38731 1.01455,-0.54412 1.01455,1.04214 1.01454,1.73527 1.01455,2.14433 1.01454,2.5325 1.01455,2.88524 2.02909,6.97647 2.02909,8.81451 4.05818,19.9924 3.04364,14.2343 1.01454,4.67927 1.01455,3.98014 1.01454,2.94332 1.01455,1.86996 1.01454,0.84719 1.01455,0.58563 1.01455,-0.17119 1.01454,-0.9118 1.01455,-1.65065 1.01454,-2.21264 2.02909,-5.23138 2.02909,-6.4712 2.0291,-8.11583 2.02909,-9.56501 2.02909,-10.73288 2.02909,-11.08936 3.04363,-16.12059 2.02909,-11.79847 2.0291,-13.24989 2.02909,-14.42313 1.01454,-8.16751 2.02909,-19.57156 2.0291,-21.5983 1.01454,-8.80177 1.01455,-6.44856 1.01454,-4.90014 1.01455,-3.12502 1.01454,-1.64463 1.01455,-0.37876 1.01454,0.87615 1.01455,2.5916 1.01454,5.6977 1.01455,7.15341 7.10182,56.85297 2.02909,14.1437 2.02909,12.38227 2.02909,11.30686 2.02909,9.72945 1.01455,4.30922 1.01454,3.7754 1.01455,1.99195 1.01454,0.17468 1.01455,-1.17036 1.01454,-2.28081 1.01455,-1.98482 2.02909,-3.17415 1.01455,-1.03931 1.01454,-0.19882 1.01455,0.58838 1.01454,1.01657 1.01455,1.29482 1.01454,2.25859 1.01455,2.97404 1.01454,3.53575 1.01455,3.0471 1.01454,2.5941 1.01455,2.13875 1.01454,1.58872 1.01455,1.14423 1.01455,0.69733 1.01454,0.24814 1.01455,-0.3375 1.01454,-1.63953 1.01455,-2.81786 3.04363,-11.21714 3.04364,-12.04018 2.02909,-9.49665 1.01455,-4.84772 1.01454,-3.88981 1.01455,-2.48925 1.01454,-0.87058 1.01455,1.08533 2.02909,4.40697 3.04364,7.26176 1.01454,3.02743 1.01455,3.56531 1.01454,4.13323 1.01455,2.84734 1.01454,1.04613 1.01455,-0.77698 1.01455,-2.76538 1.01454,-3.56189 1.01455,-4.00672 3.04363,-13.86886 1.01455,-5.53291 4.05818,-25.5146 2.02909,-11.05549 2.02909,-9.30562 1.01455,-3.91101 1.01454,-1.57839 1.01455,0.47942 1.01454,2.64327 1.01455,5.06546 2.02909,13.04885 1.01454,7.27697 1.01455,8.61144 2.02909,20.16869 2.02909,21.79151 1.01455,8.45777 1.01454,6.33347 1.01455,4.13166 1.01454,2.78361 1.01455,1.4844 1.01455,0.23397 1.01454,-2.81926 1.01455,-5.47241 1.01454,-7.67408 1.01455,-9.50449 2.02909,-20.58978 2.02909,-17.79295 5.07272,-41.9908 3.04364,-21.40993 3.04364,-21.03518 2.02909,-15.43411 1.01454,-8.10622 3.04364,-28.3967 2.02909,-19.22052 2.02909,-16.77007 1.01455,-6.74326 1.01454,-5.34462 1.01455,-2.7903 1.01454,-0.71855 1.01455,0.49015 1.01455,1.58555 1.01454,1.98685 1.01455,1.40839 1.01454,1.96196 1.01455,5.09064 2.02909,24.75549 4.05818,53.5812 4.05818,53.46261 2.02909,24.58906 2.02909,22.02485 2.02909,18.5924 1.01455,7.73309 1.01454,6.54135 1.01455,5.23557 1.01455,3.81413 1.01454,2.27531 1.01455,0.61717 1.01454,-1.16236 1.01455,-3.06551 1.01454,-5.09473 1.01455,-7.25264 1.01454,-9.54207 1.01455,-11.96604 1.01455,-14.52785 1.01454,-17.23095 1.01455,-20.07915 1.01454,-23.07641 v 0" /></g></g><g
       id="g384"><path
         id="path386"
         style="fill:none;stroke:#000000;stroke-width:0.80000001;stroke-linecap:square;stroke-linejoin:miter;stroke-miterlimit:10;stroke-dasharray:none;stroke-opacity:1"
         d="M 144,108 V 760.32" /><path
         id="path388"
         style="fill:none;stroke:#000000;stroke-width:0.80000001;stroke-linecap:square;stroke-linejoin:miter;stroke-miterlimit:10;stroke-dasharray:none;stroke-opacity:1"
         d="M 1036.8,108 V 760.32" /><path
         id="path390"
         style="fill:none;stroke:#000000;stroke-width:0.80000001;stroke-linecap:square;stroke-linejoin:miter;stroke-miterlimit:10;stroke-dasharray:none;stroke-opacity:1"
         d="m 144,108 h 892.8" /><path
         id="path392"
         style="fill:none;stroke:#000000;stroke-width:0.80000001;stroke-linecap:square;stroke-linejoin:miter;stroke-miterlimit:10;stroke-dasharray:none;stroke-opacity:1"
         d="m 144,760.32 h 892.8" /><text
         id="text396"
         style="font-variant:normal;font-weight:normal;font-size:22px;font-family:'DejaVu Sans';-inkscape-font-specification:DejaVuSans;writing-mode:lr-tb;fill:#000000;fill-opacity:1;fill-rule:nonzero;stroke:none"
         transform="matrix(1,0,0,-1,286.03636,595.60184)"><tspan
           id="tspan394"
           y="0"
           x="0 13.442 20.438 38.874001 45.869999 59.862 66.858002 80.849998 94.842003 108.834">T = 0.511K</tspan></text>
<g
         transform="translate(286.03636,541.78789)"
         id="g398"><text
           id="text402"
           style="font-variant:normal;font-weight:normal;font-size:22px;font-family:'DejaVu Sans';-inkscape-font-specification:DejaVuSans;writing-mode:lr-tb;fill:#000000;fill-opacity:1;fill-rule:nonzero;stroke:none"
           transform="matrix(1,0,0,-1,0,0.671875)"><tspan
             id="tspan400"
             y="0"
             x="0 18.981445 32.462891 45.482422">Max </tspan></text>
<text
           id="text406"
           style="font-style:italic;font-variant:normal;font-size:15.39999962px;font-family:'DejaVu Sans';-inkscape-font-specification:DejaVuSans-Oblique;writing-mode:lr-tb;fill:#000000;fill-opacity:1;fill-rule:nonzero;stroke:none"
           transform="matrix(1,0,0,-1,65.441406,-2.9375)"><tspan
             id="tspan404"
             y="0"
             x="0 9.1136723">xy</tspan></text>
<text
           id="text410"
           style="font-variant:normal;font-weight:normal;font-size:22px;font-family:'DejaVu Sans';-inkscape-font-specification:DejaVuSans;writing-mode:lr-tb;fill:#000000;fill-opacity:1;fill-rule:nonzero;stroke:none"
           transform="matrix(1,0,0,-1,91.263477,0.671875)"><tspan
             id="tspan408"
             y="0"
             x="0 13.481445 22.107422 29.100586 43.097656 50.075195 64.072266 78.069336 85.0625">at 2.74 T</tspan></text>
<g
           transform="matrix(0.022,0,0,0.022,52.475586,0.671875)"
           id="g412"><g
             id="g414"><g
               clip-path="url(#clipPath420)"
               id="g416"><path
                 id="path422"
                 style="fill:#000000;fill-opacity:1;fill-rule:nonzero;stroke:none"
                 d="m 146,547 h 93 L 195,320 475,547 H 584 L 329,341 512,0 H 402 L 254,282 175,219 133,0 H 40 l 106,547" /></g></g></g></g></g></g></svg>