<?xml version="1.0" encoding="UTF-8" standalone="no"?>
<svg
   xmlns:dc="http://purl.org/dc/elements/1.1/"
   xmlns:cc="http://creativecommons.org/ns#"
   xmlns:rdf="http://www.w3.org/1999/02/22-rdf-syntax-ns#"
   xmlns:svg="http://www.w3.org/2000/svg"
   xmlns="http://www.w3.org/2000/svg"
   viewBox="0 0 1536 1152"
   height="1152"
   width="1536"
   xml:space="preserve"
   id="svg2"
   version="1.1"><metadata
     id="metadata8"><rdf:RDF><cc:Work
         rdf:about=""><dc:format>image/svg+xml</dc:format><dc:type
           rdf:resource="http://purl.org/dc/dcmitype/StillImage" /></cc:Work></rdf:RDF></metadata><defs
     id="defs6"><clipPath
       id="clipPath22"
       clipPathUnits="userSpaceOnUse"><path
         id="path20"
         d="m 144,108 h 892.8 V 760.32 H 144 Z" /></clipPath><clipPath
       id="clipPath40"
       clipPathUnits="userSpaceOnUse"><path
         id="path38"
         d="m 144,108 h 892.8 V 760.32 H 144 Z" /></clipPath><clipPath
       id="clipPath58"
       clipPathUnits="userSpaceOnUse"><path
         id="path56"
         d="m 144,108 h 892.8 V 760.32 H 144 Z" /></clipPath><clipPath
       id="clipPath76"
       clipPathUnits="userSpaceOnUse"><path
         id="path74"
         d="m 144,108 h 892.8 V 760.32 H 144 Z" /></clipPath><clipPath
       id="clipPath94"
       clipPathUnits="userSpaceOnUse"><path
         id="path92"
         d="m 144,108 h 892.8 V 760.32 H 144 Z" /></clipPath><clipPath
       id="clipPath116"
       clipPathUnits="userSpaceOnUse"><path
         id="path114"
         d="m 144,108 h 892.8 V 760.32 H 144 Z" /></clipPath><clipPath
       id="clipPath134"
       clipPathUnits="userSpaceOnUse"><path
         id="path132"
         d="m 144,108 h 892.8 V 760.32 H 144 Z" /></clipPath><clipPath
       id="clipPath152"
       clipPathUnits="userSpaceOnUse"><path
         id="path150"
         d="m 144,108 h 892.8 V 760.32 H 144 Z" /></clipPath><clipPath
       id="clipPath170"
       clipPathUnits="userSpaceOnUse"><path
         id="path168"
         d="m 144,108 h 892.8 V 760.32 H 144 Z" /></clipPath><clipPath
       id="clipPath188"
       clipPathUnits="userSpaceOnUse"><path
         id="path186"
         d="m 144,108 h 892.8 V 760.32 H 144 Z" /></clipPath><clipPath
       id="clipPath206"
       clipPathUnits="userSpaceOnUse"><path
         id="path204"
         d="m 144,108 h 892.8 V 760.32 H 144 Z" /></clipPath><clipPath
       id="clipPath224"
       clipPathUnits="userSpaceOnUse"><path
         id="path222"
         d="m 144,108 h 892.8 V 760.32 H 144 Z" /></clipPath><clipPath
       id="clipPath242"
       clipPathUnits="userSpaceOnUse"><path
         id="path240"
         d="m 144,108 h 892.8 V 760.32 H 144 Z" /></clipPath><clipPath
       id="clipPath260"
       clipPathUnits="userSpaceOnUse"><path
         id="path258"
         d="m 144,108 h 892.8 V 760.32 H 144 Z" /></clipPath><clipPath
       id="clipPath282"
       clipPathUnits="userSpaceOnUse"><path
         id="path280"
         d="m 144,108 h 892.8 V 760.32 H 144 Z" /></clipPath><clipPath
       id="clipPath322"
       clipPathUnits="userSpaceOnUse"><path
         id="path320"
         d="m 144,108 h 892.8 V 760.32 H 144 Z" /></clipPath><clipPath
       id="clipPath332"
       clipPathUnits="userSpaceOnUse"><path
         id="path330"
         d="m 144,108 h 892.8 V 760.32 H 144 Z" /></clipPath><clipPath
       id="clipPath342"
       clipPathUnits="userSpaceOnUse"><path
         id="path340"
         d="m -3.5,-3.5 h 7 v 7 h -7 z" /></clipPath><clipPath
       id="clipPath354"
       clipPathUnits="userSpaceOnUse"><path
         id="path352"
         d="m -3.5,-3.5 h 7 v 7 h -7 z" /></clipPath><clipPath
       id="clipPath366"
       clipPathUnits="userSpaceOnUse"><path
         id="path364"
         d="m -3.5,-3.5 h 7 v 7 h -7 z" /></clipPath><clipPath
       id="clipPath378"
       clipPathUnits="userSpaceOnUse"><path
         id="path376"
         d="m -3.5,-3.5 h 7 v 7 h -7 z" /></clipPath><clipPath
       id="clipPath390"
       clipPathUnits="userSpaceOnUse"><path
         id="path388"
         d="m -3.5,-3.5 h 7 v 7 h -7 z" /></clipPath><clipPath
       id="clipPath402"
       clipPathUnits="userSpaceOnUse"><path
         id="path400"
         d="m -3.5,-3.5 h 7 v 7 h -7 z" /></clipPath><clipPath
       id="clipPath414"
       clipPathUnits="userSpaceOnUse"><path
         id="path412"
         d="m -3.5,-3.5 h 7 v 7 h -7 z" /></clipPath><clipPath
       id="clipPath426"
       clipPathUnits="userSpaceOnUse"><path
         id="path424"
         d="m -3.5,-3.5 h 7 v 7 h -7 z" /></clipPath><clipPath
       id="clipPath438"
       clipPathUnits="userSpaceOnUse"><path
         id="path436"
         d="m -3.5,-3.5 h 7 v 7 h -7 z" /></clipPath><clipPath
       id="clipPath450"
       clipPathUnits="userSpaceOnUse"><path
         id="path448"
         d="m -3.5,-3.5 h 7 v 7 h -7 z" /></clipPath><clipPath
       id="clipPath462"
       clipPathUnits="userSpaceOnUse"><path
         id="path460"
         d="m -3.5,-3.5 h 7 v 7 h -7 z" /></clipPath><clipPath
       id="clipPath474"
       clipPathUnits="userSpaceOnUse"><path
         id="path472"
         d="m -3.5,-3.5 h 7 v 7 h -7 z" /></clipPath><clipPath
       id="clipPath486"
       clipPathUnits="userSpaceOnUse"><path
         id="path484"
         d="m -3.5,-3.5 h 7 v 7 h -7 z" /></clipPath><clipPath
       id="clipPath498"
       clipPathUnits="userSpaceOnUse"><path
         id="path496"
         d="m -3.5,-3.5 h 7 v 7 h -7 z" /></clipPath></defs><g
     transform="matrix(1.3333333,0,0,-1.3333333,0,1152)"
     id="g10"><path
       id="path12"
       style="fill:#ffffff;fill-opacity:1;fill-rule:nonzero;stroke:none"
       d="M 0,0 H 1152 V 864 H 0 Z" /><path
       id="path14"
       style="fill:#ffffff;fill-opacity:1;fill-rule:nonzero;stroke:none"
       d="m 144,108 h 892.8 V 760.32 H 144 Z" /><g
       id="g16"><g
         clip-path="url(#clipPath22)"
         id="g18"><path
           id="path24"
           style="fill:none;stroke:#b0b0b0;stroke-width:0.80000001;stroke-linecap:square;stroke-linejoin:round;stroke-miterlimit:10;stroke-dasharray:none;stroke-opacity:1"
           d="M 199.26151,108 V 760.32" /></g></g><g
       id="g26"><path
         id="path28"
         style="fill:#000000;fill-opacity:1;fill-rule:nonzero;stroke:#000000;stroke-width:0.80000001;stroke-linecap:butt;stroke-linejoin:round;stroke-miterlimit:10;stroke-dasharray:none;stroke-opacity:1"
         d="m 199.26151,108 v -3.5" /><text
         id="text32"
         style="font-variant:normal;font-weight:normal;font-size:16px;font-family:'DejaVu Sans';-inkscape-font-specification:DejaVuSans;writing-mode:lr-tb;fill:#000000;fill-opacity:1;fill-rule:nonzero;stroke:none"
         transform="matrix(1,0,0,-1,186.52714,88.84375)"><tspan
           id="tspan30"
           y="0"
           x="0 10.176 15.264">0.2</tspan></text>
</g><g
       id="g34"><g
         clip-path="url(#clipPath40)"
         id="g36"><path
           id="path42"
           style="fill:none;stroke:#b0b0b0;stroke-width:0.80000001;stroke-linecap:square;stroke-linejoin:round;stroke-miterlimit:10;stroke-dasharray:none;stroke-opacity:1"
           d="M 390.67405,108 V 760.32" /></g></g><g
       id="g44"><path
         id="path46"
         style="fill:#000000;fill-opacity:1;fill-rule:nonzero;stroke:#000000;stroke-width:0.80000001;stroke-linecap:butt;stroke-linejoin:round;stroke-miterlimit:10;stroke-dasharray:none;stroke-opacity:1"
         d="m 390.67405,108 v -3.5" /><text
         id="text50"
         style="font-variant:normal;font-weight:normal;font-size:16px;font-family:'DejaVu Sans';-inkscape-font-specification:DejaVuSans;writing-mode:lr-tb;fill:#000000;fill-opacity:1;fill-rule:nonzero;stroke:none"
         transform="matrix(1,0,0,-1,377.93968,88.84375)"><tspan
           id="tspan48"
           y="0"
           x="0 10.176 15.264">0.4</tspan></text>
</g><g
       id="g52"><g
         clip-path="url(#clipPath58)"
         id="g54"><path
           id="path60"
           style="fill:none;stroke:#b0b0b0;stroke-width:0.80000001;stroke-linecap:square;stroke-linejoin:round;stroke-miterlimit:10;stroke-dasharray:none;stroke-opacity:1"
           d="M 582.08659,108 V 760.32" /></g></g><g
       id="g62"><path
         id="path64"
         style="fill:#000000;fill-opacity:1;fill-rule:nonzero;stroke:#000000;stroke-width:0.80000001;stroke-linecap:butt;stroke-linejoin:round;stroke-miterlimit:10;stroke-dasharray:none;stroke-opacity:1"
         d="m 582.08659,108 v -3.5" /><text
         id="text68"
         style="font-variant:normal;font-weight:normal;font-size:16px;font-family:'DejaVu Sans';-inkscape-font-specification:DejaVuSans;writing-mode:lr-tb;fill:#000000;fill-opacity:1;fill-rule:nonzero;stroke:none"
         transform="matrix(1,0,0,-1,569.35222,88.84375)"><tspan
           id="tspan66"
           y="0"
           x="0 10.176 15.264">0.6</tspan></text>
</g><g
       id="g70"><g
         clip-path="url(#clipPath76)"
         id="g72"><path
           id="path78"
           style="fill:none;stroke:#b0b0b0;stroke-width:0.80000001;stroke-linecap:square;stroke-linejoin:round;stroke-miterlimit:10;stroke-dasharray:none;stroke-opacity:1"
           d="M 773.49914,108 V 760.32" /></g></g><g
       id="g80"><path
         id="path82"
         style="fill:#000000;fill-opacity:1;fill-rule:nonzero;stroke:#000000;stroke-width:0.80000001;stroke-linecap:butt;stroke-linejoin:round;stroke-miterlimit:10;stroke-dasharray:none;stroke-opacity:1"
         d="m 773.49914,108 v -3.5" /><text
         id="text86"
         style="font-variant:normal;font-weight:normal;font-size:16px;font-family:'DejaVu Sans';-inkscape-font-specification:DejaVuSans;writing-mode:lr-tb;fill:#000000;fill-opacity:1;fill-rule:nonzero;stroke:none"
         transform="matrix(1,0,0,-1,760.76476,88.84375)"><tspan
           id="tspan84"
           y="0"
           x="0 10.176 15.264">0.8</tspan></text>
</g><g
       id="g88"><g
         clip-path="url(#clipPath94)"
         id="g90"><path
           id="path96"
           style="fill:none;stroke:#b0b0b0;stroke-width:0.80000001;stroke-linecap:square;stroke-linejoin:round;stroke-miterlimit:10;stroke-dasharray:none;stroke-opacity:1"
           d="M 964.91168,108 V 760.32" /></g></g><g
       id="g98"><path
         id="path100"
         style="fill:#000000;fill-opacity:1;fill-rule:nonzero;stroke:#000000;stroke-width:0.80000001;stroke-linecap:butt;stroke-linejoin:round;stroke-miterlimit:10;stroke-dasharray:none;stroke-opacity:1"
         d="m 964.91168,108 v -3.5" /><text
         id="text104"
         style="font-variant:normal;font-weight:normal;font-size:16px;font-family:'DejaVu Sans';-inkscape-font-specification:DejaVuSans;writing-mode:lr-tb;fill:#000000;fill-opacity:1;fill-rule:nonzero;stroke:none"
         transform="matrix(1,0,0,-1,952.1773,88.84375)"><tspan
           id="tspan102"
           y="0"
           x="0 10.176 15.264">1.0</tspan></text>
<text
         id="text108"
         style="font-variant:normal;font-weight:normal;font-size:22px;font-family:'DejaVu Sans';-inkscape-font-specification:DejaVuSans;writing-mode:lr-tb;fill:#000000;fill-opacity:1;fill-rule:nonzero;stroke:none"
         transform="matrix(1,0,0,-1,504.42344,64.796875)"><tspan
           id="tspan106"
           y="0"
           x="0 13.442 26.972 48.400002 62.369999 75.900002 84.942001 98.428001 107.052 121 130.04201 143.57201 150.56799 157.564">Temperature, K</tspan></text>
</g><g
       id="g110"><g
         clip-path="url(#clipPath116)"
         id="g112"><path
           id="path118"
           style="fill:none;stroke:#b0b0b0;stroke-width:0.80000001;stroke-linecap:square;stroke-linejoin:round;stroke-miterlimit:10;stroke-dasharray:none;stroke-opacity:1"
           d="m 144,108 h 892.8" /></g></g><g
       id="g120"><path
         id="path122"
         style="fill:#000000;fill-opacity:1;fill-rule:nonzero;stroke:#000000;stroke-width:0.80000001;stroke-linecap:butt;stroke-linejoin:round;stroke-miterlimit:10;stroke-dasharray:none;stroke-opacity:1"
         d="m 144,108 h -3.5" /><text
         id="text126"
         style="font-variant:normal;font-weight:normal;font-size:16px;font-family:'DejaVu Sans';-inkscape-font-specification:DejaVuSans;writing-mode:lr-tb;fill:#000000;fill-opacity:1;fill-rule:nonzero;stroke:none"
         transform="matrix(1,0,0,-1,111.53125,101.92188)"><tspan
           id="tspan124"
           y="0"
           x="0 10.176 15.264">0.0</tspan></text>
</g><g
       id="g128"><g
         clip-path="url(#clipPath134)"
         id="g130"><path
           id="path136"
           style="fill:none;stroke:#b0b0b0;stroke-width:0.80000001;stroke-linecap:square;stroke-linejoin:round;stroke-miterlimit:10;stroke-dasharray:none;stroke-opacity:1"
           d="m 144,189.54 h 892.8" /></g></g><g
       id="g138"><path
         id="path140"
         style="fill:#000000;fill-opacity:1;fill-rule:nonzero;stroke:#000000;stroke-width:0.80000001;stroke-linecap:butt;stroke-linejoin:round;stroke-miterlimit:10;stroke-dasharray:none;stroke-opacity:1"
         d="m 144,189.54 h -3.5" /><text
         id="text144"
         style="font-variant:normal;font-weight:normal;font-size:16px;font-family:'DejaVu Sans';-inkscape-font-specification:DejaVuSans;writing-mode:lr-tb;fill:#000000;fill-opacity:1;fill-rule:nonzero;stroke:none"
         transform="matrix(1,0,0,-1,111.53125,183.46187)"><tspan
           id="tspan142"
           y="0"
           x="0 10.176 15.264">2.5</tspan></text>
</g><g
       id="g146"><g
         clip-path="url(#clipPath152)"
         id="g148"><path
           id="path154"
           style="fill:none;stroke:#b0b0b0;stroke-width:0.80000001;stroke-linecap:square;stroke-linejoin:round;stroke-miterlimit:10;stroke-dasharray:none;stroke-opacity:1"
           d="m 144,271.08 h 892.8" /></g></g><g
       id="g156"><path
         id="path158"
         style="fill:#000000;fill-opacity:1;fill-rule:nonzero;stroke:#000000;stroke-width:0.80000001;stroke-linecap:butt;stroke-linejoin:round;stroke-miterlimit:10;stroke-dasharray:none;stroke-opacity:1"
         d="m 144,271.08 h -3.5" /><text
         id="text162"
         style="font-variant:normal;font-weight:normal;font-size:16px;font-family:'DejaVu Sans';-inkscape-font-specification:DejaVuSans;writing-mode:lr-tb;fill:#000000;fill-opacity:1;fill-rule:nonzero;stroke:none"
         transform="matrix(1,0,0,-1,111.53125,265.00187)"><tspan
           id="tspan160"
           y="0"
           x="0 10.176 15.264">5.0</tspan></text>
</g><g
       id="g164"><g
         clip-path="url(#clipPath170)"
         id="g166"><path
           id="path172"
           style="fill:none;stroke:#b0b0b0;stroke-width:0.80000001;stroke-linecap:square;stroke-linejoin:round;stroke-miterlimit:10;stroke-dasharray:none;stroke-opacity:1"
           d="m 144,352.62 h 892.8" /></g></g><g
       id="g174"><path
         id="path176"
         style="fill:#000000;fill-opacity:1;fill-rule:nonzero;stroke:#000000;stroke-width:0.80000001;stroke-linecap:butt;stroke-linejoin:round;stroke-miterlimit:10;stroke-dasharray:none;stroke-opacity:1"
         d="m 144,352.62 h -3.5" /><text
         id="text180"
         style="font-variant:normal;font-weight:normal;font-size:16px;font-family:'DejaVu Sans';-inkscape-font-specification:DejaVuSans;writing-mode:lr-tb;fill:#000000;fill-opacity:1;fill-rule:nonzero;stroke:none"
         transform="matrix(1,0,0,-1,111.53125,346.54187)"><tspan
           id="tspan178"
           y="0"
           x="0 10.176 15.264">7.5</tspan></text>
</g><g
       id="g182"><g
         clip-path="url(#clipPath188)"
         id="g184"><path
           id="path190"
           style="fill:none;stroke:#b0b0b0;stroke-width:0.80000001;stroke-linecap:square;stroke-linejoin:round;stroke-miterlimit:10;stroke-dasharray:none;stroke-opacity:1"
           d="m 144,434.16 h 892.8" /></g></g><g
       id="g192"><path
         id="path194"
         style="fill:#000000;fill-opacity:1;fill-rule:nonzero;stroke:#000000;stroke-width:0.80000001;stroke-linecap:butt;stroke-linejoin:round;stroke-miterlimit:10;stroke-dasharray:none;stroke-opacity:1"
         d="m 144,434.16 h -3.5" /><text
         id="text198"
         style="font-variant:normal;font-weight:normal;font-size:16px;font-family:'DejaVu Sans';-inkscape-font-specification:DejaVuSans;writing-mode:lr-tb;fill:#000000;fill-opacity:1;fill-rule:nonzero;stroke:none"
         transform="matrix(1,0,0,-1,101.34375,428.08187)"><tspan
           id="tspan196"
           y="0"
           x="0 10.176 20.351999 25.440001">10.0</tspan></text>
</g><g
       id="g200"><g
         clip-path="url(#clipPath206)"
         id="g202"><path
           id="path208"
           style="fill:none;stroke:#b0b0b0;stroke-width:0.80000001;stroke-linecap:square;stroke-linejoin:round;stroke-miterlimit:10;stroke-dasharray:none;stroke-opacity:1"
           d="m 144,515.7 h 892.8" /></g></g><g
       id="g210"><path
         id="path212"
         style="fill:#000000;fill-opacity:1;fill-rule:nonzero;stroke:#000000;stroke-width:0.80000001;stroke-linecap:butt;stroke-linejoin:round;stroke-miterlimit:10;stroke-dasharray:none;stroke-opacity:1"
         d="m 144,515.7 h -3.5" /><text
         id="text216"
         style="font-variant:normal;font-weight:normal;font-size:16px;font-family:'DejaVu Sans';-inkscape-font-specification:DejaVuSans;writing-mode:lr-tb;fill:#000000;fill-opacity:1;fill-rule:nonzero;stroke:none"
         transform="matrix(1,0,0,-1,101.34375,509.62187)"><tspan
           id="tspan214"
           y="0"
           x="0 10.176 20.351999 25.440001">12.5</tspan></text>
</g><g
       id="g218"><g
         clip-path="url(#clipPath224)"
         id="g220"><path
           id="path226"
           style="fill:none;stroke:#b0b0b0;stroke-width:0.80000001;stroke-linecap:square;stroke-linejoin:round;stroke-miterlimit:10;stroke-dasharray:none;stroke-opacity:1"
           d="m 144,597.24 h 892.8" /></g></g><g
       id="g228"><path
         id="path230"
         style="fill:#000000;fill-opacity:1;fill-rule:nonzero;stroke:#000000;stroke-width:0.80000001;stroke-linecap:butt;stroke-linejoin:round;stroke-miterlimit:10;stroke-dasharray:none;stroke-opacity:1"
         d="m 144,597.24 h -3.5" /><text
         id="text234"
         style="font-variant:normal;font-weight:normal;font-size:16px;font-family:'DejaVu Sans';-inkscape-font-specification:DejaVuSans;writing-mode:lr-tb;fill:#000000;fill-opacity:1;fill-rule:nonzero;stroke:none"
         transform="matrix(1,0,0,-1,101.34375,591.16187)"><tspan
           id="tspan232"
           y="0"
           x="0 10.176 20.351999 25.440001">15.0</tspan></text>
</g><g
       id="g236"><g
         clip-path="url(#clipPath242)"
         id="g238"><path
           id="path244"
           style="fill:none;stroke:#b0b0b0;stroke-width:0.80000001;stroke-linecap:square;stroke-linejoin:round;stroke-miterlimit:10;stroke-dasharray:none;stroke-opacity:1"
           d="m 144,678.78 h 892.8" /></g></g><g
       id="g246"><path
         id="path248"
         style="fill:#000000;fill-opacity:1;fill-rule:nonzero;stroke:#000000;stroke-width:0.80000001;stroke-linecap:butt;stroke-linejoin:round;stroke-miterlimit:10;stroke-dasharray:none;stroke-opacity:1"
         d="m 144,678.78 h -3.5" /><text
         id="text252"
         style="font-variant:normal;font-weight:normal;font-size:16px;font-family:'DejaVu Sans';-inkscape-font-specification:DejaVuSans;writing-mode:lr-tb;fill:#000000;fill-opacity:1;fill-rule:nonzero;stroke:none"
         transform="matrix(1,0,0,-1,101.34375,672.70188)"><tspan
           id="tspan250"
           y="0"
           x="0 10.176 20.351999 25.440001">17.5</tspan></text>
</g><g
       id="g254"><g
         clip-path="url(#clipPath260)"
         id="g256"><path
           id="path262"
           style="fill:none;stroke:#b0b0b0;stroke-width:0.80000001;stroke-linecap:square;stroke-linejoin:round;stroke-miterlimit:10;stroke-dasharray:none;stroke-opacity:1"
           d="m 144,760.32 h 892.8" /></g></g><g
       id="g264"><path
         id="path266"
         style="fill:#000000;fill-opacity:1;fill-rule:nonzero;stroke:#000000;stroke-width:0.80000001;stroke-linecap:butt;stroke-linejoin:round;stroke-miterlimit:10;stroke-dasharray:none;stroke-opacity:1"
         d="m 144,760.32 h -3.5" /><text
         id="text270"
         style="font-variant:normal;font-weight:normal;font-size:16px;font-family:'DejaVu Sans';-inkscape-font-specification:DejaVuSans;writing-mode:lr-tb;fill:#000000;fill-opacity:1;fill-rule:nonzero;stroke:none"
         transform="matrix(1,0,0,-1,101.34375,754.24188)"><tspan
           id="tspan268"
           y="0"
           x="0 10.176 20.351999 25.440001">20.0</tspan></text>
<text
         id="text274"
         style="font-variant:normal;font-weight:normal;font-size:22px;font-family:'DejaVu Sans';-inkscape-font-specification:DejaVuSans;writing-mode:lr-tb;fill:#000000;fill-opacity:1;fill-rule:nonzero;stroke:none"
         transform="matrix(0,1,1,0,92.765625,361.16781)"><tspan
           id="tspan272"
           y="0"
           x="0 12.65 18.766001 32.296001 38.411999 52.382 59.377998 73.348 85.447998 98.933998 105.05 118.58 125.576 132.57201">Field Scale, T</tspan></text>
</g><g
       id="g276"><g
         clip-path="url(#clipPath282)"
         id="g278"><path
           id="path284"
           style="fill:none;stroke:#ff0000;stroke-width:1.5;stroke-linecap:butt;stroke-linejoin:round;stroke-miterlimit:10;stroke-dasharray:none;stroke-opacity:1"
           d="m 184.58182,254.17686 v 4.64135" /><path
           id="path286"
           style="fill:none;stroke:#ff0000;stroke-width:1.5;stroke-linecap:butt;stroke-linejoin:round;stroke-miterlimit:10;stroke-dasharray:none;stroke-opacity:1"
           d="m 219.70808,276.08666 v 5.66816" /><path
           id="path288"
           style="fill:none;stroke:#ff0000;stroke-width:1.5;stroke-linecap:butt;stroke-linejoin:round;stroke-miterlimit:10;stroke-dasharray:none;stroke-opacity:1"
           d="m 258.96063,279.99865 v 4.00587" /><path
           id="path290"
           style="fill:none;stroke:#ff0000;stroke-width:1.5;stroke-linecap:butt;stroke-linejoin:round;stroke-miterlimit:10;stroke-dasharray:none;stroke-opacity:1"
           d="m 304.92881,406.44447 v 2.98842" /><path
           id="path292"
           style="fill:none;stroke:#ff0000;stroke-width:1.5;stroke-linecap:butt;stroke-linejoin:round;stroke-miterlimit:10;stroke-dasharray:none;stroke-opacity:1"
           d="M 353.53979,-1 V 865" /><path
           id="path294"
           style="fill:none;stroke:#ff0000;stroke-width:1.5;stroke-linecap:butt;stroke-linejoin:round;stroke-miterlimit:10;stroke-dasharray:none;stroke-opacity:1"
           d="m 407.52748,598.56642 v 47.0735" /><path
           id="path296"
           style="fill:none;stroke:#ff0000;stroke-width:1.5;stroke-linecap:butt;stroke-linejoin:round;stroke-miterlimit:10;stroke-dasharray:none;stroke-opacity:1"
           d="M 428.29062,-1 V 865" /><path
           id="path298"
           style="fill:none;stroke:#ff0000;stroke-width:1.5;stroke-linecap:butt;stroke-linejoin:round;stroke-miterlimit:10;stroke-dasharray:none;stroke-opacity:1"
           d="m 439.6102,227.76912 v 57.513" /><path
           id="path300"
           style="fill:none;stroke:#ff0000;stroke-width:1.5;stroke-linecap:butt;stroke-linejoin:round;stroke-miterlimit:10;stroke-dasharray:none;stroke-opacity:1"
           d="m 450.91067,214.01504 v 12.85969" /><path
           id="path302"
           style="fill:none;stroke:#ff0000;stroke-width:1.5;stroke-linecap:butt;stroke-linejoin:round;stroke-miterlimit:10;stroke-dasharray:none;stroke-opacity:1"
           d="m 496.88466,212.32896 v 3.92693" /><path
           id="path304"
           style="fill:none;stroke:#ff0000;stroke-width:1.5;stroke-linecap:butt;stroke-linejoin:round;stroke-miterlimit:10;stroke-dasharray:none;stroke-opacity:1"
           d="m 597.35968,288.23755 v 7.9126" /><path
           id="path306"
           style="fill:none;stroke:#ff0000;stroke-width:1.5;stroke-linecap:butt;stroke-linejoin:round;stroke-miterlimit:10;stroke-dasharray:none;stroke-opacity:1"
           d="m 691.67181,275.29721 v 2.91857" /><path
           id="path308"
           style="fill:none;stroke:#ff0000;stroke-width:1.5;stroke-linecap:butt;stroke-linejoin:round;stroke-miterlimit:10;stroke-dasharray:none;stroke-opacity:1"
           d="m 724.7822,268.86121 v 3.78016" /><path
           id="path310"
           style="fill:none;stroke:#ff0000;stroke-width:1.5;stroke-linecap:butt;stroke-linejoin:round;stroke-miterlimit:10;stroke-dasharray:none;stroke-opacity:1"
           d="m 815.01592,262.23081 v 3.06336" /><path
           id="path312"
           style="fill:none;stroke:#ff0000;stroke-width:1.5;stroke-linecap:butt;stroke-linejoin:round;stroke-miterlimit:10;stroke-dasharray:none;stroke-opacity:1"
           d="m 906.91234,264.93107 v 2.53935" /><path
           id="path314"
           style="fill:none;stroke:#ff0000;stroke-width:1.5;stroke-linecap:butt;stroke-linejoin:round;stroke-miterlimit:10;stroke-dasharray:none;stroke-opacity:1"
           d="m 996.21818,253.7585 v 3.12576" /></g></g><g
       id="g316"><g
         clip-path="url(#clipPath322)"
         id="g318"><path
           id="path324"
           style="fill:none;stroke:#1f77b4;stroke-width:1.5;stroke-linecap:square;stroke-linejoin:round;stroke-miterlimit:10;stroke-dasharray:none;stroke-opacity:1"
           d="m 144,277.24434 h 892.8" /></g></g><g
       id="g326"><g
         clip-path="url(#clipPath332)"
         id="g328"><g
           transform="translate(184.58182,256.49753)"
           id="g334"><g
             id="g336"><g
               clip-path="url(#clipPath342)"
               id="g338"><path
                 id="path344"
                 style="fill:#1f77b4;fill-opacity:1;fill-rule:nonzero;stroke:#1f77b4;stroke-width:1;stroke-linecap:butt;stroke-linejoin:round;stroke-miterlimit:10;stroke-dasharray:none;stroke-opacity:1"
                 d="m 0,-3 c 0.795609,0 1.55874,0.316099 2.12132,0.87868 C 2.683901,-1.55874 3,-0.795609 3,0 3,0.795609 2.683901,1.55874 2.12132,2.12132 1.55874,2.683901 0.795609,3 0,3 -0.795609,3 -1.55874,2.683901 -2.12132,2.12132 -2.683901,1.55874 -3,0.795609 -3,0 -3,-0.795609 -2.683901,-1.55874 -2.12132,-2.12132 -1.55874,-2.683901 -0.795609,-3 0,-3 Z" /></g></g><g
             transform="translate(35.12626,22.42321)"
             id="g346"><g
               id="g348"><g
                 clip-path="url(#clipPath354)"
                 id="g350"><path
                   id="path356"
                   style="fill:#1f77b4;fill-opacity:1;fill-rule:nonzero;stroke:#1f77b4;stroke-width:1;stroke-linecap:butt;stroke-linejoin:round;stroke-miterlimit:10;stroke-dasharray:none;stroke-opacity:1"
                   d="m 0,-3 c 0.795609,0 1.55874,0.316099 2.12132,0.87868 C 2.683901,-1.55874 3,-0.795609 3,0 3,0.795609 2.683901,1.55874 2.12132,2.12132 1.55874,2.683901 0.795609,3 0,3 -0.795609,3 -1.55874,2.683901 -2.12132,2.12132 -2.683901,1.55874 -3,0.795609 -3,0 -3,-0.795609 -2.683901,-1.55874 -2.12132,-2.12132 -1.55874,-2.683901 -0.795609,-3 0,-3 Z" /></g></g><g
               transform="translate(39.252554,3.0808447)"
               id="g358"><g
                 id="g360"><g
                   clip-path="url(#clipPath366)"
                   id="g362"><path
                     id="path368"
                     style="fill:#1f77b4;fill-opacity:1;fill-rule:nonzero;stroke:#1f77b4;stroke-width:1;stroke-linecap:butt;stroke-linejoin:round;stroke-miterlimit:10;stroke-dasharray:none;stroke-opacity:1"
                     d="m 0,-3 c 0.795609,0 1.55874,0.316099 2.12132,0.87868 C 2.683901,-1.55874 3,-0.795609 3,0 3,0.795609 2.683901,1.55874 2.12132,2.12132 1.55874,2.683901 0.795609,3 0,3 -0.795609,3 -1.55874,2.683901 -2.12132,2.12132 -2.683901,1.55874 -3,0.795609 -3,0 -3,-0.795609 -2.683901,-1.55874 -2.12132,-2.12132 -1.55874,-2.683901 -0.795609,-3 0,-3 Z" /></g></g><g
                 transform="translate(45.968182,125.93709)"
                 id="g370"><g
                   id="g372"><g
                     clip-path="url(#clipPath378)"
                     id="g374"><path
                       id="path380"
                       style="fill:#1f77b4;fill-opacity:1;fill-rule:nonzero;stroke:#1f77b4;stroke-width:1;stroke-linecap:butt;stroke-linejoin:round;stroke-miterlimit:10;stroke-dasharray:none;stroke-opacity:1"
                       d="m 0,-3 c 0.795609,0 1.55874,0.316099 2.12132,0.87868 C 2.683901,-1.55874 3,-0.795609 3,0 3,0.795609 2.683901,1.55874 2.12132,2.12132 1.55874,2.683901 0.795609,3 0,3 -0.795609,3 -1.55874,2.683901 -2.12132,2.12132 -2.683901,1.55874 -3,0.795609 -3,0 -3,-0.795609 -2.683901,-1.55874 -2.12132,-2.12132 -1.55874,-2.683901 -0.795609,-3 0,-3 Z" /></g></g><g
                   transform="translate(102.59866,214.16449)"
                   id="g382"><g
                     id="g384"><g
                       clip-path="url(#clipPath390)"
                       id="g386"><path
                         id="path392"
                         style="fill:#1f77b4;fill-opacity:1;fill-rule:nonzero;stroke:#1f77b4;stroke-width:1;stroke-linecap:butt;stroke-linejoin:round;stroke-miterlimit:10;stroke-dasharray:none;stroke-opacity:1"
                         d="m 0,-3 c 0.795609,0 1.55874,0.316099 2.12132,0.87868 C 2.683901,-1.55874 3,-0.795609 3,0 3,0.795609 2.683901,1.55874 2.12132,2.12132 1.55874,2.683901 0.795609,3 0,3 -0.795609,3 -1.55874,2.683901 -2.12132,2.12132 -2.683901,1.55874 -3,0.795609 -3,0 -3,-0.795609 -2.683901,-1.55874 -2.12132,-2.12132 -1.55874,-2.683901 -0.795609,-3 0,-3 Z" /></g></g><g
                     transform="translate(32.082726,-365.57755)"
                     id="g394"><g
                       id="g396"><g
                         clip-path="url(#clipPath402)"
                         id="g398"><path
                           id="path404"
                           style="fill:#1f77b4;fill-opacity:1;fill-rule:nonzero;stroke:#1f77b4;stroke-width:1;stroke-linecap:butt;stroke-linejoin:round;stroke-miterlimit:10;stroke-dasharray:none;stroke-opacity:1"
                           d="m 0,-3 c 0.795609,0 1.55874,0.316099 2.12132,0.87868 C 2.683901,-1.55874 3,-0.795609 3,0 3,0.795609 2.683901,1.55874 2.12132,2.12132 1.55874,2.683901 0.795609,3 0,3 -0.795609,3 -1.55874,2.683901 -2.12132,2.12132 -2.683901,1.55874 -3,0.795609 -3,0 -3,-0.795609 -2.683901,-1.55874 -2.12132,-2.12132 -1.55874,-2.683901 -0.795609,-3 0,-3 Z" /></g></g><g
                       transform="translate(11.300471,-36.080734)"
                       id="g406"><g
                         id="g408"><g
                           clip-path="url(#clipPath414)"
                           id="g410"><path
                             id="path416"
                             style="fill:#1f77b4;fill-opacity:1;fill-rule:nonzero;stroke:#1f77b4;stroke-width:1;stroke-linecap:butt;stroke-linejoin:round;stroke-miterlimit:10;stroke-dasharray:none;stroke-opacity:1"
                             d="m 0,-3 c 0.795609,0 1.55874,0.316099 2.12132,0.87868 C 2.683901,-1.55874 3,-0.795609 3,0 3,0.795609 2.683901,1.55874 2.12132,2.12132 1.55874,2.683901 0.795609,3 0,3 -0.795609,3 -1.55874,2.683901 -2.12132,2.12132 -2.683901,1.55874 -3,0.795609 -3,0 -3,-0.795609 -2.683901,-1.55874 -2.12132,-2.12132 -1.55874,-2.683901 -0.795609,-3 0,-3 Z" /></g></g><g
                         transform="translate(45.973986,-6.1524576)"
                         id="g418"><g
                           id="g420"><g
                             clip-path="url(#clipPath426)"
                             id="g422"><path
                               id="path428"
                               style="fill:#1f77b4;fill-opacity:1;fill-rule:nonzero;stroke:#1f77b4;stroke-width:1;stroke-linecap:butt;stroke-linejoin:round;stroke-miterlimit:10;stroke-dasharray:none;stroke-opacity:1"
                               d="m 0,-3 c 0.795609,0 1.55874,0.316099 2.12132,0.87868 C 2.683901,-1.55874 3,-0.795609 3,0 3,0.795609 2.683901,1.55874 2.12132,2.12132 1.55874,2.683901 0.795609,3 0,3 -0.795609,3 -1.55874,2.683901 -2.12132,2.12132 -2.683901,1.55874 -3,0.795609 -3,0 -3,-0.795609 -2.683901,-1.55874 -2.12132,-2.12132 -1.55874,-2.683901 -0.795609,-3 0,-3 Z" /></g></g><g
                           transform="translate(100.47502,77.901424)"
                           id="g430"><g
                             id="g432"><g
                               clip-path="url(#clipPath438)"
                               id="g434"><path
                                 id="path440"
                                 style="fill:#1f77b4;fill-opacity:1;fill-rule:nonzero;stroke:#1f77b4;stroke-width:1;stroke-linecap:butt;stroke-linejoin:round;stroke-miterlimit:10;stroke-dasharray:none;stroke-opacity:1"
                                 d="m 0,-3 c 0.795609,0 1.55874,0.316099 2.12132,0.87868 C 2.683901,-1.55874 3,-0.795609 3,0 3,0.795609 2.683901,1.55874 2.12132,2.12132 1.55874,2.683901 0.795609,3 0,3 -0.795609,3 -1.55874,2.683901 -2.12132,2.12132 -2.683901,1.55874 -3,0.795609 -3,0 -3,-0.795609 -2.683901,-1.55874 -2.12132,-2.12132 -1.55874,-2.683901 -0.795609,-3 0,-3 Z" /></g></g><g
                             transform="translate(94.312131,-15.437354)"
                             id="g442"><g
                               id="g444"><g
                                 clip-path="url(#clipPath450)"
                                 id="g446"><path
                                   id="path452"
                                   style="fill:#1f77b4;fill-opacity:1;fill-rule:nonzero;stroke:#1f77b4;stroke-width:1;stroke-linecap:butt;stroke-linejoin:round;stroke-miterlimit:10;stroke-dasharray:none;stroke-opacity:1"
                                   d="m 0,-3 c 0.795609,0 1.55874,0.316099 2.12132,0.87868 C 2.683901,-1.55874 3,-0.795609 3,0 3,0.795609 2.683901,1.55874 2.12132,2.12132 1.55874,2.683901 0.795609,3 0,3 -0.795609,3 -1.55874,2.683901 -2.12132,2.12132 -2.683901,1.55874 -3,0.795609 -3,0 -3,-0.795609 -2.683901,-1.55874 -2.12132,-2.12132 -1.55874,-2.683901 -0.795609,-3 0,-3 Z" /></g></g><g
                               transform="translate(33.110395,-6.0052105)"
                               id="g454"><g
                                 id="g456"><g
                                   clip-path="url(#clipPath462)"
                                   id="g458"><path
                                   id="path464"
                                   style="fill:#1f77b4;fill-opacity:1;fill-rule:nonzero;stroke:#1f77b4;stroke-width:1;stroke-linecap:butt;stroke-linejoin:round;stroke-miterlimit:10;stroke-dasharray:none;stroke-opacity:1"
                                   d="m 0,-3 c 0.795609,0 1.55874,0.316099 2.12132,0.87868 C 2.683901,-1.55874 3,-0.795609 3,0 3,0.795609 2.683901,1.55874 2.12132,2.12132 1.55874,2.683901 0.795609,3 0,3 -0.795609,3 -1.55874,2.683901 -2.12132,2.12132 -2.683901,1.55874 -3,0.795609 -3,0 -3,-0.795609 -2.683901,-1.55874 -2.12132,-2.12132 -1.55874,-2.683901 -0.795609,-3 0,-3 Z" /></g></g><g
                                 transform="translate(90.233719,-6.9887942)"
                                 id="g466"><g
                                   id="g468"><g
                                   clip-path="url(#clipPath474)"
                                   id="g470"><path
                                   id="path476"
                                   style="fill:#1f77b4;fill-opacity:1;fill-rule:nonzero;stroke:#1f77b4;stroke-width:1;stroke-linecap:butt;stroke-linejoin:round;stroke-miterlimit:10;stroke-dasharray:none;stroke-opacity:1"
                                   d="m 0,-3 c 0.795609,0 1.55874,0.316099 2.12132,0.87868 C 2.683901,-1.55874 3,-0.795609 3,0 3,0.795609 2.683901,1.55874 2.12132,2.12132 1.55874,2.683901 0.795609,3 0,3 -0.795609,3 -1.55874,2.683901 -2.12132,2.12132 -2.683901,1.55874 -3,0.795609 -3,0 -3,-0.795609 -2.683901,-1.55874 -2.12132,-2.12132 -1.55874,-2.683901 -0.795609,-3 0,-3 Z" /></g></g><g
                                   transform="translate(91.896417,2.4382573)"
                                   id="g478"><g
                                   id="g480"><g
                                   clip-path="url(#clipPath486)"
                                   id="g482"><path
                                   id="path488"
                                   style="fill:#1f77b4;fill-opacity:1;fill-rule:nonzero;stroke:#1f77b4;stroke-width:1;stroke-linecap:butt;stroke-linejoin:round;stroke-miterlimit:10;stroke-dasharray:none;stroke-opacity:1"
                                   d="m 0,-3 c 0.795609,0 1.55874,0.316099 2.12132,0.87868 C 2.683901,-1.55874 3,-0.795609 3,0 3,0.795609 2.683901,1.55874 2.12132,2.12132 1.55874,2.683901 0.795609,3 0,3 -0.795609,3 -1.55874,2.683901 -2.12132,2.12132 -2.683901,1.55874 -3,0.795609 -3,0 -3,-0.795609 -2.683901,-1.55874 -2.12132,-2.12132 -1.55874,-2.683901 -0.795609,-3 0,-3 Z" /></g></g><g
                                   transform="translate(89.305841,-10.879368)"
                                   id="g490"><g
                                   id="g492"><g
                                   clip-path="url(#clipPath498)"
                                   id="g494"><path
                                   id="path500"
                                   style="fill:#1f77b4;fill-opacity:1;fill-rule:nonzero;stroke:#1f77b4;stroke-width:1;stroke-linecap:butt;stroke-linejoin:round;stroke-miterlimit:10;stroke-dasharray:none;stroke-opacity:1"
                                   d="m 0,-3 c 0.795609,0 1.55874,0.316099 2.12132,0.87868 C 2.683901,-1.55874 3,-0.795609 3,0 3,0.795609 2.683901,1.55874 2.12132,2.12132 1.55874,2.683901 0.795609,3 0,3 -0.795609,3 -1.55874,2.683901 -2.12132,2.12132 -2.683901,1.55874 -3,0.795609 -3,0 -3,-0.795609 -2.683901,-1.55874 -2.12132,-2.12132 -1.55874,-2.683901 -0.795609,-3 0,-3 Z" /></g></g></g></g></g></g></g></g></g></g></g></g></g></g></g></g></g></g><g
       id="g502"><path
         id="path504"
         style="fill:none;stroke:#000000;stroke-width:0.80000001;stroke-linecap:square;stroke-linejoin:miter;stroke-miterlimit:10;stroke-dasharray:none;stroke-opacity:1"
         d="M 144,108 V 760.32" /><path
         id="path506"
         style="fill:none;stroke:#000000;stroke-width:0.80000001;stroke-linecap:square;stroke-linejoin:miter;stroke-miterlimit:10;stroke-dasharray:none;stroke-opacity:1"
         d="M 1036.8,108 V 760.32" /><path
         id="path508"
         style="fill:none;stroke:#000000;stroke-width:0.80000001;stroke-linecap:square;stroke-linejoin:miter;stroke-miterlimit:10;stroke-dasharray:none;stroke-opacity:1"
         d="m 144,108 h 892.8" /><path
         id="path510"
         style="fill:none;stroke:#000000;stroke-width:0.80000001;stroke-linecap:square;stroke-linejoin:miter;stroke-miterlimit:10;stroke-dasharray:none;stroke-opacity:1"
         d="m 144,760.32 h 892.8" /><text
         id="text514"
         style="font-variant:normal;font-weight:normal;font-size:24px;font-family:'DejaVu Sans';-inkscape-font-specification:DejaVuSans;writing-mode:lr-tb;fill:#000000;fill-opacity:1;fill-rule:nonzero;stroke:none"
         transform="matrix(1,0,0,-1,591.65722,629.856)"><tspan
           id="tspan512"
           y="0"
           x="0 20.712 35.472 50.183998 65.400002 73.031998 86.832001 93.503998 108.264 114.936 130.17599 137.808 153.048 166.248 180.96001 187.632 202.392 210.024 230.136 237.76801 253.032 260.664 275.92801 291.19199 306.45599 314.08801">Mean Field Scale = 5.189 T</tspan></text>
<text
         id="text518"
         style="font-variant:normal;font-weight:normal;font-size:24px;font-family:'DejaVu Sans';-inkscape-font-specification:DejaVuSans;writing-mode:lr-tb;fill:#000000;fill-opacity:1;fill-rule:nonzero;stroke:none"
         transform="matrix(1,0,0,-1,289.94687,766.32)"><tspan
           id="tspan516"
           y="0"
           x="0 14.664 29.879999 44.639999 54.504002 77.879997 92.592003 99.264 106.896 123.648 138.336 153.552 168.79201 184.008 197.20799 206.616 213.28799 227.496 234.168 243.576 257.784 265.41599 279.216 285.888 300.64801 307.32001 322.56 330.19199 345.43201 358.63199 373.34399 380.01599 394.776 402.40799 416.616 429.12 436.75201 444.384 459.048 473.80801 497.18399 512.42401 527.18402 537.04797 551.76001 561.16803 576.38397 586.24799">Thermal Conductivity Field Scale vs. Temperature</tspan></text>
</g></g></svg>