<?xml version="1.0" encoding="UTF-8" standalone="no"?>
<svg
   xmlns:dc="http://purl.org/dc/elements/1.1/"
   xmlns:cc="http://creativecommons.org/ns#"
   xmlns:rdf="http://www.w3.org/1999/02/22-rdf-syntax-ns#"
   xmlns:svg="http://www.w3.org/2000/svg"
   xmlns="http://www.w3.org/2000/svg"
   viewBox="0 0 1055.9613 815.9613"
   height="815.9613"
   width="1055.9613"
   xml:space="preserve"
   id="svg2"
   version="1.1"><metadata
     id="metadata8"><rdf:RDF><cc:Work
         rdf:about=""><dc:format>image/svg+xml</dc:format><dc:type
           rdf:resource="http://purl.org/dc/dcmitype/StillImage" /></cc:Work></rdf:RDF></metadata><defs
     id="defs6"><clipPath
       id="clipPath18"
       clipPathUnits="userSpaceOnUse"><path
         style="clip-rule:evenodd"
         id="path16"
         d="M 0,0.028 H 791.971 V 611.999 H 0 Z" /></clipPath></defs><g
     transform="matrix(1.3333333,0,0,-1.3333333,0,815.99865)"
     id="g10"><g
       id="g12"><g
         clip-path="url(#clipPath18)"
         id="g14"><path
           id="path20"
           style="fill:#ffffff;fill-opacity:1;fill-rule:evenodd;stroke:none"
           d="M 0,612 H 791.972 V 0.028 H 0 Z" /><g
           id="g22"><path
             id="path24"
             style="fill:none;stroke:#000000;stroke-width:6.00934982;stroke-linecap:butt;stroke-linejoin:round;stroke-miterlimit:10;stroke-dasharray:none;stroke-opacity:1"
             d="M 179.546,533.254 V 86.854" /></g><g
           id="g26"><path
             id="path28"
             style="fill:none;stroke:#000000;stroke-width:6.00934982;stroke-linecap:butt;stroke-linejoin:round;stroke-miterlimit:10;stroke-dasharray:none;stroke-opacity:1"
             d="M 474.831,530.617 V 84.217" /></g><g
           id="g30"><path
             id="path32"
             style="fill:none;stroke:#000000;stroke-width:6.00934982;stroke-linecap:butt;stroke-linejoin:round;stroke-miterlimit:10;stroke-dasharray:none;stroke-opacity:1"
             d="M 323.631,533.254 V 86.854" /></g><g
           id="g34"><path
             id="path36"
             style="fill:none;stroke:#000000;stroke-width:6.00934982;stroke-linecap:butt;stroke-linejoin:round;stroke-miterlimit:10;stroke-dasharray:none;stroke-opacity:1"
             d="M 622.346,529.654 V 83.254" /></g><g
           id="g38"><path
             id="path40"
             style="fill:none;stroke:#000000;stroke-width:6.00934982;stroke-linecap:butt;stroke-linejoin:round;stroke-miterlimit:10;stroke-dasharray:none;stroke-opacity:1"
             d="m 622.346,86.854 h -446.4" /></g><g
           id="g42"><path
             id="path44"
             style="fill:none;stroke:#000000;stroke-width:6.00934982;stroke-linecap:butt;stroke-linejoin:round;stroke-miterlimit:10;stroke-dasharray:none;stroke-opacity:1"
             d="m 625.946,526.054 h -446.4" /></g><g
           id="g46"><path
             id="path48"
             style="fill:none;stroke:#000000;stroke-width:6.00934982;stroke-linecap:butt;stroke-linejoin:round;stroke-miterlimit:10;stroke-dasharray:none;stroke-opacity:1"
             d="m 621.666,381.685 h -446.4" /></g><g
           id="g50"><path
             id="path52"
             style="fill:none;stroke:#000000;stroke-width:6.00934982;stroke-linecap:butt;stroke-linejoin:round;stroke-miterlimit:10;stroke-dasharray:none;stroke-opacity:1"
             d="m 622.715,233.802 h -446.4" /></g><g
           id="g54"><path
             id="path56"
             style="fill:none;stroke:#000000;stroke-width:6.00934982;stroke-linecap:butt;stroke-linejoin:round;stroke-miterlimit:10;stroke-dasharray:none;stroke-opacity:1"
             d="m 179.546,522.454 8.363,-8.363" /></g><g
           id="g58"><path
             id="path60"
             style="fill:none;stroke:#000000;stroke-width:6.00934982;stroke-linecap:butt;stroke-linejoin:round;stroke-miterlimit:10;stroke-dasharray:none;stroke-opacity:1"
             d="m 196.299,505.701 8.362,-8.362" /></g><g
           id="g62"><path
             id="path64"
             style="fill:none;stroke:#000000;stroke-width:6.00934982;stroke-linecap:butt;stroke-linejoin:round;stroke-miterlimit:10;stroke-dasharray:none;stroke-opacity:1"
             d="m 213.024,488.976 8.39,-8.39" /></g><g
           id="g66"><path
             id="path68"
             style="fill:none;stroke:#000000;stroke-width:6.00934982;stroke-linecap:butt;stroke-linejoin:round;stroke-miterlimit:10;stroke-dasharray:none;stroke-opacity:1"
             d="m 229.776,472.224 8.363,-8.363" /></g><g
           id="g70"><path
             id="path72"
             style="fill:none;stroke:#000000;stroke-width:6.00934982;stroke-linecap:butt;stroke-linejoin:round;stroke-miterlimit:10;stroke-dasharray:none;stroke-opacity:1"
             d="m 246.529,455.471 8.362,-8.362" /></g><g
           id="g74"><path
             id="path76"
             style="fill:none;stroke:#000000;stroke-width:6.00934982;stroke-linecap:butt;stroke-linejoin:round;stroke-miterlimit:10;stroke-dasharray:none;stroke-opacity:1"
             d="m 263.254,438.746 8.362,-8.362" /></g><g
           id="g78"><path
             id="path80"
             style="fill:none;stroke:#000000;stroke-width:6.00934982;stroke-linecap:butt;stroke-linejoin:round;stroke-miterlimit:10;stroke-dasharray:none;stroke-opacity:1"
             d="m 280.006,421.994 8.363,-8.363" /></g><g
           id="g82"><path
             id="path84"
             style="fill:none;stroke:#000000;stroke-width:6.00934982;stroke-linecap:butt;stroke-linejoin:round;stroke-miterlimit:10;stroke-dasharray:none;stroke-opacity:1"
             d="m 296.731,405.269 8.39,-8.39" /></g><g
           id="g86"><path
             id="path88"
             style="fill:none;stroke:#000000;stroke-width:6.00934982;stroke-linecap:butt;stroke-linejoin:round;stroke-miterlimit:10;stroke-dasharray:none;stroke-opacity:1"
             d="m 313.483,388.517 6.463,-6.463" /></g><g
           id="g90"><path
             id="path92"
             style="fill:none;stroke:#000000;stroke-width:6.00934982;stroke-linecap:butt;stroke-linejoin:round;stroke-miterlimit:10;stroke-dasharray:none;stroke-opacity:1"
             d="m 478.346,526.054 8.363,-8.363" /></g><g
           id="g94"><path
             id="path96"
             style="fill:none;stroke:#000000;stroke-width:6.00934982;stroke-linecap:butt;stroke-linejoin:round;stroke-miterlimit:10;stroke-dasharray:none;stroke-opacity:1"
             d="m 495.099,509.301 8.362,-8.362" /></g><g
           id="g98"><path
             id="path100"
             style="fill:none;stroke:#000000;stroke-width:6.00934982;stroke-linecap:butt;stroke-linejoin:round;stroke-miterlimit:10;stroke-dasharray:none;stroke-opacity:1"
             d="m 511.824,492.576 8.39,-8.39" /></g><g
           id="g102"><path
             id="path104"
             style="fill:none;stroke:#000000;stroke-width:6.00934982;stroke-linecap:butt;stroke-linejoin:round;stroke-miterlimit:10;stroke-dasharray:none;stroke-opacity:1"
             d="m 528.576,475.824 8.363,-8.363" /></g><g
           id="g106"><path
             id="path108"
             style="fill:none;stroke:#000000;stroke-width:6.00934982;stroke-linecap:butt;stroke-linejoin:round;stroke-miterlimit:10;stroke-dasharray:none;stroke-opacity:1"
             d="m 545.329,459.071 8.362,-8.362" /></g><g
           id="g110"><path
             id="path112"
             style="fill:none;stroke:#000000;stroke-width:6.00934982;stroke-linecap:butt;stroke-linejoin:round;stroke-miterlimit:10;stroke-dasharray:none;stroke-opacity:1"
             d="m 562.054,442.346 8.362,-8.362" /></g><g
           id="g114"><path
             id="path116"
             style="fill:none;stroke:#000000;stroke-width:6.00934982;stroke-linecap:butt;stroke-linejoin:round;stroke-miterlimit:10;stroke-dasharray:none;stroke-opacity:1"
             d="m 578.806,425.594 8.363,-8.363" /></g><g
           id="g118"><path
             id="path120"
             style="fill:none;stroke:#000000;stroke-width:6.00934982;stroke-linecap:butt;stroke-linejoin:round;stroke-miterlimit:10;stroke-dasharray:none;stroke-opacity:1"
             d="m 595.531,408.869 8.39,-8.39" /></g><g
           id="g122"><path
             id="path124"
             style="fill:none;stroke:#000000;stroke-width:6.00934982;stroke-linecap:butt;stroke-linejoin:round;stroke-miterlimit:10;stroke-dasharray:none;stroke-opacity:1"
             d="m 612.283,392.117 6.463,-6.463" /></g><g
           id="g126"><path
             id="path128"
             style="fill:none;stroke:#000000;stroke-width:6.00934982;stroke-linecap:butt;stroke-linejoin:round;stroke-miterlimit:10;stroke-dasharray:none;stroke-opacity:1"
             d="m 183.146,227.254 8.363,-8.363" /></g><g
           id="g130"><path
             id="path132"
             style="fill:none;stroke:#000000;stroke-width:6.00934982;stroke-linecap:butt;stroke-linejoin:round;stroke-miterlimit:10;stroke-dasharray:none;stroke-opacity:1"
             d="m 199.899,210.501 8.362,-8.362" /></g><g
           id="g134"><path
             id="path136"
             style="fill:none;stroke:#000000;stroke-width:6.00934982;stroke-linecap:butt;stroke-linejoin:round;stroke-miterlimit:10;stroke-dasharray:none;stroke-opacity:1"
             d="m 216.624,193.776 8.39,-8.39" /></g><g
           id="g138"><path
             id="path140"
             style="fill:none;stroke:#000000;stroke-width:6.00934982;stroke-linecap:butt;stroke-linejoin:round;stroke-miterlimit:10;stroke-dasharray:none;stroke-opacity:1"
             d="m 233.376,177.024 8.363,-8.363" /></g><g
           id="g142"><path
             id="path144"
             style="fill:none;stroke:#000000;stroke-width:6.00934982;stroke-linecap:butt;stroke-linejoin:round;stroke-miterlimit:10;stroke-dasharray:none;stroke-opacity:1"
             d="m 250.129,160.271 8.362,-8.362" /></g><g
           id="g146"><path
             id="path148"
             style="fill:none;stroke:#000000;stroke-width:6.00934982;stroke-linecap:butt;stroke-linejoin:round;stroke-miterlimit:10;stroke-dasharray:none;stroke-opacity:1"
             d="m 266.854,143.546 8.362,-8.362" /></g><g
           id="g150"><path
             id="path152"
             style="fill:none;stroke:#000000;stroke-width:6.00934982;stroke-linecap:butt;stroke-linejoin:round;stroke-miterlimit:10;stroke-dasharray:none;stroke-opacity:1"
             d="m 283.606,126.794 8.363,-8.363" /></g><g
           id="g154"><path
             id="path156"
             style="fill:none;stroke:#000000;stroke-width:6.00934982;stroke-linecap:butt;stroke-linejoin:round;stroke-miterlimit:10;stroke-dasharray:none;stroke-opacity:1"
             d="m 300.331,110.069 8.39,-8.39" /></g><g
           id="g158"><path
             id="path160"
             style="fill:none;stroke:#000000;stroke-width:6.00934982;stroke-linecap:butt;stroke-linejoin:round;stroke-miterlimit:10;stroke-dasharray:none;stroke-opacity:1"
             d="m 317.083,93.317 6.463,-6.463" /></g><g
           id="g162"><path
             id="path164"
             style="fill:none;stroke:#000000;stroke-width:6.00934982;stroke-linecap:butt;stroke-linejoin:round;stroke-miterlimit:10;stroke-dasharray:none;stroke-opacity:1"
             d="m 478.346,230.854 8.363,-8.363" /></g><g
           id="g166"><path
             id="path168"
             style="fill:none;stroke:#000000;stroke-width:6.00934982;stroke-linecap:butt;stroke-linejoin:round;stroke-miterlimit:10;stroke-dasharray:none;stroke-opacity:1"
             d="m 495.099,214.101 8.362,-8.362" /></g><g
           id="g170"><path
             id="path172"
             style="fill:none;stroke:#000000;stroke-width:6.00934982;stroke-linecap:butt;stroke-linejoin:round;stroke-miterlimit:10;stroke-dasharray:none;stroke-opacity:1"
             d="m 511.824,197.376 8.39,-8.39" /></g><g
           id="g174"><path
             id="path176"
             style="fill:none;stroke:#000000;stroke-width:6.00934982;stroke-linecap:butt;stroke-linejoin:round;stroke-miterlimit:10;stroke-dasharray:none;stroke-opacity:1"
             d="m 528.576,180.624 8.363,-8.363" /></g><g
           id="g178"><path
             id="path180"
             style="fill:none;stroke:#000000;stroke-width:6.00934982;stroke-linecap:butt;stroke-linejoin:round;stroke-miterlimit:10;stroke-dasharray:none;stroke-opacity:1"
             d="m 545.329,163.871 8.362,-8.362" /></g><g
           id="g182"><path
             id="path184"
             style="fill:none;stroke:#000000;stroke-width:6.00934982;stroke-linecap:butt;stroke-linejoin:round;stroke-miterlimit:10;stroke-dasharray:none;stroke-opacity:1"
             d="m 562.054,147.146 8.362,-8.362" /></g><g
           id="g186"><path
             id="path188"
             style="fill:none;stroke:#000000;stroke-width:6.00934982;stroke-linecap:butt;stroke-linejoin:round;stroke-miterlimit:10;stroke-dasharray:none;stroke-opacity:1"
             d="m 578.806,130.394 8.363,-8.363" /></g><g
           id="g190"><path
             id="path192"
             style="fill:none;stroke:#000000;stroke-width:6.00934982;stroke-linecap:butt;stroke-linejoin:round;stroke-miterlimit:10;stroke-dasharray:none;stroke-opacity:1"
             d="m 595.531,113.669 8.39,-8.39" /></g><g
           id="g194"><path
             id="path196"
             style="fill:none;stroke:#000000;stroke-width:6.00934982;stroke-linecap:butt;stroke-linejoin:round;stroke-miterlimit:10;stroke-dasharray:none;stroke-opacity:1"
             d="m 612.283,96.917 6.463,-6.463" /></g><g
           id="g198"><path
             id="path200"
             style="fill:none;stroke:#000000;stroke-width:6.00934982;stroke-linecap:butt;stroke-linejoin:round;stroke-miterlimit:10;stroke-dasharray:none;stroke-opacity:1"
             d="m 330.746,238.054 8.363,8.362" /></g><g
           id="g202"><path
             id="path204"
             style="fill:none;stroke:#000000;stroke-width:6.00934982;stroke-linecap:butt;stroke-linejoin:round;stroke-miterlimit:10;stroke-dasharray:none;stroke-opacity:1"
             d="m 347.499,254.806 8.362,8.363" /></g><g
           id="g206"><path
             id="path208"
             style="fill:none;stroke:#000000;stroke-width:6.00934982;stroke-linecap:butt;stroke-linejoin:round;stroke-miterlimit:10;stroke-dasharray:none;stroke-opacity:1"
             d="m 364.224,271.531 8.39,8.39" /></g><g
           id="g210"><path
             id="path212"
             style="fill:none;stroke:#000000;stroke-width:6.00934982;stroke-linecap:butt;stroke-linejoin:round;stroke-miterlimit:10;stroke-dasharray:none;stroke-opacity:1"
             d="m 380.976,288.283 8.363,8.363" /></g><g
           id="g214"><path
             id="path216"
             style="fill:none;stroke:#000000;stroke-width:6.00934982;stroke-linecap:butt;stroke-linejoin:round;stroke-miterlimit:10;stroke-dasharray:none;stroke-opacity:1"
             d="m 397.729,305.036 8.362,8.362" /></g><g
           id="g218"><path
             id="path220"
             style="fill:none;stroke:#000000;stroke-width:6.00934982;stroke-linecap:butt;stroke-linejoin:round;stroke-miterlimit:10;stroke-dasharray:none;stroke-opacity:1"
             d="m 414.454,321.761 8.362,8.362" /></g><g
           id="g222"><path
             id="path224"
             style="fill:none;stroke:#000000;stroke-width:6.00934982;stroke-linecap:butt;stroke-linejoin:round;stroke-miterlimit:10;stroke-dasharray:none;stroke-opacity:1"
             d="m 431.206,338.513 8.363,8.363" /></g><g
           id="g226"><path
             id="path228"
             style="fill:none;stroke:#000000;stroke-width:6.00934982;stroke-linecap:butt;stroke-linejoin:round;stroke-miterlimit:10;stroke-dasharray:none;stroke-opacity:1"
             d="m 447.931,355.238 8.39,8.39" /></g><g
           id="g230"><path
             id="path232"
             style="fill:none;stroke:#000000;stroke-width:6.00934982;stroke-linecap:butt;stroke-linejoin:round;stroke-miterlimit:10;stroke-dasharray:none;stroke-opacity:1"
             d="m 464.683,371.991 6.463,6.463" /></g><path
           id="path234"
           style="fill:#bf0041;fill-opacity:1;fill-rule:evenodd;stroke:none"
           d="m 179.518,551.282 c 3.969,0 7.37,-0.907 10.8,-2.891 3.43,-1.985 5.925,-4.479 7.909,-7.909 1.984,-3.43 2.891,-6.832 2.891,-10.8 0,-3.969 -0.907,-7.37 -2.891,-10.8 -1.984,-3.43 -4.479,-5.925 -7.909,-7.909 -3.43,-1.984 -6.831,-2.891 -10.8,-2.891 -3.968,0 -7.37,0.907 -10.8,2.891 -3.43,1.984 -5.924,4.479 -7.909,7.909 -1.984,3.43 -2.891,6.831 -2.891,10.8 0,3.968 0.907,7.37 2.891,10.8 1.985,3.43 4.479,5.924 7.909,7.909 3.43,1.984 6.832,2.891 10.8,2.891 z" /><path
           id="path236"
           style="fill:#bf0041;fill-opacity:1;fill-rule:evenodd;stroke:none"
           d="m 323.518,551.282 c 3.969,0 7.37,-0.907 10.8,-2.891 3.43,-1.985 5.925,-4.479 7.909,-7.909 1.984,-3.43 2.891,-6.832 2.891,-10.8 0,-3.969 -0.907,-7.37 -2.891,-10.8 -1.984,-3.43 -4.479,-5.925 -7.909,-7.909 -3.43,-1.984 -6.831,-2.891 -10.8,-2.891 -3.968,0 -7.37,0.907 -10.8,2.891 -3.43,1.984 -5.924,4.479 -7.909,7.909 -1.984,3.43 -2.891,6.831 -2.891,10.8 0,3.968 0.907,7.37 2.891,10.8 1.985,3.43 4.479,5.924 7.909,7.909 3.43,1.984 6.832,2.891 10.8,2.891 z" /><path
           id="path238"
           style="fill:#bf0041;fill-opacity:1;fill-rule:evenodd;stroke:none"
           d="m 474.718,551.282 c 3.969,0 7.37,-0.907 10.8,-2.891 3.43,-1.985 5.925,-4.479 7.909,-7.909 1.984,-3.43 2.891,-6.832 2.891,-10.8 0,-3.969 -0.907,-7.37 -2.891,-10.8 -1.984,-3.43 -4.479,-5.925 -7.909,-7.909 -3.43,-1.984 -6.831,-2.891 -10.8,-2.891 -3.968,0 -7.37,0.907 -10.8,2.891 -3.43,1.984 -5.924,4.479 -7.909,7.909 -1.984,3.43 -2.891,6.831 -2.891,10.8 0,3.968 0.907,7.37 2.891,10.8 1.985,3.43 4.479,5.924 7.909,7.909 3.43,1.984 6.832,2.891 10.8,2.891 z" /><path
           id="path240"
           style="fill:#bf0041;fill-opacity:1;fill-rule:evenodd;stroke:none"
           d="m 622.318,547.682 c 3.969,0 7.37,-0.907 10.8,-2.891 3.43,-1.985 5.925,-4.479 7.909,-7.909 1.984,-3.43 2.891,-6.832 2.891,-10.8 0,-3.969 -0.907,-7.37 -2.891,-10.8 -1.984,-3.43 -4.479,-5.925 -7.909,-7.909 -3.43,-1.984 -6.831,-2.891 -10.8,-2.891 -3.968,0 -7.37,0.907 -10.8,2.891 -3.43,1.984 -5.924,4.479 -7.909,7.909 -1.984,3.43 -2.891,6.831 -2.891,10.8 0,3.968 0.907,7.37 2.891,10.8 1.985,3.43 4.479,5.924 7.909,7.909 3.43,1.984 6.832,2.891 10.8,2.891 z" /><path
           id="path242"
           style="fill:#bf0041;fill-opacity:1;fill-rule:evenodd;stroke:none"
           d="m 179.518,403.682 c 3.969,0 7.37,-0.907 10.8,-2.891 3.43,-1.985 5.925,-4.479 7.909,-7.909 1.984,-3.43 2.891,-6.832 2.891,-10.8 0,-3.969 -0.907,-7.37 -2.891,-10.8 -1.984,-3.43 -4.479,-5.925 -7.909,-7.909 -3.43,-1.984 -6.831,-2.891 -10.8,-2.891 -3.968,0 -7.37,0.907 -10.8,2.891 -3.43,1.984 -5.924,4.479 -7.909,7.909 -1.984,3.43 -2.891,6.831 -2.891,10.8 0,3.968 0.907,7.37 2.891,10.8 1.985,3.43 4.479,5.924 7.909,7.909 3.43,1.984 6.832,2.891 10.8,2.891 z" /><path
           id="path244"
           style="fill:#bf0041;fill-opacity:1;fill-rule:evenodd;stroke:none"
           d="m 323.518,403.682 c 3.969,0 7.37,-0.907 10.8,-2.891 3.43,-1.985 5.925,-4.479 7.909,-7.909 1.984,-3.43 2.891,-6.832 2.891,-10.8 0,-3.969 -0.907,-7.37 -2.891,-10.8 -1.984,-3.43 -4.479,-5.925 -7.909,-7.909 -3.43,-1.984 -6.831,-2.891 -10.8,-2.891 -3.968,0 -7.37,0.907 -10.8,2.891 -3.43,1.984 -5.924,4.479 -7.909,7.909 -1.984,3.43 -2.891,6.831 -2.891,10.8 0,3.968 0.907,7.37 2.891,10.8 1.985,3.43 4.479,5.924 7.909,7.909 3.43,1.984 6.832,2.891 10.8,2.891 z" /><path
           id="path246"
           style="fill:#bf0041;fill-opacity:1;fill-rule:evenodd;stroke:none"
           d="m 474.718,403.682 c 3.969,0 7.37,-0.907 10.8,-2.891 3.43,-1.985 5.925,-4.479 7.909,-7.909 1.984,-3.43 2.891,-6.832 2.891,-10.8 0,-3.969 -0.907,-7.37 -2.891,-10.8 -1.984,-3.43 -4.479,-5.925 -7.909,-7.909 -3.43,-1.984 -6.831,-2.891 -10.8,-2.891 -3.968,0 -7.37,0.907 -10.8,2.891 -3.43,1.984 -5.924,4.479 -7.909,7.909 -1.984,3.43 -2.891,6.831 -2.891,10.8 0,3.968 0.907,7.37 2.891,10.8 1.985,3.43 4.479,5.924 7.909,7.909 3.43,1.984 6.832,2.891 10.8,2.891 z" /><path
           id="path248"
           style="fill:#bf0041;fill-opacity:1;fill-rule:evenodd;stroke:none"
           d="m 622.318,407.282 c 3.969,0 7.37,-0.907 10.8,-2.891 3.43,-1.985 5.925,-4.479 7.909,-7.909 1.984,-3.43 2.891,-6.832 2.891,-10.8 0,-3.969 -0.907,-7.37 -2.891,-10.8 -1.984,-3.43 -4.479,-5.925 -7.909,-7.909 -3.43,-1.984 -6.831,-2.891 -10.8,-2.891 -3.968,0 -7.37,0.907 -10.8,2.891 -3.43,1.984 -5.924,4.479 -7.909,7.909 -1.984,3.43 -2.891,6.831 -2.891,10.8 0,3.968 0.907,7.37 2.891,10.8 1.985,3.43 4.479,5.924 7.909,7.909 3.43,1.984 6.832,2.891 10.8,2.891 z" /><path
           id="path250"
           style="fill:#bf0041;fill-opacity:1;fill-rule:evenodd;stroke:none"
           d="m 179.518,256.082 c 3.969,0 7.37,-0.907 10.8,-2.891 3.43,-1.985 5.925,-4.479 7.909,-7.909 1.984,-3.43 2.891,-6.832 2.891,-10.8 0,-3.969 -0.907,-7.37 -2.891,-10.8 -1.984,-3.43 -4.479,-5.925 -7.909,-7.909 -3.43,-1.984 -6.831,-2.891 -10.8,-2.891 -3.968,0 -7.37,0.907 -10.8,2.891 -3.43,1.984 -5.924,4.479 -7.909,7.909 -1.984,3.43 -2.891,6.831 -2.891,10.8 0,3.968 0.907,7.37 2.891,10.8 1.985,3.43 4.479,5.924 7.909,7.909 3.43,1.984 6.832,2.891 10.8,2.891 z" /><path
           id="path252"
           style="fill:#bf0041;fill-opacity:1;fill-rule:evenodd;stroke:none"
           d="m 323.518,256.082 c 3.969,0 7.37,-0.907 10.8,-2.891 3.43,-1.985 5.925,-4.479 7.909,-7.909 1.984,-3.43 2.891,-6.832 2.891,-10.8 0,-3.969 -0.907,-7.37 -2.891,-10.8 -1.984,-3.43 -4.479,-5.925 -7.909,-7.909 -3.43,-1.984 -6.831,-2.891 -10.8,-2.891 -3.968,0 -7.37,0.907 -10.8,2.891 -3.43,1.984 -5.924,4.479 -7.909,7.909 -1.984,3.43 -2.891,6.831 -2.891,10.8 0,3.968 0.907,7.37 2.891,10.8 1.985,3.43 4.479,5.924 7.909,7.909 3.43,1.984 6.832,2.891 10.8,2.891 z" /><path
           id="path254"
           style="fill:#bf0041;fill-opacity:1;fill-rule:evenodd;stroke:none"
           d="m 478.318,256.082 c 3.969,0 7.37,-0.907 10.8,-2.891 3.43,-1.985 5.925,-4.479 7.909,-7.909 1.984,-3.43 2.891,-6.832 2.891,-10.8 0,-3.969 -0.907,-7.37 -2.891,-10.8 -1.984,-3.43 -4.479,-5.925 -7.909,-7.909 -3.43,-1.984 -6.831,-2.891 -10.8,-2.891 -3.968,0 -7.37,0.907 -10.8,2.891 -3.43,1.984 -5.924,4.479 -7.909,7.909 -1.984,3.43 -2.891,6.831 -2.891,10.8 0,3.968 0.907,7.37 2.891,10.8 1.985,3.43 4.479,5.924 7.909,7.909 3.43,1.984 6.832,2.891 10.8,2.891 z" /><path
           id="path256"
           style="fill:#bf0041;fill-opacity:1;fill-rule:evenodd;stroke:none"
           d="m 622.318,256.082 c 3.969,0 7.37,-0.907 10.8,-2.891 3.43,-1.985 5.925,-4.479 7.909,-7.909 1.984,-3.43 2.891,-6.832 2.891,-10.8 0,-3.969 -0.907,-7.37 -2.891,-10.8 -1.984,-3.43 -4.479,-5.925 -7.909,-7.909 -3.43,-1.984 -6.831,-2.891 -10.8,-2.891 -3.968,0 -7.37,0.907 -10.8,2.891 -3.43,1.984 -5.924,4.479 -7.909,7.909 -1.984,3.43 -2.891,6.831 -2.891,10.8 0,3.968 0.907,7.37 2.891,10.8 1.985,3.43 4.479,5.924 7.909,7.909 3.43,1.984 6.832,2.891 10.8,2.891 z" /><path
           id="path258"
           style="fill:#bf0041;fill-opacity:1;fill-rule:evenodd;stroke:none"
           d="m 179.518,108.482 c 3.969,0 7.37,-0.907 10.8,-2.891 3.43,-1.985 5.925,-4.479 7.909,-7.909 1.984,-3.43 2.891,-6.832 2.891,-10.8 0,-3.969 -0.907,-7.37 -2.891,-10.8 -1.984,-3.43 -4.479,-5.925 -7.909,-7.909 -3.43,-1.984 -6.831,-2.891 -10.8,-2.891 -3.968,0 -7.37,0.907 -10.8,2.891 -3.43,1.984 -5.924,4.479 -7.909,7.909 -1.984,3.43 -2.891,6.831 -2.891,10.8 0,3.968 0.907,7.37 2.891,10.8 1.985,3.43 4.479,5.924 7.909,7.909 3.43,1.984 6.832,2.891 10.8,2.891 z" /><path
           id="path260"
           style="fill:#bf0041;fill-opacity:1;fill-rule:evenodd;stroke:none"
           d="m 323.518,112.082 c 3.969,0 7.37,-0.907 10.8,-2.891 3.43,-1.985 5.925,-4.479 7.909,-7.909 1.984,-3.43 2.891,-6.832 2.891,-10.8 0,-3.969 -0.907,-7.37 -2.891,-10.8 -1.984,-3.43 -4.479,-5.925 -7.909,-7.909 -3.43,-1.984 -6.831,-2.891 -10.8,-2.891 -3.968,0 -7.37,0.907 -10.8,2.891 -3.43,1.984 -5.924,4.479 -7.909,7.909 -1.984,3.43 -2.891,6.831 -2.891,10.8 0,3.968 0.907,7.37 2.891,10.8 1.985,3.43 4.479,5.924 7.909,7.909 3.43,1.984 6.832,2.891 10.8,2.891 z" /><path
           id="path262"
           style="fill:#bf0041;fill-opacity:1;fill-rule:evenodd;stroke:none"
           d="m 474.718,112.082 c 3.969,0 7.37,-0.907 10.8,-2.891 3.43,-1.985 5.925,-4.479 7.909,-7.909 1.984,-3.43 2.891,-6.832 2.891,-10.8 0,-3.969 -0.907,-7.37 -2.891,-10.8 -1.984,-3.43 -4.479,-5.925 -7.909,-7.909 -3.43,-1.984 -6.831,-2.891 -10.8,-2.891 -3.968,0 -7.37,0.907 -10.8,2.891 -3.43,1.984 -5.924,4.479 -7.909,7.909 -1.984,3.43 -2.891,6.831 -2.891,10.8 0,3.968 0.907,7.37 2.891,10.8 1.985,3.43 4.479,5.924 7.909,7.909 3.43,1.984 6.832,2.891 10.8,2.891 z" /><path
           id="path264"
           style="fill:#bf0041;fill-opacity:1;fill-rule:evenodd;stroke:none"
           d="m 625.918,112.082 c 3.969,0 7.37,-0.907 10.8,-2.891 3.43,-1.985 5.925,-4.479 7.909,-7.909 1.984,-3.43 2.891,-6.832 2.891,-10.8 0,-3.969 -0.907,-7.37 -2.891,-10.8 -1.984,-3.43 -4.479,-5.925 -7.909,-7.909 -3.43,-1.984 -6.831,-2.891 -10.8,-2.891 -3.968,0 -7.37,0.907 -10.8,2.891 -3.43,1.984 -5.924,4.479 -7.909,7.909 -1.984,3.43 -2.891,6.831 -2.891,10.8 0,3.968 0.907,7.37 2.891,10.8 1.985,3.43 4.479,5.924 7.909,7.909 3.43,1.984 6.832,2.891 10.8,2.891 z" /></g></g></g></svg>