<?xml version="1.0" encoding="UTF-8" standalone="no"?>
<svg
   xmlns:dc="http://purl.org/dc/elements/1.1/"
   xmlns:cc="http://creativecommons.org/ns#"
   xmlns:rdf="http://www.w3.org/1999/02/22-rdf-syntax-ns#"
   xmlns:svg="http://www.w3.org/2000/svg"
   xmlns="http://www.w3.org/2000/svg"
   viewBox="0 0 768 576"
   height="576"
   width="768"
   xml:space="preserve"
   id="svg2"
   version="1.1"><metadata
     id="metadata8"><rdf:RDF><cc:Work
         rdf:about=""><dc:format>image/svg+xml</dc:format><dc:type
           rdf:resource="http://purl.org/dc/dcmitype/StillImage" /></cc:Work></rdf:RDF></metadata><defs
     id="defs6"><clipPath
       id="clipPath22"
       clipPathUnits="userSpaceOnUse"><path
         id="path20"
         d="M 103.08,61.28 H 555.22 V 411.22 H 103.08 Z" /></clipPath><clipPath
       id="clipPath40"
       clipPathUnits="userSpaceOnUse"><path
         id="path38"
         d="M 103.08,61.28 H 555.22 V 411.22 H 103.08 Z" /></clipPath><clipPath
       id="clipPath58"
       clipPathUnits="userSpaceOnUse"><path
         id="path56"
         d="M 103.08,61.28 H 555.22 V 411.22 H 103.08 Z" /></clipPath><clipPath
       id="clipPath76"
       clipPathUnits="userSpaceOnUse"><path
         id="path74"
         d="M 103.08,61.28 H 555.22 V 411.22 H 103.08 Z" /></clipPath><clipPath
       id="clipPath94"
       clipPathUnits="userSpaceOnUse"><path
         id="path92"
         d="M 103.08,61.28 H 555.22 V 411.22 H 103.08 Z" /></clipPath><clipPath
       id="clipPath112"
       clipPathUnits="userSpaceOnUse"><path
         id="path110"
         d="M 103.08,61.28 H 555.22 V 411.22 H 103.08 Z" /></clipPath><clipPath
       id="clipPath130"
       clipPathUnits="userSpaceOnUse"><path
         id="path128"
         d="M 103.08,61.28 H 555.22 V 411.22 H 103.08 Z" /></clipPath><clipPath
       id="clipPath148"
       clipPathUnits="userSpaceOnUse"><path
         id="path146"
         d="M 103.08,61.28 H 555.22 V 411.22 H 103.08 Z" /></clipPath><clipPath
       id="clipPath166"
       clipPathUnits="userSpaceOnUse"><path
         id="path164"
         d="M 103.08,61.28 H 555.22 V 411.22 H 103.08 Z" /></clipPath><clipPath
       id="clipPath194"
       clipPathUnits="userSpaceOnUse"><path
         id="path192"
         d="M 103.08,61.28 H 555.22 V 411.22 H 103.08 Z" /></clipPath><clipPath
       id="clipPath216"
       clipPathUnits="userSpaceOnUse"><path
         id="path214"
         d="M -1021,-463 H 1794 V 1233 H -1021 Z" /></clipPath><clipPath
       id="clipPath226"
       clipPathUnits="userSpaceOnUse"><path
         id="path224"
         d="M 103.08,61.28 H 555.22 V 411.22 H 103.08 Z" /></clipPath><clipPath
       id="clipPath248"
       clipPathUnits="userSpaceOnUse"><path
         id="path246"
         d="M -1021,-463 H 1794 V 1233 H -1021 Z" /></clipPath><clipPath
       id="clipPath258"
       clipPathUnits="userSpaceOnUse"><path
         id="path256"
         d="M 103.08,61.28 H 555.22 V 411.22 H 103.08 Z" /></clipPath><clipPath
       id="clipPath280"
       clipPathUnits="userSpaceOnUse"><path
         id="path278"
         d="M -1021,-463 H 1794 V 1233 H -1021 Z" /></clipPath><clipPath
       id="clipPath290"
       clipPathUnits="userSpaceOnUse"><path
         id="path288"
         d="M 103.08,61.28 H 555.22 V 411.22 H 103.08 Z" /></clipPath><clipPath
       id="clipPath312"
       clipPathUnits="userSpaceOnUse"><path
         id="path310"
         d="M -1021,-463 H 1794 V 1233 H -1021 Z" /></clipPath><clipPath
       id="clipPath322"
       clipPathUnits="userSpaceOnUse"><path
         id="path320"
         d="M 103.08,61.28 H 555.22 V 411.22 H 103.08 Z" /></clipPath><clipPath
       id="clipPath344"
       clipPathUnits="userSpaceOnUse"><path
         id="path342"
         d="M -1021,-463 H 1794 V 1233 H -1021 Z" /></clipPath><clipPath
       id="clipPath354"
       clipPathUnits="userSpaceOnUse"><path
         id="path352"
         d="M 103.08,61.28 H 555.22 V 411.22 H 103.08 Z" /></clipPath><clipPath
       id="clipPath376"
       clipPathUnits="userSpaceOnUse"><path
         id="path374"
         d="M -1021,-463 H 1794 V 1233 H -1021 Z" /></clipPath><clipPath
       id="clipPath386"
       clipPathUnits="userSpaceOnUse"><path
         id="path384"
         d="M 103.08,61.28 H 555.22 V 411.22 H 103.08 Z" /></clipPath><clipPath
       id="clipPath430"
       clipPathUnits="userSpaceOnUse"><path
         id="path428"
         d="M 103.08,61.28 H 555.22 V 411.22 H 103.08 Z" /></clipPath></defs><g
     transform="matrix(1.3333333,0,0,-1.3333333,0,575.99999)"
     id="g10"><path
       id="path12"
       style="fill:#ffffff;fill-opacity:1;fill-rule:nonzero;stroke:none"
       d="M 0,0 H 576 V 432 H 0 Z" /><path
       id="path14"
       style="fill:#ffffff;fill-opacity:1;fill-rule:nonzero;stroke:none"
       d="M 103.08,61.28 H 555.22 V 411.22 H 103.08 Z" /><g
       id="g16"><g
         clip-path="url(#clipPath22)"
         id="g18"><path
           id="path24"
           style="fill:none;stroke:#b0b0b0;stroke-width:0.80000001;stroke-linecap:square;stroke-linejoin:round;stroke-miterlimit:10;stroke-dasharray:none;stroke-opacity:1"
           d="M 112.38082,61.28 V 411.22" /></g></g><g
       id="g26"><path
         id="path28"
         style="fill:#000000;fill-opacity:1;fill-rule:nonzero;stroke:#000000;stroke-width:0.80000001;stroke-linecap:butt;stroke-linejoin:round;stroke-miterlimit:10;stroke-dasharray:none;stroke-opacity:1"
         d="m 112.38082,61.28 v -3.5" /><text
         id="text32"
         style="font-variant:normal;font-weight:normal;font-size:16px;font-family:'DejaVu Sans';-inkscape-font-specification:DejaVuSans;writing-mode:lr-tb;fill:#000000;fill-opacity:1;fill-rule:nonzero;stroke:none"
         transform="matrix(1,0,0,-1,107.28707,42.12375)"><tspan
           id="tspan30"
           y="0"
           x="0">0</tspan></text>
</g><g
       id="g34"><g
         clip-path="url(#clipPath40)"
         id="g36"><path
           id="path42"
           style="fill:none;stroke:#b0b0b0;stroke-width:0.80000001;stroke-linecap:square;stroke-linejoin:round;stroke-miterlimit:10;stroke-dasharray:none;stroke-opacity:1"
           d="M 163.49152,61.28 V 411.22" /></g></g><g
       id="g44"><path
         id="path46"
         style="fill:#000000;fill-opacity:1;fill-rule:nonzero;stroke:#000000;stroke-width:0.80000001;stroke-linecap:butt;stroke-linejoin:round;stroke-miterlimit:10;stroke-dasharray:none;stroke-opacity:1"
         d="m 163.49152,61.28 v -3.5" /><text
         id="text50"
         style="font-variant:normal;font-weight:normal;font-size:16px;font-family:'DejaVu Sans';-inkscape-font-specification:DejaVuSans;writing-mode:lr-tb;fill:#000000;fill-opacity:1;fill-rule:nonzero;stroke:none"
         transform="matrix(1,0,0,-1,153.30402,42.12375)"><tspan
           id="tspan48"
           y="0"
           x="0 10.176">10</tspan></text>
</g><g
       id="g52"><g
         clip-path="url(#clipPath58)"
         id="g54"><path
           id="path60"
           style="fill:none;stroke:#b0b0b0;stroke-width:0.80000001;stroke-linecap:square;stroke-linejoin:round;stroke-miterlimit:10;stroke-dasharray:none;stroke-opacity:1"
           d="M 214.60222,61.28 V 411.22" /></g></g><g
       id="g62"><path
         id="path64"
         style="fill:#000000;fill-opacity:1;fill-rule:nonzero;stroke:#000000;stroke-width:0.80000001;stroke-linecap:butt;stroke-linejoin:round;stroke-miterlimit:10;stroke-dasharray:none;stroke-opacity:1"
         d="m 214.60222,61.28 v -3.5" /><text
         id="text68"
         style="font-variant:normal;font-weight:normal;font-size:16px;font-family:'DejaVu Sans';-inkscape-font-specification:DejaVuSans;writing-mode:lr-tb;fill:#000000;fill-opacity:1;fill-rule:nonzero;stroke:none"
         transform="matrix(1,0,0,-1,204.41473,42.12375)"><tspan
           id="tspan66"
           y="0"
           x="0 10.176">20</tspan></text>
</g><g
       id="g70"><g
         clip-path="url(#clipPath76)"
         id="g72"><path
           id="path78"
           style="fill:none;stroke:#b0b0b0;stroke-width:0.80000001;stroke-linecap:square;stroke-linejoin:round;stroke-miterlimit:10;stroke-dasharray:none;stroke-opacity:1"
           d="M 265.71293,61.28 V 411.22" /></g></g><g
       id="g80"><path
         id="path82"
         style="fill:#000000;fill-opacity:1;fill-rule:nonzero;stroke:#000000;stroke-width:0.80000001;stroke-linecap:butt;stroke-linejoin:round;stroke-miterlimit:10;stroke-dasharray:none;stroke-opacity:1"
         d="m 265.71293,61.28 v -3.5" /><text
         id="text86"
         style="font-variant:normal;font-weight:normal;font-size:16px;font-family:'DejaVu Sans';-inkscape-font-specification:DejaVuSans;writing-mode:lr-tb;fill:#000000;fill-opacity:1;fill-rule:nonzero;stroke:none"
         transform="matrix(1,0,0,-1,255.52543,42.12375)"><tspan
           id="tspan84"
           y="0"
           x="0 10.176">30</tspan></text>
</g><g
       id="g88"><g
         clip-path="url(#clipPath94)"
         id="g90"><path
           id="path96"
           style="fill:none;stroke:#b0b0b0;stroke-width:0.80000001;stroke-linecap:square;stroke-linejoin:round;stroke-miterlimit:10;stroke-dasharray:none;stroke-opacity:1"
           d="M 316.82363,61.28 V 411.22" /></g></g><g
       id="g98"><path
         id="path100"
         style="fill:#000000;fill-opacity:1;fill-rule:nonzero;stroke:#000000;stroke-width:0.80000001;stroke-linecap:butt;stroke-linejoin:round;stroke-miterlimit:10;stroke-dasharray:none;stroke-opacity:1"
         d="m 316.82363,61.28 v -3.5" /><text
         id="text104"
         style="font-variant:normal;font-weight:normal;font-size:16px;font-family:'DejaVu Sans';-inkscape-font-specification:DejaVuSans;writing-mode:lr-tb;fill:#000000;fill-opacity:1;fill-rule:nonzero;stroke:none"
         transform="matrix(1,0,0,-1,306.63613,42.12375)"><tspan
           id="tspan102"
           y="0"
           x="0 10.176">40</tspan></text>
</g><g
       id="g106"><g
         clip-path="url(#clipPath112)"
         id="g108"><path
           id="path114"
           style="fill:none;stroke:#b0b0b0;stroke-width:0.80000001;stroke-linecap:square;stroke-linejoin:round;stroke-miterlimit:10;stroke-dasharray:none;stroke-opacity:1"
           d="M 367.93433,61.28 V 411.22" /></g></g><g
       id="g116"><path
         id="path118"
         style="fill:#000000;fill-opacity:1;fill-rule:nonzero;stroke:#000000;stroke-width:0.80000001;stroke-linecap:butt;stroke-linejoin:round;stroke-miterlimit:10;stroke-dasharray:none;stroke-opacity:1"
         d="m 367.93433,61.28 v -3.5" /><text
         id="text122"
         style="font-variant:normal;font-weight:normal;font-size:16px;font-family:'DejaVu Sans';-inkscape-font-specification:DejaVuSans;writing-mode:lr-tb;fill:#000000;fill-opacity:1;fill-rule:nonzero;stroke:none"
         transform="matrix(1,0,0,-1,357.74683,42.12375)"><tspan
           id="tspan120"
           y="0"
           x="0 10.176">50</tspan></text>
</g><g
       id="g124"><g
         clip-path="url(#clipPath130)"
         id="g126"><path
           id="path132"
           style="fill:none;stroke:#b0b0b0;stroke-width:0.80000001;stroke-linecap:square;stroke-linejoin:round;stroke-miterlimit:10;stroke-dasharray:none;stroke-opacity:1"
           d="M 419.04504,61.28 V 411.22" /></g></g><g
       id="g134"><path
         id="path136"
         style="fill:#000000;fill-opacity:1;fill-rule:nonzero;stroke:#000000;stroke-width:0.80000001;stroke-linecap:butt;stroke-linejoin:round;stroke-miterlimit:10;stroke-dasharray:none;stroke-opacity:1"
         d="m 419.04504,61.28 v -3.5" /><text
         id="text140"
         style="font-variant:normal;font-weight:normal;font-size:16px;font-family:'DejaVu Sans';-inkscape-font-specification:DejaVuSans;writing-mode:lr-tb;fill:#000000;fill-opacity:1;fill-rule:nonzero;stroke:none"
         transform="matrix(1,0,0,-1,408.85754,42.12375)"><tspan
           id="tspan138"
           y="0"
           x="0 10.176">60</tspan></text>
</g><g
       id="g142"><g
         clip-path="url(#clipPath148)"
         id="g144"><path
           id="path150"
           style="fill:none;stroke:#b0b0b0;stroke-width:0.80000001;stroke-linecap:square;stroke-linejoin:round;stroke-miterlimit:10;stroke-dasharray:none;stroke-opacity:1"
           d="M 470.15574,61.28 V 411.22" /></g></g><g
       id="g152"><path
         id="path154"
         style="fill:#000000;fill-opacity:1;fill-rule:nonzero;stroke:#000000;stroke-width:0.80000001;stroke-linecap:butt;stroke-linejoin:round;stroke-miterlimit:10;stroke-dasharray:none;stroke-opacity:1"
         d="m 470.15574,61.28 v -3.5" /><text
         id="text158"
         style="font-variant:normal;font-weight:normal;font-size:16px;font-family:'DejaVu Sans';-inkscape-font-specification:DejaVuSans;writing-mode:lr-tb;fill:#000000;fill-opacity:1;fill-rule:nonzero;stroke:none"
         transform="matrix(1,0,0,-1,459.96824,42.12375)"><tspan
           id="tspan156"
           y="0"
           x="0 10.176">70</tspan></text>
</g><g
       id="g160"><g
         clip-path="url(#clipPath166)"
         id="g162"><path
           id="path168"
           style="fill:none;stroke:#b0b0b0;stroke-width:0.80000001;stroke-linecap:square;stroke-linejoin:round;stroke-miterlimit:10;stroke-dasharray:none;stroke-opacity:1"
           d="M 521.26644,61.28 V 411.22" /></g></g><g
       id="g170"><path
         id="path172"
         style="fill:#000000;fill-opacity:1;fill-rule:nonzero;stroke:#000000;stroke-width:0.80000001;stroke-linecap:butt;stroke-linejoin:round;stroke-miterlimit:10;stroke-dasharray:none;stroke-opacity:1"
         d="m 521.26644,61.28 v -3.5" /><text
         id="text176"
         style="font-variant:normal;font-weight:normal;font-size:16px;font-family:'DejaVu Sans';-inkscape-font-specification:DejaVuSans;writing-mode:lr-tb;fill:#000000;fill-opacity:1;fill-rule:nonzero;stroke:none"
         transform="matrix(1,0,0,-1,511.07894,42.12375)"><tspan
           id="tspan174"
           y="0"
           x="0 10.176">80</tspan></text>
<g
         transform="translate(313.65,22.639375)"
         id="g178"><text
           id="text182"
           style="font-style:italic;font-variant:normal;font-size:16px;font-family:'DejaVu Sans';-inkscape-font-specification:DejaVuSans-Oblique;writing-mode:lr-tb;fill:#000000;fill-opacity:1;fill-rule:nonzero;stroke:none"
           transform="matrix(1,0,0,-1,0,0.328125)"><tspan
             id="tspan180"
             y="0"
             x="0">T</tspan></text>
<text
           id="text186"
           style="font-variant:normal;font-weight:normal;font-size:16px;font-family:'DejaVu Sans';-inkscape-font-specification:DejaVuSans;writing-mode:lr-tb;fill:#000000;fill-opacity:1;fill-rule:nonzero;stroke:none"
           transform="matrix(1,0,0,-1,9.7734375,0.328125)"><tspan
             id="tspan184"
             y="0"
             x="0 5.0859375 10.171875">, K</tspan></text>
</g></g><g
       id="g188"><g
         clip-path="url(#clipPath194)"
         id="g190"><path
           id="path196"
           style="fill:none;stroke:#b0b0b0;stroke-width:0.80000001;stroke-linecap:square;stroke-linejoin:round;stroke-miterlimit:10;stroke-dasharray:none;stroke-opacity:1"
           d="M 103.08,67.14172 H 555.22" /></g></g><g
       id="g198"><path
         id="path200"
         style="fill:#000000;fill-opacity:1;fill-rule:nonzero;stroke:#000000;stroke-width:0.80000001;stroke-linecap:butt;stroke-linejoin:round;stroke-miterlimit:10;stroke-dasharray:none;stroke-opacity:1"
         d="m 103.08,67.14172 h -3.5" /><g
         transform="translate(47.0175,61.063595)"
         id="g202"><text
           id="text206"
           style="font-variant:normal;font-weight:normal;font-size:16px;font-family:'DejaVu Sans';-inkscape-font-specification:DejaVuSans;writing-mode:lr-tb;fill:#000000;fill-opacity:1;fill-rule:nonzero;stroke:none"
           transform="matrix(1,0,0,-1,13.40625,0)"><tspan
             id="tspan204"
             y="0"
             x="0 10.176 15.264 25.440001">0.06</tspan></text>
<g
           transform="scale(0.016)"
           id="g208"><g
             id="g210"><g
               clip-path="url(#clipPath216)"
               id="g212"><path
                 id="path218"
                 style="fill:#000000;fill-opacity:1;fill-rule:nonzero;stroke:none"
                 d="M 106,355 H 732 V 272 H 106 v 83" /></g></g></g></g></g><g
       id="g220"><g
         clip-path="url(#clipPath226)"
         id="g222"><path
           id="path228"
           style="fill:none;stroke:#b0b0b0;stroke-width:0.80000001;stroke-linecap:square;stroke-linejoin:round;stroke-miterlimit:10;stroke-dasharray:none;stroke-opacity:1"
           d="M 103.08,117.57183 H 555.22" /></g></g><g
       id="g230"><path
         id="path232"
         style="fill:#000000;fill-opacity:1;fill-rule:nonzero;stroke:#000000;stroke-width:0.80000001;stroke-linecap:butt;stroke-linejoin:round;stroke-miterlimit:10;stroke-dasharray:none;stroke-opacity:1"
         d="m 103.08,117.57183 h -3.5" /><g
         transform="translate(47.0175,111.49371)"
         id="g234"><text
           id="text238"
           style="font-variant:normal;font-weight:normal;font-size:16px;font-family:'DejaVu Sans';-inkscape-font-specification:DejaVuSans;writing-mode:lr-tb;fill:#000000;fill-opacity:1;fill-rule:nonzero;stroke:none"
           transform="matrix(1,0,0,-1,13.40625,0)"><tspan
             id="tspan236"
             y="0"
             x="0 10.176 15.264 25.440001">0.05</tspan></text>
<g
           transform="scale(0.016)"
           id="g240"><g
             id="g242"><g
               clip-path="url(#clipPath248)"
               id="g244"><path
                 id="path250"
                 style="fill:#000000;fill-opacity:1;fill-rule:nonzero;stroke:none"
                 d="M 106,355 H 732 V 272 H 106 v 83" /></g></g></g></g></g><g
       id="g252"><g
         clip-path="url(#clipPath258)"
         id="g254"><path
           id="path260"
           style="fill:none;stroke:#b0b0b0;stroke-width:0.80000001;stroke-linecap:square;stroke-linejoin:round;stroke-miterlimit:10;stroke-dasharray:none;stroke-opacity:1"
           d="M 103.08,168.00195 H 555.22" /></g></g><g
       id="g262"><path
         id="path264"
         style="fill:#000000;fill-opacity:1;fill-rule:nonzero;stroke:#000000;stroke-width:0.80000001;stroke-linecap:butt;stroke-linejoin:round;stroke-miterlimit:10;stroke-dasharray:none;stroke-opacity:1"
         d="m 103.08,168.00195 h -3.5" /><g
         transform="translate(47.0175,161.92382)"
         id="g266"><text
           id="text270"
           style="font-variant:normal;font-weight:normal;font-size:16px;font-family:'DejaVu Sans';-inkscape-font-specification:DejaVuSans;writing-mode:lr-tb;fill:#000000;fill-opacity:1;fill-rule:nonzero;stroke:none"
           transform="matrix(1,0,0,-1,13.40625,0)"><tspan
             id="tspan268"
             y="0"
             x="0 10.176 15.264 25.440001">0.04</tspan></text>
<g
           transform="scale(0.016)"
           id="g272"><g
             id="g274"><g
               clip-path="url(#clipPath280)"
               id="g276"><path
                 id="path282"
                 style="fill:#000000;fill-opacity:1;fill-rule:nonzero;stroke:none"
                 d="M 106,355 H 732 V 272 H 106 v 83" /></g></g></g></g></g><g
       id="g284"><g
         clip-path="url(#clipPath290)"
         id="g286"><path
           id="path292"
           style="fill:none;stroke:#b0b0b0;stroke-width:0.80000001;stroke-linecap:square;stroke-linejoin:round;stroke-miterlimit:10;stroke-dasharray:none;stroke-opacity:1"
           d="M 103.08,218.43206 H 555.22" /></g></g><g
       id="g294"><path
         id="path296"
         style="fill:#000000;fill-opacity:1;fill-rule:nonzero;stroke:#000000;stroke-width:0.80000001;stroke-linecap:butt;stroke-linejoin:round;stroke-miterlimit:10;stroke-dasharray:none;stroke-opacity:1"
         d="m 103.08,218.43206 h -3.5" /><g
         transform="translate(47.0175,212.35394)"
         id="g298"><text
           id="text302"
           style="font-variant:normal;font-weight:normal;font-size:16px;font-family:'DejaVu Sans';-inkscape-font-specification:DejaVuSans;writing-mode:lr-tb;fill:#000000;fill-opacity:1;fill-rule:nonzero;stroke:none"
           transform="matrix(1,0,0,-1,13.40625,0)"><tspan
             id="tspan300"
             y="0"
             x="0 10.176 15.264 25.440001">0.03</tspan></text>
<g
           transform="scale(0.016)"
           id="g304"><g
             id="g306"><g
               clip-path="url(#clipPath312)"
               id="g308"><path
                 id="path314"
                 style="fill:#000000;fill-opacity:1;fill-rule:nonzero;stroke:none"
                 d="M 106,355 H 732 V 272 H 106 v 83" /></g></g></g></g></g><g
       id="g316"><g
         clip-path="url(#clipPath322)"
         id="g318"><path
           id="path324"
           style="fill:none;stroke:#b0b0b0;stroke-width:0.80000001;stroke-linecap:square;stroke-linejoin:round;stroke-miterlimit:10;stroke-dasharray:none;stroke-opacity:1"
           d="M 103.08,268.86218 H 555.22" /></g></g><g
       id="g326"><path
         id="path328"
         style="fill:#000000;fill-opacity:1;fill-rule:nonzero;stroke:#000000;stroke-width:0.80000001;stroke-linecap:butt;stroke-linejoin:round;stroke-miterlimit:10;stroke-dasharray:none;stroke-opacity:1"
         d="m 103.08,268.86218 h -3.5" /><g
         transform="translate(47.0175,262.78405)"
         id="g330"><text
           id="text334"
           style="font-variant:normal;font-weight:normal;font-size:16px;font-family:'DejaVu Sans';-inkscape-font-specification:DejaVuSans;writing-mode:lr-tb;fill:#000000;fill-opacity:1;fill-rule:nonzero;stroke:none"
           transform="matrix(1,0,0,-1,13.40625,0)"><tspan
             id="tspan332"
             y="0"
             x="0 10.176 15.264 25.440001">0.02</tspan></text>
<g
           transform="scale(0.016)"
           id="g336"><g
             id="g338"><g
               clip-path="url(#clipPath344)"
               id="g340"><path
                 id="path346"
                 style="fill:#000000;fill-opacity:1;fill-rule:nonzero;stroke:none"
                 d="M 106,355 H 732 V 272 H 106 v 83" /></g></g></g></g></g><g
       id="g348"><g
         clip-path="url(#clipPath354)"
         id="g350"><path
           id="path356"
           style="fill:none;stroke:#b0b0b0;stroke-width:0.80000001;stroke-linecap:square;stroke-linejoin:round;stroke-miterlimit:10;stroke-dasharray:none;stroke-opacity:1"
           d="M 103.08,319.29229 H 555.22" /></g></g><g
       id="g358"><path
         id="path360"
         style="fill:#000000;fill-opacity:1;fill-rule:nonzero;stroke:#000000;stroke-width:0.80000001;stroke-linecap:butt;stroke-linejoin:round;stroke-miterlimit:10;stroke-dasharray:none;stroke-opacity:1"
         d="m 103.08,319.29229 h -3.5" /><g
         transform="translate(47.0175,313.21417)"
         id="g362"><text
           id="text366"
           style="font-variant:normal;font-weight:normal;font-size:16px;font-family:'DejaVu Sans';-inkscape-font-specification:DejaVuSans;writing-mode:lr-tb;fill:#000000;fill-opacity:1;fill-rule:nonzero;stroke:none"
           transform="matrix(1,0,0,-1,13.40625,0)"><tspan
             id="tspan364"
             y="0"
             x="0 10.176 15.264 25.440001">0.01</tspan></text>
<g
           transform="scale(0.016)"
           id="g368"><g
             id="g370"><g
               clip-path="url(#clipPath376)"
               id="g372"><path
                 id="path378"
                 style="fill:#000000;fill-opacity:1;fill-rule:nonzero;stroke:none"
                 d="M 106,355 H 732 V 272 H 106 v 83" /></g></g></g></g></g><g
       id="g380"><g
         clip-path="url(#clipPath386)"
         id="g382"><path
           id="path388"
           style="fill:none;stroke:#b0b0b0;stroke-width:0.80000001;stroke-linecap:square;stroke-linejoin:round;stroke-miterlimit:10;stroke-dasharray:none;stroke-opacity:1"
           d="M 103.08,369.72241 H 555.22" /></g></g><g
       id="g390"><path
         id="path392"
         style="fill:#000000;fill-opacity:1;fill-rule:nonzero;stroke:#000000;stroke-width:0.80000001;stroke-linecap:butt;stroke-linejoin:round;stroke-miterlimit:10;stroke-dasharray:none;stroke-opacity:1"
         d="m 103.08,369.72241 h -3.5" /><text
         id="text396"
         style="font-variant:normal;font-weight:normal;font-size:16px;font-family:'DejaVu Sans';-inkscape-font-specification:DejaVuSans;writing-mode:lr-tb;fill:#000000;fill-opacity:1;fill-rule:nonzero;stroke:none"
         transform="matrix(1,0,0,-1,60.42375,363.64428)"><tspan
           id="tspan394"
           y="0"
           x="0 10.176 15.264 25.440001">0.00</tspan></text>
<g
         transform="rotate(90,-84.36625,120.38375)"
         id="g398"><text
           id="text402"
           style="font-variant:normal;font-weight:normal;font-size:11.19999981px;font-family:'DejaVu Sans';-inkscape-font-specification:DejaVuSans;writing-mode:lr-tb;fill:#000000;fill-opacity:1;fill-rule:nonzero;stroke:none"
           transform="matrix(1,0,0,-1,0,7.3265625)"><tspan
             id="tspan400"
             y="0"
             x="0">1</tspan></text>
<text
           id="text410"
           style="font-style:italic;font-variant:normal;font-size:11.19999981px;font-family:'DejaVu Sans';-inkscape-font-specification:DejaVuSans-Oblique;writing-mode:lr-tb;fill:#000000;fill-opacity:1;fill-rule:nonzero;stroke:none"
           transform="matrix(1,0,0,-1,0,-5.9859375)"><tspan
             id="tspan404"
             y="0"
             x="0">C</tspan><tspan
             id="tspan406"
             y="-13.476563"
             x="9.8203125 16.929688">dC</tspan><tspan
             id="tspan408"
             y="0.19687501"
             x="9.8203125 16.929688">dT</tspan></text>
<text
           id="text414"
           style="font-variant:normal;font-weight:normal;font-size:16px;font-family:'DejaVu Sans';-inkscape-font-specification:DejaVuSans;writing-mode:lr-tb;fill:#000000;fill-opacity:1;fill-rule:nonzero;stroke:none"
           transform="matrix(1,0,0,-1,26.75,0.31875)"><tspan
             id="tspan412"
             y="0"
             x="0 5.0859375 10.171875 20.351562 25.742188">, 1/K</tspan></text>
<g
           id="g416"><path
             id="path418"
             style="fill:#000000;fill-opacity:1;fill-rule:nonzero;stroke:none"
             d="m 0,3.3265625 h 7.8203125 v 1 H 0 Z" /></g><g
           id="g420"><path
             id="path422"
             style="fill:#000000;fill-opacity:1;fill-rule:nonzero;stroke:none"
             d="M 9.8203125,3.3265625 H 24.75 v 1 H 9.8203125 Z" /></g></g></g><g
       id="g424"><g
         clip-path="url(#clipPath430)"
         id="g426"><path
           id="path432"
           style="fill:none;stroke:#1f77b4;stroke-width:1.5;stroke-linecap:square;stroke-linejoin:round;stroke-miterlimit:10;stroke-dasharray:none;stroke-opacity:1"
           d="m 531.22588,303.37029 0.25657,-65.52959 0.0547,-1.37876 0.0542,0.79047 0.0557,3.72219 0.0874,6.71922 0.0317,-0.22834 0.2581,10.38862 0.0675,6.76916 0.0353,-1.80104 0.0337,-2.65007 m 1.24761,16.57937 0.008,0.65636 0.0516,-3.2666 0.0373,-0.61766 0.0204,1.00497 0.11551,6.31681 0.0215,-3.78593 0.17174,-25.67284 0.10528,-6.49507 0.0235,2.32137 0.0204,4.18357 0.0726,-5.36787 0.0102,-0.36899 m 0.59033,9.96745 0.0112,17.61799 m -0.57448,-41.00858 -0.12062,25.45245 -0.17327,18.04211 -0.0225,-0.51124 m -1.6795,-39.87866 -0.29184,-53.28517 -0.0271,0.16235 m -1.19905,59.50847 -0.023,-0.97402 m -0.96037,-7.91291 -0.1426,4.26485 -0.0833,-0.20791 -0.0399,-0.0955 -0.07,6.75612 -0.0562,-1.16406 -0.0547,-4.61056 -0.4462,-46.01403 -0.067,5.61161 -0.17378,7.7022 -0.27242,17.56551 -0.0935,3.3265 -0.13493,5.31117 -0.15794,15.07481 -0.13595,15.62309 -0.0598,-1.13866 -0.28418,-9.2315 -0.25708,-4.41734 -0.15282,-7.46908 -0.253,-6.77244 -0.067,2.07471 -0.19319,7.68895 -0.3266,3.07073 -0.022,-0.29318 -0.0777,-1.93258 -0.0572,0.97725 -0.0997,0.7682 -0.0163,-0.37226 -0.0567,-1.5324 -0.0894,0.4115 -0.0726,0.4434 -0.0491,0.97452 -0.0716,-0.79747 -0.15129,-1.38388 -0.25504,-2.99205 -0.15231,-2.40111 -0.0255,0.6375 -0.0174,0.43955 -0.0787,-0.9951 -0.19167,-4.71829 -0.17071,-9.45932 -0.27344,-16.69549 -0.12624,-1.95064 0.0843,2.24591 -0.11398,-1.50995 -0.11346,3.36692 -0.33273,24.23511 -0.1196,2.92263 -0.0291,-0.32729 -0.17786,-4.64228 -0.0532,0.55926 -0.0506,6.72926 -0.12931,9.31024 -0.0194,-1.66268 -0.10631,-10.29277 -0.28979,-29.97305 -0.13187,-9.10764 -0.24584,-9.05538 -0.021,0.19207 -0.11091,6.72297 -0.0961,15.87571 -0.1426,12.03829 -0.025,0.0984 -0.0153,-0.19293 -0.022,-0.38618 -0.0102,1.36329 -0.12829,7.45589 -0.47891,23.00623 -0.66035,-35.72598 -0.0644,1.27956 -0.28928,11.51421 -0.23205,2.28848 -0.0235,-0.27557 -0.0986,-2.41553 -0.19831,-7.64576 -0.0435,0.33923 -0.0148,0.14274 -0.009,-0.48173 -0.0327,-0.55147 -0.0373,0.85114 -0.39406,13.01614 -0.046,-0.29117 -0.1288,-1.57088 -0.0291,0.13704 -0.022,0.0494 -0.0322,-0.10799 -0.0537,-0.12184 -0.0404,0.0461 -0.008,0.12702 -0.0578,-0.7522 -0.13953,-4.90361 -0.0997,0.72053 -0.0465,0.1007 -0.16508,2.73428 -0.20445,5.99928 -0.0439,-0.39153 -0.3358,3.92316 -0.0532,-0.3838 -0.12829,-0.26779 -0.10222,1.75939 -0.0332,-0.48123 -0.0889,-5.63706 -0.34039,-11.62411 -0.13392,-0.53498 -0.0496,1.29971 -0.11347,5.72026 -0.30257,21.30315 -0.0976,4.39294 -0.071,-1.59621 -0.34909,-15.92244 -0.0746,-2.34045 -0.0797,-4.31029 m -1.34114,-4.74197 -0.69664,23.49651 -0.0445,-1.87681 -0.24226,-9.07336 -0.0598,0.34232 -0.11194,1.20193 -0.0894,-0.44617 -0.14311,-1.68371 -0.048,-0.43837 -0.0358,0.35576 -0.18962,3.31382 -0.0424,-0.0766 -0.0721,-0.0212 -0.009,0.0736 -0.0746,1.02394 -0.13647,3.214 -0.0414,-0.6106 -0.33681,-12.92037 -0.25811,-9.84569 -0.1426,-1.41275 -0.0348,0.45036 -0.10375,0.97928 -0.0532,-0.004 -0.1748,3.95967 -0.31842,5.69325 -0.15435,1.4081 -0.23818,10.46399 -0.16508,2.60807 -0.0342,-0.40923 -0.11346,-4.37569 -0.3312,-17.8263 -0.0695,-0.51463 -0.0348,0.26297 -0.14157,0.99321 -0.12982,2.53777 -0.42422,17.55075 -0.093,-1.51309 -0.16714,-5.30227 -0.21824,-1.91333 -0.0383,0.1146 -0.046,0.39434 -0.1748,2.2273 -0.0956,1.74116 -0.15078,4.89536 -0.32046,10.35884 -0.0997,-1.27448 -0.63275,-9.97296 -0.28826,-6.83529 -0.0332,-0.1789 -0.11245,-1.91841 -0.13544,-1.73559 -0.0261,0.22849 -0.10426,-0.95894 -0.0317,0.53379 -0.14158,0.2855 -0.12828,1.96979 -0.0266,0.45852 -0.0705,-0.46568 -0.092,-1.59886 -0.19371,-5.24285 -0.047,0.0234 -0.13851,-0.34336 -0.13953,-1.51848 -0.0419,-0.35226 -0.10017,-2.00995 -0.16918,-2.06345 -0.0389,0.27985 -0.138,2.16161 -0.63888,22.9014 -0.0562,-0.9703 -0.37975,-16.22135 -0.0751,0.21409 -0.0552,-0.11989 -0.17684,-4.02717 -0.0281,-0.33569 -0.069,0.40055 -0.28775,11.07523 -0.0297,0.24653 -0.0225,-0.65846 -0.0854,-4.87554 -0.17889,-14.74056 -0.16151,-7.00091 -0.24584,-3.70928 -0.0194,0.13641 -0.0107,0.14897 -0.0378,-0.86764 -0.0859,-1.53024 -0.0552,0.86774 -0.14311,4.14132 -0.22949,5.11437 -0.022,-0.44231 -0.39559,-12.64028 -0.0976,-1.15627 -0.0429,0.13291 -0.29184,5.29003 -0.14567,5.22788 -0.22079,4.93969 -0.69818,7.73994 -0.25402,-5.85206 -0.0644,0.53995 -0.071,1.57145 -0.0976,2.97051 -0.14822,3.16081 -0.0414,-0.16062 -0.0961,0.0648 -0.70993,-10.90065 -0.094,-0.0518 -0.0215,0.0512 -0.1058,0.93476 -0.0404,-0.13788 -0.091,-0.19435 -0.0705,-1.09918 -0.0644,0.14973 -0.15231,3.06758 -0.63991,12.33984 -0.26578,0.59252 -0.0399,0.006 -0.14465,0.43149 -0.41246,0.64192 -0.0184,-0.029 -0.12113,-0.0884 -0.30769,-0.35166 -0.15026,0.90529 -0.12165,0.68226 -0.0741,-0.13514 -0.69561,-5.77609 -0.53513,-4.57558 -0.2116,-3.315 -0.38589,-4.86195 -0.14668,-0.47734 -0.021,0.0658 -0.21824,0.33485 -0.0838,0.34751 -0.1426,0.95634 -0.11551,0.91557 -0.49935,10.92898 -0.24738,4.84761 -0.24431,3.67352 -0.17786,1.12762 -0.0751,-0.33874 -0.62508,-6.95704 -0.61742,-3.82883 -0.0506,0.0105 -0.31382,1.42332 -0.15742,-0.26322 -0.55148,-2.43973 -0.38078,-5.51696 -0.35164,-1.76614 -0.0271,0.0639 -0.16151,0.40185 -0.41706,2.00975 -0.63889,6.54911 -0.0639,0.16737 -0.0552,-0.12445 -0.0848,-0.1231 -0.23255,-1.3761 -0.1702,-0.37202 -0.19371,-1.04816 -0.094,-0.66539 -0.32047,-3.6364 -0.53001,-3.05014 -0.53922,1.48659 -0.368,3.09837 -0.29695,3.66839 -0.43087,3.57202 -0.37464,1.56989 -0.207,-0.72027 -0.50957,-2.61024 -0.0302,0.10341 -0.0342,0.1089 -0.0639,-0.10428 -0.0925,-0.29515 -0.0286,0.0184 -0.067,0.003 -0.0859,-0.25551 -0.0358,0.0605 -0.19984,0.47967 -0.15538,0.2575 -0.16151,0.37079 -0.16713,0.93133 -0.15538,0.42192 -0.22437,1.30108 -0.1058,-0.0789 -0.45386,-1.749 -0.20087,-1.60457 -0.22795,-1.64803 -0.19576,-1.06189 -0.13902,-0.82085 -0.28571,0.63085 -0.0353,-0.0129 -0.0925,0.0114 -1.39379,-5.53366 -0.0291,0.0508 -0.10682,0.2899 -0.23715,0.64419 -0.0726,0.0521 -0.33733,1.80356 -0.27497,1.18557 -0.76411,5.02983 -0.10324,-0.26474 -0.37516,-1.57169 -0.2167,-0.3641 -0.20956,-0.77995 -0.58624,-3.04289 -0.1058,0.0214 -0.42268,1.22916 -0.71606,3.36688 -0.29082,1.26764 -0.36749,-0.25765 -0.54331,-1.02865 -0.0378,0.12608 -0.14055,0.19704 -0.33376,-0.0778 -0.26782,-1.10329 -0.6307,-4.20109 -0.30922,-1.27801 -0.26629,-1.34232 -0.73344,-2.04167 -0.26782,-0.18262 -0.22182,-0.0118 -0.53462,-0.0934 -0.11295,0.19375 -0.57346,1.04465 -0.0373,-0.0455 -0.11347,-0.12906 -0.0373,0.0682 -0.30615,0.0976 -0.11245,0.025 -0.12113,0.18591 -0.0363,-0.0294 -0.19217,0.0102 -0.1564,0.36556 -0.26476,0.30433 -0.12062,0.39882 -0.23255,0.771 -0.51622,2.36422 -0.19218,1.04168 -0.19779,0.45134 -0.15282,0.20312 -0.12011,-0.0451 -0.78967,-0.8615 -1.17759,-2.1012 -0.27804,-0.97423 -0.40531,-1.00536 -0.0859,-0.11407 -0.0383,0.0306 -0.17276,0.11904 -0.23511,-0.22504 -0.20802,0.071 -0.11602,0.0241 -0.5014,-0.86566 -0.20495,-0.66004 -0.79733,-1.29337 -0.27906,-0.0879 -0.17378,0.12038 -0.77433,0.76084 -0.74519,0.2895 -0.13749,-0.15201 -0.31944,-1.02434 -0.12573,-0.12795 -0.24891,-0.39576 -0.33784,-0.63243 -0.33938,-0.17253 -0.28928,0.64643 -0.42269,1.24589 -0.59288,0.99698 -0.37873,0.94177 -0.17889,0.12644 -0.26015,-0.008 -0.12318,-0.12976 -0.29951,-0.58003 -0.12573,-0.30541 -0.17991,-0.5295 -0.12829,-0.16867 -0.21466,3.4e-4 -0.13494,0.0812 -0.35062,-0.37384 -0.21313,-0.74071 -0.18349,-0.56186 -0.39917,-0.0179 -0.26373,0.33913 -0.044,0.0561 -0.17735,1.31232 -0.2254,-0.30313 -0.0383,0.0643 -0.53973,0.46636 -0.26527,0.41405 -1.07383,-1.2705 -0.65984,0.0473 -0.62611,-3.27374 -0.35828,-0.9455 -0.31484,-0.20742 -0.26271,-0.14578 -0.31893,0.0457 -0.26578,-1.33877 -0.17684,0.38554 -0.13954,-0.0828 -0.18042,-0.25392 -0.22028,-0.22825 -0.3726,-1.37391 -0.72373,-1.62687 -0.86786,-0.47778 -0.13391,-0.0427 -0.42166,-0.31364 -0.33171,0.0453 -0.46562,-0.19808 -0.22795,0.16895 -0.41502,0.95372 -0.18809,1.30235 -0.42831,1.42028 -0.19013,0.10723 -0.13902,-0.0857 -0.4278,-0.60484 -0.2811,-0.75739 -0.19014,-0.73469 -0.43392,-0.85405 -0.28009,0.008 -0.1886,-0.12862 -0.22847,-0.26527 -0.93634,-2.40733 -0.42882,-0.45835 -0.23204,0.26391 -0.0491,-0.10371 -0.28213,-0.16069 -0.19013,0.52718 -0.092,-0.025 -0.2392,-0.69744 -0.24533,-0.68903 -0.3266,-1.54093 -0.29286,-1.45437 -0.18502,-0.98787 -0.43649,-0.96547 -0.14209,0.15707 -0.33886,0.79913 -0.39049,0.75253 -0.28008,0.63896 -0.38334,0.97111 -0.5387,0.92828 -0.24022,0.48606 -0.39815,0.37067 -0.0486,-0.0561 -0.14924,-0.0577 -0.29951,0.2764 -0.0445,0.0335 -0.54791,-0.94275 -0.34346,-0.97464 -0.40224,-0.95799 -0.25044,-0.80355 -0.2484,-0.47675 -0.35317,-0.74608 -0.59289,-0.74687 -0.25146,0.12488 -0.34449,-0.0889 -0.29542,-0.28719 -0.79579,-2.07704 -0.19678,-0.39168 -0.39764,-0.24695 -0.3956,-1.30818 -0.2576,-0.86893 -0.29899,-1.67469 -0.20087,-0.82297 -0.24891,-0.54075 -0.24584,-0.62218 -0.30769,-0.22622 -0.25606,-0.0163 -0.20291,0.0552 -0.14669,0.17343 -0.25606,0.53507 -0.2484,1.0859 -0.25402,1.01863 -0.20138,0.64236 -0.92919,1.24492 -0.2024,0.44248 -0.67006,0.96308 -0.26322,-0.11243 -0.35931,-0.38319 -0.31433,-0.0251 -1.26499,3.8173 -0.62815,0.9525 -0.0608,-0.0463 -0.30718,-0.25544 -0.47635,-1.23401 -0.31586,-1.49098 -1.30333,-6.43251 -0.25453,-1.67526 -0.21466,-0.72552 -0.25913,-1.49053 -0.32047,-0.51394 -0.16049,0.0791 -0.16201,0.25131 -0.25454,0.67376 -0.21211,0.81378 -0.26526,0.40956 -0.74673,1.98623 -0.64808,0.34755 -0.65166,1.4907 -0.4232,0.23867 -0.92664,-2.76892 -0.49424,-0.84241 -0.49168,-0.38748 -0.66138,0.15356 -0.42779,-0.43521 -0.0547,0.11249 -0.16815,0.13732 -0.50702,-0.76644 -0.53411,-1.30988 -0.17326,0.0516 -0.2622,0.55486 -0.32609,0.9017 -0.16713,0.0614 -0.38384,-0.60096 -0.2714,-0.59913 -0.27651,-1.02993 -0.66393,-0.79156 -0.1656,-0.21303 -0.27497,-0.41513 -0.22336,-0.46727 -0.32864,-0.38686 -0.72935,-0.79956 -0.50446,-0.18602 -0.10784,0.0211 -0.22745,-0.62324 -0.2857,-0.33799 -0.2254,0.21892 -0.28571,0.53839 -0.90671,3.61838 -0.34141,0.99829 -0.56887,1.68478 -0.58061,0.82253 -0.40122,0.0427 -0.22745,-0.0966 -0.29184,0.18553 -0.35164,0.35667 -0.35062,-0.0836 -0.56324,-0.6715 -1.65547,-5.95148 -0.23563,-0.24484 -0.51724,-0.35174 -0.29797,0.0383 -0.9941,0.62414 -0.52951,0.77867 -0.29695,0.65935 -1.36875,1.82096 -0.60259,-0.85118 -0.299,-1.09309 -0.18042,-0.40819 -0.23818,-0.71876 -0.18349,-0.57618 -0.24277,-0.77203 -0.24431,-0.56595 -1.64883,-3.07521 -1.00484,-0.96153 -0.54893,0.0353 -0.90875,0.88928 -0.18195,-0.0606 -0.36391,-0.36277 -0.61537,-1.81275 -0.24584,-1.19631 -0.30258,-0.97284 -0.31126,-0.88585 -0.98951,-1.4608 -0.25402,-0.41774 -0.55864,-0.51208 -0.18911,0.0483 -0.87194,1.43319 -0.3174,0.40374 -0.50855,0.98516 -0.32047,0.14902 -0.45079,0.0313 -1.0304,-2.91084 -0.25708,-0.98777 -0.82493,-1.49622 -0.56528,-0.24238 -0.70124,-0.62042 -0.64195,-0.18061 -0.38896,0.0788 -0.64655,-0.85938 -0.71606,-0.81186 -0.26373,-0.0283 -0.19422,-0.27115 -0.19575,0.0522 -0.72577,-0.80233 -0.73651,-0.0787 -0.86735,0.24452 -0.47124,0.23921 -0.61384,-0.47324 -0.54177,-1.06235 -0.53104,-0.74935 -0.27396,-0.60824 -0.19217,-0.44287 -0.26936,-0.78686 -0.53717,-0.92006 -0.2714,-0.46434 -0.207,-0.16813 -0.2673,-0.0293 -0.207,-0.0791 -0.81982,-0.55882 -0.47788,-0.27287 -1.03704,-0.0859 -0.2162,0.17996 -0.27906,0.33816 -0.48607,0.23578 -0.35113,-0.086 -0.78454,-0.48859 -0.42678,-0.1951 -0.28468,-0.23956 -0.36289,-0.34592 -0.78762,-1.19388 -0.56528,-0.68423 -0.56273,-1.14549 -0.35522,-0.412 -0.57193,-0.84204 -0.63939,-0.39104 -0.36596,0.079 -0.28571,0.32392 -0.21517,0.47225 -0.29133,0.70917 -0.6578,0.41209 -0.87859,0.0951 -0.51315,0.48133 -0.67109,0.26429 -0.67977,-0.41603 -0.37617,-0.46736 -0.37516,-0.31394 -1.67489,-3.97947 -0.29695,-0.91093 -0.37618,-0.70279 -0.15078,-0.35783 -0.60515,-0.61611 -0.74928,-1.1379 -0.5336,-1.25457 -0.61793,-0.34199 -0.3869,0.044 -0.86071,0.39741 -1.49805,-0.0144 -0.32456,-0.28348 -0.23766,-0.35602 -0.322,-0.53245 -0.64706,-0.61284 -0.3266,-0.33366 -0.48708,-0.11042 -0.48709,-0.18979 -0.32353,-0.34786 -0.23766,-0.32577 -0.2438,-0.45332 -0.32046,-0.73085 -0.64707,-1.15077 -0.24788,-0.39594 -0.24124,-0.0849 -0.32813,0.23016 -0.74316,-0.14678 -1.33194,-0.67952 -0.33171,-0.25389 -0.42728,-0.21817 -1.70403,-2.15619 -0.9614,-0.5131 -0.78864,-1.09775 -0.43853,-0.9215 -1.46738,-1.68093 -0.34756,-0.0565 -0.52388,-0.0182 -0.35318,-0.13964 -0.98132,0.0599 -0.35113,0.44584 -0.45642,0.49074 -0.27242,0.31499 -0.36442,0.3289 -0.26935,0.0119 -1.38357,-0.85653 -0.46869,-0.48154 -0.46817,-0.42173 -0.66035,-1.41574 -0.47737,-0.90902 -0.65371,-1.62679 -0.46511,-1.11098 -0.37362,-1.04208 -0.46868,-0.91326 -0.28367,-0.54931 -0.38435,-0.51537 -0.2852,-0.24615 -0.4789,-0.0874 -0.57858,0.33 -0.3869,0.26842 -0.66393,0.0777 -0.29696,-0.11918 -0.4927,-0.42351 -0.9016,-1.25178 -0.40581,-0.8879 -0.50447,-0.97372 -0.4099,-1.07439 -0.20445,-0.35674 -0.31075,-0.82152 -0.50855,-1.26618 -0.39866,-1.28791 -0.50856,-1.24164 -0.30973,-0.72652 -0.40786,-0.71027 -0.51264,-0.69755 -1.57166,-1.81529 -0.74417,-0.24823 -1.40759,-0.22669 -0.32864,-0.28247 -0.43802,-0.48597 -0.66597,-1.81896 -0.11346,-0.46134 -0.8878,-1.64456 -0.98797,-0.97361 -0.22029,-0.0209 -0.44824,0.4239 -0.78608,0.6346 -0.4554,0.51907 -0.57039,0.57405 -0.46204,0.71601 -0.4646,0.55412 -0.44977,0.98723 -0.23051,0.41457 -0.35266,0.95697 -0.35625,0.52026 -0.35675,0.79081 -0.12215,0.36916 -0.60004,0.98769 -0.24482,0.51435 -0.60822,0.59722 -0.48198,0.52438 -1.08303,0.85935 -0.12164,0.13724 -1.09991,0.34138 -0.37413,-0.17123 -0.37157,-0.30859 -0.24993,-0.21972 -0.38129,-0.54612 -0.63479,-0.22086 -1.02937,-0.14428 -1.04471,0.37128 -0.26475,0.004 -0.53002,-0.47546 -0.6721,-0.56567 -0.52287,-0.62079 -0.52644,-0.35889 -2.01325,-1.04104 -0.54944,-0.58391 -0.27906,-0.23593 -0.13953,-0.29381 -0.69511,-0.94057 -0.28264,-0.59474 -0.71044,-0.81229 -0.14464,-0.24211 -0.8648,-0.66966 -0.87808,-0.11782 -1.0217,-0.27088 -0.43598,-0.34867 -0.73088,-0.61225 -0.14566,-0.25556 -0.29951,-0.27692 -0.29747,-0.61134 -0.74979,-0.93247 -0.14924,-0.33375 -0.76666,-0.94075 -0.15231,-0.30985 -0.31076,-0.30263 -0.15486,-0.30689 -0.30973,-0.34615 -0.15538,-0.35441 -0.7917,-0.99513 -0.3174,-0.507 -0.80142,-0.43444 -1.44541,-0.108296 -1.4587,-0.884868 -0.1656,-0.264793 -0.82952,-0.830268 -0.33478,-0.504511 -0.33784,-0.194101 -0.16816,-0.23315 -0.51264,-0.286327 -0.86326,-0.212132 -0.70226,-0.368183 -0.8883,-0.318794 -0.18144,-0.07792 -0.88677,-0.01384 -1.24199,0.265175 -0.90517,-0.352264 -0.18298,-0.152088 -0.36851,-0.151274 -0.18451,-0.198064 -0.55915,-0.174516 -0.37669,-0.138502 -0.18859,-0.199581 -0.38078,-0.199837 -0.19013,-0.238004 -0.38435,-0.259608 -0.19371,-0.285952 -0.38793,-0.30201 -0.19474,-0.328472 -0.39406,-0.356578 -0.19882,-0.364551 -0.39815,-0.374734 -0.19167,-0.405126 -0.3869,-0.407333 -0.19423,-0.405317 -0.98285,-1.096548 -0.19934,-0.305778 -1.00688,-0.393135 -1.86758,-1.243007 -0.21109,-0.400361 -0.42626,-0.425864 -0.21569,-0.399957 -0.42984,-0.343286 -0.21773,-0.348218 -1.95039,-1.543918 -1.54098,-0.356131 -0.90466,-0.184278 -1.38919,-0.351518 -1.18628,-0.340626 -1.2103,-0.35754 -0.23614,-0.153135 -1.44132,-0.444376 -1.2379,-0.478001 -1.27214,-0.647843 -0.2576,-0.235151 -0.78557,-0.147077 -0.529,-0.511083 -0.26782,-0.434525 -1.05441,-0.644855 -0.26322,-0.423358 -1.61101,-1.096083 -0.82953,-0.199857 -1.12852,0.335401 -0.28725,0.233288 -0.57755,0.282199 -0.29031,0.332534 -1.15663,0.872582 -0.28826,0.535614 -0.58113,0.593528 -0.29389,0.64602 -1.19855,1.500199 -0.30206,0.79842 -0.61333,0.683798 -0.30973,0.707705 -1.26294,1.526165 -0.322,0.807965 -0.63275,0.859081 -0.31178,0.898752 -1.27419,1.887239 -0.32455,1.052466 -0.65473,1.098579 -0.3312,1.124874 -1.35085,2.278349 -0.34449,1.165401 -0.69664,1.158531 -0.35266,1.19452 -0.68591,1.107638 -0.68795,2.29417 -0.70021,1.04328 -0.3542,1.05564 -0.71657,1.06204 -0.3634,1.05713 -0.73497,1.02892 -0.74111,2.02317 -0.73395,1.00616 -0.37259,1.01584 -0.75337,0.9886 -0.38282,0.93503 -0.77331,0.93444 -0.77279,1.5393 -0.77637,0.73143 -0.39305,0.6566 -0.79681,0.64791 -0.40429,0.60474 -0.81777,0.60135 -0.40122,0.58591 -0.81164,0.58508 -0.41246,0.56688 -0.83413,0.52749 -0.85048,1.00754 -0.83668,0.48596 -0.42371,0.43644 -0.8607,0.45111 -0.43649,0.43798 -0.8791,0.28272 -0.43189,0.28564 -0.87859,0.7969 -0.89597,1.6271 -0.91335,0.90559 -0.44568,0.91028 -0.90364,0.98451 -0.45693,1.06453 -0.92971,1.11137 -0.46766,1.0562 -0.91999,1.08091 -0.46664,1.18906 -0.88166,0.99946 -0.92562,2.12083 -0.93072,1.12021 -0.4738,1.23065 -0.96139,1.32555 -0.48709,1.39428 -0.94503,1.4279 -0.4784,1.43299 -0.96906,1.54718 -0.49066,1.60298 -0.95935,1.68944 -0.93175,3.59156 -0.94554,1.87062 -0.47789,1.85403 -0.96497,1.91838 -0.49117,1.99501 -0.98848,1.98549 -0.48504,2.01722 -0.9844,2.09974 -0.49935,2.20431 -0.98797,2.22661 -0.9895,4.58831 -1.00739,2.35884 -0.48862,2.38431 -0.99002,2.47869 -0.50241,2.46232 -0.99104,2.5018 -0.48811,2.51944 -1.60436,2.48565 -0.19371,2.52907 -0.33427,2.58597 -0.85559,2.60997 -0.46971,2.60993 -0.94197,2.59969 -0.47175,2.64812 -0.95015,2.68619 -0.47379,2.71938 -0.91182,2.66427 -0.45948,2.67453 -0.92051,2.66703 -0.87961,5.22983 -0.88524,2.53395 -0.44109,2.54398 -0.84026,2.53044 -0.42268,2.60602 -0.84844,2.62096 -0.4048,2.63561 -0.80908,2.63644 -0.40275,2.54972 -0.76922,2.53349 -0.73139,5.0135 -0.71606,2.48419 -0.34449,2.4932 -0.66444,2.44928 -0.33119,2.45441 -0.65933,2.40456 -0.32353,2.35765 -0.61282,2.30387 -0.30615,2.23691 -0.60975,2.15593 -0.58369,4.13585 -0.5709,1.94965 -0.28316,1.97946 -0.56222,1.91078 -0.26373,1.80516 -0.53155,1.72359 -0.54075,3.5559 -0.53564,1.67647 -0.25504,1.7391 -0.51775,1.66384 -0.26322,1.73914 -0.52593,1.71276 -0.48198,3.20787 -0.4605,1.5157 -0.22131,1.499 -0.41758,1.51765 -0.19831,1.42835 -0.37464,1.3576 -0.345,2.49311 -0.33835,1.19668 -0.16764,1.12649 -0.33069,1.15577 -0.16406,1.12338 -0.31485,1.07765 -0.29899,2.20209 -0.29389,1.05587 -0.14464,0.97058 -0.28673,0.94012 -0.14158,0.89179 -0.27804,0.87241 -0.25658,1.61525 -0.24737,0.72368 -0.12216,0.74141 -0.3588,1.34627 -0.34397,1.35948 -0.32813,1.16124 -0.48658,1.9937 -0.45744,1.217 -0.65115,2.41415 -0.42268,1.45372 -0.26475,1.03595 -0.54331,1.7981 -0.4002,1.64421 -0.27855,1.14642 -0.34193,1.60484 -0.35062,1.25315 -1.13006,5.01106 -0.99615,2.93743 -0.30615,1.4107 -0.23869,0.91532 -0.34551,0.96253 -0.36595,0.55124 -0.10018,0.21327 -0.16508,0.63408 -0.36749,2.35633 -0.38282,2.28822 -0.21671,0.26543 -0.0363,-0.0454 -0.10682,-0.0799 -0.0332,0.0749 -0.23204,0.54709 -0.0618,0.10769 -0.0388,-0.13445 -0.0399,-0.0283 -0.0491,0.0943 -0.7084,4.50495 -0.0296,-0.0821 -0.18451,-0.58172 -0.0526,0.203 -0.43035,3.08258 -0.0869,1.42088 -0.0511,-0.54373 -0.16457,-1.80424 -0.0746,0.36889 -0.0772,1.9049 -0.0312,0.57343 -0.0511,-1.37919 -0.0169,-0.25887 -0.0623,0.7698 -0.13238,2.85443 -0.0716,-1.07486 -0.0445,-1.10458 -0.0465,1.54202 -0.0782,1.46343 -0.0864,-0.1484 -0.0276,-0.81725 -0.0342,1.03567 -0.0164,0.90692 -0.0429,-3.10065 -0.0348,-2.47966 -0.0767,2.36698 -0.0337,3.58772 -0.0889,-1.25497 -0.0373,7.1702 -0.0445,-11.26027 -0.0286,-2.98449 -0.0445,13.90877 -0.0102,-1.163 -0.0159,-3.19318 m -1.6473,-2.22714 -0.0629,11.6195 v 0" /></g></g><g
       id="g434"><path
         id="path436"
         style="fill:none;stroke:#000000;stroke-width:0.80000001;stroke-linecap:square;stroke-linejoin:miter;stroke-miterlimit:10;stroke-dasharray:none;stroke-opacity:1"
         d="M 103.08,61.28 V 411.22" /><path
         id="path438"
         style="fill:none;stroke:#000000;stroke-width:0.80000001;stroke-linecap:square;stroke-linejoin:miter;stroke-miterlimit:10;stroke-dasharray:none;stroke-opacity:1"
         d="M 555.22,61.28 V 411.22" /><path
         id="path440"
         style="fill:none;stroke:#000000;stroke-width:0.80000001;stroke-linecap:square;stroke-linejoin:miter;stroke-miterlimit:10;stroke-dasharray:none;stroke-opacity:1"
         d="M 103.08,61.28 H 555.22" /><path
         id="path442"
         style="fill:none;stroke:#000000;stroke-width:0.80000001;stroke-linecap:square;stroke-linejoin:miter;stroke-miterlimit:10;stroke-dasharray:none;stroke-opacity:1"
         d="M 103.08,411.22 H 555.22" /></g></g></svg>