<?xml version="1.0" encoding="UTF-8" standalone="no"?>
<svg
   xmlns:dc="http://purl.org/dc/elements/1.1/"
   xmlns:cc="http://creativecommons.org/ns#"
   xmlns:rdf="http://www.w3.org/1999/02/22-rdf-syntax-ns#"
   xmlns:svg="http://www.w3.org/2000/svg"
   xmlns="http://www.w3.org/2000/svg"
   viewBox="0 0 768 576"
   height="576"
   width="768"
   xml:space="preserve"
   id="svg2"
   version="1.1"><metadata
     id="metadata8"><rdf:RDF><cc:Work
         rdf:about=""><dc:format>image/svg+xml</dc:format><dc:type
           rdf:resource="http://purl.org/dc/dcmitype/StillImage" /></cc:Work></rdf:RDF></metadata><defs
     id="defs6"><clipPath
       id="clipPath24"
       clipPathUnits="userSpaceOnUse"><path
         id="path22"
         d="M 49.352,14.801 H 50 v 370.598 h -0.648 z" /></clipPath><clipPath
       id="clipPath34"
       clipPathUnits="userSpaceOnUse"><path
         id="path32"
         d="M 0,0 H 576 V 432 H 0 Z" /></clipPath><clipPath
       id="clipPath56"
       clipPathUnits="userSpaceOnUse"><path
         id="path54"
         d="m 149,14.801 h 2 v 370.598 h -2 z" /></clipPath><clipPath
       id="clipPath66"
       clipPathUnits="userSpaceOnUse"><path
         id="path64"
         d="M 0,0 H 576 V 432 H 0 Z" /></clipPath><clipPath
       id="clipPath92"
       clipPathUnits="userSpaceOnUse"><path
         id="path90"
         d="m 250,14.801 h 2 v 370.598 h -2 z" /></clipPath><clipPath
       id="clipPath102"
       clipPathUnits="userSpaceOnUse"><path
         id="path100"
         d="M 0,0 H 576 V 432 H 0 Z" /></clipPath><clipPath
       id="clipPath130"
       clipPathUnits="userSpaceOnUse"><path
         id="path128"
         d="m 350,14.801 h 2 v 370.598 h -2 z" /></clipPath><clipPath
       id="clipPath140"
       clipPathUnits="userSpaceOnUse"><path
         id="path138"
         d="M 0,0 H 576 V 432 H 0 Z" /></clipPath><clipPath
       id="clipPath168"
       clipPathUnits="userSpaceOnUse"><path
         id="path166"
         d="m 451,14.801 h 2 v 370.598 h -2 z" /></clipPath><clipPath
       id="clipPath178"
       clipPathUnits="userSpaceOnUse"><path
         id="path176"
         d="M 0,0 H 576 V 432 H 0 Z" /></clipPath><clipPath
       id="clipPath206"
       clipPathUnits="userSpaceOnUse"><path
         id="path204"
         d="m 552,14.801 h 0.574 V 385.399 H 552 Z" /></clipPath><clipPath
       id="clipPath216"
       clipPathUnits="userSpaceOnUse"><path
         id="path214"
         d="M 0,0 H 576 V 432 H 0 Z" /></clipPath><clipPath
       id="clipPath254"
       clipPathUnits="userSpaceOnUse"><path
         id="path252"
         d="m 49.352,384 h 503.223 v 1.398 H 49.352 Z" /></clipPath><clipPath
       id="clipPath264"
       clipPathUnits="userSpaceOnUse"><path
         id="path262"
         d="M 0,0 H 576 V 432 H 0 Z" /></clipPath><clipPath
       id="clipPath286"
       clipPathUnits="userSpaceOnUse"><path
         id="path284"
         d="m 49.352,323 h 503.223 v 2 H 49.352 Z" /></clipPath><clipPath
       id="clipPath296"
       clipPathUnits="userSpaceOnUse"><path
         id="path294"
         d="M 0,0 H 576 V 432 H 0 Z" /></clipPath><clipPath
       id="clipPath318"
       clipPathUnits="userSpaceOnUse"><path
         id="path316"
         d="m 49.352,261 h 503.223 v 2 H 49.352 Z" /></clipPath><clipPath
       id="clipPath328"
       clipPathUnits="userSpaceOnUse"><path
         id="path326"
         d="M 0,0 H 576 V 432 H 0 Z" /></clipPath><clipPath
       id="clipPath352"
       clipPathUnits="userSpaceOnUse"><path
         id="path350"
         d="m 49.352,199 h 503.223 v 2 H 49.352 Z" /></clipPath><clipPath
       id="clipPath362"
       clipPathUnits="userSpaceOnUse"><path
         id="path360"
         d="M 0,0 H 576 V 432 H 0 Z" /></clipPath><clipPath
       id="clipPath386"
       clipPathUnits="userSpaceOnUse"><path
         id="path384"
         d="m 49.352,137 h 503.223 v 2 H 49.352 Z" /></clipPath><clipPath
       id="clipPath396"
       clipPathUnits="userSpaceOnUse"><path
         id="path394"
         d="M 0,0 H 576 V 432 H 0 Z" /></clipPath><clipPath
       id="clipPath420"
       clipPathUnits="userSpaceOnUse"><path
         id="path418"
         d="m 49.352,76 h 503.223 v 2 H 49.352 Z" /></clipPath><clipPath
       id="clipPath430"
       clipPathUnits="userSpaceOnUse"><path
         id="path428"
         d="M 0,0 H 576 V 432 H 0 Z" /></clipPath><clipPath
       id="clipPath454"
       clipPathUnits="userSpaceOnUse"><path
         id="path452"
         d="M 49.352,14.801 H 552.575 V 16 H 49.352 Z" /></clipPath><clipPath
       id="clipPath464"
       clipPathUnits="userSpaceOnUse"><path
         id="path462"
         d="M 0,0 H 576 V 432 H 0 Z" /></clipPath><clipPath
       id="clipPath514"
       clipPathUnits="userSpaceOnUse"><path
         id="path512"
         d="M 49.352,17 H 552.575 V 319 H 49.352 Z" /></clipPath><clipPath
       id="clipPath524"
       clipPathUnits="userSpaceOnUse"><path
         id="path522"
         d="M 0,0 H 576 V 432 H 0 Z" /></clipPath></defs><g
     transform="scale(1.3333333)"
     id="g10"><g
       id="g12"><path
         id="path14"
         style="fill:#ffffff;fill-opacity:1;fill-rule:nonzero;stroke:none"
         d="M 0,0 H 576 V 432 H 0 Z" /><path
         id="path16"
         style="fill:#ffffff;fill-opacity:1;fill-rule:nonzero;stroke:none"
         d="M 49.352,14.801 H 552.575 V 385.399 H 49.352 Z" /></g><g
       id="g18"><g
         clip-path="url(#clipPath24)"
         id="g20"><g
           id="g26"><g
             id="g28"><g
               clip-path="url(#clipPath34)"
               id="g30"><g
                 id="g36"><g
                   transform="scale(1,-1)"
                   id="g38"><path
                     id="path40"
                     style="fill:none;stroke:#b0b0b0;stroke-width:0.80000001;stroke-linecap:square;stroke-linejoin:round;stroke-miterlimit:10;stroke-dasharray:none;stroke-opacity:1"
                     d="M 49.352,-385.398 V -14.801" /></g></g></g></g></g></g></g><g
       id="g42"><g
         transform="scale(1,-1)"
         id="g44"><path
           id="path46"
           style="fill:none;stroke:#000000;stroke-width:0.80000001;stroke-linecap:butt;stroke-linejoin:round;stroke-miterlimit:10;stroke-dasharray:none;stroke-opacity:1"
           d="m 49.352,-385.398 v -3.5" /></g><path
         id="path48"
         style="fill:#000000;fill-opacity:1;fill-rule:nonzero;stroke:none"
         d="m 49.352,393.352 c -0.508,0 -0.891,0.25 -1.149,0.75 -0.262,0.5 -0.383,1.25 -0.383,2.25 0,1 0.121,1.75 0.383,2.25 0.258,0.5 0.641,0.75 1.149,0.75 0.511,0 0.89,-0.25 1.148,-0.75 0.25,-0.5 0.383,-1.25 0.383,-2.25 0,-1 -0.133,-1.75 -0.383,-2.25 -0.258,-0.5 -0.637,-0.75 -1.148,-0.75 m 0,-0.782 c 0.808,0 1.429,0.332 1.871,0.973 0.429,0.648 0.648,1.59 0.648,2.809 0,1.23 -0.219,2.171 -0.648,2.812 -0.442,0.637 -1.063,0.957 -1.871,0.957 -0.821,0 -1.45,-0.32 -1.879,-0.957 -0.43,-0.641 -0.641,-1.582 -0.641,-2.812 0,-1.219 0.211,-2.161 0.641,-2.809 0.429,-0.641 1.058,-0.973 1.879,-0.973" /></g><g
       id="g50"><g
         clip-path="url(#clipPath56)"
         id="g52"><g
           id="g58"><g
             id="g60"><g
               clip-path="url(#clipPath66)"
               id="g62"><g
                 id="g68"><g
                   transform="scale(1,-1)"
                   id="g70"><path
                     id="path72"
                     style="fill:none;stroke:#b0b0b0;stroke-width:0.80000001;stroke-linecap:square;stroke-linejoin:round;stroke-miterlimit:10;stroke-dasharray:none;stroke-opacity:1"
                     d="M 149.996,-385.398 V -14.801" /></g></g></g></g></g></g></g><g
       id="g74"><g
         transform="scale(1,-1)"
         id="g76"><path
           id="path78"
           style="fill:none;stroke:#000000;stroke-width:0.80000001;stroke-linecap:butt;stroke-linejoin:round;stroke-miterlimit:10;stroke-dasharray:none;stroke-opacity:1"
           d="m 149.996,-385.398 v -3.5" /></g><path
         id="path80"
         style="fill:#000000;fill-opacity:1;fill-rule:nonzero;stroke:none"
         d="m 141.535,392.703 h 3.871 v 0.828 h -2.968 v 1.789 c 0.14,-0.047 0.289,-0.09 0.429,-0.109 0.141,-0.02 0.289,-0.039 0.43,-0.039 0.808,0 1.449,0.23 1.93,0.672 0.48,0.449 0.718,1.047 0.718,1.808 0,0.789 -0.25,1.399 -0.738,1.828 -0.488,0.434 -1.18,0.641 -2.059,0.641 -0.312,0 -0.621,-0.027 -0.941,-0.07 -0.32,-0.047 -0.641,-0.117 -0.98,-0.231 v -0.988 c 0.289,0.16 0.589,0.281 0.91,0.359 0.308,0.082 0.64,0.11 0.992,0.11 0.559,0 1.008,-0.137 1.34,-0.438 0.316,-0.301 0.488,-0.699 0.488,-1.211 0,-0.5 -0.172,-0.898 -0.488,-1.199 -0.332,-0.301 -0.781,-0.449 -1.34,-0.449 -0.262,0 -0.531,0.027 -0.793,0.09 -0.258,0.058 -0.527,0.148 -0.801,0.269 v -3.66" /><path
         id="path82"
         style="fill:#000000;fill-opacity:1;fill-rule:nonzero;stroke:none"
         d="m 149.996,393.352 c -0.508,0 -0.891,0.25 -1.148,0.75 -0.262,0.5 -0.383,1.25 -0.383,2.25 0,1 0.121,1.75 0.383,2.25 0.257,0.5 0.64,0.75 1.148,0.75 0.512,0 0.891,-0.25 1.149,-0.75 0.25,-0.5 0.382,-1.25 0.382,-2.25 0,-1 -0.132,-1.75 -0.382,-2.25 -0.258,-0.5 -0.637,-0.75 -1.149,-0.75 m 0,-0.782 c 0.809,0 1.43,0.332 1.871,0.973 0.43,0.648 0.649,1.59 0.649,2.809 0,1.23 -0.219,2.171 -0.649,2.812 -0.441,0.637 -1.062,0.957 -1.871,0.957 -0.82,0 -1.449,-0.32 -1.879,-0.957 -0.429,-0.641 -0.64,-1.582 -0.64,-2.812 0,-1.219 0.211,-2.161 0.64,-2.809 0.43,-0.641 1.059,-0.973 1.879,-0.973" /><path
         id="path84"
         style="fill:#000000;fill-opacity:1;fill-rule:nonzero;stroke:none"
         d="m 156.355,393.352 c -0.507,0 -0.89,0.25 -1.148,0.75 -0.262,0.5 -0.383,1.25 -0.383,2.25 0,1 0.121,1.75 0.383,2.25 0.258,0.5 0.641,0.75 1.148,0.75 0.512,0 0.891,-0.25 1.149,-0.75 0.25,-0.5 0.383,-1.25 0.383,-2.25 0,-1 -0.133,-1.75 -0.383,-2.25 -0.258,-0.5 -0.637,-0.75 -1.149,-0.75 m 0,-0.782 c 0.809,0 1.43,0.332 1.872,0.973 0.429,0.648 0.648,1.59 0.648,2.809 0,1.23 -0.219,2.171 -0.648,2.812 -0.442,0.637 -1.063,0.957 -1.872,0.957 -0.82,0 -1.449,-0.32 -1.878,-0.957 -0.43,-0.641 -0.641,-1.582 -0.641,-2.812 0,-1.219 0.211,-2.161 0.641,-2.809 0.429,-0.641 1.058,-0.973 1.878,-0.973" /></g><g
       id="g86"><g
         clip-path="url(#clipPath92)"
         id="g88"><g
           id="g94"><g
             id="g96"><g
               clip-path="url(#clipPath102)"
               id="g98"><g
                 id="g104"><g
                   transform="scale(1,-1)"
                   id="g106"><path
                     id="path108"
                     style="fill:none;stroke:#b0b0b0;stroke-width:0.80000001;stroke-linecap:square;stroke-linejoin:round;stroke-miterlimit:10;stroke-dasharray:none;stroke-opacity:1"
                     d="M 250.641,-385.398 V -14.801" /></g></g></g></g></g></g></g><g
       id="g110"><g
         transform="scale(1,-1)"
         id="g112"><path
           id="path114"
           style="fill:none;stroke:#000000;stroke-width:0.80000001;stroke-linecap:butt;stroke-linejoin:round;stroke-miterlimit:10;stroke-dasharray:none;stroke-opacity:1"
           d="m 250.641,-385.398 v -3.5" /></g><path
         id="path116"
         style="fill:#000000;fill-opacity:1;fill-rule:nonzero;stroke:none"
         d="m 239.16,399.164 h 1.613 v -5.562 l -1.75,0.351 v -0.902 l 1.739,-0.348 h 0.988 v 6.461 h 1.613 v 0.828 h -4.203 v -0.828" /><path
         id="path118"
         style="fill:#000000;fill-opacity:1;fill-rule:nonzero;stroke:none"
         d="m 247.461,393.352 c -0.508,0 -0.891,0.25 -1.149,0.75 -0.261,0.5 -0.382,1.25 -0.382,2.25 0,1 0.121,1.75 0.382,2.25 0.258,0.5 0.641,0.75 1.149,0.75 0.512,0 0.891,-0.25 1.148,-0.75 0.25,-0.5 0.383,-1.25 0.383,-2.25 0,-1 -0.133,-1.75 -0.383,-2.25 -0.257,-0.5 -0.636,-0.75 -1.148,-0.75 m 0,-0.782 c 0.809,0 1.43,0.332 1.871,0.973 0.43,0.648 0.648,1.59 0.648,2.809 0,1.23 -0.218,2.171 -0.648,2.812 -0.441,0.637 -1.062,0.957 -1.871,0.957 -0.82,0 -1.449,-0.32 -1.879,-0.957 -0.43,-0.641 -0.641,-1.582 -0.641,-2.812 0,-1.219 0.211,-2.161 0.641,-2.809 0.43,-0.641 1.059,-0.973 1.879,-0.973" /><path
         id="path120"
         style="fill:#000000;fill-opacity:1;fill-rule:nonzero;stroke:none"
         d="m 253.82,393.352 c -0.508,0 -0.89,0.25 -1.148,0.75 -0.262,0.5 -0.383,1.25 -0.383,2.25 0,1 0.121,1.75 0.383,2.25 0.258,0.5 0.64,0.75 1.148,0.75 0.512,0 0.891,-0.25 1.149,-0.75 0.25,-0.5 0.383,-1.25 0.383,-2.25 0,-1 -0.133,-1.75 -0.383,-2.25 -0.258,-0.5 -0.637,-0.75 -1.149,-0.75 m 0,-0.782 c 0.809,0 1.43,0.332 1.871,0.973 0.43,0.648 0.649,1.59 0.649,2.809 0,1.23 -0.219,2.171 -0.649,2.812 -0.441,0.637 -1.062,0.957 -1.871,0.957 -0.82,0 -1.449,-0.32 -1.879,-0.957 -0.429,-0.641 -0.64,-1.582 -0.64,-2.812 0,-1.219 0.211,-2.161 0.64,-2.809 0.43,-0.641 1.059,-0.973 1.879,-0.973" /><path
         id="path122"
         style="fill:#000000;fill-opacity:1;fill-rule:nonzero;stroke:none"
         d="m 260.18,393.352 c -0.508,0 -0.891,0.25 -1.149,0.75 -0.261,0.5 -0.383,1.25 -0.383,2.25 0,1 0.122,1.75 0.383,2.25 0.258,0.5 0.641,0.75 1.149,0.75 0.511,0 0.89,-0.25 1.148,-0.75 0.25,-0.5 0.383,-1.25 0.383,-2.25 0,-1 -0.133,-1.75 -0.383,-2.25 -0.258,-0.5 -0.637,-0.75 -1.148,-0.75 m 0,-0.782 c 0.808,0 1.429,0.332 1.871,0.973 0.429,0.648 0.648,1.59 0.648,2.809 0,1.23 -0.219,2.171 -0.648,2.812 -0.442,0.637 -1.063,0.957 -1.871,0.957 -0.821,0 -1.45,-0.32 -1.879,-0.957 -0.43,-0.641 -0.641,-1.582 -0.641,-2.812 0,-1.219 0.211,-2.161 0.641,-2.809 0.429,-0.641 1.058,-0.973 1.879,-0.973" /></g><g
       id="g124"><g
         clip-path="url(#clipPath130)"
         id="g126"><g
           id="g132"><g
             id="g134"><g
               clip-path="url(#clipPath140)"
               id="g136"><g
                 id="g142"><g
                   transform="scale(1,-1)"
                   id="g144"><path
                     id="path146"
                     style="fill:none;stroke:#b0b0b0;stroke-width:0.80000001;stroke-linecap:square;stroke-linejoin:round;stroke-miterlimit:10;stroke-dasharray:none;stroke-opacity:1"
                     d="M 351.285,-385.398 V -14.801" /></g></g></g></g></g></g></g><g
       id="g148"><g
         transform="scale(1,-1)"
         id="g150"><path
           id="path152"
           style="fill:none;stroke:#000000;stroke-width:0.80000001;stroke-linecap:butt;stroke-linejoin:round;stroke-miterlimit:10;stroke-dasharray:none;stroke-opacity:1"
           d="m 351.285,-385.398 v -3.5" /></g><path
         id="path154"
         style="fill:#000000;fill-opacity:1;fill-rule:nonzero;stroke:none"
         d="m 339.805,399.164 h 1.613 v -5.562 l -1.75,0.351 v -0.902 l 1.738,-0.348 h 0.989 v 6.461 h 1.613 v 0.828 h -4.203 v -0.828" /><path
         id="path156"
         style="fill:#000000;fill-opacity:1;fill-rule:nonzero;stroke:none"
         d="m 346.004,392.703 h 3.871 v 0.828 h -2.969 v 1.789 c 0.141,-0.047 0.289,-0.09 0.43,-0.109 0.141,-0.02 0.289,-0.039 0.43,-0.039 0.808,0 1.449,0.23 1.929,0.672 0.481,0.449 0.719,1.047 0.719,1.808 0,0.789 -0.25,1.399 -0.738,1.828 -0.488,0.434 -1.18,0.641 -2.059,0.641 -0.312,0 -0.621,-0.027 -0.941,-0.07 -0.321,-0.047 -0.641,-0.117 -0.981,-0.231 v -0.988 c 0.289,0.16 0.59,0.281 0.91,0.359 0.309,0.082 0.641,0.11 0.993,0.11 0.558,0 1.007,-0.137 1.34,-0.438 0.316,-0.301 0.488,-0.699 0.488,-1.211 0,-0.5 -0.172,-0.898 -0.488,-1.199 -0.333,-0.301 -0.782,-0.449 -1.34,-0.449 -0.262,0 -0.532,0.027 -0.793,0.09 -0.258,0.058 -0.528,0.148 -0.801,0.269 v -3.66" /><path
         id="path158"
         style="fill:#000000;fill-opacity:1;fill-rule:nonzero;stroke:none"
         d="m 354.465,393.352 c -0.508,0 -0.891,0.25 -1.149,0.75 -0.261,0.5 -0.382,1.25 -0.382,2.25 0,1 0.121,1.75 0.382,2.25 0.258,0.5 0.641,0.75 1.149,0.75 0.512,0 0.89,-0.25 1.148,-0.75 0.25,-0.5 0.383,-1.25 0.383,-2.25 0,-1 -0.133,-1.75 -0.383,-2.25 -0.258,-0.5 -0.636,-0.75 -1.148,-0.75 m 0,-0.782 c 0.808,0 1.43,0.332 1.871,0.973 0.43,0.648 0.648,1.59 0.648,2.809 0,1.23 -0.218,2.171 -0.648,2.812 -0.441,0.637 -1.063,0.957 -1.871,0.957 -0.82,0 -1.449,-0.32 -1.879,-0.957 -0.43,-0.641 -0.641,-1.582 -0.641,-2.812 0,-1.219 0.211,-2.161 0.641,-2.809 0.43,-0.641 1.059,-0.973 1.879,-0.973" /><path
         id="path160"
         style="fill:#000000;fill-opacity:1;fill-rule:nonzero;stroke:none"
         d="m 360.824,393.352 c -0.508,0 -0.89,0.25 -1.148,0.75 -0.262,0.5 -0.383,1.25 -0.383,2.25 0,1 0.121,1.75 0.383,2.25 0.258,0.5 0.64,0.75 1.148,0.75 0.512,0 0.891,-0.25 1.149,-0.75 0.25,-0.5 0.382,-1.25 0.382,-2.25 0,-1 -0.132,-1.75 -0.382,-2.25 -0.258,-0.5 -0.637,-0.75 -1.149,-0.75 m 0,-0.782 c 0.809,0 1.43,0.332 1.871,0.973 0.43,0.648 0.649,1.59 0.649,2.809 0,1.23 -0.219,2.171 -0.649,2.812 -0.441,0.637 -1.062,0.957 -1.871,0.957 -0.82,0 -1.449,-0.32 -1.879,-0.957 -0.429,-0.641 -0.64,-1.582 -0.64,-2.812 0,-1.219 0.211,-2.161 0.64,-2.809 0.43,-0.641 1.059,-0.973 1.879,-0.973" /></g><g
       id="g162"><g
         clip-path="url(#clipPath168)"
         id="g164"><g
           id="g170"><g
             id="g172"><g
               clip-path="url(#clipPath178)"
               id="g174"><g
                 id="g180"><g
                   transform="scale(1,-1)"
                   id="g182"><path
                     id="path184"
                     style="fill:none;stroke:#b0b0b0;stroke-width:0.80000001;stroke-linecap:square;stroke-linejoin:round;stroke-miterlimit:10;stroke-dasharray:none;stroke-opacity:1"
                     d="M 451.93,-385.398 V -14.801" /></g></g></g></g></g></g></g><g
       id="g186"><g
         transform="scale(1,-1)"
         id="g188"><path
           id="path190"
           style="fill:none;stroke:#000000;stroke-width:0.80000001;stroke-linecap:butt;stroke-linejoin:round;stroke-miterlimit:10;stroke-dasharray:none;stroke-opacity:1"
           d="m 451.93,-385.398 v -3.5" /></g><path
         id="path192"
         style="fill:#000000;fill-opacity:1;fill-rule:nonzero;stroke:none"
         d="m 441.133,399.164 h 3.437 v 0.828 h -4.629 v -0.828 c 0.371,-0.383 0.879,-0.902 1.532,-1.562 0.636,-0.649 1.047,-1.071 1.218,-1.258 0.321,-0.352 0.539,-0.653 0.661,-0.903 0.121,-0.238 0.187,-0.488 0.187,-0.73 0,-0.379 -0.137,-0.699 -0.406,-0.938 -0.274,-0.242 -0.621,-0.371 -1.063,-0.371 -0.308,0 -0.64,0.059 -0.98,0.16 -0.34,0.11 -0.707,0.27 -1.098,0.489 v -1 c 0.399,-0.16 0.77,-0.278 1.11,-0.36 0.339,-0.078 0.66,-0.121 0.949,-0.121 0.75,0 1.351,0.192 1.801,0.571 0.449,0.382 0.679,0.882 0.679,1.511 0,0.301 -0.058,0.59 -0.172,0.852 -0.109,0.269 -0.308,0.59 -0.609,0.949 -0.078,0.098 -0.34,0.367 -0.777,0.82 -0.442,0.45 -1.051,1.079 -1.84,1.891" /><path
         id="path194"
         style="fill:#000000;fill-opacity:1;fill-rule:nonzero;stroke:none"
         d="m 448.75,393.352 c -0.508,0 -0.891,0.25 -1.148,0.75 -0.262,0.5 -0.383,1.25 -0.383,2.25 0,1 0.121,1.75 0.383,2.25 0.257,0.5 0.64,0.75 1.148,0.75 0.512,0 0.891,-0.25 1.148,-0.75 0.25,-0.5 0.383,-1.25 0.383,-2.25 0,-1 -0.133,-1.75 -0.383,-2.25 -0.257,-0.5 -0.636,-0.75 -1.148,-0.75 m 0,-0.782 c 0.809,0 1.43,0.332 1.871,0.973 0.43,0.648 0.649,1.59 0.649,2.809 0,1.23 -0.219,2.171 -0.649,2.812 -0.441,0.637 -1.062,0.957 -1.871,0.957 -0.82,0 -1.449,-0.32 -1.879,-0.957 -0.43,-0.641 -0.641,-1.582 -0.641,-2.812 0,-1.219 0.211,-2.161 0.641,-2.809 0.43,-0.641 1.059,-0.973 1.879,-0.973" /><path
         id="path196"
         style="fill:#000000;fill-opacity:1;fill-rule:nonzero;stroke:none"
         d="m 455.109,393.352 c -0.507,0 -0.89,0.25 -1.148,0.75 -0.262,0.5 -0.383,1.25 -0.383,2.25 0,1 0.121,1.75 0.383,2.25 0.258,0.5 0.641,0.75 1.148,0.75 0.512,0 0.891,-0.25 1.149,-0.75 0.25,-0.5 0.383,-1.25 0.383,-2.25 0,-1 -0.133,-1.75 -0.383,-2.25 -0.258,-0.5 -0.637,-0.75 -1.149,-0.75 m 0,-0.782 c 0.809,0 1.43,0.332 1.871,0.973 0.43,0.648 0.649,1.59 0.649,2.809 0,1.23 -0.219,2.171 -0.649,2.812 -0.441,0.637 -1.062,0.957 -1.871,0.957 -0.82,0 -1.449,-0.32 -1.879,-0.957 -0.429,-0.641 -0.64,-1.582 -0.64,-2.812 0,-1.219 0.211,-2.161 0.64,-2.809 0.43,-0.641 1.059,-0.973 1.879,-0.973" /><path
         id="path198"
         style="fill:#000000;fill-opacity:1;fill-rule:nonzero;stroke:none"
         d="m 461.473,393.352 c -0.508,0 -0.891,0.25 -1.149,0.75 -0.262,0.5 -0.383,1.25 -0.383,2.25 0,1 0.121,1.75 0.383,2.25 0.258,0.5 0.641,0.75 1.149,0.75 0.511,0 0.89,-0.25 1.148,-0.75 0.25,-0.5 0.383,-1.25 0.383,-2.25 0,-1 -0.133,-1.75 -0.383,-2.25 -0.258,-0.5 -0.637,-0.75 -1.148,-0.75 m 0,-0.782 c 0.808,0 1.429,0.332 1.871,0.973 0.429,0.648 0.648,1.59 0.648,2.809 0,1.23 -0.219,2.171 -0.648,2.812 -0.442,0.637 -1.063,0.957 -1.871,0.957 -0.821,0 -1.45,-0.32 -1.879,-0.957 -0.43,-0.641 -0.641,-1.582 -0.641,-2.812 0,-1.219 0.211,-2.161 0.641,-2.809 0.429,-0.641 1.058,-0.973 1.879,-0.973" /></g><g
       id="g200"><g
         clip-path="url(#clipPath206)"
         id="g202"><g
           id="g208"><g
             id="g210"><g
               clip-path="url(#clipPath216)"
               id="g212"><g
                 id="g218"><g
                   transform="scale(1,-1)"
                   id="g220"><path
                     id="path222"
                     style="fill:none;stroke:#b0b0b0;stroke-width:0.80000001;stroke-linecap:square;stroke-linejoin:round;stroke-miterlimit:10;stroke-dasharray:none;stroke-opacity:1"
                     d="M 552.574,-385.398 V -14.801" /></g></g></g></g></g></g></g><g
       id="g224"><g
         transform="scale(1,-1)"
         id="g226"><path
           id="path228"
           style="fill:none;stroke:#000000;stroke-width:0.80000001;stroke-linecap:butt;stroke-linejoin:round;stroke-miterlimit:10;stroke-dasharray:none;stroke-opacity:1"
           d="m 552.574,-385.398 v -3.5" /></g><path
         id="path230"
         style="fill:#000000;fill-opacity:1;fill-rule:nonzero;stroke:none"
         d="m 541.777,399.164 h 3.438 v 0.828 h -4.629 v -0.828 c 0.371,-0.383 0.879,-0.902 1.531,-1.562 0.637,-0.649 1.047,-1.071 1.219,-1.258 0.32,-0.352 0.539,-0.653 0.66,-0.903 0.121,-0.238 0.188,-0.488 0.188,-0.73 0,-0.379 -0.137,-0.699 -0.407,-0.938 -0.273,-0.242 -0.621,-0.371 -1.062,-0.371 -0.309,0 -0.641,0.059 -0.981,0.16 -0.339,0.11 -0.707,0.27 -1.097,0.489 v -1 c 0.398,-0.16 0.769,-0.278 1.109,-0.36 0.34,-0.078 0.66,-0.121 0.949,-0.121 0.75,0 1.352,0.192 1.801,0.571 0.449,0.382 0.68,0.882 0.68,1.511 0,0.301 -0.059,0.59 -0.172,0.852 -0.109,0.269 -0.309,0.59 -0.609,0.949 -0.079,0.098 -0.34,0.367 -0.778,0.82 -0.441,0.45 -1.051,1.079 -1.84,1.891" /><path
         id="path232"
         style="fill:#000000;fill-opacity:1;fill-rule:nonzero;stroke:none"
         d="m 547.293,392.703 h 3.871 v 0.828 h -2.969 v 1.789 c 0.141,-0.047 0.289,-0.09 0.43,-0.109 0.141,-0.02 0.289,-0.039 0.43,-0.039 0.808,0 1.449,0.23 1.929,0.672 0.481,0.449 0.719,1.047 0.719,1.808 0,0.789 -0.25,1.399 -0.738,1.828 -0.488,0.434 -1.18,0.641 -2.059,0.641 -0.312,0 -0.621,-0.027 -0.941,-0.07 -0.32,-0.047 -0.641,-0.117 -0.981,-0.231 v -0.988 c 0.289,0.16 0.59,0.281 0.911,0.359 0.308,0.082 0.64,0.11 0.992,0.11 0.558,0 1.008,-0.137 1.34,-0.438 0.316,-0.301 0.488,-0.699 0.488,-1.211 0,-0.5 -0.172,-0.898 -0.488,-1.199 -0.332,-0.301 -0.782,-0.449 -1.34,-0.449 -0.262,0 -0.532,0.027 -0.793,0.09 -0.258,0.058 -0.528,0.148 -0.801,0.269 v -3.66" /><path
         id="path234"
         style="fill:#000000;fill-opacity:1;fill-rule:nonzero;stroke:none"
         d="m 555.758,393.352 c -0.508,0 -0.891,0.25 -1.149,0.75 -0.261,0.5 -0.382,1.25 -0.382,2.25 0,1 0.121,1.75 0.382,2.25 0.258,0.5 0.641,0.75 1.149,0.75 0.512,0 0.89,-0.25 1.148,-0.75 0.25,-0.5 0.383,-1.25 0.383,-2.25 0,-1 -0.133,-1.75 -0.383,-2.25 -0.258,-0.5 -0.636,-0.75 -1.148,-0.75 m 0,-0.782 c 0.808,0 1.43,0.332 1.871,0.973 0.43,0.648 0.648,1.59 0.648,2.809 0,1.23 -0.218,2.171 -0.648,2.812 -0.441,0.637 -1.063,0.957 -1.871,0.957 -0.82,0 -1.449,-0.32 -1.879,-0.957 -0.43,-0.641 -0.641,-1.582 -0.641,-2.812 0,-1.219 0.211,-2.161 0.641,-2.809 0.43,-0.641 1.059,-0.973 1.879,-0.973" /><path
         id="path236"
         style="fill:#000000;fill-opacity:1;fill-rule:nonzero;stroke:none"
         d="m 562.117,393.352 c -0.508,0 -0.89,0.25 -1.148,0.75 -0.262,0.5 -0.383,1.25 -0.383,2.25 0,1 0.121,1.75 0.383,2.25 0.258,0.5 0.64,0.75 1.148,0.75 0.512,0 0.891,-0.25 1.149,-0.75 0.25,-0.5 0.382,-1.25 0.382,-2.25 0,-1 -0.132,-1.75 -0.382,-2.25 -0.258,-0.5 -0.637,-0.75 -1.149,-0.75 m 0,-0.782 c 0.809,0 1.43,0.332 1.871,0.973 0.43,0.648 0.649,1.59 0.649,2.809 0,1.23 -0.219,2.171 -0.649,2.812 -0.441,0.637 -1.062,0.957 -1.871,0.957 -0.82,0 -1.449,-0.32 -1.879,-0.957 -0.429,-0.641 -0.64,-1.582 -0.64,-2.812 0,-1.219 0.211,-2.161 0.64,-2.809 0.43,-0.641 1.059,-0.973 1.879,-0.973" /><path
         id="path238"
         style="fill:#000000;fill-opacity:1;fill-rule:nonzero;stroke:none"
         d="m 286.551,407.727 h 6.172 l -0.161,0.828 h -2.601 l -1.25,6.461 h -0.988 l 1.25,-6.461 h -2.582 l 0.16,-0.828" /><path
         id="path240"
         style="fill:#000000;fill-opacity:1;fill-rule:nonzero;stroke:none"
         d="m 294.117,410.605 h 2.41 v 0.583 h -3.242 v -0.583 c 0.258,-0.265 0.617,-0.628 1.07,-1.089 0.45,-0.457 0.735,-0.75 0.856,-0.883 0.223,-0.246 0.375,-0.457 0.461,-0.629 0.082,-0.168 0.133,-0.344 0.133,-0.512 0,-0.265 -0.098,-0.492 -0.289,-0.66 -0.188,-0.168 -0.434,-0.258 -0.739,-0.258 -0.218,0 -0.449,0.043 -0.687,0.114 -0.238,0.074 -0.496,0.187 -0.77,0.343 v -0.703 c 0.278,-0.109 0.539,-0.195 0.778,-0.25 0.238,-0.055 0.461,-0.086 0.664,-0.086 0.523,0 0.945,0.133 1.258,0.399 0.316,0.269 0.476,0.617 0.476,1.058 0,0.211 -0.039,0.414 -0.117,0.594 -0.078,0.191 -0.219,0.414 -0.426,0.668 -0.058,0.07 -0.238,0.258 -0.547,0.574 -0.308,0.313 -0.734,0.754 -1.289,1.32" /><path
         id="path242"
         style="fill:#000000;fill-opacity:1;fill-rule:nonzero;stroke:none"
         d="m 298.672,413.777 h 1.027 v 0.84 l -0.801,1.547 h -0.628 l 0.402,-1.547 v -0.84" /><path
         id="path244"
         style="fill:#000000;fill-opacity:1;fill-rule:nonzero;stroke:none"
         d="m 304.84,407.727 h 0.988 v 3.078 l 3.27,-3.078 h 1.273 l -3.621,3.398 3.879,3.891 h -1.301 l -3.5,-3.512 v 3.512 h -0.988 v -7.289" /><path
         id="path246"
         style="fill:#000000;fill-opacity:1;fill-rule:nonzero;stroke:none"
         d="m 311.855,410.605 h 2.411 v 0.583 h -3.243 v -0.583 c 0.258,-0.265 0.618,-0.628 1.071,-1.089 0.449,-0.457 0.734,-0.75 0.855,-0.883 0.223,-0.246 0.375,-0.457 0.461,-0.629 0.082,-0.168 0.133,-0.344 0.133,-0.512 0,-0.265 -0.098,-0.492 -0.289,-0.66 -0.188,-0.168 -0.434,-0.258 -0.738,-0.258 -0.219,0 -0.45,0.043 -0.688,0.114 -0.238,0.074 -0.496,0.187 -0.769,0.343 v -0.703 c 0.277,-0.109 0.539,-0.195 0.777,-0.25 0.238,-0.055 0.461,-0.086 0.664,-0.086 0.523,0 0.945,0.133 1.258,0.399 0.316,0.269 0.476,0.617 0.476,1.058 0,0.211 -0.039,0.414 -0.117,0.594 -0.078,0.191 -0.219,0.414 -0.426,0.668 -0.058,0.07 -0.238,0.258 -0.546,0.574 -0.309,0.313 -0.735,0.754 -1.29,1.32" /></g><g
       id="g248"><g
         clip-path="url(#clipPath254)"
         id="g250"><g
           id="g256"><g
             id="g258"><g
               clip-path="url(#clipPath264)"
               id="g260"><g
                 id="g266"><g
                   transform="scale(1,-1)"
                   id="g268"><path
                     id="path270"
                     style="fill:none;stroke:#b0b0b0;stroke-width:0.80000001;stroke-linecap:square;stroke-linejoin:round;stroke-miterlimit:10;stroke-dasharray:none;stroke-opacity:1"
                     d="M 49.352,-385.398 H 552.574" /></g></g></g></g></g></g></g><g
       id="g272"><g
         transform="scale(1,-1)"
         id="g274"><path
           id="path276"
           style="fill:none;stroke:#000000;stroke-width:0.80000001;stroke-linecap:butt;stroke-linejoin:round;stroke-miterlimit:10;stroke-dasharray:none;stroke-opacity:1"
           d="m 49.352,-385.398 h -3.5" /></g><path
         id="path278"
         style="fill:#000000;fill-opacity:1;fill-rule:nonzero;stroke:none"
         d="m 39.172,382.555 c -0.508,0 -0.891,0.25 -1.149,0.75 -0.261,0.5 -0.382,1.25 -0.382,2.25 0,1 0.121,1.75 0.382,2.25 0.258,0.5 0.641,0.75 1.149,0.75 0.512,0 0.89,-0.25 1.148,-0.75 0.25,-0.5 0.383,-1.25 0.383,-2.25 0,-1 -0.133,-1.75 -0.383,-2.25 -0.258,-0.5 -0.636,-0.75 -1.148,-0.75 m 0,-0.782 c 0.808,0 1.43,0.332 1.871,0.973 0.43,0.649 0.648,1.59 0.648,2.809 0,1.23 -0.218,2.172 -0.648,2.812 -0.441,0.637 -1.063,0.957 -1.871,0.957 -0.82,0 -1.449,-0.32 -1.879,-0.957 -0.43,-0.64 -0.641,-1.582 -0.641,-2.812 0,-1.219 0.211,-2.16 0.641,-2.809 0.43,-0.641 1.059,-0.973 1.879,-0.973" /></g><g
       id="g280"><g
         clip-path="url(#clipPath286)"
         id="g282"><g
           id="g288"><g
             id="g290"><g
               clip-path="url(#clipPath296)"
               id="g292"><g
                 id="g298"><g
                   transform="scale(1,-1)"
                   id="g300"><path
                     id="path302"
                     style="fill:none;stroke:#b0b0b0;stroke-width:0.80000001;stroke-linecap:square;stroke-linejoin:round;stroke-miterlimit:10;stroke-dasharray:none;stroke-opacity:1"
                     d="M 49.352,-323.633 H 552.574" /></g></g></g></g></g></g></g><g
       id="g304"><g
         transform="scale(1,-1)"
         id="g306"><path
           id="path308"
           style="fill:none;stroke:#000000;stroke-width:0.80000001;stroke-linecap:butt;stroke-linejoin:round;stroke-miterlimit:10;stroke-dasharray:none;stroke-opacity:1"
           d="m 49.352,-323.633 h -3.5" /></g><path
         id="path310"
         style="fill:#000000;fill-opacity:1;fill-rule:nonzero;stroke:none"
         d="m 37.07,320.141 h 3.871 v 0.828 h -2.968 v 1.789 c 0.14,-0.047 0.289,-0.09 0.429,-0.11 0.141,-0.019 0.289,-0.039 0.43,-0.039 0.809,0 1.449,0.231 1.93,0.672 0.48,0.449 0.718,1.047 0.718,1.809 0,0.789 -0.25,1.398 -0.738,1.828 -0.488,0.434 -1.18,0.641 -2.058,0.641 -0.313,0 -0.622,-0.028 -0.942,-0.071 -0.32,-0.047 -0.64,-0.117 -0.98,-0.23 v -0.988 c 0.289,0.16 0.59,0.281 0.91,0.359 0.308,0.082 0.64,0.109 0.992,0.109 0.559,0 1.008,-0.136 1.34,-0.437 0.316,-0.301 0.488,-0.699 0.488,-1.211 0,-0.5 -0.172,-0.899 -0.488,-1.199 -0.332,-0.301 -0.781,-0.45 -1.34,-0.45 -0.262,0 -0.531,0.028 -0.793,0.09 -0.258,0.059 -0.527,0.149 -0.801,0.27 v -3.66" /></g><g
       id="g312"><g
         clip-path="url(#clipPath318)"
         id="g314"><g
           id="g320"><g
             id="g322"><g
               clip-path="url(#clipPath328)"
               id="g324"><g
                 id="g330"><g
                   transform="scale(1,-1)"
                   id="g332"><path
                     id="path334"
                     style="fill:none;stroke:#b0b0b0;stroke-width:0.80000001;stroke-linecap:square;stroke-linejoin:round;stroke-miterlimit:10;stroke-dasharray:none;stroke-opacity:1"
                     d="M 49.352,-261.867 H 552.574" /></g></g></g></g></g></g></g><g
       id="g336"><g
         transform="scale(1,-1)"
         id="g338"><path
           id="path340"
           style="fill:none;stroke:#000000;stroke-width:0.80000001;stroke-linecap:butt;stroke-linejoin:round;stroke-miterlimit:10;stroke-dasharray:none;stroke-opacity:1"
           d="m 49.352,-261.867 h -3.5" /></g><path
         id="path342"
         style="fill:#000000;fill-opacity:1;fill-rule:nonzero;stroke:none"
         d="m 30.871,264.836 h 1.613 v -5.563 l -1.75,0.352 v -0.902 l 1.739,-0.348 h 0.988 v 6.461 h 1.613 v 0.828 h -4.203 v -0.828" /><path
         id="path344"
         style="fill:#000000;fill-opacity:1;fill-rule:nonzero;stroke:none"
         d="m 39.172,259.023 c -0.508,0 -0.891,0.25 -1.149,0.75 -0.261,0.5 -0.382,1.25 -0.382,2.25 0,1 0.121,1.75 0.382,2.25 0.258,0.5 0.641,0.75 1.149,0.75 0.512,0 0.89,-0.25 1.148,-0.75 0.25,-0.5 0.383,-1.25 0.383,-2.25 0,-1 -0.133,-1.75 -0.383,-2.25 -0.258,-0.5 -0.636,-0.75 -1.148,-0.75 m 0,-0.781 c 0.808,0 1.43,0.332 1.871,0.973 0.43,0.648 0.648,1.59 0.648,2.808 0,1.231 -0.218,2.172 -0.648,2.813 -0.441,0.637 -1.063,0.957 -1.871,0.957 -0.82,0 -1.449,-0.32 -1.879,-0.957 -0.43,-0.641 -0.641,-1.582 -0.641,-2.813 0,-1.218 0.211,-2.16 0.641,-2.808 0.43,-0.641 1.059,-0.973 1.879,-0.973" /></g><g
       id="g346"><g
         clip-path="url(#clipPath352)"
         id="g348"><g
           id="g354"><g
             id="g356"><g
               clip-path="url(#clipPath362)"
               id="g358"><g
                 id="g364"><g
                   transform="scale(1,-1)"
                   id="g366"><path
                     id="path368"
                     style="fill:none;stroke:#b0b0b0;stroke-width:0.80000001;stroke-linecap:square;stroke-linejoin:round;stroke-miterlimit:10;stroke-dasharray:none;stroke-opacity:1"
                     d="M 49.352,-200.102 H 552.574" /></g></g></g></g></g></g></g><g
       id="g370"><g
         transform="scale(1,-1)"
         id="g372"><path
           id="path374"
           style="fill:none;stroke:#000000;stroke-width:0.80000001;stroke-linecap:butt;stroke-linejoin:round;stroke-miterlimit:10;stroke-dasharray:none;stroke-opacity:1"
           d="m 49.352,-200.102 h -3.5" /></g><path
         id="path376"
         style="fill:#000000;fill-opacity:1;fill-rule:nonzero;stroke:none"
         d="m 30.871,203.07 h 1.613 v -5.562 l -1.75,0.351 v -0.902 l 1.739,-0.348 h 0.988 v 6.461 h 1.613 v 0.828 h -4.203 v -0.828" /><path
         id="path378"
         style="fill:#000000;fill-opacity:1;fill-rule:nonzero;stroke:none"
         d="m 37.07,196.609 h 3.871 v 0.829 h -2.968 v 1.789 c 0.14,-0.047 0.289,-0.09 0.429,-0.11 0.141,-0.019 0.289,-0.039 0.43,-0.039 0.809,0 1.449,0.231 1.93,0.672 0.48,0.449 0.718,1.047 0.718,1.809 0,0.789 -0.25,1.398 -0.738,1.828 -0.488,0.433 -1.18,0.64 -2.058,0.64 -0.313,0 -0.622,-0.027 -0.942,-0.07 -0.32,-0.047 -0.64,-0.117 -0.98,-0.23 v -0.989 c 0.289,0.16 0.59,0.282 0.91,0.36 0.308,0.082 0.64,0.109 0.992,0.109 0.559,0 1.008,-0.137 1.34,-0.437 0.316,-0.301 0.488,-0.7 0.488,-1.211 0,-0.5 -0.172,-0.899 -0.488,-1.2 -0.332,-0.3 -0.781,-0.449 -1.34,-0.449 -0.262,0 -0.531,0.028 -0.793,0.09 -0.258,0.059 -0.527,0.148 -0.801,0.27 v -3.661" /></g><g
       id="g380"><g
         clip-path="url(#clipPath386)"
         id="g382"><g
           id="g388"><g
             id="g390"><g
               clip-path="url(#clipPath396)"
               id="g392"><g
                 id="g398"><g
                   transform="scale(1,-1)"
                   id="g400"><path
                     id="path402"
                     style="fill:none;stroke:#b0b0b0;stroke-width:0.80000001;stroke-linecap:square;stroke-linejoin:round;stroke-miterlimit:10;stroke-dasharray:none;stroke-opacity:1"
                     d="M 49.352,-138.332 H 552.574" /></g></g></g></g></g></g></g><g
       id="g404"><g
         transform="scale(1,-1)"
         id="g406"><path
           id="path408"
           style="fill:none;stroke:#000000;stroke-width:0.80000001;stroke-linecap:butt;stroke-linejoin:round;stroke-miterlimit:10;stroke-dasharray:none;stroke-opacity:1"
           d="m 49.352,-138.332 h -3.5" /></g><path
         id="path410"
         style="fill:#000000;fill-opacity:1;fill-rule:nonzero;stroke:none"
         d="m 31.555,141.301 h 3.437 v 0.828 h -4.629 v -0.828 c 0.371,-0.383 0.879,-0.903 1.532,-1.563 0.636,-0.648 1.046,-1.07 1.218,-1.258 0.321,-0.351 0.539,-0.652 0.66,-0.902 0.122,-0.238 0.188,-0.488 0.188,-0.73 0,-0.379 -0.137,-0.7 -0.406,-0.938 -0.274,-0.242 -0.621,-0.371 -1.063,-0.371 -0.308,0 -0.64,0.059 -0.98,0.16 -0.34,0.11 -0.707,0.27 -1.098,0.489 v -1 c 0.398,-0.161 0.77,-0.278 1.109,-0.36 0.34,-0.078 0.661,-0.121 0.95,-0.121 0.75,0 1.351,0.191 1.8,0.57 0.45,0.383 0.68,0.883 0.68,1.512 0,0.301 -0.058,0.59 -0.172,0.852 -0.109,0.269 -0.308,0.589 -0.609,0.949 -0.078,0.098 -0.34,0.367 -0.777,0.82 -0.442,0.449 -1.051,1.078 -1.84,1.891" /><path
         id="path412"
         style="fill:#000000;fill-opacity:1;fill-rule:nonzero;stroke:none"
         d="m 39.172,135.488 c -0.508,0 -0.891,0.25 -1.149,0.75 -0.261,0.5 -0.382,1.25 -0.382,2.25 0,1 0.121,1.75 0.382,2.25 0.258,0.5 0.641,0.75 1.149,0.75 0.512,0 0.89,-0.25 1.148,-0.75 0.25,-0.5 0.383,-1.25 0.383,-2.25 0,-1 -0.133,-1.75 -0.383,-2.25 -0.258,-0.5 -0.636,-0.75 -1.148,-0.75 m 0,-0.781 c 0.808,0 1.43,0.332 1.871,0.973 0.43,0.648 0.648,1.59 0.648,2.808 0,1.231 -0.218,2.172 -0.648,2.813 -0.441,0.637 -1.063,0.957 -1.871,0.957 -0.82,0 -1.449,-0.32 -1.879,-0.957 -0.43,-0.641 -0.641,-1.582 -0.641,-2.813 0,-1.218 0.211,-2.16 0.641,-2.808 0.43,-0.641 1.059,-0.973 1.879,-0.973" /></g><g
       id="g414"><g
         clip-path="url(#clipPath420)"
         id="g416"><g
           id="g422"><g
             id="g424"><g
               clip-path="url(#clipPath430)"
               id="g426"><g
                 id="g432"><g
                   transform="scale(1,-1)"
                   id="g434"><path
                     id="path436"
                     style="fill:none;stroke:#b0b0b0;stroke-width:0.80000001;stroke-linecap:square;stroke-linejoin:round;stroke-miterlimit:10;stroke-dasharray:none;stroke-opacity:1"
                     d="M 49.352,-76.566 H 552.574" /></g></g></g></g></g></g></g><g
       id="g438"><g
         transform="scale(1,-1)"
         id="g440"><path
           id="path442"
           style="fill:none;stroke:#000000;stroke-width:0.80000001;stroke-linecap:butt;stroke-linejoin:round;stroke-miterlimit:10;stroke-dasharray:none;stroke-opacity:1"
           d="m 49.352,-76.566 h -3.5" /></g><path
         id="path444"
         style="fill:#000000;fill-opacity:1;fill-rule:nonzero;stroke:none"
         d="m 31.555,79.535 h 3.437 v 0.828 h -4.629 v -0.828 c 0.371,-0.383 0.879,-0.902 1.532,-1.562 0.636,-0.649 1.046,-1.071 1.218,-1.258 0.321,-0.352 0.539,-0.653 0.66,-0.903 0.122,-0.238 0.188,-0.488 0.188,-0.73 0,-0.379 -0.137,-0.699 -0.406,-0.937 -0.274,-0.243 -0.621,-0.372 -1.063,-0.372 -0.308,0 -0.64,0.059 -0.98,0.161 -0.34,0.109 -0.707,0.269 -1.098,0.488 v -1 c 0.398,-0.16 0.77,-0.277 1.109,-0.36 0.34,-0.078 0.661,-0.121 0.95,-0.121 0.75,0 1.351,0.192 1.8,0.571 0.45,0.383 0.68,0.883 0.68,1.511 0,0.301 -0.058,0.59 -0.172,0.852 -0.109,0.27 -0.308,0.59 -0.609,0.949 -0.078,0.098 -0.34,0.367 -0.777,0.821 -0.442,0.449 -1.051,1.078 -1.84,1.89" /><path
         id="path446"
         style="fill:#000000;fill-opacity:1;fill-rule:nonzero;stroke:none"
         d="m 37.07,73.074 h 3.871 v 0.828 h -2.968 v 1.789 c 0.14,-0.046 0.289,-0.089 0.429,-0.109 0.141,-0.02 0.289,-0.039 0.43,-0.039 0.809,0 1.449,0.23 1.93,0.672 0.48,0.449 0.718,1.047 0.718,1.808 0,0.789 -0.25,1.399 -0.738,1.829 -0.488,0.433 -1.18,0.64 -2.058,0.64 -0.313,0 -0.622,-0.027 -0.942,-0.07 -0.32,-0.047 -0.64,-0.117 -0.98,-0.231 v -0.988 c 0.289,0.16 0.59,0.281 0.91,0.359 0.308,0.083 0.64,0.11 0.992,0.11 0.559,0 1.008,-0.137 1.34,-0.438 0.316,-0.3 0.488,-0.699 0.488,-1.211 0,-0.5 -0.172,-0.898 -0.488,-1.199 -0.332,-0.301 -0.781,-0.449 -1.34,-0.449 -0.262,0 -0.531,0.027 -0.793,0.09 -0.258,0.058 -0.527,0.148 -0.801,0.269 v -3.66" /></g><g
       id="g448"><g
         clip-path="url(#clipPath454)"
         id="g450"><g
           id="g456"><g
             id="g458"><g
               clip-path="url(#clipPath464)"
               id="g460"><g
                 id="g466"><g
                   transform="scale(1,-1)"
                   id="g468"><path
                     id="path470"
                     style="fill:none;stroke:#b0b0b0;stroke-width:0.80000001;stroke-linecap:square;stroke-linejoin:round;stroke-miterlimit:10;stroke-dasharray:none;stroke-opacity:1"
                     d="M 49.352,-14.801 H 552.574" /></g></g></g></g></g></g></g><g
       id="g472"><g
         transform="scale(1,-1)"
         id="g474"><path
           id="path476"
           style="fill:none;stroke:#000000;stroke-width:0.80000001;stroke-linecap:butt;stroke-linejoin:round;stroke-miterlimit:10;stroke-dasharray:none;stroke-opacity:1"
           d="m 49.352,-14.801 h -3.5" /></g><path
         id="path478"
         style="fill:#000000;fill-opacity:1;fill-rule:nonzero;stroke:none"
         d="m 33.691,14.668 c 0.473,0.102 0.84,0.309 1.102,0.629 0.262,0.32 0.398,0.723 0.398,1.18 0,0.722 -0.25,1.281 -0.738,1.671 -0.5,0.391 -1.199,0.579 -2.109,0.579 -0.313,0 -0.633,-0.028 -0.949,-0.09 -0.321,-0.051 -0.661,-0.141 -1,-0.258 v -0.953 c 0.269,0.16 0.566,0.281 0.898,0.363 0.32,0.078 0.66,0.117 1.019,0.117 0.622,0 1.09,-0.117 1.411,-0.359 0.32,-0.238 0.488,-0.598 0.488,-1.07 0,-0.418 -0.149,-0.758 -0.449,-1 -0.301,-0.239 -0.719,-0.368 -1.258,-0.368 h -0.852 v -0.812 h 0.891 c 0.48,0 0.852,-0.09 1.109,-0.289 0.262,-0.192 0.391,-0.469 0.391,-0.84 0,-0.371 -0.141,-0.66 -0.398,-0.859 -0.274,-0.2 -0.653,-0.301 -1.141,-0.301 -0.27,0 -0.563,0.031 -0.871,0.09 -0.309,0.058 -0.649,0.148 -1.02,0.269 v -0.879 c 0.371,-0.101 0.719,-0.179 1.051,-0.23 0.32,-0.051 0.629,-0.082 0.93,-0.082 0.738,0 1.328,0.172 1.769,0.512 0.442,0.339 0.66,0.8 0.66,1.378 0,0.403 -0.121,0.743 -0.351,1.02 -0.231,0.281 -0.559,0.48 -0.981,0.582" /><path
         id="path480"
         style="fill:#000000;fill-opacity:1;fill-rule:nonzero;stroke:none"
         d="m 39.172,11.957 c -0.508,0 -0.891,0.25 -1.149,0.75 -0.261,0.5 -0.382,1.25 -0.382,2.25 0,1 0.121,1.75 0.382,2.25 0.258,0.5 0.641,0.75 1.149,0.75 0.512,0 0.89,-0.25 1.148,-0.75 0.25,-0.5 0.383,-1.25 0.383,-2.25 0,-1 -0.133,-1.75 -0.383,-2.25 -0.258,-0.5 -0.636,-0.75 -1.148,-0.75 m 0,-0.781 c 0.808,0 1.43,0.332 1.871,0.972 0.43,0.649 0.648,1.59 0.648,2.809 0,1.231 -0.218,2.172 -0.648,2.813 -0.441,0.636 -1.063,0.957 -1.871,0.957 -0.82,0 -1.449,-0.321 -1.879,-0.957 -0.43,-0.641 -0.641,-1.582 -0.641,-2.813 0,-1.219 0.211,-2.16 0.641,-2.809 0.43,-0.64 1.059,-0.972 1.879,-0.972" /><path
         id="path482"
         style="fill:#000000;fill-opacity:1;fill-rule:nonzero;stroke:none"
         d="m 22.66,236.363 v -1.613 h -5.562 l 0.351,1.75 h -0.902 l -0.348,-1.738 v -0.989 h 6.461 v -1.613 h 0.828 v 4.203 H 22.66" /><path
         id="path484"
         style="fill:#000000;fill-opacity:1;fill-rule:nonzero;stroke:none"
         d="m 16.199,228.699 v -0.832 l 8.211,2.543 v 0.828 l -8.211,-2.539" /><path
         id="path486"
         style="fill:#000000;fill-opacity:1;fill-rule:nonzero;stroke:none"
         d="m 22.25,221.293 v -1.027 h 0.84 l 1.547,0.8 v 0.629 l -1.547,-0.402 h -0.84" /><path
         id="path488"
         style="fill:#000000;fill-opacity:1;fill-rule:nonzero;stroke:none"
         d="m 19.066,210.906 c -0.398,-0.222 -0.687,-0.492 -0.886,-0.801 -0.192,-0.308 -0.293,-0.679 -0.293,-1.109 0,-0.562 0.203,-1 0.601,-1.312 0.399,-0.309 0.969,-0.469 1.7,-0.469 h 3.3 v 0.902 h -3.269 c -0.52,0 -0.91,0.098 -1.172,0.278 -0.25,0.191 -0.379,0.472 -0.379,0.851 0,0.469 0.16,0.84 0.469,1.109 0.312,0.27 0.73,0.399 1.261,0.399 h 3.09 v 0.902 h -3.269 c -0.52,0 -0.91,0.098 -1.172,0.278 -0.25,0.191 -0.379,0.48 -0.379,0.863 0,0.457 0.16,0.828 0.469,1.098 0.312,0.269 0.73,0.402 1.261,0.402 h 3.09 v 0.898 H 18.02 v -0.898 h 0.847 c -0.328,-0.203 -0.578,-0.453 -0.738,-0.742 -0.16,-0.278 -0.242,-0.621 -0.242,-1.02 0,-0.398 0.101,-0.73 0.301,-1.008 0.199,-0.281 0.5,-0.48 0.878,-0.621" /><path
         id="path490"
         style="fill:#000000;fill-opacity:1;fill-rule:nonzero;stroke:none"
         d="m 16.199,203.824 v -0.832 l 8.211,2.543 v 0.828 l -8.211,-2.539" /><path
         id="path492"
         style="fill:#000000;fill-opacity:1;fill-rule:nonzero;stroke:none"
         d="m 16.199,202.016 v -4.192 h 0.828 v 3.203 h 2.153 v -2.89 h 0.828 v 2.89 h 3.48 v 0.989 h -7.289" /><path
         id="path494"
         style="fill:#000000;fill-opacity:1;fill-rule:nonzero;stroke:none"
         d="m 15.898,190.965 c 0.762,0.441 1.5,0.762 2.231,0.973 0.73,0.218 1.469,0.32 2.219,0.32 0.761,0 1.5,-0.102 2.23,-0.32 0.738,-0.211 1.469,-0.532 2.219,-0.973 v 0.781 c -0.77,0.492 -1.508,0.859 -2.25,1.102 -0.738,0.238 -1.469,0.359 -2.199,0.359 -0.719,0 -1.45,-0.121 -2.188,-0.359 -0.742,-0.243 -1.492,-0.602 -2.262,-1.102 v -0.781" /><path
         id="path496"
         style="fill:#000000;fill-opacity:1;fill-rule:nonzero;stroke:none"
         d="m 18.02,184.676 2.66,1.976 2.808,-2.078 v 1.059 l -2.148,1.59 2.148,1.589 v 1.063 l -2.859,-2.121 -2.609,1.941 v -1.062 l 1.949,-1.449 -1.949,-1.45 v -1.058" /><path
         id="path498"
         style="fill:#000000;fill-opacity:1;fill-rule:nonzero;stroke:none"
         d="m 22.66,183.008 v -1.613 h -5.562 l 0.351,1.75 h -0.902 l -0.348,-1.739 v -0.988 h 6.461 v -1.613 h 0.828 v 4.203 H 22.66" /><path
         id="path500"
         style="fill:#000000;fill-opacity:1;fill-rule:nonzero;stroke:none"
         d="m 16.848,174.703 c 0,0.508 0.25,0.891 0.75,1.149 0.5,0.261 1.25,0.382 2.25,0.382 1,0 1.75,-0.121 2.25,-0.382 0.5,-0.258 0.75,-0.641 0.75,-1.149 0,-0.512 -0.25,-0.891 -0.75,-1.148 -0.5,-0.25 -1.25,-0.383 -2.25,-0.383 -1,0 -1.75,0.133 -2.25,0.383 -0.5,0.257 -0.75,0.636 -0.75,1.148 m -0.782,0 c 0,-0.808 0.332,-1.43 0.973,-1.871 0.649,-0.43 1.59,-0.648 2.809,-0.648 1.23,0 2.172,0.218 2.812,0.648 0.637,0.441 0.957,1.063 0.957,1.871 0,0.82 -0.32,1.449 -0.957,1.879 -0.64,0.43 -1.582,0.641 -2.812,0.641 -1.219,0 -2.16,-0.211 -2.809,-0.641 -0.641,-0.43 -0.973,-1.059 -0.973,-1.879" /><path
         id="path502"
         style="fill:#000000;fill-opacity:1;fill-rule:nonzero;stroke:none"
         d="m 14.559,170.668 v -2.707 h 0.578 v 2.078 h 1.254 c -0.036,-0.098 -0.063,-0.203 -0.079,-0.301 -0.011,-0.097 -0.027,-0.203 -0.027,-0.3 0,-0.567 0.16,-1.016 0.469,-1.352 0.316,-0.336 0.734,-0.504 1.269,-0.504 0.551,0 0.981,0.176 1.282,0.52 0.3,0.343 0.445,0.824 0.445,1.441 0,0.219 -0.02,0.434 -0.047,0.656 -0.035,0.227 -0.086,0.449 -0.16,0.688 h -0.695 c 0.113,-0.203 0.195,-0.414 0.254,-0.637 0.054,-0.219 0.074,-0.449 0.074,-0.691 0,-0.395 -0.098,-0.707 -0.305,-0.942 -0.211,-0.222 -0.492,-0.34 -0.848,-0.34 -0.351,0 -0.632,0.118 -0.839,0.34 -0.211,0.235 -0.317,0.547 -0.317,0.942 0,0.179 0.02,0.371 0.063,0.55 0.043,0.184 0.105,0.371 0.191,0.559 h -2.562" /><path
         id="path504"
         style="fill:#000000;fill-opacity:1;fill-rule:nonzero;stroke:none"
         d="m 15.898,165.898 v -0.777 c 0.77,-0.48 1.52,-0.851 2.262,-1.094 0.738,-0.238 1.469,-0.367 2.188,-0.367 0.73,0 1.461,0.129 2.199,0.367 0.742,0.243 1.48,0.614 2.25,1.094 v 0.777 c -0.75,-0.429 -1.481,-0.75 -2.219,-0.968 -0.73,-0.211 -1.469,-0.321 -2.23,-0.321 -0.75,0 -1.489,0.11 -2.219,0.321 -0.731,0.218 -1.469,0.539 -2.231,0.968" /><path
         id="path506"
         style="fill:#000000;fill-opacity:1;fill-rule:nonzero;stroke:none"
         d="m 20.539,225.898 c -0.078,0.352 -0.219,0.602 -0.43,0.75 -0.148,0.122 -0.332,0.18 -0.531,0.18 -0.551,0 -0.988,-0.258 -1.308,-0.801 -0.262,-0.41 -0.391,-0.937 -0.391,-1.578 0,-0.242 0.019,-0.5 0.059,-0.769 0.042,-0.27 0.101,-0.563 0.179,-0.86 l 0.813,0.149 c -0.09,0.301 -0.16,0.578 -0.2,0.828 -0.042,0.262 -0.062,0.5 -0.062,0.73 0,0.391 0.082,0.711 0.223,0.961 0.179,0.309 0.398,0.461 0.66,0.461 0.179,0 0.316,-0.082 0.437,-0.242 0.141,-0.18 0.211,-0.469 0.211,-0.848 v -0.75 l 0.75,0.141 v 0.719 c 0,0.449 0.09,0.808 0.25,1.07 0.219,0.359 0.512,0.539 0.86,0.539 0.218,0 0.41,-0.09 0.55,-0.289 0.18,-0.242 0.27,-0.601 0.27,-1.101 0,-0.301 -0.02,-0.59 -0.078,-0.891 -0.063,-0.277 -0.16,-0.547 -0.281,-0.809 l 0.839,0.16 c 0.09,0.321 0.149,0.61 0.192,0.891 0.039,0.281 0.066,0.559 0.066,0.82 0,0.778 -0.137,1.34 -0.429,1.7 -0.219,0.281 -0.528,0.421 -0.918,0.421 -0.52,0 -0.942,-0.183 -1.262,-0.55 -0.231,-0.262 -0.391,-0.61 -0.469,-1.032" /></g><g
       id="g508"><g
         clip-path="url(#clipPath514)"
         id="g510"><g
           id="g516"><g
             id="g518"><g
               clip-path="url(#clipPath524)"
               id="g520"><g
                 id="g526"><g
                   transform="scale(1,-1)"
                   id="g528"><path
                     id="path530"
                     style="fill:none;stroke:#1e75b3;stroke-width:1.5;stroke-linecap:square;stroke-linejoin:round;stroke-miterlimit:10;stroke-dasharray:none;stroke-opacity:1"
                     d="m 577,-18.461 -0.547,-0.34 -0.773,-0.449 -0.266,-0.223 -1.301,-0.668 -0.261,-0.222 -1.317,-0.672 -0.265,-0.223 -1.293,-0.668 -0.539,-0.445 -1.297,-0.664 -0.25,-0.223 -1.336,-0.664 -0.539,-0.441 -1.305,-0.668 -0.254,-0.223 -0.812,-0.453 -1.325,-0.676 -0.254,-0.234 -0.812,-0.442 -0.27,-0.218 -1.339,-0.664 -0.254,-0.231 -1.309,-0.676 -0.277,-0.226 -0.543,-0.219 -0.258,-0.23 -0.789,-0.454 -0.27,-0.222 -1.351,-0.668 -0.27,-0.223 -0.793,-0.449 -0.797,-0.457 -0.808,-0.449 -0.274,-0.227 -0.8,-0.445 -0.766,-0.449 -1.332,-0.684 -0.266,-0.23 -0.754,-0.45 -0.265,-0.226 -1.328,-0.68 -0.258,-0.223 -1.309,-0.671 -0.523,-0.45 -1.344,-0.687 -0.258,-0.231 -0.535,-0.23 -0.25,-0.234 -1.328,-0.672 -0.266,-0.231 -0.8,-0.449 -0.266,-0.231 -1.336,-0.691 -0.273,-0.226 -1.305,-0.692 -0.278,-0.223 -1.359,-0.675 -0.527,-0.461 -1.344,-0.684 -0.262,-0.23 -1.351,-0.692 -0.258,-0.226 -0.82,-0.446 -0.266,-0.222 -1.336,-0.688 -0.269,-0.226 -0.801,-0.453 -0.828,-0.458 -0.27,-0.222 -0.547,-0.227 -0.265,-0.234 -0.555,-0.227 -0.266,-0.226 -1.367,-0.692 -0.547,-0.457 -0.543,-0.222 -0.265,-0.239 -0.821,-0.449 -0.55,-0.23 -0.274,-0.235 -0.562,-0.226 -0.27,-0.231 -0.539,-0.226 -0.543,-0.461 -1.375,-0.692 -0.27,-0.23 -0.554,-0.231 -0.25,-0.23 -0.543,-0.23 -0.27,-0.239 -0.8,-0.465 -0.27,-0.238 -0.531,-0.226 -0.25,-0.231 -1.344,-0.703 -0.266,-0.238 -1.351,-0.7 -0.27,-0.234 -0.816,-0.465 -0.258,-0.25 -1.336,-0.687 -0.277,-0.239 -0.535,-0.226 -0.258,-0.231 -0.563,-0.234 -0.269,-0.234 -1.348,-0.703 -0.265,-0.239 -0.805,-0.465 -0.285,-0.234 -0.805,-0.465 -1.359,-0.711 -0.278,-0.234 -0.543,-0.234 -0.277,-0.247 -0.539,-0.226 -0.274,-0.235 -0.808,-0.468 -0.277,-0.242 -1.372,-0.711 -0.285,-0.235 -0.836,-0.472 -1.359,-0.707 -0.274,-0.235 -0.808,-0.472 -0.293,-0.239 -1.367,-0.703 -0.278,-0.234 -1.402,-0.707 -0.269,-0.239 -0.559,-0.234 -0.555,-0.48 -0.828,-0.473 -1.394,-0.715 -0.278,-0.238 -1.402,-0.711 -0.281,-0.238 -0.852,-0.477 -0.285,-0.242 -1.391,-0.719 -0.269,-0.238 -1.336,-0.715 -0.281,-0.234 -0.551,-0.239 -0.285,-0.246 -0.817,-0.476 -0.269,-0.239 -0.563,-0.238 -0.269,-0.238 -1.364,-0.719 -0.277,-0.238 -0.543,-0.242 -0.277,-0.247 -0.559,-0.238 -0.254,-0.242 -0.804,-0.484 -0.274,-0.235 -0.555,-0.238 -0.261,-0.242 -1.395,-0.719 -0.281,-0.25 -0.551,-0.238 -0.281,-0.242 -0.832,-0.481 -0.293,-0.238 -1.395,-0.731 -0.281,-0.25 -0.558,-0.23 -0.286,-0.25 -1.39,-0.731 -0.278,-0.242 -0.566,-0.242 -0.277,-0.25 -0.578,-0.25 -0.27,-0.242 -0.555,-0.235 -0.566,-0.48 -1.41,-0.738 -0.278,-0.25 -1.429,-0.723 -0.289,-0.242 -0.563,-0.246 -0.562,-0.481 -1.438,-0.738 -0.269,-0.23 -1.442,-0.743 -0.578,-0.484 -0.574,-0.246 -0.285,-0.254 -0.582,-0.246 -0.274,-0.242 -0.578,-0.25 -0.281,-0.246 -0.871,-0.489 -1.418,-0.742 -0.278,-0.246 -0.554,-0.246 -0.278,-0.258 -0.578,-0.238 -0.554,-0.5 -0.567,-0.254 -0.277,-0.25 -1.418,-0.742 -0.281,-0.242 -0.559,-0.25 -0.289,-0.254 -1.414,-0.746 -0.289,-0.254 -1.41,-0.746 -0.578,-0.508 -0.571,-0.242 -0.293,-0.246 -0.574,-0.258 -0.277,-0.258 -0.571,-0.254 -0.285,-0.254 -0.582,-0.238 -0.297,-0.258 -0.562,-0.238 -0.281,-0.258 -0.871,-0.496 -0.29,-0.254 -1.433,-0.762 -0.289,-0.258 -1.465,-0.761 -0.289,-0.254 -0.574,-0.25 -0.297,-0.258 -0.582,-0.246 -0.289,-0.262 -0.574,-0.242 -0.305,-0.258 -0.586,-0.254 -0.285,-0.258 -0.586,-0.25 -0.586,-0.503 -0.582,-0.258 -0.285,-0.266 -0.598,-0.254 -0.297,-0.25 -0.605,-0.262 -0.293,-0.261 -0.594,-0.242 -0.289,-0.262 -1.473,-0.762 -0.289,-0.262 -0.605,-0.254 -0.301,-0.265 -0.586,-0.242 -0.297,-0.254 -0.894,-0.516 -0.29,-0.254 -1.441,-0.769 -0.289,-0.266 -0.582,-0.246 -0.293,-0.258 -1.441,-0.773 -0.289,-0.266 -0.59,-0.246 -0.297,-0.266 -0.567,-0.246 -0.3,-0.265 -0.871,-0.512 -0.293,-0.258 -0.582,-0.262 -0.301,-0.261 -0.582,-0.266 -0.293,-0.269 -1.481,-0.79 -0.289,-0.261 -0.586,-0.25 -0.304,-0.274 -0.598,-0.258 -0.301,-0.265 -0.57,-0.274 -0.293,-0.265 -0.606,-0.25 -0.304,-0.262 -0.598,-0.262 -0.301,-0.254 -0.597,-0.265 -0.293,-0.262 -0.907,-0.519 -0.3,-0.254 -0.586,-0.266 -0.301,-0.266 -0.602,-0.257 -0.3,-0.262 -0.606,-0.258 -0.297,-0.262 -0.609,-0.273 -0.297,-0.262 -0.613,-0.262 -0.305,-0.257 -1.512,-0.782 -0.617,-0.546 -0.605,-0.254 -0.309,-0.27 -1.531,-0.808 -0.309,-0.27 -0.609,-0.262 -0.301,-0.269 -0.617,-0.266 -0.305,-0.258 -0.625,-0.265 -0.312,-0.274 -0.602,-0.261 -0.301,-0.27 -0.59,-0.277 -0.304,-0.278 -0.602,-0.254 -0.297,-0.265 -0.597,-0.274 -0.309,-0.269 -0.594,-0.281 -0.3,-0.274 -0.602,-0.269 -0.305,-0.278 -0.593,-0.269 -0.301,-0.266 -0.61,-0.281 -0.308,-0.266 -0.61,-0.269 -0.605,-0.555 -1.223,-0.543 -0.304,-0.281 -0.61,-0.278 -0.308,-0.273 -0.61,-0.27 -0.312,-0.285 -0.61,-0.269 -0.312,-0.281 -1.524,-0.821 -0.57,-0.543 -0.613,-0.273 -0.305,-0.274 -0.617,-0.277 -0.316,-0.277 -0.625,-0.274 -0.305,-0.281 -0.621,-0.277 -0.313,-0.278 -0.625,-0.277 -0.308,-0.281 -0.633,-0.282 -0.32,-0.273 -0.629,-0.281 -0.317,-0.278 -0.633,-0.281 -0.32,-0.273 -1.57,-0.848 -0.328,-0.289 -0.633,-0.277 -0.316,-0.285 -0.637,-0.29 -0.32,-0.277 -1.266,-0.586 -0.324,-0.289 -0.629,-0.281 -0.317,-0.301 -0.609,-0.281 -0.305,-0.289 -0.636,-0.289 -0.313,-0.289 -0.617,-0.278 -0.324,-0.293 -0.629,-0.285 -0.313,-0.289 -0.621,-0.293 -0.32,-0.293 -0.625,-0.289 -0.309,-0.293 -1.273,-0.582 -0.317,-0.297 -0.632,-0.293 -0.329,-0.293 -0.64,-0.293 -0.317,-0.297 -0.625,-0.293 -0.328,-0.292 -0.644,-0.293 -0.321,-0.297 -0.64,-0.297 -0.324,-0.293 -1.293,-0.598 -0.325,-0.297 -0.656,-0.293 -0.324,-0.297 -0.656,-0.296 -0.325,-0.297 -0.644,-0.297 -0.324,-0.301 -0.656,-0.297 -0.329,-0.297 -0.656,-0.297 -0.332,-0.3 -1.312,-0.598 -0.336,-0.297 -0.657,-0.301 -0.328,-0.32 -0.668,-0.297 -0.336,-0.305 -0.664,-0.296 -0.328,-0.305 -0.672,-0.301 -0.324,-0.301 -1.293,-0.605 -0.328,-0.301 -0.652,-0.305 -0.325,-0.3 -0.644,-0.301 -0.332,-0.309 -0.649,-0.301 -0.328,-0.304 -0.664,-0.305 -0.328,-0.305 -1.316,-0.609 -0.328,-0.309 -0.661,-0.304 -0.332,-0.305 -0.668,-0.309 -0.332,-0.308 -0.664,-0.305 -0.332,-0.312 -0.668,-0.309 -0.328,-0.308 -0.683,-0.305 -0.332,-0.309 -1.348,-0.617 -0.309,-0.312 -0.652,-0.313 -0.34,-0.309 -0.664,-0.308 -0.344,-0.313 -1.699,-0.476 -0.34,-0.293 -0.687,-0.301 -0.348,-0.293 -0.695,-0.297 -0.344,-0.293 -0.68,-0.297 -0.699,-0.59 -0.695,-0.296 -0.348,-0.297 -0.691,-0.305 -0.352,-0.297 -0.687,-0.297 -0.332,-0.297 -0.68,-0.308 -0.332,-0.301 -0.684,-0.297 -0.336,-0.297 -0.683,-0.3 -0.695,-0.598 -0.684,-0.301 -0.344,-0.301 -0.679,-0.3 -0.344,-0.301 -0.692,-0.321 -0.347,-0.293 -0.696,-0.304 -0.351,-0.301 -0.684,-0.309 -0.355,-0.304 -0.699,-0.305 -0.348,-0.305 -0.715,-0.304 -0.699,-0.621 -0.707,-0.293 -0.356,-0.305 -0.703,-0.305 -0.355,-0.304 -0.719,-0.317 -0.348,-0.308 -0.718,-0.305 -0.36,-0.309 -0.715,-0.308 -0.715,-0.618 -0.714,-0.304 -0.368,-0.309 -0.726,-0.308 -0.363,-0.309 -0.715,-0.305 -0.371,-0.304 -0.731,-0.317 -0.367,-0.301 -0.73,-0.316 -0.711,-0.613 -0.707,-0.309 -0.36,-0.305 -0.711,-0.316 -0.355,-0.312 -0.719,-0.317 -0.352,-0.32 -0.714,-0.32 -0.368,-0.309 -0.718,-0.32 -0.367,-0.325 -0.707,-0.304 -0.743,-0.649 -0.718,-0.308 -0.368,-0.317 -0.734,-0.32 -0.363,-0.316 -0.742,-0.317 -0.372,-0.316 -0.742,-0.317 -0.363,-0.32 -0.738,-0.328 -0.746,-0.637 -0.75,-0.324 -0.371,-0.32 -0.75,-0.321 -0.383,-0.32 -0.746,-0.324 -0.375,-0.321 -0.762,-0.324 -0.383,-0.328 -0.762,-0.324 -0.379,-0.324 -0.765,-0.332 -0.766,-0.649 -0.769,-0.336 -0.387,-0.324 -0.738,-0.324 -0.371,-0.336 -0.754,-0.34 -0.371,-0.316 -0.747,-0.328 -0.382,-0.325 -0.75,-0.328 -0.375,-0.332 -0.77,-0.328 -0.758,-0.66 -0.765,-0.332 -0.379,-0.332 -0.77,-0.332 -0.379,-0.344 -0.777,-0.328 -0.387,-0.332 -0.777,-0.336 -0.387,-0.356 -0.785,-0.332 -0.391,-0.339 -0.781,-0.344 -0.39,-0.336 -0.789,-0.34 -0.395,-0.336 -0.801,-0.34 -0.793,-0.683 -0.797,-0.344 -0.402,-0.336 -0.793,-0.34 -0.406,-0.351 -0.809,-0.348 -0.402,-0.363 -0.781,-0.34 -0.391,-0.332 -0.785,-0.352 -0.395,-0.351 -0.789,-0.344 -0.394,-0.356 -0.789,-0.339 -0.403,-0.364 -0.804,-0.34 -0.403,-0.343 -0.801,-0.34 -0.406,-0.367 -0.808,-0.34 -0.813,-0.695 -0.816,-0.348 -0.407,-0.359 -0.82,-0.36 -0.41,-0.371 -0.824,-0.363 -0.414,-0.336 -0.832,-0.363 -0.418,-0.364 -0.832,-0.351 -0.422,-0.375 -0.844,-0.364 -0.418,-0.363 -0.848,-0.363 -0.429,-0.367 -0.844,-0.368 -0.418,-0.351 -0.824,-0.363 -0.41,-0.368 -0.825,-0.378 -0.421,-0.356 -0.829,-0.383 -0.421,-0.371 -0.84,-0.367 -0.418,-0.371 -0.844,-0.371 -0.422,-0.375 -0.851,-0.371 -0.426,-0.375 -0.856,-0.375 -0.429,-0.371 -0.864,-0.375 -0.433,-0.375 -0.867,-0.379 -0.434,-0.379 -0.875,-0.379 -0.441,-0.379 -0.879,-0.383 -0.438,-0.371 -0.89,-0.387 -0.45,-0.382 -0.894,-0.372 -0.43,-0.394 -0.863,-0.387 -0.438,-0.383 -0.871,-0.382 -0.433,-0.387 -0.879,-0.395 -0.446,-0.382 -0.886,-0.387 -0.442,-0.395 -0.89,-0.386 -0.453,-0.383 -0.899,-0.387 -0.906,-0.797 -1.824,-0.801 -0.457,-0.414 -0.922,-0.402 -0.465,-0.406 -0.926,-0.41 -0.469,-0.411 -0.937,-0.406 -0.469,-0.418 -0.926,-0.41 -0.453,-0.41 -0.914,-0.414 -0.457,-0.418 -1.851,-0.828 -0.461,-0.422 -0.934,-0.422 -0.469,-0.418 -0.945,-0.418 -0.473,-0.422 -0.953,-0.422 -0.476,-0.422 -0.961,-0.421 -0.485,-0.422 -1.937,-0.856 -0.492,-0.426 -0.989,-0.425 -0.496,-0.438 -0.972,-0.43 -0.477,-0.429 -0.961,-0.438 -0.48,-0.437 -0.961,-0.43 -0.489,-0.437 -1.961,-0.86 -0.496,-0.437 -0.996,-0.442 -0.5,-0.437 -1.008,-0.442 -0.5,-0.445 -1.019,-0.441 -0.512,-0.446 -1.023,-0.457 -0.516,-0.457 -2.027,-0.898 -0.5,-0.461 -1.012,-0.449 -0.508,-0.465 -1.023,-0.469 -0.512,-0.445 -1.039,-0.457 -0.516,-0.473 -2.101,-0.945 -0.531,-0.469 -1.067,-0.477 -0.531,-0.48 -2.113,-0.953 -0.524,-0.481 -1.051,-0.488 -0.531,-0.476 -2.144,-0.977 -0.535,-0.477 -1.086,-0.488 -0.547,-0.488 -2.215,-0.985 -0.559,-0.496 -1.097,-0.492 -0.536,-0.488 -2.183,-0.996 -0.555,-0.5 -1.105,-0.5 -0.559,-0.5 -2.262,-1.012 -0.57,-0.5 -1.148,0.32 -0.582,-0.445 -1.122,-0.445 -1.117,-0.891 -1.133,-0.441 -0.566,-0.453 -1.144,-0.446 -0.579,-0.453 -1.164,-0.445 -1.16,-0.914 -1.144,-0.469 -0.578,-0.465 -1.161,-0.465 -0.586,-0.468 -1.179,-0.465 -1.168,-0.938 -1.164,-0.468 -0.586,-0.473 -1.18,-0.473 -0.594,-0.465 -1.199,-0.468 -0.582,-0.469 -1.172,-0.465 -0.59,-0.465 -1.191,-0.461 -1.199,-0.933 -1.172,-0.465 -0.586,-0.469 -1.188,-0.465 -0.597,-0.468 -1.195,-0.465 -0.583,-0.465 -1.175,-0.465 -1.188,-0.922 -1.199,-0.465 -0.578,-0.465 -1.168,-0.461 -0.586,-0.453 -1.18,-0.457 -0.586,-0.453 -1.148,-0.453 -0.578,-0.449 -1.082,-0.445 -1.121,-0.887 -1.118,-0.442 -0.562,-0.433 -1.133,-0.434 -0.566,-0.433 -1.09,-0.422 -0.547,-0.422 -1.098,-0.418 -0.55,-0.414 -1.067,-0.41 -1.019,-0.797 -1.02,-0.391 -0.512,-0.383 -1.023,-0.382 -0.516,-0.379 -1.023,-0.379 -0.496,-0.371 -0.996,-0.368 -0.504,-0.367 -0.977,-0.359 -0.965,-0.691 -0.968,-0.34 -0.461,-0.332 -0.93,-0.332 -0.465,-0.325 -0.906,-0.316 -0.442,-0.309 -1.421,-0.3 -0.457,-0.586 -0.735,-0.278 -0.402,-0.269 -0.789,-0.258 -0.391,-0.254 -1.883,-0.719 -0.359,-0.226 -1.047,-0.43 -0.332,-0.207 -1.598,-0.578 -0.3,-0.188 -1.438,-0.507 -0.273,-0.161 -0.758,-0.285 -0.238,-0.133 -1.715,-0.57 -0.746,-0.293 -1.489,-0.472 -0.722,-0.262 -2.196,-0.582 -0.8,-0.196 -4.09,-0.527 -1.133,0.133 v 0.004 l -0.066,0.019 0.066,-0.019 -0.066,0.019" /></g></g></g></g></g></g></g><g
       id="g532"><g
         transform="scale(1,-1)"
         id="g534"><path
           id="path536"
           style="fill:none;stroke:#000000;stroke-width:0.80000001;stroke-linecap:square;stroke-linejoin:miter;stroke-miterlimit:10;stroke-dasharray:none;stroke-opacity:1"
           d="M 49.352,-385.398 V -14.801" /></g><g
         transform="scale(1,-1)"
         id="g538"><path
           id="path540"
           style="fill:none;stroke:#000000;stroke-width:0.80000001;stroke-linecap:square;stroke-linejoin:miter;stroke-miterlimit:10;stroke-dasharray:none;stroke-opacity:1"
           d="M 552.574,-385.398 V -14.801" /></g><g
         transform="scale(1,-1)"
         id="g542"><path
           id="path544"
           style="fill:none;stroke:#000000;stroke-width:0.80000001;stroke-linecap:square;stroke-linejoin:miter;stroke-miterlimit:10;stroke-dasharray:none;stroke-opacity:1"
           d="M 49.352,-385.398 H 552.574" /></g><g
         transform="scale(1,-1)"
         id="g546"><path
           id="path548"
           style="fill:none;stroke:#000000;stroke-width:0.80000001;stroke-linecap:square;stroke-linejoin:miter;stroke-miterlimit:10;stroke-dasharray:none;stroke-opacity:1"
           d="M 49.352,-14.801 H 552.574" /></g><path
         id="path550"
         style="fill:#ffffff;fill-opacity:1;fill-rule:nonzero;stroke:none"
         d="M 11.441,160.168 H 27.914 V 239.34 H 11.441 Z" /><text
         id="text554"
         style="font-variant:normal;font-weight:normal;font-size:14px;font-family:'DejaVu Sans';-inkscape-font-specification:DejaVuSans;writing-mode:lr-tb;fill:#000000;fill-opacity:1;fill-rule:nonzero;stroke:none"
         transform="rotate(-90,141.55567,122.30111)"><tspan
           id="tspan552"
           y="0"
           x="0 8.9040003">1/</tspan></text>
<text
         id="text558"
         style="font-variant:normal;font-weight:normal;font-size:14px;font-family:'DejaVu Sans';-inkscape-font-specification:DejaVuSans;writing-mode:lr-tb;fill:#000000;fill-opacity:1;fill-rule:nonzero;stroke:none"
         transform="rotate(-90,134.75167,115.49711)"><tspan
           id="tspan556"
           y="0"
           x="0"></tspan></text>
<text
         id="text566"
         style="font-variant:normal;font-weight:normal;font-size:14px;font-family:'DejaVu Sans';-inkscape-font-specification:DejaVuSans;writing-mode:lr-tb;fill:#000000;fill-opacity:1;fill-rule:nonzero;stroke:none"
         transform="rotate(-90,130.97167,111.71711)"><tspan
           id="tspan560"
           y="0"
           x="0 4.4380002 8.9180002 22.554001 27.257999 35.307999 39.787998 45.248001 53.521999 62.425999">, m/F (x10</tspan><tspan
           id="tspan562"
           y="-5.5999999"
           x="71.445274 76.485275">-5</tspan><tspan
           id="tspan564"
           y="0"
           x="85.417931">)</tspan></text>
</g></g></svg>